//Event file generated from Sappy .s format.
        #include "MPlayDef.event"

        #define    aelevate_grp  voicegroup000
        #define    aelevate_pri  0
        #define    aelevate_rev  0
        #define    aelevate_key  0

        // .rodata
        // aelevate
        ALIGN 4

//****************** Track 0 (Midi-Chn.0) ******************//

aelevate_0:
        BYTE   KEYSH   aelevate_key+0
// 000   ----------------------------------------
        BYTE   TEMPO   128/2
aelevate_0_LOOP:
        BYTE           VOICE   35
        BYTE           VOL     51
        BYTE   W96
        BYTE   W96
// 001   ----------------------------------------
        BYTE   W96
        BYTE   W96
// 002   ----------------------------------------
aelevate_0_2:
        BYTE           N12     Dn1   v102
        BYTE   W12
        BYTE                   En1
        BYTE   W12
        BYTE                   Dn1
        BYTE   W12
        BYTE           N24     As0
        BYTE   W24
        BYTE           N12     Gn1
        BYTE   W12
        BYTE                   Fn1
        BYTE   W12
        BYTE           N24     En1
        BYTE   W24
        BYTE           N12     Dn1
        BYTE   W12
        BYTE                   An0
        BYTE   W12
        BYTE           N24     Cn1
        BYTE   W24
        BYTE           N12     En1
        BYTE   W12
        BYTE                   Dn1
        BYTE   W12
        BYTE                   En1
        BYTE   W12
        BYTE   PEND
// 003   ----------------------------------------
aelevate_0_3:
        BYTE           N12     Dn1   v102
        BYTE   W12
        BYTE                   En1
        BYTE   W12
        BYTE                   Dn1
        BYTE   W12
        BYTE           N24     As0
        BYTE   W24
        BYTE           N12     Gn1
        BYTE   W12
        BYTE                   Fn1
        BYTE   W12
        BYTE           N24     En1   v103
        BYTE   W24
        BYTE           N12     Dn1
        BYTE   W12
        BYTE                   Cn1
        BYTE   W12
        BYTE           N24     An1
        BYTE   W24
        BYTE           N12     En1
        BYTE   W12
        BYTE                   Dn1
        BYTE   W12
        BYTE                   En1
        BYTE   W12
        BYTE   PEND
// 004   ----------------------------------------
aelevate_0_4:
        BYTE           N12     Fn1   v103
        BYTE   W12
        BYTE                   En1
        BYTE   W12
        BYTE                   Fn1
        BYTE   W12
        BYTE           N24     Gn1
        BYTE   W24
        BYTE           N12     An1
        BYTE   W12
        BYTE                   As1
        BYTE   W12
        BYTE           N24     Dn2
        BYTE   W24
        BYTE           N12     Cn2
        BYTE   W12
        BYTE                   As1
        BYTE   W12
        BYTE           N24     An1
        BYTE   W24
        BYTE           N12     Fn1
        BYTE   W12
        BYTE                   En1
        BYTE   W12
        BYTE                   Cn1
        BYTE   W12
        BYTE   PEND
// 005   ----------------------------------------
aelevate_0_5:
        BYTE           N12     Dn1   v104
        BYTE   W12
        BYTE                   En1
        BYTE   W12
        BYTE                   Dn1
        BYTE   W12
        BYTE           N24     As0
        BYTE   W24
        BYTE           N12     Gn1
        BYTE   W12
        BYTE                   Fn1
        BYTE   W12
        BYTE           N24     En1
        BYTE   W24
        BYTE           N12     Dn1
        BYTE   W12
        BYTE                   An0
        BYTE   W12
        BYTE           N24     Cs1
        BYTE   W24
        BYTE           N12     En1
        BYTE   W12
        BYTE                   Dn1
        BYTE   W12
        BYTE                   En1
        BYTE   W12
        BYTE   PEND
// 006   ----------------------------------------
aelevate_0_6:
        BYTE           N12     Dn1   v104
        BYTE   W12
        BYTE                   Cn1
        BYTE   W12
        BYTE                   As0
        BYTE   W12
        BYTE                   Dn1
        BYTE   W12
        BYTE                   En1
        BYTE   W12
        BYTE                   Gn1
        BYTE   W12
        BYTE                   An1
        BYTE   W12
        BYTE                   En1
        BYTE   W12
        BYTE           N04     En1   v061
        BYTE   W06
        BYTE                   En1   v020
        BYTE   W06
        BYTE           N12     En1   v099
        BYTE   W12
        BYTE           N04     En1   v049
        BYTE   W08
        BYTE                   En1   v013
        BYTE   W04
        BYTE           N12     Fn1   v099
        BYTE   W12
        BYTE           N04     Fn1   v059
        BYTE   W06
        BYTE                   Fn1   v013
        BYTE   W06
        BYTE                   Fn1   v059
        BYTE   W06
        BYTE                   Fn1   v013
        BYTE   W06
        BYTE           N06     Fn1   v099
        BYTE   W06
        BYTE                   En1
        BYTE   W06
        BYTE                   Fn1
        BYTE   W06
        BYTE                   En1
        BYTE   W06
        BYTE   PEND
// 007   ----------------------------------------
aelevate_0_7:
        BYTE           N12     Dn1   v104
        BYTE   W12
        BYTE                   En1
        BYTE   W12
        BYTE                   Fn1
        BYTE   W12
        BYTE           N36     Bn0
        BYTE   W36
        BYTE           N06     Dn1
        BYTE   W06
        BYTE                   En1
        BYTE   W06
        BYTE                   Fn1
        BYTE   W06
        BYTE                   Dn1
        BYTE   W06
        BYTE           N36     En1   v099
        BYTE   W36
        BYTE                   Gn1
        BYTE   W36
        BYTE           N24     Cs1
        BYTE   W24
        BYTE   PEND
// 008   ----------------------------------------
        BYTE   PATT
         POIN2  aelevate_0_6
// 009   ----------------------------------------
aelevate_0_9:
        BYTE           N36     Dn1   v104
        BYTE   W36
        BYTE                   Bn0
        BYTE   W36
        BYTE           N06     Dn1
        BYTE   W06
        BYTE                   En1
        BYTE   W06
        BYTE                   Fn1
        BYTE   W06
        BYTE                   Dn1
        BYTE   W06
        BYTE           N36     En1   v099
        BYTE   W36
        BYTE                   Gn1
        BYTE   W36
        BYTE           N24     Cs1
        BYTE   W24
        BYTE   PEND
// 010   ----------------------------------------
aelevate_0_10:
        BYTE           N12     Dn1   v104
        BYTE   W12
        BYTE           N72     Dn1   v068
        BYTE   W72
        BYTE           N24     As0   v099
        BYTE   W24
        BYTE           N12     Dn1
        BYTE   W12
        BYTE                   Fn1
        BYTE   W12
        BYTE           N24     Cn1
        BYTE   W24
        BYTE           N12     En1
        BYTE   W12
        BYTE                   Gn1
        BYTE   W12
        BYTE                   Cn1
        BYTE   W12
        BYTE   PEND
// 011   ----------------------------------------
aelevate_0_11:
        BYTE           N12     Dn1   v104
        BYTE   W12
        BYTE           N72     Dn1   v068
        BYTE   W72
        BYTE           N36     Gn0   v099
        BYTE   W36
        BYTE           N06     Cs1
        BYTE   W06
        BYTE                   An0
        BYTE   W06
        BYTE                   Cs1
        BYTE   W06
        BYTE                   An0
        BYTE   W06
        BYTE                   Cs1
        BYTE   W06
        BYTE                   Dn1
        BYTE   W06
        BYTE                   En1
        BYTE   W06
        BYTE                   Cs1
        BYTE   W06
        BYTE                   En1
        BYTE   W06
        BYTE                   Gn1
        BYTE   W06
        BYTE                   An1
        BYTE   W06
        BYTE                   Cs1
        BYTE   W06
        BYTE   PEND
// 012   ----------------------------------------
aelevate_0_12:
        BYTE           N12     Dn1   v102
        BYTE   W12
        BYTE                   Cn1
        BYTE   W12
        BYTE                   As0
        BYTE   W12
        BYTE                   An0
        BYTE   W12
        BYTE                   Gn0
        BYTE   W12
        BYTE                   An0
        BYTE   W12
        BYTE                   Dn1
        BYTE   W12
        BYTE           N24     En1
        BYTE   W24
        BYTE           N12     Gn1
        BYTE   W12
        BYTE                   Fn1
        BYTE   W12
        BYTE                   Dn1
        BYTE   W12
        BYTE                   Cn1
        BYTE   W12
        BYTE                   Dn1
        BYTE   W12
        BYTE                   En1
        BYTE   W12
        BYTE           N24     Fn1
        BYTE   W12
        BYTE   PEND
// 013   ----------------------------------------
aelevate_0_13:
        BYTE   W12
        BYTE           N06     Fn1   v102
        BYTE   W06
        BYTE                   Fn1   v054
        BYTE   W06
        BYTE           N12     Fn1   v102
        BYTE   W12
        BYTE           N06
        BYTE   W06
        BYTE                   Fn1   v054
        BYTE   W06
        BYTE           N12     Fn1   v102
        BYTE   W12
        BYTE                   Fn1
        BYTE   W12
        BYTE                   Fn1
        BYTE   W12
        BYTE           N06     Gn0
        BYTE   W06
        BYTE                   Bn0
        BYTE   W06
        BYTE                   Dn1
        BYTE   W06
        BYTE                   Fn1
        BYTE   W06
        BYTE                   Gn1
        BYTE   W06
        BYTE                   Fn1
        BYTE   W06
        BYTE                   Dn1
        BYTE   W06
        BYTE                   En1
        BYTE   W06
        BYTE                   Fn1
        BYTE   W06
        BYTE                   Gn1
        BYTE   W06
        BYTE                   Fn1
        BYTE   W06
        BYTE                   Gn1
        BYTE   W06
        BYTE                   Gn0
        BYTE   W12
        BYTE                   Fn1
        BYTE   W06
        BYTE                   Gn1
        BYTE   W06
        BYTE           N12     Cs1
        BYTE   W12
        BYTE   PEND
// 014   ----------------------------------------
aelevate_0_14:
        BYTE           N12     Dn1   v102
        BYTE   W12
        BYTE                   Cn1
        BYTE   W12
        BYTE                   As0
        BYTE   W12
        BYTE                   An0
        BYTE   W12
        BYTE                   Gn0
        BYTE   W12
        BYTE                   An0
        BYTE   W12
        BYTE                   Dn1
        BYTE   W12
        BYTE           N24     En1
        BYTE   W24
        BYTE           N12     Gn1
        BYTE   W12
        BYTE                   Fs1
        BYTE   W12
        BYTE                   Dn1
        BYTE   W12
        BYTE                   Cn1
        BYTE   W12
        BYTE                   Dn1
        BYTE   W12
        BYTE                   Fn1
        BYTE   W12
        BYTE                   En1
        BYTE   W12
        BYTE   PEND
// 015   ----------------------------------------
aelevate_0_15:
        BYTE           N06     Fn1   v102
        BYTE   W06
        BYTE                   En1   v062
        BYTE   W06
        BYTE                   Fn1   v102
        BYTE   W06
        BYTE                   En1   v062
        BYTE   W06
        BYTE                   Fn1   v102
        BYTE   W06
        BYTE                   En1   v062
        BYTE   W06
        BYTE                   Fn1   v040
        BYTE   W06
        BYTE                   En1   v102
        BYTE   W06
        BYTE                   Fn1   v062
        BYTE   W06
        BYTE                   Fn1   v102
        BYTE   W06
        BYTE                   En1   v062
        BYTE   W06
        BYTE                   Fn1
        BYTE   W06
        BYTE                   En1   v097
        BYTE   W06
        BYTE                   Cn1
        BYTE   W06
        BYTE                   Gn0
        BYTE   W06
        BYTE                   Bn0   v096
        BYTE   W06
        BYTE                   Dn1
        BYTE   W06
        BYTE                   Cn1   v095
        BYTE   W06
        BYTE                   Dn1
        BYTE   W06
        BYTE                   Dn1   v074
        BYTE   W06
        BYTE                   Cn1   v095
        BYTE   W06
        BYTE                   Dn1   v074
        BYTE   W06
        BYTE                   Cn1   v094
        BYTE   W06
        BYTE                   Dn1   v074
        BYTE   W06
        BYTE                   Dn1   v094
        BYTE   W06
        BYTE                   Cn1   v079
        BYTE   W06
        BYTE                   Cs1   v094
        BYTE   W06
        BYTE                   Dn1
        BYTE   W06
        BYTE                   En1   v079
        BYTE   W06
        BYTE                   Fs1   v094
        BYTE   W06
        BYTE                   Gn1   v090
        BYTE   W06
        BYTE                   Cs1   v084
        BYTE   W06
        BYTE   PEND
// 016   ----------------------------------------
aelevate_0_16:
        BYTE           N12     Dn1   v102
        BYTE   W12
        BYTE                   Cn1
        BYTE   W12
        BYTE                   As0
        BYTE   W12
        BYTE                   Dn1
        BYTE   W12
        BYTE                   En1
        BYTE   W12
        BYTE                   Gn1
        BYTE   W12
        BYTE                   An1
        BYTE   W12
        BYTE           N24     En1
        BYTE   W24
        BYTE           N12     En1   v086
        BYTE   W12
        BYTE                   En1   v102
        BYTE   W12
        BYTE           N24     Fn1
        BYTE   W24
        BYTE           N06
        BYTE   W06
        BYTE                   Fn1   v062
        BYTE   W06
        BYTE                   Fn1   v102
        BYTE   W06
        BYTE                   En1   v062
        BYTE   W06
        BYTE                   Fn1   v102
        BYTE   W06
        BYTE                   En1
        BYTE   W06
        BYTE   PEND
// 017   ----------------------------------------
aelevate_0_17:
        BYTE           N12     Dn1   v102
        BYTE   W12
        BYTE                   En1
        BYTE   W12
        BYTE                   Fn1
        BYTE   W12
        BYTE                   Bn0
        BYTE   W12
        BYTE                   Bn0   v078
        BYTE   W12
        BYTE                   Bn0   v058
        BYTE   W12
        BYTE           N06     Dn1   v102
        BYTE   W06
        BYTE                   En1
        BYTE   W06
        BYTE                   Fn1
        BYTE   W06
        BYTE                   Dn1
        BYTE   W06
        BYTE           N36     En1
        BYTE   W36
        BYTE                   Gn1
        BYTE   W36
        BYTE           N24     Cs1
        BYTE   W24
        BYTE   PEND
// 018   ----------------------------------------
        BYTE   PATT
         POIN2  aelevate_0_16
// 019   ----------------------------------------
aelevate_0_19:
        BYTE           N06     Dn1   v102
        BYTE   W06
        BYTE                   Dn1   v066
        BYTE   W06
        BYTE                   Fn1   v102
        BYTE   W06
        BYTE                   Gn1
        BYTE   W06
        BYTE                   En1
        BYTE   W06
        BYTE                   Fn1
        BYTE   W06
        BYTE                   Cs1
        BYTE   W06
        BYTE                   En1
        BYTE   W06
        BYTE                   Fn1
        BYTE   W06
        BYTE                   Gn1
        BYTE   W06
        BYTE                   En1
        BYTE   W06
        BYTE                   Fn1
        BYTE   W06
        BYTE                   Dn1
        BYTE   W06
        BYTE                   En1
        BYTE   W06
        BYTE                   Fn1
        BYTE   W06
        BYTE                   Dn1
        BYTE   W06
        BYTE           N12     En1
        BYTE   W12
        BYTE                   En1   v086
        BYTE   W12
        BYTE                   En1   v102
        BYTE   W12
        BYTE           N24     Cs1
        BYTE   W24
        BYTE           N06     En1
        BYTE   W06
        BYTE                   Cs1   v062
        BYTE   W06
        BYTE                   Cs1   v102
        BYTE   W06
        BYTE                   Cs1   v062
        BYTE   W06
        BYTE                   Cs1   v102
        BYTE   W06
        BYTE                   Cs1
        BYTE   W06
        BYTE   PEND
// 020   ----------------------------------------
        BYTE   PATT
         POIN2  aelevate_0_2
// 021   ----------------------------------------
        BYTE   PATT
         POIN2  aelevate_0_3
// 022   ----------------------------------------
        BYTE   PATT
         POIN2  aelevate_0_4
// 023   ----------------------------------------
        BYTE   PATT
         POIN2  aelevate_0_5
// 024   ----------------------------------------
        BYTE   PATT
         POIN2  aelevate_0_6
// 025   ----------------------------------------
        BYTE   PATT
         POIN2  aelevate_0_7
// 026   ----------------------------------------
        BYTE   PATT
         POIN2  aelevate_0_6
// 027   ----------------------------------------
        BYTE   PATT
         POIN2  aelevate_0_9
// 028   ----------------------------------------
        BYTE   PATT
         POIN2  aelevate_0_10
// 029   ----------------------------------------
        BYTE   PATT
         POIN2  aelevate_0_11
// 030   ----------------------------------------
        BYTE   PATT
         POIN2  aelevate_0_12
// 031   ----------------------------------------
        BYTE   PATT
         POIN2  aelevate_0_13
// 032   ----------------------------------------
        BYTE   PATT
         POIN2  aelevate_0_14
// 033   ----------------------------------------
        BYTE   PATT
         POIN2  aelevate_0_15
// 034   ----------------------------------------
        BYTE   PATT
         POIN2  aelevate_0_16
// 035   ----------------------------------------
        BYTE   PATT
         POIN2  aelevate_0_17
// 036   ----------------------------------------
        BYTE   PATT
         POIN2  aelevate_0_16
// 037   ----------------------------------------
        BYTE   PATT
         POIN2  aelevate_0_19
// 038   ----------------------------------------
        BYTE   GoTo
         POIN2  aelevate_0_LOOP
        BYTE   W72
        BYTE   FINE

//****************** Track 1 (Midi-Chn.2) ******************//

aelevate_1:
        BYTE   KEYSH   aelevate_key+0
// 000   ----------------------------------------
aelevate_1_LOOP:
        BYTE           VOICE   30
        BYTE           VOL     51
        BYTE           N12     An2   v095
        BYTE   W12
        BYTE           N06     An2   v105
        BYTE   W06
        BYTE                   An2   v037
        BYTE   W06
        BYTE                   An2   v021
        BYTE           N12     As1   v095
        BYTE   W12
        BYTE                   Dn2
        BYTE   W12
        BYTE                   Dn2   v051
        BYTE           N12     Fn2   v095
        BYTE   W12
        BYTE                   Fn2   v051
        BYTE           N12     En2   v095
        BYTE   W12
        BYTE                   En2   v051
        BYTE           N12     Dn2   v095
        BYTE   W12
        BYTE           N24     As1
        BYTE   W24
        BYTE           N12     Dn2
        BYTE   W12
        BYTE                   Dn2   v051
        BYTE           N12     Fn2   v095
        BYTE   W12
        BYTE           N24     Cn2
        BYTE   W24
        BYTE           N12     En2
        BYTE   W12
        BYTE                   En2   v051
        BYTE           N12     Gn2   v095
        BYTE   W12
        BYTE                   Gn2   v051
        BYTE           N12     Cn2   v095
        BYTE   W12
// 001   ----------------------------------------
        BYTE                   An2
        BYTE   W12
        BYTE           N06     An2   v105
        BYTE   W06
        BYTE                   An2   v037
        BYTE   W06
        BYTE                   An2   v021
        BYTE           N12     As1   v095
        BYTE   W12
        BYTE                   Dn2
        BYTE   W12
        BYTE                   Fn2
        BYTE           N12     Dn2   v051
        BYTE   W12
        BYTE                   Fn2
        BYTE           N12     En2   v095
        BYTE   W12
        BYTE                   En2   v051
        BYTE           N12     Dn2   v095
        BYTE   W12
        BYTE           N24     Gn2
        BYTE   W24
        BYTE           N12     Fn2
        BYTE   W12
        BYTE                   Fn2   v051
        BYTE           N12     En2   v095
        BYTE   W12
        BYTE           N24     An2
        BYTE           N12     En2   v051
        BYTE   W24
        BYTE                   Gn2   v095
        BYTE   W12
        BYTE                   Fn2
        BYTE           N12     Gn2   v051
        BYTE   W12
        BYTE                   En2   v095
        BYTE           N12     Fn2   v051
        BYTE   W12
// 002   ----------------------------------------
        BYTE                   An2   v095
        BYTE   W12
        BYTE           N06     An2   v105
        BYTE   W06
        BYTE                   An2   v037
        BYTE   W06
        BYTE                   An2   v021
        BYTE           N12     As1   v095
        BYTE   W12
        BYTE                   Dn2
        BYTE   W12
        BYTE                   Dn2   v051
        BYTE           N12     Fn2   v095
        BYTE   W12
        BYTE                   Fn2   v051
        BYTE           N12     En2   v095
        BYTE   W12
        BYTE                   En2   v051
        BYTE           N12     Dn2   v095
        BYTE   W12
        BYTE                   Dn2   v051
        BYTE           N24     As1   v095
        BYTE   W24
        BYTE           N12     Dn2
        BYTE   W12
        BYTE                   Dn2   v051
        BYTE           N12     Fn2   v095
        BYTE   W12
        BYTE                   Fn2   v051
        BYTE           N24     Cn2   v095
        BYTE   W24
        BYTE           N12     En2
        BYTE   W12
        BYTE                   En2   v051
        BYTE           N12     Gn2   v095
        BYTE   W12
        BYTE                   Gn2   v051
        BYTE           N12     Cn2   v095
        BYTE   W12
// 003   ----------------------------------------
        BYTE                   An2
        BYTE   W12
        BYTE           N06     An2   v105
        BYTE   W06
        BYTE                   An2   v037
        BYTE   W06
        BYTE                   An2   v021
        BYTE           N12     As1   v095
        BYTE   W12
        BYTE                   Dn2
        BYTE   W12
        BYTE                   Fn2
        BYTE           N12     Dn2   v051
        BYTE   W12
        BYTE                   Fn2
        BYTE           N12     En2   v095
        BYTE   W12
        BYTE                   En2   v051
        BYTE           N12     Dn2   v095
        BYTE   W12
        BYTE           N24     Gn2
        BYTE           N12     Dn2   v051
        BYTE   W24
        BYTE                   Fn2   v095
        BYTE   W12
        BYTE                   Fn2   v051
        BYTE           N12     En2   v095
        BYTE   W12
        BYTE                   En2   v051
        BYTE           N24     An2   v095
        BYTE   W24
        BYTE           N12     Gn2
        BYTE   W12
        BYTE                   Gn2   v051
        BYTE           N12     Fn2   v095
        BYTE   W12
        BYTE                   Fn2   v051
        BYTE           N12     En2   v095
        BYTE   W12
// 004   ----------------------------------------
        BYTE                   An2
        BYTE   W12
        BYTE           N06     An2   v105
        BYTE   W06
        BYTE                   An2   v037
        BYTE   W06
        BYTE           N12     As1   v095
        BYTE           N06     An2   v021
        BYTE   W12
        BYTE           N12     Dn2   v095
        BYTE   W12
        BYTE                   Fn2
        BYTE           N12     Dn2   v051
        BYTE   W12
        BYTE                   En2   v095
        BYTE           N12     Fn2   v051
        BYTE   W12
        BYTE                   Dn2   v095
        BYTE           N12     En2   v051
        BYTE   W12
        BYTE           N24     As1   v095
        BYTE           N12     Dn2   v051
        BYTE   W24
        BYTE                   Dn2   v095
        BYTE   W12
        BYTE                   Fn2
        BYTE           N12     Dn2   v051
        BYTE   W12
        BYTE           N24     Cn2   v095
        BYTE           N12     Fn2   v051
        BYTE   W24
        BYTE                   En2   v095
        BYTE   W12
        BYTE                   Gn2
        BYTE           N12     En2   v051
        BYTE   W12
        BYTE                   Cn2   v095
        BYTE           N12     Gn2   v051
        BYTE   W12
// 005   ----------------------------------------
aelevate_1_5:
        BYTE           N12     An2   v095
        BYTE   W12
        BYTE           N06     An2   v098
        BYTE   W06
        BYTE                   An2   v037
        BYTE   W06
        BYTE                   An2   v021
        BYTE           N12     As1   v095
        BYTE   W12
        BYTE                   Dn2
        BYTE   W12
        BYTE                   Dn2   v051
        BYTE           N12     Fn2   v095
        BYTE   W12
        BYTE                   En2
        BYTE           N12     Fn2   v051
        BYTE   W12
        BYTE                   Dn2   v095
        BYTE           N12     En2   v051
        BYTE   W12
        BYTE                   Dn2
        BYTE           N24     Gn2   v095
        BYTE   W24
        BYTE           N12     Fn2
        BYTE   W12
        BYTE                   En2
        BYTE           N12     Fn2   v051
        BYTE   W12
        BYTE                   En2
        BYTE           N24     An2   v095
        BYTE   W24
        BYTE           N12     Gn2
        BYTE   W12
        BYTE                   Gn2   v051
        BYTE           N12     Fn2   v095
        BYTE   W12
        BYTE                   Fn2   v051
        BYTE           N12     En2   v095
        BYTE   W12
        BYTE   PEND
// 006   ----------------------------------------
aelevate_1_6:
        BYTE           N36     Fn2   v095
        BYTE   W36
        BYTE           N48     Dn2
        BYTE   W48
        BYTE                   Gn2
        BYTE   W48
        BYTE           N36     Cn2
        BYTE   W36
        BYTE           N06     Gn1
        BYTE   W06
        BYTE                   An1
        BYTE   W06
        BYTE                   As1
        BYTE   W06
        BYTE                   An1
        BYTE   W06
        BYTE   PEND
// 007   ----------------------------------------
aelevate_1_7:
        BYTE           N36     As1   v095
        BYTE   W36
        BYTE           N48     Dn2
        BYTE   W48
        BYTE                   Cn2
        BYTE   W48
        BYTE           N60     Cs2
        BYTE   W60
        BYTE   PEND
// 008   ----------------------------------------
aelevate_1_8:
        BYTE           N12     Fn2   v095
        BYTE   W12
        BYTE                   En2
        BYTE           N12     Fn2   v051
        BYTE   W12
        BYTE                   En2
        BYTE           N12     Dn2   v095
        BYTE   W12
        BYTE           N24     As1
        BYTE   W24
        BYTE           N12     Gn2
        BYTE   W12
        BYTE                   Fn2
        BYTE           N12     Gn2   v051
        BYTE   W12
        BYTE           N24     En2   v095
        BYTE   W24
        BYTE           N12     Fn2
        BYTE   W12
        BYTE                   Fn2   v051
        BYTE           N12     En2   v095
        BYTE   W12
        BYTE           N24     Cn2
        BYTE           N12     En2   v051
        BYTE   W24
        BYTE                   Dn2   v095
        BYTE   W12
        BYTE                   En2
        BYTE   W12
        BYTE                   An1
        BYTE   W12
        BYTE   PEND
// 009   ----------------------------------------
aelevate_1_9:
        BYTE           N12     As1   v095
        BYTE   W12
        BYTE                   Dn2
        BYTE   W12
        BYTE                   Fn2
        BYTE   W12
        BYTE           N24     Bn1
        BYTE   W24
        BYTE           N12     Dn2
        BYTE   W12
        BYTE                   Fn2
        BYTE   W12
        BYTE           N06     Cn2
        BYTE   W06
        BYTE                   Bn1
        BYTE   W06
        BYTE           N12     Cn2
        BYTE   W12
        BYTE                   En2
        BYTE   W12
        BYTE                   Gn2
        BYTE   W12
        BYTE           N24     Cs2
        BYTE   W24
        BYTE           N12     En2
        BYTE   W12
        BYTE                   Gn2
        BYTE   W12
        BYTE                   Cs2
        BYTE   W12
        BYTE   PEND
// 010   ----------------------------------------
        BYTE                   An2
        BYTE   W12
        BYTE           N06     An2   v105
        BYTE   W06
        BYTE                   An2   v037
        BYTE   W06
        BYTE                   An2   v021
        BYTE           N12     As1   v095
        BYTE   W12
        BYTE                   Dn2
        BYTE   W12
        BYTE                   Dn2   v051
        BYTE           N12     Fn2   v095
        BYTE   W12
        BYTE                   Fn2   v051
        BYTE           N12     En2   v095
        BYTE   W12
        BYTE                   En2   v051
        BYTE           N12     Dn2   v095
        BYTE   W12
        BYTE           N24     As1
        BYTE   W24
        BYTE           N12     Dn2
        BYTE   W12
        BYTE                   Dn2   v051
        BYTE           N12     Fn2   v095
        BYTE   W12
        BYTE           N24     Cn2
        BYTE   W24
        BYTE           N12     En2
        BYTE   W12
        BYTE                   En2   v051
        BYTE           N12     Gn2   v095
        BYTE   W12
        BYTE                   Gn2   v051
        BYTE           N12     Cn2   v095
        BYTE   W12
// 011   ----------------------------------------
        BYTE                   An2
        BYTE   W12
        BYTE           N06     An2   v105
        BYTE   W06
        BYTE                   An2   v037
        BYTE   W06
        BYTE                   An2   v021
        BYTE           N12     As1   v095
        BYTE   W12
        BYTE                   Dn2
        BYTE   W12
        BYTE                   Fn2
        BYTE           N12     Dn2   v051
        BYTE   W12
        BYTE                   Fn2
        BYTE           N12     En2   v095
        BYTE   W12
        BYTE                   En2   v051
        BYTE           N12     Dn2   v095
        BYTE   W12
        BYTE           N24     Gn2
        BYTE   W24
        BYTE           N12     Fn2
        BYTE   W12
        BYTE                   Fn2   v051
        BYTE           N12     En2   v095
        BYTE   W12
        BYTE           N24     An2
        BYTE           N12     En2   v051
        BYTE   W24
        BYTE                   Gn2   v095
        BYTE   W12
        BYTE                   Fn2
        BYTE           N12     Gn2   v051
        BYTE   W12
        BYTE                   Gn2   v095
        BYTE           N12     Fn2   v051
        BYTE   W12
// 012   ----------------------------------------
        BYTE                   Dn2   v095
        BYTE   W12
        BYTE           N06     Dn2   v105
        BYTE   W06
        BYTE                   Dn2   v037
        BYTE   W06
        BYTE           N12     Fn2   v095
        BYTE           N06     Dn2   v021
        BYTE   W12
        BYTE           N12     Dn2   v095
        BYTE   W12
        BYTE                   En2
        BYTE           N12     Dn2   v051
        BYTE   W12
        BYTE                   Fn2   v095
        BYTE           N12     En2   v051
        BYTE   W12
        BYTE                   An1   v095
        BYTE           N12     Fn2   v051
        BYTE   W12
        BYTE           N24     En2   v095
        BYTE   W24
        BYTE           N12
        BYTE   W12
        BYTE                   Gn2
        BYTE           N12     En2   v051
        BYTE   W12
        BYTE                   En2   v095
        BYTE   W12
        BYTE                   Fn2
        BYTE   W12
        BYTE                   Gn2
        BYTE   W12
        BYTE                   An2
        BYTE           N12     Gn2   v051
        BYTE   W12
        BYTE                   An2
        BYTE           N12     Fn2   v095
        BYTE   W12
// 013   ----------------------------------------
        BYTE                   Fn2
        BYTE   W12
        BYTE                   Fn2
        BYTE   W12
        BYTE                   An2
        BYTE   W12
        BYTE                   Fn2
        BYTE   W12
        BYTE                   Fn2   v051
        BYTE           N12     Gn2   v095
        BYTE   W12
        BYTE                   An2
        BYTE           N12     Gn2   v051
        BYTE   W12
        BYTE                   An2
        BYTE           N12     Fn2   v095
        BYTE   W12
        BYTE           N24     As2
        BYTE   W24
        BYTE           N12     An2
        BYTE   W12
        BYTE                   An2   v051
        BYTE           N12     Gn2   v095
        BYTE   W12
        BYTE                   Fn2
        BYTE           N12     Gn2   v051
        BYTE   W12
        BYTE                   Gn2   v095
        BYTE   W12
        BYTE                   An2
        BYTE   W12
        BYTE                   An2   v051
        BYTE           N12     Cn2   v095
        BYTE   W12
        BYTE                   Cn2   v051
        BYTE           N24     Dn2   v095
        BYTE   W12
// 014   ----------------------------------------
        BYTE   W12
        BYTE           N12
        BYTE   W12
        BYTE                   Dn2   v051
        BYTE           N12     Fn2   v095
        BYTE   W12
        BYTE                   Fn2   v051
        BYTE           N12     Dn2   v095
        BYTE   W12
        BYTE                   En2
        BYTE   W12
        BYTE                   En2   v051
        BYTE           N24     Fn2   v095
        BYTE   W24
        BYTE                   En2
        BYTE   W24
        BYTE           N12
        BYTE   W12
        BYTE                   En2   v051
        BYTE           N12     Gn2   v095
        BYTE   W12
        BYTE                   Gn2   v051
        BYTE           N12     En2   v095
        BYTE   W12
        BYTE                   En2   v051
        BYTE           N12     Fn2   v095
        BYTE           N12     Gn2   v019
        BYTE   W12
        BYTE           N24     Gn2   v095
        BYTE           N12     Fn2   v051
        BYTE           N12     En2   v019
        BYTE   W12
        BYTE                   Fn2
        BYTE   W12
        BYTE                   Gn2   v051
        BYTE           N24     Fn2   v095
        BYTE   W12
// 015   ----------------------------------------
        BYTE   W12
        BYTE           N12
        BYTE   W12
        BYTE                   Fn2   v019
        BYTE           N12     An2   v095
        BYTE   W12
        BYTE                   An2   v019
        BYTE           N12     Fn2   v095
        BYTE   W12
        BYTE                   Gn2
        BYTE           N12     Fn2   v019
        BYTE   W12
        BYTE                   An2   v095
        BYTE           N12     Gn2   v019
        BYTE   W12
        BYTE                   Fn2   v095
        BYTE           N12     An2   v019
        BYTE   W12
        BYTE                   Fn2
        BYTE           N24     As2   v095
        BYTE   W24
        BYTE           N12     An2
        BYTE   W12
        BYTE                   An2   v019
        BYTE           N12     Gn2   v095
        BYTE   W12
        BYTE                   Gn2   v019
        BYTE           N12     Fn2   v095
        BYTE   W12
        BYTE                   Gn2
        BYTE           N12     Fn2   v019
        BYTE   W12
        BYTE                   Gn2
        BYTE           N24     An2   v095
        BYTE   W24
        BYTE           N12     Cn2
        BYTE           N12     An2   v019
        BYTE   W12
// 016   ----------------------------------------
aelevate_1_16:
        BYTE           N12     Cn2   v019
        BYTE           N36     Fn2   v095
        BYTE   W36
        BYTE           N48     Dn2
        BYTE   W48
        BYTE                   Gn2
        BYTE   W48
        BYTE           N36     Cn2
        BYTE   W36
        BYTE           N06     Gn1
        BYTE   W06
        BYTE                   An1
        BYTE   W06
        BYTE                   As1
        BYTE   W06
        BYTE                   An1
        BYTE   W06
        BYTE   PEND
// 017   ----------------------------------------
        BYTE   PATT
         POIN2  aelevate_1_7
// 018   ----------------------------------------
aelevate_1_18:
        BYTE           N12     Fn2   v095
        BYTE   W12
        BYTE                   En2
        BYTE           N12     Fn2   v051
        BYTE   W12
        BYTE                   En2
        BYTE           N12     Dn2   v095
        BYTE   W12
        BYTE           N24     As1
        BYTE   W24
        BYTE           N12     Gn2
        BYTE   W12
        BYTE                   Gn2   v051
        BYTE           N12     Fn2   v095
        BYTE   W12
        BYTE           N24     En2
        BYTE   W24
        BYTE           N12     Fn2
        BYTE   W12
        BYTE                   Fn2   v051
        BYTE           N12     En2   v095
        BYTE   W12
        BYTE           N24     Cn2
        BYTE           N12     En2   v051
        BYTE   W24
        BYTE                   Dn2   v095
        BYTE   W12
        BYTE                   Dn2   v051
        BYTE           N12     En2   v095
        BYTE   W12
        BYTE                   En2   v051
        BYTE           N12     An1   v095
        BYTE   W12
        BYTE   PEND
// 019   ----------------------------------------
aelevate_1_19:
        BYTE           N12     As1   v095
        BYTE   W12
        BYTE                   As1   v051
        BYTE           N12     Dn2   v095
        BYTE   W12
        BYTE                   Dn2   v051
        BYTE           N12     Fn2   v095
        BYTE   W12
        BYTE                   Fn2   v051
        BYTE           N24     Bn1   v095
        BYTE   W24
        BYTE           N12     Bn1   v051
        BYTE           N12     Dn2   v095
        BYTE   W12
        BYTE                   Dn2   v051
        BYTE           N12     Fn2   v095
        BYTE   W12
        BYTE                   Fn2   v051
        BYTE           N06     Cn2   v095
        BYTE   W06
        BYTE                   Bn1
        BYTE   W06
        BYTE           N12     Cn2
        BYTE   W12
        BYTE                   Cn2   v051
        BYTE           N12     En2   v095
        BYTE   W12
        BYTE                   En2   v051
        BYTE           N12     Gn2   v095
        BYTE   W12
        BYTE                   Gn2   v051
        BYTE           N24     Cs2   v095
        BYTE   W24
        BYTE           N12     En2
        BYTE   W12
        BYTE                   En2   v051
        BYTE           N12     Gn2   v095
        BYTE   W12
        BYTE                   Gn2   v051
        BYTE           N12     Cs2   v095
        BYTE   W12
        BYTE   PEND
// 020   ----------------------------------------
        BYTE                   An2
        BYTE   W12
        BYTE           N06     An2   v105
        BYTE   W06
        BYTE                   An2   v037
        BYTE   W06
        BYTE           N12     As1   v095
        BYTE           N06     An2   v021
        BYTE   W12
        BYTE           N12     Dn2   v095
        BYTE   W12
        BYTE                   Dn2   v051
        BYTE           N12     Fn2   v095
        BYTE   W12
        BYTE                   Fn2   v051
        BYTE           N12     En2   v095
        BYTE   W12
        BYTE                   En2   v051
        BYTE           N12     Dn2   v095
        BYTE   W12
        BYTE                   Dn2   v051
        BYTE           N24     As1   v095
        BYTE   W24
        BYTE           N12     Dn2
        BYTE   W12
        BYTE                   Dn2   v051
        BYTE           N12     Fn2   v095
        BYTE   W12
        BYTE                   Fn2   v051
        BYTE           N24     Cn2   v095
        BYTE   W24
        BYTE           N12     En2
        BYTE   W12
        BYTE                   En2   v051
        BYTE           N12     Gn2   v095
        BYTE   W12
        BYTE                   Gn2   v051
        BYTE           N12     Cn2   v095
        BYTE   W12
// 021   ----------------------------------------
        BYTE                   An2
        BYTE   W12
        BYTE           N06     An2   v105
        BYTE   W06
        BYTE                   An2   v037
        BYTE   W06
        BYTE           N12     As1   v095
        BYTE           N06     An2   v021
        BYTE   W12
        BYTE           N12     Dn2   v095
        BYTE   W12
        BYTE                   Fn2
        BYTE           N12     Dn2   v051
        BYTE   W12
        BYTE                   Fn2
        BYTE           N12     En2   v095
        BYTE   W12
        BYTE                   En2   v051
        BYTE           N12     Dn2   v095
        BYTE   W12
        BYTE           N24     Gn2
        BYTE           N12     Dn2   v051
        BYTE   W24
        BYTE                   Fn2   v095
        BYTE   W12
        BYTE                   Fn2   v051
        BYTE           N12     En2   v095
        BYTE   W12
        BYTE                   En2   v051
        BYTE           N24     An2   v095
        BYTE   W24
        BYTE           N12     Gn2
        BYTE   W12
        BYTE                   Gn2   v051
        BYTE           N12     Fn2   v095
        BYTE   W12
        BYTE                   Fn2   v051
        BYTE           N12     En2   v095
        BYTE   W12
// 022   ----------------------------------------
        BYTE                   An2
        BYTE   W12
        BYTE           N06     An2   v105
        BYTE   W06
        BYTE                   An2   v037
        BYTE   W06
        BYTE                   An2   v021
        BYTE           N12     As1   v095
        BYTE   W12
        BYTE                   Dn2
        BYTE   W12
        BYTE                   Fn2
        BYTE           N12     Dn2   v051
        BYTE   W12
        BYTE                   En2   v095
        BYTE           N12     Fn2   v051
        BYTE   W12
        BYTE                   Dn2   v095
        BYTE           N12     En2   v051
        BYTE   W12
        BYTE           N24     As1   v095
        BYTE           N12     Dn2   v051
        BYTE   W24
        BYTE                   Dn2   v095
        BYTE   W12
        BYTE                   Fn2
        BYTE           N12     Dn2   v051
        BYTE   W12
        BYTE           N24     Cn2   v095
        BYTE           N12     Fn2   v051
        BYTE   W24
        BYTE                   En2   v095
        BYTE   W12
        BYTE                   Gn2
        BYTE           N12     En2   v051
        BYTE   W12
        BYTE                   Cn2   v095
        BYTE           N12     Gn2   v051
        BYTE   W12
// 023   ----------------------------------------
        BYTE   PATT
         POIN2  aelevate_1_5
// 024   ----------------------------------------
        BYTE   PATT
         POIN2  aelevate_1_6
// 025   ----------------------------------------
        BYTE   PATT
         POIN2  aelevate_1_7
// 026   ----------------------------------------
        BYTE   PATT
         POIN2  aelevate_1_8
// 027   ----------------------------------------
        BYTE   PATT
         POIN2  aelevate_1_9
// 028   ----------------------------------------
        BYTE           N12     An2   v095
        BYTE   W12
        BYTE           N06     An2   v105
        BYTE   W06
        BYTE                   An2   v037
        BYTE   W06
        BYTE           N12     As1   v095
        BYTE           N06     An2   v021
        BYTE   W12
        BYTE           N12     Dn2   v095
        BYTE   W12
        BYTE                   Dn2   v051
        BYTE           N12     Fn2   v095
        BYTE   W12
        BYTE                   Fn2   v051
        BYTE           N12     En2   v095
        BYTE   W12
        BYTE                   En2   v051
        BYTE           N12     Dn2   v095
        BYTE   W12
        BYTE           N24     As1
        BYTE   W24
        BYTE           N12     Dn2
        BYTE   W12
        BYTE                   Dn2   v051
        BYTE           N12     Fn2   v095
        BYTE   W12
        BYTE           N24     Cn2
        BYTE   W24
        BYTE           N12     En2
        BYTE   W12
        BYTE                   En2   v051
        BYTE           N12     Gn2   v095
        BYTE   W12
        BYTE                   Gn2   v051
        BYTE           N12     Cn2   v095
        BYTE   W12
// 029   ----------------------------------------
        BYTE                   An2
        BYTE   W12
        BYTE           N06     An2   v105
        BYTE   W06
        BYTE                   An2   v037
        BYTE   W06
        BYTE           N12     As1   v095
        BYTE           N06     An2   v021
        BYTE   W12
        BYTE           N12     Dn2   v095
        BYTE   W12
        BYTE                   Fn2
        BYTE           N12     Dn2   v051
        BYTE   W12
        BYTE                   Fn2
        BYTE           N12     En2   v095
        BYTE   W12
        BYTE                   En2   v051
        BYTE           N12     Dn2   v095
        BYTE   W12
        BYTE           N24     Gn2
        BYTE   W24
        BYTE           N12     Fn2
        BYTE   W12
        BYTE                   Fn2   v051
        BYTE           N12     En2   v095
        BYTE   W12
        BYTE           N24     An2
        BYTE           N12     En2   v051
        BYTE   W24
        BYTE                   Gn2   v095
        BYTE   W12
        BYTE                   Fn2
        BYTE           N12     Gn2   v051
        BYTE   W12
        BYTE                   Gn2   v095
        BYTE           N12     Fn2   v051
        BYTE   W12
// 030   ----------------------------------------
        BYTE                   Dn2   v095
        BYTE   W12
        BYTE           N06     Dn2   v105
        BYTE   W06
        BYTE                   Dn2   v037
        BYTE   W06
        BYTE           N12     Fn2   v095
        BYTE           N06     Dn2   v021
        BYTE   W12
        BYTE           N12     Dn2   v095
        BYTE   W12
        BYTE                   En2
        BYTE           N12     Dn2   v051
        BYTE   W12
        BYTE                   Fn2   v095
        BYTE           N12     En2   v051
        BYTE   W12
        BYTE                   An1   v095
        BYTE           N12     Fn2   v051
        BYTE   W12
        BYTE           N24     En2   v095
        BYTE   W24
        BYTE           N12
        BYTE   W12
        BYTE                   Gn2
        BYTE           N12     En2   v051
        BYTE   W12
        BYTE                   En2   v095
        BYTE   W12
        BYTE                   Fn2
        BYTE   W12
        BYTE                   Gn2
        BYTE   W12
        BYTE                   Gn2   v051
        BYTE           N12     An2   v095
        BYTE   W12
        BYTE                   Fn2
        BYTE           N12     An2   v051
        BYTE   W12
// 031   ----------------------------------------
        BYTE                   Fn2   v095
        BYTE   W12
        BYTE                   Fn2
        BYTE   W12
        BYTE                   An2
        BYTE   W12
        BYTE                   Fn2
        BYTE   W12
        BYTE                   Gn2
        BYTE           N12     Fn2   v051
        BYTE   W12
        BYTE                   Gn2
        BYTE           N12     An2   v095
        BYTE   W12
        BYTE                   An2   v051
        BYTE           N12     Fn2   v095
        BYTE   W12
        BYTE           N24     As2
        BYTE   W24
        BYTE           N12     An2
        BYTE   W12
        BYTE                   An2   v051
        BYTE           N12     Gn2   v095
        BYTE   W12
        BYTE                   Fn2
        BYTE           N12     Gn2   v051
        BYTE   W12
        BYTE                   Gn2   v095
        BYTE   W12
        BYTE                   An2
        BYTE   W12
        BYTE                   An2   v051
        BYTE           N12     Cn2   v095
        BYTE   W12
        BYTE                   Cn2   v051
        BYTE           N24     Dn2   v095
        BYTE   W12
// 032   ----------------------------------------
        BYTE   W12
        BYTE           N12
        BYTE   W12
        BYTE                   Dn2   v051
        BYTE           N12     Fn2   v095
        BYTE   W12
        BYTE                   Fn2   v051
        BYTE           N12     Dn2   v095
        BYTE   W12
        BYTE                   En2
        BYTE   W12
        BYTE                   En2   v051
        BYTE           N24     Fn2   v095
        BYTE   W24
        BYTE                   En2
        BYTE   W24
        BYTE           N12
        BYTE   W12
        BYTE                   Gn2
        BYTE   W12
        BYTE                   Gn2   v051
        BYTE           N12     En2   v095
        BYTE   W12
        BYTE                   Gn2   v019
        BYTE           N12     Fn2   v095
        BYTE           N12     En2   v051
        BYTE   W12
        BYTE           N24     Gn2   v095
        BYTE           N12     En2   v019
        BYTE           N12     Fn2   v051
        BYTE   W12
        BYTE                   Fn2   v019
        BYTE   W12
        BYTE           N24     Fn2   v095
        BYTE   W12
// 033   ----------------------------------------
        BYTE   W12
        BYTE           N12
        BYTE   W12
        BYTE                   Fn2   v019
        BYTE           N12     An2   v095
        BYTE   W12
        BYTE                   An2   v019
        BYTE           N12     Fn2   v095
        BYTE   W12
        BYTE                   Fn2   v019
        BYTE           N12     Gn2   v095
        BYTE   W12
        BYTE                   Gn2   v019
        BYTE           N12     An2   v095
        BYTE   W12
        BYTE                   An2   v019
        BYTE           N12     Fn2   v095
        BYTE   W12
        BYTE                   Fn2   v019
        BYTE           N24     As2   v095
        BYTE   W24
        BYTE           N12     An2
        BYTE   W12
        BYTE                   An2   v019
        BYTE           N12     Gn2   v095
        BYTE   W12
        BYTE                   Gn2   v019
        BYTE           N12     Fn2   v095
        BYTE   W12
        BYTE                   Fn2   v019
        BYTE           N12     Gn2   v095
        BYTE   W12
        BYTE                   Gn2   v019
        BYTE           N24     An2   v095
        BYTE   W24
        BYTE           N12     Cn2
        BYTE           N12     An2   v019
        BYTE   W12
// 034   ----------------------------------------
        BYTE   PATT
         POIN2  aelevate_1_16
// 035   ----------------------------------------
        BYTE   PATT
         POIN2  aelevate_1_7
// 036   ----------------------------------------
        BYTE   PATT
         POIN2  aelevate_1_18
// 037   ----------------------------------------
        BYTE   PATT
         POIN2  aelevate_1_19
// 038   ----------------------------------------
        BYTE   GoTo
         POIN2  aelevate_1_LOOP
        BYTE   W72
        BYTE   FINE

//****************** Track 2 (Midi-Chn.3) ******************//

aelevate_2:
        BYTE   KEYSH   aelevate_key+0
// 000   ----------------------------------------
aelevate_2_LOOP:
        BYTE           VOICE   30
        BYTE           VOL     51
        BYTE           N12     An1   v095
        BYTE   W12
        BYTE           N06     An1   v105
        BYTE   W06
        BYTE                   An1   v037
        BYTE   W06
        BYTE           N12     As0   v095
        BYTE           N06     An1   v021
        BYTE   W12
        BYTE           N12     Dn1   v095
        BYTE   W12
        BYTE                   Fn1
        BYTE           N12     Dn1   v051
        BYTE   W12
        BYTE                   En1   v095
        BYTE           N12     Fn1   v051
        BYTE   W12
        BYTE                   Dn1   v095
        BYTE           N12     En1   v051
        BYTE   W12
        BYTE           N24     As0   v095
        BYTE   W24
        BYTE           N12     Dn1
        BYTE   W12
        BYTE                   Fn1
        BYTE           N12     Dn1   v051
        BYTE   W12
        BYTE           N24     Cn1   v095
        BYTE   W24
        BYTE           N12     En1
        BYTE   W12
        BYTE                   Gn1
        BYTE           N12     En1   v051
        BYTE   W12
        BYTE                   Cn1   v095
        BYTE           N12     Gn1   v051
        BYTE   W12
// 001   ----------------------------------------
        BYTE                   An1   v095
        BYTE   W12
        BYTE           N06     An1   v105
        BYTE   W06
        BYTE                   An1   v037
        BYTE   W06
        BYTE           N12     As0   v095
        BYTE           N06     An1   v021
        BYTE   W12
        BYTE           N12     Dn1   v095
        BYTE   W12
        BYTE                   Dn1   v051
        BYTE           N12     Fn1   v095
        BYTE   W12
        BYTE                   En1
        BYTE           N12     Fn1   v051
        BYTE   W12
        BYTE                   Dn1   v095
        BYTE           N12     En1   v051
        BYTE   W12
        BYTE           N24     Gn1   v095
        BYTE   W24
        BYTE           N12     Fn1
        BYTE   W12
        BYTE                   En1
        BYTE           N12     Fn1   v051
        BYTE   W12
        BYTE                   En1
        BYTE           N24     An1   v095
        BYTE   W24
        BYTE           N12     Gn1
        BYTE   W12
        BYTE                   Gn1   v051
        BYTE           N12     Fn1   v095
        BYTE   W12
        BYTE                   Fn1   v051
        BYTE           N12     En1   v095
        BYTE   W12
// 002   ----------------------------------------
        BYTE                   An1
        BYTE   W12
        BYTE           N06     An1   v105
        BYTE   W06
        BYTE                   An1   v037
        BYTE   W06
        BYTE           N12     As0   v095
        BYTE           N06     An1   v021
        BYTE   W12
        BYTE           N12     Dn1   v095
        BYTE   W12
        BYTE                   Fn1
        BYTE           N12     Dn1   v051
        BYTE   W12
        BYTE                   En1   v095
        BYTE           N12     Fn1   v051
        BYTE   W12
        BYTE                   Dn1   v095
        BYTE           N12     En1   v051
        BYTE   W12
        BYTE           N24     As0   v095
        BYTE           N12     Dn1   v051
        BYTE   W24
        BYTE                   Dn1   v095
        BYTE   W12
        BYTE                   Fn1
        BYTE           N12     Dn1   v051
        BYTE   W12
        BYTE           N24     Cn1   v095
        BYTE           N12     Fn1   v051
        BYTE   W24
        BYTE                   En1   v095
        BYTE   W12
        BYTE                   Gn1
        BYTE           N12     En1   v051
        BYTE   W12
        BYTE                   Cn1   v095
        BYTE           N12     Gn1   v051
        BYTE   W12
// 003   ----------------------------------------
        BYTE                   An1   v095
        BYTE   W12
        BYTE           N06     An1   v105
        BYTE   W06
        BYTE                   An1   v037
        BYTE   W06
        BYTE           N12     As0   v095
        BYTE           N06     An1   v021
        BYTE   W12
        BYTE           N12     Dn1   v095
        BYTE   W12
        BYTE                   Dn1   v051
        BYTE           N12     Fn1   v095
        BYTE   W12
        BYTE                   En1
        BYTE           N12     Fn1   v051
        BYTE   W12
        BYTE                   Dn1   v095
        BYTE           N12     En1   v051
        BYTE   W12
        BYTE                   Dn1
        BYTE           N24     Gn1   v095
        BYTE   W24
        BYTE           N12     Fn1
        BYTE   W12
        BYTE                   En1
        BYTE           N12     Fn1   v051
        BYTE   W12
        BYTE           N24     An1   v095
        BYTE           N12     En1   v051
        BYTE   W24
        BYTE                   Gn1   v095
        BYTE   W12
        BYTE                   Fn1
        BYTE           N12     Gn1   v051
        BYTE   W12
        BYTE                   En1   v095
        BYTE           N12     Fn1   v051
        BYTE   W12
// 004   ----------------------------------------
        BYTE                   An1   v095
        BYTE   W12
        BYTE           N06     An1   v105
        BYTE   W06
        BYTE                   An1   v037
        BYTE   W06
        BYTE                   An1   v021
        BYTE           N12     As0   v095
        BYTE   W12
        BYTE                   Dn1
        BYTE   W12
        BYTE                   Dn1   v051
        BYTE           N12     Fn1   v095
        BYTE   W12
        BYTE                   Fn1   v051
        BYTE           N12     En1   v095
        BYTE   W12
        BYTE                   En1   v051
        BYTE           N12     Dn1   v095
        BYTE   W12
        BYTE                   Dn1   v051
        BYTE           N24     As0   v095
        BYTE   W24
        BYTE           N12     Dn1
        BYTE   W12
        BYTE                   Dn1   v051
        BYTE           N12     Fn1   v095
        BYTE   W12
        BYTE                   Fn1   v051
        BYTE           N24     Cn1   v095
        BYTE   W24
        BYTE           N12     En1
        BYTE   W12
        BYTE                   En1   v051
        BYTE           N12     Gn1   v095
        BYTE   W12
        BYTE                   Gn1   v051
        BYTE           N12     Cn1   v095
        BYTE   W12
// 005   ----------------------------------------
aelevate_2_5:
        BYTE           N12     An1   v095
        BYTE   W12
        BYTE           N06     An1   v098
        BYTE   W06
        BYTE                   An1   v037
        BYTE   W06
        BYTE           N12     As0   v095
        BYTE           N06     An1   v021
        BYTE   W12
        BYTE           N12     Dn1   v095
        BYTE   W12
        BYTE                   Fn1
        BYTE           N12     Dn1   v051
        BYTE   W12
        BYTE                   Fn1
        BYTE           N12     En1   v095
        BYTE   W12
        BYTE                   En1   v051
        BYTE           N12     Dn1   v095
        BYTE   W12
        BYTE           N24     Gn1
        BYTE           N12     Dn1   v051
        BYTE   W24
        BYTE                   Fn1   v095
        BYTE   W12
        BYTE                   Fn1   v051
        BYTE           N12     En1   v095
        BYTE   W12
        BYTE           N24     An1
        BYTE           N12     En1   v051
        BYTE   W24
        BYTE                   Gn1   v095
        BYTE   W12
        BYTE                   Fn1
        BYTE           N12     Gn1   v051
        BYTE   W12
        BYTE                   En1   v095
        BYTE           N12     Fn1   v051
        BYTE   W12
        BYTE   PEND
// 006   ----------------------------------------
aelevate_2_6:
        BYTE           N36     Fn1   v095
        BYTE   W36
        BYTE           N48     Dn1
        BYTE   W48
        BYTE                   Gn1
        BYTE   W48
        BYTE           N36     Cn1
        BYTE   W36
        BYTE           N06     Gn0
        BYTE   W06
        BYTE                   An0
        BYTE   W06
        BYTE                   As0
        BYTE   W06
        BYTE                   An0
        BYTE   W06
        BYTE   PEND
// 007   ----------------------------------------
aelevate_2_7:
        BYTE           N36     As0   v095
        BYTE   W36
        BYTE           N48     Dn1
        BYTE   W48
        BYTE                   Cn1
        BYTE   W48
        BYTE           N60     Cs1
        BYTE   W60
        BYTE   PEND
// 008   ----------------------------------------
aelevate_2_8:
        BYTE           N12     Fn1   v095
        BYTE   W12
        BYTE                   Fn1   v051
        BYTE           N12     En1   v095
        BYTE   W12
        BYTE                   Dn1
        BYTE           N12     En1   v051
        BYTE   W12
        BYTE           N24     As0   v095
        BYTE   W24
        BYTE           N12     Gn1
        BYTE   W12
        BYTE                   Gn1   v051
        BYTE           N12     Fn1   v095
        BYTE   W12
        BYTE           N24     En1
        BYTE   W24
        BYTE           N12     Fn1
        BYTE   W12
        BYTE                   En1
        BYTE           N12     Fn1   v051
        BYTE   W12
        BYTE                   En1
        BYTE           N24     Cn1   v095
        BYTE   W24
        BYTE           N12     Dn1
        BYTE   W12
        BYTE                   En1
        BYTE   W12
        BYTE                   An0
        BYTE   W12
        BYTE   PEND
// 009   ----------------------------------------
aelevate_2_9:
        BYTE           N12     As0   v095
        BYTE   W12
        BYTE                   Dn1
        BYTE   W12
        BYTE                   Fn1
        BYTE   W12
        BYTE           N24     Bn0
        BYTE   W24
        BYTE           N12     Dn1
        BYTE   W12
        BYTE                   Fn1
        BYTE   W12
        BYTE           N06     Cn1
        BYTE   W06
        BYTE                   Bn0
        BYTE   W06
        BYTE           N12     Cn1
        BYTE   W12
        BYTE                   En1
        BYTE   W12
        BYTE                   Gn1
        BYTE   W12
        BYTE           N24     Cs1
        BYTE   W24
        BYTE           N12     En1
        BYTE   W12
        BYTE                   Gn1
        BYTE   W12
        BYTE                   Cs1
        BYTE   W12
        BYTE   PEND
// 010   ----------------------------------------
        BYTE                   An1
        BYTE   W12
        BYTE           N06     An1   v105
        BYTE   W06
        BYTE                   An1   v037
        BYTE   W06
        BYTE           N12     As0   v095
        BYTE           N06     An1   v021
        BYTE   W12
        BYTE           N12     Dn1   v095
        BYTE   W12
        BYTE                   Fn1
        BYTE           N12     Dn1   v051
        BYTE   W12
        BYTE                   En1   v095
        BYTE           N12     Fn1   v051
        BYTE   W12
        BYTE                   Dn1   v095
        BYTE           N12     En1   v051
        BYTE   W12
        BYTE           N24     As0   v095
        BYTE   W24
        BYTE           N12     Dn1
        BYTE   W12
        BYTE                   Fn1
        BYTE           N12     Dn1   v051
        BYTE   W12
        BYTE           N24     Cn1   v095
        BYTE   W24
        BYTE           N12     En1
        BYTE   W12
        BYTE                   Gn1
        BYTE           N12     En1   v051
        BYTE   W12
        BYTE                   Cn1   v095
        BYTE           N12     Gn1   v051
        BYTE   W12
// 011   ----------------------------------------
        BYTE                   An1   v095
        BYTE   W12
        BYTE           N06     An1   v105
        BYTE   W06
        BYTE                   An1   v037
        BYTE   W06
        BYTE           N12     As0   v095
        BYTE           N06     An1   v021
        BYTE   W12
        BYTE           N12     Dn1   v095
        BYTE   W12
        BYTE                   Dn1   v051
        BYTE           N12     Fn1   v095
        BYTE   W12
        BYTE                   En1
        BYTE           N12     Fn1   v051
        BYTE   W12
        BYTE                   Dn1   v095
        BYTE           N12     En1   v051
        BYTE   W12
        BYTE           N24     Gn1   v095
        BYTE   W24
        BYTE           N12     Fn1
        BYTE   W12
        BYTE                   En1
        BYTE           N12     Fn1   v051
        BYTE   W12
        BYTE                   En1
        BYTE           N24     An1   v095
        BYTE   W24
        BYTE           N12     Gn1
        BYTE   W12
        BYTE                   Gn1   v051
        BYTE           N12     Fn1   v095
        BYTE   W12
        BYTE                   Fn1   v051
        BYTE           N12     Gn1   v095
        BYTE   W12
// 012   ----------------------------------------
        BYTE                   Dn1
        BYTE   W12
        BYTE           N06     Dn1   v105
        BYTE   W06
        BYTE                   Dn1   v037
        BYTE   W06
        BYTE                   Dn1   v021
        BYTE           N12     Fn1   v095
        BYTE   W12
        BYTE                   Dn1
        BYTE   W12
        BYTE                   Dn1   v051
        BYTE           N12     En1   v095
        BYTE   W12
        BYTE                   En1   v051
        BYTE           N12     Fn1   v095
        BYTE   W12
        BYTE                   Fn1   v051
        BYTE           N12     An0   v095
        BYTE   W12
        BYTE           N24     En1
        BYTE   W24
        BYTE           N12
        BYTE   W12
        BYTE                   En1   v051
        BYTE           N12     Gn1   v095
        BYTE   W12
        BYTE                   En1
        BYTE   W12
        BYTE                   Fn1
        BYTE   W12
        BYTE                   Gn1
        BYTE   W12
        BYTE                   Gn1   v051
        BYTE           N12     An1   v095
        BYTE   W12
        BYTE                   Fn1
        BYTE           N12     An1   v051
        BYTE   W12
// 013   ----------------------------------------
        BYTE                   Fn1   v095
        BYTE   W12
        BYTE                   Fn1
        BYTE   W12
        BYTE                   An1
        BYTE   W12
        BYTE                   Fn1
        BYTE   W12
        BYTE                   Gn1
        BYTE           N12     Fn1   v051
        BYTE   W12
        BYTE                   Gn1
        BYTE           N12     An1   v095
        BYTE   W12
        BYTE                   Fn1
        BYTE           N12     An1   v051
        BYTE   W12
        BYTE           N24     As1   v095
        BYTE   W24
        BYTE           N12     An1
        BYTE   W12
        BYTE                   Gn1
        BYTE           N12     An1   v051
        BYTE   W12
        BYTE                   Gn1
        BYTE           N12     Fn1   v095
        BYTE   W12
        BYTE                   Gn1
        BYTE   W12
        BYTE                   An1
        BYTE   W12
        BYTE                   Cn1
        BYTE           N12     An1   v051
        BYTE   W12
        BYTE           N24     Dn1   v095
        BYTE           N12     Cn1   v051
        BYTE   W12
// 014   ----------------------------------------
        BYTE   W12
        BYTE                   Dn1   v095
        BYTE   W12
        BYTE                   Fn1
        BYTE           N12     Dn1   v051
        BYTE   W12
        BYTE                   Dn1   v095
        BYTE           N12     Fn1   v051
        BYTE   W12
        BYTE                   En1   v095
        BYTE   W12
        BYTE           N24     Fn1
        BYTE           N12     En1   v051
        BYTE   W24
        BYTE           N24     En1   v095
        BYTE   W24
        BYTE           N12
        BYTE   W12
        BYTE                   Gn1
        BYTE           N12     En1   v051
        BYTE   W12
        BYTE                   En1   v095
        BYTE           N12     Gn1   v051
        BYTE   W12
        BYTE                   Gn1   v019
        BYTE           N12     Fn1   v095
        BYTE           N12     En1   v051
        BYTE   W12
        BYTE                   En1   v019
        BYTE           N12     Fn1   v051
        BYTE           N24     Gn1   v095
        BYTE   W12
        BYTE           N12     Fn1   v019
        BYTE   W12
        BYTE           N24     Fn1   v095
        BYTE           N12     Gn1   v051
        BYTE   W12
// 015   ----------------------------------------
        BYTE   W12
        BYTE                   Fn1   v095
        BYTE   W12
        BYTE                   An1
        BYTE           N12     Fn1   v019
        BYTE   W12
        BYTE                   Fn1   v095
        BYTE           N12     An1   v019
        BYTE   W12
        BYTE                   Fn1
        BYTE           N12     Gn1   v095
        BYTE   W12
        BYTE                   Gn1   v019
        BYTE           N12     An1   v095
        BYTE   W12
        BYTE                   An1   v019
        BYTE           N12     Fn1   v095
        BYTE   W12
        BYTE           N24     As1
        BYTE           N12     Fn1   v019
        BYTE   W24
        BYTE                   An1   v095
        BYTE   W12
        BYTE                   Gn1
        BYTE           N12     An1   v019
        BYTE   W12
        BYTE                   Fn1   v095
        BYTE           N12     Gn1   v019
        BYTE   W12
        BYTE                   Fn1
        BYTE           N12     Gn1   v095
        BYTE   W12
        BYTE           N24     An1
        BYTE           N12     Gn1   v019
        BYTE   W24
        BYTE                   An1
        BYTE           N12     Cn1   v095
        BYTE   W12
// 016   ----------------------------------------
aelevate_2_16:
        BYTE           N36     Fn1   v095
        BYTE           N12     Cn1   v019
        BYTE   W36
        BYTE           N48     Dn1   v095
        BYTE   W48
        BYTE                   Gn1
        BYTE   W48
        BYTE           N36     Cn1
        BYTE   W36
        BYTE           N06     Gn0
        BYTE   W06
        BYTE                   An0
        BYTE   W06
        BYTE                   As0
        BYTE   W06
        BYTE                   An0
        BYTE   W06
        BYTE   PEND
// 017   ----------------------------------------
        BYTE   PATT
         POIN2  aelevate_2_7
// 018   ----------------------------------------
aelevate_2_18:
        BYTE           N12     Fn1   v095
        BYTE   W12
        BYTE                   Fn1   v051
        BYTE           N12     En1   v095
        BYTE   W12
        BYTE                   Dn1
        BYTE           N12     En1   v051
        BYTE   W12
        BYTE           N24     As0   v095
        BYTE   W24
        BYTE           N12     Gn1
        BYTE   W12
        BYTE                   Fn1
        BYTE           N12     Gn1   v051
        BYTE   W12
        BYTE           N24     En1   v095
        BYTE   W24
        BYTE           N12     Fn1
        BYTE   W12
        BYTE                   En1
        BYTE           N12     Fn1   v051
        BYTE   W12
        BYTE                   En1
        BYTE           N24     Cn1   v095
        BYTE   W24
        BYTE           N12     Dn1
        BYTE   W12
        BYTE                   En1
        BYTE           N12     Dn1   v051
        BYTE   W12
        BYTE                   An0   v095
        BYTE           N12     En1   v051
        BYTE   W12
        BYTE   PEND
// 019   ----------------------------------------
aelevate_2_19:
        BYTE           N12     As0   v095
        BYTE   W12
        BYTE                   Dn1
        BYTE           N12     As0   v051
        BYTE   W12
        BYTE                   Fn1   v095
        BYTE           N12     Dn1   v051
        BYTE   W12
        BYTE           N24     Bn0   v095
        BYTE           N12     Fn1   v051
        BYTE   W24
        BYTE                   Dn1   v095
        BYTE           N12     Bn0   v051
        BYTE   W12
        BYTE                   Fn1   v095
        BYTE           N12     Dn1   v051
        BYTE   W12
        BYTE           N06     Cn1   v095
        BYTE           N12     Fn1   v051
        BYTE   W06
        BYTE           N06     Bn0   v095
        BYTE   W06
        BYTE           N12     Cn1
        BYTE   W12
        BYTE                   En1
        BYTE           N12     Cn1   v051
        BYTE   W12
        BYTE                   Gn1   v095
        BYTE           N12     En1   v051
        BYTE   W12
        BYTE           N24     Cs1   v095
        BYTE           N12     Gn1   v051
        BYTE   W24
        BYTE                   En1   v095
        BYTE   W12
        BYTE                   Gn1
        BYTE           N12     En1   v051
        BYTE   W12
        BYTE                   Cs1   v095
        BYTE           N12     Gn1   v051
        BYTE   W12
        BYTE   PEND
// 020   ----------------------------------------
        BYTE                   An1   v095
        BYTE   W12
        BYTE           N06     An1   v105
        BYTE   W06
        BYTE                   An1   v037
        BYTE   W06
        BYTE                   An1   v021
        BYTE           N12     As0   v095
        BYTE   W12
        BYTE                   Dn1
        BYTE   W12
        BYTE                   Fn1
        BYTE           N12     Dn1   v051
        BYTE   W12
        BYTE                   En1   v095
        BYTE           N12     Fn1   v051
        BYTE   W12
        BYTE                   Dn1   v095
        BYTE           N12     En1   v051
        BYTE   W12
        BYTE           N24     As0   v095
        BYTE           N12     Dn1   v051
        BYTE   W24
        BYTE                   Dn1   v095
        BYTE   W12
        BYTE                   Fn1
        BYTE           N12     Dn1   v051
        BYTE   W12
        BYTE           N24     Cn1   v095
        BYTE           N12     Fn1   v051
        BYTE   W24
        BYTE                   En1   v095
        BYTE   W12
        BYTE                   Gn1
        BYTE           N12     En1   v051
        BYTE   W12
        BYTE                   Cn1   v095
        BYTE           N12     Gn1   v051
        BYTE   W12
// 021   ----------------------------------------
        BYTE                   An1   v095
        BYTE   W12
        BYTE           N06     An1   v105
        BYTE   W06
        BYTE                   An1   v037
        BYTE   W06
        BYTE                   An1   v021
        BYTE           N12     As0   v095
        BYTE   W12
        BYTE                   Dn1
        BYTE   W12
        BYTE                   Dn1   v051
        BYTE           N12     Fn1   v095
        BYTE   W12
        BYTE                   En1
        BYTE           N12     Fn1   v051
        BYTE   W12
        BYTE                   Dn1   v095
        BYTE           N12     En1   v051
        BYTE   W12
        BYTE                   Dn1
        BYTE           N24     Gn1   v095
        BYTE   W24
        BYTE           N12     Fn1
        BYTE   W12
        BYTE                   En1
        BYTE           N12     Fn1   v051
        BYTE   W12
        BYTE           N24     An1   v095
        BYTE           N12     En1   v051
        BYTE   W24
        BYTE                   Gn1   v095
        BYTE   W12
        BYTE                   Fn1
        BYTE           N12     Gn1   v051
        BYTE   W12
        BYTE                   En1   v095
        BYTE           N12     Fn1   v051
        BYTE   W12
// 022   ----------------------------------------
        BYTE                   An1   v095
        BYTE   W12
        BYTE           N06     An1   v105
        BYTE   W06
        BYTE                   An1   v037
        BYTE   W06
        BYTE           N12     As0   v095
        BYTE           N06     An1   v021
        BYTE   W12
        BYTE           N12     Dn1   v095
        BYTE   W12
        BYTE                   Dn1   v051
        BYTE           N12     Fn1   v095
        BYTE   W12
        BYTE                   Fn1   v051
        BYTE           N12     En1   v095
        BYTE   W12
        BYTE                   En1   v051
        BYTE           N12     Dn1   v095
        BYTE   W12
        BYTE                   Dn1   v051
        BYTE           N24     As0   v095
        BYTE   W24
        BYTE           N12     Dn1
        BYTE   W12
        BYTE                   Dn1   v051
        BYTE           N12     Fn1   v095
        BYTE   W12
        BYTE                   Fn1   v051
        BYTE           N24     Cn1   v095
        BYTE   W24
        BYTE           N12     En1
        BYTE   W12
        BYTE                   En1   v051
        BYTE           N12     Gn1   v095
        BYTE   W12
        BYTE                   Gn1   v051
        BYTE           N12     Cn1   v095
        BYTE   W12
// 023   ----------------------------------------
        BYTE   PATT
         POIN2  aelevate_2_5
// 024   ----------------------------------------
        BYTE   PATT
         POIN2  aelevate_2_6
// 025   ----------------------------------------
        BYTE   PATT
         POIN2  aelevate_2_7
// 026   ----------------------------------------
        BYTE   PATT
         POIN2  aelevate_2_8
// 027   ----------------------------------------
        BYTE   PATT
         POIN2  aelevate_2_9
// 028   ----------------------------------------
        BYTE           N12     An1   v095
        BYTE   W12
        BYTE           N06     An1   v105
        BYTE   W06
        BYTE                   An1   v037
        BYTE   W06
        BYTE                   An1   v021
        BYTE           N12     As0   v095
        BYTE   W12
        BYTE                   Dn1
        BYTE   W12
        BYTE                   Fn1
        BYTE           N12     Dn1   v051
        BYTE   W12
        BYTE                   En1   v095
        BYTE           N12     Fn1   v051
        BYTE   W12
        BYTE                   Dn1   v095
        BYTE           N12     En1   v051
        BYTE   W12
        BYTE           N24     As0   v095
        BYTE   W24
        BYTE           N12     Dn1
        BYTE   W12
        BYTE                   Fn1
        BYTE           N12     Dn1   v051
        BYTE   W12
        BYTE           N24     Cn1   v095
        BYTE   W24
        BYTE           N12     En1
        BYTE   W12
        BYTE                   Gn1
        BYTE           N12     En1   v051
        BYTE   W12
        BYTE                   Cn1   v095
        BYTE           N12     Gn1   v051
        BYTE   W12
// 029   ----------------------------------------
        BYTE                   An1   v095
        BYTE   W12
        BYTE           N06     An1   v105
        BYTE   W06
        BYTE                   An1   v037
        BYTE   W06
        BYTE                   An1   v021
        BYTE           N12     As0   v095
        BYTE   W12
        BYTE                   Dn1
        BYTE   W12
        BYTE                   Dn1   v051
        BYTE           N12     Fn1   v095
        BYTE   W12
        BYTE                   En1
        BYTE           N12     Fn1   v051
        BYTE   W12
        BYTE                   Dn1   v095
        BYTE           N12     En1   v051
        BYTE   W12
        BYTE           N24     Gn1   v095
        BYTE   W24
        BYTE           N12     Fn1
        BYTE   W12
        BYTE                   En1
        BYTE           N12     Fn1   v051
        BYTE   W12
        BYTE                   En1
        BYTE           N24     An1   v095
        BYTE   W24
        BYTE           N12     Gn1
        BYTE   W12
        BYTE                   Gn1   v051
        BYTE           N12     Fn1   v095
        BYTE   W12
        BYTE                   Fn1   v051
        BYTE           N12     Gn1   v095
        BYTE   W12
// 030   ----------------------------------------
        BYTE                   Dn1
        BYTE   W12
        BYTE           N06     Dn1   v105
        BYTE   W06
        BYTE                   Dn1   v037
        BYTE   W06
        BYTE                   Dn1   v021
        BYTE           N12     Fn1   v095
        BYTE   W12
        BYTE                   Dn1
        BYTE   W12
        BYTE                   Dn1   v051
        BYTE           N12     En1   v095
        BYTE   W12
        BYTE                   En1   v051
        BYTE           N12     Fn1   v095
        BYTE   W12
        BYTE                   Fn1   v051
        BYTE           N12     An0   v095
        BYTE   W12
        BYTE           N24     En1
        BYTE   W24
        BYTE           N12
        BYTE   W12
        BYTE                   En1   v051
        BYTE           N12     Gn1   v095
        BYTE   W12
        BYTE                   En1
        BYTE   W12
        BYTE                   Fn1
        BYTE   W12
        BYTE                   Gn1
        BYTE   W12
        BYTE                   An1
        BYTE           N12     Gn1   v051
        BYTE   W12
        BYTE                   An1
        BYTE           N12     Fn1   v095
        BYTE   W12
// 031   ----------------------------------------
        BYTE                   Fn1
        BYTE   W12
        BYTE                   Fn1
        BYTE   W12
        BYTE                   An1
        BYTE   W12
        BYTE                   Fn1
        BYTE   W12
        BYTE                   Fn1   v051
        BYTE           N12     Gn1   v095
        BYTE   W12
        BYTE                   An1
        BYTE           N12     Gn1   v051
        BYTE   W12
        BYTE                   Fn1   v095
        BYTE           N12     An1   v051
        BYTE   W12
        BYTE           N24     As1   v095
        BYTE   W24
        BYTE           N12     An1
        BYTE   W12
        BYTE                   Gn1
        BYTE           N12     An1   v051
        BYTE   W12
        BYTE                   Gn1
        BYTE           N12     Fn1   v095
        BYTE   W12
        BYTE                   Gn1
        BYTE   W12
        BYTE                   An1
        BYTE   W12
        BYTE                   Cn1
        BYTE           N12     An1   v051
        BYTE   W12
        BYTE           N24     Dn1   v095
        BYTE           N12     Cn1   v051
        BYTE   W12
// 032   ----------------------------------------
        BYTE   W12
        BYTE                   Dn1   v095
        BYTE   W12
        BYTE                   Fn1
        BYTE           N12     Dn1   v051
        BYTE   W12
        BYTE                   Dn1   v095
        BYTE           N12     Fn1   v051
        BYTE   W12
        BYTE                   En1   v095
        BYTE   W12
        BYTE           N24     Fn1
        BYTE           N12     En1   v051
        BYTE   W24
        BYTE           N24     En1   v095
        BYTE   W24
        BYTE           N12
        BYTE   W12
        BYTE                   Gn1
        BYTE   W12
        BYTE                   En1
        BYTE           N12     Gn1   v051
        BYTE   W12
        BYTE                   En1
        BYTE           N12     Fn1   v095
        BYTE           N12     Gn1   v019
        BYTE   W12
        BYTE                   Fn1   v051
        BYTE           N12     En1   v019
        BYTE           N24     Gn1   v095
        BYTE   W12
        BYTE           N12     Fn1   v019
        BYTE   W12
        BYTE           N24     Fn1   v095
        BYTE   W12
// 033   ----------------------------------------
        BYTE   W12
        BYTE           N12
        BYTE   W12
        BYTE                   An1
        BYTE           N12     Fn1   v019
        BYTE   W12
        BYTE                   Fn1   v095
        BYTE           N12     An1   v019
        BYTE   W12
        BYTE                   Gn1   v095
        BYTE           N12     Fn1   v019
        BYTE   W12
        BYTE                   An1   v095
        BYTE           N12     Gn1   v019
        BYTE   W12
        BYTE                   Fn1   v095
        BYTE           N12     An1   v019
        BYTE   W12
        BYTE           N24     As1   v095
        BYTE           N12     Fn1   v019
        BYTE   W24
        BYTE                   An1   v095
        BYTE   W12
        BYTE                   Gn1
        BYTE           N12     An1   v019
        BYTE   W12
        BYTE                   Fn1   v095
        BYTE           N12     Gn1   v019
        BYTE   W12
        BYTE                   Gn1   v095
        BYTE           N12     Fn1   v019
        BYTE   W12
        BYTE           N24     An1   v095
        BYTE           N12     Gn1   v019
        BYTE   W24
        BYTE                   An1
        BYTE           N12     Cn1   v095
        BYTE   W12
// 034   ----------------------------------------
        BYTE   PATT
         POIN2  aelevate_2_16
// 035   ----------------------------------------
        BYTE   PATT
         POIN2  aelevate_2_7
// 036   ----------------------------------------
        BYTE   PATT
         POIN2  aelevate_2_18
// 037   ----------------------------------------
        BYTE   PATT
         POIN2  aelevate_2_19
// 038   ----------------------------------------
        BYTE   GoTo
         POIN2  aelevate_2_LOOP
        BYTE   W72
        BYTE   FINE

//****************** Track 3 (Midi-Chn.5) ******************//

aelevate_3:
        BYTE   KEYSH   aelevate_key+0
// 000   ----------------------------------------
aelevate_3_LOOP:
        BYTE           VOICE   18
        BYTE           PAN     c_v-1
        BYTE           BENDR   12
        BYTE           VOL     51
        BYTE   W96
        BYTE   W96
// 001   ----------------------------------------
        BYTE   W96
        BYTE   W96
// 002   ----------------------------------------
        BYTE   W96
        BYTE   W96
// 003   ----------------------------------------
        BYTE   W96
        BYTE   W96
// 004   ----------------------------------------
        BYTE   W96
        BYTE   W96
// 005   ----------------------------------------
        BYTE   W96
        BYTE   W96
// 006   ----------------------------------------
aelevate_3_6:
        BYTE           N12     An4   v064
        BYTE   W12
        BYTE                   Gn4
        BYTE   W12
        BYTE                   Gn4   v032
        BYTE           N12     An4   v064
        BYTE   W12
        BYTE                   An4   v032
        BYTE           N24     As4   v064
        BYTE   W24
        BYTE                   An4
        BYTE   W24
        BYTE                   Gn4
        BYTE   W24
        BYTE           N12     Fn4
        BYTE   W12
        BYTE                   Gn4
        BYTE           N12     Fn4   v031
        BYTE   W12
        BYTE           N24     An4   v064
        BYTE           N12     Gn4   v031
        BYTE   W24
        BYTE           N24     Gn4   v064
        BYTE   W24
        BYTE                   Fn4
        BYTE   W12
        BYTE   PEND
// 007   ----------------------------------------
aelevate_3_7:
        BYTE   W12
        BYTE           N12     En4   v064
        BYTE   W12
        BYTE                   Fn4
        BYTE           N12     En4   v030
        BYTE   W12
        BYTE           N24     An4   v064
        BYTE           N12     Fn4   v030
        BYTE   W24
        BYTE           N24     Gn4   v064
        BYTE   W24
        BYTE                   En4
        BYTE   W24
        BYTE           N12     Dn4
        BYTE   W12
        BYTE                   Cs4   v063
        BYTE           N12     Dn4   v029
        BYTE   W12
        BYTE           N24     En4   v063
        BYTE           N12     Cs4   v029
        BYTE   W24
        BYTE                   Fn4   v063
        BYTE   W12
        BYTE           N24     Gn4
        BYTE           N12     Fn4   v029
        BYTE   W24
        BYTE   PEND
// 008   ----------------------------------------
aelevate_3_8:
        BYTE           N12     An4   v063
        BYTE   W12
        BYTE                   Gn4
        BYTE           N12     An4   v028
        BYTE   W12
        BYTE                   An4   v063
        BYTE           N12     Gn4   v028
        BYTE   W12
        BYTE           N24     As4   v063
        BYTE           N12     An4   v028
        BYTE   W24
        BYTE           N24     An4   v063
        BYTE   W24
        BYTE                   Gn4
        BYTE   W24
        BYTE           N12     Fn4
        BYTE   W12
        BYTE                   Fn4   v027
        BYTE           N12     Gn4   v063
        BYTE   W12
        BYTE           N24     An4
        BYTE           N12     Gn4   v027
        BYTE   W24
        BYTE           N24     Gn4   v063
        BYTE   W24
        BYTE                   Fn4
        BYTE   W12
        BYTE   PEND
// 009   ----------------------------------------
aelevate_3_9:
        BYTE   W12
        BYTE           N12     En4   v063
        BYTE   W12
        BYTE                   Fn4
        BYTE           N12     En4   v026
        BYTE   W12
        BYTE           N24     An4   v063
        BYTE           N12     Fn4   v026
        BYTE   W24
        BYTE           N24     Gn4   v062
        BYTE   W24
        BYTE                   En4
        BYTE   W24
        BYTE           N12     Dn4
        BYTE   W12
        BYTE                   Cs4
        BYTE           N12     Dn4   v025
        BYTE   W12
        BYTE           N24     En4   v062
        BYTE           N12     Cs4   v025
        BYTE   W24
        BYTE                   Fn4   v062
        BYTE   W12
        BYTE           N24     Gn4
        BYTE           N12     Fn4   v025
        BYTE   W24
        BYTE   PEND
// 010   ----------------------------------------
        BYTE   W96
        BYTE   W96
// 011   ----------------------------------------
        BYTE   W96
        BYTE   W96
// 012   ----------------------------------------
        BYTE   W96
        BYTE   W96
// 013   ----------------------------------------
        BYTE   W96
        BYTE   W96
// 014   ----------------------------------------
        BYTE           N06     An4   v095
        BYTE   W06
        BYTE                   Gn4
        BYTE           N06     An4   v055
        BYTE   W06
        BYTE                   Gn4
        BYTE           N06     An4   v031
        BYTE   W06
        BYTE                   Gn4
        BYTE           N06     As4   v095
        BYTE   W06
        BYTE                   As4   v055
        BYTE   W06
        BYTE                   As4   v031
        BYTE           N06     An4   v095
        BYTE   W06
        BYTE                   An4   v055
        BYTE   W06
        BYTE                   An4   v031
        BYTE           N06     Fn4   v095
        BYTE   W06
        BYTE                   En4
        BYTE   W06
        BYTE                   Fn4
        BYTE   W06
        BYTE                   En4
        BYTE   W06
        BYTE                   Dn4
        BYTE   W06
        BYTE                   En4
        BYTE           N06     Dn4   v055
        BYTE   W06
        BYTE                   Fn4   v095
        BYTE   W06
        BYTE                   En4
        BYTE   W06
        BYTE                   Gn4
        BYTE           N06     En4   v055
        BYTE   W06
        BYTE                   An4   v095
        BYTE           N06     En4   v031
        BYTE   W06
        BYTE                   An4   v055
        BYTE           N06     Gn4   v095
        BYTE   W06
        BYTE                   An4   v031
        BYTE           N06     Gn4   v055
        BYTE   W06
        BYTE                   Gn4   v031
        BYTE           N06     As4   v095
        BYTE   W06
        BYTE                   As4   v055
        BYTE   W06
        BYTE                   As4   v031
        BYTE           N06     An4   v095
        BYTE   W06
        BYTE                   An4   v055
        BYTE   W06
        BYTE                   Fn4   v095
        BYTE           N06     An4   v031
        BYTE   W06
        BYTE                   Gn4   v095
        BYTE   W06
        BYTE                   Fn4
        BYTE   W06
        BYTE                   An4
        BYTE   W06
        BYTE                   Gn4
        BYTE           N06     An4   v055
        BYTE   W06
        BYTE                   Fn4   v095
        BYTE           N06     An4   v031
        BYTE   W06
        BYTE                   En4   v095
        BYTE   W06
        BYTE                   En4   v055
        BYTE           N06     Fn4   v095
        BYTE   W06
        BYTE                   En4   v031
        BYTE           N06     Fn4   v055
        BYTE           N06     Gn4   v095
        BYTE   W06
// 015   ----------------------------------------
        BYTE                   An4
        BYTE   W06
        BYTE                   An4   v055
        BYTE           N06     Gn4   v095
        BYTE   W06
        BYTE                   Gn4   v055
        BYTE           N06     An4   v031
        BYTE   W06
        BYTE                   Gn4
        BYTE           N06     As4   v095
        BYTE   W06
        BYTE                   As4   v055
        BYTE   W06
        BYTE                   As4   v031
        BYTE           N06     An4   v095
        BYTE   W06
        BYTE                   An4   v055
        BYTE   W06
        BYTE                   Fn4   v095
        BYTE           N06     An4   v031
        BYTE   W06
        BYTE                   En4   v095
        BYTE   W06
        BYTE                   Fn4
        BYTE   W06
        BYTE                   En4
        BYTE   W06
        BYTE                   Dn4
        BYTE   W06
        BYTE                   En4
        BYTE           N06     Dn4   v055
        BYTE   W06
        BYTE                   Fn4   v095
        BYTE   W06
        BYTE                   En4
        BYTE   W06
        BYTE                   Gn4
        BYTE           N06     En4   v055
        BYTE   W06
        BYTE                   An4   v095
        BYTE           N06     En4   v031
        BYTE   W06
        BYTE                   An4   v055
        BYTE           N06     Gn4   v095
        BYTE   W06
        BYTE                   An4   v031
        BYTE           N06     Gn4   v055
        BYTE   W06
        BYTE                   Gn4   v031
        BYTE           N06     As4   v095
        BYTE   W06
        BYTE                   As4   v055
        BYTE   W06
        BYTE                   As4   v031
        BYTE           N06     An4   v095
        BYTE   W06
        BYTE                   An4   v055
        BYTE   W06
        BYTE                   Fn4   v095
        BYTE           N06     An4   v031
        BYTE   W06
        BYTE                   Gn4   v095
        BYTE   W06
        BYTE                   Fn4
        BYTE   W06
        BYTE                   An4
        BYTE   W06
        BYTE                   Gn4
        BYTE           N06     An4   v055
        BYTE   W06
        BYTE                   Fn4   v095
        BYTE           N06     An4   v031
        BYTE   W06
        BYTE                   En4   v095
        BYTE   W06
        BYTE                   En4   v055
        BYTE           N06     Fn4   v095
        BYTE   W06
        BYTE                   Fn4   v055
        BYTE           N06     En4   v031
        BYTE           N06     Gn4   v095
        BYTE   W06
// 016   ----------------------------------------
        BYTE                   Gn4   v055
        BYTE   W06
        BYTE                   Gn4   v031
        BYTE   W06
        BYTE                   Gn4   v019
        BYTE   W06
        BYTE                   Gn4   v011
        BYTE   W06
        BYTE                   Gn4   v003
        BYTE   W72
        BYTE                   An4   v095
        BYTE   W06
        BYTE                   Gn4
        BYTE           N06     An4   v055
        BYTE   W06
        BYTE                   Gn4
        BYTE           N06     An4   v031
        BYTE   W06
        BYTE                   As4   v095
        BYTE           N06     Gn4   v031
        BYTE   W06
        BYTE                   As4   v055
        BYTE   W06
        BYTE                   As4   v031
        BYTE           N06     An4   v095
        BYTE   W06
        BYTE                   An4   v055
        BYTE   W06
        BYTE                   Fn4   v095
        BYTE           N06     An4   v031
        BYTE   W06
        BYTE                   Gn4   v095
        BYTE   W06
        BYTE                   Fn4
        BYTE   W06
        BYTE                   An4
        BYTE   W06
        BYTE                   Gn4
        BYTE           N06     An4   v055
        BYTE   W06
        BYTE                   Fn4   v095
        BYTE           N06     An4   v031
        BYTE   W06
        BYTE                   En4   v095
        BYTE   W06
        BYTE                   Fn4
        BYTE           N06     En4   v055
        BYTE   W06
        BYTE                   En4   v031
        BYTE           N06     Fn4   v055
        BYTE           N06     Gn4   v095
        BYTE   W06
// 017   ----------------------------------------
        BYTE                   An4
        BYTE   W06
        BYTE                   Gn4
        BYTE           N06     An4   v055
        BYTE   W06
        BYTE                   Gn4
        BYTE           N06     An4   v031
        BYTE   W06
        BYTE                   Gn4
        BYTE           N06     As4   v095
        BYTE   W06
        BYTE                   As4   v055
        BYTE   W06
        BYTE                   As4   v031
        BYTE           N06     An4   v095
        BYTE   W06
        BYTE                   An4   v055
        BYTE   W06
        BYTE                   Fn4   v095
        BYTE           N06     An4   v031
        BYTE   W06
        BYTE                   En4   v095
        BYTE   W06
        BYTE                   Fn4
        BYTE   W06
        BYTE                   En4
        BYTE   W06
        BYTE                   Dn4
        BYTE   W06
        BYTE                   En4
        BYTE           N06     Dn4   v055
        BYTE   W06
        BYTE                   Fn4   v095
        BYTE   W06
        BYTE                   En4
        BYTE   W06
        BYTE                   Gn4
        BYTE           N06     En4   v055
        BYTE   W06
        BYTE                   An4   v095
        BYTE           N06     En4   v031
        BYTE   W06
        BYTE                   Gn4   v095
        BYTE           N06     An4   v055
        BYTE   W06
        BYTE                   An4   v031
        BYTE           N06     Gn4   v055
        BYTE   W06
        BYTE                   As4   v095
        BYTE           N06     Gn4   v031
        BYTE   W06
        BYTE                   As4   v055
        BYTE   W06
        BYTE                   An4   v095
        BYTE           N06     As4   v031
        BYTE   W06
        BYTE                   An4   v055
        BYTE   W06
        BYTE                   Fn4   v095
        BYTE           N06     An4   v031
        BYTE   W06
        BYTE                   Gn4   v095
        BYTE   W06
        BYTE                   Fn4
        BYTE   W06
        BYTE                   An4
        BYTE   W06
        BYTE                   An4   v055
        BYTE           N06     Gn4   v095
        BYTE   W06
        BYTE                   Fn4
        BYTE           N06     An4   v031
        BYTE   W06
        BYTE                   En4   v095
        BYTE   W06
        BYTE                   En4   v055
        BYTE           N06     Fn4   v095
        BYTE   W06
        BYTE                   Gn4
        BYTE           N06     Fn4   v055
        BYTE           N06     En4   v031
        BYTE   W06
// 018   ----------------------------------------
aelevate_3_18:
        BYTE           N06     Dn4   v103
        BYTE   W06
        BYTE                   Cs4
        BYTE   W06
        BYTE                   Dn4
        BYTE   W06
        BYTE                   Dn4   v055
        BYTE           N12     An3   v103
        BYTE   W12
        BYTE           N06     En4
        BYTE   W06
        BYTE                   En4   v055
        BYTE           N06     Dn4   v103
        BYTE   W06
        BYTE                   Dn4   v055
        BYTE           N06     En4   v103
        BYTE   W06
        BYTE                   En4   v055
        BYTE           N12     Cn4   v103
        BYTE   W12
        BYTE           N06     Dn4
        BYTE   W06
        BYTE           N03     En4
        BYTE   W03
        BYTE                   Dn4
        BYTE   W03
        BYTE                   En4
        BYTE   W03
        BYTE                   Fn4
        BYTE   W03
        BYTE           N06     Dn4
        BYTE   W06
        BYTE                   En4
        BYTE   W06
        BYTE                   En4   v055
        BYTE           N06     Cn4   v103
        BYTE   W06
        BYTE                   Cn4   v055
        BYTE           N06     As3   v103
        BYTE   W06
        BYTE                   An3
        BYTE   W06
        BYTE                   Gn3
        BYTE   W06
        BYTE                   Gs3
        BYTE   W06
        BYTE                   An3
        BYTE   W06
        BYTE                   An3   v055
        BYTE           N06     Gn3   v103
        BYTE   W06
        BYTE                   Gn3   v055
        BYTE           N06     An3   v103
        BYTE   W06
        BYTE                   An3   v055
        BYTE           N06     Fn3   v103
        BYTE   W06
        BYTE                   Fn3   v055
        BYTE           N06     Gn3   v103
        BYTE   W06
        BYTE                   Gn3   v055
        BYTE           N06     Gs3   v103
        BYTE   W06
        BYTE                   Gs3   v055
        BYTE           N06     An3   v103
        BYTE   W06
        BYTE                   An3   v055
        BYTE           N06     As3   v103
        BYTE   W06
        BYTE                   As3   v055
        BYTE           N06     Cn4   v103
        BYTE   W06
        BYTE                   Cn4   v055
        BYTE           N06     As3   v103
        BYTE   W06
        BYTE                   Cn4   v035
        BYTE           N06     An3   v103
        BYTE   W06
        BYTE                   An3   v055
        BYTE           N06     Gn3   v103
        BYTE   W06
        BYTE   PEND
// 019   ----------------------------------------
aelevate_3_19:
        BYTE           N06     Fn3   v103
        BYTE   W06
        BYTE                   Gn3
        BYTE   W06
        BYTE                   Fn3
        BYTE   W06
        BYTE                   En3
        BYTE   W06
        BYTE           N18     Fn3
        BYTE   W18
        BYTE           N06     Fn3   v055
        BYTE           N06     Bn2   v103
        BYTE   W06
        BYTE                   Fn3   v023
        BYTE           N06     Bn2   v055
        BYTE           N06     Cn3   v103
        BYTE   W06
        BYTE                   Cn3   v055
        BYTE           N06     Dn3   v103
        BYTE   W06
        BYTE                   Dn3   v055
        BYTE           N06     En3   v103
        BYTE   W06
        BYTE                   En3   v055
        BYTE           N06     Fn3   v103
        BYTE   W06
        BYTE                   Fn3   v055
        BYTE           N06     An3   v103
        BYTE   W06
        BYTE                   An3   v055
        BYTE           N06     Fn3   v103
        BYTE   W06
        BYTE                   An3   v023
        BYTE           N06     Gn3   v103
        BYTE   W06
        BYTE                   Gn3   v055
        BYTE           N06     An3   v103
        BYTE   W06
        BYTE                   An3   v055
        BYTE           N36     Gn3   v103
        BYTE   W06
        BYTE           N06     An3   v023
        BYTE   W30
        BYTE           N36     Fn3   v103
        BYTE   W36
        BYTE           N06     En3
        BYTE   W06
        BYTE                   En3   v055
        BYTE           N06     Fn3   v103
        BYTE   W06
        BYTE                   Fn3   v055
        BYTE           N06     Dn4   v103
        BYTE   W06
        BYTE                   Dn4   v055
        BYTE           N06     Cs4   v103
        BYTE   W06
        BYTE   PEND
// 020   ----------------------------------------
        BYTE           N05     Dn4
        BYTE   W06
        BYTE           N06     Dn4   v055
        BYTE   W06
        BYTE                   Dn4   v039
        BYTE   W06
        BYTE                   Dn4   v015
        BYTE   W06
        BYTE                   Dn4   v004
        BYTE   W96
        BYTE   W72
// 021   ----------------------------------------
        BYTE   W96
        BYTE   W96
// 022   ----------------------------------------
        BYTE   W96
        BYTE   W96
// 023   ----------------------------------------
        BYTE   W96
        BYTE   W96
// 024   ----------------------------------------
        BYTE   PATT
         POIN2  aelevate_3_6
// 025   ----------------------------------------
        BYTE   PATT
         POIN2  aelevate_3_7
// 026   ----------------------------------------
        BYTE   PATT
         POIN2  aelevate_3_8
// 027   ----------------------------------------
        BYTE   PATT
         POIN2  aelevate_3_9
// 028   ----------------------------------------
        BYTE   W96
        BYTE   W96
// 029   ----------------------------------------
        BYTE   W96
        BYTE   W96
// 030   ----------------------------------------
        BYTE   W96
        BYTE   W96
// 031   ----------------------------------------
        BYTE   W96
        BYTE   W96
// 032   ----------------------------------------
aelevate_3_32:
        BYTE           N06     An4   v095
        BYTE   W06
        BYTE                   An4   v055
        BYTE           N06     Gn4   v095
        BYTE   W06
        BYTE                   An4   v031
        BYTE           N06     Gn4   v055
        BYTE   W06
        BYTE                   Gn4   v031
        BYTE           N06     As4   v095
        BYTE   W06
        BYTE                   As4   v055
        BYTE   W06
        BYTE                   As4   v031
        BYTE           N06     An4   v095
        BYTE   W06
        BYTE                   An4   v055
        BYTE   W06
        BYTE                   An4   v031
        BYTE           N06     Fn4   v095
        BYTE   W06
        BYTE                   En4
        BYTE   W06
        BYTE                   Fn4
        BYTE   W06
        BYTE                   En4
        BYTE   W06
        BYTE                   Dn4
        BYTE   W06
        BYTE                   Dn4   v055
        BYTE           N06     En4   v095
        BYTE   W06
        BYTE                   Fn4
        BYTE   W06
        BYTE                   En4
        BYTE   W06
        BYTE                   En4   v055
        BYTE           N06     Gn4   v095
        BYTE   W06
        BYTE                   En4   v031
        BYTE           N06     An4   v095
        BYTE   W06
        BYTE                   An4   v055
        BYTE           N06     Gn4   v095
        BYTE   W06
        BYTE                   An4   v031
        BYTE           N06     Gn4   v055
        BYTE   W06
        BYTE                   Gn4   v031
        BYTE           N06     As4   v095
        BYTE   W06
        BYTE                   As4   v055
        BYTE   W06
        BYTE                   As4   v031
        BYTE           N06     An4   v095
        BYTE   W06
        BYTE                   An4   v055
        BYTE   W06
        BYTE                   An4   v031
        BYTE           N06     Fn4   v095
        BYTE   W06
        BYTE                   Gn4
        BYTE   W06
        BYTE                   Fn4
        BYTE   W06
        BYTE                   An4
        BYTE   W06
        BYTE                   An4   v055
        BYTE           N06     Gn4   v095
        BYTE   W06
        BYTE                   An4   v031
        BYTE           N06     Fn4   v095
        BYTE   W06
        BYTE                   En4
        BYTE   W06
        BYTE                   En4   v055
        BYTE           N06     Fn4   v095
        BYTE   W06
        BYTE                   En4   v031
        BYTE           N06     Fn4   v055
        BYTE           N06     Gn4   v095
        BYTE   W06
        BYTE   PEND
// 033   ----------------------------------------
        BYTE   PATT
         POIN2  aelevate_3_32
// 034   ----------------------------------------
        BYTE   W96
        BYTE           N06     An4   v095
        BYTE   W06
        BYTE                   Gn4
        BYTE           N06     An4   v055
        BYTE   W06
        BYTE                   An4   v031
        BYTE           N06     Gn4   v055
        BYTE   W06
        BYTE                   As4   v095
        BYTE           N06     Gn4   v031
        BYTE   W06
        BYTE                   As4   v055
        BYTE   W06
        BYTE                   An4   v095
        BYTE           N06     As4   v031
        BYTE   W06
        BYTE                   An4   v055
        BYTE   W06
        BYTE                   Fn4   v095
        BYTE           N06     An4   v031
        BYTE   W06
        BYTE                   Gn4   v095
        BYTE   W06
        BYTE                   Fn4
        BYTE   W06
        BYTE                   An4
        BYTE   W06
        BYTE                   Gn4
        BYTE           N06     An4   v055
        BYTE   W06
        BYTE                   Fn4   v095
        BYTE           N06     An4   v031
        BYTE   W06
        BYTE                   En4   v095
        BYTE   W06
        BYTE                   Fn4
        BYTE           N06     En4   v055
        BYTE   W06
        BYTE                   Gn4   v095
        BYTE           N06     Fn4   v055
        BYTE           N06     En4   v031
        BYTE   W06
// 035   ----------------------------------------
        BYTE                   An4   v095
        BYTE   W06
        BYTE                   Gn4
        BYTE           N06     An4   v055
        BYTE   W06
        BYTE                   Gn4
        BYTE           N06     An4   v031
        BYTE   W06
        BYTE                   Gn4
        BYTE           N06     As4   v095
        BYTE   W06
        BYTE                   As4   v055
        BYTE   W06
        BYTE                   As4   v031
        BYTE           N06     An4   v095
        BYTE   W06
        BYTE                   An4   v055
        BYTE   W06
        BYTE                   Fn4   v095
        BYTE           N06     An4   v031
        BYTE   W06
        BYTE                   En4   v095
        BYTE   W06
        BYTE                   Fn4
        BYTE   W06
        BYTE                   En4
        BYTE   W06
        BYTE                   Dn4
        BYTE   W06
        BYTE                   En4
        BYTE           N06     Dn4   v055
        BYTE   W06
        BYTE                   Fn4   v095
        BYTE   W06
        BYTE                   En4
        BYTE   W06
        BYTE                   Gn4
        BYTE           N06     En4   v055
        BYTE   W06
        BYTE                   An4   v095
        BYTE           N06     En4   v031
        BYTE   W06
        BYTE                   Gn4   v095
        BYTE           N06     An4   v055
        BYTE   W06
        BYTE                   Gn4
        BYTE           N06     An4   v031
        BYTE   W06
        BYTE                   As4   v095
        BYTE           N06     Gn4   v031
        BYTE   W06
        BYTE                   As4   v055
        BYTE   W06
        BYTE                   An4   v095
        BYTE           N06     As4   v031
        BYTE   W06
        BYTE                   An4   v055
        BYTE   W06
        BYTE                   Fn4   v095
        BYTE           N06     An4   v031
        BYTE   W06
        BYTE                   Gn4   v095
        BYTE   W06
        BYTE                   Fn4
        BYTE   W06
        BYTE                   An4
        BYTE   W06
        BYTE                   An4   v055
        BYTE           N06     Gn4   v095
        BYTE   W06
        BYTE                   Fn4
        BYTE           N06     An4   v031
        BYTE   W06
        BYTE                   En4   v095
        BYTE   W06
        BYTE                   Fn4
        BYTE           N06     En4   v055
        BYTE   W06
        BYTE                   Gn4   v095
        BYTE           N06     Fn4   v055
        BYTE           N06     En4   v031
        BYTE   W06
// 036   ----------------------------------------
        BYTE   PATT
         POIN2  aelevate_3_18
// 037   ----------------------------------------
        BYTE   PATT
         POIN2  aelevate_3_19
// 038   ----------------------------------------
        BYTE           N05     Dn4   v103
        BYTE   GoTo
         POIN2  aelevate_3_LOOP
        BYTE   W06
        BYTE           N06     Dn4   v055
        BYTE   W06
        BYTE                   Dn4   v039
        BYTE   W06
        BYTE                   Dn4   v015
        BYTE   W06
        BYTE                   Dn4   v004
        BYTE   W48
        BYTE           MOD     74
        BYTE   FINE

//****************** Track 4 (Midi-Chn.6) ******************//

aelevate_4:
        BYTE   KEYSH   aelevate_key+0
// 000   ----------------------------------------
aelevate_4_LOOP:
        BYTE           VOICE   71
        BYTE           PAN     c_v-14
        BYTE           VOL     38
        BYTE           BENDR   12
        BYTE           N84     Dn2   v124
        BYTE   W84
        BYTE           N48     En2
        BYTE   W48
        BYTE           N36     Cn2
        BYTE   W36
        BYTE           N24     En2
        BYTE   W24
// 001   ----------------------------------------
        BYTE           N36     Fn2
        BYTE   W36
        BYTE           N48     Dn2
        BYTE   W48
        BYTE                   As2
        BYTE   W48
        BYTE           N60     Gn2
        BYTE   W60
// 002   ----------------------------------------
aelevate_4_2:
        BYTE           N84     Dn3   v123
        BYTE   W84
        BYTE           N48     En3
        BYTE   W48
        BYTE           N36     Cn3
        BYTE   W36
        BYTE           N24     En3
        BYTE   W24
        BYTE   PEND
// 003   ----------------------------------------
aelevate_4_3:
        BYTE           N36     Fn3   v123
        BYTE   W36
        BYTE           N48     Dn3
        BYTE   W48
        BYTE                   As3
        BYTE   W48
        BYTE           N60     Gn3
        BYTE   W60
        BYTE   PEND
// 004   ----------------------------------------
aelevate_4_4:
        BYTE           N84     Dn2   v124
        BYTE   W84
        BYTE           N48     En2
        BYTE   W48
        BYTE           N36     Cn2
        BYTE   W36
        BYTE           N24     En2
        BYTE   W24
        BYTE   PEND
// 005   ----------------------------------------
aelevate_4_5:
        BYTE           N36     Fn2   v124
        BYTE   W36
        BYTE           N48     Dn2
        BYTE   W48
        BYTE           N60     Gn2
        BYTE   W60
        BYTE           N24     Dn2
        BYTE   W24
        BYTE                   En2
        BYTE   W24
        BYTE   PEND
// 006   ----------------------------------------
aelevate_4_6:
        BYTE           N84     Dn3   v124
        BYTE   W84
        BYTE           N48     En3   v123
        BYTE   W48
        BYTE           N60     Fn3
        BYTE   W60
        BYTE   PEND
// 007   ----------------------------------------
aelevate_4_7:
        BYTE           N36     Dn3   v123
        BYTE   W36
        BYTE           N24     Fn3
        BYTE   W24
        BYTE           N12     En3
        BYTE   W12
        BYTE                   Dn3
        BYTE   W12
        BYTE           N48     Cn3
        BYTE   W24
        BYTE           N12     Dn3
        BYTE   W12
        BYTE                   En3
        BYTE   W12
        BYTE           N36     Cs3
        BYTE           N24     Gn3
        BYTE   W24
        BYTE           N12     Fn3
        BYTE   W12
        BYTE           N24     Gn3
        BYTE           N24     En3
        BYTE   W24
        BYTE   PEND
// 008   ----------------------------------------
aelevate_4_8:
        BYTE           N84     Fn3   v124
        BYTE   W84
        BYTE           N48     En3
        BYTE   W48
        BYTE           N36     Gn3
        BYTE   W36
        BYTE           N24     En3
        BYTE   W24
        BYTE   PEND
// 009   ----------------------------------------
aelevate_4_9:
        BYTE           N36     Fn3   v124
        BYTE   W36
        BYTE           N48     Dn3
        BYTE   W48
        BYTE                   Gn3
        BYTE   W48
        BYTE           N36     En3
        BYTE   W36
        BYTE           N06     Fn3
        BYTE   W06
        BYTE                   Gn3
        BYTE   W06
        BYTE                   An3
        BYTE   W06
        BYTE                   Cs4
        BYTE   W06
        BYTE   PEND
// 010   ----------------------------------------
        BYTE           TIE     Dn4
        BYTE   W96
        BYTE   W96
// 011   ----------------------------------------
aelevate_4_11:
        BYTE           EOT     Dn4
        BYTE           TIE     Dn4   v045
        BYTE   W96
        BYTE   W96
        BYTE   PEND
// 012   ----------------------------------------
aelevate_4_12:
        BYTE           EOT     Dn4
        BYTE           TIE     Fn3   v124
        BYTE   W96
        BYTE   W96
        BYTE   PEND
// 013   ----------------------------------------
aelevate_4_13:
        BYTE           EOT     Fn3
        BYTE           TIE     Fn3   v124
        BYTE   W96
        BYTE   W48
        BYTE           EOT
        BYTE           N06     Dn3
        BYTE   W06
        BYTE                   Cn3
        BYTE   W06
        BYTE                   As2
        BYTE   W06
        BYTE                   An2
        BYTE   W06
        BYTE                   Gn2
        BYTE   W06
        BYTE                   Fn2
        BYTE   W06
        BYTE                   En2
        BYTE   W06
        BYTE                   Dn2
        BYTE   W06
        BYTE   PEND
// 014   ----------------------------------------
aelevate_4_14:
        BYTE           N36     Fn2   v124
        BYTE   W36
        BYTE           N48     Dn2
        BYTE   W48
        BYTE                   Gn2
        BYTE   W48
        BYTE           N36     As2
        BYTE   W36
        BYTE           N24     Gn2
        BYTE   W24
        BYTE   PEND
// 015   ----------------------------------------
aelevate_4_15:
        BYTE           N36     An2   v124
        BYTE   W36
        BYTE           N48     Fn2
        BYTE   W48
        BYTE                   As2
        BYTE   W48
        BYTE           N60     En2
        BYTE   W60
        BYTE   PEND
// 016   ----------------------------------------
aelevate_4_16:
        BYTE           N84     Dn2   v124
        BYTE   W84
        BYTE           N48     En2
        BYTE   W48
        BYTE           N24     Fn2
        BYTE   W24
        BYTE           N12     Gn2
        BYTE   W12
        BYTE           N06     Fn2
        BYTE   W06
        BYTE                   Gn2
        BYTE   W06
        BYTE                   Fn2
        BYTE   W06
        BYTE                   En2
        BYTE   W06
        BYTE   PEND
// 017   ----------------------------------------
aelevate_4_17:
        BYTE           N36     Dn2   v124
        BYTE   W36
        BYTE           N24     Fn2
        BYTE   W24
        BYTE           N12     En2
        BYTE   W12
        BYTE                   Dn2
        BYTE   W12
        BYTE           N48     Cn2
        BYTE   W48
        BYTE           N36     Cs2
        BYTE   W36
        BYTE           N24     Gn2
        BYTE   W24
        BYTE   PEND
// 018   ----------------------------------------
aelevate_4_18:
        BYTE           N84     Fn2   v124
        BYTE   W84
        BYTE           N48     En2
        BYTE   W48
        BYTE           N36     Gn2
        BYTE   W36
        BYTE           N24     En2
        BYTE   W24
        BYTE   PEND
// 019   ----------------------------------------
aelevate_4_19:
        BYTE           N36     Fn2   v124
        BYTE   W36
        BYTE           N48     Dn2
        BYTE   W48
        BYTE                   Gn2
        BYTE   W48
        BYTE           N60     En2
        BYTE   W60
        BYTE   PEND
// 020   ----------------------------------------
        BYTE   PATT
         POIN2  aelevate_4_2
// 021   ----------------------------------------
        BYTE   PATT
         POIN2  aelevate_4_3
// 022   ----------------------------------------
        BYTE   PATT
         POIN2  aelevate_4_4
// 023   ----------------------------------------
        BYTE   PATT
         POIN2  aelevate_4_5
// 024   ----------------------------------------
        BYTE   PATT
         POIN2  aelevate_4_6
// 025   ----------------------------------------
        BYTE   PATT
         POIN2  aelevate_4_7
// 026   ----------------------------------------
        BYTE   PATT
         POIN2  aelevate_4_8
// 027   ----------------------------------------
        BYTE   PATT
         POIN2  aelevate_4_9
// 028   ----------------------------------------
        BYTE           TIE     Dn4   v124
        BYTE   W96
        BYTE   W96
// 029   ----------------------------------------
        BYTE   PATT
         POIN2  aelevate_4_11
// 030   ----------------------------------------
        BYTE   PATT
         POIN2  aelevate_4_12
// 031   ----------------------------------------
        BYTE   PATT
         POIN2  aelevate_4_13
// 032   ----------------------------------------
        BYTE   PATT
         POIN2  aelevate_4_14
// 033   ----------------------------------------
        BYTE   PATT
         POIN2  aelevate_4_15
// 034   ----------------------------------------
        BYTE   PATT
         POIN2  aelevate_4_16
// 035   ----------------------------------------
        BYTE   PATT
         POIN2  aelevate_4_17
// 036   ----------------------------------------
        BYTE   PATT
         POIN2  aelevate_4_18
// 037   ----------------------------------------
        BYTE   PATT
         POIN2  aelevate_4_19
// 038   ----------------------------------------
        BYTE   GoTo
         POIN2  aelevate_4_LOOP
        BYTE   W72
        BYTE           MOD     51
        BYTE   FINE

//****************** Track 5 (Midi-Chn.7) ******************//

aelevate_5:
        BYTE   KEYSH   aelevate_key+0
// 000   ----------------------------------------
aelevate_5_LOOP:
        BYTE           VOICE   81
        BYTE           PAN     c_v+12
        BYTE           VOL     38
        BYTE           N84     Dn3   v072
        BYTE   W84
        BYTE           N48     En3
        BYTE   W48
        BYTE           N36     Cn3
        BYTE   W36
        BYTE           N24     En3
        BYTE   W24
// 001   ----------------------------------------
        BYTE           N36     Fn3
        BYTE   W36
        BYTE           N48     Dn3
        BYTE   W48
        BYTE                   As3
        BYTE   W48
        BYTE           N60     Gn3
        BYTE   W60
// 002   ----------------------------------------
        BYTE           N84     Dn4
        BYTE   W84
        BYTE           N48     En4
        BYTE   W48
        BYTE           N36     Cn4
        BYTE   W36
        BYTE           N24     En4
        BYTE   W24
// 003   ----------------------------------------
        BYTE           N36     Fn4
        BYTE   W36
        BYTE           N48     Dn4
        BYTE   W48
        BYTE                   As4
        BYTE   W48
        BYTE           N60     Gn4
        BYTE   W60
// 004   ----------------------------------------
        BYTE           N84     Dn3
        BYTE   W84
        BYTE           N48     En3
        BYTE   W48
        BYTE           N36     Cn3
        BYTE   W36
        BYTE           N24     En3
        BYTE   W24
// 005   ----------------------------------------
        BYTE           N36     Fn3
        BYTE   W36
        BYTE           N48     Dn3
        BYTE   W48
        BYTE           N60     Gn3
        BYTE   W60
        BYTE           N24     Dn3
        BYTE   W24
        BYTE                   En3
        BYTE   W24
// 006   ----------------------------------------
        BYTE           N84     Dn4
        BYTE   W84
        BYTE           N48     En4
        BYTE   W48
        BYTE           N60     Fn4
        BYTE   W60
// 007   ----------------------------------------
        BYTE           N36     Dn4
        BYTE   W36
        BYTE           N24     Fn4
        BYTE   W24
        BYTE           N12     En4
        BYTE   W12
        BYTE                   Dn4
        BYTE   W12
        BYTE           N48     Cn4
        BYTE   W24
        BYTE           N12     Dn4
        BYTE   W12
        BYTE                   En4
        BYTE   W12
        BYTE           N24     Gn4
        BYTE           N36     Cs4
        BYTE   W24
        BYTE           N12     Fn4
        BYTE   W12
        BYTE           N24     En4
        BYTE           N24     Gn4
        BYTE   W24
// 008   ----------------------------------------
        BYTE           N84     Fn4
        BYTE   W84
        BYTE           N48     En4
        BYTE   W48
        BYTE           N36     Gn4
        BYTE   W36
        BYTE           N24     En4
        BYTE   W24
// 009   ----------------------------------------
        BYTE           N36     Fn4
        BYTE   W36
        BYTE           N48     Dn4
        BYTE   W48
        BYTE                   Gn4
        BYTE   W48
        BYTE           N36     En4   v073
        BYTE   W36
        BYTE           N06     Fn4
        BYTE   W06
        BYTE                   Gn4   v072
        BYTE   W06
        BYTE                   An4
        BYTE   W06
        BYTE                   Cs5   v071
        BYTE   W06
// 010   ----------------------------------------
        BYTE           TIE     Dn5   v074
        BYTE   W96
        BYTE   W96
// 011   ----------------------------------------
aelevate_5_11:
        BYTE           EOT     Dn5
        BYTE           TIE     Dn5   v041
        BYTE   W96
        BYTE   W96
        BYTE   PEND
// 012   ----------------------------------------
        BYTE           EOT
        BYTE           TIE     Fn4   v071
        BYTE   W96
        BYTE   W96
// 013   ----------------------------------------
        BYTE           EOT
        BYTE           TIE
        BYTE   W96
        BYTE   W48
        BYTE           EOT
        BYTE           N06     Dn4
        BYTE   W06
        BYTE                   Cn4
        BYTE   W06
        BYTE                   As3
        BYTE   W06
        BYTE                   An3
        BYTE   W06
        BYTE                   Gn3
        BYTE   W06
        BYTE                   Fn3
        BYTE   W06
        BYTE                   En3
        BYTE   W06
        BYTE                   Dn3
        BYTE   W06
// 014   ----------------------------------------
        BYTE           N36     Fn3
        BYTE   W36
        BYTE           N48     Dn3
        BYTE   W48
        BYTE                   Gn3   v072
        BYTE   W48
        BYTE           N36     As3
        BYTE   W36
        BYTE           N24     Gn3
        BYTE   W24
// 015   ----------------------------------------
        BYTE           N36     An3
        BYTE   W36
        BYTE           N48     Fn3
        BYTE   W48
        BYTE                   As3
        BYTE   W48
        BYTE           N60     En3
        BYTE   W60
// 016   ----------------------------------------
        BYTE           N84     Dn3
        BYTE   W84
        BYTE           N48     En3
        BYTE   W48
        BYTE           N24     Fn3   v073
        BYTE   W24
        BYTE           N12     Gn3
        BYTE   W12
        BYTE           N06     Fn3
        BYTE   W06
        BYTE                   Gn3
        BYTE   W06
        BYTE                   Fn3
        BYTE   W06
        BYTE                   En3
        BYTE   W06
// 017   ----------------------------------------
        BYTE           N36     Dn3
        BYTE   W36
        BYTE           N24     Fn3
        BYTE   W24
        BYTE           N12     En3
        BYTE   W12
        BYTE                   Dn3
        BYTE   W12
        BYTE           N48     Cn3
        BYTE   W48
        BYTE           N36     Cs3
        BYTE   W36
        BYTE           N24     Gn3
        BYTE   W24
// 018   ----------------------------------------
        BYTE           N84     Fn3
        BYTE   W84
        BYTE           N48     En3
        BYTE   W48
        BYTE           N36     Gn3
        BYTE   W36
        BYTE           N24     En3   v074
        BYTE   W24
// 019   ----------------------------------------
        BYTE           N36     Fn3
        BYTE   W36
        BYTE           N48     Dn3
        BYTE   W48
        BYTE                   Gn3
        BYTE   W48
        BYTE           N60     En3
        BYTE   W60
// 020   ----------------------------------------
        BYTE           N84     Dn4
        BYTE   W84
        BYTE           N48     En4
        BYTE   W48
        BYTE           N36     Cn4
        BYTE   W36
        BYTE           N24     En4
        BYTE   W24
// 021   ----------------------------------------
        BYTE           N36     Fn4
        BYTE   W36
        BYTE           N48     Dn4   v075
        BYTE   W48
        BYTE                   As4
        BYTE   W48
        BYTE           N60     Gn4
        BYTE   W60
// 022   ----------------------------------------
        BYTE           N84     Dn3
        BYTE   W84
        BYTE           N48     En3
        BYTE   W48
        BYTE           N36     Cn3
        BYTE   W36
        BYTE           N24     En3
        BYTE   W24
// 023   ----------------------------------------
        BYTE           N36     Fn3
        BYTE   W36
        BYTE           N48     Dn3
        BYTE   W48
        BYTE           N60     Gn3   v076
        BYTE   W60
        BYTE           N24     Dn3
        BYTE   W24
        BYTE                   En3
        BYTE   W24
// 024   ----------------------------------------
        BYTE           N84     Dn4
        BYTE   W84
        BYTE           N48     En4
        BYTE   W48
        BYTE           N60     Fn4
        BYTE   W60
// 025   ----------------------------------------
        BYTE           N36     Dn4
        BYTE   W36
        BYTE           N24     Fn4
        BYTE   W24
        BYTE           N12     En4
        BYTE   W12
        BYTE                   Dn4
        BYTE   W12
        BYTE           N48     Cn4
        BYTE   W24
        BYTE           N12     Dn4
        BYTE   W12
        BYTE                   En4
        BYTE   W12
        BYTE           N24     Gn4
        BYTE           N36     Cs4
        BYTE   W24
        BYTE           N12     Fn4   v077
        BYTE   W12
        BYTE           N24     En4
        BYTE           N24     Gn4
        BYTE   W24
// 026   ----------------------------------------
        BYTE           N84     Fn4
        BYTE   W84
        BYTE           N48     En4
        BYTE   W48
        BYTE           N36     Gn4
        BYTE   W36
        BYTE           N24     En4
        BYTE   W24
// 027   ----------------------------------------
        BYTE           N36     Fn4
        BYTE   W36
        BYTE           N48     Dn4
        BYTE   W48
        BYTE                   Gn4
        BYTE   W48
        BYTE           N36     En4
        BYTE   W36
        BYTE           N06     Fn4
        BYTE   W06
        BYTE                   Gn4
        BYTE   W06
        BYTE                   An4
        BYTE   W06
        BYTE                   Cs5
        BYTE   W06
// 028   ----------------------------------------
        BYTE           TIE     Dn5
        BYTE   W96
        BYTE   W96
// 029   ----------------------------------------
        BYTE   PATT
         POIN2  aelevate_5_11
// 030   ----------------------------------------
        BYTE           EOT     Dn5
        BYTE           TIE     Fn4   v075
        BYTE   W96
        BYTE   W96
// 031   ----------------------------------------
        BYTE           EOT
        BYTE           TIE     Fn4   v077
        BYTE   W96
        BYTE   W48
        BYTE           EOT
        BYTE           N06     Dn4   v081
        BYTE   W06
        BYTE                   Cn4
        BYTE   W06
        BYTE                   As3   v077
        BYTE   W06
        BYTE                   An3
        BYTE   W06
        BYTE                   Gn3
        BYTE   W06
        BYTE                   Fn3
        BYTE   W06
        BYTE                   En3
        BYTE   W06
        BYTE                   Dn3
        BYTE   W06
// 032   ----------------------------------------
        BYTE           N36     Fn3
        BYTE   W36
        BYTE           N48     Dn3
        BYTE   W48
        BYTE                   Gn3
        BYTE   W48
        BYTE           N36     As3
        BYTE   W36
        BYTE           N24     Gn3
        BYTE   W24
// 033   ----------------------------------------
        BYTE           N36     An3
        BYTE   W36
        BYTE           N48     Fn3
        BYTE   W48
        BYTE                   As3   v078
        BYTE   W48
        BYTE           N60     En3
        BYTE   W60
// 034   ----------------------------------------
        BYTE           N84     Dn3
        BYTE   W84
        BYTE           N48     En3
        BYTE   W48
        BYTE           N24     Fn3
        BYTE   W24
        BYTE           N12     Gn3
        BYTE   W12
        BYTE           N06     Fn3
        BYTE   W06
        BYTE                   Gn3
        BYTE   W06
        BYTE                   Fn3
        BYTE   W06
        BYTE                   En3
        BYTE   W06
// 035   ----------------------------------------
        BYTE           N36     Dn3   v079
        BYTE   W36
        BYTE           N24     Fn3
        BYTE   W24
        BYTE           N12     En3
        BYTE   W12
        BYTE                   Dn3
        BYTE   W12
        BYTE           N48     Cn3
        BYTE   W48
        BYTE           N36     Cs3
        BYTE   W36
        BYTE           N24     Gn3
        BYTE   W24
// 036   ----------------------------------------
        BYTE           N84     Fn3
        BYTE   W84
        BYTE           N48     En3
        BYTE   W48
        BYTE           N36     Gn3   v080
        BYTE   W36
        BYTE           N24     En3
        BYTE   W24
// 037   ----------------------------------------
        BYTE           N36     Fn3
        BYTE   W36
        BYTE           N48     Dn3
        BYTE   W48
        BYTE                   Gn3
        BYTE   W48
        BYTE           N60     En3
        BYTE   W60
// 038   ----------------------------------------
        BYTE   GoTo
         POIN2  aelevate_5_LOOP
        BYTE   W72
        BYTE   FINE

//****************** Track 6 (Midi-Chn.8) ******************//

aelevate_6:
        BYTE   KEYSH   aelevate_key+0
// 000   ----------------------------------------
aelevate_6_LOOP:
        BYTE           VOICE   40
        BYTE           VOL     44
        BYTE           BENDR   12
        BYTE   W96
        BYTE   W96
// 001   ----------------------------------------
        BYTE   W96
        BYTE   W96
// 002   ----------------------------------------
        BYTE   W96
        BYTE   W96
// 003   ----------------------------------------
aelevate_6_3:
        BYTE   W96
        BYTE   W36
        BYTE           N24     An3   v112
        BYTE   W24
        BYTE           N12     Cs4
        BYTE   W12
        BYTE                   Fn4
        BYTE   W12
        BYTE                   En4
        BYTE   W12
        BYTE   PEND
// 004   ----------------------------------------
aelevate_6_4:
        BYTE           N12     Dn4   v112
        BYTE   W12
        BYTE                   Dn4
        BYTE   W12
        BYTE                   An3
        BYTE   W12
        BYTE                   Fn3
        BYTE   W12
        BYTE                   En3
        BYTE   W12
        BYTE                   Gn3
        BYTE   W12
        BYTE                   An3
        BYTE   W12
        BYTE           N24     As3
        BYTE   W24
        BYTE           N12     Cn4
        BYTE   W12
        BYTE                   Dn4
        BYTE   W12
        BYTE           N24     En4
        BYTE   W24
        BYTE           N12     As3
        BYTE   W12
        BYTE                   An3
        BYTE   W12
        BYTE                   Gn3
        BYTE   W12
        BYTE   PEND
// 005   ----------------------------------------
aelevate_6_5:
        BYTE           N06     Fn3   v112
        BYTE   W06
        BYTE                   Gn3
        BYTE   W06
        BYTE                   Fn3
        BYTE   W06
        BYTE                   En3
        BYTE   W06
        BYTE           N24     Fn3
        BYTE   W24
        BYTE           N12
        BYTE   W12
        BYTE                   Gn3
        BYTE   W12
        BYTE                   An3
        BYTE   W12
        BYTE           N24     As3
        BYTE   W24
        BYTE           N12     Cn4
        BYTE   W12
        BYTE                   Dn4
        BYTE   W12
        BYTE           N03     Cs4
        BYTE   W03
        BYTE                   Dn4
        BYTE   W03
        BYTE                   Cs4
        BYTE   W03
        BYTE                   Dn4
        BYTE   W03
        BYTE           N12     As3
        BYTE   W12
        BYTE                   An3
        BYTE   W12
        BYTE                   Dn4
        BYTE   W12
        BYTE                   En4
        BYTE   W12
        BYTE   PEND
// 006   ----------------------------------------
aelevate_6_6:
        BYTE           N12     An3   v112
        BYTE   W12
        BYTE                   An3
        BYTE   W21
        BYTE           N01     As3   v116
        BYTE   W03
        BYTE           N24     As3   v112
        BYTE   W24
        BYTE           N12     Cn4
        BYTE   W12
        BYTE                   As3
        BYTE   W12
        BYTE           N24     Cn4
        BYTE   W24
        BYTE           N12     Fn4
        BYTE   W12
        BYTE                   En4
        BYTE   W12
        BYTE           N24     Fn4
        BYTE   W24
        BYTE           N12     Gn4
        BYTE   W12
        BYTE                   An4
        BYTE   W12
        BYTE                   Cn4
        BYTE   W12
        BYTE   PEND
// 007   ----------------------------------------
aelevate_6_7:
        BYTE           N12     As3   v112
        BYTE   W12
        BYTE                   Cn4
        BYTE   W12
        BYTE                   Dn4
        BYTE   W12
        BYTE           N24     Fn4
        BYTE   W24
        BYTE           N12     En4
        BYTE   W12
        BYTE                   Dn4
        BYTE   W12
        BYTE           N24     Cn4
        BYTE   W24
        BYTE           N12     Dn4
        BYTE   W12
        BYTE                   En4
        BYTE   W12
        BYTE           N24     Gn4
        BYTE   W24
        BYTE           N12     Fn4
        BYTE   W12
        BYTE                   En4
        BYTE   W12
        BYTE                   En4   v080
        BYTE   W12
        BYTE   PEND
// 008   ----------------------------------------
        BYTE           N06     An4   v112
        BYTE   W06
        BYTE                   En4
        BYTE   W06
        BYTE                   Dn4
        BYTE   W06
        BYTE                   Cn5
        BYTE   W06
        BYTE                   An4
        BYTE   W06
        BYTE                   Gs4
        BYTE   W06
        BYTE                   An4
        BYTE   W06
        BYTE                   Gn4
        BYTE   W06
        BYTE                   Gs4
        BYTE   W06
        BYTE                   An4
        BYTE   W06
        BYTE                   Fn4
        BYTE   W06
        BYTE                   Dn4
        BYTE   W06
        BYTE                   En4
        BYTE   W06
        BYTE                   Fn4
        BYTE   W06
        BYTE                   Gs4
        BYTE   W06
        BYTE                   An4
        BYTE   W05
        BYTE           N01     Ds4
        BYTE   W01
        BYTE           N12     En4
        BYTE   W12
        BYTE           N06     Cn4
        BYTE   W06
        BYTE           N12     Gn4
        BYTE   W12
        BYTE           N06     Dn4
        BYTE   W06
        BYTE                   Gs4
        BYTE   W06
        BYTE           N12     An4
        BYTE   W12
        BYTE           N06     Dn5
        BYTE   W06
        BYTE                   An4
        BYTE   W06
        BYTE                   Gs4
        BYTE   W06
        BYTE                   Fn5
        BYTE   W06
        BYTE                   En5
        BYTE   W06
        BYTE                   Fn5   v056
        BYTE           N06     Cn5   v112
        BYTE   W06
        BYTE                   Fn5   v040
        BYTE           N06     An4   v112
        BYTE   W06
// 009   ----------------------------------------
        BYTE                   Fn5   v024
        BYTE           N06     As4   v112
        BYTE   W06
        BYTE                   Fn5   v024
        BYTE           N06     Cn4   v112
        BYTE   W06
        BYTE                   As3
        BYTE   W06
        BYTE                   Cn5
        BYTE   W06
        BYTE                   As4
        BYTE   W06
        BYTE                   An4
        BYTE   W06
        BYTE                   Gn4
        BYTE   W06
        BYTE                   Fn4
        BYTE   W06
        BYTE                   Cn5
        BYTE   W06
        BYTE                   Dn4
        BYTE   W06
        BYTE                   Cn4
        BYTE   W06
        BYTE                   Dn5
        BYTE   W06
        BYTE                   Cn5
        BYTE   W06
        BYTE                   As4
        BYTE   W06
        BYTE                   An4
        BYTE   W06
        BYTE                   Gn4
        BYTE   W06
        BYTE                   Cn5
        BYTE   W06
        BYTE                   Cn4
        BYTE   W06
        BYTE                   Cn5
        BYTE   W06
        BYTE                   Gn4
        BYTE   W06
        BYTE                   Cn5
        BYTE   W06
        BYTE                   Dn5
        BYTE   W06
        BYTE                   Cn5
        BYTE   W06
        BYTE                   As4
        BYTE   W06
        BYTE                   Cn5
        BYTE   W06
        BYTE                   As4
        BYTE   W06
        BYTE                   An4
        BYTE   W06
        BYTE                   Gn4
        BYTE   W06
        BYTE                   Fn4
        BYTE   W06
        BYTE                   En4
        BYTE   W06
        BYTE                   Dn4
        BYTE   W06
        BYTE                   Cs4
        BYTE   W06
// 010   ----------------------------------------
aelevate_6_10:
        BYTE           N06     Cs4   v072
        BYTE   W06
        BYTE                   Cs4   v056
        BYTE   W06
        BYTE                   Cs4   v044
        BYTE   W06
        BYTE                   Cs4   v036
        BYTE   W96
        BYTE   W78
        BYTE   PEND
// 011   ----------------------------------------
        BYTE   W96
        BYTE   W96
// 012   ----------------------------------------
        BYTE   W96
        BYTE   W96
// 013   ----------------------------------------
        BYTE   W96
        BYTE   W96
// 014   ----------------------------------------
        BYTE   W96
        BYTE   W96
// 015   ----------------------------------------
        BYTE   W96
        BYTE   W96
// 016   ----------------------------------------
        BYTE   W96
        BYTE   W96
// 017   ----------------------------------------
        BYTE   W96
        BYTE   W96
// 018   ----------------------------------------
        BYTE   W96
        BYTE   W96
// 019   ----------------------------------------
        BYTE   W96
        BYTE   W96
// 020   ----------------------------------------
        BYTE   W96
        BYTE   W96
// 021   ----------------------------------------
        BYTE   PATT
         POIN2  aelevate_6_3
// 022   ----------------------------------------
        BYTE   PATT
         POIN2  aelevate_6_4
// 023   ----------------------------------------
        BYTE   PATT
         POIN2  aelevate_6_5
// 024   ----------------------------------------
        BYTE   PATT
         POIN2  aelevate_6_6
// 025   ----------------------------------------
        BYTE   PATT
         POIN2  aelevate_6_7
// 026   ----------------------------------------
        BYTE           N06     An4   v112
        BYTE   W06
        BYTE                   En4
        BYTE   W06
        BYTE                   Dn4
        BYTE   W06
        BYTE                   Cn5
        BYTE   W06
        BYTE                   An4
        BYTE   W06
        BYTE                   Gs4
        BYTE   W06
        BYTE                   An4
        BYTE   W06
        BYTE                   Gn4
        BYTE   W06
        BYTE                   Gs4
        BYTE   W06
        BYTE                   An4
        BYTE   W06
        BYTE                   Fn4
        BYTE   W06
        BYTE                   Dn4
        BYTE   W06
        BYTE                   En4
        BYTE   W06
        BYTE                   Fn4
        BYTE   W06
        BYTE                   Gs4
        BYTE   W06
        BYTE                   An4
        BYTE   W04
        BYTE           N02     Ds4
        BYTE   W02
        BYTE           N12     En4
        BYTE   W12
        BYTE           N06     Cn4
        BYTE   W06
        BYTE           N12     Gn4
        BYTE   W12
        BYTE           N06     Dn4
        BYTE   W06
        BYTE                   Gs4
        BYTE   W06
        BYTE           N12     An4
        BYTE   W12
        BYTE           N06     Dn5
        BYTE   W06
        BYTE                   An4
        BYTE   W06
        BYTE                   Gs4
        BYTE   W06
        BYTE                   Fn5
        BYTE   W06
        BYTE                   En5
        BYTE   W06
        BYTE                   Cn5
        BYTE   W06
        BYTE                   An4
        BYTE   W06
// 027   ----------------------------------------
        BYTE                   As4
        BYTE   W06
        BYTE                   Cn4
        BYTE   W06
        BYTE                   As3
        BYTE   W06
        BYTE                   Cn5
        BYTE   W06
        BYTE                   As4
        BYTE   W06
        BYTE                   An4
        BYTE   W06
        BYTE                   Gn4
        BYTE   W06
        BYTE                   Fn4
        BYTE   W06
        BYTE                   Cn5
        BYTE   W06
        BYTE                   Dn4
        BYTE   W06
        BYTE                   Cn4
        BYTE   W06
        BYTE                   Dn5
        BYTE   W06
        BYTE                   Cn5
        BYTE   W06
        BYTE                   As4
        BYTE   W06
        BYTE                   An4
        BYTE   W06
        BYTE                   Gn4
        BYTE   W06
        BYTE                   Cn5
        BYTE   W06
        BYTE                   Cn4
        BYTE   W06
        BYTE                   Cn5
        BYTE   W06
        BYTE                   Gn4
        BYTE   W06
        BYTE                   Cn5
        BYTE   W06
        BYTE                   Dn5
        BYTE   W06
        BYTE                   Cn5
        BYTE   W06
        BYTE                   As4
        BYTE   W06
        BYTE                   Cn5
        BYTE   W06
        BYTE                   As4
        BYTE   W06
        BYTE                   An4
        BYTE   W06
        BYTE                   Gn4
        BYTE   W06
        BYTE                   Fn4
        BYTE   W06
        BYTE                   En4
        BYTE   W06
        BYTE                   Dn4
        BYTE   W06
        BYTE                   Cs4
        BYTE   W06
// 028   ----------------------------------------
        BYTE   PATT
         POIN2  aelevate_6_10
// 029   ----------------------------------------
        BYTE   W96
        BYTE   W96
// 030   ----------------------------------------
        BYTE   W96
        BYTE   W96
// 031   ----------------------------------------
        BYTE   W96
        BYTE   W96
// 032   ----------------------------------------
        BYTE   W96
        BYTE   W96
// 033   ----------------------------------------
        BYTE   W96
        BYTE   W96
// 034   ----------------------------------------
        BYTE   W96
        BYTE   W96
// 035   ----------------------------------------
        BYTE   W96
        BYTE   W96
// 036   ----------------------------------------
        BYTE   W96
        BYTE   W96
// 037   ----------------------------------------
        BYTE   W96
        BYTE   W96
// 038   ----------------------------------------
        BYTE   GoTo
         POIN2  aelevate_6_LOOP
        BYTE   W72
        BYTE           MOD     127
        BYTE   FINE

//****************** Track 7 (Midi-Chn.9) ******************//

aelevate_7:
        BYTE   KEYSH   aelevate_key+0
// 000   ----------------------------------------
aelevate_7_LOOP:
        BYTE           VOICE   124
        BYTE           VOL     51
        BYTE           N12     As1   v072
        BYTE   W24
        BYTE                   Fs1   v061
        BYTE   W36
        BYTE                   As1   v100
        BYTE   W12
        BYTE                   Fs1   v061
        BYTE   W12
        BYTE                   As1   v100
        BYTE   W12
        BYTE                   Fs1   v061
        BYTE   W60
        BYTE                   As1   v100
        BYTE   W12
        BYTE                   Fs1   v061
        BYTE   W12
        BYTE                   As1   v100
        BYTE   W12
// 001   ----------------------------------------
        BYTE                   Fs1   v061
        BYTE           N12     Cs2   v100
        BYTE           N12     As1   v072
        BYTE   W24
        BYTE                   Fs1   v061
        BYTE   W36
        BYTE                   As1   v100
        BYTE   W12
        BYTE                   Fs1   v061
        BYTE   W12
        BYTE                   As1   v100
        BYTE   W12
        BYTE                   Fs1   v061
        BYTE   W60
        BYTE                   As1   v100
        BYTE   W12
        BYTE                   Fs1   v061
        BYTE   W12
        BYTE                   As1   v100
        BYTE   W12
// 002   ----------------------------------------
        BYTE                   As1
        BYTE           N12     Cn1
        BYTE   W12
        BYTE                   Bn0   v072
        BYTE   W12
        BYTE                   Fs1   v061
        BYTE           N12     Bn0   v048
        BYTE   W12
        BYTE           N06     Cn2   v100
        BYTE   W06
        BYTE                   Cn2   v056
        BYTE   W06
        BYTE                   Cn2   v028
        BYTE   W06
        BYTE                   Cn2   v008
        BYTE   W06
        BYTE                   Bn1   v100
        BYTE   W06
        BYTE                   Bn1   v056
        BYTE   W06
        BYTE                   Bn1   v028
        BYTE           N06     An1   v100
        BYTE   W06
        BYTE                   Bn1   v008
        BYTE           N06     An1   v056
        BYTE   W06
        BYTE           N12     Cn1   v100
        BYTE           N06     An1   v028
        BYTE   W06
        BYTE                   An1   v008
        BYTE   W06
        BYTE           N12     Bn0   v072
        BYTE   W12
        BYTE                   Bn0   v048
        BYTE   W12
        BYTE                   En1   v100
        BYTE           N12     Dn1
        BYTE   W12
        BYTE                   En1   v052
        BYTE           N12     Dn1
        BYTE   W12
        BYTE                   Dn1   v024
        BYTE           N12     En1
        BYTE   W12
        BYTE                   Cn1   v100
        BYTE   W12
        BYTE                   En1
        BYTE           N12     Dn1
        BYTE           N12     Bn0   v072
        BYTE   W12
        BYTE                   En1   v052
        BYTE           N12     Dn1
        BYTE           N12     Cn1   v100
        BYTE   W12
// 003   ----------------------------------------
        BYTE           TIE     Cs2
        BYTE   W24
        BYTE           N12     Dn1
        BYTE           N12     En1
        BYTE   W12
        BYTE                   En1   v052
        BYTE           N12     Dn1
        BYTE   W12
        BYTE                   Cn1   v100
        BYTE   W12
        BYTE                   Bn0   v072
        BYTE   W12
        BYTE                   En1   v100
        BYTE           N12     Dn1
        BYTE   W12
        BYTE                   En1   v052
        BYTE           N12     Cn1   v100
        BYTE           N12     Dn1   v052
        BYTE   W12
        BYTE                   Bn0
        BYTE   W12
        BYTE                   Cn1   v100
        BYTE   W02
        BYTE           EOT     Cs2
        BYTE   W10
        BYTE           N12     En1
        BYTE           N12     Dn1
        BYTE   W12
        BYTE                   Dn1   v052
        BYTE           N12     En1
        BYTE   W12
        BYTE                   Dn1   v024
        BYTE           N12     En1
        BYTE   W12
        BYTE                   Cn1   v100
        BYTE   W12
        BYTE                   Bn0   v072
        BYTE           N12     Dn1   v100
        BYTE           N12     En1
        BYTE   W12
        BYTE                   Cn1
        BYTE   W06
        BYTE           N05     Dn1   v068
        BYTE           N06     En1   v100
        BYTE   W06
// 004   ----------------------------------------
        BYTE           N12     Cn1
        BYTE   W12
        BYTE                   Bn0   v072
        BYTE   W12
        BYTE                   Bn0   v048
        BYTE           N12     Dn1   v100
        BYTE           N12     En1
        BYTE   W12
        BYTE                   Cn1
        BYTE           N12     Dn1   v028
        BYTE           N12     En1   v060
        BYTE   W12
        BYTE                   Bn0   v048
        BYTE   W12
        BYTE                   Cn1   v100
        BYTE   W12
        BYTE                   En1
        BYTE           N12     Dn1
        BYTE           N12     Bn0   v048
        BYTE   W12
        BYTE                   Dn1   v052
        BYTE           N12     Cn1   v100
        BYTE           N12     En1   v052
        BYTE   W12
        BYTE                   Bn0
        BYTE   W12
        BYTE                   Bn0   v036
        BYTE   W12
        BYTE                   En1   v100
        BYTE           N12     Dn1
        BYTE           N12     Bn0   v048
        BYTE   W12
        BYTE                   En1   v060
        BYTE           N12     Dn1   v028
        BYTE           N12     Cn1   v100
        BYTE   W12
        BYTE                   Bn0   v048
        BYTE   W12
        BYTE                   Cn1   v100
        BYTE   W12
        BYTE                   En1
        BYTE           N12     Dn1
        BYTE           N12     Bn0   v048
        BYTE   W12
        BYTE                   En1   v052
        BYTE           N12     Dn1
        BYTE           N12     Cn1   v100
        BYTE   W12
// 005   ----------------------------------------
aelevate_7_5:
        BYTE           N12     Cn1   v100
        BYTE   W12
        BYTE                   Bn0   v072
        BYTE   W12
        BYTE                   En1   v100
        BYTE           N12     Dn1
        BYTE           N12     Bn0   v048
        BYTE   W12
        BYTE                   Cn1   v100
        BYTE           N12     Dn1   v028
        BYTE           N12     En1   v060
        BYTE   W12
        BYTE                   Bn0   v048
        BYTE   W12
        BYTE                   Cn1   v100
        BYTE   W12
        BYTE                   Bn0   v048
        BYTE           N12     Dn1   v100
        BYTE           N12     En1
        BYTE   W12
        BYTE                   Cs2
        BYTE   W12
        BYTE           N06     Dn1   v084
        BYTE           N06     En1   v100
        BYTE   W06
        BYTE                   Dn1   v036
        BYTE           N06     En1   v088
        BYTE   W06
        BYTE                   En1   v032
        BYTE   W06
        BYTE                   En1   v076
        BYTE           N06     Dn1   v036
        BYTE   W06
        BYTE                   Dn1   v056
        BYTE           N06     En1   v096
        BYTE   W06
        BYTE                   En1   v032
        BYTE   W06
        BYTE                   Dn2   v100
        BYTE   W06
        BYTE                   Dn2   v064
        BYTE           N06     Cn2   v100
        BYTE           N12     Cn1
        BYTE   W06
        BYTE           N06     Cn2   v064
        BYTE           N06     Dn2   v028
        BYTE   W06
        BYTE           N12     Bn0   v072
        BYTE           N06     Cn2   v100
        BYTE   W06
        BYTE                   Bn1
        BYTE           N06     Cn2   v052
        BYTE   W06
        BYTE                   Bn1   v048
        BYTE           N12     Bn0
        BYTE           N06     An1   v100
        BYTE   W06
        BYTE                   Dn1
        BYTE           N06     En1
        BYTE           N06     An1   v036
        BYTE   W06
        BYTE                   An1   v024
        BYTE   W06
        BYTE                   En1   v080
        BYTE           N06     Dn1   v100
        BYTE   W06
        BYTE                   En1
        BYTE           N06     Dn1   v060
        BYTE   W06
        BYTE   PEND
// 006   ----------------------------------------
        BYTE           N12     Cn1   v100
        BYTE   W12
        BYTE                   Bn0   v060
        BYTE   W12
        BYTE                   Dn1   v076
        BYTE           N12     Bn0   v032
        BYTE           N12     En1   v100
        BYTE   W12
        BYTE                   Cn1
        BYTE   W06
        BYTE           N05     Dn1   v068
        BYTE           N06     En1   v100
        BYTE   W06
        BYTE           N12     Cn1
        BYTE   W06
        BYTE                   Dn1   v072
        BYTE           N12     En1   v100
        BYTE   W18
        BYTE           N06
        BYTE           N05     Dn1   v068
        BYTE   W12
        BYTE           N12     Cn1   v100
        BYTE   W06
        BYTE                   As1
        BYTE   W06
        BYTE                   Bn0   v044
        BYTE   W06
        BYTE           N06     As1   v076
        BYTE   W06
        BYTE           N12     Cn1   v100
        BYTE           N12     Gs1
        BYTE   W12
        BYTE                   Dn1   v076
        BYTE           N12     Bn0   v032
        BYTE           N12     En1   v100
        BYTE   W12
        BYTE                   Cn1
        BYTE   W06
        BYTE           N06     En1
        BYTE           N05     Dn1   v068
        BYTE   W06
        BYTE           N12     Cn1   v100
        BYTE   W06
        BYTE                   Dn1   v072
        BYTE           N12     En1   v100
        BYTE   W18
        BYTE           N06
        BYTE           N05     Dn1   v068
        BYTE   W12
        BYTE           N12     Cn1   v100
        BYTE   W12
// 007   ----------------------------------------
        BYTE                   Cn1
        BYTE   W06
        BYTE                   En1
        BYTE           N12     Dn1
        BYTE   W06
        BYTE                   Bn0   v060
        BYTE   W12
        BYTE                   Dn1   v052
        BYTE           N12     Bn0   v032
        BYTE           N12     En1   v088
        BYTE   W12
        BYTE                   Cn1   v100
        BYTE   W06
        BYTE                   Dn1   v064
        BYTE           N12     En1   v096
        BYTE   W12
        BYTE                   En1   v076
        BYTE           N12     Dn1   v048
        BYTE   W06
        BYTE                   Cn1   v100
        BYTE   W12
        BYTE                   En1
        BYTE           N12     Dn1   v080
        BYTE   W12
        BYTE                   Cn1   v100
        BYTE   W06
        BYTE                   En1
        BYTE           N12     Dn1   v072
        BYTE   W18
        BYTE                   Cn1   v100
        BYTE   W12
        BYTE                   En1   v096
        BYTE           N12     Dn1   v064
        BYTE   W12
        BYTE                   Cn1   v100
        BYTE   W06
        BYTE                   En1   v088
        BYTE           N12     Dn1   v072
        BYTE   W12
        BYTE                   En1   v100
        BYTE           N12     Dn1   v056
        BYTE   W06
        BYTE                   Cn1   v100
        BYTE   W12
        BYTE                   Bn0   v060
        BYTE           N06     En1   v100
        BYTE           N06     Dn1   v076
        BYTE   W06
        BYTE                   En1   v044
        BYTE   W06
        BYTE                   En1   v088
        BYTE           N06     Dn1   v068
        BYTE   W06
        BYTE                   En1   v100
        BYTE   W06
// 008   ----------------------------------------
        BYTE           N12     Cn1
        BYTE   W12
        BYTE                   Bn0   v060
        BYTE   W12
        BYTE                   En1   v100
        BYTE           N12     Bn0   v032
        BYTE           N12     Dn1   v076
        BYTE   W12
        BYTE                   Cn1   v100
        BYTE   W06
        BYTE           N06     En1
        BYTE           N05     Dn1   v068
        BYTE   W06
        BYTE           N12     Cn1   v100
        BYTE   W06
        BYTE                   En1
        BYTE           N12     Dn1   v072
        BYTE   W18
        BYTE           N06     En1   v100
        BYTE           N05     Dn1   v068
        BYTE   W12
        BYTE           N12     Cn1   v100
        BYTE   W06
        BYTE                   As1
        BYTE   W06
        BYTE                   Bn0   v044
        BYTE   W06
        BYTE           N06     As1   v076
        BYTE   W06
        BYTE           N12     Cn1   v100
        BYTE           N12     Gs1
        BYTE   W12
        BYTE                   En1
        BYTE           N12     Bn0   v032
        BYTE           N12     Dn1   v076
        BYTE   W12
        BYTE                   Cn1   v100
        BYTE   W06
        BYTE           N05     Dn1   v068
        BYTE           N06     En1   v100
        BYTE   W06
        BYTE           N12     Cn1
        BYTE   W06
        BYTE                   Dn1   v072
        BYTE           N12     En1   v100
        BYTE   W18
        BYTE           N06
        BYTE           N05     Dn1   v068
        BYTE   W12
        BYTE           N12     Cn1   v100
        BYTE   W12
// 009   ----------------------------------------
        BYTE                   Cn1
        BYTE   W12
        BYTE                   Bn0   v060
        BYTE   W12
        BYTE                   Dn1   v052
        BYTE           N12     Bn0   v032
        BYTE           N12     En1   v088
        BYTE   W12
        BYTE                   Cn1   v100
        BYTE   W06
        BYTE                   En1   v096
        BYTE           N12     Dn1   v064
        BYTE   W12
        BYTE                   Dn1   v048
        BYTE           N12     En1   v076
        BYTE   W06
        BYTE                   Cn1   v100
        BYTE   W12
        BYTE                   En1
        BYTE           N12     Dn1   v080
        BYTE   W12
        BYTE                   Cn1   v100
        BYTE   W06
        BYTE                   Dn1   v072
        BYTE           N12     En1   v100
        BYTE   W18
        BYTE                   Cn1
        BYTE   W12
        BYTE                   En1   v096
        BYTE           N12     Dn1   v064
        BYTE   W12
        BYTE                   Cn1   v100
        BYTE   W06
        BYTE                   Dn1   v072
        BYTE           N12     En1   v088
        BYTE   W12
        BYTE                   Dn1   v056
        BYTE           N12     En1   v100
        BYTE   W06
        BYTE                   Cn1
        BYTE   W12
        BYTE                   Bn0   v060
        BYTE           N06     En1   v100
        BYTE           N06     Dn1   v076
        BYTE   W06
        BYTE                   En1   v044
        BYTE   W06
        BYTE                   En1   v088
        BYTE           N06     Dn1   v068
        BYTE   W06
        BYTE                   En1   v100
        BYTE   W06
// 010   ----------------------------------------
        BYTE           N12     Cn1
        BYTE           N12     Cs2
        BYTE           N12     As1   v072
        BYTE   W12
        BYTE                   Bn0   v060
        BYTE           N12     Fs1   v044
        BYTE   W12
        BYTE                   As1   v084
        BYTE           N12     Cn1   v100
        BYTE   W12
        BYTE                   Bn0   v060
        BYTE           N12     Fs1   v044
        BYTE   W12
        BYTE                   Cn1   v100
        BYTE           N12     As1
        BYTE   W12
        BYTE                   Bn0   v060
        BYTE           N12     Fs1   v044
        BYTE   W12
        BYTE                   Cn1   v100
        BYTE           N12     As1
        BYTE   W12
        BYTE                   An2
        BYTE           N12     En1
        BYTE           N12     Dn1   v080
        BYTE           N12     Fs1   v056
        BYTE   W12
        BYTE                   Dn1   v064
        BYTE   W12
        BYTE           N06     Dn1   v044
        BYTE           N12     Cn1   v080
        BYTE   W12
        BYTE                   En1   v100
        BYTE           N12     Dn1   v080
        BYTE   W12
        BYTE                   Cs2   v100
        BYTE   W18
        BYTE           N06     Cn1
        BYTE   W06
        BYTE                   Cn1
        BYTE   W12
        BYTE           N12     Dn1   v072
        BYTE           N12     En1   v100
        BYTE   W12
        BYTE           N06     Dn1   v040
        BYTE           N06     En1   v092
        BYTE   W06
        BYTE                   Dn1   v060
        BYTE           N06     En1   v100
        BYTE   W06
// 011   ----------------------------------------
        BYTE           N12     As1   v072
        BYTE           N12     Cs2   v100
        BYTE           N12     Cn1
        BYTE   W12
        BYTE                   Fs1   v044
        BYTE           N12     Bn0   v060
        BYTE   W12
        BYTE                   As1   v084
        BYTE           N12     Cn1   v100
        BYTE   W12
        BYTE                   Bn0   v060
        BYTE           N12     Fs1   v044
        BYTE   W12
        BYTE                   Cn1   v100
        BYTE           N12     As1
        BYTE   W12
        BYTE                   Bn0   v060
        BYTE           N12     Fs1   v044
        BYTE   W12
        BYTE                   Cn1   v100
        BYTE   W06
        BYTE                   Bn0   v060
        BYTE   W06
        BYTE                   En1   v096
        BYTE           N12     Dn1   v068
        BYTE           N12     Cs2   v100
        BYTE   W12
        BYTE           N06     En1
        BYTE           N06     Dn1   v084
        BYTE   W06
        BYTE                   Dn1   v036
        BYTE           N06     En1   v088
        BYTE   W06
        BYTE                   En1   v032
        BYTE   W06
        BYTE                   Dn1   v036
        BYTE           N06     En1   v076
        BYTE   W06
        BYTE                   En1   v096
        BYTE           N06     Dn1   v056
        BYTE   W06
        BYTE                   En1   v032
        BYTE   W06
        BYTE                   Dn2   v100
        BYTE   W06
        BYTE           N12     Cn1
        BYTE           N06     Cn2
        BYTE           N06     Dn2   v064
        BYTE   W06
        BYTE                   Dn2   v028
        BYTE           N06     Cn2   v064
        BYTE   W06
        BYTE           N12     Bn0   v072
        BYTE           N06     Cn2   v100
        BYTE   W06
        BYTE                   Bn1
        BYTE           N06     Cn2   v052
        BYTE   W06
        BYTE                   An1   v100
        BYTE           N12     Bn0   v048
        BYTE           N06     Bn1
        BYTE   W06
        BYTE                   An1   v036
        BYTE           N06     En1   v100
        BYTE           N06     Dn1
        BYTE   W06
        BYTE                   An1   v024
        BYTE   W06
        BYTE                   Dn1   v100
        BYTE           N06     En1   v080
        BYTE   W06
        BYTE                   Dn1   v060
        BYTE           N06     En1   v100
        BYTE   W06
// 012   ----------------------------------------
        BYTE           N12     Cn1
        BYTE   W12
        BYTE                   Bn0   v060
        BYTE   W12
        BYTE                   Dn1   v076
        BYTE           N12     Bn0   v032
        BYTE           N12     En1   v100
        BYTE   W12
        BYTE                   Cn1
        BYTE   W06
        BYTE           N06     En1
        BYTE           N05     Dn1   v068
        BYTE   W06
        BYTE           N12     Cn1   v100
        BYTE   W06
        BYTE                   Dn1   v072
        BYTE           N12     En1   v100
        BYTE   W18
        BYTE           N06
        BYTE           N05     Dn1   v068
        BYTE   W12
        BYTE           N12     Cn1   v100
        BYTE   W06
        BYTE                   As1
        BYTE   W06
        BYTE                   Bn0   v044
        BYTE   W06
        BYTE           N06     As1   v076
        BYTE   W06
        BYTE           N12     Gs1   v100
        BYTE           N12     Cn1
        BYTE   W12
        BYTE                   En1
        BYTE           N12     Bn0   v032
        BYTE           N12     Dn1   v076
        BYTE   W12
        BYTE                   Cn1   v100
        BYTE   W06
        BYTE           N06     En1
        BYTE           N05     Dn1   v068
        BYTE   W06
        BYTE           N12     Cn1   v100
        BYTE   W06
        BYTE                   En1
        BYTE           N12     Dn1   v072
        BYTE   W18
        BYTE           N05     Dn1   v068
        BYTE           N06     En1   v100
        BYTE   W12
        BYTE           N12     Cn1
        BYTE   W12
// 013   ----------------------------------------
        BYTE                   Cn1
        BYTE   W12
        BYTE                   Bn0   v060
        BYTE   W12
        BYTE                   En1   v088
        BYTE           N12     Bn0   v032
        BYTE           N12     Dn1   v052
        BYTE   W12
        BYTE                   Cn1   v100
        BYTE   W06
        BYTE                   Dn1   v064
        BYTE           N12     En1   v096
        BYTE   W12
        BYTE                   Dn1   v048
        BYTE           N12     En1   v076
        BYTE   W06
        BYTE                   Cn1   v100
        BYTE   W12
        BYTE                   En1
        BYTE           N12     Dn1   v080
        BYTE   W12
        BYTE                   Cn1   v100
        BYTE   W06
        BYTE                   Dn1   v072
        BYTE           N12     En1   v100
        BYTE   W18
        BYTE                   Cn1
        BYTE   W12
        BYTE                   Dn1   v064
        BYTE           N12     En1   v096
        BYTE   W12
        BYTE                   Cn1   v100
        BYTE   W06
        BYTE                   Dn1   v072
        BYTE           N12     En1   v088
        BYTE   W12
        BYTE                   En1   v100
        BYTE           N12     Dn1   v056
        BYTE   W06
        BYTE                   Cn1   v100
        BYTE   W12
        BYTE           N06     Dn1   v076
        BYTE           N06     En1   v100
        BYTE           N12     Bn0   v060
        BYTE   W06
        BYTE           N06     En1   v044
        BYTE   W06
        BYTE                   En1   v088
        BYTE           N06     Dn1   v068
        BYTE   W06
        BYTE                   En1   v100
        BYTE   W06
// 014   ----------------------------------------
        BYTE           N12     Cn1
        BYTE   W12
        BYTE                   Bn0   v060
        BYTE   W12
        BYTE                   En1   v100
        BYTE           N12     Bn0   v032
        BYTE           N12     Dn1   v076
        BYTE   W12
        BYTE                   Cn1   v100
        BYTE   W06
        BYTE           N06     En1
        BYTE           N05     Dn1   v068
        BYTE   W06
        BYTE           N12     Cn1   v100
        BYTE   W06
        BYTE                   Dn1   v072
        BYTE           N12     En1   v100
        BYTE   W18
        BYTE           N06
        BYTE           N05     Dn1   v068
        BYTE   W12
        BYTE           N12     Cn1   v100
        BYTE   W06
        BYTE                   As1
        BYTE   W06
        BYTE                   Bn0   v044
        BYTE   W06
        BYTE           N06     As1   v076
        BYTE   W06
        BYTE           N12     Cn1   v100
        BYTE           N12     Gs1
        BYTE   W12
        BYTE                   Dn1   v076
        BYTE           N12     Bn0   v032
        BYTE           N12     En1   v100
        BYTE   W12
        BYTE                   Cn1
        BYTE   W06
        BYTE           N06     En1
        BYTE           N05     Dn1   v068
        BYTE   W06
        BYTE           N12     Cn1   v100
        BYTE   W06
        BYTE                   En1
        BYTE           N12     Dn1   v072
        BYTE   W18
        BYTE           N06     En1   v100
        BYTE           N05     Dn1   v068
        BYTE   W12
        BYTE           N12     Cn1   v100
        BYTE   W12
// 015   ----------------------------------------
        BYTE                   Cn1
        BYTE   W12
        BYTE                   Bn0   v060
        BYTE   W12
        BYTE                   En1   v088
        BYTE           N12     Bn0   v032
        BYTE           N12     Dn1   v052
        BYTE   W12
        BYTE                   Cn1   v100
        BYTE   W06
        BYTE                   En1   v096
        BYTE           N12     Dn1   v064
        BYTE   W12
        BYTE                   Dn1   v048
        BYTE           N12     En1   v076
        BYTE   W06
        BYTE                   Cn1   v100
        BYTE   W12
        BYTE                   Dn1   v080
        BYTE           N12     En1   v100
        BYTE   W12
        BYTE                   Cn1
        BYTE   W06
        BYTE                   Dn1   v072
        BYTE           N12     En1   v100
        BYTE   W18
        BYTE                   Cn1
        BYTE   W12
        BYTE                   Dn1   v064
        BYTE           N12     En1   v096
        BYTE   W12
        BYTE                   Cn1   v100
        BYTE   W06
        BYTE                   Dn1   v072
        BYTE           N12     En1   v088
        BYTE   W12
        BYTE                   Dn1   v056
        BYTE           N12     En1   v100
        BYTE   W06
        BYTE                   Cn1
        BYTE   W12
        BYTE                   Bn0   v060
        BYTE           N06     En1   v100
        BYTE           N06     Dn1   v076
        BYTE   W06
        BYTE                   En1   v044
        BYTE   W06
        BYTE                   En1   v088
        BYTE           N06     Dn1   v068
        BYTE   W06
        BYTE                   En1   v100
        BYTE   W06
// 016   ----------------------------------------
        BYTE           N12     Cn1
        BYTE   W12
        BYTE                   Bn0   v060
        BYTE   W12
        BYTE                   Dn1   v076
        BYTE           N12     Bn0   v032
        BYTE           N12     En1   v100
        BYTE   W12
        BYTE                   Cn1
        BYTE   W06
        BYTE           N06     En1
        BYTE           N05     Dn1   v068
        BYTE   W06
        BYTE           N12     Cn1   v100
        BYTE   W06
        BYTE                   En1
        BYTE           N12     Dn1   v072
        BYTE   W18
        BYTE           N06     En1   v100
        BYTE           N05     Dn1   v068
        BYTE   W12
        BYTE           N12     Cn1   v100
        BYTE   W06
        BYTE                   As1
        BYTE   W06
        BYTE                   Bn0   v044
        BYTE   W06
        BYTE           N06     As1   v076
        BYTE   W06
        BYTE           N12     Gs1   v100
        BYTE           N12     Cn1
        BYTE   W12
        BYTE                   En1
        BYTE           N12     Bn0   v032
        BYTE           N12     Dn1   v076
        BYTE   W12
        BYTE                   Cn1   v100
        BYTE   W06
        BYTE           N06     En1
        BYTE           N05     Dn1   v068
        BYTE   W06
        BYTE           N12     Cn1   v100
        BYTE   W06
        BYTE                   En1
        BYTE           N12     Dn1   v072
        BYTE   W18
        BYTE           N06     En1   v100
        BYTE           N05     Dn1   v068
        BYTE   W12
        BYTE           N12     Cn1   v100
        BYTE   W12
// 017   ----------------------------------------
        BYTE                   Cn1
        BYTE   W12
        BYTE                   Bn0   v060
        BYTE   W12
        BYTE                   Dn1   v052
        BYTE           N12     Bn0   v032
        BYTE           N12     En1   v088
        BYTE   W12
        BYTE                   Cn1   v100
        BYTE   W06
        BYTE                   Dn1   v064
        BYTE           N12     En1   v096
        BYTE   W12
        BYTE                   Dn1   v048
        BYTE           N12     En1   v076
        BYTE   W06
        BYTE                   Cn1   v100
        BYTE   W12
        BYTE                   En1
        BYTE           N12     Dn1   v080
        BYTE   W12
        BYTE                   Cn1   v100
        BYTE   W06
        BYTE                   En1
        BYTE           N12     Dn1   v072
        BYTE   W18
        BYTE                   Cn1   v100
        BYTE   W12
        BYTE                   Dn1   v064
        BYTE           N12     En1   v096
        BYTE   W12
        BYTE                   Cn1   v100
        BYTE   W06
        BYTE                   En1   v088
        BYTE           N12     Dn1   v072
        BYTE   W12
        BYTE                   Dn1   v056
        BYTE           N12     En1   v100
        BYTE   W06
        BYTE                   Cn1
        BYTE   W12
        BYTE           N06     Dn1   v076
        BYTE           N06     En1   v100
        BYTE           N12     Bn0   v060
        BYTE   W06
        BYTE           N06     En1   v044
        BYTE   W06
        BYTE                   Dn1   v068
        BYTE           N06     En1   v088
        BYTE   W06
        BYTE                   En1   v100
        BYTE   W06
// 018   ----------------------------------------
aelevate_7_18:
        BYTE           N12     Cn1   v100
        BYTE   W12
        BYTE                   Bn0   v060
        BYTE   W12
        BYTE                   En1   v100
        BYTE           N12     Bn0   v032
        BYTE           N12     Dn1   v076
        BYTE   W12
        BYTE                   Cn1   v100
        BYTE   W06
        BYTE           N06     En1
        BYTE           N05     Dn1   v068
        BYTE   W06
        BYTE           N12     Cn1   v100
        BYTE   W06
        BYTE                   Dn1   v072
        BYTE           N12     En1   v100
        BYTE   W18
        BYTE           N05     Dn1   v068
        BYTE           N06     En1   v100
        BYTE   W12
        BYTE           N12     Cn1
        BYTE   W06
        BYTE                   As1
        BYTE   W06
        BYTE                   Bn0   v044
        BYTE   W06
        BYTE           N06     As1   v076
        BYTE   W06
        BYTE           N12     Cn1   v100
        BYTE           N12     Gs1
        BYTE   W12
        BYTE                   Dn1   v076
        BYTE           N12     Bn0   v032
        BYTE           N12     En1   v100
        BYTE   W12
        BYTE                   Cn1
        BYTE   W06
        BYTE           N05     Dn1   v068
        BYTE           N06     En1   v100
        BYTE   W06
        BYTE           N12     Cn1
        BYTE   W06
        BYTE                   En1
        BYTE           N12     Dn1   v072
        BYTE   W18
        BYTE           N05     Dn1   v068
        BYTE           N06     En1   v100
        BYTE   W12
        BYTE           N12     Cn1
        BYTE   W12
        BYTE   PEND
// 019   ----------------------------------------
aelevate_7_19:
        BYTE           N12     Cn1   v100
        BYTE   W12
        BYTE                   Bn0   v060
        BYTE   W12
        BYTE                   Dn1   v052
        BYTE           N12     Bn0   v032
        BYTE           N12     En1   v088
        BYTE   W12
        BYTE                   Cn1   v100
        BYTE   W06
        BYTE                   En1   v096
        BYTE           N12     Dn1   v064
        BYTE   W12
        BYTE                   En1   v076
        BYTE           N12     Dn1   v048
        BYTE   W06
        BYTE                   Cn1   v100
        BYTE   W12
        BYTE                   Dn1   v080
        BYTE           N12     En1   v100
        BYTE   W12
        BYTE                   Cn1
        BYTE   W06
        BYTE                   Dn1   v072
        BYTE           N12     En1   v100
        BYTE   W18
        BYTE                   Cn1
        BYTE   W12
        BYTE                   En1   v096
        BYTE           N12     Dn1   v064
        BYTE   W12
        BYTE                   Cn1   v100
        BYTE   W06
        BYTE                   Dn1   v072
        BYTE           N12     En1   v088
        BYTE   W12
        BYTE                   En1   v100
        BYTE           N12     Dn1   v056
        BYTE   W06
        BYTE                   Cn1   v100
        BYTE   W12
        BYTE                   Bn0   v060
        BYTE           N06     En1   v100
        BYTE           N06     Dn1   v076
        BYTE   W06
        BYTE                   En1   v044
        BYTE   W06
        BYTE                   Dn1   v068
        BYTE           N06     En1   v088
        BYTE   W06
        BYTE                   En1   v100
        BYTE   W06
        BYTE   PEND
// 020   ----------------------------------------
        BYTE           N12     As1
        BYTE           N12     Cn1
        BYTE   W12
        BYTE                   Bn0   v072
        BYTE   W12
        BYTE                   Fs1   v061
        BYTE           N12     Bn0   v048
        BYTE   W12
        BYTE           N06     Cn2   v100
        BYTE   W06
        BYTE                   Cn2   v056
        BYTE   W06
        BYTE                   Cn2   v028
        BYTE   W06
        BYTE                   Cn2   v008
        BYTE   W06
        BYTE                   Bn1   v100
        BYTE   W06
        BYTE                   Bn1   v056
        BYTE   W06
        BYTE                   An1   v100
        BYTE           N06     Bn1   v028
        BYTE   W06
        BYTE                   Bn1   v008
        BYTE           N06     An1   v056
        BYTE   W06
        BYTE                   An1   v028
        BYTE           N12     Cn1   v100
        BYTE   W06
        BYTE           N06     An1   v008
        BYTE   W06
        BYTE           N12     Bn0   v072
        BYTE   W12
        BYTE                   Bn0   v048
        BYTE   W12
        BYTE                   Dn1   v100
        BYTE           N12     En1
        BYTE   W12
        BYTE                   Dn1   v052
        BYTE           N12     En1
        BYTE   W12
        BYTE                   Dn1   v024
        BYTE           N12     En1
        BYTE   W12
        BYTE                   Cn1   v100
        BYTE   W12
        BYTE                   Bn0   v072
        BYTE           N12     Dn1   v100
        BYTE           N12     En1
        BYTE   W12
        BYTE                   Cn1
        BYTE           N12     Dn1   v052
        BYTE           N12     En1
        BYTE   W12
// 021   ----------------------------------------
        BYTE           TIE     Cs2   v100
        BYTE   W24
        BYTE           N12     Dn1
        BYTE           N12     En1
        BYTE   W12
        BYTE                   Dn1   v052
        BYTE           N12     En1
        BYTE   W12
        BYTE                   Cn1   v100
        BYTE   W12
        BYTE                   Bn0   v072
        BYTE   W12
        BYTE                   Dn1   v100
        BYTE           N12     En1
        BYTE   W12
        BYTE                   Dn1   v052
        BYTE           N12     Cn1   v100
        BYTE           N12     En1   v052
        BYTE   W12
        BYTE                   Bn0
        BYTE   W12
        BYTE                   Cn1   v100
        BYTE   W02
        BYTE           EOT     Cs2
        BYTE   W10
        BYTE           N12     Dn1
        BYTE           N12     En1
        BYTE   W12
        BYTE                   En1   v052
        BYTE           N12     Dn1
        BYTE   W12
        BYTE                   Dn1   v024
        BYTE           N12     En1
        BYTE   W12
        BYTE                   Cn1   v100
        BYTE   W12
        BYTE                   En1
        BYTE           N12     Dn1
        BYTE           N12     Bn0   v072
        BYTE   W12
        BYTE                   Cn1   v100
        BYTE   W06
        BYTE           N05     Dn1   v068
        BYTE           N06     En1   v100
        BYTE   W06
// 022   ----------------------------------------
        BYTE           N12     Cn1
        BYTE   W12
        BYTE                   Bn0   v072
        BYTE   W12
        BYTE                   En1   v100
        BYTE           N12     Dn1
        BYTE           N12     Bn0   v048
        BYTE   W12
        BYTE                   Cn1   v100
        BYTE           N12     Dn1   v028
        BYTE           N12     En1   v060
        BYTE   W12
        BYTE                   Bn0   v048
        BYTE   W12
        BYTE                   Cn1   v100
        BYTE   W12
        BYTE                   En1
        BYTE           N12     Dn1
        BYTE           N12     Bn0   v048
        BYTE   W12
        BYTE                   Dn1   v052
        BYTE           N12     Cn1   v100
        BYTE           N12     En1   v052
        BYTE   W12
        BYTE                   Bn0
        BYTE   W12
        BYTE                   Bn0   v036
        BYTE   W12
        BYTE                   En1   v100
        BYTE           N12     Dn1
        BYTE           N12     Bn0   v048
        BYTE   W12
        BYTE                   En1   v060
        BYTE           N12     Dn1   v028
        BYTE           N12     Cn1   v100
        BYTE   W12
        BYTE                   Bn0   v048
        BYTE   W12
        BYTE                   Cn1   v100
        BYTE   W12
        BYTE                   En1
        BYTE           N12     Dn1
        BYTE           N12     Bn0   v048
        BYTE   W12
        BYTE                   En1   v052
        BYTE           N12     Dn1
        BYTE           N12     Cn1   v100
        BYTE   W12
// 023   ----------------------------------------
        BYTE   PATT
         POIN2  aelevate_7_5
// 024   ----------------------------------------
        BYTE           N12     Cn1   v100
        BYTE   W12
        BYTE                   Bn0   v060
        BYTE   W12
        BYTE                   Dn1   v076
        BYTE           N12     Bn0   v032
        BYTE           N12     En1   v100
        BYTE   W12
        BYTE                   Cn1
        BYTE   W06
        BYTE           N06     En1
        BYTE           N05     Dn1   v068
        BYTE   W06
        BYTE           N12     Cn1   v100
        BYTE   W06
        BYTE                   Dn1   v072
        BYTE           N12     En1   v100
        BYTE   W18
        BYTE           N06
        BYTE           N05     Dn1   v068
        BYTE   W12
        BYTE           N12     Cn1   v100
        BYTE   W06
        BYTE                   As1
        BYTE   W06
        BYTE                   Bn0   v044
        BYTE   W06
        BYTE           N06     As1   v076
        BYTE   W06
        BYTE           N12     Cn1   v100
        BYTE           N12     Gs1
        BYTE   W12
        BYTE                   Dn1   v076
        BYTE           N12     Bn0   v032
        BYTE           N12     En1   v100
        BYTE   W12
        BYTE                   Cn1
        BYTE   W06
        BYTE           N05     Dn1   v068
        BYTE           N06     En1   v100
        BYTE   W06
        BYTE           N12     Cn1
        BYTE   W06
        BYTE                   En1
        BYTE           N12     Dn1   v072
        BYTE   W18
        BYTE           N06     En1   v100
        BYTE           N05     Dn1   v068
        BYTE   W12
        BYTE           N12     Cn1   v100
        BYTE   W12
// 025   ----------------------------------------
        BYTE                   Cn1
        BYTE   W06
        BYTE                   En1
        BYTE           N12     Dn1
        BYTE   W06
        BYTE                   Bn0   v060
        BYTE   W12
        BYTE                   Dn1   v052
        BYTE           N12     Bn0   v032
        BYTE           N12     En1   v088
        BYTE   W12
        BYTE                   Cn1   v100
        BYTE   W06
        BYTE                   En1   v096
        BYTE           N12     Dn1   v064
        BYTE   W12
        BYTE                   En1   v076
        BYTE           N12     Dn1   v048
        BYTE   W06
        BYTE                   Cn1   v100
        BYTE   W12
        BYTE                   En1
        BYTE           N12     Dn1   v080
        BYTE   W12
        BYTE                   Cn1   v100
        BYTE   W06
        BYTE                   Dn1   v072
        BYTE           N12     En1   v100
        BYTE   W18
        BYTE                   Cn1
        BYTE   W12
        BYTE                   En1   v096
        BYTE           N12     Dn1   v064
        BYTE   W12
        BYTE                   Cn1   v100
        BYTE   W06
        BYTE                   Dn1   v072
        BYTE           N12     En1   v088
        BYTE   W12
        BYTE                   En1   v100
        BYTE           N12     Dn1   v056
        BYTE   W06
        BYTE                   Cn1   v100
        BYTE   W12
        BYTE                   Bn0   v060
        BYTE           N06     En1   v100
        BYTE           N06     Dn1   v076
        BYTE   W06
        BYTE                   En1   v044
        BYTE   W06
        BYTE                   En1   v088
        BYTE           N06     Dn1   v068
        BYTE   W06
        BYTE                   En1   v100
        BYTE   W06
// 026   ----------------------------------------
        BYTE           N12     Cn1
        BYTE   W12
        BYTE                   Bn0   v060
        BYTE   W12
        BYTE                   En1   v100
        BYTE           N12     Bn0   v032
        BYTE           N12     Dn1   v076
        BYTE   W12
        BYTE                   Cn1   v100
        BYTE   W06
        BYTE           N05     Dn1   v068
        BYTE           N06     En1   v100
        BYTE   W06
        BYTE           N12     Cn1
        BYTE   W06
        BYTE                   En1
        BYTE           N12     Dn1   v072
        BYTE   W18
        BYTE           N06     En1   v100
        BYTE           N05     Dn1   v068
        BYTE   W12
        BYTE           N12     Cn1   v100
        BYTE   W06
        BYTE                   As1
        BYTE   W06
        BYTE                   Bn0   v044
        BYTE   W06
        BYTE           N06     As1   v076
        BYTE   W06
        BYTE           N12     Cn1   v100
        BYTE           N12     Gs1
        BYTE   W12
        BYTE                   En1
        BYTE           N12     Bn0   v032
        BYTE           N12     Dn1   v076
        BYTE   W12
        BYTE                   Cn1   v100
        BYTE   W06
        BYTE           N06     En1
        BYTE           N05     Dn1   v068
        BYTE   W06
        BYTE           N12     Cn1   v100
        BYTE   W06
        BYTE                   Dn1   v072
        BYTE           N12     En1   v100
        BYTE   W18
        BYTE           N06
        BYTE           N05     Dn1   v068
        BYTE   W12
        BYTE           N12     Cn1   v100
        BYTE   W12
// 027   ----------------------------------------
        BYTE                   Cn1
        BYTE   W12
        BYTE                   Bn0   v060
        BYTE   W12
        BYTE                   Dn1   v052
        BYTE           N12     Bn0   v032
        BYTE           N12     En1   v088
        BYTE   W12
        BYTE                   Cn1   v100
        BYTE   W06
        BYTE                   Dn1   v064
        BYTE           N12     En1   v096
        BYTE   W12
        BYTE                   Dn1   v048
        BYTE           N12     En1   v076
        BYTE   W06
        BYTE                   Cn1   v100
        BYTE   W12
        BYTE                   En1
        BYTE           N12     Dn1   v080
        BYTE   W12
        BYTE                   Cn1   v100
        BYTE   W06
        BYTE                   En1
        BYTE           N12     Dn1   v072
        BYTE   W18
        BYTE                   Cn1   v100
        BYTE   W12
        BYTE                   En1   v096
        BYTE           N12     Dn1   v064
        BYTE   W12
        BYTE                   Cn1   v100
        BYTE   W06
        BYTE                   En1   v088
        BYTE           N12     Dn1   v072
        BYTE   W12
        BYTE                   Dn1   v056
        BYTE           N12     En1   v100
        BYTE   W06
        BYTE                   Cn1
        BYTE   W12
        BYTE                   Bn0   v060
        BYTE           N06     En1   v100
        BYTE           N06     Dn1   v076
        BYTE   W06
        BYTE                   En1   v044
        BYTE   W06
        BYTE                   En1   v088
        BYTE           N06     Dn1   v068
        BYTE   W06
        BYTE                   En1   v100
        BYTE   W06
// 028   ----------------------------------------
        BYTE           N12     As1   v072
        BYTE           N12     Cs2   v100
        BYTE           N12     Cn1
        BYTE   W12
        BYTE                   Fs1   v044
        BYTE           N12     Bn0   v060
        BYTE   W12
        BYTE                   Cn1   v100
        BYTE           N12     As1   v084
        BYTE   W12
        BYTE                   Bn0   v060
        BYTE           N12     Fs1   v044
        BYTE   W12
        BYTE                   Cn1   v100
        BYTE           N12     As1
        BYTE   W12
        BYTE                   Bn0   v060
        BYTE           N12     Fs1   v044
        BYTE   W12
        BYTE                   Cn1   v100
        BYTE           N12     As1
        BYTE   W12
        BYTE                   An2
        BYTE           N12     En1
        BYTE           N12     Dn1   v080
        BYTE           N12     Fs1   v056
        BYTE   W12
        BYTE                   Dn1   v064
        BYTE   W12
        BYTE                   Cn1   v080
        BYTE           N06     Dn1   v044
        BYTE   W12
        BYTE           N12     En1   v100
        BYTE           N12     Dn1   v080
        BYTE   W12
        BYTE                   Cs2   v100
        BYTE   W18
        BYTE           N06     Cn1
        BYTE   W06
        BYTE                   Cn1
        BYTE   W12
        BYTE           N12     Dn1   v072
        BYTE           N12     En1   v100
        BYTE   W12
        BYTE           N06     Dn1   v040
        BYTE           N06     En1   v092
        BYTE   W06
        BYTE                   En1   v100
        BYTE           N06     Dn1   v060
        BYTE   W06
// 029   ----------------------------------------
        BYTE           N12     Cn1   v100
        BYTE           N12     Cs2
        BYTE           N12     As1   v072
        BYTE   W12
        BYTE                   Bn0   v060
        BYTE           N12     Fs1   v044
        BYTE   W12
        BYTE                   Cn1   v100
        BYTE           N12     As1   v084
        BYTE   W12
        BYTE                   Bn0   v060
        BYTE           N12     Fs1   v044
        BYTE   W12
        BYTE                   Cn1   v100
        BYTE           N12     As1
        BYTE   W12
        BYTE                   Bn0   v060
        BYTE           N12     Fs1   v044
        BYTE   W12
        BYTE                   Cn1   v100
        BYTE   W06
        BYTE                   Bn0   v060
        BYTE   W06
        BYTE                   En1   v096
        BYTE           N12     Dn1   v068
        BYTE           N12     Cs2   v100
        BYTE   W12
        BYTE           N06     Dn1   v084
        BYTE           N06     En1   v100
        BYTE   W06
        BYTE                   Dn1   v036
        BYTE           N06     En1   v088
        BYTE   W06
        BYTE                   En1   v032
        BYTE   W06
        BYTE                   En1   v076
        BYTE           N06     Dn1   v036
        BYTE   W06
        BYTE                   En1   v096
        BYTE           N06     Dn1   v056
        BYTE   W06
        BYTE                   En1   v032
        BYTE   W06
        BYTE                   Dn2   v100
        BYTE   W06
        BYTE                   Dn2   v064
        BYTE           N06     Cn2   v100
        BYTE           N12     Cn1
        BYTE   W06
        BYTE           N06     Cn2   v064
        BYTE           N06     Dn2   v028
        BYTE   W06
        BYTE           N12     Bn0   v072
        BYTE           N06     Cn2   v100
        BYTE   W06
        BYTE                   Cn2   v052
        BYTE           N06     Bn1   v100
        BYTE   W06
        BYTE                   Bn1   v048
        BYTE           N12     Bn0
        BYTE           N06     An1   v100
        BYTE   W06
        BYTE                   An1   v036
        BYTE           N06     En1   v100
        BYTE           N06     Dn1
        BYTE   W06
        BYTE                   An1   v024
        BYTE   W06
        BYTE                   Dn1   v100
        BYTE           N06     En1   v080
        BYTE   W06
        BYTE                   En1   v100
        BYTE           N06     Dn1   v060
        BYTE   W06
// 030   ----------------------------------------
        BYTE   PATT
         POIN2  aelevate_7_18
// 031   ----------------------------------------
        BYTE   PATT
         POIN2  aelevate_7_19
// 032   ----------------------------------------
        BYTE   PATT
         POIN2  aelevate_7_18
// 033   ----------------------------------------
        BYTE   PATT
         POIN2  aelevate_7_19
// 034   ----------------------------------------
        BYTE           N12     Cn1   v100
        BYTE   W12
        BYTE                   Bn0   v060
        BYTE   W12
        BYTE                   En1   v100
        BYTE           N12     Bn0   v032
        BYTE           N12     Dn1   v076
        BYTE   W12
        BYTE                   Cn1   v100
        BYTE   W06
        BYTE           N06     En1
        BYTE           N05     Dn1   v068
        BYTE   W06
        BYTE           N12     Cn1   v100
        BYTE   W06
        BYTE                   En1
        BYTE           N12     Dn1   v072
        BYTE   W18
        BYTE           N06     En1   v100
        BYTE           N05     Dn1   v068
        BYTE   W12
        BYTE           N12     Cn1   v100
        BYTE   W06
        BYTE                   As1
        BYTE   W06
        BYTE                   Bn0   v044
        BYTE   W06
        BYTE           N06     As1   v076
        BYTE   W06
        BYTE           N12     Cn1   v100
        BYTE           N12     Gs1
        BYTE   W12
        BYTE                   En1
        BYTE           N12     Bn0   v032
        BYTE           N12     Dn1   v076
        BYTE   W12
        BYTE                   Cn1   v100
        BYTE   W06
        BYTE           N06     En1
        BYTE           N05     Dn1   v068
        BYTE   W06
        BYTE           N12     Cn1   v100
        BYTE   W06
        BYTE                   Dn1   v072
        BYTE           N12     En1   v100
        BYTE   W18
        BYTE           N06
        BYTE           N05     Dn1   v068
        BYTE   W12
        BYTE           N12     Cn1   v100
        BYTE   W12
// 035   ----------------------------------------
        BYTE                   Cn1
        BYTE   W12
        BYTE                   Bn0   v060
        BYTE   W12
        BYTE                   Dn1   v052
        BYTE           N12     Bn0   v032
        BYTE           N12     En1   v088
        BYTE   W12
        BYTE                   Cn1   v100
        BYTE   W06
        BYTE                   Dn1   v064
        BYTE           N12     En1   v096
        BYTE   W12
        BYTE                   Dn1   v048
        BYTE           N12     En1   v076
        BYTE   W06
        BYTE                   Cn1   v100
        BYTE   W12
        BYTE                   En1
        BYTE           N12     Dn1   v080
        BYTE   W12
        BYTE                   Cn1   v100
        BYTE   W06
        BYTE                   En1
        BYTE           N12     Dn1   v072
        BYTE   W18
        BYTE                   Cn1   v100
        BYTE   W12
        BYTE                   Dn1   v064
        BYTE           N12     En1   v096
        BYTE   W12
        BYTE                   Cn1   v100
        BYTE   W06
        BYTE                   En1   v088
        BYTE           N12     Dn1   v072
        BYTE   W12
        BYTE                   Dn1   v056
        BYTE           N12     En1   v100
        BYTE   W06
        BYTE                   Cn1
        BYTE   W12
        BYTE           N06     Dn1   v076
        BYTE           N06     En1   v100
        BYTE           N12     Bn0   v060
        BYTE   W06
        BYTE           N06     En1   v044
        BYTE   W06
        BYTE                   En1   v088
        BYTE           N06     Dn1   v068
        BYTE   W06
        BYTE                   En1   v100
        BYTE   W06
// 036   ----------------------------------------
        BYTE   PATT
         POIN2  aelevate_7_18
// 037   ----------------------------------------
        BYTE   PATT
         POIN2  aelevate_7_19
// 038   ----------------------------------------
        BYTE   GoTo
         POIN2  aelevate_7_LOOP
        BYTE   W72
        BYTE   FINE

//***************** Track 8 (Midi-Chn.12) ******************//

aelevate_8:
        BYTE   KEYSH   aelevate_key+0
// 000   ----------------------------------------
aelevate_8_LOOP:
        BYTE           VOICE   30
        BYTE           BENDR   12
        BYTE           VOL     45
        BYTE           N10     An2   v094
        BYTE           N10     Dn3
        BYTE   W12
        BYTE                   An2   v066
        BYTE           N10     Dn3
        BYTE   W12
        BYTE                   An2   v042
        BYTE           N10     Dn3
        BYTE   W12
        BYTE                   An2   v040
        BYTE           N10     Dn3
        BYTE   W12
        BYTE                   An2   v037
        BYTE           N10     Dn3
        BYTE   W12
        BYTE                   An2   v034
        BYTE           N10     Dn3
        BYTE   W12
        BYTE                   An2   v032
        BYTE           N10     Dn3
        BYTE   W12
        BYTE                   An2   v029
        BYTE           N10     Dn3
        BYTE   W12
        BYTE                   An2   v026
        BYTE           N10     Dn3
        BYTE   W12
        BYTE                   An2   v023
        BYTE           N10     Dn3
        BYTE   W12
        BYTE                   An2   v021
        BYTE           N10     Dn3
        BYTE   W12
        BYTE                   An2   v018
        BYTE           N10     Dn3
        BYTE   W12
        BYTE                   An2   v015
        BYTE           N10     Dn3
        BYTE   W12
        BYTE                   An2   v013
        BYTE           N10     Dn3
        BYTE   W12
        BYTE                   An2   v010
        BYTE           N10     Dn3
        BYTE   W12
        BYTE                   An2   v007
        BYTE           N10     Dn3
        BYTE   W12
// 001   ----------------------------------------
        BYTE                   An2   v094
        BYTE           N10     Dn3
        BYTE   W12
        BYTE                   An2   v059
        BYTE           N10     Dn3
        BYTE   W12
        BYTE                   An2   v045
        BYTE           N10     Dn3
        BYTE   W12
        BYTE                   An2   v042
        BYTE           N10     Dn3
        BYTE   W12
        BYTE                   An2   v039
        BYTE           N10     Dn3
        BYTE   W12
        BYTE                   An2   v036
        BYTE           N10     Dn3
        BYTE   W12
        BYTE                   An2   v033
        BYTE           N10     Dn3
        BYTE   W12
        BYTE                   An2   v031
        BYTE           N10     Dn3
        BYTE   W12
        BYTE                   An2   v028
        BYTE           N10     Dn3
        BYTE   W12
        BYTE                   An2   v025
        BYTE           N10     Dn3
        BYTE   W12
        BYTE                   An2   v022
        BYTE           N10     Dn3
        BYTE   W12
        BYTE                   An2   v019
        BYTE           N10     Dn3
        BYTE   W12
        BYTE                   An2   v016
        BYTE           N10     Dn3
        BYTE   W12
        BYTE                   An2   v013
        BYTE           N10     Dn3
        BYTE   W12
        BYTE                   An2   v010
        BYTE           N10     Dn3
        BYTE   W12
        BYTE                   An2   v007
        BYTE           N10     Dn3
        BYTE   W12
// 002   ----------------------------------------
        BYTE                   An2   v094
        BYTE           N10     Dn3
        BYTE   W12
        BYTE                   An2   v043
        BYTE           N10     Dn3
        BYTE   W12
        BYTE                   An2   v034
        BYTE           N10     Dn3
        BYTE   W12
        BYTE                   An2   v032
        BYTE           N10     Dn3
        BYTE   W12
        BYTE                   An2   v030
        BYTE           N10     Dn3
        BYTE   W12
        BYTE                   An2   v027
        BYTE           N10     Dn3
        BYTE   W12
        BYTE                   An2   v025
        BYTE           N10     Dn3
        BYTE   W12
        BYTE                   An2   v023
        BYTE           N10     Dn3
        BYTE   W12
        BYTE                   An2   v021
        BYTE           N10     Dn3
        BYTE   W12
        BYTE                   An2   v019
        BYTE           N10     Dn3
        BYTE   W12
        BYTE                   An2   v017
        BYTE           N10     Dn3
        BYTE   W12
        BYTE                   An2   v015
        BYTE           N10     Dn3
        BYTE   W12
        BYTE                   An2   v012
        BYTE           N10     Dn3
        BYTE   W12
        BYTE                   An2   v010
        BYTE           N10     Dn3
        BYTE   W12
        BYTE                   An2   v008
        BYTE           N10     Dn3
        BYTE   W12
        BYTE                   An2   v006
        BYTE           N10     Dn3
        BYTE   W12
// 003   ----------------------------------------
        BYTE                   An2   v094
        BYTE           N10     Dn3
        BYTE   W12
        BYTE                   An2   v045
        BYTE           N10     Dn3
        BYTE   W12
        BYTE                   An2   v037
        BYTE           N10     Dn3
        BYTE   W12
        BYTE                   An2   v034
        BYTE           N10     Dn3
        BYTE   W12
        BYTE                   An2   v032
        BYTE           N10     Dn3
        BYTE   W12
        BYTE                   An2   v029
        BYTE           N10     Dn3
        BYTE   W12
        BYTE                   An2   v027
        BYTE           N10     Dn3
        BYTE   W12
        BYTE                   An2   v025
        BYTE           N10     Dn3
        BYTE   W12
        BYTE                   An2   v022
        BYTE           N10     Dn3
        BYTE   W12
        BYTE                   An2   v020
        BYTE           N10     Dn3
        BYTE   W12
        BYTE                   An2   v017
        BYTE           N10     Dn3
        BYTE   W12
        BYTE                   An2   v015
        BYTE           N10     Dn3
        BYTE   W12
        BYTE                   An2   v013
        BYTE           N10     Dn3
        BYTE   W12
        BYTE                   An2   v010
        BYTE           N10     Dn3
        BYTE   W12
        BYTE                   An2   v008
        BYTE           N10     Dn3
        BYTE   W12
        BYTE                   An2   v005
        BYTE           N10     Dn3
        BYTE   W12
// 004   ----------------------------------------
        BYTE   W96
        BYTE   W96
// 005   ----------------------------------------
        BYTE   W96
        BYTE   W96
// 006   ----------------------------------------
        BYTE   W96
        BYTE   W96
// 007   ----------------------------------------
        BYTE   W96
        BYTE   W96
// 008   ----------------------------------------
        BYTE   W96
        BYTE   W96
// 009   ----------------------------------------
        BYTE   W96
        BYTE   W96
// 010   ----------------------------------------
        BYTE   W96
        BYTE   W96
// 011   ----------------------------------------
        BYTE   W96
        BYTE   W96
// 012   ----------------------------------------
        BYTE   W96
        BYTE   W96
// 013   ----------------------------------------
        BYTE   W96
        BYTE   W96
// 014   ----------------------------------------
        BYTE   W96
        BYTE   W96
// 015   ----------------------------------------
        BYTE   W96
        BYTE   W96
// 016   ----------------------------------------
        BYTE   W96
        BYTE   W96
// 017   ----------------------------------------
        BYTE   W96
        BYTE   W96
// 018   ----------------------------------------
        BYTE   W96
        BYTE   W96
// 019   ----------------------------------------
        BYTE   W96
        BYTE   W96
// 020   ----------------------------------------
        BYTE                   Dn3   v094
        BYTE           N10     An2
        BYTE   W12
        BYTE                   Dn3   v045
        BYTE           N10     An2
        BYTE   W12
        BYTE                   Dn3   v037
        BYTE           N10     An2
        BYTE   W12
        BYTE                   Dn3   v034
        BYTE           N10     An2
        BYTE   W12
        BYTE                   Dn3   v032
        BYTE           N10     An2
        BYTE   W12
        BYTE                   Dn3   v029
        BYTE           N10     An2
        BYTE   W12
        BYTE                   Dn3   v027
        BYTE           N10     An2
        BYTE   W12
        BYTE                   Dn3   v025
        BYTE           N10     An2
        BYTE   W12
        BYTE                   Dn3   v022
        BYTE           N10     An2
        BYTE   W12
        BYTE                   Dn3   v020
        BYTE           N10     An2
        BYTE   W12
        BYTE                   Dn3   v017
        BYTE           N10     An2
        BYTE   W12
        BYTE                   Dn3   v015
        BYTE           N10     An2
        BYTE   W12
        BYTE                   Dn3   v013
        BYTE           N10     An2
        BYTE   W12
        BYTE                   Dn3   v010
        BYTE           N10     An2
        BYTE   W12
        BYTE                   Dn3   v008
        BYTE           N10     An2
        BYTE   W12
        BYTE                   Dn3   v005
        BYTE           N10     An2
        BYTE   W12
// 021   ----------------------------------------
        BYTE                   Dn3   v094
        BYTE           N10     An2
        BYTE   W12
        BYTE                   Dn3   v041
        BYTE           N10     An2
        BYTE   W12
        BYTE                   Dn3   v024
        BYTE           N10     An2
        BYTE   W12
        BYTE                   Dn3   v023
        BYTE           N10     An2
        BYTE   W12
        BYTE                   Dn3   v021
        BYTE           N10     An2
        BYTE   W12
        BYTE                   Dn3   v020
        BYTE           N10     An2
        BYTE   W12
        BYTE                   Dn3   v018
        BYTE           N10     An2
        BYTE   W12
        BYTE                   Dn3   v017
        BYTE           N10     An2
        BYTE   W12
        BYTE                   Dn3   v015
        BYTE           N10     An2
        BYTE   W12
        BYTE                   Dn3   v014
        BYTE           N10     An2
        BYTE   W12
        BYTE                   Dn3   v012
        BYTE           N10     An2
        BYTE   W12
        BYTE                   Dn3   v011
        BYTE           N10     An2
        BYTE   W12
        BYTE                   Dn3   v009
        BYTE           N10     An2
        BYTE   W12
        BYTE                   Dn3   v008
        BYTE           N10     An2
        BYTE   W12
        BYTE                   Dn3   v006
        BYTE           N10     An2
        BYTE   W12
        BYTE                   Dn3   v005
        BYTE           N10     An2
        BYTE   W12
// 022   ----------------------------------------
        BYTE   W96
        BYTE   W96
// 023   ----------------------------------------
        BYTE   W96
        BYTE   W96
// 024   ----------------------------------------
        BYTE   W96
        BYTE   W96
// 025   ----------------------------------------
        BYTE   W96
        BYTE   W96
// 026   ----------------------------------------
        BYTE   W96
        BYTE   W96
// 027   ----------------------------------------
        BYTE   W96
        BYTE   W96
// 028   ----------------------------------------
        BYTE   W96
        BYTE   W96
// 029   ----------------------------------------
        BYTE   W96
        BYTE   W96
// 030   ----------------------------------------
        BYTE   W96
        BYTE   W96
// 031   ----------------------------------------
        BYTE   W96
        BYTE   W96
// 032   ----------------------------------------
        BYTE   W96
        BYTE   W96
// 033   ----------------------------------------
        BYTE   W96
        BYTE   W96
// 034   ----------------------------------------
        BYTE   W96
        BYTE   W96
// 035   ----------------------------------------
        BYTE   W96
        BYTE   W96
// 036   ----------------------------------------
        BYTE   W96
        BYTE   W96
// 037   ----------------------------------------
        BYTE   W96
        BYTE   W96
// 038   ----------------------------------------
        BYTE   GoTo
         POIN2  aelevate_8_LOOP
        BYTE   W72
        BYTE           MOD     33
        BYTE   FINE

//***************** Track 9 (Midi-Chn.14) ******************//

aelevate_9:
        BYTE   KEYSH   aelevate_key+0
// 000   ----------------------------------------
aelevate_9_LOOP:
        BYTE           VOICE   104
        BYTE           VOL     45
        BYTE   W96
        BYTE   W96
// 001   ----------------------------------------
        BYTE   W96
        BYTE   W96
// 002   ----------------------------------------
        BYTE   W96
        BYTE   W96
// 003   ----------------------------------------
        BYTE   W96
        BYTE   W96
// 004   ----------------------------------------
        BYTE   W96
        BYTE   W96
// 005   ----------------------------------------
        BYTE   W96
        BYTE   W96
// 006   ----------------------------------------
        BYTE   W96
        BYTE   W96
// 007   ----------------------------------------
        BYTE   W96
        BYTE   W96
// 008   ----------------------------------------
        BYTE   W96
        BYTE   W96
// 009   ----------------------------------------
        BYTE   W96
        BYTE   W96
// 010   ----------------------------------------
        BYTE   W96
        BYTE   W96
// 011   ----------------------------------------
        BYTE   W96
        BYTE   W96
// 012   ----------------------------------------
aelevate_9_12:
        BYTE           N60     An4   v097
        BYTE   W60
        BYTE           N12     Gn4
        BYTE   W12
        BYTE                   Fn4
        BYTE   W12
        BYTE           N48     En4
        BYTE   W48
        BYTE           N24     Fn4
        BYTE   W24
        BYTE           N12     Gn4
        BYTE   W12
        BYTE           N06     An3
        BYTE   W06
        BYTE                   Cn4
        BYTE   W06
        BYTE                   En4
        BYTE   W06
        BYTE                   Gn4
        BYTE   W06
        BYTE   PEND
// 013   ----------------------------------------
aelevate_9_13:
        BYTE           N36     An4   v097
        BYTE   W36
        BYTE           N12     Fn4
        BYTE   W12
        BYTE                   Gn4
        BYTE   W12
        BYTE           N24     An4
        BYTE   W24
        BYTE           N48     As4
        BYTE   W48
        BYTE           N60     Gn4
        BYTE   W60
        BYTE   PEND
// 014   ----------------------------------------
        BYTE   PATT
         POIN2  aelevate_9_12
// 015   ----------------------------------------
aelevate_9_15:
        BYTE           N36     An4   v097
        BYTE   W36
        BYTE           N12     Fn4
        BYTE   W12
        BYTE                   Gn4
        BYTE   W12
        BYTE           N24     An4
        BYTE   W24
        BYTE           N48     As4
        BYTE   W48
        BYTE           N24     An4
        BYTE   W24
        BYTE           N36     Gn4
        BYTE   W36
        BYTE   PEND
// 016   ----------------------------------------
aelevate_9_16:
        BYTE           N48     Dn5   v097
        BYTE   W48
        BYTE           N06
        BYTE   W06
        BYTE                   Bn4
        BYTE   W06
        BYTE                   Cs5
        BYTE   W06
        BYTE                   Dn5
        BYTE   W06
        BYTE                   En5
        BYTE   W06
        BYTE                   Dn5
        BYTE   W06
        BYTE                   En5
        BYTE   W06
        BYTE                   Fn5
        BYTE   W06
        BYTE                   An5
        BYTE   W06
        BYTE           N12     An4
        BYTE   W12
        BYTE           N06     Gn5
        BYTE   W06
        BYTE                   Fn5
        BYTE   W06
        BYTE                   Fn4
        BYTE   W06
        BYTE                   Gn4
        BYTE   W06
        BYTE                   En4
        BYTE   W06
        BYTE                   Fn4
        BYTE   W06
        BYTE                   Gn4
        BYTE   W06
        BYTE                   Gs4
        BYTE   W06
        BYTE                   An4
        BYTE   W06
        BYTE                   Cn5
        BYTE   W06
        BYTE                   Gn5
        BYTE   W06
        BYTE                   Fn5
        BYTE   W06
        BYTE                   En5
        BYTE   W06
        BYTE   PEND
// 017   ----------------------------------------
aelevate_9_17:
        BYTE           N06     Fn5   v097
        BYTE   W06
        BYTE                   En5
        BYTE   W06
        BYTE           N24     Fn5
        BYTE   W24
        BYTE           N06     Fn4
        BYTE   W06
        BYTE                   Fn4   v061
        BYTE   W06
        BYTE                   Cn5   v097
        BYTE   W06
        BYTE                   Bn4
        BYTE   W06
        BYTE                   Dn5
        BYTE   W06
        BYTE                   En5
        BYTE   W06
        BYTE                   Fn5
        BYTE   W06
        BYTE                   An4
        BYTE   W06
        BYTE                   Gn4
        BYTE   W06
        BYTE                   En4
        BYTE   W06
        BYTE                   Cn4
        BYTE   W06
        BYTE                   En5
        BYTE   W06
        BYTE                   Dn5
        BYTE   W06
        BYTE                   Cs5
        BYTE   W06
        BYTE                   Dn5
        BYTE   W06
        BYTE                   Cs5
        BYTE   W06
        BYTE                   As4
        BYTE   W06
        BYTE                   An4
        BYTE   W06
        BYTE           N03     Cs4   v094
        BYTE   W03
        BYTE                   En4
        BYTE   W03
        BYTE                   Gn4   v095
        BYTE   W03
        BYTE                   An4   v096
        BYTE   W03
        BYTE                   Cs5   v097
        BYTE   W03
        BYTE           N05     En5
        BYTE   W05
        BYTE           N04     Fn5   v071
        BYTE   W04
        BYTE           N06     Gn5   v097
        BYTE   W06
        BYTE                   En5
        BYTE   W06
        BYTE                   Dn5
        BYTE   W06
        BYTE                   Cs5
        BYTE   W06
        BYTE   PEND
// 018   ----------------------------------------
        BYTE   W96
        BYTE   W96
// 019   ----------------------------------------
        BYTE   W96
        BYTE   W96
// 020   ----------------------------------------
        BYTE   W96
        BYTE   W96
// 021   ----------------------------------------
        BYTE   W96
        BYTE   W96
// 022   ----------------------------------------
        BYTE   W96
        BYTE   W96
// 023   ----------------------------------------
        BYTE   W96
        BYTE   W96
// 024   ----------------------------------------
        BYTE   W96
        BYTE   W96
// 025   ----------------------------------------
        BYTE   W96
        BYTE   W96
// 026   ----------------------------------------
        BYTE   W96
        BYTE   W96
// 027   ----------------------------------------
        BYTE   W96
        BYTE   W96
// 028   ----------------------------------------
        BYTE   W96
        BYTE   W96
// 029   ----------------------------------------
        BYTE   W96
        BYTE   W96
// 030   ----------------------------------------
        BYTE   PATT
         POIN2  aelevate_9_12
// 031   ----------------------------------------
        BYTE   PATT
         POIN2  aelevate_9_13
// 032   ----------------------------------------
        BYTE   PATT
         POIN2  aelevate_9_12
// 033   ----------------------------------------
        BYTE   PATT
         POIN2  aelevate_9_15
// 034   ----------------------------------------
        BYTE   PATT
         POIN2  aelevate_9_16
// 035   ----------------------------------------
        BYTE   PATT
         POIN2  aelevate_9_17
// 036   ----------------------------------------
        BYTE           TIE     Dn5   v097
        BYTE   W96
        BYTE   W48
        BYTE           EOT
        BYTE   W48
// 037   ----------------------------------------
        BYTE   W96
        BYTE   W96
// 038   ----------------------------------------
        BYTE   GoTo
         POIN2  aelevate_9_LOOP
        BYTE   W72
        BYTE   FINE


//********************** End of Song ***********************//

        ALIGN 4
aelevate:
        BYTE   10                      // Num Tracks
        BYTE   0                       // Unknown
        BYTE   aelevate_pri            // Priority
        BYTE   aelevate_rev            // Reverb

        POIN2   aelevate_grp           

        POIN2   aelevate_0
        POIN2   aelevate_1
        POIN2   aelevate_2
        POIN2   aelevate_3
        POIN2   aelevate_4
        POIN2   aelevate_5
        POIN2   aelevate_6
        POIN2   aelevate_7
        POIN2   aelevate_8
        POIN2   aelevate_9

        
