//Event file generated from Sappy .s format.
        #include "MPlayDef.event"

        #define    cvaostopfloor_grp  MusicVoices
        #define    cvaostopfloor_pri  0
        #define    cvaostopfloor_rev  0x80
        #define    cvaostopfloor_key  0

        // .rodata
        // cvaostopfloor
        ALIGN 4

//****************** Track 0 (Midi-Chn.0) ******************//

cvaostopfloor_0:
        BYTE   KEYSH   cvaostopfloor_key+0
// 000   ----------------------------------------
        BYTE   TEMPO   138/2
        BYTE           VOICE   19
        BYTE           VOL     39
        BYTE   W06
        BYTE           MOD     1
        BYTE           TIE     Cs3   v068
        BYTE           N44     Gs3   v068   gtp3
        BYTE   W90
// 001   ----------------------------------------
        BYTE   W96
// 002   ----------------------------------------
        BYTE   W06
        BYTE                   Gs3   v056
        BYTE   W90
// 003   ----------------------------------------
        BYTE   W96
// 004   ----------------------------------------
        BYTE   W05
        BYTE           EOT     Cs3
        BYTE   W01
        BYTE           TIE     En3   v048
        BYTE           TIE     Gs3
        BYTE   W90
// 005   ----------------------------------------
        BYTE   W96
// 006   ----------------------------------------
        BYTE           EOT     En3
        BYTE                   Gs3
        BYTE   W06
        BYTE           VOICE   1
        BYTE           N14     Gs3   v060
        BYTE   W24
        BYTE                   Gs3
        BYTE   W18
        BYTE           N10     Gs3   v052
        BYTE   W18
        BYTE           N15     Gs3   v060
        BYTE   W18
        BYTE           N16     An3
        BYTE   W12
// 007   ----------------------------------------
cvaostopfloor_0_7:
        BYTE   W06
        BYTE           N14     Gs3   v060
        BYTE   W24
        BYTE                   Gs3
        BYTE   W18
        BYTE           N10     Gs3   v052
        BYTE   W18
        BYTE           N15     Gs3   v060
        BYTE   W18
        BYTE           N16
        BYTE   W12
        BYTE   PEND
// 008   ----------------------------------------
        BYTE   W06
        BYTE           N14
        BYTE   W24
        BYTE                   Gs3
        BYTE   W18
        BYTE           N10     Gs3   v052
        BYTE   W18
        BYTE           N15     Gs3   v060
        BYTE   W18
        BYTE           N16     An3
        BYTE   W12
// 009   ----------------------------------------
        BYTE   PATT
         POIN2  cvaostopfloor_0_7
// 010   ----------------------------------------
        BYTE   W06
cvaostopfloor_0_LOOP:
        BYTE   W90
// 011   ----------------------------------------
        BYTE   W96
// 012   ----------------------------------------
        BYTE   W96
// 013   ----------------------------------------
        BYTE   W96
// 014   ----------------------------------------
        BYTE   W96
// 015   ----------------------------------------
        BYTE   W96
// 016   ----------------------------------------
        BYTE   W96
// 017   ----------------------------------------
        BYTE   W96
// 018   ----------------------------------------
        BYTE   W96
// 019   ----------------------------------------
        BYTE   W96
// 020   ----------------------------------------
        BYTE   W96
// 021   ----------------------------------------
        BYTE   W96
// 022   ----------------------------------------
        BYTE   W06
        BYTE           VOICE   79
        BYTE           N05     Dn3   v072
        BYTE   W06
        BYTE                   Fn3
        BYTE   W06
        BYTE                   An3
        BYTE   W06
        BYTE                   Dn4
        BYTE   W06
        BYTE                   Fn3
        BYTE   W06
        BYTE                   An3
        BYTE   W06
        BYTE                   Dn4
        BYTE   W06
        BYTE                   Fn4   v060
        BYTE   W06
        BYTE                   An3   v072
        BYTE   W06
        BYTE                   Dn4
        BYTE   W06
        BYTE                   Fn4   v060
        BYTE   W06
        BYTE                   An4
        BYTE   W06
        BYTE                   Dn4   v072
        BYTE   W06
        BYTE                   Fn4   v060
        BYTE   W06
        BYTE                   An4
        BYTE   W06
// 023   ----------------------------------------
cvaostopfloor_0_23:
        BYTE           N05     Dn5   v052
        BYTE   W06
        BYTE                   Gn5
        BYTE   W06
        BYTE                   Dn5
        BYTE   W06
        BYTE                   As4   v060
        BYTE   W06
        BYTE                   Gn4
        BYTE   W06
        BYTE                   Dn5   v052
        BYTE   W06
        BYTE                   As4   v060
        BYTE   W06
        BYTE                   Gn4
        BYTE   W06
        BYTE                   Dn4   v072
        BYTE   W06
        BYTE                   As4   v060
        BYTE   W06
        BYTE                   Gn4
        BYTE   W06
        BYTE                   Dn4   v072
        BYTE   W06
        BYTE                   As3
        BYTE   W06
        BYTE                   Gn4   v060
        BYTE   W06
        BYTE                   Dn4   v072
        BYTE   W06
        BYTE                   As3
        BYTE   W06
        BYTE   PEND
// 024   ----------------------------------------
cvaostopfloor_0_24:
        BYTE           N05     Gn3   v072
        BYTE   W06
        BYTE                   Fn3
        BYTE   W06
        BYTE                   An3
        BYTE   W06
        BYTE                   Dn4
        BYTE   W06
        BYTE                   Fn4   v060
        BYTE   W06
        BYTE                   An3   v072
        BYTE   W06
        BYTE                   Dn4
        BYTE   W06
        BYTE                   Fn4   v060
        BYTE   W06
        BYTE                   An4
        BYTE   W06
        BYTE                   Dn4   v072
        BYTE   W06
        BYTE                   Fn4   v060
        BYTE   W06
        BYTE                   An4
        BYTE   W06
        BYTE                   Dn5   v052
        BYTE   W06
        BYTE                   Fn4   v060
        BYTE   W06
        BYTE                   An4
        BYTE   W06
        BYTE                   Dn5   v052
        BYTE   W06
        BYTE   PEND
// 025   ----------------------------------------
        BYTE                   Fn5
        BYTE   W06
        BYTE                   Dn5
        BYTE   W06
        BYTE                   As4   v060
        BYTE   W06
        BYTE                   Gn4
        BYTE   W06
        BYTE                   Dn4   v072
        BYTE   W06
        BYTE                   As4   v060
        BYTE   W06
        BYTE                   Gn4
        BYTE   W06
        BYTE                   Dn4   v072
        BYTE   W06
        BYTE                   As3
        BYTE   W06
        BYTE                   Cs5   v052
        BYTE   W06
        BYTE                   An4   v060
        BYTE   W06
        BYTE                   Fs4
        BYTE   W06
        BYTE                   Cs4   v072
        BYTE   W06
        BYTE                   An4   v060
        BYTE   W06
        BYTE                   Fs4
        BYTE   W06
        BYTE                   Cs4   v072
        BYTE   W06
// 026   ----------------------------------------
        BYTE                   An3
        BYTE   W06
        BYTE                   Dn3
        BYTE   W06
        BYTE                   Fn3
        BYTE   W06
        BYTE                   An3
        BYTE   W06
        BYTE                   Dn4
        BYTE   W06
        BYTE                   Fn3
        BYTE   W06
        BYTE                   An3
        BYTE   W06
        BYTE                   Dn4
        BYTE   W06
        BYTE                   Fn4   v060
        BYTE   W06
        BYTE                   An3   v072
        BYTE   W06
        BYTE                   Dn4
        BYTE   W06
        BYTE                   Fn4   v060
        BYTE   W06
        BYTE                   An4
        BYTE   W06
        BYTE                   Dn4   v072
        BYTE   W06
        BYTE                   Fn4   v060
        BYTE   W06
        BYTE                   An4
        BYTE   W06
// 027   ----------------------------------------
        BYTE   PATT
         POIN2  cvaostopfloor_0_23
// 028   ----------------------------------------
        BYTE   PATT
         POIN2  cvaostopfloor_0_24
// 029   ----------------------------------------
        BYTE           N05     Fn5   v052
        BYTE   W06
        BYTE                   An5
        BYTE   W06
        BYTE                   Fn5
        BYTE   W06
        BYTE                   Dn5
        BYTE   W06
        BYTE                   An4   v060
        BYTE   W06
        BYTE                   Fn5   v052
        BYTE   W06
        BYTE                   Dn5
        BYTE   W06
        BYTE                   An4   v060
        BYTE   W06
        BYTE                   Fn4
        BYTE   W06
        BYTE                   Dn5   v052
        BYTE   W06
        BYTE                   An4   v060
        BYTE   W06
        BYTE                   Fn4
        BYTE   W06
        BYTE                   Dn4   v072
        BYTE   W06
        BYTE                   An4   v060
        BYTE   W06
        BYTE                   Fn4
        BYTE   W06
        BYTE                   Dn4   v072
        BYTE   W06
// 030   ----------------------------------------
        BYTE                   An3
        BYTE   W06
        BYTE           VOICE   49
        BYTE           N11     Dn3
        BYTE   W12
        BYTE                   An3   v056
        BYTE   W12
        BYTE                   Cn4
        BYTE   W12
        BYTE           N05     Gn3
        BYTE   W06
        BYTE           N17     Ds4
        BYTE   W18
        BYTE           N11     As3
        BYTE   W12
        BYTE                   Dn3
        BYTE   W12
        BYTE                   An3
        BYTE   W06
// 031   ----------------------------------------
cvaostopfloor_0_31:
        BYTE   W06
        BYTE           N11     Cn4   v056
        BYTE   W12
        BYTE           N05     Gn3
        BYTE   W06
        BYTE           N17     Ds4
        BYTE   W18
        BYTE           N11     As3
        BYTE   W12
        BYTE           VOICE   19
        BYTE           N44     Gn3   v060   gtp3
        BYTE                   Dn4
        BYTE   W42
        BYTE   PEND
// 032   ----------------------------------------
cvaostopfloor_0_32:
        BYTE   W06
        BYTE           N23     Cs4   v060
        BYTE           N23     Gs4   v052
        BYTE   W24
        BYTE           N44     Gn3   v060   gtp3
        BYTE                   Dn4
        BYTE   W48
        BYTE           N23     Cs4
        BYTE           N23     Gs4   v052
        BYTE   W18
        BYTE   PEND
// 033   ----------------------------------------
        BYTE   W06
        BYTE           VOICE   48
        BYTE           N11     Dn3   v056
        BYTE   W12
        BYTE                   An3
        BYTE   W12
        BYTE                   Cn4
        BYTE   W12
        BYTE           N05     Gn3
        BYTE   W06
        BYTE           N17     Ds4
        BYTE   W18
        BYTE           N11     As3
        BYTE   W12
        BYTE                   Dn3
        BYTE   W12
        BYTE                   An3
        BYTE   W06
// 034   ----------------------------------------
        BYTE   PATT
         POIN2  cvaostopfloor_0_31
// 035   ----------------------------------------
        BYTE   PATT
         POIN2  cvaostopfloor_0_32
// 036   ----------------------------------------
        BYTE   W06
        BYTE           VOICE   79
        BYTE           N05     Gn3   v072
        BYTE   W06
        BYTE                   As3
        BYTE   W06
        BYTE                   Dn4
        BYTE   W06
        BYTE                   Gn4   v060
        BYTE   W06
        BYTE                   As3   v072
        BYTE   W06
        BYTE                   Dn4
        BYTE   W06
        BYTE                   Gn4   v060
        BYTE   W06
        BYTE                   As4
        BYTE   W06
        BYTE                   Dn4   v072
        BYTE   W06
        BYTE                   Gn4   v060
        BYTE   W06
        BYTE                   As4
        BYTE   W06
        BYTE                   Dn5   v052
        BYTE   W06
        BYTE                   Gn4   v060
        BYTE   W06
        BYTE                   As4
        BYTE   W06
        BYTE                   Dn5   v052
        BYTE   W06
// 037   ----------------------------------------
cvaostopfloor_0_37:
        BYTE           N05     Gn5   v052
        BYTE   W06
        BYTE                   As5
        BYTE   W06
        BYTE                   Gn5
        BYTE   W06
        BYTE                   Dn5
        BYTE   W06
        BYTE                   As4   v060
        BYTE   W06
        BYTE                   Gn5   v052
        BYTE   W06
        BYTE                   Dn5
        BYTE   W06
        BYTE                   As4   v060
        BYTE   W06
        BYTE                   Gn4
        BYTE   W06
        BYTE                   Dn5   v052
        BYTE   W06
        BYTE                   As4   v060
        BYTE   W06
        BYTE                   Gn4
        BYTE   W06
        BYTE                   Dn4   v072
        BYTE   W06
        BYTE                   As4   v060
        BYTE   W06
        BYTE                   Gn4
        BYTE   W06
        BYTE                   Dn4   v072
        BYTE   W06
        BYTE   PEND
// 038   ----------------------------------------
        BYTE                   As3
        BYTE   W06
        BYTE                   Fs3
        BYTE   W06
        BYTE                   As3
        BYTE   W06
        BYTE                   Ds4
        BYTE   W06
        BYTE                   Fs4   v060
        BYTE   W06
        BYTE                   As3   v072
        BYTE   W06
        BYTE                   Ds4
        BYTE   W06
        BYTE                   Fs4   v060
        BYTE   W06
        BYTE                   As4
        BYTE   W06
        BYTE                   Ds4   v072
        BYTE   W06
        BYTE                   Fs4   v060
        BYTE   W06
        BYTE                   As4
        BYTE   W06
        BYTE                   Ds5   v052
        BYTE   W06
        BYTE                   Fs4   v060
        BYTE   W06
        BYTE                   As4
        BYTE   W06
        BYTE                   Ds5   v052
        BYTE   W06
// 039   ----------------------------------------
        BYTE                   Fs5
        BYTE   W06
        BYTE                   As5
        BYTE   W06
        BYTE                   Fs5
        BYTE   W06
        BYTE                   Ds5
        BYTE   W06
        BYTE                   As4   v060
        BYTE   W06
        BYTE                   Fs5   v052
        BYTE   W06
        BYTE                   Ds5
        BYTE   W06
        BYTE                   As4   v060
        BYTE   W06
        BYTE                   Fs4
        BYTE   W06
        BYTE                   Ds5   v052
        BYTE   W06
        BYTE                   As4   v060
        BYTE   W06
        BYTE                   Fs4
        BYTE   W06
        BYTE                   Ds4   v072
        BYTE   W06
        BYTE                   Cn5   v052
        BYTE   W06
        BYTE                   Fs4   v060
        BYTE   W06
        BYTE                   Ds4   v072
        BYTE   W06
// 040   ----------------------------------------
        BYTE                   Cn4
        BYTE   W06
        BYTE                   Gn3
        BYTE   W06
        BYTE                   As3
        BYTE   W06
        BYTE                   Dn4
        BYTE   W06
        BYTE                   Gn4   v060
        BYTE   W06
        BYTE                   As3   v072
        BYTE   W06
        BYTE                   Dn4
        BYTE   W06
        BYTE                   Gn4   v060
        BYTE   W06
        BYTE                   As4
        BYTE   W06
        BYTE                   Dn4   v072
        BYTE   W06
        BYTE                   Gn4   v060
        BYTE   W06
        BYTE                   As4
        BYTE   W06
        BYTE                   Dn5   v052
        BYTE   W06
        BYTE                   Gn4   v060
        BYTE   W06
        BYTE                   As4
        BYTE   W06
        BYTE                   Dn5   v052
        BYTE   W06
// 041   ----------------------------------------
        BYTE   PATT
         POIN2  cvaostopfloor_0_37
// 042   ----------------------------------------
        BYTE           N05     As3   v072
        BYTE   W06
        BYTE                   Fn3
        BYTE   W06
        BYTE                   As3
        BYTE   W06
        BYTE                   Cs4
        BYTE   W06
        BYTE                   Fn4   v060
        BYTE   W06
        BYTE                   As3   v072
        BYTE   W06
        BYTE                   Cs4
        BYTE   W06
        BYTE                   Fn4   v060
        BYTE   W06
        BYTE                   As4
        BYTE   W06
        BYTE                   Cs4   v072
        BYTE   W06
        BYTE                   Fn4   v060
        BYTE   W06
        BYTE                   As4
        BYTE   W06
        BYTE                   Cs5   v052
        BYTE   W06
        BYTE                   Fn4   v060
        BYTE   W06
        BYTE                   As4
        BYTE   W06
        BYTE                   Cs5   v052
        BYTE   W06
// 043   ----------------------------------------
        BYTE                   Fn5
        BYTE   W06
        BYTE                   As5
        BYTE   W06
        BYTE                   Fn5
        BYTE   W06
        BYTE                   Cs5
        BYTE   W06
        BYTE                   As4   v060
        BYTE   W06
        BYTE                   Fn5   v052
        BYTE   W06
        BYTE                   Cs5
        BYTE   W06
        BYTE                   As4   v060
        BYTE   W06
        BYTE                   Fn4
        BYTE   W06
        BYTE                   Cs5   v052
        BYTE   W06
        BYTE                   As4   v060
        BYTE   W06
        BYTE                   Fn4
        BYTE   W06
        BYTE                   Cs4   v072
        BYTE   W06
        BYTE                   As4   v060
        BYTE   W06
        BYTE                   Fn4
        BYTE   W06
        BYTE                   Cs4   v072
        BYTE   W06
// 044   ----------------------------------------
        BYTE                   As3
        BYTE   W06
        BYTE           VOICE   19
        BYTE   W24
        BYTE           N68     An2   v080   gtp3
        BYTE   W66
// 045   ----------------------------------------
        BYTE   W06
        BYTE           N44     Bn2   v080   gtp3
        BYTE   W48
        BYTE                   Cn3
        BYTE   W42
// 046   ----------------------------------------
        BYTE   W06
        BYTE           N23     Gn2
        BYTE   W24
        BYTE           N44     Cn3   v080   gtp3
        BYTE   W48
        BYTE           N23     Dn3
        BYTE   W18
// 047   ----------------------------------------
        BYTE   W06
        BYTE                   Ds3
        BYTE   W24
        BYTE           N11     Dn3
        BYTE   W12
        BYTE                   Ds3
        BYTE   W12
        BYTE                   As2
        BYTE   W12
        BYTE                   Ds3
        BYTE   W12
        BYTE                   Fs2
        BYTE   W12
        BYTE                   As2
        BYTE   W06
// 048   ----------------------------------------
        BYTE   W06
        BYTE                   Ds3
        BYTE   W12
        BYTE                   As2
        BYTE   W12
        BYTE                   Ds3
        BYTE   W12
        BYTE                   Fn3
        BYTE   W12
        BYTE           N23     Fs3
        BYTE   W24
        BYTE           N11     Cs3
        BYTE   W12
        BYTE                   Fs3
        BYTE   W06
// 049   ----------------------------------------
        BYTE   W06
        BYTE                   An2
        BYTE   W12
        BYTE                   Cs3
        BYTE   W12
        BYTE                   Fs2
        BYTE   W12
        BYTE                   An2
        BYTE   W12
        BYTE                   Cs3
        BYTE   W12
        BYTE                   Fs3
        BYTE   W12
        BYTE                   Gs3
        BYTE   W12
        BYTE                   Bn3
        BYTE   W06
// 050   ----------------------------------------
        BYTE   W06
        BYTE           N44     Cn4   v080   gtp3
        BYTE   W48
        BYTE                   An3
        BYTE   W42
// 051   ----------------------------------------
cvaostopfloor_0_51:
        BYTE   W06
        BYTE           N44     En3   v080   gtp3
        BYTE   W48
        BYTE                   Cn3
        BYTE   W42
        BYTE   PEND
// 052   ----------------------------------------
        BYTE   PATT
         POIN2  cvaostopfloor_0_51
// 053   ----------------------------------------
        BYTE   W06
        BYTE           N44     An2   v080   gtp3
        BYTE   W48
        BYTE                   En2
        BYTE   W42
// 054   ----------------------------------------
        BYTE   W06
        BYTE           VOICE   1
        BYTE   GoTo
         POIN2  cvaostopfloor_0_LOOP
        BYTE   FINE

//****************** Track 1 (Midi-Chn.1) ******************//

cvaostopfloor_1:
        BYTE   KEYSH   cvaostopfloor_key+0
// 000   ----------------------------------------
        BYTE           VOICE   19
        BYTE           VOL     39
        BYTE   W06
        BYTE           MOD     1
        BYTE           N92     En4   v060   gtp3
        BYTE   W48
        BYTE           N44     Bn3   v068   gtp3
        BYTE   W42
// 001   ----------------------------------------
        BYTE   W06
        BYTE                   As3
        BYTE           N44     Ds4   v060   gtp3
        BYTE   W48
        BYTE                   An3   v068
        BYTE           N44     Fs4   v060   gtp3
        BYTE   W42
// 002   ----------------------------------------
        BYTE   W06
        BYTE           N92     En4   v052   gtp3
        BYTE   W48
        BYTE           N44     Bn3   v056   gtp3
        BYTE   W42
// 003   ----------------------------------------
        BYTE   W06
        BYTE                   As3
        BYTE           N44     Ds4   v052   gtp3
        BYTE   W48
        BYTE                   An3   v056
        BYTE           N44     Dn4   v052   gtp3
        BYTE   W42
// 004   ----------------------------------------
        BYTE   W06
        BYTE           TIE     Cs4   v048
        BYTE   W90
// 005   ----------------------------------------
        BYTE   W96
// 006   ----------------------------------------
        BYTE           EOT
        BYTE           VOICE   1
        BYTE   W06
        BYTE           N14     Cs4   v060
        BYTE           N14     En4
        BYTE   W24
        BYTE                   Cs4
        BYTE           N14     En4
        BYTE   W18
        BYTE           N10     Cs4   v052
        BYTE           N10     En4
        BYTE   W18
        BYTE           N15     Cs4   v060
        BYTE           N15     En4
        BYTE   W18
        BYTE           N16     Cs4
        BYTE           N16     Fs4
        BYTE   W12
// 007   ----------------------------------------
cvaostopfloor_1_7:
        BYTE   W06
        BYTE           N14     Cs4   v060
        BYTE           N14     En4
        BYTE   W24
        BYTE                   Cs4
        BYTE           N14     En4
        BYTE   W18
        BYTE           N10     Cs4   v052
        BYTE           N10     En4
        BYTE   W18
        BYTE           N15     Cs4   v060
        BYTE           N15     En4
        BYTE   W18
        BYTE           N16     Cn4
        BYTE           N16     Ds4
        BYTE   W12
        BYTE   PEND
// 008   ----------------------------------------
        BYTE   W06
        BYTE           N14     Cs4
        BYTE           N14     En4
        BYTE   W24
        BYTE                   Cs4
        BYTE           N14     En4
        BYTE   W18
        BYTE           N10     Cs4   v052
        BYTE           N10     En4
        BYTE   W18
        BYTE           N15     Cs4   v060
        BYTE           N15     En4
        BYTE   W18
        BYTE           N16     Cs4
        BYTE           N16     Fs4
        BYTE   W12
// 009   ----------------------------------------
        BYTE   PATT
         POIN2  cvaostopfloor_1_7
// 010   ----------------------------------------
        BYTE   W06
cvaostopfloor_1_LOOP:
        BYTE           N14     Cs4   v064
        BYTE           N14     En4
        BYTE   W24
        BYTE                   Cs4
        BYTE           N14     En4
        BYTE   W18
        BYTE           N10     Cs4   v056
        BYTE           N10     En4
        BYTE   W18
        BYTE           N15     Cs4   v064
        BYTE           N15     En4
        BYTE   W18
        BYTE           N16     Cs4
        BYTE           N16     En4
        BYTE   W12
// 011   ----------------------------------------
        BYTE   W06
        BYTE           N14     Cs4
        BYTE           N14     En4
        BYTE   W24
        BYTE                   Cs4
        BYTE           N14     En4
        BYTE   W18
        BYTE           N10     Cs4   v056
        BYTE           N10     En4
        BYTE   W18
        BYTE           N15     Cs4   v064
        BYTE           N15     En4
        BYTE   W18
        BYTE           N16     Cs4
        BYTE           N16     En4
        BYTE   W12
// 012   ----------------------------------------
        BYTE   W06
        BYTE           N14     Cn4
        BYTE           N14     En4
        BYTE   W24
        BYTE                   Cn4
        BYTE           N14     En4
        BYTE   W18
        BYTE           N10     Cn4   v056
        BYTE           N10     En4
        BYTE   W18
        BYTE           N15     Cn4   v064
        BYTE           N15     En4
        BYTE   W18
        BYTE           N16     Cn4
        BYTE           N16     En4
        BYTE   W12
// 013   ----------------------------------------
        BYTE   W06
        BYTE           N14     Cs4
        BYTE           N14     En4
        BYTE   W24
        BYTE                   Cs4
        BYTE           N14     En4
        BYTE   W18
        BYTE           N10     Cs4   v056
        BYTE           N10     En4
        BYTE   W18
        BYTE           N32     Gs3   v072   gtp2
        BYTE                   Ds4   v064
        BYTE   W30
// 014   ----------------------------------------
        BYTE   W06
        BYTE           N14     Cs4
        BYTE           N14     En4
        BYTE   W24
        BYTE                   Cs4
        BYTE           N14     En4
        BYTE   W18
        BYTE           N10     Cs4   v056
        BYTE           N10     En4
        BYTE   W18
        BYTE           N15     Cs4   v064
        BYTE           N15     En4
        BYTE   W18
        BYTE           N16     Ds4
        BYTE           N16     Fs4
        BYTE   W12
// 015   ----------------------------------------
        BYTE   W06
        BYTE           N14     Cs4
        BYTE           N14     En4
        BYTE   W24
        BYTE                   Cs4
        BYTE           N14     En4
        BYTE   W18
        BYTE           N10     Cs4   v056
        BYTE           N10     En4
        BYTE   W18
        BYTE           N15     Cs4   v064
        BYTE           N15     En4
        BYTE   W18
        BYTE           N16     Gs3
        BYTE           N16     En4
        BYTE   W12
// 016   ----------------------------------------
        BYTE   W06
        BYTE           N14     Gn3
        BYTE           N14     En4
        BYTE   W24
        BYTE                   Gn3
        BYTE           N14     En4
        BYTE   W18
        BYTE           N10     Gn3   v056
        BYTE           N10     En4
        BYTE   W18
        BYTE           N15     Gn3   v064
        BYTE           N15     En4
        BYTE   W18
        BYTE           N16     An3
        BYTE           N16     Fs4
        BYTE   W12
// 017   ----------------------------------------
        BYTE   W06
        BYTE           N14     Gn3
        BYTE           N14     En4
        BYTE   W24
        BYTE                   Gn3
        BYTE           N14     En4
        BYTE   W18
        BYTE           N10     Gn3   v056
        BYTE           N10     En4
        BYTE   W18
        BYTE           N15     Gn3   v064
        BYTE           N15     En4
        BYTE   W18
        BYTE           N16     Fs3
        BYTE           N16     Ds4
        BYTE   W12
// 018   ----------------------------------------
        BYTE   W06
        BYTE           N14     Gn3   v084
        BYTE           N14     As3
        BYTE   W24
        BYTE                   Gn3
        BYTE           N14     As3
        BYTE   W18
        BYTE           N10     Gn3   v072
        BYTE           N10     As3
        BYTE   W18
        BYTE           N15     Gn3   v084
        BYTE           N15     As3
        BYTE   W18
        BYTE           N16     An3
        BYTE           N16     Cn4
        BYTE   W12
// 019   ----------------------------------------
        BYTE   W06
        BYTE           N14     Gn3
        BYTE           N14     As3
        BYTE   W24
        BYTE                   Gn3
        BYTE           N14     As3
        BYTE   W18
        BYTE           N10     Gn3   v072
        BYTE           N10     As3
        BYTE   W18
        BYTE           N15     Gn3   v084
        BYTE           N15     As3
        BYTE   W18
        BYTE           N16     Gn3
        BYTE           N16     As3
        BYTE   W12
// 020   ----------------------------------------
        BYTE   W06
        BYTE           N14     Fs3   v092
        BYTE           N14     As3   v084
        BYTE   W24
        BYTE                   Fs3   v092
        BYTE           N14     As3   v084
        BYTE   W18
        BYTE           N10     Fs3
        BYTE           N10     As3   v072
        BYTE   W18
        BYTE           N15     Fs3   v092
        BYTE           N15     As3   v084
        BYTE   W18
        BYTE           N16     Gs3
        BYTE           N16     Bn3
        BYTE   W12
// 021   ----------------------------------------
        BYTE   W06
        BYTE           N14     Fs3   v092
        BYTE           N14     As3   v084
        BYTE   W24
        BYTE                   Fs3   v092
        BYTE           N14     As3   v084
        BYTE   W18
        BYTE           N10     Fs3
        BYTE           N10     As3   v072
        BYTE   W18
        BYTE           N15     Fs3   v092
        BYTE           N15     An3   v084
        BYTE   W18
        BYTE           N20     Fs3   v092
        BYTE           N20     An3   v084
        BYTE   W12
// 022   ----------------------------------------
        BYTE   W06
        BYTE           VOICE   79
        BYTE           PAN     c_v-10
        BYTE           BEND    c_v-2
        BYTE   W12
        BYTE           N05     Dn3   v040
        BYTE   W06
        BYTE                   Fn3
        BYTE   W06
        BYTE                   An3
        BYTE   W06
        BYTE                   Dn4
        BYTE   W06
        BYTE                   Fn3
        BYTE   W06
        BYTE                   An3
        BYTE   W06
        BYTE                   Dn4
        BYTE   W06
        BYTE                   Fn4
        BYTE   W06
        BYTE                   An3
        BYTE   W06
        BYTE                   Dn4
        BYTE   W06
        BYTE                   Fn4
        BYTE   W06
        BYTE                   An4
        BYTE   W06
        BYTE                   Dn4
        BYTE   W06
// 023   ----------------------------------------
cvaostopfloor_1_23:
        BYTE           N05     Fn4   v040
        BYTE   W06
        BYTE                   An4
        BYTE   W06
        BYTE                   Dn5   v032
        BYTE   W06
        BYTE                   Gn5
        BYTE   W06
        BYTE                   Dn5
        BYTE   W06
        BYTE                   As4   v040
        BYTE   W06
        BYTE                   Gn4
        BYTE   W06
        BYTE                   Dn5   v032
        BYTE   W06
        BYTE                   As4   v040
        BYTE   W06
        BYTE                   Gn4
        BYTE   W06
        BYTE                   Dn4
        BYTE   W06
        BYTE                   As4
        BYTE   W06
        BYTE                   Gn4
        BYTE   W06
        BYTE                   Dn4
        BYTE   W06
        BYTE                   As3
        BYTE   W06
        BYTE                   Gn4
        BYTE   W06
        BYTE   PEND
// 024   ----------------------------------------
cvaostopfloor_1_24:
        BYTE           N05     Dn4   v040
        BYTE   W06
        BYTE                   As3
        BYTE   W06
        BYTE                   Gn3
        BYTE   W06
        BYTE                   Fn3
        BYTE   W06
        BYTE                   An3
        BYTE   W06
        BYTE                   Dn4
        BYTE   W06
        BYTE                   Fn4
        BYTE   W06
        BYTE                   An3
        BYTE   W06
        BYTE                   Dn4
        BYTE   W06
        BYTE                   Fn4
        BYTE   W06
        BYTE                   An4
        BYTE   W06
        BYTE                   Dn4
        BYTE   W06
        BYTE                   Fn4
        BYTE   W06
        BYTE                   An4
        BYTE   W06
        BYTE                   Dn5   v032
        BYTE   W06
        BYTE                   Fn4   v040
        BYTE   W06
        BYTE   PEND
// 025   ----------------------------------------
        BYTE                   An4
        BYTE   W06
        BYTE                   Dn5   v032
        BYTE   W06
        BYTE                   Fn5
        BYTE   W06
        BYTE                   Dn5
        BYTE   W06
        BYTE                   As4   v040
        BYTE   W06
        BYTE                   Gn4
        BYTE   W06
        BYTE                   Dn4
        BYTE   W06
        BYTE                   As4
        BYTE   W06
        BYTE                   Gn4
        BYTE   W06
        BYTE                   Dn4
        BYTE   W06
        BYTE                   As3
        BYTE   W06
        BYTE                   Cs5   v032
        BYTE   W06
        BYTE                   An4   v040
        BYTE   W06
        BYTE                   Fs4
        BYTE   W06
        BYTE                   Cs4
        BYTE   W06
        BYTE                   An4
        BYTE   W06
// 026   ----------------------------------------
        BYTE                   Fs4
        BYTE   W06
        BYTE                   Cs4
        BYTE   W06
        BYTE                   An3
        BYTE   W06
        BYTE                   Dn3
        BYTE   W06
        BYTE                   Fn3
        BYTE   W06
        BYTE                   An3
        BYTE   W06
        BYTE                   Dn4
        BYTE   W06
        BYTE                   Fn3
        BYTE   W06
        BYTE                   An3
        BYTE   W06
        BYTE                   Dn4
        BYTE   W06
        BYTE                   Fn4
        BYTE   W06
        BYTE                   An3
        BYTE   W06
        BYTE                   Dn4
        BYTE   W06
        BYTE                   Fn4
        BYTE   W06
        BYTE                   An4
        BYTE   W06
        BYTE                   Dn4
        BYTE   W06
// 027   ----------------------------------------
        BYTE   PATT
         POIN2  cvaostopfloor_1_23
// 028   ----------------------------------------
        BYTE   PATT
         POIN2  cvaostopfloor_1_24
// 029   ----------------------------------------
        BYTE           N05     An4   v040
        BYTE   W06
        BYTE                   Dn5   v032
        BYTE   W06
        BYTE                   Fn5
        BYTE   W06
        BYTE                   An5
        BYTE   W06
        BYTE                   Fn5
        BYTE   W06
        BYTE                   Dn5
        BYTE   W06
        BYTE                   An4   v040
        BYTE   W06
        BYTE                   Fn5   v032
        BYTE   W06
        BYTE                   Dn5
        BYTE   W06
        BYTE                   An4   v040
        BYTE   W06
        BYTE                   Fn4
        BYTE   W06
        BYTE                   Dn5   v032
        BYTE   W06
        BYTE                   An4   v040
        BYTE   W06
        BYTE                   Fn4
        BYTE   W06
        BYTE                   Dn4
        BYTE   W06
        BYTE                   An4
        BYTE   W06
// 030   ----------------------------------------
        BYTE                   Fn4
        BYTE   W06
        BYTE           BEND    c_v+1
        BYTE           VOICE   41
        BYTE           PAN     c_v+0
        BYTE           N11     Gn2   v052
        BYTE   W12
        BYTE                   Dn4   v088
        BYTE   W12
        BYTE                   Fn4
        BYTE   W12
        BYTE           N05     Cn4
        BYTE   W06
        BYTE           N17     Gs4
        BYTE   W18
        BYTE           N11     Ds4
        BYTE   W12
        BYTE                   Gn3
        BYTE   W12
        BYTE                   Dn4
        BYTE   W06
// 031   ----------------------------------------
cvaostopfloor_1_31:
        BYTE   W06
        BYTE           N11     Fn4   v088
        BYTE   W12
        BYTE           N05     Cn4
        BYTE   W06
        BYTE           N17     Gs4
        BYTE   W18
        BYTE           N12     Ds4
        BYTE   W54
        BYTE   PEND
// 032   ----------------------------------------
        BYTE   W96
// 033   ----------------------------------------
        BYTE   W06
        BYTE           N11     Gn3
        BYTE   W12
        BYTE                   Dn4
        BYTE   W12
        BYTE                   Fn4
        BYTE   W12
        BYTE           N05     Cn4
        BYTE   W06
        BYTE           N17     Gs4
        BYTE   W18
        BYTE           N11     Ds4
        BYTE   W12
        BYTE                   Gn3
        BYTE   W12
        BYTE                   Dn4
        BYTE   W06
// 034   ----------------------------------------
        BYTE   PATT
         POIN2  cvaostopfloor_1_31
// 035   ----------------------------------------
        BYTE   W96
// 036   ----------------------------------------
        BYTE   W06
        BYTE           VOICE   79
        BYTE           PAN     c_v-10
        BYTE   W12
        BYTE           N05     Gn3   v040
        BYTE   W06
        BYTE                   As3
        BYTE   W06
        BYTE                   Dn4
        BYTE   W06
        BYTE                   Gn4
        BYTE   W06
        BYTE                   As3
        BYTE   W06
        BYTE                   Dn4
        BYTE   W06
        BYTE                   Gn4
        BYTE   W06
        BYTE                   As4
        BYTE   W06
        BYTE                   Dn4
        BYTE   W06
        BYTE                   Gn4
        BYTE   W06
        BYTE                   As4
        BYTE   W06
        BYTE                   Dn5   v032
        BYTE   W06
        BYTE                   Gn4   v040
        BYTE   W06
// 037   ----------------------------------------
cvaostopfloor_1_37:
        BYTE           N05     As4   v040
        BYTE   W06
        BYTE                   Dn5   v032
        BYTE   W06
        BYTE                   Gn5
        BYTE   W06
        BYTE                   As5
        BYTE   W06
        BYTE                   Gn5
        BYTE   W06
        BYTE                   Dn5
        BYTE   W06
        BYTE                   As4   v040
        BYTE   W06
        BYTE                   Gn5   v032
        BYTE   W06
        BYTE                   Dn5
        BYTE   W06
        BYTE                   As4   v040
        BYTE   W06
        BYTE                   Gn4
        BYTE   W06
        BYTE                   Dn5   v032
        BYTE   W06
        BYTE                   As4   v040
        BYTE   W06
        BYTE                   Gn4
        BYTE   W06
        BYTE                   Dn4
        BYTE   W06
        BYTE                   As4
        BYTE   W06
        BYTE   PEND
// 038   ----------------------------------------
        BYTE                   Gn4
        BYTE   W06
        BYTE                   Dn4
        BYTE   W06
        BYTE                   As3
        BYTE   W06
        BYTE                   Fs3
        BYTE   W06
        BYTE                   As3
        BYTE   W06
        BYTE                   Ds4
        BYTE   W06
        BYTE                   Fs4
        BYTE   W06
        BYTE                   As3
        BYTE   W06
        BYTE                   Ds4
        BYTE   W06
        BYTE                   Fs4
        BYTE   W06
        BYTE                   As4
        BYTE   W06
        BYTE                   Ds4
        BYTE   W06
        BYTE                   Fs4
        BYTE   W06
        BYTE                   As4
        BYTE   W06
        BYTE                   Ds5   v032
        BYTE   W06
        BYTE                   Fs4   v040
        BYTE   W06
// 039   ----------------------------------------
        BYTE                   As4
        BYTE   W06
        BYTE                   Ds5   v032
        BYTE   W06
        BYTE                   Fs5
        BYTE   W06
        BYTE                   As5
        BYTE   W06
        BYTE                   Fs5
        BYTE   W06
        BYTE                   Ds5
        BYTE   W06
        BYTE                   As4   v040
        BYTE   W06
        BYTE                   Fs5   v032
        BYTE   W06
        BYTE                   Ds5
        BYTE   W06
        BYTE                   As4   v040
        BYTE   W06
        BYTE                   Fs4
        BYTE   W06
        BYTE                   Ds5   v032
        BYTE   W06
        BYTE                   As4   v040
        BYTE   W06
        BYTE                   Fs4
        BYTE   W06
        BYTE                   Ds4
        BYTE   W06
        BYTE                   Cn5   v032
        BYTE   W06
// 040   ----------------------------------------
        BYTE                   Fs4   v040
        BYTE   W06
        BYTE                   Ds4
        BYTE   W06
        BYTE                   Cn4
        BYTE   W06
        BYTE                   Gn3
        BYTE   W06
        BYTE                   As3
        BYTE   W06
        BYTE                   Dn4
        BYTE   W06
        BYTE                   Gn4
        BYTE   W06
        BYTE                   As3
        BYTE   W06
        BYTE                   Dn4
        BYTE   W06
        BYTE                   Gn4
        BYTE   W06
        BYTE                   As4
        BYTE   W06
        BYTE                   Dn4
        BYTE   W06
        BYTE                   Gn4
        BYTE   W06
        BYTE                   As4
        BYTE   W06
        BYTE                   Dn5   v032
        BYTE   W06
        BYTE                   Gn4   v040
        BYTE   W06
// 041   ----------------------------------------
        BYTE   PATT
         POIN2  cvaostopfloor_1_37
// 042   ----------------------------------------
        BYTE           N05     Gn4   v040
        BYTE   W06
        BYTE                   Dn4
        BYTE   W06
        BYTE                   As3
        BYTE   W06
        BYTE                   Fn3
        BYTE   W06
        BYTE                   As3
        BYTE   W06
        BYTE                   Cs4
        BYTE   W06
        BYTE                   Fn4
        BYTE   W06
        BYTE                   As3
        BYTE   W06
        BYTE                   Cs4
        BYTE   W06
        BYTE                   Fn4
        BYTE   W06
        BYTE                   As4
        BYTE   W06
        BYTE                   Cs4
        BYTE   W06
        BYTE                   Fn4
        BYTE   W06
        BYTE                   As4
        BYTE   W06
        BYTE                   Cs5   v032
        BYTE   W06
        BYTE                   Fn4   v040
        BYTE   W06
// 043   ----------------------------------------
        BYTE                   As4
        BYTE   W06
        BYTE                   Cs5   v032
        BYTE   W06
        BYTE                   Fn5
        BYTE   W06
        BYTE                   As5
        BYTE   W06
        BYTE                   Fn5
        BYTE   W06
        BYTE                   Cs5
        BYTE   W06
        BYTE                   As4   v040
        BYTE   W06
        BYTE                   Fn5   v032
        BYTE   W06
        BYTE                   Cs5
        BYTE   W06
        BYTE                   As4   v040
        BYTE   W06
        BYTE                   Fn4
        BYTE   W06
        BYTE                   Cs5   v032
        BYTE   W06
        BYTE                   As4   v040
        BYTE   W06
        BYTE                   Fn4
        BYTE   W06
        BYTE                   Cs4
        BYTE   W06
        BYTE                   As4
        BYTE   W06
// 044   ----------------------------------------
        BYTE                   Fn4
        BYTE   W06
        BYTE           VOICE   1
        BYTE           BEND    c_v+0
        BYTE           N11     Cn4   v088
        BYTE   W12
        BYTE                   Cn3   v028
        BYTE   W12
        BYTE                   Cn3   v088
        BYTE   W12
        BYTE                   Cn3   v028
        BYTE   W12
        BYTE                   Bn2   v088
        BYTE   W12
        BYTE                   Bn2   v028
        BYTE   W12
        BYTE                   Cn3   v088
        BYTE   W12
        BYTE                   Cn3   v028
        BYTE   W06
// 045   ----------------------------------------
        BYTE   W06
        BYTE                   Cn3   v088
        BYTE   W12
        BYTE                   Cn3   v028
        BYTE   W12
        BYTE                   Dn3   v088
        BYTE   W12
        BYTE                   Dn3   v028
        BYTE   W12
        BYTE                   Ds3   v088
        BYTE   W12
        BYTE                   Ds3   v028
        BYTE   W12
        BYTE                   Ds3   v088
        BYTE   W12
        BYTE                   Ds3   v028
        BYTE   W06
// 046   ----------------------------------------
        BYTE   W06
        BYTE                   Dn3   v088
        BYTE   W12
        BYTE                   Dn3   v028
        BYTE   W12
        BYTE                   Ds3   v088
        BYTE   W12
        BYTE                   Ds3   v028
        BYTE   W12
        BYTE                   Ds3   v088
        BYTE   W12
        BYTE                   Ds3   v028
        BYTE   W12
        BYTE                   Fn3   v088
        BYTE   W12
        BYTE                   Fn3   v028
        BYTE   W06
// 047   ----------------------------------------
        BYTE   W06
        BYTE                   Fs3   v088
        BYTE   W12
        BYTE                   Fs3   v028
        BYTE   W12
        BYTE                   Fs3   v088
        BYTE   W12
        BYTE                   Fs3   v028
        BYTE   W12
        BYTE                   Fn3   v088
        BYTE   W12
        BYTE                   Fn3   v028
        BYTE   W12
        BYTE                   Fs3   v088
        BYTE   W12
        BYTE                   Fs3   v028
        BYTE   W06
// 048   ----------------------------------------
        BYTE   W06
        BYTE                   Fs3   v088
        BYTE   W12
        BYTE                   Fs3   v028
        BYTE   W12
        BYTE                   Gs3   v088
        BYTE   W12
        BYTE                   Gs3   v028
        BYTE   W12
        BYTE                   An3   v088
        BYTE   W12
        BYTE                   An3   v028
        BYTE   W12
        BYTE                   An3   v088
        BYTE   W12
        BYTE                   An3   v028
        BYTE   W06
// 049   ----------------------------------------
        BYTE   W06
        BYTE                   Gs3   v088
        BYTE   W12
        BYTE                   Gs3   v028
        BYTE   W12
        BYTE                   An3   v088
        BYTE   W12
        BYTE                   An3   v028
        BYTE   W12
        BYTE                   An3   v088
        BYTE   W12
        BYTE                   An3   v028
        BYTE   W12
        BYTE                   Bn3   v088
        BYTE   W12
        BYTE                   Bn3   v028
        BYTE   W06
// 050   ----------------------------------------
        BYTE   W06
        BYTE           N14     Cn3   v076
        BYTE           N14     En3   v072
        BYTE   W24
        BYTE                   Cn4   v076
        BYTE           N14     En4   v072
        BYTE   W18
        BYTE           N10     Cn4   v068
        BYTE           N10     En4   v064
        BYTE   W18
        BYTE           N15     Cn4   v076
        BYTE           N15     En4   v072
        BYTE   W18
        BYTE           N16     Dn4   v076
        BYTE           N16     Fn4   v072
        BYTE   W12
// 051   ----------------------------------------
cvaostopfloor_1_51:
        BYTE   W06
        BYTE           N14     Cn4   v076
        BYTE           N14     En4   v072
        BYTE   W24
        BYTE                   Cn4   v076
        BYTE           N14     En4   v072
        BYTE   W18
        BYTE           N10     Cn4   v068
        BYTE           N10     En4   v064
        BYTE   W18
        BYTE           N15     Cn4   v076
        BYTE           N15     En4   v072
        BYTE   W18
        BYTE           N16     Bn3   v076
        BYTE           N16     En4   v072
        BYTE   W12
        BYTE   PEND
// 052   ----------------------------------------
        BYTE   W06
        BYTE           N14     Cn4   v076
        BYTE           N14     En4   v072
        BYTE   W24
        BYTE                   Cn4   v076
        BYTE           N14     En4   v072
        BYTE   W18
        BYTE           N10     Cn4   v068
        BYTE           N10     En4   v064
        BYTE   W18
        BYTE           N15     Cn4   v076
        BYTE           N15     En4   v072
        BYTE   W18
        BYTE           N16     Dn4   v076
        BYTE           N16     Fn4   v072
        BYTE   W12
// 053   ----------------------------------------
        BYTE   PATT
         POIN2  cvaostopfloor_1_51
// 054   ----------------------------------------
        BYTE   W06
        BYTE           PAN     c_v+0
        BYTE   GoTo
         POIN2  cvaostopfloor_1_LOOP
        BYTE   FINE

//****************** Track 2 (Midi-Chn.2) ******************//

cvaostopfloor_2:
        BYTE   KEYSH   cvaostopfloor_key+0
// 000   ----------------------------------------
        BYTE           VOICE   49
        BYTE           VOL     50
        BYTE   W06
        BYTE           MOD     1
        BYTE   W90
// 001   ----------------------------------------
        BYTE   W96
// 002   ----------------------------------------
        BYTE   W96
// 003   ----------------------------------------
        BYTE   W96
// 004   ----------------------------------------
        BYTE   W96
// 005   ----------------------------------------
        BYTE   W96
// 006   ----------------------------------------
        BYTE   W96
// 007   ----------------------------------------
        BYTE   W96
// 008   ----------------------------------------
        BYTE   W96
// 009   ----------------------------------------
        BYTE   W96
// 010   ----------------------------------------
        BYTE   W06
cvaostopfloor_2_LOOP:
        BYTE           N92     Gs3   v112   gtp3
        BYTE   W90
// 011   ----------------------------------------
        BYTE   W06
        BYTE           N23     Fs3
        BYTE   W24
        BYTE                   En3
        BYTE   W24
        BYTE                   Ds3
        BYTE   W24
        BYTE                   Cs3
        BYTE   W18
// 012   ----------------------------------------
        BYTE   W06
        BYTE                   En3
        BYTE   W36
        BYTE           N11     An2
        BYTE   W12
        BYTE           N92     En3   v112   gtp3
        BYTE   W42
// 013   ----------------------------------------
        BYTE   W54
        BYTE           N44     Fs3   v112   gtp3
        BYTE   W42
// 014   ----------------------------------------
        BYTE   W06
        BYTE           N68     Gs3   v112   gtp3
        BYTE   W72
        BYTE           N23     Cs4   v108
        BYTE   W18
// 015   ----------------------------------------
        BYTE   W06
        BYTE                   Ds4   v100
        BYTE   W24
        BYTE                   En4
        BYTE   W24
        BYTE                   Ds4
        BYTE   W24
        BYTE                   Cs4   v108
        BYTE   W18
// 016   ----------------------------------------
        BYTE   W06
        BYTE                   Bn3   v112
        BYTE   W36
        BYTE           N11     En3
        BYTE   W12
        BYTE           TIE     Bn3
        BYTE   W42
// 017   ----------------------------------------
        BYTE   W92
        BYTE   W03
        BYTE           EOT
        BYTE   W01
// 018   ----------------------------------------
        BYTE   W06
        BYTE           N92     Dn4   v100   gtp3
        BYTE   W90
// 019   ----------------------------------------
        BYTE   W06
        BYTE           N23     Cn4   v108
        BYTE   W24
        BYTE                   As3   v112
        BYTE   W24
        BYTE                   An3
        BYTE   W24
        BYTE                   Gn3
        BYTE   W18
// 020   ----------------------------------------
cvaostopfloor_2_20:
        BYTE   W06
        BYTE           N23     As3   v112
        BYTE   W36
        BYTE           N11     Ds3
        BYTE   W12
        BYTE           N92     As3   v112   gtp3
        BYTE   W42
        BYTE   PEND
// 021   ----------------------------------------
        BYTE   W54
        BYTE           N44     Cs4   v112   gtp3
        BYTE   W42
// 022   ----------------------------------------
cvaostopfloor_2_22:
        BYTE   W06
        BYTE           N92     An3   v112   gtp3
        BYTE   W90
        BYTE   PEND
// 023   ----------------------------------------
cvaostopfloor_2_23:
        BYTE   W06
        BYTE           N44     As3   v112   gtp3
        BYTE   W48
        BYTE                   Gn3
        BYTE   W42
        BYTE   PEND
// 024   ----------------------------------------
        BYTE   PATT
         POIN2  cvaostopfloor_2_22
// 025   ----------------------------------------
        BYTE   W06
        BYTE           N44     Dn4   v112   gtp3
        BYTE   W48
        BYTE                   Cs4
        BYTE   W42
// 026   ----------------------------------------
        BYTE   PATT
         POIN2  cvaostopfloor_2_22
// 027   ----------------------------------------
        BYTE   PATT
         POIN2  cvaostopfloor_2_23
// 028   ----------------------------------------
        BYTE   PATT
         POIN2  cvaostopfloor_2_22
// 029   ----------------------------------------
        BYTE   W06
        BYTE           N88     Dn3   v112   gtp1
        BYTE   W90
// 030   ----------------------------------------
        BYTE           VOICE   48
        BYTE   W06
        BYTE           N05     Gn3   v100
        BYTE   W12
        BYTE                   Gn3   v028
        BYTE   W12
        BYTE                   Fn4   v090
        BYTE   W12
        BYTE                   Fn4   v028
        BYTE   W12
        BYTE                   Gs4   v090
        BYTE   W12
        BYTE                   Gs4   v028
        BYTE   W12
        BYTE                   Gn3   v100
        BYTE   W12
        BYTE                   Gn3   v028
        BYTE   W06
// 031   ----------------------------------------
cvaostopfloor_2_31:
        BYTE   W06
        BYTE           N05     Fn4   v090
        BYTE   W12
        BYTE                   Fn4   v028
        BYTE   W12
        BYTE                   Gs4   v090
        BYTE   W12
        BYTE                   Gs4   v028
        BYTE   W12
        BYTE                   Dn5   v079
        BYTE   W12
        BYTE                   Dn5   v028
        BYTE   W12
        BYTE                   Dn5   v068
        BYTE   W12
        BYTE                   Dn5   v028
        BYTE   W06
        BYTE   PEND
// 032   ----------------------------------------
cvaostopfloor_2_32:
        BYTE   W06
        BYTE           N05     Gs4   v082
        BYTE   W12
        BYTE                   Gs4   v028
        BYTE   W12
        BYTE                   Dn5   v093
        BYTE   W12
        BYTE                   Dn5   v028
        BYTE   W12
        BYTE                   Dn5   v090
        BYTE   W12
        BYTE                   Dn5   v028
        BYTE   W12
        BYTE                   Gs4   v090
        BYTE   W12
        BYTE                   Gs4   v028
        BYTE   W06
        BYTE   PEND
// 033   ----------------------------------------
        BYTE   W06
        BYTE                   Gn3   v100
        BYTE   W12
        BYTE                   Gn3   v028
        BYTE   W12
        BYTE                   Fn4   v090
        BYTE   W12
        BYTE                   Fn4   v028
        BYTE   W12
        BYTE                   Gs4   v090
        BYTE   W12
        BYTE                   Gs4   v028
        BYTE   W12
        BYTE                   Gn3   v100
        BYTE   W12
        BYTE                   Gn3   v028
        BYTE   W06
// 034   ----------------------------------------
        BYTE   PATT
         POIN2  cvaostopfloor_2_31
// 035   ----------------------------------------
        BYTE   PATT
         POIN2  cvaostopfloor_2_32
// 036   ----------------------------------------
        BYTE           VOICE   49
        BYTE   W06
        BYTE           N92     Dn4   v112   gtp3
        BYTE   W90
// 037   ----------------------------------------
        BYTE   W06
        BYTE           N23     Cn4
        BYTE   W24
        BYTE                   As3
        BYTE   W24
        BYTE                   An3
        BYTE   W24
        BYTE                   Gn3
        BYTE   W18
// 038   ----------------------------------------
        BYTE   PATT
         POIN2  cvaostopfloor_2_20
// 039   ----------------------------------------
        BYTE   W54
        BYTE           N44     Cn4   v112   gtp3
        BYTE   W42
// 040   ----------------------------------------
        BYTE   W06
        BYTE           N68     Dn4   v112   gtp3
        BYTE   W72
        BYTE           N23     Gn4
        BYTE   W18
// 041   ----------------------------------------
        BYTE   W06
        BYTE                   An4
        BYTE   W24
        BYTE                   As4
        BYTE   W24
        BYTE                   An4
        BYTE   W24
        BYTE                   Gn4
        BYTE   W18
// 042   ----------------------------------------
        BYTE   W06
        BYTE                   Fn4
        BYTE   W36
        BYTE           N11     As3
        BYTE   W12
        BYTE           N92     Fn4   v112   gtp3
        BYTE   W42
// 043   ----------------------------------------
        BYTE   W54
        BYTE           N44     Gn4   v112   gtp3
        BYTE   W42
// 044   ----------------------------------------
        BYTE   W06
        BYTE           N05     En4   v100
        BYTE   W12
        BYTE                   En4   v032
        BYTE   W12
        BYTE                   En4   v100
        BYTE   W12
        BYTE                   En4   v032
        BYTE   W12
        BYTE                   Ds4   v100
        BYTE   W12
        BYTE                   Ds4   v032
        BYTE   W12
        BYTE                   En4   v100
        BYTE   W12
        BYTE                   En4   v032
        BYTE   W06
// 045   ----------------------------------------
        BYTE   W06
        BYTE                   En4   v100
        BYTE   W12
        BYTE                   En4   v032
        BYTE   W12
        BYTE                   Fs4   v100
        BYTE   W12
        BYTE                   Fs4   v032
        BYTE   W12
        BYTE                   Gn4   v100
        BYTE   W12
        BYTE                   Gn4   v032
        BYTE   W12
        BYTE                   Gn4   v100
        BYTE   W12
        BYTE                   Gn4   v032
        BYTE   W06
// 046   ----------------------------------------
        BYTE   W06
        BYTE                   Fs4   v100
        BYTE   W12
        BYTE                   Fs4   v032
        BYTE   W12
        BYTE                   Gn4   v100
        BYTE   W12
        BYTE                   Gn4   v032
        BYTE   W12
        BYTE                   Gn4   v100
        BYTE   W12
        BYTE                   Gn4   v032
        BYTE   W12
        BYTE                   An4   v100
        BYTE   W12
        BYTE                   An4   v032
        BYTE   W06
// 047   ----------------------------------------
        BYTE   W06
        BYTE                   As4   v100
        BYTE   W12
        BYTE                   As4   v032
        BYTE   W12
        BYTE                   As4   v100
        BYTE   W12
        BYTE                   As4   v032
        BYTE   W12
        BYTE                   An4   v100
        BYTE   W12
        BYTE                   An4   v032
        BYTE   W12
        BYTE                   As4   v100
        BYTE   W12
        BYTE                   As4   v032
        BYTE   W06
// 048   ----------------------------------------
        BYTE   W06
        BYTE                   As4   v100
        BYTE   W12
        BYTE                   As4   v032
        BYTE   W12
        BYTE                   Cn5   v100
        BYTE   W12
        BYTE                   Cn5   v032
        BYTE   W12
        BYTE                   Cs5   v100
        BYTE   W12
        BYTE                   Cs5   v032
        BYTE   W12
        BYTE                   Cs5   v100
        BYTE   W12
        BYTE                   Cs5   v032
        BYTE   W06
// 049   ----------------------------------------
        BYTE   W06
        BYTE                   Cn5   v100
        BYTE   W12
        BYTE                   Cn5   v032
        BYTE   W12
        BYTE                   Cs5   v100
        BYTE   W12
        BYTE                   Cs5   v032
        BYTE   W12
        BYTE                   Cs5   v100
        BYTE   W12
        BYTE                   Cs5   v032
        BYTE   W12
        BYTE                   Ds5   v100
        BYTE   W12
        BYTE                   Ds5   v032
        BYTE   W06
// 050   ----------------------------------------
        BYTE   W06
        BYTE                   En5   v100
        BYTE   W12
        BYTE                   En5   v032
        BYTE   W78
// 051   ----------------------------------------
        BYTE   W96
// 052   ----------------------------------------
        BYTE   W96
// 053   ----------------------------------------
        BYTE   W96
// 054   ----------------------------------------
        BYTE   W06
        BYTE   GoTo
         POIN2  cvaostopfloor_2_LOOP
        BYTE   FINE

//****************** Track 3 (Midi-Chn.3) ******************//

cvaostopfloor_3:
        BYTE   KEYSH   cvaostopfloor_key+0
// 000   ----------------------------------------
        BYTE           VOICE   47
        BYTE           VOL     50
        BYTE           PAN     c_v-15
        BYTE   W06
        BYTE           MOD     2
        BYTE   W72
        BYTE           N11     Cs3   v100
        BYTE   W12
        BYTE                   Cs3   v084
        BYTE   W06
// 001   ----------------------------------------
        BYTE   W06
        BYTE           N23     Cs3   v100
        BYTE   W24
        BYTE           N48
        BYTE   W66
// 002   ----------------------------------------
        BYTE   W78
        BYTE           N11
        BYTE   W12
        BYTE                   Cs3   v084
        BYTE   W06
// 003   ----------------------------------------
        BYTE   W06
        BYTE           N23     Cs3   v100
        BYTE   W24
        BYTE           N44     Cs3   v100   gtp3
        BYTE   W48
        BYTE           N23     Cs3   v084
        BYTE   W18
// 004   ----------------------------------------
        BYTE   W06
        BYTE           TIE     Cs3   v092
        BYTE   W90
// 005   ----------------------------------------
        BYTE   W28
        BYTE   W01
        BYTE           EOT
        BYTE   W01
        BYTE           VOICE   33
        BYTE           VOL     40
        BYTE           N11     Gs2   v088
        BYTE   W12
        BYTE           N05     Cs2   v092
        BYTE   W06
        BYTE           N11     Bn2   v088
        BYTE   W12
        BYTE           N05     Cs2   v076
        BYTE   W06
        BYTE           N11     As2   v088
        BYTE   W12
        BYTE                   Cs2   v092
        BYTE   W12
        BYTE                   An2   v088
        BYTE   W06
// 006   ----------------------------------------
cvaostopfloor_3_6:
        BYTE   W06
        BYTE           N09     Cs2   v092
        BYTE   W12
        BYTE           N07     Cs2   v068
        BYTE   W12
        BYTE           N09     Cs2   v092
        BYTE   W12
        BYTE           N07     Cs2   v068
        BYTE   W12
        BYTE           N09     Cs2   v092
        BYTE   W12
        BYTE           N07     Cs2   v068
        BYTE   W12
        BYTE           N09     Cs2   v092
        BYTE   W12
        BYTE           N07     Cs2   v068
        BYTE   W06
        BYTE   PEND
// 007   ----------------------------------------
        BYTE   W06
        BYTE           N09     Cs2   v092
        BYTE   W12
        BYTE           N10     Cs2   v068
        BYTE   W12
        BYTE           N11     Gs2   v088
        BYTE   W12
        BYTE           N05     Cs2   v092
        BYTE   W06
        BYTE           N11     Bn2   v088
        BYTE   W12
        BYTE           N05     Cs2   v092
        BYTE   W06
        BYTE           N11     As2   v088
        BYTE   W12
        BYTE                   Cs2   v092
        BYTE   W12
        BYTE                   Gs2   v088
        BYTE   W06
// 008   ----------------------------------------
        BYTE   PATT
         POIN2  cvaostopfloor_3_6
// 009   ----------------------------------------
        BYTE   W06
        BYTE           N09     Cs2   v092
        BYTE   W12
        BYTE           N10     Cs2   v068
        BYTE   W12
        BYTE           N11     Gs2   v088
        BYTE   W12
        BYTE           N05     Cs2   v092
        BYTE   W06
        BYTE           N11     Bn2   v088
        BYTE   W12
        BYTE           N05     Cs2   v092
        BYTE   W06
        BYTE           N23     As2   v088
        BYTE   W24
        BYTE           N09     Cs2   v092
        BYTE   W06
// 010   ----------------------------------------
        BYTE   W06
cvaostopfloor_3_LOOP:
        BYTE           N09     Cs2   v092
        BYTE   W12
        BYTE           N07     Cs2   v068
        BYTE   W12
        BYTE           N09     Cs2   v092
        BYTE   W12
        BYTE           N07     Cs2   v068
        BYTE   W12
        BYTE           N09     Cs2   v092
        BYTE   W12
        BYTE           N07     Cs2   v068
        BYTE   W12
        BYTE           N09     Cs2   v092
        BYTE   W12
        BYTE           N07     Cs2   v068
        BYTE   W06
// 011   ----------------------------------------
        BYTE   W06
        BYTE           N09     Cs2   v092
        BYTE   W12
        BYTE           N10     Cs2   v068
        BYTE   W12
        BYTE           N11     Gs2   v088
        BYTE   W12
        BYTE           N05     Cs2   v092
        BYTE   W06
        BYTE           N11     Bn2   v088
        BYTE   W12
        BYTE           N05     Cs2   v092
        BYTE   W06
        BYTE           N23     As2   v088
        BYTE   W24
        BYTE           N11     Cs2   v092
        BYTE   W06
// 012   ----------------------------------------
        BYTE   W06
        BYTE           N09     An2
        BYTE   W12
        BYTE           N07     An2   v068
        BYTE   W12
        BYTE           N09     An2   v092
        BYTE   W12
        BYTE           N07     An2   v068
        BYTE   W12
        BYTE           N09     An2   v092
        BYTE   W12
        BYTE           N07     An2   v068
        BYTE   W12
        BYTE           N09     An2   v092
        BYTE   W12
        BYTE           N07     An2   v068
        BYTE   W06
// 013   ----------------------------------------
        BYTE   W06
        BYTE           N09     Fs2   v092
        BYTE   W12
        BYTE           N07     Fs2   v068
        BYTE   W12
        BYTE           N11     Cs3   v092
        BYTE   W12
        BYTE           N05     Fs2
        BYTE   W06
        BYTE           N06     Gs2
        BYTE   W12
        BYTE           N04
        BYTE   W06
        BYTE           N11
        BYTE   W12
        BYTE                   Ds3
        BYTE   W12
        BYTE                   Gs2
        BYTE   W06
// 014   ----------------------------------------
        BYTE   PATT
         POIN2  cvaostopfloor_3_6
// 015   ----------------------------------------
        BYTE   W06
        BYTE           N09     Cs2   v092
        BYTE   W12
        BYTE           N07     Cs2   v068
        BYTE   W12
        BYTE           N11     Gs2   v092
        BYTE   W12
        BYTE           N05     Cs2
        BYTE   W06
        BYTE           N11     Bn2
        BYTE   W12
        BYTE           N05     Cs2
        BYTE   W06
        BYTE           N23     As2
        BYTE   W24
        BYTE           N11     Cs2
        BYTE   W06
// 016   ----------------------------------------
        BYTE   W06
        BYTE           N09     En2
        BYTE   W12
        BYTE           N07     En2   v068
        BYTE   W12
        BYTE           N09     En2   v092
        BYTE   W12
        BYTE           N07     En2   v068
        BYTE   W12
        BYTE           N09     En2   v092
        BYTE   W12
        BYTE           N07     En2   v068
        BYTE   W12
        BYTE           N09     En2   v092
        BYTE   W12
        BYTE           N07     En2   v068
        BYTE   W06
// 017   ----------------------------------------
        BYTE   W06
        BYTE           N09     En2   v092
        BYTE   W12
        BYTE           N07     En2   v068
        BYTE   W12
        BYTE           N11     Bn2   v092
        BYTE   W12
        BYTE           N05     En2
        BYTE   W06
        BYTE           N11     Dn3
        BYTE   W12
        BYTE           N05     En2
        BYTE   W06
        BYTE           N23     Bn2
        BYTE   W24
        BYTE           N11     En2
        BYTE   W06
// 018   ----------------------------------------
        BYTE   W06
        BYTE           N09     Gn2
        BYTE   W12
        BYTE           N07     Gn2   v068
        BYTE   W12
        BYTE           N09     Gn2   v092
        BYTE   W12
        BYTE           N07     Gn2   v068
        BYTE   W12
        BYTE           N09     Gn2   v092
        BYTE   W12
        BYTE           N07     Gn2   v068
        BYTE   W12
        BYTE           N09     Gn2   v092
        BYTE   W12
        BYTE           N07     Gn2   v068
        BYTE   W06
// 019   ----------------------------------------
        BYTE   W06
        BYTE           N09     Gn2   v092
        BYTE   W12
        BYTE           N07     Gn2   v068
        BYTE   W12
        BYTE           N11     Dn3   v092
        BYTE   W12
        BYTE           N05     Gn2
        BYTE   W06
        BYTE           N11     Fn3
        BYTE   W12
        BYTE           N05     Gn2
        BYTE   W06
        BYTE           N23     Dn3
        BYTE   W24
        BYTE           N11     Gn2
        BYTE   W06
// 020   ----------------------------------------
cvaostopfloor_3_20:
        BYTE   W06
        BYTE           N09     Ds2   v092
        BYTE   W12
        BYTE           N07     Ds2   v068
        BYTE   W12
        BYTE           N09     Ds2   v092
        BYTE   W12
        BYTE           N07     Ds2   v068
        BYTE   W12
        BYTE           N09     Ds2   v092
        BYTE   W12
        BYTE           N07     Ds2   v068
        BYTE   W12
        BYTE           N09     Ds2   v092
        BYTE   W12
        BYTE           N07     Ds2   v068
        BYTE   W06
        BYTE   PEND
// 021   ----------------------------------------
cvaostopfloor_3_21:
        BYTE   W06
        BYTE           N09     Ds2   v092
        BYTE   W12
        BYTE           N07     Ds2   v068
        BYTE   W12
        BYTE           N09     Ds2   v092
        BYTE   W12
        BYTE           N07     Ds2   v068
        BYTE   W12
        BYTE           N09     Fs2   v092
        BYTE   W12
        BYTE           N07     Fs2   v068
        BYTE   W12
        BYTE           N09     Fs2   v092
        BYTE   W12
        BYTE           N07     Fs2   v068
        BYTE   W06
        BYTE   PEND
// 022   ----------------------------------------
cvaostopfloor_3_22:
        BYTE   W06
        BYTE           N09     Dn2   v092
        BYTE   W12
        BYTE           N07     Dn2   v068
        BYTE   W12
        BYTE           N09     Dn2   v092
        BYTE   W12
        BYTE           N07     Dn2   v068
        BYTE   W12
        BYTE           N09     Dn2   v092
        BYTE   W12
        BYTE           N07     Dn2   v068
        BYTE   W12
        BYTE           N09     Dn2   v092
        BYTE   W12
        BYTE           N07     Dn2   v068
        BYTE   W06
        BYTE   PEND
// 023   ----------------------------------------
        BYTE   W06
        BYTE           N09     Ds2   v092
        BYTE   W12
        BYTE           N07     Ds2   v068
        BYTE   W12
        BYTE           N09     Ds2   v092
        BYTE   W12
        BYTE           N07     Ds2   v068
        BYTE   W12
        BYTE           N09     Gn2   v092
        BYTE   W12
        BYTE           N07     Gn2   v068
        BYTE   W12
        BYTE           N09     Gn2   v092
        BYTE   W12
        BYTE           N07     Gn2   v068
        BYTE   W06
// 024   ----------------------------------------
        BYTE   PATT
         POIN2  cvaostopfloor_3_22
// 025   ----------------------------------------
        BYTE   PATT
         POIN2  cvaostopfloor_3_21
// 026   ----------------------------------------
        BYTE   PATT
         POIN2  cvaostopfloor_3_22
// 027   ----------------------------------------
        BYTE   PATT
         POIN2  cvaostopfloor_3_20
// 028   ----------------------------------------
        BYTE   PATT
         POIN2  cvaostopfloor_3_22
// 029   ----------------------------------------
        BYTE   W06
        BYTE           N09     Dn2   v092
        BYTE   W12
        BYTE           N07     Dn2   v068
        BYTE   W12
        BYTE           N11     An2   v092
        BYTE   W12
        BYTE           N05     Dn2
        BYTE   W06
        BYTE           N11     Cn3
        BYTE   W12
        BYTE           N05     Dn2
        BYTE   W06
        BYTE           N23     An2
        BYTE   W24
        BYTE           N06     Dn2
        BYTE   W06
// 030   ----------------------------------------
        BYTE   W06
        BYTE           TIE     Gn2   v104
        BYTE   W90
// 031   ----------------------------------------
cvaostopfloor_3_31:
        BYTE   W48
        BYTE           EOT     Gn2
        BYTE   W06
        BYTE           N11     Gn1   v084
        BYTE   W12
        BYTE                   Dn2
        BYTE   W12
        BYTE                   Fn2
        BYTE   W12
        BYTE           N05     Cn2
        BYTE   W06
        BYTE   PEND
// 032   ----------------------------------------
cvaostopfloor_3_32:
        BYTE           N17     Gs2   v084
        BYTE   W18
        BYTE           N11     Ds2
        BYTE   W12
        BYTE                   Gn1
        BYTE   W12
        BYTE                   Dn2
        BYTE   W12
        BYTE                   Fn2
        BYTE   W12
        BYTE           N05     Cn2
        BYTE   W06
        BYTE           N17     Gs2
        BYTE   W18
        BYTE           N11     Ds2
        BYTE   W06
        BYTE   PEND
// 033   ----------------------------------------
        BYTE   W06
        BYTE           TIE     Gn2   v080
        BYTE   W90
// 034   ----------------------------------------
        BYTE   PATT
         POIN2  cvaostopfloor_3_31
// 035   ----------------------------------------
        BYTE   PATT
         POIN2  cvaostopfloor_3_32
// 036   ----------------------------------------
cvaostopfloor_3_36:
        BYTE   W06
        BYTE           N09     Gn1   v092
        BYTE   W12
        BYTE           N07     Gn1   v068
        BYTE   W12
        BYTE           N09     Gn1   v092
        BYTE   W12
        BYTE           N07     Gn1   v068
        BYTE   W12
        BYTE           N09     Gn1   v092
        BYTE   W12
        BYTE           N07     Gn1   v068
        BYTE   W12
        BYTE           N09     Gn1   v092
        BYTE   W12
        BYTE           N07     Gn1   v068
        BYTE   W06
        BYTE   PEND
// 037   ----------------------------------------
cvaostopfloor_3_37:
        BYTE   W06
        BYTE           N09     Gn1   v092
        BYTE   W12
        BYTE           N07     Gn1   v068
        BYTE   W12
        BYTE           N11     Dn2   v092
        BYTE   W12
        BYTE           N05     Gn1
        BYTE   W06
        BYTE           N11     Fn2
        BYTE   W12
        BYTE           N05     Gn1
        BYTE   W06
        BYTE           N23     En2
        BYTE   W24
        BYTE           N11     Gn1
        BYTE   W06
        BYTE   PEND
// 038   ----------------------------------------
        BYTE   PATT
         POIN2  cvaostopfloor_3_20
// 039   ----------------------------------------
        BYTE   W06
        BYTE           N09     Ds2   v092
        BYTE   W12
        BYTE           N07     Ds2   v068
        BYTE   W12
        BYTE           N11     Ds2   v092
        BYTE   W12
        BYTE           N05
        BYTE   W06
        BYTE           N06
        BYTE   W12
        BYTE           N04     Fn2
        BYTE   W06
        BYTE           N11
        BYTE   W12
        BYTE                   Cn2
        BYTE   W12
        BYTE                   Fn1
        BYTE   W06
// 040   ----------------------------------------
        BYTE   PATT
         POIN2  cvaostopfloor_3_36
// 041   ----------------------------------------
        BYTE   PATT
         POIN2  cvaostopfloor_3_37
// 042   ----------------------------------------
        BYTE   W06
        BYTE           N09     As1   v092
        BYTE   W12
        BYTE           N07     As1   v068
        BYTE   W12
        BYTE           N09     As1   v092
        BYTE   W12
        BYTE           N07     As1   v068
        BYTE   W12
        BYTE           N09     As1   v092
        BYTE   W12
        BYTE           N07     As1   v068
        BYTE   W12
        BYTE           N09     As1   v092
        BYTE   W12
        BYTE           N07     As1   v068
        BYTE   W06
// 043   ----------------------------------------
        BYTE   W06
        BYTE           N09     As1   v092
        BYTE   W12
        BYTE           N07     As1   v068
        BYTE   W12
        BYTE           N11     Fn2   v092
        BYTE   W12
        BYTE           N05     As1
        BYTE   W06
        BYTE           N11     Gs2
        BYTE   W12
        BYTE           N05     As1
        BYTE   W06
        BYTE           N23     Fn2
        BYTE   W24
        BYTE           N11     As1
        BYTE   W06
// 044   ----------------------------------------
        BYTE   W06
        BYTE           TIE     An1   v076
        BYTE   W90
// 045   ----------------------------------------
        BYTE   W28
        BYTE   W01
        BYTE           EOT
        BYTE   W01
        BYTE           N23     Bn1
        BYTE   W24
        BYTE           TIE     Cn2
        BYTE   W42
// 046   ----------------------------------------
        BYTE   W76
        BYTE   W01
        BYTE           EOT
        BYTE   W01
        BYTE           N23     Dn2
        BYTE   W18
// 047   ----------------------------------------
        BYTE   W06
        BYTE           TIE     Ds2
        BYTE   W90
// 048   ----------------------------------------
        BYTE   W28
        BYTE   W01
        BYTE           EOT
        BYTE   W01
        BYTE           N23     Fn2
        BYTE   W24
        BYTE           TIE     Fs2
        BYTE   W42
// 049   ----------------------------------------
        BYTE   W76
        BYTE   W01
        BYTE           EOT
        BYTE   W01
        BYTE           N23     Gs1
        BYTE   W18
// 050   ----------------------------------------
cvaostopfloor_3_50:
        BYTE   W06
        BYTE           N09     An1   v092
        BYTE   W12
        BYTE           N07     An1   v068
        BYTE   W12
        BYTE           N09     An1   v092
        BYTE   W12
        BYTE           N07     An1   v068
        BYTE   W12
        BYTE           N09     An1   v092
        BYTE   W12
        BYTE           N07     An1   v068
        BYTE   W12
        BYTE           N09     An1   v092
        BYTE   W12
        BYTE           N07     An1   v068
        BYTE   W06
        BYTE   PEND
// 051   ----------------------------------------
cvaostopfloor_3_51:
        BYTE   W06
        BYTE           N09     An1   v092
        BYTE   W12
        BYTE           N10     An1   v068
        BYTE   W12
        BYTE           N11     En2   v088
        BYTE   W12
        BYTE           N05     An1   v092
        BYTE   W06
        BYTE           N11     Gn2   v088
        BYTE   W12
        BYTE           N05     An1   v092
        BYTE   W06
        BYTE           N23     Fs2   v088
        BYTE   W24
        BYTE           N09     An1   v092
        BYTE   W06
        BYTE   PEND
// 052   ----------------------------------------
        BYTE   PATT
         POIN2  cvaostopfloor_3_50
// 053   ----------------------------------------
        BYTE   PATT
         POIN2  cvaostopfloor_3_51
// 054   ----------------------------------------
        BYTE   W06
        BYTE   GoTo
         POIN2  cvaostopfloor_3_LOOP
        BYTE   FINE

//****************** Track 4 (Midi-Chn.4) ******************//

cvaostopfloor_4:
        BYTE   KEYSH   cvaostopfloor_key+0
// 000   ----------------------------------------
        BYTE           VOICE   124
        BYTE           VOL     46
        BYTE           PAN     c_v+28
        BYTE   W96
// 001   ----------------------------------------
        BYTE   W96
// 002   ----------------------------------------
        BYTE   W96
// 003   ----------------------------------------
        BYTE   W96
// 004   ----------------------------------------
        BYTE   W96
// 005   ----------------------------------------
        BYTE   W96
// 006   ----------------------------------------
cvaostopfloor_4_6:
        BYTE   W30
        BYTE           N09     Ds1   v096
        BYTE   W48
        BYTE                   Ds1
        BYTE   W18
        BYTE   PEND
// 007   ----------------------------------------
        BYTE   PATT
         POIN2  cvaostopfloor_4_6
// 008   ----------------------------------------
        BYTE   PATT
         POIN2  cvaostopfloor_4_6
// 009   ----------------------------------------
        BYTE   PATT
         POIN2  cvaostopfloor_4_6
// 010   ----------------------------------------
        BYTE   W06
cvaostopfloor_4_LOOP:
        BYTE   W24
        BYTE           N09     Ds1   v096
        BYTE   W48
        BYTE                   Ds1
        BYTE   W18
// 011   ----------------------------------------
        BYTE   PATT
         POIN2  cvaostopfloor_4_6
// 012   ----------------------------------------
        BYTE   PATT
         POIN2  cvaostopfloor_4_6
// 013   ----------------------------------------
        BYTE   PATT
         POIN2  cvaostopfloor_4_6
// 014   ----------------------------------------
        BYTE   PATT
         POIN2  cvaostopfloor_4_6
// 015   ----------------------------------------
cvaostopfloor_4_15:
        BYTE   W30
        BYTE           N09     Ds1   v096
        BYTE   W66
        BYTE   PEND
// 016   ----------------------------------------
        BYTE   PATT
         POIN2  cvaostopfloor_4_6
// 017   ----------------------------------------
        BYTE   PATT
         POIN2  cvaostopfloor_4_6
// 018   ----------------------------------------
        BYTE   PATT
         POIN2  cvaostopfloor_4_6
// 019   ----------------------------------------
        BYTE   PATT
         POIN2  cvaostopfloor_4_6
// 020   ----------------------------------------
        BYTE   PATT
         POIN2  cvaostopfloor_4_6
// 021   ----------------------------------------
        BYTE   PATT
         POIN2  cvaostopfloor_4_6
// 022   ----------------------------------------
        BYTE   PATT
         POIN2  cvaostopfloor_4_6
// 023   ----------------------------------------
        BYTE   PATT
         POIN2  cvaostopfloor_4_6
// 024   ----------------------------------------
        BYTE   PATT
         POIN2  cvaostopfloor_4_6
// 025   ----------------------------------------
        BYTE   PATT
         POIN2  cvaostopfloor_4_6
// 026   ----------------------------------------
        BYTE   PATT
         POIN2  cvaostopfloor_4_6
// 027   ----------------------------------------
        BYTE   PATT
         POIN2  cvaostopfloor_4_6
// 028   ----------------------------------------
        BYTE   PATT
         POIN2  cvaostopfloor_4_6
// 029   ----------------------------------------
        BYTE   PATT
         POIN2  cvaostopfloor_4_6
// 030   ----------------------------------------
        BYTE   W96
// 031   ----------------------------------------
        BYTE   W96
// 032   ----------------------------------------
        BYTE   W96
// 033   ----------------------------------------
        BYTE   W96
// 034   ----------------------------------------
        BYTE   W96
// 035   ----------------------------------------
        BYTE   W96
// 036   ----------------------------------------
        BYTE   PATT
         POIN2  cvaostopfloor_4_6
// 037   ----------------------------------------
        BYTE   PATT
         POIN2  cvaostopfloor_4_6
// 038   ----------------------------------------
        BYTE   PATT
         POIN2  cvaostopfloor_4_6
// 039   ----------------------------------------
        BYTE   PATT
         POIN2  cvaostopfloor_4_6
// 040   ----------------------------------------
        BYTE   PATT
         POIN2  cvaostopfloor_4_6
// 041   ----------------------------------------
        BYTE   PATT
         POIN2  cvaostopfloor_4_15
// 042   ----------------------------------------
        BYTE   PATT
         POIN2  cvaostopfloor_4_6
// 043   ----------------------------------------
        BYTE   PATT
         POIN2  cvaostopfloor_4_6
// 044   ----------------------------------------
        BYTE   W96
// 045   ----------------------------------------
        BYTE   W96
// 046   ----------------------------------------
        BYTE   W96
// 047   ----------------------------------------
        BYTE   W96
// 048   ----------------------------------------
        BYTE   W96
// 049   ----------------------------------------
        BYTE   W96
// 050   ----------------------------------------
        BYTE   W96
// 051   ----------------------------------------
        BYTE   W96
// 052   ----------------------------------------
        BYTE   PATT
         POIN2  cvaostopfloor_4_6
// 053   ----------------------------------------
        BYTE   PATT
         POIN2  cvaostopfloor_4_6
// 054   ----------------------------------------
        BYTE   W06
        BYTE   GoTo
         POIN2  cvaostopfloor_4_LOOP
        BYTE   FINE

//****************** Track 5 (Midi-Chn.5) ******************//

cvaostopfloor_5:
        BYTE   KEYSH   cvaostopfloor_key+0
// 000   ----------------------------------------
        BYTE           VOICE   124
        BYTE           VOL     45
        BYTE   W54
        BYTE           N44     Bn2   v051   gtp3
        BYTE   W42
// 001   ----------------------------------------
cvaostopfloor_5_1:
        BYTE   W54
        BYTE           N44     Bn2   v051   gtp3
        BYTE   W42
        BYTE   PEND
// 002   ----------------------------------------
        BYTE   PATT
         POIN2  cvaostopfloor_5_1
// 003   ----------------------------------------
        BYTE   PATT
         POIN2  cvaostopfloor_5_1
// 004   ----------------------------------------
cvaostopfloor_5_4:
        BYTE   W06
        BYTE           N11     Cn1   v127
        BYTE   W12
        BYTE                   Fs1   v064
        BYTE   W12
        BYTE                   Cn1   v127
        BYTE   W12
        BYTE                   Fs1   v064
        BYTE   W12
        BYTE                   Cn1   v127
        BYTE   W12
        BYTE                   Fs1   v064
        BYTE   W12
        BYTE                   Cn1   v127
        BYTE   W12
        BYTE                   Fs1   v064
        BYTE   W06
        BYTE   PEND
// 005   ----------------------------------------
        BYTE   PATT
         POIN2  cvaostopfloor_5_4
// 006   ----------------------------------------
cvaostopfloor_5_6:
        BYTE   W06
        BYTE           N11     Cn1   v127
        BYTE   W12
        BYTE                   Fs1   v064
        BYTE   W12
        BYTE           N09     Cs1   v096
        BYTE   W12
        BYTE           N11     Fs1   v064
        BYTE   W12
        BYTE                   Cn1   v127
        BYTE   W12
        BYTE                   Fs1   v064
        BYTE   W12
        BYTE           N09     Cs1   v096
        BYTE   W12
        BYTE           N11     Fs1   v064
        BYTE   W06
        BYTE   PEND
// 007   ----------------------------------------
        BYTE   W06
        BYTE                   Cn1   v127
        BYTE   W12
        BYTE                   Fs1   v064
        BYTE   W12
        BYTE           N09     Cs1   v096
        BYTE   W12
        BYTE           N11     Fs1   v064
        BYTE   W12
        BYTE           N05     Cn1   v127
        BYTE   W06
        BYTE                   Ds1   v088
        BYTE   W06
        BYTE           N11     Fs1   v064
        BYTE   W12
        BYTE           N09     Cs1   v096
        BYTE   W12
        BYTE           N11     Fs1   v064
        BYTE   W06
// 008   ----------------------------------------
        BYTE   PATT
         POIN2  cvaostopfloor_5_6
// 009   ----------------------------------------
        BYTE   PATT
         POIN2  cvaostopfloor_5_6
// 010   ----------------------------------------
        BYTE   W06
cvaostopfloor_5_LOOP:
        BYTE           N11     Cn1   v127
        BYTE   W12
        BYTE                   Fs1   v064
        BYTE   W12
        BYTE           N09     Cs1   v096
        BYTE   W12
        BYTE           N11     Fs1   v064
        BYTE   W12
        BYTE                   Cn1   v127
        BYTE   W12
        BYTE                   Fs1   v064
        BYTE   W12
        BYTE           N09     Cs1   v096
        BYTE   W12
        BYTE           N11     Fs1   v064
        BYTE   W06
// 011   ----------------------------------------
cvaostopfloor_5_11:
        BYTE   W06
        BYTE           N11     Cn1   v127
        BYTE   W12
        BYTE                   Fs1   v064
        BYTE   W12
        BYTE           N09     Cs1   v096
        BYTE   W12
        BYTE           N11     Fs1   v064
        BYTE   W12
        BYTE           N05     Cn1   v127
        BYTE   W06
        BYTE                   Ds1   v088
        BYTE   W06
        BYTE           N11     Fs1   v064
        BYTE   W12
        BYTE           N09     Cs1   v096
        BYTE   W12
        BYTE           N05     Ds1   v088
        BYTE   W06
        BYTE   PEND
// 012   ----------------------------------------
cvaostopfloor_5_12:
        BYTE           N05     Ds1   v088
        BYTE   W06
        BYTE           N11     Cn1   v127
        BYTE   W12
        BYTE                   Fs1   v064
        BYTE   W12
        BYTE           N09     Cs1   v096
        BYTE   W12
        BYTE           N11     Fs1   v064
        BYTE   W12
        BYTE                   Cn1   v127
        BYTE   W12
        BYTE                   Fs1   v064
        BYTE   W12
        BYTE           N09     Cs1   v096
        BYTE   W12
        BYTE           N11     Fs1   v064
        BYTE   W06
        BYTE   PEND
// 013   ----------------------------------------
        BYTE   PATT
         POIN2  cvaostopfloor_5_6
// 014   ----------------------------------------
        BYTE   PATT
         POIN2  cvaostopfloor_5_6
// 015   ----------------------------------------
cvaostopfloor_5_15:
        BYTE   W06
        BYTE           N11     Cn1   v127
        BYTE   W12
        BYTE                   Fs1   v064
        BYTE   W12
        BYTE           N09     Cs1   v096
        BYTE   W12
        BYTE           N11     Fs1   v064
        BYTE   W12
        BYTE           N05     Cn1   v127
        BYTE   W06
        BYTE                   Ds1   v088
        BYTE   W06
        BYTE           N11     Fs1   v064
        BYTE   W12
        BYTE                   Cn1   v127
        BYTE   W12
        BYTE                   Ds1   v088
        BYTE   W06
        BYTE   PEND
// 016   ----------------------------------------
        BYTE   PATT
         POIN2  cvaostopfloor_5_6
// 017   ----------------------------------------
cvaostopfloor_5_17:
        BYTE   W06
        BYTE           N11     Cn1   v127
        BYTE   W12
        BYTE                   Fs1   v064
        BYTE   W12
        BYTE           N09     Cs1   v096
        BYTE   W12
        BYTE           N05     Fs1   v064
        BYTE   W06
        BYTE                   Ds1   v088
        BYTE   W06
        BYTE           N06     Cn1   v127
        BYTE   W06
        BYTE           N05     Ds1   v088
        BYTE   W06
        BYTE           N11     Fs1   v064
        BYTE   W12
        BYTE           N09     Cs1   v096
        BYTE   W12
        BYTE           N11     Fs1   v064
        BYTE   W06
        BYTE   PEND
// 018   ----------------------------------------
        BYTE   PATT
         POIN2  cvaostopfloor_5_6
// 019   ----------------------------------------
cvaostopfloor_5_19:
        BYTE   W06
        BYTE           N11     Cn1   v127
        BYTE   W12
        BYTE                   Fs1   v064
        BYTE   W12
        BYTE           N09     Cs1   v096
        BYTE   W12
        BYTE           N11     Fs1   v064
        BYTE   W12
        BYTE           N05     Cn1   v127
        BYTE   W06
        BYTE                   Ds1   v088
        BYTE   W06
        BYTE           N11     Fs1   v064
        BYTE   W12
        BYTE           N09     Cs1   v096
        BYTE   W12
        BYTE           N11     Ds1   v088
        BYTE   W06
        BYTE   PEND
// 020   ----------------------------------------
        BYTE   PATT
         POIN2  cvaostopfloor_5_6
// 021   ----------------------------------------
        BYTE   PATT
         POIN2  cvaostopfloor_5_11
// 022   ----------------------------------------
cvaostopfloor_5_22:
        BYTE           N05     Ds1   v088
        BYTE   W06
        BYTE           N11     Cn1   v127
        BYTE   W12
        BYTE                   Fs1   v064
        BYTE   W12
        BYTE           N09     Cs1   v096
        BYTE   W12
        BYTE           N05     Fs1   v064
        BYTE   W06
        BYTE                   Ds1   v088
        BYTE   W06
        BYTE           N06     Cn1   v127
        BYTE   W06
        BYTE           N05     Ds1   v088
        BYTE   W06
        BYTE           N11     Fs1   v064
        BYTE   W12
        BYTE           N09     Cs1   v096
        BYTE   W12
        BYTE           N11     Fs1   v064
        BYTE   W06
        BYTE   PEND
// 023   ----------------------------------------
        BYTE   PATT
         POIN2  cvaostopfloor_5_6
// 024   ----------------------------------------
        BYTE   PATT
         POIN2  cvaostopfloor_5_17
// 025   ----------------------------------------
        BYTE   PATT
         POIN2  cvaostopfloor_5_6
// 026   ----------------------------------------
        BYTE   PATT
         POIN2  cvaostopfloor_5_19
// 027   ----------------------------------------
        BYTE   PATT
         POIN2  cvaostopfloor_5_6
// 028   ----------------------------------------
        BYTE   PATT
         POIN2  cvaostopfloor_5_11
// 029   ----------------------------------------
        BYTE   PATT
         POIN2  cvaostopfloor_5_22
// 030   ----------------------------------------
        BYTE   W06
        BYTE           N23     An2   v088
        BYTE   W24
        BYTE           N11     Cn2   v100
        BYTE   W12
        BYTE                   Fs1   v064
        BYTE   W12
        BYTE                   An1   v100
        BYTE   W12
        BYTE                   Fs1   v064
        BYTE   W12
        BYTE           N17     An2   v088
        BYTE   W18
// 031   ----------------------------------------
        BYTE           N02     Cn2   v064
        BYTE   W03
        BYTE                   Cn2
        BYTE   W03
        BYTE           N06     Cn2   v100
        BYTE   W06
        BYTE           N05     Cn2   v084
        BYTE   W06
        BYTE           N06     Fs1   v064
        BYTE   W06
        BYTE           N05     Cn2   v084
        BYTE   W06
        BYTE           N06     Cn2   v100
        BYTE   W06
        BYTE           N05     Bn1   v084
        BYTE   W06
        BYTE           N06     An1   v100
        BYTE   W06
        BYTE           N05     Fn1   v084
        BYTE   W06
        BYTE           N23     An2   v088
        BYTE   W24
        BYTE           N11     Cn2   v100
        BYTE   W12
        BYTE                   Fs1   v064
        BYTE   W06
// 032   ----------------------------------------
        BYTE   W06
        BYTE                   An1   v100
        BYTE   W12
        BYTE                   Fs1   v064
        BYTE   W12
        BYTE           N23     An2   v088
        BYTE   W24
        BYTE           N11     Cn2   v100
        BYTE   W12
        BYTE                   Fs1   v064
        BYTE   W12
        BYTE                   An1   v100
        BYTE   W12
        BYTE                   Fs1   v064
        BYTE   W06
// 033   ----------------------------------------
        BYTE   W06
        BYTE           N23     An2   v088
        BYTE   W24
        BYTE           N11     Cn2   v100
        BYTE   W12
        BYTE                   Fs1   v064
        BYTE   W12
        BYTE                   Bn1   v100
        BYTE   W12
        BYTE                   Fs1   v064
        BYTE   W12
        BYTE           N17     An2   v088
        BYTE   W18
// 034   ----------------------------------------
        BYTE           N02     Cn2   v064
        BYTE   W03
        BYTE                   Cn2
        BYTE   W03
        BYTE           N06     Cn2   v100
        BYTE   W06
        BYTE           N05     Cn2   v084
        BYTE   W06
        BYTE           N06     Fs1   v064
        BYTE   W06
        BYTE           N05     Cn2   v084
        BYTE   W06
        BYTE           N06     Cn2   v100
        BYTE   W06
        BYTE           N05     Bn1   v084
        BYTE   W06
        BYTE           N06     An1   v100
        BYTE   W06
        BYTE           N05     Fn1   v084
        BYTE   W06
        BYTE           N23     An2   v088
        BYTE   W24
        BYTE           N11     Cn1   v127
        BYTE   W12
        BYTE                   Fs1   v064
        BYTE   W06
// 035   ----------------------------------------
        BYTE   PATT
         POIN2  cvaostopfloor_5_4
// 036   ----------------------------------------
        BYTE   PATT
         POIN2  cvaostopfloor_5_6
// 037   ----------------------------------------
        BYTE   PATT
         POIN2  cvaostopfloor_5_11
// 038   ----------------------------------------
        BYTE   PATT
         POIN2  cvaostopfloor_5_12
// 039   ----------------------------------------
        BYTE   PATT
         POIN2  cvaostopfloor_5_6
// 040   ----------------------------------------
        BYTE   PATT
         POIN2  cvaostopfloor_5_6
// 041   ----------------------------------------
        BYTE   PATT
         POIN2  cvaostopfloor_5_15
// 042   ----------------------------------------
        BYTE   PATT
         POIN2  cvaostopfloor_5_6
// 043   ----------------------------------------
        BYTE   PATT
         POIN2  cvaostopfloor_5_17
// 044   ----------------------------------------
        BYTE   PATT
         POIN2  cvaostopfloor_5_4
// 045   ----------------------------------------
        BYTE   W06
        BYTE           N11     Cn1   v127
        BYTE   W12
        BYTE           N05     Fs1   v064
        BYTE   W06
        BYTE                   Cn2   v060
        BYTE   W06
        BYTE           N06     Cn2   v108
        BYTE   W06
        BYTE           N05     Bn1   v092
        BYTE   W06
        BYTE           N06     An1   v108
        BYTE   W06
        BYTE           N05     Fn1   v092
        BYTE   W06
        BYTE           N23     An2   v088
        BYTE   W24
        BYTE           N11     Cn1   v127
        BYTE   W12
        BYTE                   Fs1   v064
        BYTE   W06
// 046   ----------------------------------------
        BYTE   W06
        BYTE                   Cn1   v127
        BYTE   W12
        BYTE                   Fs1   v064
        BYTE   W12
        BYTE                   Cn1   v127
        BYTE   W12
        BYTE                   Fs1   v064
        BYTE   W12
        BYTE                   Cn1   v127
        BYTE   W12
        BYTE           N03     Cn2   v108
        BYTE   W04
        BYTE                   Cn2   v084
        BYTE   W04
        BYTE                   Cn2   v100
        BYTE   W04
        BYTE           N06     Cn2   v108
        BYTE   W06
        BYTE           N05     Bn1   v092
        BYTE   W06
        BYTE           N06     An1   v108
        BYTE   W06
// 047   ----------------------------------------
        BYTE           N05     Fn1   v092
        BYTE   W06
        BYTE           N23     An2   v088
        BYTE   W24
        BYTE           N11     Cn1   v127
        BYTE   W12
        BYTE                   Fs1   v064
        BYTE   W12
        BYTE                   Cn1   v127
        BYTE   W12
        BYTE                   Cn2   v108
        BYTE   W12
        BYTE                   Cn1   v127
        BYTE   W12
        BYTE           N06     Cn2   v108
        BYTE   W06
// 048   ----------------------------------------
        BYTE           N05     Bn1   v092
        BYTE   W06
        BYTE           N11     Cn1   v127
        BYTE   W12
        BYTE           N06     An1   v108
        BYTE   W06
        BYTE           N05     Fn1   v092
        BYTE   W06
        BYTE           N03     Cn2   v108
        BYTE   W04
        BYTE                   Cn2   v084
        BYTE   W04
        BYTE                   Cn2   v100
        BYTE   W04
        BYTE                   Bn1   v108
        BYTE   W04
        BYTE                   An1   v084
        BYTE   W04
        BYTE                   Fn1   v100
        BYTE   W04
        BYTE           N23     An2   v088
        BYTE   W24
        BYTE           N11     Cn1   v127
        BYTE   W12
        BYTE                   Fs1   v064
        BYTE   W06
// 049   ----------------------------------------
        BYTE   W06
        BYTE                   Cn1   v127
        BYTE   W12
        BYTE                   Fs1   v064
        BYTE   W12
        BYTE                   Cn1   v127
        BYTE   W12
        BYTE           N03     Cn2   v108
        BYTE   W04
        BYTE                   Cn2   v084
        BYTE   W04
        BYTE                   Cn2   v100
        BYTE   W04
        BYTE           N11     Cn1   v127
        BYTE   W12
        BYTE                   Fs1   v064
        BYTE   W12
        BYTE                   Cn1   v127
        BYTE   W12
        BYTE           N03     Fs1   v064
        BYTE           N03     Cn2   v108
        BYTE   W04
        BYTE                   Cn2   v084
        BYTE   W02
// 050   ----------------------------------------
        BYTE   W02
        BYTE                   Cn2   v100
        BYTE   W04
        BYTE           N23     An2   v088
        BYTE   W24
        BYTE           N11     Cn1   v127
        BYTE   W12
        BYTE                   Fs1   v064
        BYTE   W12
        BYTE                   Cn1   v127
        BYTE   W12
        BYTE                   Fs1   v064
        BYTE   W12
        BYTE                   Cn1   v127
        BYTE   W12
        BYTE                   Fs1   v064
        BYTE   W06
// 051   ----------------------------------------
        BYTE   PATT
         POIN2  cvaostopfloor_5_4
// 052   ----------------------------------------
        BYTE   PATT
         POIN2  cvaostopfloor_5_6
// 053   ----------------------------------------
        BYTE   PATT
         POIN2  cvaostopfloor_5_17
// 054   ----------------------------------------
        BYTE   W06
        BYTE   GoTo
         POIN2  cvaostopfloor_5_LOOP
        BYTE   FINE

//****************** Track 6 (Midi-Chn.6) ******************//

cvaostopfloor_6:
        BYTE   KEYSH   cvaostopfloor_key+0
// 000   ----------------------------------------
        BYTE           VOICE   49
        BYTE           VOL     32
        BYTE           PAN     c_v-1
        BYTE   W96
// 001   ----------------------------------------
        BYTE   W96
// 002   ----------------------------------------
        BYTE   W96
// 003   ----------------------------------------
        BYTE   W96
// 004   ----------------------------------------
        BYTE   W96
// 005   ----------------------------------------
        BYTE   W96
// 006   ----------------------------------------
        BYTE   W96
// 007   ----------------------------------------
        BYTE   W96
// 008   ----------------------------------------
        BYTE   W96
// 009   ----------------------------------------
        BYTE   W96
// 010   ----------------------------------------
        BYTE           MOD     3
        BYTE   W06
cvaostopfloor_6_LOOP:
        BYTE   W06
        BYTE           N92     Gs3   v112   gtp3
        BYTE   W84
// 011   ----------------------------------------
        BYTE   W12
        BYTE           N23     Fs3
        BYTE   W24
        BYTE                   En3
        BYTE   W24
        BYTE                   Ds3
        BYTE   W24
        BYTE                   Cs3
        BYTE   W12
// 012   ----------------------------------------
        BYTE   W12
        BYTE                   En3
        BYTE   W36
        BYTE           N11     An2
        BYTE   W12
        BYTE           N92     En3   v112   gtp3
        BYTE   W36
// 013   ----------------------------------------
        BYTE   W60
        BYTE           N44     Fs3   v112   gtp3
        BYTE   W36
// 014   ----------------------------------------
        BYTE   W12
        BYTE           N68     Gs3   v112   gtp3
        BYTE   W72
        BYTE           N23     Cs4   v108
        BYTE   W12
// 015   ----------------------------------------
        BYTE   W12
        BYTE                   Ds4   v100
        BYTE   W24
        BYTE                   En4
        BYTE   W24
        BYTE                   Ds4
        BYTE   W24
        BYTE                   Cs4   v108
        BYTE   W12
// 016   ----------------------------------------
        BYTE   W12
        BYTE                   Bn3   v112
        BYTE   W36
        BYTE           N11     En3
        BYTE   W12
        BYTE           TIE     Bn3
        BYTE   W36
// 017   ----------------------------------------
        BYTE   W96
// 018   ----------------------------------------
        BYTE   W05
        BYTE           EOT
        BYTE   W07
        BYTE           N92     Dn4   v100   gtp3
        BYTE   W84
// 019   ----------------------------------------
        BYTE   W12
        BYTE           N23     Cn4   v108
        BYTE   W24
        BYTE                   As3   v112
        BYTE   W24
        BYTE                   An3
        BYTE   W24
        BYTE                   Gn3
        BYTE   W12
// 020   ----------------------------------------
cvaostopfloor_6_20:
        BYTE   W12
        BYTE           N23     As3   v112
        BYTE   W36
        BYTE           N11     Ds3
        BYTE   W12
        BYTE           N92     As3   v112   gtp3
        BYTE   W36
        BYTE   PEND
// 021   ----------------------------------------
        BYTE   W60
        BYTE           N44     Cs4   v112   gtp3
        BYTE   W36
// 022   ----------------------------------------
cvaostopfloor_6_22:
        BYTE   W12
        BYTE           N92     An3   v112   gtp3
        BYTE   W84
        BYTE   PEND
// 023   ----------------------------------------
cvaostopfloor_6_23:
        BYTE   W12
        BYTE           N44     As3   v112   gtp3
        BYTE   W48
        BYTE                   Gn3
        BYTE   W36
        BYTE   PEND
// 024   ----------------------------------------
        BYTE   PATT
         POIN2  cvaostopfloor_6_22
// 025   ----------------------------------------
        BYTE   W12
        BYTE           N44     Dn4   v112   gtp3
        BYTE   W48
        BYTE                   Cs4
        BYTE   W36
// 026   ----------------------------------------
        BYTE   PATT
         POIN2  cvaostopfloor_6_22
// 027   ----------------------------------------
        BYTE   PATT
         POIN2  cvaostopfloor_6_23
// 028   ----------------------------------------
        BYTE   PATT
         POIN2  cvaostopfloor_6_22
// 029   ----------------------------------------
        BYTE   W12
        BYTE           N88     Dn3   v112   gtp1
        BYTE   W84
// 030   ----------------------------------------
        BYTE   W06
        BYTE           VOICE   48
        BYTE           N05     Gn1
        BYTE   W12
        BYTE                   Gn1   v032
        BYTE   W12
        BYTE                   Fn2   v100
        BYTE   W12
        BYTE                   Fn2   v032
        BYTE   W12
        BYTE                   Gs2   v100
        BYTE   W12
        BYTE                   Gs2   v032
        BYTE   W12
        BYTE                   Gn1   v112
        BYTE   W12
        BYTE                   Gn1   v032
        BYTE   W06
// 031   ----------------------------------------
cvaostopfloor_6_31:
        BYTE   W06
        BYTE           N05     Fn2   v100
        BYTE   W12
        BYTE                   Fn2   v032
        BYTE   W12
        BYTE                   Gs2   v100
        BYTE   W12
        BYTE                   Gs2   v032
        BYTE   W12
        BYTE                   Dn3   v088
        BYTE   W12
        BYTE                   Dn3   v032
        BYTE   W12
        BYTE                   Dn3   v076
        BYTE   W12
        BYTE                   Dn3   v032
        BYTE   W06
        BYTE   PEND
// 032   ----------------------------------------
cvaostopfloor_6_32:
        BYTE   W06
        BYTE           N05     Gs2   v092
        BYTE   W12
        BYTE                   Gs2   v032
        BYTE   W12
        BYTE                   Dn3   v104
        BYTE   W12
        BYTE                   Dn3   v032
        BYTE   W12
        BYTE                   Dn3   v100
        BYTE   W12
        BYTE                   Dn3   v032
        BYTE   W12
        BYTE                   Gs2   v100
        BYTE   W12
        BYTE                   Gs2   v032
        BYTE   W06
        BYTE   PEND
// 033   ----------------------------------------
        BYTE   W06
        BYTE                   Gn1   v112
        BYTE   W12
        BYTE                   Gn1   v032
        BYTE   W12
        BYTE                   Fn2   v100
        BYTE   W12
        BYTE                   Fn2   v032
        BYTE   W12
        BYTE                   Gs2   v100
        BYTE   W12
        BYTE                   Gs2   v032
        BYTE   W12
        BYTE                   Gn1   v112
        BYTE   W12
        BYTE                   Gn1   v032
        BYTE   W06
// 034   ----------------------------------------
        BYTE   PATT
         POIN2  cvaostopfloor_6_31
// 035   ----------------------------------------
        BYTE   PATT
         POIN2  cvaostopfloor_6_32
// 036   ----------------------------------------
        BYTE           VOICE   49
        BYTE   W12
        BYTE           N92     Dn4   v112   gtp3
        BYTE   W84
// 037   ----------------------------------------
        BYTE   W12
        BYTE           N23     Cn4
        BYTE   W24
        BYTE                   As3
        BYTE   W24
        BYTE                   An3
        BYTE   W24
        BYTE                   Gn3
        BYTE   W12
// 038   ----------------------------------------
        BYTE   PATT
         POIN2  cvaostopfloor_6_20
// 039   ----------------------------------------
        BYTE   W60
        BYTE           N44     Cn4   v112   gtp3
        BYTE   W36
// 040   ----------------------------------------
        BYTE   W12
        BYTE           N68     Dn4   v112   gtp3
        BYTE   W72
        BYTE           N23     Gn4
        BYTE   W12
// 041   ----------------------------------------
        BYTE   W12
        BYTE                   An4
        BYTE   W24
        BYTE                   As4
        BYTE   W24
        BYTE                   An4
        BYTE   W24
        BYTE                   Gn4
        BYTE   W12
// 042   ----------------------------------------
        BYTE   W12
        BYTE                   Fn4
        BYTE   W36
        BYTE           N11     As3
        BYTE   W12
        BYTE           N92     Fn4   v112   gtp3
        BYTE   W36
// 043   ----------------------------------------
        BYTE   W60
        BYTE           N44     Gn4   v112   gtp3
        BYTE   W36
// 044   ----------------------------------------
        BYTE   W06
        BYTE           VOICE   51
        BYTE           N05     En2   v100
        BYTE   W12
        BYTE                   En2   v032
        BYTE   W12
        BYTE                   En2   v100
        BYTE   W12
        BYTE                   En2   v032
        BYTE   W12
        BYTE                   Ds2   v100
        BYTE   W12
        BYTE                   Ds2   v032
        BYTE   W12
        BYTE                   En2   v100
        BYTE   W12
        BYTE                   En2   v032
        BYTE   W06
// 045   ----------------------------------------
        BYTE   W06
        BYTE                   En2   v100
        BYTE   W12
        BYTE                   En2   v032
        BYTE   W12
        BYTE                   Fs2   v100
        BYTE   W12
        BYTE                   Fs2   v032
        BYTE   W12
        BYTE                   Gn2   v100
        BYTE   W12
        BYTE                   Gn2   v032
        BYTE   W12
        BYTE                   Gn2   v100
        BYTE   W12
        BYTE                   Gn2   v032
        BYTE   W06
// 046   ----------------------------------------
        BYTE   W06
        BYTE                   Fs2   v100
        BYTE   W12
        BYTE                   Fs2   v032
        BYTE   W12
        BYTE                   Gn2   v100
        BYTE   W12
        BYTE                   Gn2   v032
        BYTE   W12
        BYTE                   Gn2   v100
        BYTE   W12
        BYTE                   Gn2   v032
        BYTE   W12
        BYTE                   An2   v100
        BYTE   W12
        BYTE                   An2   v032
        BYTE   W06
// 047   ----------------------------------------
        BYTE   W06
        BYTE                   As2   v100
        BYTE   W12
        BYTE                   As2   v032
        BYTE   W12
        BYTE                   As2   v100
        BYTE   W12
        BYTE                   As2   v032
        BYTE   W12
        BYTE                   An2   v100
        BYTE   W12
        BYTE                   An2   v032
        BYTE   W12
        BYTE                   As2   v100
        BYTE   W12
        BYTE                   As2   v032
        BYTE   W06
// 048   ----------------------------------------
        BYTE   W06
        BYTE                   As2   v100
        BYTE   W12
        BYTE                   As2   v032
        BYTE   W12
        BYTE                   Cn3   v100
        BYTE   W12
        BYTE                   Cn3   v032
        BYTE   W12
        BYTE                   Cs3   v100
        BYTE   W12
        BYTE                   Cs3   v032
        BYTE   W12
        BYTE                   Cs3   v100
        BYTE   W12
        BYTE                   Cs3   v032
        BYTE   W06
// 049   ----------------------------------------
        BYTE   W06
        BYTE                   Cn3   v100
        BYTE   W12
        BYTE                   Cn3   v032
        BYTE   W12
        BYTE                   Cs3   v100
        BYTE   W12
        BYTE                   Cs3   v032
        BYTE   W12
        BYTE                   Cs3   v100
        BYTE   W12
        BYTE                   Cs3   v032
        BYTE   W12
        BYTE                   Ds3   v100
        BYTE   W12
        BYTE                   Ds3   v032
        BYTE   W06
// 050   ----------------------------------------
        BYTE   W06
        BYTE                   En3   v100
        BYTE   W12
        BYTE                   En3   v032
        BYTE   W78
// 051   ----------------------------------------
        BYTE   W96
// 052   ----------------------------------------
        BYTE   W96
// 053   ----------------------------------------
        BYTE   W96
// 054   ----------------------------------------
        BYTE   W06
        BYTE           VOICE   49
        BYTE   GoTo
         POIN2  cvaostopfloor_6_LOOP
        BYTE   FINE


//********************** End of Song ***********************//

        ALIGN 4
cvaostopfloor:
        BYTE   7                       // Num Tracks
        BYTE   0                       // Unknown
        BYTE   cvaostopfloor_pri       // Priority
        BYTE   cvaostopfloor_rev       // Reverb

        POIN2   cvaostopfloor_grp      

        POIN2   cvaostopfloor_0
        POIN2   cvaostopfloor_1
        POIN2   cvaostopfloor_2
        POIN2   cvaostopfloor_3
        POIN2   cvaostopfloor_4
        POIN2   cvaostopfloor_5
        POIN2   cvaostopfloor_6

        
