//Event file generated from Sappy .s format.
        #include "MPlayDef.event"

        #define    cvbrprayinghands_grp  voicegroup000
        #define    cvbrprayinghands_pri  0
        #define    cvbrprayinghands_rev  0x80
        #define    cvbrprayinghands_key  0

        // .rodata
        // cvbrprayinghands
        ALIGN 4

//****************** Track 0 (Midi-Chn.0) ******************//

cvbrprayinghands_0:
        BYTE   KEYSH   cvbrprayinghands_key+0
// 000   ----------------------------------------
        BYTE   TEMPO   114/2
        BYTE           VOICE   46
        BYTE           VOL     52
        BYTE           N04     En4   v127
        BYTE   W06
        BYTE                   Cs4
        BYTE   W06
        BYTE                   Gs3
        BYTE   W06
        BYTE                   Ds4
        BYTE   W06
        BYTE                   Cs4
        BYTE   W06
        BYTE                   Gs3
        BYTE   W06
        BYTE                   Fs4
        BYTE   W06
        BYTE                   Cs4
        BYTE   W06
        BYTE                   Gs3
        BYTE   W06
        BYTE                   Ds4
        BYTE   W06
        BYTE                   Cs4
        BYTE   W06
        BYTE                   Gs3
        BYTE   W06
        BYTE                   En4
        BYTE   W06
        BYTE                   Ds4
        BYTE   W06
        BYTE                   Cs4
        BYTE   W06
        BYTE                   Gs3
        BYTE   W06
// 001   ----------------------------------------
cvbrprayinghands_0_1:
        BYTE           N04     En4   v127
        BYTE   W06
        BYTE                   Cs4
        BYTE   W06
        BYTE                   Gs3
        BYTE   W06
        BYTE                   Ds4
        BYTE   W06
        BYTE                   Cs4
        BYTE   W06
        BYTE                   Gs3
        BYTE   W06
        BYTE                   Fs4
        BYTE   W06
        BYTE                   Cs4
        BYTE   W06
        BYTE                   Gs3
        BYTE   W06
        BYTE                   Ds4
        BYTE   W06
        BYTE                   Cs4
        BYTE   W06
        BYTE                   Gs3
        BYTE   W06
        BYTE                   En4
        BYTE   W06
        BYTE                   Ds4
        BYTE   W06
        BYTE                   Bn3
        BYTE   W06
        BYTE                   Fs3
        BYTE   W06
        BYTE   PEND
// 002   ----------------------------------------
cvbrprayinghands_0_2:
        BYTE           N04     En4   v127
        BYTE   W06
        BYTE                   An3
        BYTE   W06
        BYTE                   En3
        BYTE   W06
        BYTE                   Ds4
        BYTE   W06
        BYTE                   An3
        BYTE   W06
        BYTE                   En3
        BYTE   W06
        BYTE                   Fs4
        BYTE   W06
        BYTE                   An3
        BYTE   W06
        BYTE                   En3
        BYTE   W06
        BYTE                   Ds4
        BYTE   W06
        BYTE                   An3
        BYTE   W06
        BYTE                   En3
        BYTE   W06
        BYTE                   En4
        BYTE   W06
        BYTE                   Ds4
        BYTE   W06
        BYTE                   Bn3
        BYTE   W06
        BYTE                   Fs3
        BYTE   W06
        BYTE   PEND
// 003   ----------------------------------------
        BYTE                   En4
        BYTE   W06
        BYTE                   An3
        BYTE   W06
        BYTE                   En3
        BYTE   W06
        BYTE                   Ds4
        BYTE   W06
        BYTE                   An3
        BYTE   W06
        BYTE                   En3
        BYTE   W06
        BYTE                   Fs4
        BYTE   W06
        BYTE                   An3
        BYTE   W06
        BYTE                   En3
        BYTE   W06
        BYTE                   Ds4
        BYTE   W06
        BYTE                   An3
        BYTE   W06
        BYTE                   En3
        BYTE   W06
        BYTE                   Cs5
        BYTE   W06
        BYTE                   Fs4
        BYTE   W06
        BYTE                   Gs4
        BYTE   W06
        BYTE                   Ds4
        BYTE   W06
// 004   ----------------------------------------
        BYTE                   En4
        BYTE   W06
        BYTE                   Cs4
        BYTE   W06
        BYTE                   Gs3
        BYTE   W06
        BYTE                   Ds4
        BYTE   W06
        BYTE                   Cs4
        BYTE   W06
        BYTE                   Gs3
        BYTE   W06
        BYTE                   Fs4
        BYTE   W06
        BYTE                   Cs4
        BYTE   W06
        BYTE                   Gs3
        BYTE   W06
        BYTE                   Ds4
        BYTE   W06
        BYTE                   Cs4
        BYTE   W06
        BYTE                   Gs3
        BYTE   W06
        BYTE                   En4
        BYTE   W06
        BYTE                   Ds4
        BYTE   W06
        BYTE                   Cs4
        BYTE   W06
        BYTE                   Gs3
        BYTE   W06
// 005   ----------------------------------------
        BYTE   PATT
         POIN2  cvbrprayinghands_0_1
// 006   ----------------------------------------
        BYTE   PATT
         POIN2  cvbrprayinghands_0_2
// 007   ----------------------------------------
        BYTE           N06     En4   v127
        BYTE   W06
        BYTE                   An3
        BYTE   W06
        BYTE                   En3
        BYTE   W06
        BYTE                   Ds4
        BYTE   W06
        BYTE                   An3
        BYTE   W06
        BYTE                   En3
        BYTE   W06
        BYTE                   Fs4
        BYTE   W06
        BYTE                   An3
        BYTE   W06
        BYTE                   En3
        BYTE   W06
        BYTE                   Ds4
        BYTE   W06
        BYTE                   An3
        BYTE   W06
        BYTE                   En3
        BYTE   W06
        BYTE                   Cs5
        BYTE   W06
        BYTE                   Fs4
        BYTE   W06
        BYTE                   Gs4
        BYTE   W06
        BYTE                   Ds4
        BYTE   W05
        BYTE           PAN     c_v-16
        BYTE   W01
// 008   ----------------------------------------
cvbrprayinghands_0_LOOP:
        BYTE           VOICE   56
        BYTE           N78     An4   v088
        BYTE   W78
        BYTE           N06     En4
        BYTE   W06
        BYTE                   An4
        BYTE   W06
        BYTE                   Cn5
        BYTE   W06
// 009   ----------------------------------------
cvbrprayinghands_0_9:
        BYTE           N09     Bn4   v088
        BYTE   W09
        BYTE           N06     Bn4   v028
        BYTE   W09
        BYTE           N09     Gn4   v088
        BYTE   W09
        BYTE           N06     Gn4   v028
        BYTE   W09
        BYTE           N09     Dn4   v088
        BYTE   W09
        BYTE           N06     Dn4   v028
        BYTE   W15
        BYTE           N09     Bn4   v088
        BYTE   W09
        BYTE           N06     Bn4   v028
        BYTE   W09
        BYTE           N09     Gn4   v088
        BYTE   W09
        BYTE           N06     Gn4   v028
        BYTE   W09
        BYTE   PEND
// 010   ----------------------------------------
        BYTE           TIE     An4   v088
        BYTE   W96
// 011   ----------------------------------------
        BYTE   W96
// 012   ----------------------------------------
cvbrprayinghands_0_12:
        BYTE           EOT     An4
        BYTE           N78     An4   v088
        BYTE   W78
        BYTE           N06     En4
        BYTE   W06
        BYTE                   An4
        BYTE   W06
        BYTE                   Cn5
        BYTE   W06
        BYTE   PEND
// 013   ----------------------------------------
        BYTE           N09     Bn4
        BYTE   W09
        BYTE           N06     Bn4   v028
        BYTE   W09
        BYTE           N09     Gn4   v088
        BYTE   W09
        BYTE           N06     Gn4   v028
        BYTE   W09
        BYTE           N09     Dn4   v088
        BYTE   W09
        BYTE           N06     Dn4   v028
        BYTE   W03
        BYTE           N09     Bn5   v088
        BYTE   W09
        BYTE           N06     Bn5   v028
        BYTE   W09
        BYTE           N09     Gn5   v088
        BYTE   W09
        BYTE           N06     Gn5   v028
        BYTE   W09
        BYTE           N12     Dn5   v088
        BYTE   W12
// 014   ----------------------------------------
        BYTE           TIE     En5
        BYTE   W96
// 015   ----------------------------------------
        BYTE   W48
        BYTE           EOT
        BYTE           N48     Dn5
        BYTE   W48
// 016   ----------------------------------------
        BYTE           N78     An4
        BYTE   W78
        BYTE           N06     En4
        BYTE   W06
        BYTE                   An4
        BYTE   W06
        BYTE                   Cn5
        BYTE   W06
// 017   ----------------------------------------
        BYTE   PATT
         POIN2  cvbrprayinghands_0_9
// 018   ----------------------------------------
        BYTE           TIE     An4   v088
        BYTE   W96
// 019   ----------------------------------------
        BYTE   W96
// 020   ----------------------------------------
        BYTE   PATT
         POIN2  cvbrprayinghands_0_12
// 021   ----------------------------------------
        BYTE   PATT
         POIN2  cvbrprayinghands_0_9
// 022   ----------------------------------------
        BYTE           TIE     An4   v088
        BYTE   W96
// 023   ----------------------------------------
        BYTE   W92
        BYTE   W03
        BYTE           PAN     c_v+0
        BYTE   W01
// 024   ----------------------------------------
        BYTE           EOT
        BYTE           VOICE   46
        BYTE           N06     En2   v127
        BYTE   W06
        BYTE                   Fn2
        BYTE   W06
        BYTE                   An2
        BYTE   W06
        BYTE                   Cn3
        BYTE   W06
        BYTE                   En3
        BYTE   W06
        BYTE                   Fn3
        BYTE   W06
        BYTE                   An3
        BYTE   W06
        BYTE                   Cn4
        BYTE   W06
        BYTE                   En4
        BYTE   W06
        BYTE                   En3
        BYTE   W06
        BYTE                   Fn3
        BYTE   W06
        BYTE                   Dn4
        BYTE   W06
        BYTE                   Cn4
        BYTE   W06
        BYTE                   Bn3
        BYTE   W06
        BYTE                   An3
        BYTE   W06
        BYTE                   Gn3
        BYTE   W06
// 025   ----------------------------------------
cvbrprayinghands_0_25:
        BYTE           N06     Dn2   v127
        BYTE   W06
        BYTE                   En2
        BYTE   W06
        BYTE                   Gs2
        BYTE   W06
        BYTE                   Bn2
        BYTE   W06
        BYTE                   Dn3
        BYTE   W06
        BYTE                   En3
        BYTE   W06
        BYTE                   Gs3
        BYTE   W06
        BYTE                   Bn3
        BYTE   W06
        BYTE                   En4
        BYTE   W06
        BYTE                   An3
        BYTE   W06
        BYTE                   Bn3
        BYTE   W06
        BYTE                   Gn3
        BYTE   W06
        BYTE                   Cn4
        BYTE   W06
        BYTE                   Fs3
        BYTE   W06
        BYTE                   Bn3
        BYTE   W06
        BYTE                   Fn3
        BYTE   W06
        BYTE   PEND
// 026   ----------------------------------------
        BYTE                   En2
        BYTE   W06
        BYTE                   Fn2
        BYTE   W06
        BYTE                   An2
        BYTE   W06
        BYTE                   Cn3
        BYTE   W06
        BYTE                   En3
        BYTE   W06
        BYTE                   Fn3
        BYTE   W06
        BYTE                   An3
        BYTE   W06
        BYTE                   Cn4
        BYTE   W06
        BYTE                   En4
        BYTE   W06
        BYTE                   En3
        BYTE   W06
        BYTE                   Fn3
        BYTE   W06
        BYTE                   Dn4
        BYTE   W06
        BYTE                   Cn4
        BYTE   W06
        BYTE                   Bn3
        BYTE   W06
        BYTE                   An3
        BYTE   W06
        BYTE                   Gn3
        BYTE   W06
// 027   ----------------------------------------
        BYTE   PATT
         POIN2  cvbrprayinghands_0_25
// 028   ----------------------------------------
        BYTE           N06     Cn4   v127
        BYTE   W06
        BYTE                   An3
        BYTE   W06
        BYTE                   Fn3
        BYTE   W06
        BYTE                   Bn3
        BYTE   W06
        BYTE                   An3
        BYTE   W06
        BYTE                   Fn3
        BYTE   W06
        BYTE                   Cn4
        BYTE   W06
        BYTE                   An3
        BYTE   W06
        BYTE                   Fn3
        BYTE   W06
        BYTE                   Bn3
        BYTE   W06
        BYTE                   An3
        BYTE   W06
        BYTE                   Fn3
        BYTE   W06
        BYTE                   Bn3
        BYTE   W06
        BYTE                   Cn4
        BYTE   W06
        BYTE                   Dn4
        BYTE   W06
        BYTE                   Bn3
        BYTE   W06
// 029   ----------------------------------------
        BYTE                   Bn3
        BYTE   W06
        BYTE                   Gs3
        BYTE   W06
        BYTE                   En3
        BYTE   W06
        BYTE                   An3
        BYTE   W06
        BYTE                   Gs3
        BYTE   W06
        BYTE                   En3
        BYTE   W06
        BYTE                   Bn3
        BYTE   W06
        BYTE                   Gs3
        BYTE   W06
        BYTE                   En3
        BYTE   W06
        BYTE                   An3
        BYTE   W06
        BYTE                   Gs3
        BYTE   W06
        BYTE                   En3
        BYTE   W06
        BYTE                   Gs3
        BYTE   W06
        BYTE                   An3
        BYTE   W06
        BYTE                   Bn3
        BYTE   W06
        BYTE                   Gs3
        BYTE   W06
// 030   ----------------------------------------
        BYTE                   Dn4
        BYTE   W06
        BYTE                   Bn3
        BYTE   W06
        BYTE                   Gn3
        BYTE   W06
        BYTE                   Cn4
        BYTE   W06
        BYTE                   Bn3
        BYTE   W06
        BYTE                   Gn3
        BYTE   W06
        BYTE                   Dn4
        BYTE   W06
        BYTE                   Bn3
        BYTE   W06
        BYTE                   Gn3
        BYTE   W06
        BYTE                   Cn4
        BYTE   W06
        BYTE                   Bn3
        BYTE   W06
        BYTE                   Gn3
        BYTE   W06
        BYTE                   Cn4
        BYTE   W06
        BYTE                   Dn4
        BYTE   W06
        BYTE                   En4
        BYTE   W06
        BYTE                   Cn4
        BYTE   W06
// 031   ----------------------------------------
        BYTE   W96
// 032   ----------------------------------------
        BYTE   W96
// 033   ----------------------------------------
        BYTE   W96
// 034   ----------------------------------------
        BYTE   W96
// 035   ----------------------------------------
        BYTE   W96
// 036   ----------------------------------------
        BYTE   W96
// 037   ----------------------------------------
        BYTE   W96
// 038   ----------------------------------------
        BYTE   W96
// 039   ----------------------------------------
        BYTE   W96
// 040   ----------------------------------------
        BYTE           VOICE   56
        BYTE           N66     Fs4   v100
        BYTE   W66
        BYTE           N18     En4
        BYTE   W18
        BYTE           N12     Dn4
        BYTE   W12
// 041   ----------------------------------------
        BYTE           N66     Fn4
        BYTE   W66
        BYTE           N18     En4
        BYTE   W18
        BYTE           N12     Dn4
        BYTE   W12
// 042   ----------------------------------------
        BYTE           N66     Fs4
        BYTE   W66
        BYTE           N18     En4
        BYTE   W18
        BYTE           N12     Dn4
        BYTE   W11
        BYTE           PAN     c_v-16
        BYTE   W01
// 043   ----------------------------------------
        BYTE           N06     Cn5   v088
        BYTE   W06
        BYTE                   Fn5
        BYTE   W06
        BYTE                   An5
        BYTE   W06
        BYTE                   Cn6
        BYTE   W06
        BYTE                   Bn5
        BYTE   W06
        BYTE                   Gn5
        BYTE   W06
        BYTE                   Dn5
        BYTE   W06
        BYTE                   Bn5
        BYTE   W06
        BYTE                   En5
        BYTE   W06
        BYTE                   Fn5
        BYTE   W06
        BYTE                   Cn5
        BYTE   W06
        BYTE                   An5
        BYTE   W06
        BYTE                   Dn5
        BYTE   W06
        BYTE                   Cn5
        BYTE   W06
        BYTE                   Dn5
        BYTE   W06
        BYTE                   Bn4
        BYTE   W06
// 044   ----------------------------------------
        BYTE   GoTo
         POIN2  cvbrprayinghands_0_LOOP
        BYTE   FINE

//****************** Track 1 (Midi-Chn.1) ******************//

cvbrprayinghands_1:
        BYTE   KEYSH   cvbrprayinghands_key+0
// 000   ----------------------------------------
        BYTE           VOICE   50
        BYTE           MOD     1
        BYTE           VOL     56
        BYTE           PAN     c_v-48
        BYTE           TIE     Cs1   v064
        BYTE   W96
// 001   ----------------------------------------
        BYTE   W96
// 002   ----------------------------------------
cvbrprayinghands_1_2:
        BYTE           EOT     Cs1
        BYTE           TIE     An0   v064
        BYTE   W96
        BYTE   PEND
// 003   ----------------------------------------
        BYTE   W96
// 004   ----------------------------------------
        BYTE           EOT
        BYTE           TIE     Cs1
        BYTE   W96
// 005   ----------------------------------------
        BYTE   W96
// 006   ----------------------------------------
        BYTE   PATT
         POIN2  cvbrprayinghands_1_2
// 007   ----------------------------------------
        BYTE   W92
        BYTE   W03
        BYTE           PAN     c_v+0
        BYTE   W01
// 008   ----------------------------------------
        BYTE           EOT     An0
cvbrprayinghands_1_LOOP:
        BYTE           VOICE   65
        BYTE           N78     An3   v100
        BYTE   W44
        BYTE   W03
        BYTE           MOD     3
        BYTE   W30
        BYTE                   1
        BYTE   W01
        BYTE           N06     En3
        BYTE   W06
        BYTE                   An3
        BYTE   W06
        BYTE                   Cn4
        BYTE   W06
// 009   ----------------------------------------
cvbrprayinghands_1_9:
        BYTE           N09     Bn3   v100
        BYTE   W09
        BYTE           N06     Bn3   v040
        BYTE   W09
        BYTE           N09     Gn3   v100
        BYTE   W09
        BYTE           N06     Gn3   v040
        BYTE   W09
        BYTE           N09     Dn3   v100
        BYTE   W09
        BYTE           N06     Dn3   v040
        BYTE   W15
        BYTE           N09     Bn3   v100
        BYTE   W09
        BYTE           N06     Bn3   v040
        BYTE   W09
        BYTE           N09     Gn3   v100
        BYTE   W09
        BYTE           N06     Gn3   v040
        BYTE   W09
        BYTE   PEND
// 010   ----------------------------------------
        BYTE           TIE     An3   v100
        BYTE   W44
        BYTE   W03
        BYTE           MOD     3
        BYTE   W48
        BYTE           VOL     54
        BYTE   W01
// 011   ----------------------------------------
cvbrprayinghands_1_11:
        BYTE   W05
        BYTE           VOL     52
        BYTE   W06
        BYTE                   50
        BYTE   W06
        BYTE                   48
        BYTE   W06
        BYTE           MOD     5
        BYTE           VOL     46
        BYTE   W06
        BYTE                   44
        BYTE   W06
        BYTE                   42
        BYTE   W06
        BYTE                   40
        BYTE   W06
        BYTE                   38
        BYTE   W06
        BYTE                   36
        BYTE   W06
        BYTE                   34
        BYTE   W06
        BYTE                   32
        BYTE   W06
        BYTE                   30
        BYTE   W06
        BYTE                   28
        BYTE   W06
        BYTE                   26
        BYTE   W06
        BYTE                   24
        BYTE   W06
        BYTE           MOD     1
        BYTE           VOL     56
        BYTE   W01
        BYTE   PEND
// 012   ----------------------------------------
cvbrprayinghands_1_12:
        BYTE           EOT     An3
        BYTE           N78     An3   v100
        BYTE   W44
        BYTE   W03
        BYTE           MOD     3
        BYTE   W30
        BYTE                   1
        BYTE   W01
        BYTE           N06     En3
        BYTE   W06
        BYTE                   An3
        BYTE   W06
        BYTE                   Cn4
        BYTE   W06
        BYTE   PEND
// 013   ----------------------------------------
        BYTE           N09     Bn3
        BYTE   W09
        BYTE           N06     Bn3   v040
        BYTE   W09
        BYTE           N09     Gn3   v100
        BYTE   W09
        BYTE           N06     Gn3   v040
        BYTE   W09
        BYTE           N09     Dn3   v100
        BYTE   W09
        BYTE           N06     Dn3   v040
        BYTE   W03
        BYTE           N09     Bn4   v100
        BYTE   W09
        BYTE           N06     Bn4   v040
        BYTE   W09
        BYTE           N09     Gn4   v100
        BYTE   W09
        BYTE           N06     Gn4   v040
        BYTE   W09
        BYTE           N12     Dn4   v100
        BYTE   W12
// 014   ----------------------------------------
        BYTE           TIE     En4
        BYTE   W44
        BYTE   W03
        BYTE           MOD     3
        BYTE   W48
        BYTE           VOL     54
        BYTE   W01
// 015   ----------------------------------------
        BYTE   W05
        BYTE                   52
        BYTE   W06
        BYTE                   50
        BYTE   W06
        BYTE                   48
        BYTE   W06
        BYTE           MOD     5
        BYTE           VOL     46
        BYTE   W06
        BYTE                   44
        BYTE   W06
        BYTE                   42
        BYTE   W06
        BYTE                   40
        BYTE   W06
        BYTE                   56
        BYTE           MOD     1
        BYTE   W01
        BYTE           EOT
        BYTE           N48     Dn4
        BYTE   W48
// 016   ----------------------------------------
        BYTE           N78     An3
        BYTE   W44
        BYTE   W03
        BYTE           MOD     3
        BYTE   W30
        BYTE                   1
        BYTE   W01
        BYTE           N06     En3
        BYTE   W06
        BYTE                   An3
        BYTE   W06
        BYTE                   Cn4
        BYTE   W06
// 017   ----------------------------------------
        BYTE   PATT
         POIN2  cvbrprayinghands_1_9
// 018   ----------------------------------------
cvbrprayinghands_1_18:
        BYTE           TIE     An3   v100
        BYTE   W44
        BYTE   W03
        BYTE           MOD     3
        BYTE   W48
        BYTE   W01
        BYTE   PEND
// 019   ----------------------------------------
        BYTE   PATT
         POIN2  cvbrprayinghands_1_11
// 020   ----------------------------------------
        BYTE   PATT
         POIN2  cvbrprayinghands_1_12
// 021   ----------------------------------------
        BYTE   PATT
         POIN2  cvbrprayinghands_1_9
// 022   ----------------------------------------
        BYTE   PATT
         POIN2  cvbrprayinghands_1_18
// 023   ----------------------------------------
        BYTE   W05
        BYTE           VOL     52
        BYTE   W06
        BYTE                   50
        BYTE   W06
        BYTE                   48
        BYTE   W06
        BYTE           MOD     5
        BYTE           VOL     46
        BYTE   W06
        BYTE                   44
        BYTE   W06
        BYTE                   42
        BYTE   W06
        BYTE                   40
        BYTE   W06
        BYTE                   38
        BYTE   W06
        BYTE                   36
        BYTE   W06
        BYTE                   34
        BYTE   W06
        BYTE                   32
        BYTE   W06
        BYTE                   30
        BYTE   W06
        BYTE                   28
        BYTE   W06
        BYTE                   26
        BYTE   W06
        BYTE                   24
        BYTE   W07
// 024   ----------------------------------------
        BYTE           EOT     An3
        BYTE   W96
// 025   ----------------------------------------
        BYTE   W96
// 026   ----------------------------------------
        BYTE   W96
// 027   ----------------------------------------
        BYTE   W96
// 028   ----------------------------------------
        BYTE           VOICE   46
        BYTE   W96
// 029   ----------------------------------------
        BYTE   W96
// 030   ----------------------------------------
        BYTE   W92
        BYTE   W03
        BYTE           MOD     1
        BYTE           VOL     56
        BYTE   W01
// 031   ----------------------------------------
        BYTE           VOICE   68
        BYTE           N06     En4   v120
        BYTE   W06
        BYTE                   Cn4
        BYTE   W06
        BYTE                   An3
        BYTE   W06
        BYTE                   Dn4
        BYTE   W06
        BYTE                   Cn4
        BYTE   W06
        BYTE                   An3
        BYTE   W06
        BYTE                   Cn4
        BYTE   W06
        BYTE                   Bn3
        BYTE   W06
        BYTE                   Gn3
        BYTE   W06
        BYTE                   Dn4
        BYTE   W06
        BYTE                   Cn4
        BYTE   W06
        BYTE                   Bn3
        BYTE   W06
        BYTE           N12     An3
        BYTE   W12
        BYTE                   Gn3
        BYTE   W12
// 032   ----------------------------------------
        BYTE           VOICE   64
        BYTE           N06     Fn3
        BYTE   W06
        BYTE                   An2
        BYTE   W06
        BYTE                   Cn3
        BYTE   W06
        BYTE                   Fn3
        BYTE   W06
        BYTE                   Gn3
        BYTE   W06
        BYTE           N12     An3
        BYTE   W12
        BYTE                   Gn3
        BYTE   W12
        BYTE           N06     Bn2
        BYTE   W06
        BYTE                   Dn3
        BYTE   W06
        BYTE                   Gn3
        BYTE   W06
        BYTE                   An3
        BYTE   W06
        BYTE           N12     Bn3
        BYTE   W12
        BYTE                   An3
        BYTE   W06
// 033   ----------------------------------------
cvbrprayinghands_1_33:
        BYTE   W06
        BYTE           N06     Cs3   v120
        BYTE   W06
        BYTE                   En3
        BYTE   W06
        BYTE                   An3
        BYTE   W06
        BYTE                   Bn3
        BYTE   W06
        BYTE           N12     Cs4
        BYTE   W12
        BYTE           N09     Cs4   v060
        BYTE   W12
        BYTE           N06     Dn4   v120
        BYTE   W06
        BYTE                   Cs4
        BYTE   W06
        BYTE                   Bn3
        BYTE   W06
        BYTE                   Cs4
        BYTE   W06
        BYTE                   Bn3
        BYTE   W06
        BYTE                   An3
        BYTE   W06
        BYTE                   Gn3
        BYTE   W06
        BYTE   PEND
// 034   ----------------------------------------
        BYTE                   Fn3
        BYTE   W06
        BYTE                   An2
        BYTE   W06
        BYTE                   Cn3
        BYTE   W06
        BYTE                   Fn3
        BYTE   W06
        BYTE                   Gn3
        BYTE   W06
        BYTE           N12     An3
        BYTE   W12
        BYTE                   Gn3
        BYTE   W12
        BYTE           N06     Bn2
        BYTE   W06
        BYTE                   Dn3
        BYTE   W06
        BYTE                   Gn3
        BYTE   W06
        BYTE                   An3
        BYTE   W06
        BYTE           N12     Bn3
        BYTE   W12
        BYTE           N54     An3
        BYTE   W06
// 035   ----------------------------------------
        BYTE   W48
        BYTE           N06     En4
        BYTE   W06
        BYTE                   En3
        BYTE   W06
        BYTE                   Dn4
        BYTE   W06
        BYTE                   En3
        BYTE   W06
        BYTE                   Cn4
        BYTE   W06
        BYTE                   En3
        BYTE   W06
        BYTE                   Bn3
        BYTE   W06
        BYTE                   Gn3
        BYTE   W06
// 036   ----------------------------------------
        BYTE                   Fn3
        BYTE   W06
        BYTE                   An2
        BYTE   W06
        BYTE                   Cn3
        BYTE   W06
        BYTE                   Fn3
        BYTE   W06
        BYTE                   Gn3
        BYTE   W06
        BYTE           N12     An3
        BYTE   W12
        BYTE                   Gn3
        BYTE   W12
        BYTE           N06     Bn2
        BYTE   W06
        BYTE                   Dn3
        BYTE   W06
        BYTE                   Gn3
        BYTE   W06
        BYTE                   An3
        BYTE   W06
        BYTE           N12     Bn3
        BYTE   W12
        BYTE                   An3
        BYTE   W06
// 037   ----------------------------------------
        BYTE   PATT
         POIN2  cvbrprayinghands_1_33
// 038   ----------------------------------------
        BYTE           N06     Fn3   v120
        BYTE   W06
        BYTE                   An2
        BYTE   W06
        BYTE                   Cn3
        BYTE   W06
        BYTE                   Fn3
        BYTE   W06
        BYTE                   Gn3
        BYTE   W06
        BYTE           N12     An3
        BYTE   W12
        BYTE                   Gn3
        BYTE   W12
        BYTE           N06     Bn2
        BYTE   W06
        BYTE                   Dn3
        BYTE   W06
        BYTE                   Gn3
        BYTE   W06
        BYTE                   An3
        BYTE   W06
        BYTE           N12     Bn3
        BYTE   W12
        BYTE                   As3
        BYTE   W06
// 039   ----------------------------------------
        BYTE   W06
        BYTE           N06     Dn3
        BYTE   W06
        BYTE                   Fn3
        BYTE   W06
        BYTE                   As3
        BYTE   W06
        BYTE                   Cn4
        BYTE   W06
        BYTE           N12     Dn4
        BYTE   W12
        BYTE                   Cn4
        BYTE   W12
        BYTE           N06     En3
        BYTE   W06
        BYTE                   Gn3
        BYTE   W06
        BYTE                   Cn4
        BYTE   W06
        BYTE                   Dn4
        BYTE   W06
        BYTE           N18     En4
        BYTE   W18
// 040   ----------------------------------------
        BYTE           VOICE   46
        BYTE           N66     Fs4
        BYTE   W66
        BYTE           N18     En4
        BYTE   W18
        BYTE           N12     Dn4
        BYTE   W12
// 041   ----------------------------------------
cvbrprayinghands_1_41:
        BYTE           N66     Fn4   v120
        BYTE   W66
        BYTE           N18     En4
        BYTE   W18
        BYTE           N12     Dn4
        BYTE   W12
        BYTE   PEND
// 042   ----------------------------------------
cvbrprayinghands_1_42:
        BYTE           N66     Fs4   v120
        BYTE   W66
        BYTE           N18     En4
        BYTE   W18
        BYTE           N12     Dn4
        BYTE   W12
        BYTE   PEND
// 043   ----------------------------------------
        BYTE           VOICE   65
        BYTE           N06     Cn4   v100
        BYTE   W06
        BYTE                   Fn4
        BYTE   W06
        BYTE                   An4
        BYTE   W06
        BYTE                   Cn5
        BYTE   W06
        BYTE                   Bn4
        BYTE   W06
        BYTE                   Gn4
        BYTE   W06
        BYTE                   Dn4
        BYTE   W06
        BYTE                   Bn4
        BYTE   W06
        BYTE                   En4
        BYTE   W06
        BYTE                   Fn4
        BYTE   W06
        BYTE                   Cn4
        BYTE   W06
        BYTE                   An4
        BYTE   W06
        BYTE                   Dn4
        BYTE   W06
        BYTE                   Cn4
        BYTE   W06
        BYTE                   Dn4
        BYTE   W06
        BYTE                   Bn3
        BYTE   W06
// 044   ----------------------------------------
        BYTE   GoTo
         POIN2  cvbrprayinghands_1_LOOP
        BYTE   FINE

//****************** Track 2 (Midi-Chn.2) ******************//

cvbrprayinghands_2:
        BYTE   KEYSH   cvbrprayinghands_key+0
// 000   ----------------------------------------
        BYTE           VOICE   50
        BYTE           MOD     1
        BYTE           VOL     54
        BYTE           PAN     c_v+48
        BYTE           TIE     Gs1   v064
        BYTE   W96
// 001   ----------------------------------------
        BYTE   W96
// 002   ----------------------------------------
cvbrprayinghands_2_2:
        BYTE           EOT     Gs1
        BYTE           TIE     En1   v064
        BYTE   W96
        BYTE   PEND
// 003   ----------------------------------------
        BYTE   W96
// 004   ----------------------------------------
        BYTE           EOT
        BYTE           TIE     Gs1
        BYTE   W96
// 005   ----------------------------------------
        BYTE   W96
// 006   ----------------------------------------
        BYTE   PATT
         POIN2  cvbrprayinghands_2_2
// 007   ----------------------------------------
        BYTE   W96
// 008   ----------------------------------------
        BYTE           EOT     En1
cvbrprayinghands_2_LOOP:
        BYTE           PAN     c_v+16
        BYTE           VOICE   63
        BYTE           N78     An1   v088
        BYTE   W78
        BYTE           N06     En1
        BYTE   W06
        BYTE                   An1
        BYTE   W06
        BYTE                   Cn2
        BYTE   W06
// 009   ----------------------------------------
cvbrprayinghands_2_9:
        BYTE           N12     Bn1   v088
        BYTE   W18
        BYTE                   Gn1
        BYTE   W18
        BYTE                   Dn1
        BYTE   W24
        BYTE                   Bn1
        BYTE   W18
        BYTE                   Gn1
        BYTE   W18
        BYTE   PEND
// 010   ----------------------------------------
        BYTE           TIE     An1
        BYTE   W96
// 011   ----------------------------------------
        BYTE   W96
// 012   ----------------------------------------
cvbrprayinghands_2_12:
        BYTE   W78
        BYTE           EOT     An1
        BYTE           N06     En1   v088
        BYTE   W06
        BYTE                   An1
        BYTE   W06
        BYTE                   Cn2
        BYTE   W06
        BYTE   PEND
// 013   ----------------------------------------
        BYTE           N12     Bn1
        BYTE   W18
        BYTE                   Gn1
        BYTE   W18
        BYTE                   Dn1
        BYTE   W12
        BYTE                   Bn2
        BYTE   W18
        BYTE                   Gn2
        BYTE   W18
        BYTE                   Dn2
        BYTE   W12
// 014   ----------------------------------------
        BYTE           TIE     En2
        BYTE   W96
// 015   ----------------------------------------
        BYTE   W48
        BYTE           EOT
        BYTE           N48     Dn2
        BYTE   W48
// 016   ----------------------------------------
        BYTE           N78     An1
        BYTE   W78
        BYTE           N06     En1
        BYTE   W06
        BYTE                   An1
        BYTE   W06
        BYTE                   Cn2
        BYTE   W06
// 017   ----------------------------------------
        BYTE   PATT
         POIN2  cvbrprayinghands_2_9
// 018   ----------------------------------------
        BYTE           TIE     An1   v088
        BYTE   W96
// 019   ----------------------------------------
        BYTE   W96
// 020   ----------------------------------------
        BYTE   PATT
         POIN2  cvbrprayinghands_2_12
// 021   ----------------------------------------
        BYTE   PATT
         POIN2  cvbrprayinghands_2_9
// 022   ----------------------------------------
        BYTE           TIE     An1   v088
        BYTE   W96
// 023   ----------------------------------------
        BYTE   W96
// 024   ----------------------------------------
        BYTE           EOT
        BYTE   W96
// 025   ----------------------------------------
        BYTE   W96
// 026   ----------------------------------------
        BYTE   W96
// 027   ----------------------------------------
        BYTE   W96
// 028   ----------------------------------------
        BYTE   W96
// 029   ----------------------------------------
        BYTE   W96
// 030   ----------------------------------------
        BYTE   W92
        BYTE   W03
        BYTE           PAN     c_v+0
        BYTE   W01
// 031   ----------------------------------------
        BYTE           N06     En3
        BYTE   W06
        BYTE                   Cn3
        BYTE   W06
        BYTE                   An2
        BYTE   W06
        BYTE                   Dn3
        BYTE   W06
        BYTE                   Cn3
        BYTE   W06
        BYTE                   An2
        BYTE   W06
        BYTE                   Cn3
        BYTE   W06
        BYTE                   Bn2
        BYTE   W06
        BYTE                   Gn2
        BYTE   W06
        BYTE                   Dn3
        BYTE   W06
        BYTE                   Cn3
        BYTE   W06
        BYTE                   Bn2
        BYTE   W06
        BYTE           N12     An2
        BYTE   W12
        BYTE                   Gn2
        BYTE   W12
// 032   ----------------------------------------
cvbrprayinghands_2_32:
        BYTE           N06     Fn2   v088
        BYTE   W06
        BYTE                   An1
        BYTE   W06
        BYTE                   Cn2
        BYTE   W06
        BYTE                   Fn2
        BYTE   W06
        BYTE                   Gn2
        BYTE   W06
        BYTE           N12     An2
        BYTE   W12
        BYTE                   Gn2
        BYTE   W12
        BYTE           N06     Bn1
        BYTE   W06
        BYTE                   Dn2
        BYTE   W06
        BYTE                   Gn2
        BYTE   W06
        BYTE                   An2
        BYTE   W06
        BYTE           N12     Bn2
        BYTE   W12
        BYTE                   An2
        BYTE   W06
        BYTE   PEND
// 033   ----------------------------------------
cvbrprayinghands_2_33:
        BYTE   W06
        BYTE           N06     Cs2   v088
        BYTE   W06
        BYTE                   En2
        BYTE   W06
        BYTE                   An2
        BYTE   W06
        BYTE                   Bn2
        BYTE   W06
        BYTE           N12     Cs3
        BYTE   W12
        BYTE           N09
        BYTE   W12
        BYTE           N06     Dn3
        BYTE   W06
        BYTE                   Cs3
        BYTE   W06
        BYTE                   Bn2
        BYTE   W06
        BYTE                   Cs3
        BYTE   W06
        BYTE                   Bn2
        BYTE   W06
        BYTE                   An2
        BYTE   W06
        BYTE                   Gn2
        BYTE   W06
        BYTE   PEND
// 034   ----------------------------------------
        BYTE                   Fn2
        BYTE   W06
        BYTE                   An1
        BYTE   W06
        BYTE                   Cn2
        BYTE   W06
        BYTE                   Fn2
        BYTE   W06
        BYTE                   Gn2
        BYTE   W06
        BYTE           N12     An2
        BYTE   W12
        BYTE                   Gn2
        BYTE   W12
        BYTE           N06     Bn1
        BYTE   W06
        BYTE                   Dn2
        BYTE   W06
        BYTE                   Gn2
        BYTE   W06
        BYTE                   An2
        BYTE   W06
        BYTE           N12     Bn2
        BYTE   W12
        BYTE           N54     An2
        BYTE   W06
// 035   ----------------------------------------
        BYTE   W48
        BYTE           N06     En3
        BYTE   W06
        BYTE                   En2
        BYTE   W06
        BYTE                   Dn3
        BYTE   W06
        BYTE                   En2
        BYTE   W06
        BYTE                   Cn3
        BYTE   W06
        BYTE                   En2
        BYTE   W06
        BYTE                   Bn2
        BYTE   W06
        BYTE                   Gn2
        BYTE   W06
// 036   ----------------------------------------
        BYTE   PATT
         POIN2  cvbrprayinghands_2_32
// 037   ----------------------------------------
        BYTE   PATT
         POIN2  cvbrprayinghands_2_33
// 038   ----------------------------------------
        BYTE           N06     Fn2   v088
        BYTE   W06
        BYTE                   An1
        BYTE   W06
        BYTE                   Cn2
        BYTE   W06
        BYTE                   Fn2
        BYTE   W06
        BYTE                   Gn2
        BYTE   W06
        BYTE           N12     An2
        BYTE   W12
        BYTE                   Gn2
        BYTE   W12
        BYTE           N06     Bn1
        BYTE   W06
        BYTE                   Dn2
        BYTE   W06
        BYTE                   Gn2
        BYTE   W06
        BYTE                   An2
        BYTE   W06
        BYTE           N12     Bn2
        BYTE   W12
        BYTE                   As2
        BYTE   W06
// 039   ----------------------------------------
        BYTE   W06
        BYTE           N06     Dn2
        BYTE   W06
        BYTE                   Fn2
        BYTE   W06
        BYTE                   As2
        BYTE   W06
        BYTE                   Cn3
        BYTE   W06
        BYTE           N12     Dn3
        BYTE   W12
        BYTE                   Cn3
        BYTE   W12
        BYTE           N06     En2
        BYTE   W06
        BYTE                   Gn2
        BYTE   W06
        BYTE                   Cn3
        BYTE   W06
        BYTE                   Dn3
        BYTE   W06
        BYTE           N18     En3
        BYTE   W18
// 040   ----------------------------------------
        BYTE   W96
// 041   ----------------------------------------
        BYTE   W96
// 042   ----------------------------------------
        BYTE   W92
        BYTE   W03
        BYTE           PAN     c_v+16
        BYTE   W01
// 043   ----------------------------------------
        BYTE           N06     Cn2
        BYTE   W06
        BYTE                   Fn2
        BYTE   W06
        BYTE                   An2
        BYTE   W06
        BYTE                   Cn3
        BYTE   W06
        BYTE                   Bn2
        BYTE   W06
        BYTE                   Gn2
        BYTE   W06
        BYTE                   Dn2
        BYTE   W06
        BYTE                   Bn2
        BYTE   W06
        BYTE                   En2
        BYTE   W06
        BYTE                   Fn2
        BYTE   W06
        BYTE                   Cn2
        BYTE   W06
        BYTE                   An2
        BYTE   W06
        BYTE                   Dn2
        BYTE   W06
        BYTE                   Cn2
        BYTE   W06
        BYTE                   Dn2
        BYTE   W06
        BYTE                   Bn1
        BYTE   W06
// 044   ----------------------------------------
        BYTE   GoTo
         POIN2  cvbrprayinghands_2_LOOP
        BYTE   FINE

//****************** Track 3 (Midi-Chn.3) ******************//

cvbrprayinghands_3:
        BYTE   KEYSH   cvbrprayinghands_key+0
// 000   ----------------------------------------
        BYTE           VOICE   2
        BYTE           VOL     34
        BYTE           PAN     c_v-1
        BYTE   W96
// 001   ----------------------------------------
        BYTE   W96
// 002   ----------------------------------------
        BYTE   W96
// 003   ----------------------------------------
        BYTE   W96
// 004   ----------------------------------------
        BYTE   W96
// 005   ----------------------------------------
        BYTE   W96
// 006   ----------------------------------------
        BYTE   W96
// 007   ----------------------------------------
        BYTE   W48
        BYTE           N06     An0   v120
        BYTE   W06
        BYTE                   An0
        BYTE   W06
        BYTE                   An0
        BYTE   W06
        BYTE                   An0
        BYTE   W06
        BYTE                   Bn0
        BYTE   W06
        BYTE                   Bn0
        BYTE   W06
        BYTE                   Bn0
        BYTE   W06
        BYTE                   Bn0
        BYTE   W06
// 008   ----------------------------------------
cvbrprayinghands_3_LOOP:
        BYTE           N06     An0   v120
        BYTE   W06
        BYTE                   An0
        BYTE   W06
        BYTE                   An1
        BYTE   W06
        BYTE                   An1
        BYTE   W06
        BYTE                   An0
        BYTE   W06
        BYTE                   An0
        BYTE   W06
        BYTE                   An1
        BYTE   W06
        BYTE                   An1
        BYTE   W06
        BYTE                   An0
        BYTE   W06
        BYTE                   An0
        BYTE   W06
        BYTE                   An1
        BYTE   W06
        BYTE                   An1
        BYTE   W06
        BYTE                   An0
        BYTE   W06
        BYTE                   An0
        BYTE   W06
        BYTE                   An1
        BYTE   W06
        BYTE                   An1
        BYTE   W06
// 009   ----------------------------------------
cvbrprayinghands_3_9:
        BYTE           N06     Gn0   v120
        BYTE   W06
        BYTE                   Gn0
        BYTE   W06
        BYTE                   Gn1
        BYTE   W06
        BYTE                   Gn1
        BYTE   W06
        BYTE                   Gn0
        BYTE   W06
        BYTE                   Gn0
        BYTE   W06
        BYTE                   Gn1
        BYTE   W06
        BYTE                   Gn1
        BYTE   W06
        BYTE                   Gn0
        BYTE   W06
        BYTE                   Gn0
        BYTE   W06
        BYTE                   Gn1
        BYTE   W06
        BYTE                   Gn1
        BYTE   W06
        BYTE                   Gn0
        BYTE   W06
        BYTE                   Gn0
        BYTE   W06
        BYTE                   Gn1
        BYTE   W06
        BYTE                   Gn1
        BYTE   W06
        BYTE   PEND
// 010   ----------------------------------------
cvbrprayinghands_3_10:
        BYTE           N06     Dn0   v120
        BYTE   W06
        BYTE                   Dn0
        BYTE   W06
        BYTE                   Dn1
        BYTE   W06
        BYTE                   Dn1
        BYTE   W06
        BYTE                   Dn0
        BYTE   W06
        BYTE                   Dn0
        BYTE   W06
        BYTE                   Dn1
        BYTE   W06
        BYTE                   Dn1
        BYTE   W06
        BYTE                   Dn0
        BYTE   W06
        BYTE                   Dn0
        BYTE   W06
        BYTE                   Dn1
        BYTE   W06
        BYTE                   Dn1
        BYTE   W06
        BYTE                   Dn0
        BYTE   W06
        BYTE                   Dn0
        BYTE   W06
        BYTE                   Dn1
        BYTE   W06
        BYTE                   Dn1
        BYTE   W06
        BYTE   PEND
// 011   ----------------------------------------
cvbrprayinghands_3_11:
        BYTE           N06     Fn0   v120
        BYTE   W06
        BYTE                   Fn0
        BYTE   W06
        BYTE                   Fn1
        BYTE   W06
        BYTE                   Fn1
        BYTE   W06
        BYTE                   Fn0
        BYTE   W06
        BYTE                   Fn0
        BYTE   W06
        BYTE                   Fn1
        BYTE   W06
        BYTE                   Fn1
        BYTE   W06
        BYTE                   Fn0
        BYTE   W06
        BYTE                   Fn0
        BYTE   W06
        BYTE                   Fn1
        BYTE   W06
        BYTE                   Fn1
        BYTE   W06
        BYTE                   Fn0
        BYTE   W06
        BYTE                   Fn0
        BYTE   W06
        BYTE                   Fn1
        BYTE   W06
        BYTE                   Fn1
        BYTE   W06
        BYTE   PEND
// 012   ----------------------------------------
cvbrprayinghands_3_12:
        BYTE           N06     An0   v120
        BYTE   W06
        BYTE                   An0
        BYTE   W06
        BYTE                   An1
        BYTE   W06
        BYTE                   An1
        BYTE   W06
        BYTE                   An0
        BYTE   W06
        BYTE                   An0
        BYTE   W06
        BYTE                   An1
        BYTE   W06
        BYTE                   An1
        BYTE   W06
        BYTE                   An0
        BYTE   W06
        BYTE                   An0
        BYTE   W06
        BYTE                   An1
        BYTE   W06
        BYTE                   An1
        BYTE   W06
        BYTE                   An0
        BYTE   W06
        BYTE                   An0
        BYTE   W06
        BYTE                   An1
        BYTE   W06
        BYTE                   An1
        BYTE   W06
        BYTE   PEND
// 013   ----------------------------------------
        BYTE   PATT
         POIN2  cvbrprayinghands_3_9
// 014   ----------------------------------------
        BYTE   PATT
         POIN2  cvbrprayinghands_3_10
// 015   ----------------------------------------
cvbrprayinghands_3_15:
        BYTE           N06     Fn0   v120
        BYTE   W06
        BYTE                   Fn0
        BYTE   W06
        BYTE                   Fn1
        BYTE   W06
        BYTE                   Fn1
        BYTE   W06
        BYTE                   Fn0
        BYTE   W06
        BYTE                   Fn0
        BYTE   W06
        BYTE                   Fn1
        BYTE   W06
        BYTE                   Fn1
        BYTE   W06
        BYTE                   Gn0
        BYTE   W06
        BYTE                   Gn0
        BYTE   W06
        BYTE                   Gn1
        BYTE   W06
        BYTE                   Gn1
        BYTE   W06
        BYTE                   Gn0
        BYTE   W06
        BYTE                   Gn0
        BYTE   W06
        BYTE                   Gn1
        BYTE   W06
        BYTE                   Gn1
        BYTE   W06
        BYTE   PEND
// 016   ----------------------------------------
        BYTE   PATT
         POIN2  cvbrprayinghands_3_12
// 017   ----------------------------------------
        BYTE   PATT
         POIN2  cvbrprayinghands_3_9
// 018   ----------------------------------------
        BYTE   PATT
         POIN2  cvbrprayinghands_3_10
// 019   ----------------------------------------
        BYTE   PATT
         POIN2  cvbrprayinghands_3_15
// 020   ----------------------------------------
        BYTE   PATT
         POIN2  cvbrprayinghands_3_11
// 021   ----------------------------------------
        BYTE           N06     En0   v120
        BYTE   W06
        BYTE                   En0
        BYTE   W06
        BYTE                   En1
        BYTE   W06
        BYTE                   En1
        BYTE   W06
        BYTE                   En0
        BYTE   W06
        BYTE                   En0
        BYTE   W06
        BYTE                   En1
        BYTE   W06
        BYTE                   En1
        BYTE   W06
        BYTE                   En0
        BYTE   W06
        BYTE                   En0
        BYTE   W06
        BYTE                   En1
        BYTE   W06
        BYTE                   En1
        BYTE   W06
        BYTE                   En0
        BYTE   W06
        BYTE                   En0
        BYTE   W06
        BYTE                   En1
        BYTE   W06
        BYTE                   En1
        BYTE   W06
// 022   ----------------------------------------
        BYTE   PATT
         POIN2  cvbrprayinghands_3_10
// 023   ----------------------------------------
        BYTE   PATT
         POIN2  cvbrprayinghands_3_10
// 024   ----------------------------------------
        BYTE   W96
// 025   ----------------------------------------
        BYTE   W96
// 026   ----------------------------------------
        BYTE   W96
// 027   ----------------------------------------
        BYTE   W96
// 028   ----------------------------------------
        BYTE           N66     Fn0   v120
        BYTE   W66
        BYTE           N18     An0
        BYTE   W18
        BYTE           N12     Cn1
        BYTE   W12
// 029   ----------------------------------------
        BYTE           N66     En0
        BYTE   W66
        BYTE           N18     Gn0
        BYTE   W18
        BYTE           N12     En0
        BYTE   W12
// 030   ----------------------------------------
        BYTE           N66     Gn0
        BYTE   W66
        BYTE           N18     Bn0
        BYTE   W18
        BYTE           N12     Dn1
        BYTE   W12
// 031   ----------------------------------------
        BYTE           N06     Fn0
        BYTE   W06
        BYTE                   Fn0
        BYTE   W06
        BYTE                   Fn1
        BYTE   W06
        BYTE                   Fn1
        BYTE   W06
        BYTE                   Fn1
        BYTE   W06
        BYTE                   Fn1
        BYTE   W06
        BYTE                   Gn0
        BYTE   W06
        BYTE                   Gn0
        BYTE   W06
        BYTE                   Gn1
        BYTE   W06
        BYTE                   Gn1
        BYTE   W06
        BYTE                   Gn1
        BYTE   W06
        BYTE                   Gn1
        BYTE   W06
        BYTE                   En1
        BYTE   W06
        BYTE                   En1
        BYTE   W06
        BYTE                   En2
        BYTE   W06
        BYTE                   En2
        BYTE   W06
// 032   ----------------------------------------
cvbrprayinghands_3_32:
        BYTE           N06     Fn1   v120
        BYTE   W06
        BYTE                   Fn1
        BYTE   W06
        BYTE                   Fn2
        BYTE   W06
        BYTE                   Fn2
        BYTE   W06
        BYTE                   Fn1
        BYTE   W06
        BYTE                   Fn1
        BYTE   W06
        BYTE                   Fn2
        BYTE   W06
        BYTE                   Fn2
        BYTE   W06
        BYTE                   Cn1
        BYTE   W06
        BYTE                   Cn1
        BYTE   W06
        BYTE                   Cn2
        BYTE   W06
        BYTE                   Cn2
        BYTE   W06
        BYTE                   Gn0
        BYTE   W06
        BYTE                   Gn0
        BYTE   W06
        BYTE                   Gn1
        BYTE   W06
        BYTE                   Gn1
        BYTE   W06
        BYTE   PEND
// 033   ----------------------------------------
cvbrprayinghands_3_33:
        BYTE           N06     An0   v120
        BYTE   W06
        BYTE                   An0
        BYTE   W06
        BYTE                   An1
        BYTE   W06
        BYTE                   An1
        BYTE   W06
        BYTE                   An0
        BYTE   W06
        BYTE                   An0
        BYTE   W06
        BYTE                   An1
        BYTE   W06
        BYTE                   An1
        BYTE   W06
        BYTE                   Bn0
        BYTE   W06
        BYTE                   Bn0
        BYTE   W06
        BYTE                   Bn1
        BYTE   W06
        BYTE                   Bn1
        BYTE   W06
        BYTE                   En1
        BYTE   W06
        BYTE                   En1
        BYTE   W06
        BYTE                   En2
        BYTE   W06
        BYTE                   En2
        BYTE   W06
        BYTE   PEND
// 034   ----------------------------------------
        BYTE                   Dn1
        BYTE   W06
        BYTE                   Dn1
        BYTE   W06
        BYTE                   Dn2
        BYTE   W06
        BYTE                   Dn2
        BYTE   W06
        BYTE                   Dn1
        BYTE   W06
        BYTE                   Dn1
        BYTE   W06
        BYTE                   Dn2
        BYTE   W06
        BYTE                   Dn2
        BYTE   W06
        BYTE                   Gn0
        BYTE   W06
        BYTE                   Gn0
        BYTE   W06
        BYTE                   Gn1
        BYTE   W06
        BYTE                   Gn1
        BYTE   W06
        BYTE                   Gn0
        BYTE   W06
        BYTE                   Gn0
        BYTE   W06
        BYTE                   Gn1
        BYTE   W06
        BYTE                   Gn1
        BYTE   W06
// 035   ----------------------------------------
        BYTE                   An0
        BYTE   W06
        BYTE                   An0
        BYTE   W06
        BYTE                   An1
        BYTE   W06
        BYTE                   An1
        BYTE   W06
        BYTE                   An0
        BYTE   W06
        BYTE                   An0
        BYTE   W06
        BYTE                   An1
        BYTE   W06
        BYTE                   An1
        BYTE   W06
        BYTE                   An0
        BYTE   W06
        BYTE                   Dn2
        BYTE   W06
        BYTE                   Cn2
        BYTE   W06
        BYTE                   An1
        BYTE   W06
        BYTE                   En1
        BYTE   W06
        BYTE                   Dn1
        BYTE   W06
        BYTE                   Cn1
        BYTE   W06
        BYTE                   An0
        BYTE   W06
// 036   ----------------------------------------
        BYTE   PATT
         POIN2  cvbrprayinghands_3_32
// 037   ----------------------------------------
        BYTE   PATT
         POIN2  cvbrprayinghands_3_33
// 038   ----------------------------------------
        BYTE           N06     Fn1   v120
        BYTE   W06
        BYTE                   Fn1
        BYTE   W06
        BYTE                   Fn2
        BYTE   W06
        BYTE                   Fn2
        BYTE   W06
        BYTE                   Fn1
        BYTE   W06
        BYTE                   Fn1
        BYTE   W06
        BYTE                   Fn2
        BYTE   W06
        BYTE                   Fn2
        BYTE   W06
        BYTE                   Gn1
        BYTE   W06
        BYTE                   Gn1
        BYTE   W06
        BYTE                   Gn2
        BYTE   W06
        BYTE                   Gn2
        BYTE   W06
        BYTE                   Gn1
        BYTE   W06
        BYTE                   Gn1
        BYTE   W06
        BYTE                   Gn2
        BYTE   W06
        BYTE                   Gn2
        BYTE   W06
// 039   ----------------------------------------
        BYTE                   As1
        BYTE   W06
        BYTE                   As1
        BYTE   W06
        BYTE                   As2
        BYTE   W06
        BYTE                   As2
        BYTE   W06
        BYTE                   As1
        BYTE   W06
        BYTE                   As1
        BYTE   W06
        BYTE                   As2
        BYTE   W06
        BYTE                   As2
        BYTE   W06
        BYTE                   Cn1
        BYTE   W06
        BYTE                   Cn1
        BYTE   W06
        BYTE                   Cn2
        BYTE   W06
        BYTE                   Cn2
        BYTE   W06
        BYTE                   Cn1
        BYTE   W06
        BYTE                   Cn1
        BYTE   W06
        BYTE                   Cn2
        BYTE   W06
        BYTE                   Cn2
        BYTE   W06
// 040   ----------------------------------------
        BYTE   W96
// 041   ----------------------------------------
        BYTE   W96
// 042   ----------------------------------------
        BYTE   W96
// 043   ----------------------------------------
        BYTE                   Fn1
        BYTE   W06
        BYTE                   Fn1
        BYTE   W06
        BYTE                   Fn2
        BYTE   W06
        BYTE                   Fn2
        BYTE   W06
        BYTE                   Gn1
        BYTE   W06
        BYTE                   Gn1
        BYTE   W06
        BYTE                   Gn2
        BYTE   W06
        BYTE                   Gn2
        BYTE   W06
        BYTE                   Dn1
        BYTE   W06
        BYTE                   Dn1
        BYTE   W06
        BYTE                   Dn2
        BYTE   W06
        BYTE                   Dn2
        BYTE   W06
        BYTE                   Gn1
        BYTE   W06
        BYTE                   Gn1
        BYTE   W06
        BYTE                   Gn2
        BYTE   W06
        BYTE                   Gn2
        BYTE   W06
// 044   ----------------------------------------
        BYTE   GoTo
         POIN2  cvbrprayinghands_3_LOOP
        BYTE   FINE

//****************** Track 4 (Midi-Chn.4) ******************//

cvbrprayinghands_4:
        BYTE   KEYSH   cvbrprayinghands_key+0
// 000   ----------------------------------------
        BYTE           VOICE   63
        BYTE           VOL     24
        BYTE           PAN     c_v-24
        BYTE           TIE     Gs2   v112
        BYTE   W96
// 001   ----------------------------------------
        BYTE   W96
// 002   ----------------------------------------
cvbrprayinghands_4_2:
        BYTE           EOT     Gs2
        BYTE           TIE     En2   v112
        BYTE   W96
        BYTE   PEND
// 003   ----------------------------------------
        BYTE   W96
// 004   ----------------------------------------
        BYTE           EOT
        BYTE           TIE     Gs2
        BYTE   W96
// 005   ----------------------------------------
        BYTE   W96
// 006   ----------------------------------------
        BYTE   PATT
         POIN2  cvbrprayinghands_4_2
// 007   ----------------------------------------
        BYTE   W96
// 008   ----------------------------------------
        BYTE           EOT     En2
cvbrprayinghands_4_LOOP:
        BYTE           VOICE   105
        BYTE           N96     En4   v080
        BYTE   W96
// 009   ----------------------------------------
        BYTE                   Dn4
        BYTE   W96
// 010   ----------------------------------------
        BYTE                   En4
        BYTE   W96
// 011   ----------------------------------------
        BYTE           N48     Cn4
        BYTE   W48
        BYTE                   Dn4
        BYTE   W48
// 012   ----------------------------------------
        BYTE           N96     En4
        BYTE   W96
// 013   ----------------------------------------
        BYTE                   Gn4
        BYTE   W96
// 014   ----------------------------------------
        BYTE                   An4
        BYTE   W96
// 015   ----------------------------------------
cvbrprayinghands_4_15:
        BYTE           N48     Fn4   v080
        BYTE   W48
        BYTE                   Gn4
        BYTE   W48
        BYTE   PEND
// 016   ----------------------------------------
        BYTE           N96     En4
        BYTE   W96
// 017   ----------------------------------------
        BYTE                   Dn4
        BYTE   W96
// 018   ----------------------------------------
        BYTE                   En4
        BYTE   W96
// 019   ----------------------------------------
        BYTE           N48     Cn4
        BYTE   W48
        BYTE           N24     Dn4
        BYTE   W24
        BYTE                   Bn3
        BYTE   W24
// 020   ----------------------------------------
        BYTE           N96     En4
        BYTE   W96
// 021   ----------------------------------------
        BYTE                   Gn4
        BYTE   W96
// 022   ----------------------------------------
        BYTE                   An4
        BYTE   W96
// 023   ----------------------------------------
        BYTE   PATT
         POIN2  cvbrprayinghands_4_15
// 024   ----------------------------------------
        BYTE           VOICE   63
        BYTE           N66     Fn1   v127
        BYTE   W66
        BYTE           N18     An1
        BYTE   W18
        BYTE           N12     Cn2
        BYTE   W12
// 025   ----------------------------------------
        BYTE           N66     En1
        BYTE   W66
        BYTE           N18     Gn1
        BYTE   W18
        BYTE           N12     En1
        BYTE   W12
// 026   ----------------------------------------
        BYTE           N66     Fn1
        BYTE   W66
        BYTE           N18     An1
        BYTE   W18
        BYTE           N12     Cn2
        BYTE   W12
// 027   ----------------------------------------
        BYTE           N48     En2
        BYTE   W48
        BYTE           N18     Bn2
        BYTE   W18
        BYTE                   An2
        BYTE   W18
        BYTE           N12     Cn3
        BYTE   W12
// 028   ----------------------------------------
        BYTE           N96     Cn2
        BYTE   W96
// 029   ----------------------------------------
        BYTE                   Bn1
        BYTE   W96
// 030   ----------------------------------------
        BYTE                   Cn2
        BYTE   W96
// 031   ----------------------------------------
        BYTE                   Dn2
        BYTE   W96
// 032   ----------------------------------------
        BYTE           VOICE   105
        BYTE           N48     Fn4   v080
        BYTE   W48
        BYTE                   Gn4
        BYTE   W48
// 033   ----------------------------------------
        BYTE           N96     An4
        BYTE   W96
// 034   ----------------------------------------
        BYTE   PATT
         POIN2  cvbrprayinghands_4_15
// 035   ----------------------------------------
        BYTE           N48     An4   v080
        BYTE   W48
        BYTE                   Gn4
        BYTE   W48
// 036   ----------------------------------------
        BYTE   PATT
         POIN2  cvbrprayinghands_4_15
// 037   ----------------------------------------
        BYTE           N96     An4   v080
        BYTE   W96
// 038   ----------------------------------------
        BYTE   PATT
         POIN2  cvbrprayinghands_4_15
// 039   ----------------------------------------
        BYTE           N48     As4   v080
        BYTE   W48
        BYTE                   Dn5
        BYTE   W48
// 040   ----------------------------------------
        BYTE   W96
// 041   ----------------------------------------
        BYTE   W96
// 042   ----------------------------------------
        BYTE   W96
// 043   ----------------------------------------
        BYTE   PATT
         POIN2  cvbrprayinghands_4_15
// 044   ----------------------------------------
        BYTE   GoTo
         POIN2  cvbrprayinghands_4_LOOP
        BYTE   FINE

//****************** Track 5 (Midi-Chn.5) ******************//

cvbrprayinghands_5:
        BYTE   KEYSH   cvbrprayinghands_key+0
// 000   ----------------------------------------
        BYTE           VOICE   63
        BYTE           VOL     24
        BYTE           PAN     c_v+24
        BYTE           TIE     Cs2   v112
        BYTE   W96
// 001   ----------------------------------------
        BYTE   W96
// 002   ----------------------------------------
cvbrprayinghands_5_2:
        BYTE           EOT     Cs2
        BYTE           TIE     An1   v112
        BYTE   W96
        BYTE   PEND
// 003   ----------------------------------------
        BYTE   W96
// 004   ----------------------------------------
        BYTE           EOT
        BYTE           TIE     Cs2
        BYTE   W96
// 005   ----------------------------------------
        BYTE   W96
// 006   ----------------------------------------
        BYTE   PATT
         POIN2  cvbrprayinghands_5_2
// 007   ----------------------------------------
        BYTE   W96
// 008   ----------------------------------------
        BYTE           EOT     An1
cvbrprayinghands_5_LOOP:
        BYTE           VOICE   106
        BYTE           N96     Cn5   v080
        BYTE   W96
// 009   ----------------------------------------
        BYTE                   Bn4
        BYTE   W96
// 010   ----------------------------------------
        BYTE                   An4
        BYTE   W96
// 011   ----------------------------------------
        BYTE   PATT
         POIN2  cvbrprayinghands_4_15
// 012   ----------------------------------------
        BYTE           N96     Cn5   v080
        BYTE   W96
// 013   ----------------------------------------
        BYTE                   Dn5
        BYTE   W96
// 014   ----------------------------------------
        BYTE                   En5
        BYTE   W96
// 015   ----------------------------------------
cvbrprayinghands_5_15:
        BYTE           N48     Cn5   v080
        BYTE   W48
        BYTE                   Dn5
        BYTE   W48
        BYTE   PEND
// 016   ----------------------------------------
        BYTE           N96     Cn5
        BYTE   W96
// 017   ----------------------------------------
        BYTE                   Bn4
        BYTE   W96
// 018   ----------------------------------------
        BYTE                   An4
        BYTE   W96
// 019   ----------------------------------------
        BYTE           N48     Fn4
        BYTE   W48
        BYTE           N24     Gn4
        BYTE   W24
        BYTE                   Bn4
        BYTE   W24
// 020   ----------------------------------------
        BYTE           N96     Cn5
        BYTE   W96
// 021   ----------------------------------------
        BYTE                   Dn5
        BYTE   W96
// 022   ----------------------------------------
        BYTE                   En5
        BYTE   W96
// 023   ----------------------------------------
        BYTE   PATT
         POIN2  cvbrprayinghands_5_15
// 024   ----------------------------------------
        BYTE           VOICE   63
        BYTE           N96     Cn2   v127
        BYTE   W96
// 025   ----------------------------------------
        BYTE                   Bn1
        BYTE   W96
// 026   ----------------------------------------
        BYTE                   Cn2
        BYTE   W96
// 027   ----------------------------------------
        BYTE                   Bn1
        BYTE   W96
// 028   ----------------------------------------
        BYTE                   Fn1
        BYTE   W96
// 029   ----------------------------------------
        BYTE                   En1
        BYTE   W96
// 030   ----------------------------------------
        BYTE                   Fn1
        BYTE   W96
// 031   ----------------------------------------
        BYTE                   Gn1
        BYTE   W96
// 032   ----------------------------------------
        BYTE           VOICE   106
        BYTE           N48     Cn5   v080
        BYTE   W48
        BYTE                   Dn5
        BYTE   W48
// 033   ----------------------------------------
        BYTE           N96     En5
        BYTE   W96
// 034   ----------------------------------------
        BYTE   PATT
         POIN2  cvbrprayinghands_5_15
// 035   ----------------------------------------
        BYTE           N48     En5   v080
        BYTE   W48
        BYTE                   Dn5
        BYTE   W48
// 036   ----------------------------------------
        BYTE   PATT
         POIN2  cvbrprayinghands_5_15
// 037   ----------------------------------------
        BYTE           N96     En5   v080
        BYTE   W96
// 038   ----------------------------------------
        BYTE   PATT
         POIN2  cvbrprayinghands_5_15
// 039   ----------------------------------------
        BYTE           N48     En5   v080
        BYTE   W48
        BYTE                   Gn5
        BYTE   W48
// 040   ----------------------------------------
        BYTE   W96
// 041   ----------------------------------------
        BYTE   W96
// 042   ----------------------------------------
        BYTE   W96
// 043   ----------------------------------------
        BYTE   PATT
         POIN2  cvbrprayinghands_5_15
// 044   ----------------------------------------
        BYTE   GoTo
         POIN2  cvbrprayinghands_5_LOOP
        BYTE   FINE

//****************** Track 6 (Midi-Chn.6) ******************//

cvbrprayinghands_6:
        BYTE   KEYSH   cvbrprayinghands_key+0
// 000   ----------------------------------------
        BYTE           VOICE   100
        BYTE           VOL     20
        BYTE           N06     En4   v100
        BYTE   W06
        BYTE                   Cs4
        BYTE   W06
        BYTE                   Gs3
        BYTE   W06
        BYTE                   Ds4
        BYTE   W06
        BYTE                   Cs4
        BYTE   W06
        BYTE                   Gs3
        BYTE   W06
        BYTE                   Fs4
        BYTE   W06
        BYTE                   Cs4
        BYTE   W06
        BYTE                   Gs3
        BYTE   W06
        BYTE                   Ds4
        BYTE   W06
        BYTE                   Cs4
        BYTE   W06
        BYTE                   Gs3
        BYTE   W06
        BYTE                   En4
        BYTE   W06
        BYTE                   Ds4
        BYTE   W06
        BYTE                   Cs4
        BYTE   W06
        BYTE                   Gs3
        BYTE   W06
// 001   ----------------------------------------
cvbrprayinghands_6_1:
        BYTE           N06     En4   v100
        BYTE   W06
        BYTE                   Cs4
        BYTE   W06
        BYTE                   Gs3
        BYTE   W06
        BYTE                   Ds4
        BYTE   W06
        BYTE                   Cs4
        BYTE   W06
        BYTE                   Gs3
        BYTE   W06
        BYTE                   Fs4
        BYTE   W06
        BYTE                   Cs4
        BYTE   W06
        BYTE                   Gs3
        BYTE   W06
        BYTE                   Ds4
        BYTE   W06
        BYTE                   Cs4
        BYTE   W06
        BYTE                   Gs3
        BYTE   W06
        BYTE                   En4
        BYTE   W06
        BYTE                   Ds4
        BYTE   W06
        BYTE                   Bn3
        BYTE   W06
        BYTE                   Fs3
        BYTE   W06
        BYTE   PEND
// 002   ----------------------------------------
cvbrprayinghands_6_2:
        BYTE           N06     En4   v100
        BYTE   W06
        BYTE                   An3
        BYTE   W06
        BYTE                   En3
        BYTE   W06
        BYTE                   Ds4
        BYTE   W06
        BYTE                   An3
        BYTE   W06
        BYTE                   En3
        BYTE   W06
        BYTE                   Fs4
        BYTE   W06
        BYTE                   An3
        BYTE   W06
        BYTE                   En3
        BYTE   W06
        BYTE                   Ds4
        BYTE   W06
        BYTE                   An3
        BYTE   W06
        BYTE                   En3
        BYTE   W06
        BYTE                   En4
        BYTE   W06
        BYTE                   Ds4
        BYTE   W06
        BYTE                   Bn3
        BYTE   W06
        BYTE                   Fs3
        BYTE   W06
        BYTE   PEND
// 003   ----------------------------------------
cvbrprayinghands_6_3:
        BYTE           N06     En4   v100
        BYTE   W06
        BYTE                   An3
        BYTE   W06
        BYTE                   En3
        BYTE   W06
        BYTE                   Ds4
        BYTE   W06
        BYTE                   An3
        BYTE   W06
        BYTE                   En3
        BYTE   W06
        BYTE                   Fs4
        BYTE   W06
        BYTE                   An3
        BYTE   W06
        BYTE                   En3
        BYTE   W06
        BYTE                   Ds4
        BYTE   W06
        BYTE                   An3
        BYTE   W06
        BYTE                   En3
        BYTE   W06
        BYTE                   Cs5
        BYTE   W06
        BYTE                   Fs4
        BYTE   W06
        BYTE                   Gs4
        BYTE   W06
        BYTE                   Ds4
        BYTE   W06
        BYTE   PEND
// 004   ----------------------------------------
        BYTE                   En4
        BYTE   W06
        BYTE                   Cs4
        BYTE   W06
        BYTE                   Gs3
        BYTE   W06
        BYTE                   Ds4
        BYTE   W06
        BYTE                   Cs4
        BYTE   W06
        BYTE                   Gs3
        BYTE   W06
        BYTE                   Fs4
        BYTE   W06
        BYTE                   Cs4
        BYTE   W06
        BYTE                   Gs3
        BYTE   W06
        BYTE                   Ds4
        BYTE   W06
        BYTE                   Cs4
        BYTE   W06
        BYTE                   Gs3
        BYTE   W06
        BYTE                   En4
        BYTE   W06
        BYTE                   Ds4
        BYTE   W06
        BYTE                   Cs4
        BYTE   W06
        BYTE                   Gs3
        BYTE   W06
// 005   ----------------------------------------
        BYTE   PATT
         POIN2  cvbrprayinghands_6_1
// 006   ----------------------------------------
        BYTE   PATT
         POIN2  cvbrprayinghands_6_2
// 007   ----------------------------------------
        BYTE   PATT
         POIN2  cvbrprayinghands_6_3
// 008   ----------------------------------------
cvbrprayinghands_6_LOOP:
        BYTE   W96
// 009   ----------------------------------------
        BYTE   W96
// 010   ----------------------------------------
        BYTE   W96
// 011   ----------------------------------------
        BYTE   W96
// 012   ----------------------------------------
        BYTE   W96
// 013   ----------------------------------------
        BYTE   W96
// 014   ----------------------------------------
        BYTE   W96
// 015   ----------------------------------------
        BYTE   W96
// 016   ----------------------------------------
        BYTE   W96
// 017   ----------------------------------------
        BYTE   W96
// 018   ----------------------------------------
        BYTE   W96
// 019   ----------------------------------------
        BYTE   W96
// 020   ----------------------------------------
        BYTE   W96
// 021   ----------------------------------------
        BYTE   W96
// 022   ----------------------------------------
        BYTE   W96
// 023   ----------------------------------------
        BYTE   W96
// 024   ----------------------------------------
        BYTE   W06
        BYTE           VOICE   46
        BYTE           N04     En2   v127
        BYTE   W06
        BYTE                   Fn2
        BYTE   W06
        BYTE                   An2
        BYTE   W06
        BYTE                   Cn3
        BYTE   W06
        BYTE                   En3
        BYTE   W06
        BYTE                   Fn3
        BYTE   W06
        BYTE                   An3
        BYTE   W06
        BYTE                   Cn4
        BYTE   W06
        BYTE                   En4
        BYTE   W06
        BYTE                   En3
        BYTE   W06
        BYTE                   Fn3
        BYTE   W06
        BYTE                   Dn4
        BYTE   W06
        BYTE                   Cn4
        BYTE   W06
        BYTE                   Bn3
        BYTE   W06
        BYTE                   An3
        BYTE   W06
// 025   ----------------------------------------
cvbrprayinghands_6_25:
        BYTE           N04     Gn3   v127
        BYTE   W06
        BYTE                   Dn2
        BYTE   W06
        BYTE                   En2
        BYTE   W06
        BYTE                   Gs2
        BYTE   W06
        BYTE                   Bn2
        BYTE   W06
        BYTE                   Dn3
        BYTE   W06
        BYTE                   En3
        BYTE   W06
        BYTE                   Gs3
        BYTE   W06
        BYTE                   Bn3
        BYTE   W06
        BYTE                   En4
        BYTE   W06
        BYTE                   An3
        BYTE   W06
        BYTE                   Bn3
        BYTE   W06
        BYTE                   Gn3
        BYTE   W06
        BYTE                   Cn4
        BYTE   W06
        BYTE                   Fs3
        BYTE   W06
        BYTE                   Bn3
        BYTE   W06
        BYTE   PEND
// 026   ----------------------------------------
        BYTE                   Fn3
        BYTE   W06
        BYTE                   En2
        BYTE   W06
        BYTE                   Fn2
        BYTE   W06
        BYTE                   An2
        BYTE   W06
        BYTE                   Cn3
        BYTE   W06
        BYTE                   En3
        BYTE   W06
        BYTE                   Fn3
        BYTE   W06
        BYTE                   An3
        BYTE   W06
        BYTE                   Cn4
        BYTE   W06
        BYTE                   En4
        BYTE   W06
        BYTE                   En3
        BYTE   W06
        BYTE                   Fn3
        BYTE   W06
        BYTE                   Dn4
        BYTE   W06
        BYTE                   Cn4
        BYTE   W06
        BYTE                   Bn3
        BYTE   W06
        BYTE                   An3
        BYTE   W06
// 027   ----------------------------------------
        BYTE   PATT
         POIN2  cvbrprayinghands_6_25
// 028   ----------------------------------------
        BYTE           VOICE   100
        BYTE           N06     Cn4   v100
        BYTE   W06
        BYTE                   An3
        BYTE   W06
        BYTE                   Fn3
        BYTE   W06
        BYTE                   Bn3
        BYTE   W06
        BYTE                   An3
        BYTE   W06
        BYTE                   Fn3
        BYTE   W06
        BYTE                   Cn4
        BYTE   W06
        BYTE                   An3
        BYTE   W06
        BYTE                   Fn3
        BYTE   W06
        BYTE                   Bn3
        BYTE   W06
        BYTE                   An3
        BYTE   W06
        BYTE                   Fn3
        BYTE   W06
        BYTE                   Bn3
        BYTE   W06
        BYTE                   Cn4
        BYTE   W06
        BYTE                   Dn4
        BYTE   W06
        BYTE                   Bn3
        BYTE   W06
// 029   ----------------------------------------
        BYTE                   Bn3
        BYTE   W06
        BYTE                   Gs3
        BYTE   W06
        BYTE                   En3
        BYTE   W06
        BYTE                   An3
        BYTE   W06
        BYTE                   Gs3
        BYTE   W06
        BYTE                   En3
        BYTE   W06
        BYTE                   Bn3
        BYTE   W06
        BYTE                   Gs3
        BYTE   W06
        BYTE                   En3
        BYTE   W06
        BYTE                   An3
        BYTE   W06
        BYTE                   Gs3
        BYTE   W06
        BYTE                   En3
        BYTE   W06
        BYTE                   Gs3
        BYTE   W06
        BYTE                   An3
        BYTE   W06
        BYTE                   Bn3
        BYTE   W06
        BYTE                   Gs3
        BYTE   W06
// 030   ----------------------------------------
        BYTE                   Dn4
        BYTE   W06
        BYTE                   Bn3
        BYTE   W06
        BYTE                   Gn3
        BYTE   W06
        BYTE                   Cn4
        BYTE   W06
        BYTE                   Bn3
        BYTE   W06
        BYTE                   Gn3
        BYTE   W06
        BYTE                   Dn4
        BYTE   W06
        BYTE                   Bn3
        BYTE   W06
        BYTE                   Gn3
        BYTE   W06
        BYTE                   Cn4
        BYTE   W06
        BYTE                   Bn3
        BYTE   W06
        BYTE                   Gn3
        BYTE   W06
        BYTE                   Cn4
        BYTE   W06
        BYTE                   Dn4
        BYTE   W06
        BYTE                   En4
        BYTE   W06
        BYTE                   Cn4
        BYTE   W06
// 031   ----------------------------------------
        BYTE                   En4
        BYTE   W06
        BYTE                   Cn4
        BYTE   W06
        BYTE                   An3
        BYTE   W06
        BYTE                   Dn4
        BYTE   W06
        BYTE                   Cn4
        BYTE   W06
        BYTE                   An3
        BYTE   W06
        BYTE                   Cn4
        BYTE   W06
        BYTE                   Bn3
        BYTE   W06
        BYTE                   Gn3
        BYTE   W06
        BYTE                   Dn4
        BYTE   W06
        BYTE                   Cn4
        BYTE   W06
        BYTE                   Bn3
        BYTE   W06
        BYTE           N12     An3
        BYTE   W12
        BYTE                   Gn3
        BYTE   W12
// 032   ----------------------------------------
        BYTE   W96
// 033   ----------------------------------------
        BYTE   W96
// 034   ----------------------------------------
        BYTE   W96
// 035   ----------------------------------------
        BYTE   W96
// 036   ----------------------------------------
        BYTE   W96
// 037   ----------------------------------------
        BYTE   W96
// 038   ----------------------------------------
        BYTE   W96
// 039   ----------------------------------------
        BYTE   W96
// 040   ----------------------------------------
        BYTE   PATT
         POIN2  cvbrprayinghands_1_42
// 041   ----------------------------------------
        BYTE   PATT
         POIN2  cvbrprayinghands_1_41
// 042   ----------------------------------------
        BYTE   PATT
         POIN2  cvbrprayinghands_1_42
// 043   ----------------------------------------
        BYTE   W96
// 044   ----------------------------------------
        BYTE   GoTo
         POIN2  cvbrprayinghands_6_LOOP
        BYTE   FINE

//****************** Track 7 (Midi-Chn.7) ******************//

cvbrprayinghands_7:
        BYTE   KEYSH   cvbrprayinghands_key+0
// 000   ----------------------------------------
        BYTE           VOICE   124
        BYTE           VOL     52
        BYTE   W96
// 001   ----------------------------------------
        BYTE   W96
// 002   ----------------------------------------
        BYTE   W96
// 003   ----------------------------------------
        BYTE   W96
// 004   ----------------------------------------
cvbrprayinghands_7_4:
        BYTE           N03     Fs5   v048
        BYTE   W06
        BYTE                   Fs5
        BYTE   W06
        BYTE                   Fs5
        BYTE   W06
        BYTE                   Fs5
        BYTE   W06
        BYTE                   Fs5
        BYTE   W06
        BYTE                   Fs5
        BYTE   W06
        BYTE                   Fs5
        BYTE   W06
        BYTE                   Fs5
        BYTE   W06
        BYTE                   Fs5
        BYTE   W06
        BYTE                   Fs5
        BYTE   W06
        BYTE                   Fs5
        BYTE   W06
        BYTE                   Fs5
        BYTE   W06
        BYTE                   Fs5
        BYTE   W06
        BYTE                   Fs5
        BYTE   W06
        BYTE                   Fs5
        BYTE   W06
        BYTE                   Fs5
        BYTE   W06
        BYTE   PEND
// 005   ----------------------------------------
        BYTE   PATT
         POIN2  cvbrprayinghands_7_4
// 006   ----------------------------------------
        BYTE   PATT
         POIN2  cvbrprayinghands_7_4
// 007   ----------------------------------------
        BYTE           N03     Fs5   v048
        BYTE   W06
        BYTE                   Fs5
        BYTE   W06
        BYTE                   Fs5
        BYTE   W06
        BYTE                   Fs5
        BYTE   W06
        BYTE                   Fs5
        BYTE   W06
        BYTE                   Fs5
        BYTE   W06
        BYTE                   Fs5
        BYTE   W06
        BYTE                   Fs5
        BYTE   W06
        BYTE           N06     Dn1   v120
        BYTE   W06
        BYTE                   Dn1
        BYTE   W06
        BYTE                   Dn1
        BYTE   W06
        BYTE                   Dn1
        BYTE   W06
        BYTE                   Dn1
        BYTE   W06
        BYTE                   Dn1
        BYTE   W06
        BYTE                   Dn1
        BYTE   W06
        BYTE                   Dn1
        BYTE   W06
// 008   ----------------------------------------
cvbrprayinghands_7_LOOP:
        BYTE           N06     Cn1   v127
        BYTE   W06
        BYTE                   Cn1
        BYTE   W06
        BYTE           N03     Fs5   v048
        BYTE   W06
        BYTE                   Fs5
        BYTE   W06
        BYTE           N06     Dn1   v120
        BYTE   W06
        BYTE           N03     Fs5   v048
        BYTE   W06
        BYTE                   Fs5
        BYTE   W06
        BYTE           N06     Cn1   v127
        BYTE   W06
        BYTE           N03     Fs5   v048
        BYTE   W06
        BYTE                   Fs5
        BYTE   W06
        BYTE                   Fs5
        BYTE   W06
        BYTE                   Fs5
        BYTE   W06
        BYTE           N06     Dn1   v120
        BYTE   W06
        BYTE           N03     Fs5   v048
        BYTE   W06
        BYTE                   Fs5
        BYTE   W06
        BYTE                   Fs5
        BYTE   W06
// 009   ----------------------------------------
cvbrprayinghands_7_9:
        BYTE           N06     Cn1   v127
        BYTE   W06
        BYTE                   Cn1
        BYTE   W06
        BYTE           N03     Fs5   v048
        BYTE   W06
        BYTE                   Fs5
        BYTE   W06
        BYTE           N06     Dn1   v120
        BYTE   W06
        BYTE           N03     Fs5   v048
        BYTE   W06
        BYTE                   Fs5
        BYTE   W06
        BYTE           N06     Cn1   v127
        BYTE   W06
        BYTE                   Cn1
        BYTE   W06
        BYTE                   Cn1
        BYTE   W06
        BYTE           N03     Fs5   v048
        BYTE   W06
        BYTE                   Fs5
        BYTE   W06
        BYTE           N06     Dn1   v120
        BYTE   W06
        BYTE           N03     Fs5   v048
        BYTE   W06
        BYTE                   Fs5
        BYTE   W06
        BYTE           N06     Dn1   v120
        BYTE   W06
        BYTE   PEND
// 010   ----------------------------------------
cvbrprayinghands_7_10:
        BYTE           N06     Cn1   v127
        BYTE   W06
        BYTE                   Cn1
        BYTE   W06
        BYTE           N03     Fs5   v048
        BYTE   W06
        BYTE                   Fs5
        BYTE   W06
        BYTE           N06     Dn1   v120
        BYTE   W06
        BYTE           N03     Fs5   v048
        BYTE   W06
        BYTE                   Fs5
        BYTE   W06
        BYTE           N06     Cn1   v127
        BYTE   W06
        BYTE           N03     Fs5   v048
        BYTE   W06
        BYTE                   Fs5
        BYTE   W06
        BYTE                   Fs5
        BYTE   W06
        BYTE                   Fs5
        BYTE   W06
        BYTE           N06     Dn1   v120
        BYTE   W06
        BYTE           N03     Fs5   v048
        BYTE   W06
        BYTE                   Fs5
        BYTE   W06
        BYTE                   Fs5
        BYTE   W06
        BYTE   PEND
// 011   ----------------------------------------
        BYTE   PATT
         POIN2  cvbrprayinghands_7_9
// 012   ----------------------------------------
        BYTE   PATT
         POIN2  cvbrprayinghands_7_10
// 013   ----------------------------------------
        BYTE   PATT
         POIN2  cvbrprayinghands_7_9
// 014   ----------------------------------------
        BYTE   PATT
         POIN2  cvbrprayinghands_7_10
// 015   ----------------------------------------
        BYTE   PATT
         POIN2  cvbrprayinghands_7_9
// 016   ----------------------------------------
        BYTE   PATT
         POIN2  cvbrprayinghands_7_10
// 017   ----------------------------------------
        BYTE   PATT
         POIN2  cvbrprayinghands_7_9
// 018   ----------------------------------------
        BYTE   PATT
         POIN2  cvbrprayinghands_7_10
// 019   ----------------------------------------
        BYTE   PATT
         POIN2  cvbrprayinghands_7_9
// 020   ----------------------------------------
        BYTE   PATT
         POIN2  cvbrprayinghands_7_10
// 021   ----------------------------------------
        BYTE   PATT
         POIN2  cvbrprayinghands_7_9
// 022   ----------------------------------------
        BYTE   PATT
         POIN2  cvbrprayinghands_7_10
// 023   ----------------------------------------
        BYTE           N06     Cn1   v127
        BYTE   W06
        BYTE                   Cn1
        BYTE   W06
        BYTE           N03     Fs5   v048
        BYTE   W06
        BYTE                   Fs5
        BYTE   W06
        BYTE           N06     Dn1   v120
        BYTE   W06
        BYTE           N03     Fs5   v048
        BYTE   W06
        BYTE                   Fs5
        BYTE   W06
        BYTE           N06     Cn1   v127
        BYTE   W06
        BYTE           N03     Fs5   v048
        BYTE   W06
        BYTE                   Fs5
        BYTE   W06
        BYTE                   Fs5
        BYTE   W06
        BYTE                   Fs5
        BYTE   W06
        BYTE           N06     Dn1   v120
        BYTE   W06
        BYTE                   Dn1
        BYTE   W06
        BYTE                   Dn1
        BYTE   W06
        BYTE                   Dn1
        BYTE   W06
// 024   ----------------------------------------
        BYTE                   Cn1   v127
        BYTE   W06
        BYTE           N03     Fs5   v048
        BYTE   W06
        BYTE                   Fs5
        BYTE   W06
        BYTE                   Fs5
        BYTE   W06
        BYTE                   Fs5
        BYTE   W06
        BYTE                   Fs5
        BYTE   W06
        BYTE                   Fs5
        BYTE   W06
        BYTE                   Fs5
        BYTE   W06
        BYTE           N06     Dn1   v120
        BYTE           N06     As1   v048
        BYTE   W06
        BYTE           N03     Fs5
        BYTE           N06     Dn1   v088
        BYTE           N06     As1   v032
        BYTE   W06
        BYTE           N03     Fs5   v040
        BYTE           N06     Dn1   v072
        BYTE   W06
        BYTE           N03     Fs5   v024
        BYTE           N06     Dn1   v056
        BYTE   W06
        BYTE           N03     Fs5   v048
        BYTE   W06
        BYTE                   Fs5
        BYTE   W06
        BYTE                   Fs5
        BYTE   W06
        BYTE                   Fs5
        BYTE   W06
// 025   ----------------------------------------
cvbrprayinghands_7_25:
        BYTE           N06     Cn1   v127
        BYTE   W06
        BYTE           N03     Fs5   v048
        BYTE   W06
        BYTE                   Fs5
        BYTE   W06
        BYTE                   Fs5
        BYTE   W06
        BYTE                   Fs5
        BYTE   W06
        BYTE                   Fs5
        BYTE   W06
        BYTE                   Fs5
        BYTE   W06
        BYTE                   Fs5
        BYTE   W06
        BYTE           N06     Dn1   v120
        BYTE           N06     As1   v048
        BYTE   W06
        BYTE           N03     Fs5
        BYTE           N06     Dn1   v088
        BYTE           N06     As1   v032
        BYTE   W06
        BYTE           N03     Fs5   v048
        BYTE           N06     Dn1   v072
        BYTE   W06
        BYTE           N03     Fs5   v048
        BYTE           N06     Dn1   v056
        BYTE   W06
        BYTE           N03     Fs5   v048
        BYTE   W06
        BYTE                   Fs5
        BYTE   W06
        BYTE                   Fs5
        BYTE   W06
        BYTE                   Fs5
        BYTE   W06
        BYTE   PEND
// 026   ----------------------------------------
        BYTE   PATT
         POIN2  cvbrprayinghands_7_25
// 027   ----------------------------------------
        BYTE   PATT
         POIN2  cvbrprayinghands_7_25
// 028   ----------------------------------------
        BYTE   PATT
         POIN2  cvbrprayinghands_7_25
// 029   ----------------------------------------
        BYTE   PATT
         POIN2  cvbrprayinghands_7_25
// 030   ----------------------------------------
        BYTE           N06     Cn1   v127
        BYTE   W06
        BYTE           N03     Fs5   v048
        BYTE   W06
        BYTE                   Fs5
        BYTE   W06
        BYTE                   Fs5
        BYTE   W06
        BYTE           N06     Cn1   v127
        BYTE   W06
        BYTE           N03     Fs5   v048
        BYTE   W06
        BYTE                   Fs5
        BYTE   W06
        BYTE                   Fs5
        BYTE   W06
        BYTE           N06     Cn1   v127
        BYTE   W06
        BYTE           N03     Fs5   v048
        BYTE   W06
        BYTE                   Fs5
        BYTE   W06
        BYTE                   Fs5
        BYTE   W06
        BYTE           N06     Cn1   v127
        BYTE   W06
        BYTE           N03     Fs5   v048
        BYTE   W06
        BYTE                   Fs5
        BYTE   W06
        BYTE                   Fs5
        BYTE   W06
// 031   ----------------------------------------
        BYTE           N06     Dn1   v120
        BYTE           N06     As1   v064
        BYTE   W06
        BYTE                   Cn1   v127
        BYTE           N06     Fs5   v048
        BYTE   W06
        BYTE                   Cn1   v127
        BYTE   W06
        BYTE                   Dn1   v120
        BYTE           N06     As1   v064
        BYTE   W06
        BYTE                   Cn1   v127
        BYTE           N06     Fs5   v048
        BYTE   W06
        BYTE                   Cn1   v127
        BYTE   W06
        BYTE                   Dn1   v120
        BYTE           N06     As1   v064
        BYTE   W06
        BYTE                   Cn1   v127
        BYTE           N06     Fs5   v048
        BYTE   W06
        BYTE                   Cn1   v127
        BYTE   W06
        BYTE                   Dn1   v120
        BYTE           N06     As1   v064
        BYTE   W06
        BYTE                   Cn1   v127
        BYTE           N06     Fs5   v048
        BYTE   W06
        BYTE                   Cn1   v127
        BYTE   W06
        BYTE                   Dn1   v120
        BYTE           N06     As1   v064
        BYTE   W06
        BYTE                   Dn1   v120
        BYTE           N06     As1   v064
        BYTE   W06
        BYTE                   Dn1   v120
        BYTE           N06     As1   v064
        BYTE   W06
        BYTE                   Dn1   v120
        BYTE           N06     As1   v032
        BYTE   W06
// 032   ----------------------------------------
        BYTE   PATT
         POIN2  cvbrprayinghands_7_10
// 033   ----------------------------------------
        BYTE   PATT
         POIN2  cvbrprayinghands_7_9
// 034   ----------------------------------------
        BYTE   PATT
         POIN2  cvbrprayinghands_7_10
// 035   ----------------------------------------
        BYTE   PATT
         POIN2  cvbrprayinghands_7_9
// 036   ----------------------------------------
        BYTE   PATT
         POIN2  cvbrprayinghands_7_10
// 037   ----------------------------------------
        BYTE   PATT
         POIN2  cvbrprayinghands_7_9
// 038   ----------------------------------------
        BYTE   PATT
         POIN2  cvbrprayinghands_7_10
// 039   ----------------------------------------
        BYTE           N06     Cn1   v127
        BYTE   W06
        BYTE                   Cn1
        BYTE   W06
        BYTE           N03     Fs5   v048
        BYTE   W06
        BYTE                   Fs5
        BYTE   W06
        BYTE           N06     Dn1   v120
        BYTE   W06
        BYTE           N03     Fs5   v048
        BYTE   W06
        BYTE                   Fs5
        BYTE   W06
        BYTE           N06     Cn1   v127
        BYTE   W06
        BYTE                   Cn1
        BYTE   W06
        BYTE                   Cn1
        BYTE   W06
        BYTE           N03     Fs5   v048
        BYTE   W06
        BYTE                   Fs5
        BYTE   W06
        BYTE           N06     Dn1   v120
        BYTE   W06
        BYTE           N03     Fs5   v048
        BYTE   W06
        BYTE                   Fs5
        BYTE           TIE     Fn2   v100
        BYTE   W06
        BYTE           N06     Dn1   v120
        BYTE   W06
// 040   ----------------------------------------
        BYTE   PATT
         POIN2  cvbrprayinghands_7_10
// 041   ----------------------------------------
        BYTE           EOT     Fn2
        BYTE           N06     Cn1   v127
        BYTE   W06
        BYTE                   Cn1
        BYTE   W06
        BYTE           N03     Fs5   v048
        BYTE   W06
        BYTE                   Fs5
        BYTE   W06
        BYTE           N06     Dn1   v120
        BYTE   W06
        BYTE           N03     Fs5   v048
        BYTE   W06
        BYTE                   Fs5
        BYTE   W06
        BYTE           N06     Cn1   v127
        BYTE   W06
        BYTE                   Cn1
        BYTE   W06
        BYTE                   Cn1
        BYTE   W06
        BYTE           N03     Fs5   v048
        BYTE   W06
        BYTE                   Fs5
        BYTE   W06
        BYTE           N06     Dn1   v120
        BYTE   W06
        BYTE           N03     Fs5   v048
        BYTE   W06
        BYTE                   Fs5
        BYTE   W06
        BYTE           N06     Dn1   v120
        BYTE   W06
// 042   ----------------------------------------
        BYTE   PATT
         POIN2  cvbrprayinghands_7_10
// 043   ----------------------------------------
        BYTE           N06     Cn1   v127
        BYTE   W06
        BYTE                   Cn1
        BYTE   W06
        BYTE           N03     Fs5   v048
        BYTE   W06
        BYTE                   Fs5
        BYTE   W06
        BYTE           N06     Dn1   v120
        BYTE   W06
        BYTE           N03     Fs5   v048
        BYTE   W06
        BYTE                   Fs5
        BYTE   W06
        BYTE           N06     Cn1   v127
        BYTE   W06
        BYTE                   Dn1   v120
        BYTE   W06
        BYTE                   Dn1
        BYTE   W06
        BYTE                   Dn1
        BYTE   W06
        BYTE                   Dn1
        BYTE   W06
        BYTE                   Dn1
        BYTE   W06
        BYTE                   Dn1
        BYTE   W06
        BYTE                   Dn1
        BYTE   W06
        BYTE                   Dn1
        BYTE   W06
// 044   ----------------------------------------
        BYTE   GoTo
         POIN2  cvbrprayinghands_7_LOOP
        BYTE   FINE


//********************** End of Song ***********************//

        ALIGN 4
cvbrprayinghands:
        BYTE   8                       // Num Tracks
        BYTE   0                       // Unknown
        BYTE   cvbrprayinghands_pri        // Priority
        BYTE   cvbrprayinghands_rev        // Reverb

        POIN2   cvbrprayinghands_grp       

        POIN2   cvbrprayinghands_0
        POIN2   cvbrprayinghands_1
        POIN2   cvbrprayinghands_2
        POIN2   cvbrprayinghands_3
        POIN2   cvbrprayinghands_4
        POIN2   cvbrprayinghands_5
        POIN2   cvbrprayinghands_6
        POIN2   cvbrprayinghands_7

        
