//Event file generated from Sappy .s format.
        #include "MPlayDef.event"

        #define    eo2thefirstcampaign_grp  MusicVoices
        #define    eo2thefirstcampaign_pri  0
        #define    eo2thefirstcampaign_rev  0x80
        #define    eo2thefirstcampaign_key  0

        // .rodata
        // eo2thefirstcampaign
        ALIGN 4

//****************** Track 0 (Midi-Chn.0) ******************//

eo2thefirstcampaign_0:
        BYTE   KEYSH   eo2thefirstcampaign_key+0
// 000   ----------------------------------------
        BYTE   TEMPO   170/2
        BYTE           VOICE   61
        BYTE           0xCD   0x08 0x30
        BYTE           0xCD   0x09 0x10
        BYTE           VOL     60
        BYTE           N12     An3   v074
        BYTE   W12
        BYTE           N24     Cn3   v049   gtp3
        BYTE   W12
        BYTE           N16     En3   v056
        BYTE   W12
        BYTE           N24     Bn3   v068   gtp3
        BYTE   W24
        BYTE           N12     Cn3   v035
        BYTE   W12
        BYTE           N15     En3   v068
        BYTE   W12
        BYTE           N14     Gn3   v042
        BYTE   W12
// 001   ----------------------------------------
        BYTE           N11     An3   v056
        BYTE           N11     Cn4
        BYTE   W12
        BYTE           N13     Dn3   v049
        BYTE           N11     Bn3   v056
        BYTE   W12
        BYTE           N12     En3   v074
        BYTE           N11     Cn4   v056
        BYTE   W12
        BYTE           N23     Bn3   v094
        BYTE           N23     Dn4   v056
        BYTE   W24
        BYTE           N11     Dn3   v049
        BYTE           N11     Bn3   v056
        BYTE   W12
        BYTE                   En3
        BYTE           N11     Cn4
        BYTE   W12
        BYTE                   Gn3   v049
        BYTE           N11     Dn4   v056
        BYTE   W12
// 002   ----------------------------------------
        BYTE                   An3   v068
        BYTE           N11     En4   v056
        BYTE   W12
        BYTE           N16     Cn3   v049
        BYTE           N11     An3   v056
        BYTE   W12
        BYTE           N15     En3   v042
        BYTE           N11     Cn4   v056
        BYTE   W12
        BYTE           N24     Bn3   v085   gtp1
        BYTE           N23     Gn4   v056
        BYTE   W24
        BYTE           N14     Cn3   v049
        BYTE           N11     Fn4   v056
        BYTE   W12
        BYTE                   En3
        BYTE           N11     Cn4
        BYTE   W12
        BYTE           N12     An3   v035
        BYTE           N11     Fn4   v056
        BYTE   W12
// 003   ----------------------------------------
        BYTE           N06     Dn3   v081
        BYTE           N06     Gn3
        BYTE           N05     En4   v056
        BYTE   W12
        BYTE           N07     Dn3   v072
        BYTE           N07     Gn3
        BYTE           N05     En4   v056
        BYTE   W24
        BYTE           N06     Dn3   v002
        BYTE           N06     Gn3
        BYTE           N06     En4
        BYTE   W56
        BYTE   W03
        BYTE           MOD     1
        BYTE   W01
// 004   ----------------------------------------
eo2thefirstcampaign_0_LOOP:
        BYTE           N36     Cn3   v074   gtp3
        BYTE                   En3
        BYTE   W48
        BYTE           N11     Cn3
        BYTE           N11     En3
        BYTE   W12
        BYTE           N10     Bn2
        BYTE           N10     Dn3
        BYTE   W12
        BYTE           N07     Cn3
        BYTE           N07     En3
        BYTE   W12
        BYTE           N24     An2   v074   gtp3
        BYTE                   Cn3
        BYTE   W12
// 005   ----------------------------------------
eo2thefirstcampaign_0_5:
        BYTE   W24
        BYTE           N20     Fn3   v074
        BYTE           N20     An3
        BYTE   W24
        BYTE                   En3
        BYTE           N20     Gn3
        BYTE   W24
        BYTE                   Dn3
        BYTE           N20     Fn3
        BYTE   W24
        BYTE   PEND
// 006   ----------------------------------------
eo2thefirstcampaign_0_6:
        BYTE           N36     Cn3   v074   gtp3
        BYTE                   En3
        BYTE   W48
        BYTE           N11     Cn3
        BYTE           N11     En3
        BYTE   W12
        BYTE           N10     Bn2
        BYTE           N10     Dn3
        BYTE   W12
        BYTE           N07     An2
        BYTE           N07     Cn3
        BYTE   W12
        BYTE           N60     Bn2   v074   gtp3
        BYTE                   Dn3
        BYTE   W12
        BYTE   PEND
// 007   ----------------------------------------
eo2thefirstcampaign_0_7:
        BYTE   W60
        BYTE           N08     An2   v074
        BYTE           N08     Cn3
        BYTE   W12
        BYTE                   Bn2
        BYTE           N08     Dn3
        BYTE   W12
        BYTE           N48     Cn3   v074   gtp3
        BYTE                   En3
        BYTE   W12
        BYTE   PEND
// 008   ----------------------------------------
eo2thefirstcampaign_0_8:
        BYTE   W48
        BYTE           N11     Cn3   v074
        BYTE           N11     En3
        BYTE   W12
        BYTE           N10     Bn2
        BYTE           N10     Dn3
        BYTE   W12
        BYTE           N07     Cn3
        BYTE           N07     En3
        BYTE   W12
        BYTE           N24     An2   v074   gtp3
        BYTE                   Cn3
        BYTE   W12
        BYTE   PEND
// 009   ----------------------------------------
eo2thefirstcampaign_0_9:
        BYTE   W24
        BYTE           N20     An3   v074
        BYTE           N20     Cn4
        BYTE   W24
        BYTE                   Gn3
        BYTE           N20     Bn3
        BYTE   W24
        BYTE                   Fn3
        BYTE           N20     An3
        BYTE   W24
        BYTE   PEND
// 010   ----------------------------------------
eo2thefirstcampaign_0_10:
        BYTE           N32     Gn3   v074   gtp3
        BYTE                   Bn3
        BYTE   W48
        BYTE           N10     Gn3
        BYTE           N10     Bn3
        BYTE   W12
        BYTE                   En3
        BYTE           N10     Gn3
        BYTE   W12
        BYTE           N07
        BYTE           N07     Bn3
        BYTE   W12
        BYTE           N80     Fn3   v074   gtp3
        BYTE                   An3
        BYTE   W12
        BYTE   PEND
// 011   ----------------------------------------
        BYTE   W96
// 012   ----------------------------------------
eo2thefirstcampaign_0_12:
        BYTE           N36     Cn3   v074   gtp3
        BYTE                   En3
        BYTE   W48
        BYTE           N11     Cn3
        BYTE           N11     En3
        BYTE   W12
        BYTE           N10     Bn2
        BYTE           N10     Dn3
        BYTE   W12
        BYTE           N07     Cn3
        BYTE           N07     En3
        BYTE   W12
        BYTE           N24     An2   v074   gtp3
        BYTE                   Cn3
        BYTE   W12
        BYTE   PEND
// 013   ----------------------------------------
eo2thefirstcampaign_0_13:
        BYTE   W24
        BYTE           N21     Fn3   v074
        BYTE           N21     An3
        BYTE   W24
        BYTE                   En3
        BYTE           N21     Gn3
        BYTE   W24
        BYTE                   Dn3
        BYTE           N21     Fn3
        BYTE   W24
        BYTE   PEND
// 014   ----------------------------------------
eo2thefirstcampaign_0_14:
        BYTE           N36     Cn3   v074   gtp3
        BYTE                   En3
        BYTE   W48
        BYTE           N11     Cn3
        BYTE           N11     En3
        BYTE   W12
        BYTE           N09     Bn2
        BYTE           N09     Dn3
        BYTE   W12
        BYTE           N07     An2
        BYTE           N07     Cn3
        BYTE   W12
        BYTE           N60     Bn2   v074   gtp3
        BYTE                   Dn3
        BYTE   W12
        BYTE   PEND
// 015   ----------------------------------------
eo2thefirstcampaign_0_15:
        BYTE   W60
        BYTE           N11     An2   v074
        BYTE           N11     Cn3
        BYTE   W12
        BYTE                   Bn2
        BYTE           N11     Dn3
        BYTE   W12
        BYTE           N48     Cn3   v074   gtp3
        BYTE                   En3
        BYTE   W12
        BYTE   PEND
// 016   ----------------------------------------
        BYTE   PATT
         POIN2  eo2thefirstcampaign_0_8
// 017   ----------------------------------------
eo2thefirstcampaign_0_17:
        BYTE   W24
        BYTE           N21     An3   v074
        BYTE           N21     Cn4
        BYTE   W24
        BYTE                   Gn3
        BYTE           N21     Bn3
        BYTE   W24
        BYTE                   Fn3
        BYTE           N21     An3
        BYTE   W24
        BYTE   PEND
// 018   ----------------------------------------
eo2thefirstcampaign_0_18:
        BYTE           N36     Gn3   v074
        BYTE           N36     Bn3
        BYTE   W48
        BYTE           N09     Gn3
        BYTE           N09     Bn3
        BYTE   W12
        BYTE                   En3
        BYTE           N09     Gn3
        BYTE   W12
        BYTE           N07
        BYTE           N07     Bn3
        BYTE   W12
        BYTE           N32     Dn3   v074   gtp3
        BYTE           N92     An3   v074   gtp3
        BYTE   W12
        BYTE   PEND
// 019   ----------------------------------------
eo2thefirstcampaign_0_19:
        BYTE   W36
        BYTE           N44     Cs3   v074   gtp3
        BYTE   W60
        BYTE   PEND
// 020   ----------------------------------------
eo2thefirstcampaign_0_20:
        BYTE           N09     An3   v094
        BYTE   W12
        BYTE           N07     An3   v074
        BYTE   W24
        BYTE           N05
        BYTE   W24
        BYTE                   An3
        BYTE   W24
        BYTE                   An3
        BYTE   W12
        BYTE   PEND
// 021   ----------------------------------------
eo2thefirstcampaign_0_21:
        BYTE   W12
        BYTE           N05     An3   v004
        BYTE   W12
        BYTE           N56     As3   v085   gtp3
        BYTE   W72
        BYTE   PEND
// 022   ----------------------------------------
eo2thefirstcampaign_0_22:
        BYTE           N09     An3   v092
        BYTE   W12
        BYTE           N07     An3   v074
        BYTE   W24
        BYTE           N05
        BYTE   W24
        BYTE                   An3
        BYTE   W24
        BYTE                   An3
        BYTE   W12
        BYTE   PEND
// 023   ----------------------------------------
eo2thefirstcampaign_0_23:
        BYTE   W12
        BYTE           N05     An3   v004
        BYTE   W12
        BYTE           N56     Cn4   v090   gtp3
        BYTE   W72
        BYTE   PEND
// 024   ----------------------------------------
eo2thefirstcampaign_0_24:
        BYTE           N09     An3   v090
        BYTE   W12
        BYTE           N07     An3   v074
        BYTE   W24
        BYTE           N05
        BYTE   W24
        BYTE                   An3
        BYTE   W24
        BYTE                   An3
        BYTE   W12
        BYTE   PEND
// 025   ----------------------------------------
eo2thefirstcampaign_0_25:
        BYTE   W12
        BYTE           N05     An3   v004
        BYTE   W12
        BYTE           N56     As3   v087   gtp3
        BYTE   W72
        BYTE   PEND
// 026   ----------------------------------------
        BYTE   PATT
         POIN2  eo2thefirstcampaign_0_24
// 027   ----------------------------------------
        BYTE   W12
        BYTE           N05     An3   v004
        BYTE   W12
        BYTE           TIE     Cn4   v090
        BYTE   W72
// 028   ----------------------------------------
        BYTE   W68
        BYTE   W03
        BYTE           EOT
        BYTE   W24
        BYTE   W01
// 029   ----------------------------------------
        BYTE   PATT
         POIN2  eo2thefirstcampaign_0_12
// 030   ----------------------------------------
        BYTE   PATT
         POIN2  eo2thefirstcampaign_0_5
// 031   ----------------------------------------
        BYTE   PATT
         POIN2  eo2thefirstcampaign_0_6
// 032   ----------------------------------------
        BYTE   PATT
         POIN2  eo2thefirstcampaign_0_7
// 033   ----------------------------------------
        BYTE   PATT
         POIN2  eo2thefirstcampaign_0_8
// 034   ----------------------------------------
        BYTE   PATT
         POIN2  eo2thefirstcampaign_0_9
// 035   ----------------------------------------
        BYTE   PATT
         POIN2  eo2thefirstcampaign_0_10
// 036   ----------------------------------------
        BYTE   W96
// 037   ----------------------------------------
        BYTE   PATT
         POIN2  eo2thefirstcampaign_0_12
// 038   ----------------------------------------
        BYTE   PATT
         POIN2  eo2thefirstcampaign_0_13
// 039   ----------------------------------------
        BYTE   PATT
         POIN2  eo2thefirstcampaign_0_14
// 040   ----------------------------------------
        BYTE   PATT
         POIN2  eo2thefirstcampaign_0_15
// 041   ----------------------------------------
        BYTE   PATT
         POIN2  eo2thefirstcampaign_0_8
// 042   ----------------------------------------
        BYTE   PATT
         POIN2  eo2thefirstcampaign_0_17
// 043   ----------------------------------------
        BYTE   PATT
         POIN2  eo2thefirstcampaign_0_18
// 044   ----------------------------------------
        BYTE   PATT
         POIN2  eo2thefirstcampaign_0_19
// 045   ----------------------------------------
        BYTE   PATT
         POIN2  eo2thefirstcampaign_0_20
// 046   ----------------------------------------
        BYTE   PATT
         POIN2  eo2thefirstcampaign_0_21
// 047   ----------------------------------------
        BYTE   PATT
         POIN2  eo2thefirstcampaign_0_22
// 048   ----------------------------------------
        BYTE   PATT
         POIN2  eo2thefirstcampaign_0_23
// 049   ----------------------------------------
        BYTE   PATT
         POIN2  eo2thefirstcampaign_0_24
// 050   ----------------------------------------
        BYTE   PATT
         POIN2  eo2thefirstcampaign_0_25
// 051   ----------------------------------------
        BYTE   PATT
         POIN2  eo2thefirstcampaign_0_24
// 052   ----------------------------------------
        BYTE   W12
        BYTE           N05     An3   v004
        BYTE   W12
        BYTE           N64     Cn4   v090   gtp1
        BYTE   W72
// 053   ----------------------------------------
eo2thefirstcampaign_0_53:
        BYTE           N36     Bn2   v074   gtp2
        BYTE                   En3
        BYTE           N36     Gs3   v074   gtp2
        BYTE   W48
        BYTE           N08     Bn2
        BYTE           N08     En3
        BYTE           N08     Gs3
        BYTE   W12
        BYTE                   Bn2
        BYTE           N08     En3
        BYTE           N08     Fs3
        BYTE   W12
        BYTE           N05     Bn2
        BYTE           N05     En3
        BYTE           N05     Gs3
        BYTE   W12
        BYTE           TIE     Bn2
        BYTE           N28     En3   v074   gtp1
        BYTE   W12
        BYTE   PEND
// 054   ----------------------------------------
        BYTE   W24
        BYTE           N23     Gs3
        BYTE           N23     Bn3
        BYTE   W24
        BYTE                   Fs3
        BYTE           N23     An3
        BYTE   W24
        BYTE           N20     Gs3
        BYTE           N20     Bn3
        BYTE   W17
        BYTE           EOT     Bn2
        BYTE   W07
// 055   ----------------------------------------
        BYTE   PATT
         POIN2  eo2thefirstcampaign_0_53
// 056   ----------------------------------------
        BYTE   W24
        BYTE           N23     Gs3   v074
        BYTE           N23     Bn3
        BYTE   W24
        BYTE                   Fs3
        BYTE           N23     An3
        BYTE   W24
        BYTE           N20     En3
        BYTE           N20     Gs3
        BYTE   W17
        BYTE           EOT     Bn2
        BYTE   W07
// 057   ----------------------------------------
        BYTE           N36     Bn2   v074   gtp2
        BYTE                   En3
        BYTE           N36     An3   v074   gtp2
        BYTE   W48
        BYTE           N08     Bn2
        BYTE           N08     En3
        BYTE           N08     An3
        BYTE   W12
        BYTE                   Bn2
        BYTE           N08     En3
        BYTE           N08     Gn3
        BYTE   W12
        BYTE           N05     Bn2
        BYTE           N05     En3
        BYTE           N05     An3
        BYTE   W12
        BYTE           TIE     En3
        BYTE           N56     An3   v074   gtp3
        BYTE           N32     Dn4   v074   gtp3
        BYTE   W12
// 058   ----------------------------------------
        BYTE   W24
        BYTE           N23     Cn4
        BYTE   W24
        BYTE                   Bn3
        BYTE   W24
        BYTE           N20     An3
        BYTE   W20
        BYTE           EOT     En3
        BYTE   W04
// 059   ----------------------------------------
        BYTE           N08     Fs3
        BYTE           N08     Bn3
        BYTE           N08     En4
        BYTE   W12
        BYTE           N05     Fs3
        BYTE           N05     Bn3
        BYTE           N05     En4
        BYTE   W24
        BYTE                   Fs3
        BYTE           N05     Bn3
        BYTE           N05     En4
        BYTE   W24
        BYTE                   Fs3
        BYTE           N05     Bn3
        BYTE           N05     En4
        BYTE   W24
        BYTE           N17     Fs3
        BYTE           N17     Bn3
        BYTE           N17     En4
        BYTE   W12
// 060   ----------------------------------------
        BYTE   W36
        BYTE           N48     Fs3   v074   gtp2
        BYTE                   An3
        BYTE           N48     En4   v074   gtp2
        BYTE   W60
// 061   ----------------------------------------
        BYTE   PATT
         POIN2  eo2thefirstcampaign_0_53
// 062   ----------------------------------------
        BYTE   W24
        BYTE           N23     Gs3   v074
        BYTE           N23     Bn3
        BYTE   W24
        BYTE                   Fs3
        BYTE           N23     An3
        BYTE   W24
        BYTE           N20     Gs3
        BYTE           N20     Bn3
        BYTE   W20
        BYTE           EOT     Bn2
        BYTE   W04
// 063   ----------------------------------------
        BYTE   PATT
         POIN2  eo2thefirstcampaign_0_53
// 064   ----------------------------------------
        BYTE   W24
        BYTE           N23     Gs3   v074
        BYTE           N23     Bn3
        BYTE   W24
        BYTE                   Fs3
        BYTE           N23     An3
        BYTE   W24
        BYTE           N20     En3
        BYTE           N20     Gs3
        BYTE   W20
        BYTE           EOT     Bn2
        BYTE   W04
// 065   ----------------------------------------
        BYTE           N40     Bn2   v074   gtp1
        BYTE                   En3
        BYTE           N40     An3   v074   gtp1
        BYTE   W48
        BYTE           N08     Bn2
        BYTE           N08     En3
        BYTE           N08     An3
        BYTE   W12
        BYTE                   Bn2
        BYTE           N08     En3
        BYTE           N08     Gn3
        BYTE   W12
        BYTE           N05     Bn2
        BYTE           N05     En3
        BYTE           N05     An3
        BYTE   W12
        BYTE           N20     En3
        BYTE           N20     An3
        BYTE           N20     Dn4
        BYTE   W12
// 066   ----------------------------------------
        BYTE   W12
        BYTE           N05     En3
        BYTE           N05     An3
        BYTE           N05     Cn4
        BYTE   W12
        BYTE                   En3
        BYTE           N05     An3
        BYTE           N05     Dn4
        BYTE   W12
        BYTE           N17     An3
        BYTE           N17     Dn4
        BYTE           N17     Gn4
        BYTE   W24
        BYTE           N05     An3
        BYTE           N05     Dn4
        BYTE           N05     Fn4
        BYTE   W12
        BYTE                   An3
        BYTE           N05     Dn4
        BYTE           N05     Gn4
        BYTE   W12
        BYTE           N17     Bn3
        BYTE           N17     En4
        BYTE           N17     An4
        BYTE   W12
// 067   ----------------------------------------
        BYTE   W12
        BYTE           N05     Bn3
        BYTE           N05     En4
        BYTE           N05     An4
        BYTE   W12
        BYTE                   Bn3
        BYTE           N05     En4
        BYTE           N05     An4
        BYTE   W12
        BYTE                   Bn3
        BYTE           N05     En4
        BYTE           N05     An4
        BYTE   W24
        BYTE                   Bn3
        BYTE           N05     En4
        BYTE           N05     An4
        BYTE   W24
        BYTE                   Fn3
        BYTE           N05     Dn4
        BYTE           N05     An4
        BYTE   W12
// 068   ----------------------------------------
        BYTE   W24
        BYTE           N52     Dn4   v074   gtp1
        BYTE                   Gn4
        BYTE           N52     Cn5   v074   gtp1
        BYTE   W72
// 069   ----------------------------------------
        BYTE   GoTo
         POIN2  eo2thefirstcampaign_0_LOOP
        BYTE   FINE

//****************** Track 1 (Midi-Chn.1) ******************//

eo2thefirstcampaign_1:
        BYTE   KEYSH   eo2thefirstcampaign_key+0
// 000   ----------------------------------------
        BYTE           VOICE   48
        BYTE           PAN     c_v+32
        BYTE           VOL     40
        BYTE           N05     Bn3   v095
        BYTE           N05     En4   v080
        BYTE   W12
        BYTE                   Bn3   v048
        BYTE           N05     En4
        BYTE   W12
        BYTE                   Bn3
        BYTE           N04     En4   v036
        BYTE   W12
        BYTE           N05     Bn3   v099
        BYTE           N05     En4   v072
        BYTE   W12
        BYTE                   Bn3   v055
        BYTE           N05     En4   v024
        BYTE   W12
        BYTE                   Bn3   v036
        BYTE           N05     En4   v041
        BYTE   W12
        BYTE                   Bn3   v048
        BYTE           N04     En4   v024
        BYTE   W12
        BYTE           N05     Bn3   v064
        BYTE           N03     En4   v055
        BYTE   W12
// 001   ----------------------------------------
        BYTE           N04     An3   v088
        BYTE           N05     Dn4   v055
        BYTE   W12
        BYTE                   An3   v048
        BYTE           N05     Dn4   v036
        BYTE   W12
        BYTE                   An3   v048
        BYTE           N04     Dn4   v024
        BYTE   W12
        BYTE           N05     An3   v088
        BYTE           N06     Dn4   v072
        BYTE   W12
        BYTE                   An3   v024
        BYTE           N06     Dn4   v036
        BYTE   W12
        BYTE           N05     An3   v041
        BYTE           N04     Dn4   v012
        BYTE   W12
        BYTE           N05     An3   v064
        BYTE           N05     Dn4   v029
        BYTE   W12
        BYTE                   An3
        BYTE           N03     Dn4   v015
        BYTE   W12
// 002   ----------------------------------------
        BYTE           N04     Gn3   v048
        BYTE           N05     Cn4
        BYTE   W12
        BYTE                   Gn3   v024
        BYTE           N03     Cn4   v036
        BYTE   W12
        BYTE           N04     Gn3   v024
        BYTE           N03     Cn4   v010
        BYTE   W12
        BYTE           N05     Gn3   v072
        BYTE           N05     Cn4   v036
        BYTE   W12
        BYTE                   Gn3   v020
        BYTE           N05     Cn4   v055
        BYTE   W12
        BYTE                   Gn3   v020
        BYTE           N04     Cn4
        BYTE   W12
        BYTE           N05     Gn3   v029
        BYTE           N04     Cn4   v020
        BYTE   W12
        BYTE                   Gn3   v008
        BYTE           N03     Cn4   v015
        BYTE   W12
// 003   ----------------------------------------
        BYTE           N05     Gn3   v073
        BYTE           N04     Dn4
        BYTE   W12
        BYTE                   Gn3   v062
        BYTE           N04     Dn4
        BYTE   W84
// 004   ----------------------------------------
eo2thefirstcampaign_1_LOOP:
        BYTE   W96
// 005   ----------------------------------------
        BYTE   W96
// 006   ----------------------------------------
        BYTE   W96
// 007   ----------------------------------------
        BYTE   W96
// 008   ----------------------------------------
        BYTE   W96
// 009   ----------------------------------------
        BYTE   W96
// 010   ----------------------------------------
        BYTE   W96
// 011   ----------------------------------------
        BYTE           VOL     30
        BYTE   W72
        BYTE           N10     An3   v089
        BYTE   W06
        BYTE           N11     Bn3
        BYTE   W06
        BYTE                   Cn4
        BYTE   W06
        BYTE           N07     Dn4
        BYTE   W06
// 012   ----------------------------------------
eo2thefirstcampaign_1_12:
        BYTE           N40     En4   v089   gtp1
        BYTE   W48
        BYTE           N11
        BYTE   W12
        BYTE           N07     Dn4
        BYTE   W12
        BYTE           N04     En4
        BYTE   W12
        BYTE           N30     Cn4   v089   gtp1
        BYTE   W12
        BYTE   PEND
// 013   ----------------------------------------
eo2thefirstcampaign_1_13:
        BYTE   W24
        BYTE           N24     An4   v089
        BYTE   W24
        BYTE                   Gn4
        BYTE   W24
        BYTE                   Fn4
        BYTE   W24
        BYTE   PEND
// 014   ----------------------------------------
eo2thefirstcampaign_1_14:
        BYTE           N42     En4   v089
        BYTE   W48
        BYTE           N11
        BYTE   W12
        BYTE           N07     Dn4
        BYTE   W12
        BYTE           N04     Cn4
        BYTE   W12
        BYTE           N64     Dn4
        BYTE   W12
        BYTE   PEND
// 015   ----------------------------------------
eo2thefirstcampaign_1_15:
        BYTE   W60
        BYTE           N13     Cn4   v089
        BYTE   W12
        BYTE           N06     Dn4
        BYTE   W12
        BYTE           N52     En4   v089   gtp1
        BYTE   W12
        BYTE   PEND
// 016   ----------------------------------------
eo2thefirstcampaign_1_16:
        BYTE   W48
        BYTE           N13     En4   v089
        BYTE   W12
        BYTE           N07     Dn4
        BYTE   W12
        BYTE           N04     En4
        BYTE   W12
        BYTE           N24     Cn4   v089   gtp3
        BYTE   W12
        BYTE   PEND
// 017   ----------------------------------------
eo2thefirstcampaign_1_17:
        BYTE   W24
        BYTE           N24     Cn5   v089   gtp2
        BYTE   W24
        BYTE           N24     Bn4   v089   gtp1
        BYTE   W24
        BYTE           N23     An4
        BYTE   W24
        BYTE   PEND
// 018   ----------------------------------------
eo2thefirstcampaign_1_18:
        BYTE           N42     Bn4   v089
        BYTE   W48
        BYTE           N09
        BYTE   W12
        BYTE           N07     Gn4
        BYTE   W12
        BYTE           N04     Bn4
        BYTE   W12
        BYTE           N96     An4
        BYTE   W12
        BYTE   PEND
// 019   ----------------------------------------
        BYTE   W96
// 020   ----------------------------------------
        BYTE           VOL     56
        BYTE           N09     Dn3   v064
        BYTE           N09     En3
        BYTE   W12
        BYTE           N07     Dn3   v048
        BYTE           N07     En3
        BYTE   W24
        BYTE           N05     Dn3
        BYTE           N05     En3
        BYTE   W24
        BYTE                   Dn3
        BYTE           N05     En3
        BYTE   W24
        BYTE                   Dn3
        BYTE           N05     En3
        BYTE   W12
// 021   ----------------------------------------
eo2thefirstcampaign_1_21:
        BYTE   W12
        BYTE           N05     Dn3   v001
        BYTE           N05     En3
        BYTE   W12
        BYTE           N56     Ds3   v056   gtp3
        BYTE                   Gn3
        BYTE   W17
        BYTE           MOD     2
        BYTE   W12
        BYTE                   4
        BYTE   W12
        BYTE                   6
        BYTE   W30
        BYTE                   0
        BYTE   W01
        BYTE   PEND
// 022   ----------------------------------------
        BYTE           N09     Dn3   v062
        BYTE           N09     En3
        BYTE   W12
        BYTE           N07     Dn3   v048
        BYTE           N07     En3
        BYTE   W24
        BYTE           N05     Dn3
        BYTE           N05     En3
        BYTE   W24
        BYTE                   Dn3
        BYTE           N05     En3
        BYTE   W24
        BYTE                   Dn3
        BYTE           N05     En3
        BYTE   W12
// 023   ----------------------------------------
eo2thefirstcampaign_1_23:
        BYTE   W12
        BYTE           N05     Dn3   v001
        BYTE           N05     En3
        BYTE   W12
        BYTE           N56     Ds3   v060   gtp3
        BYTE                   Gn3
        BYTE   W17
        BYTE           MOD     2
        BYTE   W12
        BYTE                   4
        BYTE   W12
        BYTE                   6
        BYTE   W30
        BYTE                   0
        BYTE   W01
        BYTE   PEND
// 024   ----------------------------------------
eo2thefirstcampaign_1_24:
        BYTE           N09     Dn3   v060
        BYTE           N09     En3
        BYTE   W12
        BYTE           N07     Dn3   v048
        BYTE           N07     En3
        BYTE   W24
        BYTE           N05     Dn3
        BYTE           N05     En3
        BYTE   W24
        BYTE                   Dn3
        BYTE           N05     En3
        BYTE   W24
        BYTE                   Dn3
        BYTE           N05     En3
        BYTE   W12
        BYTE   PEND
// 025   ----------------------------------------
        BYTE   W12
        BYTE                   Dn3   v001
        BYTE           N05     En3
        BYTE   W12
        BYTE           N56     Ds3   v058   gtp3
        BYTE                   Gn3
        BYTE   W17
        BYTE           MOD     2
        BYTE   W12
        BYTE                   4
        BYTE   W12
        BYTE                   6
        BYTE   W30
        BYTE                   0
        BYTE   W01
// 026   ----------------------------------------
        BYTE   PATT
         POIN2  eo2thefirstcampaign_1_24
// 027   ----------------------------------------
        BYTE   W12
        BYTE           N05     Dn3   v001
        BYTE           N05     En3
        BYTE   W12
        BYTE           TIE     Ds3   v053
        BYTE           TIE     Gn3
        BYTE   W44
        BYTE   W03
        BYTE           MOD     2
        BYTE   W24
        BYTE                   4
        BYTE   W01
// 028   ----------------------------------------
        BYTE   W23
        BYTE                   6
        BYTE   W12
        BYTE                   8
        BYTE   W36
        BYTE           EOT     Ds3
        BYTE                   Gn3
        BYTE   W19
        BYTE           VOL     30
        BYTE   W06
// 029   ----------------------------------------
        BYTE   W96
// 030   ----------------------------------------
        BYTE   W96
// 031   ----------------------------------------
        BYTE   W96
// 032   ----------------------------------------
        BYTE   W96
// 033   ----------------------------------------
        BYTE   W96
// 034   ----------------------------------------
        BYTE   W96
// 035   ----------------------------------------
        BYTE   W96
// 036   ----------------------------------------
        BYTE   W68
        BYTE   W03
        BYTE           MOD     0
        BYTE   W01
        BYTE           N10     An3   v089
        BYTE   W06
        BYTE           N11     Bn3
        BYTE   W06
        BYTE                   Cn4
        BYTE   W06
        BYTE           N07     Dn4
        BYTE   W06
// 037   ----------------------------------------
        BYTE   PATT
         POIN2  eo2thefirstcampaign_1_12
// 038   ----------------------------------------
        BYTE   PATT
         POIN2  eo2thefirstcampaign_1_13
// 039   ----------------------------------------
        BYTE   PATT
         POIN2  eo2thefirstcampaign_1_14
// 040   ----------------------------------------
        BYTE   PATT
         POIN2  eo2thefirstcampaign_1_15
// 041   ----------------------------------------
        BYTE   PATT
         POIN2  eo2thefirstcampaign_1_16
// 042   ----------------------------------------
        BYTE   PATT
         POIN2  eo2thefirstcampaign_1_17
// 043   ----------------------------------------
        BYTE   PATT
         POIN2  eo2thefirstcampaign_1_18
// 044   ----------------------------------------
        BYTE   W96
// 045   ----------------------------------------
        BYTE           VOL     56
        BYTE           N09     Dn3   v073
        BYTE           N09     En3
        BYTE   W12
        BYTE           N07     Dn3   v056
        BYTE           N07     En3
        BYTE   W24
        BYTE           N05     Dn3
        BYTE           N05     En3
        BYTE   W24
        BYTE                   Dn3
        BYTE           N05     En3
        BYTE   W24
        BYTE                   Dn3
        BYTE           N05     En3
        BYTE   W12
// 046   ----------------------------------------
        BYTE   PATT
         POIN2  eo2thefirstcampaign_1_21
// 047   ----------------------------------------
        BYTE           N09     Dn3   v071
        BYTE           N09     En3
        BYTE   W12
        BYTE           N07     Dn3   v056
        BYTE           N07     En3
        BYTE   W24
        BYTE           N05     Dn3
        BYTE           N05     En3
        BYTE   W24
        BYTE                   Dn3
        BYTE           N05     En3
        BYTE   W24
        BYTE                   Dn3
        BYTE           N05     En3
        BYTE   W12
// 048   ----------------------------------------
        BYTE   PATT
         POIN2  eo2thefirstcampaign_1_23
// 049   ----------------------------------------
eo2thefirstcampaign_1_49:
        BYTE           N09     Dn3   v069
        BYTE           N09     En3
        BYTE   W12
        BYTE           N07     Dn3   v056
        BYTE           N07     En3
        BYTE   W24
        BYTE           N05     Dn3
        BYTE           N05     En3
        BYTE   W24
        BYTE                   Dn3
        BYTE           N05     En3
        BYTE   W24
        BYTE                   Dn3
        BYTE           N05     En3
        BYTE   W12
        BYTE   PEND
// 050   ----------------------------------------
        BYTE   W12
        BYTE                   Dn3   v001
        BYTE           N05     En3
        BYTE   W12
        BYTE           N56     Ds3   v058   gtp3
        BYTE                   Gn3
        BYTE   W17
        BYTE           MOD     2
        BYTE   W12
        BYTE                   4
        BYTE   W12
        BYTE                   6
        BYTE   W30
        BYTE   W01
// 051   ----------------------------------------
        BYTE   PATT
         POIN2  eo2thefirstcampaign_1_49
// 052   ----------------------------------------
        BYTE   W12
        BYTE           N05     Dn3   v001
        BYTE           N05     En3
        BYTE   W12
        BYTE           N44     Ds3   v062   gtp3
        BYTE                   Gn3
        BYTE   W17
        BYTE           MOD     2
        BYTE   W12
        BYTE                   4
        BYTE   W12
        BYTE                   6
        BYTE   W06
        BYTE                   0
        BYTE   W01
        BYTE           VOL     30
        BYTE           N09     Cn4   v055
        BYTE   W06
        BYTE           N11     Dn4   v059
        BYTE   W06
        BYTE           N08     En4
        BYTE   W06
        BYTE           N06     Fs4   v084
        BYTE   W06
// 053   ----------------------------------------
        BYTE           TIE     Gs4   v087
        BYTE   W96
// 054   ----------------------------------------
        BYTE   W05
        BYTE           EOT
        BYTE   W07
        BYTE           N05     Bn3   v082
        BYTE   W12
        BYTE                   En4   v084
        BYTE   W12
        BYTE           N20     An4   v082
        BYTE   W24
        BYTE           N28     Gs4   v080   gtp1
        BYTE   W36
// 055   ----------------------------------------
        BYTE           TIE     Gs4   v077
        BYTE   W96
// 056   ----------------------------------------
        BYTE   W05
        BYTE           EOT
        BYTE   W07
        BYTE           N05     Bn3   v082
        BYTE   W12
        BYTE                   En4
        BYTE   W12
        BYTE           N20     An4   v084
        BYTE   W24
        BYTE           N28     Gs4   v088   gtp1
        BYTE   W36
// 057   ----------------------------------------
        BYTE           N36     An4   v082   gtp2
        BYTE   W48
        BYTE           N08     An4   v080
        BYTE   W12
        BYTE                   En4
        BYTE   W12
        BYTE                   Bn3
        BYTE   W12
        BYTE           N28     An4   v082   gtp1
        BYTE   W12
// 058   ----------------------------------------
        BYTE   W24
        BYTE           N17     Gn4   v101
        BYTE   W24
        BYTE           N23     Dn5   v082
        BYTE   W24
        BYTE           N22     Cn5   v072
        BYTE   W24
// 059   ----------------------------------------
        BYTE           N11     Bn4   v091
        BYTE   W12
        BYTE                   Fs4
        BYTE   W12
        BYTE           N05     Bn3
        BYTE   W12
        BYTE           N14     Bn4
        BYTE   W24
        BYTE           N05     Fs4
        BYTE   W12
        BYTE                   Bn3
        BYTE   W12
        BYTE           N20     Bn4
        BYTE   W12
// 060   ----------------------------------------
        BYTE   W12
        BYTE           N05     Fs4
        BYTE   W12
        BYTE                   Bn3
        BYTE   W12
        BYTE           N20     An4
        BYTE   W24
        BYTE           N08     Fs4
        BYTE   W12
        BYTE           N05     Bn3
        BYTE   W12
        BYTE           N08     An4
        BYTE   W12
// 061   ----------------------------------------
        BYTE           TIE     Gs4   v087
        BYTE   W96
// 062   ----------------------------------------
        BYTE   W02
        BYTE           EOT
        BYTE   W10
        BYTE           N11     Bn3   v082
        BYTE   W12
        BYTE                   En4   v084
        BYTE   W12
        BYTE           N23     An4   v082
        BYTE   W24
        BYTE           N28     Gs4   v080   gtp1
        BYTE   W36
// 063   ----------------------------------------
        BYTE           TIE     Gs4   v077
        BYTE   W96
// 064   ----------------------------------------
        BYTE   W02
        BYTE           EOT
        BYTE   W10
        BYTE           N11     Bn3   v082
        BYTE   W12
        BYTE                   En4
        BYTE   W12
        BYTE           N23     An4   v084
        BYTE   W24
        BYTE           N28     Gs4   v088   gtp1
        BYTE   W36
// 065   ----------------------------------------
        BYTE           N40     An4   v082   gtp1
        BYTE   W48
        BYTE           N05     An4   v084
        BYTE   W12
        BYTE                   En4   v082
        BYTE   W12
        BYTE                   Bn3   v080
        BYTE   W12
        BYTE           N32     An4   v082
        BYTE   W12
// 066   ----------------------------------------
        BYTE   W24
        BYTE           N08     Gn4   v087
        BYTE   W12
        BYTE           N28     Cn5   v072   gtp1
        BYTE   W36
        BYTE           N08     Dn5   v062
        BYTE   W12
        BYTE           N17     Bn4   v099
        BYTE   W12
// 067   ----------------------------------------
        BYTE   W12
        BYTE           N05     Bn4   v091
        BYTE   W12
        BYTE           N07     Bn4   v078
        BYTE   W12
        BYTE           N05     Bn4   v082
        BYTE   W24
        BYTE           N06     Bn4   v077
        BYTE   W24
        BYTE           N09     An4   v080
        BYTE   W12
// 068   ----------------------------------------
        BYTE   W23
        BYTE           PAN     c_v+48
        BYTE   W01
        BYTE           N05     Gn4   v083
        BYTE   W05
        BYTE           PAN     c_v+40
        BYTE   W01
        BYTE           N05     Fn4   v080
        BYTE   W05
        BYTE           PAN     c_v+32
        BYTE   W01
        BYTE           N05     En4   v076
        BYTE   W05
        BYTE           PAN     c_v+24
        BYTE   W01
        BYTE           N05     Dn4   v073
        BYTE   W05
        BYTE           PAN     c_v+16
        BYTE   W01
        BYTE           N05     Cn4   v070
        BYTE   W05
        BYTE           PAN     c_v+8
        BYTE   W01
        BYTE           N05     Bn3
        BYTE   W05
        BYTE           PAN     c_v+0
        BYTE   W01
        BYTE           N05     Gn3
        BYTE   W05
        BYTE           PAN     c_v-8
        BYTE   W01
        BYTE           N05     En3
        BYTE   W05
        BYTE           PAN     c_v-16
        BYTE   W01
        BYTE           N05     Dn3   v067
        BYTE   W05
        BYTE           PAN     c_v-24
        BYTE   W01
        BYTE           N05     Cn3
        BYTE   W05
        BYTE           PAN     c_v-32
        BYTE   W01
        BYTE           N05     Bn2
        BYTE   W05
        BYTE           PAN     c_v-40
        BYTE   W01
        BYTE           N05     Gn2
        BYTE   W06
// 069   ----------------------------------------
        BYTE           VOL     40
        BYTE           PAN     c_v+32
        BYTE   GoTo
         POIN2  eo2thefirstcampaign_1_LOOP
        BYTE   FINE

//****************** Track 2 (Midi-Chn.2) ******************//

eo2thefirstcampaign_2:
        BYTE   KEYSH   eo2thefirstcampaign_key+0
// 000   ----------------------------------------
        BYTE           VOICE   32
        BYTE           VOL     34
        BYTE           PAN     c_v-32
        BYTE           N15     An1   v127
        BYTE   W12
        BYTE           N06     An0
        BYTE   W12
        BYTE           N13
        BYTE   W12
        BYTE           N24     An1
        BYTE   W24
        BYTE           N10     An0
        BYTE   W12
        BYTE           N13     An1
        BYTE   W12
        BYTE           N06     An0
        BYTE   W12
// 001   ----------------------------------------
        BYTE           N14     Gn1
        BYTE   W12
        BYTE           N06     Gn0
        BYTE   W12
        BYTE           N07
        BYTE   W12
        BYTE           N24     Gn1   v127   gtp3
        BYTE   W24
        BYTE           N08     Gn0
        BYTE   W12
        BYTE           N12     Gn1
        BYTE   W12
        BYTE           N07     Gn0
        BYTE   W12
// 002   ----------------------------------------
        BYTE           N13     Fn1
        BYTE   W12
        BYTE           N05     Fn0
        BYTE   W12
        BYTE           N07
        BYTE   W12
        BYTE           N24     Fn1   v127   gtp1
        BYTE   W24
        BYTE           N10     Fn0
        BYTE   W12
        BYTE                   Fn1
        BYTE   W12
        BYTE           N13     Fn0
        BYTE   W12
// 003   ----------------------------------------
        BYTE           N14     Gn1
        BYTE   W12
        BYTE           N07     Gn0
        BYTE   W84
// 004   ----------------------------------------
eo2thefirstcampaign_2_LOOP:
        BYTE           N10     An0   v127
        BYTE   W12
        BYTE                   An0
        BYTE   W12
        BYTE                   An0
        BYTE   W12
        BYTE                   An0
        BYTE   W12
        BYTE                   An0
        BYTE   W12
        BYTE                   An0
        BYTE   W12
        BYTE                   An0
        BYTE   W12
        BYTE           N21     Fn0
        BYTE   W12
// 005   ----------------------------------------
eo2thefirstcampaign_2_5:
        BYTE   W12
        BYTE           N09     Fn0   v127
        BYTE   W12
        BYTE                   Fn0
        BYTE   W12
        BYTE                   Fn0
        BYTE   W12
        BYTE                   Fn0
        BYTE   W12
        BYTE           N12     Fn1
        BYTE   W12
        BYTE           N23     Fn0
        BYTE   W24
        BYTE   PEND
// 006   ----------------------------------------
eo2thefirstcampaign_2_6:
        BYTE           N10     Cn1   v127
        BYTE   W12
        BYTE                   Cn1
        BYTE   W12
        BYTE                   Cn1
        BYTE   W12
        BYTE                   Cn1
        BYTE   W12
        BYTE                   Cn1
        BYTE   W12
        BYTE                   Cn1
        BYTE   W12
        BYTE                   Cn1
        BYTE   W12
        BYTE           N22     Gn0
        BYTE   W12
        BYTE   PEND
// 007   ----------------------------------------
eo2thefirstcampaign_2_7:
        BYTE   W12
        BYTE           N10     Gn0   v127
        BYTE   W12
        BYTE                   Gn0
        BYTE   W12
        BYTE                   Gn0
        BYTE   W12
        BYTE           N11
        BYTE   W12
        BYTE                   Gn1
        BYTE   W12
        BYTE                   Gn0
        BYTE   W12
        BYTE           N22     An0
        BYTE   W12
        BYTE   PEND
// 008   ----------------------------------------
eo2thefirstcampaign_2_8:
        BYTE   W12
        BYTE           N09     An1   v127
        BYTE   W12
        BYTE           N10     An0
        BYTE   W12
        BYTE                   An0
        BYTE   W12
        BYTE                   An0
        BYTE   W12
        BYTE                   An0
        BYTE   W12
        BYTE                   An0
        BYTE   W12
        BYTE           N22     Fn0
        BYTE   W12
        BYTE   PEND
// 009   ----------------------------------------
eo2thefirstcampaign_2_9:
        BYTE   W12
        BYTE           N10     Fn0   v127
        BYTE   W12
        BYTE                   Fn0
        BYTE   W12
        BYTE                   Fn0
        BYTE   W12
        BYTE                   Fn0
        BYTE   W12
        BYTE                   Fn1
        BYTE   W12
        BYTE           N22     Fn0
        BYTE   W24
        BYTE   PEND
// 010   ----------------------------------------
eo2thefirstcampaign_2_10:
        BYTE           N10     En0   v127
        BYTE   W12
        BYTE                   En0
        BYTE   W12
        BYTE                   En0
        BYTE   W12
        BYTE                   En0
        BYTE   W12
        BYTE                   En0
        BYTE   W12
        BYTE                   En1
        BYTE   W12
        BYTE                   En0
        BYTE   W12
        BYTE           N22     Fn0
        BYTE   W12
        BYTE   PEND
// 011   ----------------------------------------
eo2thefirstcampaign_2_11:
        BYTE   W12
        BYTE           N10     Fn0   v127
        BYTE   W12
        BYTE                   Fn0
        BYTE   W12
        BYTE                   Fn1
        BYTE   W12
        BYTE                   Fn0
        BYTE   W12
        BYTE                   Fn1
        BYTE   W12
        BYTE           N22     Fn0
        BYTE   W24
        BYTE   PEND
// 012   ----------------------------------------
eo2thefirstcampaign_2_12:
        BYTE           N10     An0   v127
        BYTE   W12
        BYTE                   An0
        BYTE   W12
        BYTE                   An0
        BYTE   W12
        BYTE                   An0
        BYTE   W12
        BYTE                   An0
        BYTE   W12
        BYTE                   An0
        BYTE   W12
        BYTE                   An0
        BYTE   W12
        BYTE           N21     Fn0
        BYTE   W12
        BYTE   PEND
// 013   ----------------------------------------
        BYTE   PATT
         POIN2  eo2thefirstcampaign_2_5
// 014   ----------------------------------------
        BYTE   PATT
         POIN2  eo2thefirstcampaign_2_6
// 015   ----------------------------------------
        BYTE   PATT
         POIN2  eo2thefirstcampaign_2_7
// 016   ----------------------------------------
        BYTE   PATT
         POIN2  eo2thefirstcampaign_2_8
// 017   ----------------------------------------
        BYTE   PATT
         POIN2  eo2thefirstcampaign_2_9
// 018   ----------------------------------------
eo2thefirstcampaign_2_18:
        BYTE           N10     En0   v127
        BYTE   W12
        BYTE                   En0
        BYTE   W12
        BYTE                   En0
        BYTE   W12
        BYTE                   En0
        BYTE   W12
        BYTE                   En0
        BYTE   W12
        BYTE                   En1
        BYTE   W12
        BYTE                   En0
        BYTE   W12
        BYTE           N22     An0
        BYTE   W12
        BYTE   PEND
// 019   ----------------------------------------
eo2thefirstcampaign_2_19:
        BYTE   W12
        BYTE           N10     An0   v127
        BYTE   W12
        BYTE                   An0
        BYTE   W12
        BYTE                   An0
        BYTE   W12
        BYTE                   An0
        BYTE   W12
        BYTE                   An1
        BYTE   W12
        BYTE                   An0
        BYTE   W12
        BYTE                   An0
        BYTE   W12
        BYTE   PEND
// 020   ----------------------------------------
eo2thefirstcampaign_2_20:
        BYTE           N05     Dn1   v127
        BYTE   W12
        BYTE                   Dn1
        BYTE   W12
        BYTE                   Dn1
        BYTE   W12
        BYTE                   Dn1
        BYTE   W12
        BYTE                   Dn1
        BYTE   W12
        BYTE                   Dn1
        BYTE   W12
        BYTE                   Dn1
        BYTE   W12
        BYTE                   Dn1
        BYTE   W12
        BYTE   PEND
// 021   ----------------------------------------
eo2thefirstcampaign_2_21:
        BYTE           N05     Dn1   v127
        BYTE   W24
        BYTE           N28     Cn1   v127   gtp1
        BYTE   W36
        BYTE           N05     Cn2
        BYTE   W12
        BYTE                   Cn1
        BYTE   W12
        BYTE                   Cn2
        BYTE   W12
        BYTE   PEND
// 022   ----------------------------------------
        BYTE   PATT
         POIN2  eo2thefirstcampaign_2_20
// 023   ----------------------------------------
eo2thefirstcampaign_2_23:
        BYTE           N05     Dn1   v127
        BYTE   W24
        BYTE           N28     Gs0   v127   gtp1
        BYTE   W36
        BYTE           N05     Gs1
        BYTE   W12
        BYTE                   Gs0
        BYTE   W12
        BYTE                   Gs1
        BYTE   W12
        BYTE   PEND
// 024   ----------------------------------------
        BYTE   PATT
         POIN2  eo2thefirstcampaign_2_20
// 025   ----------------------------------------
        BYTE   PATT
         POIN2  eo2thefirstcampaign_2_21
// 026   ----------------------------------------
        BYTE   PATT
         POIN2  eo2thefirstcampaign_2_20
// 027   ----------------------------------------
        BYTE           N05     Dn1   v127
        BYTE   W24
        BYTE           N32     Gs0   v127   gtp3
        BYTE   W36
        BYTE           N23
        BYTE   W24
        BYTE                   Gs0
        BYTE   W12
// 028   ----------------------------------------
        BYTE   W12
        BYTE                   Gs0
        BYTE   W24
        BYTE                   Gs0
        BYTE   W24
        BYTE           N05
        BYTE   W12
        BYTE           N23
        BYTE   W24
// 029   ----------------------------------------
        BYTE   PATT
         POIN2  eo2thefirstcampaign_2_12
// 030   ----------------------------------------
        BYTE   PATT
         POIN2  eo2thefirstcampaign_2_5
// 031   ----------------------------------------
        BYTE   PATT
         POIN2  eo2thefirstcampaign_2_6
// 032   ----------------------------------------
        BYTE   PATT
         POIN2  eo2thefirstcampaign_2_7
// 033   ----------------------------------------
        BYTE   PATT
         POIN2  eo2thefirstcampaign_2_8
// 034   ----------------------------------------
        BYTE   PATT
         POIN2  eo2thefirstcampaign_2_9
// 035   ----------------------------------------
        BYTE   PATT
         POIN2  eo2thefirstcampaign_2_10
// 036   ----------------------------------------
        BYTE   PATT
         POIN2  eo2thefirstcampaign_2_11
// 037   ----------------------------------------
        BYTE   PATT
         POIN2  eo2thefirstcampaign_2_12
// 038   ----------------------------------------
        BYTE   PATT
         POIN2  eo2thefirstcampaign_2_5
// 039   ----------------------------------------
        BYTE   PATT
         POIN2  eo2thefirstcampaign_2_6
// 040   ----------------------------------------
        BYTE   PATT
         POIN2  eo2thefirstcampaign_2_7
// 041   ----------------------------------------
        BYTE   PATT
         POIN2  eo2thefirstcampaign_2_8
// 042   ----------------------------------------
        BYTE   PATT
         POIN2  eo2thefirstcampaign_2_9
// 043   ----------------------------------------
        BYTE   PATT
         POIN2  eo2thefirstcampaign_2_18
// 044   ----------------------------------------
        BYTE   PATT
         POIN2  eo2thefirstcampaign_2_19
// 045   ----------------------------------------
        BYTE   PATT
         POIN2  eo2thefirstcampaign_2_20
// 046   ----------------------------------------
        BYTE   PATT
         POIN2  eo2thefirstcampaign_2_21
// 047   ----------------------------------------
        BYTE   PATT
         POIN2  eo2thefirstcampaign_2_20
// 048   ----------------------------------------
        BYTE   PATT
         POIN2  eo2thefirstcampaign_2_23
// 049   ----------------------------------------
        BYTE   PATT
         POIN2  eo2thefirstcampaign_2_20
// 050   ----------------------------------------
        BYTE   PATT
         POIN2  eo2thefirstcampaign_2_21
// 051   ----------------------------------------
        BYTE   PATT
         POIN2  eo2thefirstcampaign_2_20
// 052   ----------------------------------------
        BYTE           N05     Dn1   v127
        BYTE   W24
        BYTE           N28     Fs0   v127   gtp1
        BYTE   W36
        BYTE           N05     Gs1
        BYTE   W12
        BYTE                   Fs0
        BYTE   W12
        BYTE                   Gs1
        BYTE   W12
// 053   ----------------------------------------
eo2thefirstcampaign_2_53:
        BYTE           N05     Dn1   v127
        BYTE   W12
        BYTE                   Dn1
        BYTE   W12
        BYTE                   Dn2
        BYTE   W12
        BYTE                   Dn1
        BYTE   W12
        BYTE                   Dn1
        BYTE   W12
        BYTE                   Dn1
        BYTE   W12
        BYTE                   Dn2
        BYTE   W12
        BYTE                   Dn1
        BYTE   W12
        BYTE   PEND
// 054   ----------------------------------------
        BYTE   PATT
         POIN2  eo2thefirstcampaign_2_53
// 055   ----------------------------------------
eo2thefirstcampaign_2_55:
        BYTE           N05     Cs1   v127
        BYTE   W12
        BYTE                   Cs1
        BYTE   W12
        BYTE                   Cs2
        BYTE   W12
        BYTE                   Cs1
        BYTE   W12
        BYTE                   Cs1
        BYTE   W12
        BYTE                   Cs1
        BYTE   W12
        BYTE                   Cs2
        BYTE   W12
        BYTE                   Cs1
        BYTE   W12
        BYTE   PEND
// 056   ----------------------------------------
        BYTE   PATT
         POIN2  eo2thefirstcampaign_2_55
// 057   ----------------------------------------
eo2thefirstcampaign_2_57:
        BYTE           N05     Cn1   v127
        BYTE   W12
        BYTE                   Cn1
        BYTE   W12
        BYTE                   Cn2
        BYTE   W12
        BYTE                   Cn1
        BYTE   W12
        BYTE                   Cn1
        BYTE   W12
        BYTE                   Cn2
        BYTE   W12
        BYTE                   Cn1
        BYTE   W12
        BYTE           N23     Fn1
        BYTE   W12
        BYTE   PEND
// 058   ----------------------------------------
        BYTE   W12
        BYTE           N05
        BYTE   W12
        BYTE                   Fn2
        BYTE   W12
        BYTE                   Fn1
        BYTE   W12
        BYTE                   Fn1
        BYTE   W12
        BYTE                   Fn2
        BYTE   W12
        BYTE                   Fn1
        BYTE   W12
        BYTE                   Fn2
        BYTE   W12
// 059   ----------------------------------------
        BYTE                   Fs1
        BYTE   W12
        BYTE                   Fs1
        BYTE   W12
        BYTE                   Fs2
        BYTE   W12
        BYTE                   Fs1
        BYTE   W12
        BYTE                   Fs1
        BYTE   W12
        BYTE                   Fs1
        BYTE   W12
        BYTE                   Fs2
        BYTE   W12
        BYTE                   Fs1
        BYTE   W12
// 060   ----------------------------------------
        BYTE                   Bn0
        BYTE   W12
        BYTE                   Bn0
        BYTE   W12
        BYTE                   Bn1
        BYTE   W12
        BYTE                   Bn0
        BYTE   W12
        BYTE                   Bn0
        BYTE   W12
        BYTE                   Bn0
        BYTE   W12
        BYTE                   Bn1
        BYTE   W12
        BYTE                   Bn0
        BYTE   W12
// 061   ----------------------------------------
        BYTE   PATT
         POIN2  eo2thefirstcampaign_2_53
// 062   ----------------------------------------
        BYTE   PATT
         POIN2  eo2thefirstcampaign_2_53
// 063   ----------------------------------------
        BYTE   PATT
         POIN2  eo2thefirstcampaign_2_55
// 064   ----------------------------------------
        BYTE   PATT
         POIN2  eo2thefirstcampaign_2_55
// 065   ----------------------------------------
        BYTE   PATT
         POIN2  eo2thefirstcampaign_2_57
// 066   ----------------------------------------
        BYTE   W12
        BYTE           N05     Fn1   v127
        BYTE   W12
        BYTE                   Fn2
        BYTE   W12
        BYTE           N17     As0
        BYTE   W24
        BYTE           N05     As1
        BYTE   W12
        BYTE                   As0
        BYTE   W12
        BYTE           N23     Bn0
        BYTE   W12
// 067   ----------------------------------------
        BYTE   W12
        BYTE           N05     Bn1
        BYTE   W12
        BYTE                   Bn0
        BYTE   W12
        BYTE           N23     Fn0
        BYTE   W24
        BYTE           N05     Fn1
        BYTE   W12
        BYTE                   Fn0
        BYTE   W12
        BYTE                   Fn1
        BYTE   W12
// 068   ----------------------------------------
        BYTE                   As0
        BYTE   W12
        BYTE                   As1
        BYTE   W12
        BYTE           N23     En1
        BYTE   W24
        BYTE           N05
        BYTE   W12
        BYTE                   En2
        BYTE   W12
        BYTE                   En1
        BYTE   W12
        BYTE                   En2
        BYTE   W12
// 069   ----------------------------------------
        BYTE   GoTo
         POIN2  eo2thefirstcampaign_2_LOOP
        BYTE   FINE

//****************** Track 3 (Midi-Chn.3) ******************//

eo2thefirstcampaign_3:
        BYTE   KEYSH   eo2thefirstcampaign_key+0
// 000   ----------------------------------------
        BYTE           VOICE   4
        BYTE           VOL     42
        BYTE           PAN     c_v+20
        BYTE           N11     En3   v050
        BYTE           N11     An3
        BYTE   W12
        BYTE                   En3
        BYTE   W12
        BYTE                   An2
        BYTE   W12
        BYTE           N23     An2   v072
        BYTE   W24
        BYTE           N30     An2   v060   gtp1
        BYTE   W12
        BYTE           N18     En3   v061
        BYTE   W12
        BYTE           N11     An3
        BYTE   W12
// 001   ----------------------------------------
        BYTE                   Dn3   v050
        BYTE           N11     Gn3
        BYTE   W12
        BYTE                   Dn3
        BYTE   W12
        BYTE                   Gn2
        BYTE   W12
        BYTE           N23     Gn2   v072
        BYTE   W24
        BYTE           N30     Gn2   v060   gtp1
        BYTE   W12
        BYTE           N18     Dn3   v061
        BYTE   W12
        BYTE           N11     Gn3
        BYTE   W12
// 002   ----------------------------------------
        BYTE                   Cn3   v050
        BYTE           N11     Fn3
        BYTE   W12
        BYTE                   Cn3
        BYTE   W12
        BYTE                   Fn2
        BYTE   W12
        BYTE           N23     Fn2   v072
        BYTE   W24
        BYTE           N30     Fn2   v060   gtp1
        BYTE   W12
        BYTE           N18     Cn3   v061
        BYTE   W12
        BYTE           N11     Fn3
        BYTE   W12
// 003   ----------------------------------------
        BYTE                   Dn3
        BYTE           N11     Gn3
        BYTE   W12
        BYTE           N07     Dn3
        BYTE           N07     Gn3
        BYTE   W84
// 004   ----------------------------------------
eo2thefirstcampaign_3_LOOP:
        BYTE           N11     An2   v043
        BYTE           N03     Cn3
        BYTE   W12
        BYTE           N11
        BYTE           N03     En3
        BYTE   W12
        BYTE           N23     An3
        BYTE           N23     Cn4
        BYTE   W24
        BYTE           N11     An3
        BYTE           N11     Cn4
        BYTE   W12
        BYTE           N23     Gn3
        BYTE           N23     Bn3
        BYTE   W24
        BYTE                   Fn3
        BYTE           N23     An3
        BYTE   W12
// 005   ----------------------------------------
eo2thefirstcampaign_3_5:
        BYTE   W12
        BYTE           N11     Fn3   v043
        BYTE           N03     An3
        BYTE   W12
        BYTE           N23     Cn3
        BYTE           N23     Fn3
        BYTE   W24
        BYTE           N03     Cn3
        BYTE           N11     Fn3
        BYTE   W12
        BYTE           N23     Cn3
        BYTE           N23     Fn3
        BYTE   W24
        BYTE           N03     Cn3
        BYTE           N11     Fn3
        BYTE   W12
        BYTE   PEND
// 006   ----------------------------------------
eo2thefirstcampaign_3_6:
        BYTE           N11     Cn3   v043
        BYTE           N03     Gn3
        BYTE   W12
        BYTE           N11     Cn3
        BYTE           N03     Gn3
        BYTE   W12
        BYTE           N23
        BYTE           N23     Cn4
        BYTE   W24
        BYTE           N04     Gn3
        BYTE           N11     Cn4
        BYTE   W12
        BYTE           N23     Gn3
        BYTE           N23     Cn4
        BYTE   W24
        BYTE                   Gn3
        BYTE           N23     Bn3
        BYTE   W12
        BYTE   PEND
// 007   ----------------------------------------
eo2thefirstcampaign_3_7:
        BYTE   W12
        BYTE           N11     Gn2   v043
        BYTE           N03     Gn3
        BYTE   W12
        BYTE           N23     Gn2
        BYTE           N23     Dn3
        BYTE           N11     Gn3
        BYTE   W12
        BYTE                   Bn3
        BYTE   W12
        BYTE                   Gn2
        BYTE           N03     Dn3
        BYTE           N11     Dn4
        BYTE   W12
        BYTE           N23     Gn2
        BYTE           N23     Dn3
        BYTE   W12
        BYTE           N11     Gn3
        BYTE   W12
        BYTE                   An2
        BYTE           N17     En3
        BYTE           N23     An3
        BYTE   W12
        BYTE   PEND
// 008   ----------------------------------------
eo2thefirstcampaign_3_8:
        BYTE   W12
        BYTE           N03     En3   v043
        BYTE           N11     An3
        BYTE   W12
        BYTE           N23
        BYTE           N03     Cn4
        BYTE   W12
        BYTE           N11
        BYTE   W12
        BYTE                   An3
        BYTE           N04     Cn4
        BYTE   W12
        BYTE           N23     Gn3
        BYTE           N23     Bn3
        BYTE   W24
        BYTE                   Fn3
        BYTE           N23     An3
        BYTE   W12
        BYTE   PEND
// 009   ----------------------------------------
eo2thefirstcampaign_3_9:
        BYTE   W12
        BYTE           N11     Fn3   v043
        BYTE           N03     An3
        BYTE   W12
        BYTE           N23     Cn4
        BYTE           N23     Fn4
        BYTE   W24
        BYTE           N11     An3
        BYTE           N03     Cn4
        BYTE   W12
        BYTE           N23     Fn3
        BYTE           N23     An3
        BYTE   W24
        BYTE           N11     Fn3
        BYTE           N03     An3
        BYTE   W12
        BYTE   PEND
// 010   ----------------------------------------
eo2thefirstcampaign_3_10:
        BYTE           N11     En3   v043
        BYTE           N03     Gn3
        BYTE   W12
        BYTE           N11     En3
        BYTE           N03     Gn3
        BYTE   W12
        BYTE           N23     En3
        BYTE           N23     Gn3
        BYTE   W24
        BYTE           N11     En3
        BYTE           N04     Gn3
        BYTE   W12
        BYTE           N23     En3
        BYTE           N23     Gn3
        BYTE   W24
        BYTE                   Fn3
        BYTE           N23     Cn3
        BYTE   W12
        BYTE   PEND
// 011   ----------------------------------------
eo2thefirstcampaign_3_11:
        BYTE   W12
        BYTE           N11     Fn3   v043
        BYTE           N03     Cn3
        BYTE   W12
        BYTE           N23     Fn3
        BYTE           N23     Cn3
        BYTE   W24
        BYTE           N11     Fn3
        BYTE           N03     Cn3
        BYTE   W12
        BYTE           N23     Fn3
        BYTE           N23     Cn3
        BYTE   W24
        BYTE           N11     Fn3
        BYTE           N03     Cn3
        BYTE   W12
        BYTE   PEND
// 012   ----------------------------------------
eo2thefirstcampaign_3_12:
        BYTE           N11     An2   v043
        BYTE           N03     Cn3
        BYTE   W12
        BYTE           N11
        BYTE           N03     En3
        BYTE   W12
        BYTE           N23     An3
        BYTE           N23     Cn4
        BYTE   W24
        BYTE           N11     An3
        BYTE           N11     Cn4
        BYTE   W12
        BYTE           N23     Gn3
        BYTE           N23     Bn3
        BYTE   W24
        BYTE                   Fn3
        BYTE           N23     An3
        BYTE   W12
        BYTE   PEND
// 013   ----------------------------------------
        BYTE   PATT
         POIN2  eo2thefirstcampaign_3_5
// 014   ----------------------------------------
        BYTE   PATT
         POIN2  eo2thefirstcampaign_3_6
// 015   ----------------------------------------
        BYTE   PATT
         POIN2  eo2thefirstcampaign_3_7
// 016   ----------------------------------------
        BYTE   PATT
         POIN2  eo2thefirstcampaign_3_8
// 017   ----------------------------------------
        BYTE   PATT
         POIN2  eo2thefirstcampaign_3_9
// 018   ----------------------------------------
eo2thefirstcampaign_3_18:
        BYTE           N03     Bn2   v043
        BYTE           N11     En3
        BYTE   W12
        BYTE           N03     Gn3
        BYTE           N11     En3
        BYTE   W12
        BYTE           N23     Gn3
        BYTE           N23     Dn4
        BYTE   W24
        BYTE           N04     Gn3
        BYTE           N11     Dn4
        BYTE   W12
        BYTE           N23     Gn3
        BYTE           N23     En3
        BYTE   W24
        BYTE                   An3
        BYTE           N23     Dn4
        BYTE   W12
        BYTE   PEND
// 019   ----------------------------------------
eo2thefirstcampaign_3_19:
        BYTE   W12
        BYTE           N11     An3   v043
        BYTE           N03     Dn4
        BYTE   W12
        BYTE           N23     An3
        BYTE           N23     Cs4
        BYTE   W24
        BYTE           N11     An3
        BYTE           N03     Bn3
        BYTE   W12
        BYTE           N23     An3
        BYTE           N23     Cs4
        BYTE   W24
        BYTE           N11     An3
        BYTE           N03     Cs4
        BYTE   W12
        BYTE   PEND
// 020   ----------------------------------------
eo2thefirstcampaign_3_20:
        BYTE           N64     Dn3   v059   gtp1
        BYTE   W12
        BYTE           N11     An3
        BYTE   W12
        BYTE                   Dn4
        BYTE   W12
        BYTE                   An3
        BYTE   W12
        BYTE                   Dn4
        BYTE   W12
        BYTE                   An3
        BYTE   W12
        BYTE           N40     Dn3   v059   gtp1
        BYTE   W12
        BYTE           N11     An3
        BYTE   W12
        BYTE   PEND
// 021   ----------------------------------------
eo2thefirstcampaign_3_21:
        BYTE           N11     Dn4   v059
        BYTE   W12
        BYTE                   An3
        BYTE   W12
        BYTE           N64     Cn3   v059   gtp1
        BYTE           N44     Gn3   v059   gtp3
        BYTE   W12
        BYTE           N11     Cn4
        BYTE   W12
        BYTE                   Gn4
        BYTE   W12
        BYTE                   Cn4
        BYTE   W12
        BYTE                   Gn3
        BYTE   W12
        BYTE                   Cn4
        BYTE   W12
        BYTE   PEND
// 022   ----------------------------------------
        BYTE   PATT
         POIN2  eo2thefirstcampaign_3_20
// 023   ----------------------------------------
        BYTE           N11     Dn4   v059
        BYTE   W12
        BYTE                   An3
        BYTE   W12
        BYTE           N64     Gs2   v059   gtp1
        BYTE           N44     Fn3   v059   gtp3
        BYTE   W12
        BYTE           N11     Gn4
        BYTE   W12
        BYTE                   Gn4
        BYTE   W12
        BYTE                   Cn4
        BYTE   W12
        BYTE                   Fn3
        BYTE   W12
        BYTE                   Gs3
        BYTE   W12
// 024   ----------------------------------------
        BYTE   PATT
         POIN2  eo2thefirstcampaign_3_20
// 025   ----------------------------------------
        BYTE   PATT
         POIN2  eo2thefirstcampaign_3_21
// 026   ----------------------------------------
        BYTE   PATT
         POIN2  eo2thefirstcampaign_3_20
// 027   ----------------------------------------
        BYTE           N11     Dn4   v059
        BYTE   W12
        BYTE                   An3
        BYTE   W12
        BYTE           TIE     Gs2
        BYTE           N44     Fn3   v059   gtp3
        BYTE   W12
        BYTE           N11     Fn4
        BYTE   W12
        BYTE                   Fn4
        BYTE   W12
        BYTE                   Cn4
        BYTE   W12
        BYTE                   Fn3
        BYTE   W12
        BYTE                   Cn3
        BYTE   W12
// 028   ----------------------------------------
        BYTE                   Gs3
        BYTE   W12
        BYTE                   Fn3
        BYTE   W12
        BYTE                   Gs3
        BYTE   W12
        BYTE                   Cn4
        BYTE   W12
        BYTE                   Fn4
        BYTE   W12
        BYTE                   Cn4
        BYTE   W12
        BYTE                   Gs3
        BYTE   W12
        BYTE                   Fn3
        BYTE   W05
        BYTE           EOT     Gs2
        BYTE   W07
// 029   ----------------------------------------
        BYTE   PATT
         POIN2  eo2thefirstcampaign_3_12
// 030   ----------------------------------------
        BYTE   PATT
         POIN2  eo2thefirstcampaign_3_5
// 031   ----------------------------------------
        BYTE   PATT
         POIN2  eo2thefirstcampaign_3_6
// 032   ----------------------------------------
        BYTE   PATT
         POIN2  eo2thefirstcampaign_3_7
// 033   ----------------------------------------
        BYTE   PATT
         POIN2  eo2thefirstcampaign_3_8
// 034   ----------------------------------------
        BYTE   PATT
         POIN2  eo2thefirstcampaign_3_9
// 035   ----------------------------------------
        BYTE   PATT
         POIN2  eo2thefirstcampaign_3_10
// 036   ----------------------------------------
        BYTE   PATT
         POIN2  eo2thefirstcampaign_3_11
// 037   ----------------------------------------
        BYTE   PATT
         POIN2  eo2thefirstcampaign_3_12
// 038   ----------------------------------------
        BYTE   PATT
         POIN2  eo2thefirstcampaign_3_5
// 039   ----------------------------------------
        BYTE   PATT
         POIN2  eo2thefirstcampaign_3_6
// 040   ----------------------------------------
        BYTE   PATT
         POIN2  eo2thefirstcampaign_3_7
// 041   ----------------------------------------
        BYTE   PATT
         POIN2  eo2thefirstcampaign_3_8
// 042   ----------------------------------------
        BYTE   PATT
         POIN2  eo2thefirstcampaign_3_9
// 043   ----------------------------------------
        BYTE   PATT
         POIN2  eo2thefirstcampaign_3_18
// 044   ----------------------------------------
        BYTE   PATT
         POIN2  eo2thefirstcampaign_3_19
// 045   ----------------------------------------
        BYTE   PATT
         POIN2  eo2thefirstcampaign_3_20
// 046   ----------------------------------------
        BYTE   PATT
         POIN2  eo2thefirstcampaign_3_21
// 047   ----------------------------------------
        BYTE   PATT
         POIN2  eo2thefirstcampaign_3_20
// 048   ----------------------------------------
        BYTE           N11     Dn4   v059
        BYTE   W12
        BYTE                   An3
        BYTE   W12
        BYTE           N64     Gs2   v059   gtp1
        BYTE           N44     Fn3   v059   gtp3
        BYTE           N56     Cn5   v059   gtp3
        BYTE   W12
        BYTE           N11     Fn4
        BYTE   W12
        BYTE                   Fn4
        BYTE   W12
        BYTE                   Cn4
        BYTE   W12
        BYTE                   Fn3
        BYTE   W12
        BYTE                   Gn3
        BYTE   W12
// 049   ----------------------------------------
        BYTE   PATT
         POIN2  eo2thefirstcampaign_3_20
// 050   ----------------------------------------
        BYTE   PATT
         POIN2  eo2thefirstcampaign_3_21
// 051   ----------------------------------------
        BYTE   PATT
         POIN2  eo2thefirstcampaign_3_20
// 052   ----------------------------------------
        BYTE           N11     Dn4   v059
        BYTE   W12
        BYTE                   An3
        BYTE   W12
        BYTE           N64     Fn2   v059   gtp1
        BYTE           N44     Fn3   v059   gtp3
        BYTE           N56     As4   v059   gtp3
        BYTE   W12
        BYTE           N11     Fn4
        BYTE   W12
        BYTE                   Fn4
        BYTE   W12
        BYTE                   Cn4
        BYTE   W12
        BYTE                   Fn3
        BYTE   W12
        BYTE                   Cn4
        BYTE   W12
// 053   ----------------------------------------
eo2thefirstcampaign_3_53:
        BYTE           N23     En3   v065
        BYTE           N05     Bn3
        BYTE   W12
        BYTE                   Bn3
        BYTE   W12
        BYTE           N23     En3
        BYTE           N23     Bn3
        BYTE   W24
        BYTE           N11     En3
        BYTE           N05     Bn3
        BYTE   W12
        BYTE           N23     En3
        BYTE           N23     Bn3
        BYTE   W24
        BYTE                   En3
        BYTE           N23     Bn3
        BYTE   W12
        BYTE   PEND
// 054   ----------------------------------------
eo2thefirstcampaign_3_54:
        BYTE   W12
        BYTE           N11     En3   v065
        BYTE           N23     Bn3
        BYTE   W12
        BYTE           N64     En3   v065   gtp1
        BYTE   W12
        BYTE           N11     En4
        BYTE   W12
        BYTE                   Gs4
        BYTE   W12
        BYTE                   En4
        BYTE   W12
        BYTE                   Gs4
        BYTE   W12
        BYTE                   Bn4
        BYTE   W12
        BYTE   PEND
// 055   ----------------------------------------
eo2thefirstcampaign_3_55:
        BYTE           N23     Cs3   v065
        BYTE           N05     Gs3
        BYTE   W12
        BYTE                   Gs3
        BYTE   W12
        BYTE           N23     Cs3
        BYTE           N23     Gs3
        BYTE   W24
        BYTE           N11     Cs3
        BYTE           N05     Gs3
        BYTE   W12
        BYTE           N23     Cs3
        BYTE           N23     Gs3
        BYTE   W24
        BYTE                   Cs3
        BYTE           N23     Gs3
        BYTE   W12
        BYTE   PEND
// 056   ----------------------------------------
eo2thefirstcampaign_3_56:
        BYTE   W12
        BYTE           N11     Cs3   v065
        BYTE           N23     Gs3
        BYTE   W12
        BYTE           N64     Cs3   v065   gtp1
        BYTE   W12
        BYTE           N11     Cs4
        BYTE   W12
        BYTE                   En4
        BYTE   W12
        BYTE                   Cs4
        BYTE   W12
        BYTE                   En4
        BYTE   W12
        BYTE                   Gs4
        BYTE   W12
        BYTE   PEND
// 057   ----------------------------------------
eo2thefirstcampaign_3_57:
        BYTE           N23     Cn3   v065
        BYTE           N05     Gn3
        BYTE   W12
        BYTE                   Gn3
        BYTE   W12
        BYTE           N23     Cn3
        BYTE           N23     Gn3
        BYTE   W24
        BYTE           N11     Cn3
        BYTE           N05     Gn3
        BYTE   W12
        BYTE           N23     Cn3
        BYTE           N11     Gn3
        BYTE   W12
        BYTE                   Gn3
        BYTE   W12
        BYTE           N23     Fn3
        BYTE           N23     An3
        BYTE   W12
        BYTE   PEND
// 058   ----------------------------------------
        BYTE   W12
        BYTE           N80     Fn3   v065   gtp3
        BYTE   W12
        BYTE           N11     An3
        BYTE   W12
        BYTE                   Cn4
        BYTE   W12
        BYTE                   Fn4
        BYTE   W12
        BYTE                   Cn4
        BYTE   W12
        BYTE                   Fn4
        BYTE   W12
        BYTE                   An4
        BYTE   W12
// 059   ----------------------------------------
        BYTE           N92     Bn3   v065   gtp3
        BYTE           N11     En4   v049
        BYTE           N11     Fs4
        BYTE           N11     Bn4
        BYTE   W12
        BYTE                   En4
        BYTE           N11     Fs4
        BYTE           N11     Bn4
        BYTE   W12
        BYTE                   En4
        BYTE           N11     Fs4
        BYTE           N11     Bn4
        BYTE   W12
        BYTE           N23     En4
        BYTE           N23     Fs4
        BYTE           N23     Bn4
        BYTE   W24
        BYTE           N11     En4
        BYTE           N11     Fs4
        BYTE   W12
        BYTE                   En4
        BYTE           N11     Fs4
        BYTE           N11     Bn4
        BYTE   W12
        BYTE                   En4
        BYTE           N11     Fs4
        BYTE   W12
// 060   ----------------------------------------
        BYTE           N92     Bn3   v065   gtp3
        BYTE           N23     En4   v049
        BYTE           N23     Fs4
        BYTE           N23     Bn4
        BYTE   W24
        BYTE           N11     En4
        BYTE           N11     Fs4
        BYTE           N11     Bn4
        BYTE   W12
        BYTE           N56     En4   v049   gtp3
        BYTE                   Fs4
        BYTE           N56     An4   v049   gtp3
        BYTE   W60
// 061   ----------------------------------------
        BYTE   PATT
         POIN2  eo2thefirstcampaign_3_53
// 062   ----------------------------------------
        BYTE   PATT
         POIN2  eo2thefirstcampaign_3_54
// 063   ----------------------------------------
        BYTE   PATT
         POIN2  eo2thefirstcampaign_3_55
// 064   ----------------------------------------
        BYTE   PATT
         POIN2  eo2thefirstcampaign_3_56
// 065   ----------------------------------------
        BYTE   PATT
         POIN2  eo2thefirstcampaign_3_57
// 066   ----------------------------------------
        BYTE   W12
        BYTE           N68     Fn3   v065   gtp3
        BYTE   W12
        BYTE           N11     An3
        BYTE   W12
        BYTE                   Dn4
        BYTE   W12
        BYTE                   Fn4
        BYTE   W12
        BYTE                   Dn4
        BYTE   W12
        BYTE                   Fn4
        BYTE   W12
        BYTE           N44     Bn3   v065   gtp3
        BYTE           N23     En4   v049
        BYTE           N23     Fs4
        BYTE           N23     Bn4
        BYTE   W12
// 067   ----------------------------------------
        BYTE   W12
        BYTE           N11     En4
        BYTE           N11     Fs4
        BYTE           N11     Bn4
        BYTE   W12
        BYTE                   En4
        BYTE           N11     Fs4
        BYTE           N11     Bn4
        BYTE   W12
        BYTE           N23     Fn3   v065
        BYTE           N23     En4   v049
        BYTE           N23     Cn4   v065
        BYTE           N23     Bn4   v049
        BYTE   W24
        BYTE           N11     Fn3   v065
        BYTE           N11     En4   v049
        BYTE           N11     Cn4   v065
        BYTE   W12
        BYTE                   Fn3
        BYTE           N11     En4   v049
        BYTE           N11     Cn4   v065
        BYTE           N11     Bn4   v049
        BYTE   W12
        BYTE           N17     As2   v065
        BYTE           N17     An3
        BYTE           N17     Dn4   v049
        BYTE           N17     Fn4
        BYTE   W12
// 068   ----------------------------------------
        BYTE   W12
        BYTE           N05     As2   v065
        BYTE   W12
        BYTE           N68     En3   v065   gtp3
        BYTE                   Dn4
        BYTE           N68     An4   v065   gtp3
        BYTE   W72
// 069   ----------------------------------------
        BYTE   GoTo
         POIN2  eo2thefirstcampaign_3_LOOP
        BYTE   FINE

//****************** Track 4 (Midi-Chn.4) ******************//

eo2thefirstcampaign_4:
        BYTE   KEYSH   eo2thefirstcampaign_key+0
// 000   ----------------------------------------
        BYTE           VOICE   61
        BYTE           VOL     26
        BYTE   W12
        BYTE           N12     An3   v090
        BYTE   W12
        BYTE           N24     Cn3   v060   gtp3
        BYTE   W12
        BYTE           N16     En3   v069
        BYTE   W12
        BYTE           N24     Bn3   v081   gtp3
        BYTE   W24
        BYTE           N12     Cn3   v045
        BYTE   W12
        BYTE           N15     En3   v081
        BYTE   W12
// 001   ----------------------------------------
        BYTE           N14     Gn3   v052
        BYTE   W12
        BYTE           N11     An3   v069
        BYTE   W12
        BYTE           N13     Dn3   v060
        BYTE   W12
        BYTE           N12     En3   v090
        BYTE   W12
        BYTE           N24     Bn3   v111   gtp2
        BYTE   W24
        BYTE           N11     Dn3   v060
        BYTE   W12
        BYTE           N16     En3   v069
        BYTE   W12
// 002   ----------------------------------------
        BYTE           N14     Gn3   v060
        BYTE   W12
        BYTE           N13     An3   v081
        BYTE   W12
        BYTE           N16     Cn3   v060
        BYTE   W12
        BYTE           N15     En3   v052
        BYTE   W12
        BYTE           N24     Bn3   v101   gtp1
        BYTE   W24
        BYTE           N14     Cn3   v060
        BYTE   W12
        BYTE           N16     En3   v069
        BYTE   W12
// 003   ----------------------------------------
        BYTE           N12     An3   v045
        BYTE   W12
        BYTE           N06     Dn3   v097
        BYTE           N06     Gn3
        BYTE   W12
        BYTE           N07     Dn3   v085
        BYTE           N07     Gn3
        BYTE   W68
        BYTE   W03
        BYTE           MOD     2
        BYTE   W01
// 004   ----------------------------------------
eo2thefirstcampaign_4_LOOP:
        BYTE   W06
        BYTE           N36     En3   v074   gtp3
        BYTE   W01
        BYTE           BEND    c_v+2
        BYTE   W44
        BYTE   W03
        BYTE           N11
        BYTE   W12
        BYTE           N10     Dn3
        BYTE   W12
        BYTE           N07     En3
        BYTE   W18
// 005   ----------------------------------------
eo2thefirstcampaign_4_5:
        BYTE   W30
        BYTE           N20     An3   v074
        BYTE   W24
        BYTE                   Gn3
        BYTE   W24
        BYTE                   Fn3
        BYTE   W18
        BYTE   PEND
// 006   ----------------------------------------
eo2thefirstcampaign_4_6:
        BYTE   W06
        BYTE           N36     En3   v074   gtp3
        BYTE   W48
        BYTE           N11
        BYTE   W12
        BYTE           N10     Dn3
        BYTE   W12
        BYTE           N07     Cn3
        BYTE   W12
        BYTE           N60     Dn3   v074   gtp3
        BYTE   W06
        BYTE   PEND
// 007   ----------------------------------------
        BYTE   W66
        BYTE           N08     Cn3
        BYTE   W12
        BYTE                   Bn2
        BYTE           N08     Dn3
        BYTE   W12
        BYTE           N48     En3   v074   gtp3
        BYTE   W06
// 008   ----------------------------------------
eo2thefirstcampaign_4_8:
        BYTE   W54
        BYTE           N11     En3   v074
        BYTE   W12
        BYTE           N10     Dn3
        BYTE   W12
        BYTE           N07     En3
        BYTE   W18
        BYTE   PEND
// 009   ----------------------------------------
eo2thefirstcampaign_4_9:
        BYTE   W30
        BYTE           N20     Cn4   v074
        BYTE   W24
        BYTE                   Bn3
        BYTE   W24
        BYTE                   An3
        BYTE   W18
        BYTE   PEND
// 010   ----------------------------------------
eo2thefirstcampaign_4_10:
        BYTE   W06
        BYTE           N32     Bn3   v074   gtp3
        BYTE   W48
        BYTE           N10
        BYTE   W12
        BYTE                   Gn3
        BYTE   W12
        BYTE           N07     Bn3
        BYTE   W12
        BYTE           N80     An3   v074   gtp3
        BYTE   W06
        BYTE   PEND
// 011   ----------------------------------------
        BYTE   W96
// 012   ----------------------------------------
        BYTE   W96
// 013   ----------------------------------------
        BYTE   W96
// 014   ----------------------------------------
        BYTE   W96
// 015   ----------------------------------------
        BYTE   W96
// 016   ----------------------------------------
        BYTE   W96
// 017   ----------------------------------------
        BYTE   W96
// 018   ----------------------------------------
        BYTE   W96
// 019   ----------------------------------------
        BYTE   W96
// 020   ----------------------------------------
eo2thefirstcampaign_4_20:
        BYTE   W12
        BYTE           N09     An3   v094
        BYTE   W12
        BYTE           N07     An3   v074
        BYTE   W24
        BYTE           N05
        BYTE   W24
        BYTE                   An3
        BYTE   W24
        BYTE   PEND
// 021   ----------------------------------------
eo2thefirstcampaign_4_21:
        BYTE           N05     An3   v074
        BYTE   W36
        BYTE           N56     As3   v085   gtp3
        BYTE   W60
        BYTE   PEND
// 022   ----------------------------------------
eo2thefirstcampaign_4_22:
        BYTE   W12
        BYTE           N09     An3   v092
        BYTE   W12
        BYTE           N07     An3   v074
        BYTE   W24
        BYTE           N05
        BYTE   W24
        BYTE                   An3
        BYTE   W24
        BYTE   PEND
// 023   ----------------------------------------
eo2thefirstcampaign_4_23:
        BYTE           N05     An3   v074
        BYTE   W36
        BYTE           N56     Cn4   v090   gtp3
        BYTE   W60
        BYTE   PEND
// 024   ----------------------------------------
eo2thefirstcampaign_4_24:
        BYTE   W12
        BYTE           N09     An3   v090
        BYTE   W12
        BYTE           N07     An3   v074
        BYTE   W24
        BYTE           N05
        BYTE   W24
        BYTE                   An3
        BYTE   W24
        BYTE   PEND
// 025   ----------------------------------------
eo2thefirstcampaign_4_25:
        BYTE           N05     An3   v074
        BYTE   W36
        BYTE           N56     As3   v087   gtp3
        BYTE   W60
        BYTE   PEND
// 026   ----------------------------------------
        BYTE   PATT
         POIN2  eo2thefirstcampaign_4_24
// 027   ----------------------------------------
        BYTE           N05     An3   v074
        BYTE   W36
        BYTE           TIE     Cn4   v090
        BYTE   W60
// 028   ----------------------------------------
        BYTE   W80
        BYTE   W03
        BYTE           EOT
        BYTE   W13
// 029   ----------------------------------------
        BYTE   W06
        BYTE           N36     En3   v074   gtp3
        BYTE   W48
        BYTE           N11
        BYTE   W12
        BYTE           N10     Dn3
        BYTE   W12
        BYTE           N07     En3
        BYTE   W18
// 030   ----------------------------------------
        BYTE   PATT
         POIN2  eo2thefirstcampaign_4_5
// 031   ----------------------------------------
        BYTE   PATT
         POIN2  eo2thefirstcampaign_4_6
// 032   ----------------------------------------
        BYTE   W66
        BYTE           N08     Cn3   v074
        BYTE   W12
        BYTE                   Dn3
        BYTE   W12
        BYTE           N48     En3   v074   gtp3
        BYTE   W06
// 033   ----------------------------------------
        BYTE   PATT
         POIN2  eo2thefirstcampaign_4_8
// 034   ----------------------------------------
        BYTE   PATT
         POIN2  eo2thefirstcampaign_4_9
// 035   ----------------------------------------
        BYTE   PATT
         POIN2  eo2thefirstcampaign_4_10
// 036   ----------------------------------------
        BYTE   W96
// 037   ----------------------------------------
        BYTE   W96
// 038   ----------------------------------------
        BYTE   W96
// 039   ----------------------------------------
        BYTE   W96
// 040   ----------------------------------------
        BYTE   W96
// 041   ----------------------------------------
        BYTE   W96
// 042   ----------------------------------------
        BYTE   W96
// 043   ----------------------------------------
        BYTE   W96
// 044   ----------------------------------------
        BYTE   W96
// 045   ----------------------------------------
        BYTE   PATT
         POIN2  eo2thefirstcampaign_4_20
// 046   ----------------------------------------
        BYTE   PATT
         POIN2  eo2thefirstcampaign_4_21
// 047   ----------------------------------------
        BYTE   PATT
         POIN2  eo2thefirstcampaign_4_22
// 048   ----------------------------------------
        BYTE   PATT
         POIN2  eo2thefirstcampaign_4_23
// 049   ----------------------------------------
        BYTE   PATT
         POIN2  eo2thefirstcampaign_4_24
// 050   ----------------------------------------
        BYTE   PATT
         POIN2  eo2thefirstcampaign_4_25
// 051   ----------------------------------------
        BYTE   PATT
         POIN2  eo2thefirstcampaign_4_24
// 052   ----------------------------------------
        BYTE           N05     An3   v074
        BYTE   W36
        BYTE           N52     Cn4   v090   gtp1
        BYTE   W60
// 053   ----------------------------------------
        BYTE   W96
// 054   ----------------------------------------
        BYTE   W96
// 055   ----------------------------------------
        BYTE   W96
// 056   ----------------------------------------
        BYTE   W96
// 057   ----------------------------------------
        BYTE   W96
// 058   ----------------------------------------
        BYTE   W96
// 059   ----------------------------------------
        BYTE   W96
// 060   ----------------------------------------
        BYTE   W96
// 061   ----------------------------------------
        BYTE   W96
// 062   ----------------------------------------
        BYTE   W96
// 063   ----------------------------------------
        BYTE   W96
// 064   ----------------------------------------
        BYTE   W96
// 065   ----------------------------------------
        BYTE   W96
// 066   ----------------------------------------
        BYTE   W96
// 067   ----------------------------------------
        BYTE   W96
// 068   ----------------------------------------
        BYTE   W96
// 069   ----------------------------------------
        BYTE           BEND    c_v+0
        BYTE   GoTo
         POIN2  eo2thefirstcampaign_4_LOOP
        BYTE   FINE

//****************** Track 5 (Midi-Chn.5) ******************//

eo2thefirstcampaign_5:
        BYTE   KEYSH   eo2thefirstcampaign_key+0
// 000   ----------------------------------------
        BYTE           VOICE   81
        BYTE           PAN     c_v-32
        BYTE           VOL     32
        BYTE           N11     En4   v082
        BYTE   W12
        BYTE                   An3
        BYTE   W12
        BYTE           N32     Cn4   v073   gtp3
        BYTE   W12
        BYTE                   Gn4   v091
        BYTE   W24
        BYTE           N11     An3
        BYTE   W12
        BYTE                   Cn4
        BYTE   W12
        BYTE                   En4
        BYTE   W12
// 001   ----------------------------------------
        BYTE           N12     En4   v073
        BYTE   W12
        BYTE           N11     An3
        BYTE   W12
        BYTE           N44     Dn4   v066   gtp3
        BYTE   W12
        BYTE           N42     Gn4   v082   gtp1
        BYTE   W24
        BYTE           N11     An3   v091
        BYTE   W12
        BYTE                   Dn4
        BYTE   W12
        BYTE                   En4
        BYTE   W12
// 002   ----------------------------------------
        BYTE           N13     En4   v082
        BYTE   W12
        BYTE           N12     An3
        BYTE   W12
        BYTE           N32     Cn4   v066   gtp3
        BYTE   W12
        BYTE                   Gn4   v082
        BYTE   W24
        BYTE           N11     An3   v091
        BYTE   W12
        BYTE                   Bn3
        BYTE   W12
        BYTE                   Cn4
        BYTE   W12
// 003   ----------------------------------------
        BYTE           N07     Bn3   v073
        BYTE           N06     Dn4   v066
        BYTE   W12
        BYTE                   Bn3
        BYTE           N05     Dn4   v082
        BYTE   W12
        BYTE           N07     Bn3   v009
        BYTE           N06     Dn4
        BYTE   W12
        BYTE                   Bn3
        BYTE           N05     Dn4
        BYTE   W24
        BYTE           N07     Bn3   v001
        BYTE           N06     Dn4
        BYTE   W12
        BYTE                   Bn3
        BYTE           N05     Dn4
        BYTE   W24
// 004   ----------------------------------------
eo2thefirstcampaign_5_LOOP:
        BYTE   W96
// 005   ----------------------------------------
        BYTE   W96
// 006   ----------------------------------------
        BYTE   W96
// 007   ----------------------------------------
        BYTE   W96
// 008   ----------------------------------------
        BYTE   W96
// 009   ----------------------------------------
        BYTE   W96
// 010   ----------------------------------------
        BYTE   W12
        BYTE           BEND    c_v-2
        BYTE   W84
// 011   ----------------------------------------
        BYTE   W68
        BYTE   W03
        BYTE           PAN     c_v-16
        BYTE           VOL     20
        BYTE   W01
        BYTE           VOICE   48
        BYTE   W12
        BYTE           N10     An3   v082
        BYTE   W06
        BYTE           N11     Bn3
        BYTE   W06
// 012   ----------------------------------------
        BYTE                   Cn4
        BYTE   W06
        BYTE           N07     Dn4
        BYTE   W06
        BYTE           N32     En4   v082   gtp3
        BYTE   W48
        BYTE           N11
        BYTE   W12
        BYTE           N07     Dn4
        BYTE   W12
        BYTE           N04     En4
        BYTE   W12
// 013   ----------------------------------------
eo2thefirstcampaign_5_13:
        BYTE           N30     Cn4   v082   gtp1
        BYTE   W36
        BYTE           N24     An4
        BYTE   W24
        BYTE                   Gn4
        BYTE   W24
        BYTE                   Fn4
        BYTE   W12
        BYTE   PEND
// 014   ----------------------------------------
eo2thefirstcampaign_5_14:
        BYTE   W12
        BYTE           N42     En4   v082
        BYTE   W48
        BYTE           N11
        BYTE   W12
        BYTE           N07     Dn4
        BYTE   W12
        BYTE           N04     Cn4
        BYTE   W12
        BYTE   PEND
// 015   ----------------------------------------
eo2thefirstcampaign_5_15:
        BYTE           N64     Dn4   v082
        BYTE   W72
        BYTE           N13     Cn4
        BYTE   W12
        BYTE           N06     Dn4
        BYTE   W12
        BYTE   PEND
// 016   ----------------------------------------
eo2thefirstcampaign_5_16:
        BYTE           N52     En4   v082   gtp1
        BYTE   W60
        BYTE           N13
        BYTE   W12
        BYTE           N07     Dn4
        BYTE   W12
        BYTE           N04     En4
        BYTE   W12
        BYTE   PEND
// 017   ----------------------------------------
eo2thefirstcampaign_5_17:
        BYTE           N24     Cn4   v082   gtp3
        BYTE   W36
        BYTE           N24     Cn5   v082   gtp2
        BYTE   W24
        BYTE           N24     Bn4   v082   gtp1
        BYTE   W24
        BYTE           N23     An4
        BYTE   W12
        BYTE   PEND
// 018   ----------------------------------------
eo2thefirstcampaign_5_18:
        BYTE   W12
        BYTE           N42     Bn4   v082
        BYTE   W48
        BYTE           N09
        BYTE   W12
        BYTE           N07     Gn4
        BYTE   W12
        BYTE           N04     Bn4
        BYTE   W12
        BYTE   PEND
// 019   ----------------------------------------
        BYTE           N96     An4
        BYTE   W96
// 020   ----------------------------------------
        BYTE           VOICE   40
        BYTE   W12
        BYTE           N09     Dn3   v077
        BYTE           N09     En3
        BYTE   W12
        BYTE           N07     Dn3   v060
        BYTE           N07     En3
        BYTE   W24
        BYTE           N05     Dn3
        BYTE           N05     En3
        BYTE   W24
        BYTE                   Dn3
        BYTE           N05     En3
        BYTE   W24
// 021   ----------------------------------------
eo2thefirstcampaign_5_21:
        BYTE           N05     Dn3   v060
        BYTE           N05     En3
        BYTE   W24
        BYTE                   Dn3   v003
        BYTE           N05     En3
        BYTE   W12
        BYTE           N56     Ds3   v059   gtp3
        BYTE                   Gn3
        BYTE   W17
        BYTE           MOD     2
        BYTE   W12
        BYTE                   4
        BYTE   W12
        BYTE                   6
        BYTE   W15
        BYTE                   0
        BYTE   W04
        BYTE   PEND
// 022   ----------------------------------------
        BYTE   W12
        BYTE           N09     Dn3   v075
        BYTE           N09     En3
        BYTE   W12
        BYTE           N07     Dn3   v060
        BYTE           N07     En3
        BYTE   W24
        BYTE           N05     Dn3
        BYTE           N05     En3
        BYTE   W24
        BYTE                   Dn3
        BYTE           N05     En3
        BYTE   W24
// 023   ----------------------------------------
        BYTE                   Dn3
        BYTE           N05     En3
        BYTE   W24
        BYTE                   Dn3   v003
        BYTE           N05     En3
        BYTE   W12
        BYTE           N56     Ds3   v060   gtp3
        BYTE                   Gn3
        BYTE   W17
        BYTE           MOD     2
        BYTE   W12
        BYTE                   4
        BYTE   W12
        BYTE                   6
        BYTE   W15
        BYTE                   0
        BYTE   W04
// 024   ----------------------------------------
eo2thefirstcampaign_5_24:
        BYTE   W12
        BYTE           N09     Dn3   v073
        BYTE           N09     En3
        BYTE   W12
        BYTE           N07     Dn3   v060
        BYTE           N07     En3
        BYTE   W24
        BYTE           N05     Dn3
        BYTE           N05     En3
        BYTE   W24
        BYTE                   Dn3
        BYTE           N05     En3
        BYTE   W24
        BYTE   PEND
// 025   ----------------------------------------
        BYTE   PATT
         POIN2  eo2thefirstcampaign_5_21
// 026   ----------------------------------------
        BYTE   PATT
         POIN2  eo2thefirstcampaign_5_24
// 027   ----------------------------------------
        BYTE           N05     Dn3   v060
        BYTE           N05     En3
        BYTE   W24
        BYTE                   Dn3   v003
        BYTE           N05     En3
        BYTE   W12
        BYTE           TIE     Ds3   v033
        BYTE           TIE     Gn3
        BYTE   W60
// 028   ----------------------------------------
        BYTE   W80
        BYTE   W03
        BYTE           EOT     Ds3
        BYTE                   Gn3
        BYTE   W13
// 029   ----------------------------------------
        BYTE   W06
        BYTE           VOL     6
        BYTE   W90
// 030   ----------------------------------------
        BYTE   W96
// 031   ----------------------------------------
        BYTE   W96
// 032   ----------------------------------------
        BYTE   W96
// 033   ----------------------------------------
        BYTE   W96
// 034   ----------------------------------------
        BYTE   W96
// 035   ----------------------------------------
        BYTE   W96
// 036   ----------------------------------------
        BYTE   W72
        BYTE           VOICE   41
        BYTE   W12
        BYTE           N10     An3   v082
        BYTE   W06
        BYTE           N11     Bn3
        BYTE   W06
// 037   ----------------------------------------
        BYTE                   Cn4
        BYTE   W06
        BYTE           N07     Dn4
        BYTE   W06
        BYTE           N40     En4   v082   gtp1
        BYTE   W48
        BYTE           N11
        BYTE   W12
        BYTE           N07     Dn4
        BYTE   W12
        BYTE           N04     En4
        BYTE   W12
// 038   ----------------------------------------
        BYTE   PATT
         POIN2  eo2thefirstcampaign_5_13
// 039   ----------------------------------------
        BYTE   PATT
         POIN2  eo2thefirstcampaign_5_14
// 040   ----------------------------------------
        BYTE   PATT
         POIN2  eo2thefirstcampaign_5_15
// 041   ----------------------------------------
        BYTE   PATT
         POIN2  eo2thefirstcampaign_5_16
// 042   ----------------------------------------
        BYTE   PATT
         POIN2  eo2thefirstcampaign_5_17
// 043   ----------------------------------------
        BYTE   PATT
         POIN2  eo2thefirstcampaign_5_18
// 044   ----------------------------------------
        BYTE           N96     An4   v082
        BYTE   W96
// 045   ----------------------------------------
        BYTE           VOICE   40
        BYTE   W12
        BYTE           N09     Dn3   v086
        BYTE           N09     En3
        BYTE   W12
        BYTE           N07     Dn3   v069
        BYTE           N07     En3
        BYTE   W24
        BYTE           N05     Dn3
        BYTE           N05     En3
        BYTE   W24
        BYTE                   Dn3
        BYTE           N05     En3
        BYTE   W24
// 046   ----------------------------------------
        BYTE                   Dn3
        BYTE           N05     En3
        BYTE   W24
        BYTE                   Dn3   v004
        BYTE           N05     En3
        BYTE   W12
        BYTE           N56     Ds3   v069   gtp3
        BYTE                   Gn3
        BYTE   W17
        BYTE           MOD     2
        BYTE   W12
        BYTE                   4
        BYTE   W12
        BYTE                   6
        BYTE   W15
        BYTE                   0
        BYTE   W04
// 047   ----------------------------------------
        BYTE   W12
        BYTE           N09     Dn3   v084
        BYTE           N09     En3
        BYTE   W12
        BYTE           N07     Dn3   v069
        BYTE           N07     En3
        BYTE   W24
        BYTE           N05     Dn3
        BYTE           N05     En3
        BYTE   W24
        BYTE                   Dn3
        BYTE           N05     En3
        BYTE   W24
// 048   ----------------------------------------
        BYTE                   Dn3
        BYTE           N05     En3
        BYTE   W24
        BYTE                   Dn3   v004
        BYTE           N05     En3
        BYTE   W12
        BYTE           N56     Ds3   v073   gtp3
        BYTE                   Gn3
        BYTE   W17
        BYTE           MOD     2
        BYTE   W12
        BYTE                   4
        BYTE   W12
        BYTE                   6
        BYTE   W15
        BYTE                   0
        BYTE   W04
// 049   ----------------------------------------
eo2thefirstcampaign_5_49:
        BYTE   W12
        BYTE           N09     Dn3   v082
        BYTE           N09     En3
        BYTE   W12
        BYTE           N07     Dn3   v069
        BYTE           N07     En3
        BYTE   W24
        BYTE           N05     Dn3
        BYTE           N05     En3
        BYTE   W24
        BYTE                   Dn3
        BYTE           N05     En3
        BYTE   W24
        BYTE   PEND
// 050   ----------------------------------------
        BYTE                   Dn3
        BYTE           N05     En3
        BYTE   W24
        BYTE                   Dn3   v004
        BYTE           N05     En3
        BYTE   W12
        BYTE           N56     Ds3   v071   gtp3
        BYTE                   Gn3
        BYTE   W17
        BYTE           MOD     2
        BYTE   W12
        BYTE                   4
        BYTE   W12
        BYTE                   6
        BYTE   W15
        BYTE                   0
        BYTE   W04
// 051   ----------------------------------------
        BYTE   PATT
         POIN2  eo2thefirstcampaign_5_49
// 052   ----------------------------------------
        BYTE           N05     Dn3   v069
        BYTE           N05     En3
        BYTE   W24
        BYTE                   Dn3   v004
        BYTE           N05     En3
        BYTE   W12
        BYTE           N44     Ds3   v075   gtp3
        BYTE                   Gn3
        BYTE   W17
        BYTE           MOD     2
        BYTE   W12
        BYTE                   4
        BYTE   W12
        BYTE                   6
        BYTE   W06
        BYTE                   0
        BYTE   W01
        BYTE           VOICE   41
        BYTE           N09     Cn4   v056
        BYTE   W06
        BYTE           N11     Dn4   v060
        BYTE   W06
// 053   ----------------------------------------
        BYTE           N08     En4
        BYTE   W06
        BYTE           N06     Fs4   v086
        BYTE   W06
        BYTE           TIE     Gs4   v089
        BYTE   W84
// 054   ----------------------------------------
        BYTE   W17
        BYTE           EOT
        BYTE   W07
        BYTE           N05     Bn3   v084
        BYTE   W12
        BYTE                   En4   v086
        BYTE   W12
        BYTE           N20     An4   v084
        BYTE   W24
        BYTE           N28     Gs4   v082   gtp1
        BYTE   W24
// 055   ----------------------------------------
        BYTE   W12
        BYTE           TIE     Gs4   v079
        BYTE   W84
// 056   ----------------------------------------
        BYTE   W17
        BYTE           EOT
        BYTE   W07
        BYTE           N05     Bn3   v084
        BYTE   W12
        BYTE                   En4
        BYTE   W12
        BYTE           N20     An4   v086
        BYTE   W24
        BYTE           N28     Gs4   v091   gtp1
        BYTE   W24
// 057   ----------------------------------------
        BYTE   W12
        BYTE           N36     An4   v084   gtp2
        BYTE   W48
        BYTE           N08     An4   v082
        BYTE   W12
        BYTE                   En4
        BYTE   W12
        BYTE                   Bn3
        BYTE   W12
// 058   ----------------------------------------
        BYTE           N28     An4   v084   gtp1
        BYTE   W36
        BYTE           N17     Gn4   v104
        BYTE   W24
        BYTE           N23     Dn5   v084
        BYTE   W24
        BYTE           N22     Cn5   v073
        BYTE   W12
// 059   ----------------------------------------
        BYTE   W12
        BYTE           N11     Bn4   v093
        BYTE   W12
        BYTE                   Fs4
        BYTE   W12
        BYTE           N05     Bn3
        BYTE   W12
        BYTE           N14     Bn4
        BYTE   W24
        BYTE           N05     Fs4
        BYTE   W12
        BYTE                   Bn3
        BYTE   W12
// 060   ----------------------------------------
        BYTE           N20     Bn4
        BYTE   W24
        BYTE           N05     Fs4
        BYTE   W12
        BYTE                   Bn3
        BYTE   W12
        BYTE           N20     An4
        BYTE   W24
        BYTE           N08     Fs4
        BYTE   W12
        BYTE           N05     Bn3
        BYTE   W12
// 061   ----------------------------------------
        BYTE           N08     An4
        BYTE   W12
        BYTE           TIE     Gs4   v089
        BYTE   W84
// 062   ----------------------------------------
        BYTE   W14
        BYTE           EOT
        BYTE   W10
        BYTE           N11     Bn3   v084
        BYTE   W12
        BYTE                   En4   v086
        BYTE   W12
        BYTE           N23     An4   v084
        BYTE   W24
        BYTE           N28     Gs4   v082   gtp1
        BYTE   W24
// 063   ----------------------------------------
        BYTE   W12
        BYTE           TIE     Gs4   v079
        BYTE   W84
// 064   ----------------------------------------
        BYTE   W14
        BYTE           EOT
        BYTE   W10
        BYTE           N11     Bn3   v084
        BYTE   W12
        BYTE                   En4
        BYTE   W12
        BYTE           N23     An4   v086
        BYTE   W24
        BYTE           N28     Gs4   v091   gtp1
        BYTE   W24
// 065   ----------------------------------------
        BYTE   W12
        BYTE           N40     An4   v084   gtp1
        BYTE   W48
        BYTE           N05     An4   v086
        BYTE   W12
        BYTE                   En4   v084
        BYTE   W12
        BYTE                   Bn3   v082
        BYTE   W12
// 066   ----------------------------------------
        BYTE           N32     An4   v084
        BYTE   W36
        BYTE           N08     Gn4   v089
        BYTE   W12
        BYTE           N28     Cn5   v073   gtp1
        BYTE   W36
        BYTE           N08     Dn5   v063
        BYTE   W12
// 067   ----------------------------------------
        BYTE           N17     Bn4   v101
        BYTE   W24
        BYTE           N05     Bn4   v093
        BYTE   W12
        BYTE           N07     Bn4   v080
        BYTE   W12
        BYTE           N05     Bn4   v084
        BYTE   W24
        BYTE           N06     Bn4   v079
        BYTE   W24
// 068   ----------------------------------------
        BYTE           N09     An4   v082
        BYTE   W32
        BYTE   W03
        BYTE           PAN     c_v+48
        BYTE   W01
        BYTE           VOICE   80
        BYTE           N05     Gn4
        BYTE   W05
        BYTE           PAN     c_v+40
        BYTE   W01
        BYTE           N05     Fn4   v078
        BYTE   W05
        BYTE           PAN     c_v+32
        BYTE   W01
        BYTE           N05     En4   v075
        BYTE   W05
        BYTE           PAN     c_v+24
        BYTE   W01
        BYTE           N05     Dn4   v072
        BYTE   W05
        BYTE           PAN     c_v+16
        BYTE   W01
        BYTE           N05     Cn4   v068
        BYTE   W05
        BYTE           PAN     c_v+8
        BYTE   W01
        BYTE           N05     Bn3   v065
        BYTE   W05
        BYTE           PAN     c_v+0
        BYTE   W01
        BYTE           N05     Gn3   v062
        BYTE   W05
        BYTE           PAN     c_v-8
        BYTE   W01
        BYTE           N05     En3   v059
        BYTE   W05
        BYTE           PAN     c_v-16
        BYTE   W01
        BYTE           N05     Dn3   v055
        BYTE   W05
        BYTE           PAN     c_v-24
        BYTE   W01
        BYTE           N05     Cn3   v052
        BYTE   W06
// 069   ----------------------------------------
        BYTE           VOICE   81
        BYTE           VOL     32
        BYTE           PAN     c_v-32
        BYTE           BEND    c_v+0
        BYTE   GoTo
         POIN2  eo2thefirstcampaign_5_LOOP
        BYTE   FINE

//****************** Track 6 (Midi-Chn.6) ******************//

eo2thefirstcampaign_6:
        BYTE   KEYSH   eo2thefirstcampaign_key+0
// 000   ----------------------------------------
        BYTE           VOICE   127
        BYTE           VOL     48
        BYTE           N48     An2   v115
        BYTE   W96
// 001   ----------------------------------------
        BYTE   W96
// 002   ----------------------------------------
        BYTE   W96
// 003   ----------------------------------------
        BYTE                   An2   v089
        BYTE   W96
// 004   ----------------------------------------
eo2thefirstcampaign_6_LOOP:
        BYTE           N48     An2   v115
        BYTE   W96
// 005   ----------------------------------------
        BYTE   W96
// 006   ----------------------------------------
        BYTE   W96
// 007   ----------------------------------------
        BYTE   W96
// 008   ----------------------------------------
        BYTE   W96
// 009   ----------------------------------------
        BYTE   W96
// 010   ----------------------------------------
        BYTE   W96
// 011   ----------------------------------------
        BYTE   W96
// 012   ----------------------------------------
        BYTE                   An2
        BYTE   W96
// 013   ----------------------------------------
        BYTE   W96
// 014   ----------------------------------------
        BYTE   W96
// 015   ----------------------------------------
        BYTE   W96
// 016   ----------------------------------------
        BYTE   W96
// 017   ----------------------------------------
        BYTE   W96
// 018   ----------------------------------------
        BYTE   W96
// 019   ----------------------------------------
        BYTE   W96
// 020   ----------------------------------------
        BYTE                   An2
        BYTE   W96
// 021   ----------------------------------------
eo2thefirstcampaign_6_21:
        BYTE   W24
        BYTE           N48     An2   v115
        BYTE   W72
        BYTE   PEND
// 022   ----------------------------------------
        BYTE                   An2
        BYTE   W96
// 023   ----------------------------------------
eo2thefirstcampaign_6_23:
        BYTE   W24
        BYTE           N48     An2   v115
        BYTE   W24
        BYTE           N03     Fs2   v035
        BYTE   W06
        BYTE                   Dn1   v034
        BYTE   W06
        BYTE                   Dn1   v085
        BYTE   W06
        BYTE                   Dn1   v056
        BYTE   W06
        BYTE                   Dn1   v097
        BYTE           N03     Fs2   v034
        BYTE   W06
        BYTE                   Dn1   v098
        BYTE   W06
        BYTE                   Dn1   v103
        BYTE   W06
        BYTE                   Dn1   v122
        BYTE   W06
        BYTE   PEND
// 024   ----------------------------------------
        BYTE           N48     An2   v115
        BYTE   W96
// 025   ----------------------------------------
        BYTE   PATT
         POIN2  eo2thefirstcampaign_6_21
// 026   ----------------------------------------
        BYTE           N48     An2   v115
        BYTE   W96
// 027   ----------------------------------------
        BYTE   W23
        BYTE           PAN     c_v+48
        BYTE   W01
        BYTE           VOICE   80
        BYTE           N07     Cn5   v064
        BYTE   W06
        BYTE                   As4   v060
        BYTE   W05
        BYTE           PAN     c_v+40
        BYTE   W01
        BYTE           N07     Fn4   v056
        BYTE   W06
        BYTE                   Cn4   v052
        BYTE   W05
        BYTE           PAN     c_v+32
        BYTE   W01
        BYTE           N07     As3   v064
        BYTE   W06
        BYTE                   Fn3   v060
        BYTE   W05
        BYTE           PAN     c_v+24
        BYTE   W01
        BYTE           N07     Cn3   v056
        BYTE   W06
        BYTE                   Fn2   v052
        BYTE   W05
        BYTE           PAN     c_v+16
        BYTE   W01
        BYTE           N07     Cn5   v056
        BYTE   W05
        BYTE           PAN     c_v+8
        BYTE   W01
        BYTE           N07     As4   v052
        BYTE   W05
        BYTE           PAN     c_v+0
        BYTE   W01
        BYTE           N07     Fn4   v048
        BYTE   W05
        BYTE           PAN     c_v-8
        BYTE   W01
        BYTE           N07     Cn4   v040
        BYTE   W06
// 028   ----------------------------------------
        BYTE                   As3   v015
        BYTE   W05
        BYTE           PAN     c_v-16
        BYTE   W01
        BYTE           N07     Fn3   v044
        BYTE   W06
        BYTE                   Cn3   v040
        BYTE   W05
        BYTE           PAN     c_v-24
        BYTE   W01
        BYTE           N07     Fn2   v036
        BYTE   W06
        BYTE                   Cn5   v032
        BYTE   W05
        BYTE           PAN     c_v-32
        BYTE   W01
        BYTE           N07     As4   v036
        BYTE   W06
        BYTE                   Fn4   v032
        BYTE   W05
        BYTE           PAN     c_v-40
        BYTE   W01
        BYTE           N07     Cn4   v028
        BYTE   W06
        BYTE                   As3   v024
        BYTE   W06
        BYTE                   Fn3
        BYTE   W06
        BYTE                   Cn3   v020
        BYTE   W06
        BYTE                   Fn2
        BYTE   W06
        BYTE                   Cn5   v016
        BYTE   W06
        BYTE                   As4
        BYTE   W06
        BYTE                   Fn4   v012
        BYTE   W06
        BYTE           N06     Cn4
        BYTE   W05
        BYTE           PAN     c_v+0
        BYTE   W01
// 029   ----------------------------------------
        BYTE           VOICE   127
        BYTE           N48     An2   v115
        BYTE   W96
// 030   ----------------------------------------
        BYTE   W96
// 031   ----------------------------------------
        BYTE   W96
// 032   ----------------------------------------
        BYTE   W96
// 033   ----------------------------------------
        BYTE   W96
// 034   ----------------------------------------
        BYTE   W96
// 035   ----------------------------------------
        BYTE   W96
// 036   ----------------------------------------
        BYTE   W96
// 037   ----------------------------------------
        BYTE                   An2
        BYTE   W96
// 038   ----------------------------------------
        BYTE   W96
// 039   ----------------------------------------
        BYTE   W96
// 040   ----------------------------------------
        BYTE   W96
// 041   ----------------------------------------
        BYTE   W96
// 042   ----------------------------------------
        BYTE   W96
// 043   ----------------------------------------
        BYTE   W96
// 044   ----------------------------------------
        BYTE   W96
// 045   ----------------------------------------
        BYTE                   An2
        BYTE   W96
// 046   ----------------------------------------
        BYTE   PATT
         POIN2  eo2thefirstcampaign_6_21
// 047   ----------------------------------------
        BYTE           N48     An2   v115
        BYTE   W96
// 048   ----------------------------------------
        BYTE   PATT
         POIN2  eo2thefirstcampaign_6_23
// 049   ----------------------------------------
        BYTE           N48     An2   v115
        BYTE   W96
// 050   ----------------------------------------
        BYTE   PATT
         POIN2  eo2thefirstcampaign_6_21
// 051   ----------------------------------------
        BYTE           N48     An2   v115
        BYTE   W96
// 052   ----------------------------------------
        BYTE   PATT
         POIN2  eo2thefirstcampaign_6_21
// 053   ----------------------------------------
        BYTE           N48     An2   v115
        BYTE   W96
// 054   ----------------------------------------
        BYTE   W96
// 055   ----------------------------------------
        BYTE   W96
// 056   ----------------------------------------
        BYTE   W96
// 057   ----------------------------------------
        BYTE   W96
// 058   ----------------------------------------
        BYTE   W96
// 059   ----------------------------------------
        BYTE   W96
// 060   ----------------------------------------
        BYTE   W96
// 061   ----------------------------------------
        BYTE                   An2
        BYTE   W96
// 062   ----------------------------------------
        BYTE   W96
// 063   ----------------------------------------
        BYTE   W96
// 064   ----------------------------------------
        BYTE   W96
// 065   ----------------------------------------
        BYTE   W96
// 066   ----------------------------------------
        BYTE   W96
// 067   ----------------------------------------
        BYTE           N24     Cs2   v065
        BYTE   W36
        BYTE           N36     An2   v115
        BYTE   W36
        BYTE           N12     An2   v126
        BYTE   W24
// 068   ----------------------------------------
        BYTE           N24     Cs2   v065
        BYTE   W24
        BYTE           N36     An2   v115
        BYTE   W30
        BYTE           N06     An1   v090
        BYTE   W18
        BYTE           N03     Fn1   v098
        BYTE           N06     Fs2   v042
        BYTE   W06
        BYTE                   Fn1   v092
        BYTE   W18
// 069   ----------------------------------------
        BYTE   GoTo
         POIN2  eo2thefirstcampaign_6_LOOP
        BYTE   FINE

//****************** Track 7 (Midi-Chn.7) ******************//

eo2thefirstcampaign_7:
        BYTE   KEYSH   eo2thefirstcampaign_key+0
// 000   ----------------------------------------
        BYTE           VOICE   124
        BYTE           VOL     44
        BYTE           N03     Cn1   v112
        BYTE   W12
        BYTE                   Cn2   v097
        BYTE   W03
        BYTE                   Cn2   v098
        BYTE   W09
        BYTE                   An1   v114
        BYTE   W12
        BYTE                   Fn1   v109
        BYTE           N06     Dn1   v094
        BYTE   W24
        BYTE           N03     Cn1   v112
        BYTE   W12
        BYTE                   As1   v050
        BYTE           N06     Dn1   v094
        BYTE   W24
// 001   ----------------------------------------
        BYTE           N03     Cn1   v112
        BYTE   W24
        BYTE                   An1   v114
        BYTE   W12
        BYTE                   Fn1   v109
        BYTE           N06     Dn1   v094
        BYTE   W30
        BYTE           N03     Cn1   v112
        BYTE   W03
        BYTE                   Fn1   v098
        BYTE   W03
        BYTE                   Fn1   v119
        BYTE   W24
// 002   ----------------------------------------
        BYTE   W03
        BYTE           N06     Dn1   v094
        BYTE   W06
        BYTE                   Dn1
        BYTE   W06
        BYTE                   Dn1
        BYTE   W09
        BYTE           N03     Gs1   v058
        BYTE           N06     Cn2   v092
        BYTE   W09
        BYTE                   Cn2
        BYTE   W06
        BYTE                   Cn2   v116
        BYTE   W09
        BYTE                   An1   v103
        BYTE           N03     Gs1   v058
        BYTE   W09
        BYTE           N06     An1   v098
        BYTE   W06
        BYTE                   An1   v101
        BYTE   W09
        BYTE                   Fn1
        BYTE           N03     Gs1   v054
        BYTE   W09
        BYTE           N06     Fn1   v114
        BYTE   W06
        BYTE           N09     Fn1   v101
        BYTE   W09
// 003   ----------------------------------------
        BYTE           N06     Dn1   v094
        BYTE   W03
        BYTE           N03     Fs1   v077
        BYTE   W09
        BYTE                   Cn1   v112
        BYTE           N06     Dn1   v094
        BYTE   W12
        BYTE           N03     Fs1   v069
        BYTE   W12
        BYTE                   Cn2   v097
        BYTE   W03
        BYTE           N06     Cn2   v098
        BYTE   W03
        BYTE                   An1   v103
        BYTE   W06
        BYTE                   An1   v114
        BYTE   W06
        BYTE                   Fn1   v094
        BYTE   W06
        BYTE           N03     Cn1   v112
        BYTE           N12     Fn1   v109
        BYTE   W12
        BYTE           N06     Dn1   v094
        BYTE   W24
// 004   ----------------------------------------
eo2thefirstcampaign_7_LOOP:
        BYTE           N06     Cn1   v112
        BYTE   W12
        BYTE           N12     As1   v050
        BYTE   W12
        BYTE           N06     Dn1   v094
        BYTE   W12
        BYTE           N12     As1   v050
        BYTE   W12
        BYTE           N06     Cn1   v112
        BYTE   W12
        BYTE           N12     As1   v050
        BYTE           N06     Cn1   v112
        BYTE   W12
        BYTE                   Dn1   v094
        BYTE   W12
        BYTE           N12     As1   v050
        BYTE           N06     Cn1   v112
        BYTE   W12
// 005   ----------------------------------------
eo2thefirstcampaign_7_5:
        BYTE   W12
        BYTE           N12     As1   v050
        BYTE           N06     Cn1   v112
        BYTE   W12
        BYTE                   Dn1   v094
        BYTE   W12
        BYTE           N12     As1   v050
        BYTE   W12
        BYTE           N06     Cn1   v112
        BYTE   W12
        BYTE           N12     As1   v050
        BYTE           N06     Cn1   v112
        BYTE   W12
        BYTE                   Dn1   v094
        BYTE   W12
        BYTE           N12     As1   v050
        BYTE   W12
        BYTE   PEND
// 006   ----------------------------------------
eo2thefirstcampaign_7_6:
        BYTE           N06     Cn1   v112
        BYTE   W12
        BYTE           N12     As1   v050
        BYTE   W12
        BYTE           N06     Dn1   v094
        BYTE   W12
        BYTE           N12     As1   v050
        BYTE   W12
        BYTE           N06     Cn1   v112
        BYTE   W12
        BYTE           N12     As1   v050
        BYTE           N06     Cn1   v112
        BYTE   W12
        BYTE                   Dn1   v094
        BYTE   W12
        BYTE           N12     As1   v050
        BYTE           N06     Cn1   v112
        BYTE   W12
        BYTE   PEND
// 007   ----------------------------------------
        BYTE   PATT
         POIN2  eo2thefirstcampaign_7_5
// 008   ----------------------------------------
        BYTE   PATT
         POIN2  eo2thefirstcampaign_7_6
// 009   ----------------------------------------
        BYTE   PATT
         POIN2  eo2thefirstcampaign_7_5
// 010   ----------------------------------------
        BYTE   PATT
         POIN2  eo2thefirstcampaign_7_6
// 011   ----------------------------------------
        BYTE   PATT
         POIN2  eo2thefirstcampaign_7_5
// 012   ----------------------------------------
        BYTE   PATT
         POIN2  eo2thefirstcampaign_7_6
// 013   ----------------------------------------
        BYTE   PATT
         POIN2  eo2thefirstcampaign_7_5
// 014   ----------------------------------------
        BYTE   PATT
         POIN2  eo2thefirstcampaign_7_6
// 015   ----------------------------------------
        BYTE   PATT
         POIN2  eo2thefirstcampaign_7_5
// 016   ----------------------------------------
        BYTE   PATT
         POIN2  eo2thefirstcampaign_7_6
// 017   ----------------------------------------
        BYTE   PATT
         POIN2  eo2thefirstcampaign_7_5
// 018   ----------------------------------------
        BYTE   PATT
         POIN2  eo2thefirstcampaign_7_6
// 019   ----------------------------------------
eo2thefirstcampaign_7_19:
        BYTE   W12
        BYTE           N12     As1   v050
        BYTE           N06     Cn1   v112
        BYTE   W12
        BYTE                   Dn1   v094
        BYTE   W12
        BYTE           N12     As1   v050
        BYTE   W12
        BYTE           N06     Gs1   v016
        BYTE           N06     Dn1   v094
        BYTE   W06
        BYTE                   Dn1
        BYTE   W06
        BYTE                   Dn1
        BYTE   W06
        BYTE                   Dn1
        BYTE   W06
        BYTE                   Gs1   v023
        BYTE           N06     Cn2   v097
        BYTE   W06
        BYTE                   Cn2   v081
        BYTE   W06
        BYTE                   Cn1   v112
        BYTE   W06
        BYTE                   Fn1   v039
        BYTE   W06
        BYTE   PEND
// 020   ----------------------------------------
eo2thefirstcampaign_7_20:
        BYTE           N03     Fs1   v016
        BYTE           N06     Dn1   v094
        BYTE   W12
        BYTE                   As1   v050
        BYTE   W12
        BYTE           N03     Fs1   v047
        BYTE           N06     Dn1   v094
        BYTE   W12
        BYTE                   As1   v050
        BYTE   W12
        BYTE           N03     Fs1   v016
        BYTE           N06     Dn1   v094
        BYTE   W12
        BYTE           N03     Cn1   v112
        BYTE           N06     As1   v050
        BYTE   W12
        BYTE           N03     Fs1   v047
        BYTE           N06     Dn1   v094
        BYTE   W12
        BYTE                   As1   v050
        BYTE           N03     Cn1   v112
        BYTE   W12
        BYTE   PEND
// 021   ----------------------------------------
        BYTE   PATT
         POIN2  eo2thefirstcampaign_7_6
// 022   ----------------------------------------
eo2thefirstcampaign_7_22:
        BYTE           N06     Fs1   v016
        BYTE           N06     Dn1   v094
        BYTE   W12
        BYTE           N12     As1   v050
        BYTE   W12
        BYTE           N06     Fs1   v047
        BYTE           N06     Dn1   v094
        BYTE   W12
        BYTE           N12     As1   v050
        BYTE   W12
        BYTE           N06     Fs1   v016
        BYTE           N06     Dn1   v094
        BYTE   W12
        BYTE                   Cn1   v112
        BYTE           N12     As1   v050
        BYTE   W12
        BYTE           N06     Fs1   v047
        BYTE           N06     Dn1   v094
        BYTE   W12
        BYTE           N12     As1   v050
        BYTE           N06     Cn1   v112
        BYTE   W12
        BYTE   PEND
// 023   ----------------------------------------
eo2thefirstcampaign_7_23:
        BYTE   W12
        BYTE           N12     As1   v050
        BYTE           N06     Cn1   v112
        BYTE   W12
        BYTE                   Dn1   v094
        BYTE   W12
        BYTE           N12     As1   v050
        BYTE   W12
        BYTE           N06     Cn1   v112
        BYTE   W24
        BYTE           N03
        BYTE   W24
        BYTE   PEND
// 024   ----------------------------------------
        BYTE   PATT
         POIN2  eo2thefirstcampaign_7_20
// 025   ----------------------------------------
        BYTE   PATT
         POIN2  eo2thefirstcampaign_7_6
// 026   ----------------------------------------
        BYTE   PATT
         POIN2  eo2thefirstcampaign_7_20
// 027   ----------------------------------------
        BYTE           N06     Cn1   v112
        BYTE   W12
        BYTE           N12     As1   v050
        BYTE   W12
        BYTE           N48     Gn2   v080
        BYTE           N06     Dn1   v094
        BYTE   W12
        BYTE           N12     As1   v050
        BYTE   W12
        BYTE           N06     Cn1   v112
        BYTE   W12
        BYTE           N12     As1   v050
        BYTE           N06     Cn1   v112
        BYTE   W12
        BYTE                   Dn1   v094
        BYTE   W12
        BYTE           N12     As1   v050
        BYTE           N06     Cn1   v112
        BYTE   W12
// 028   ----------------------------------------
        BYTE   W12
        BYTE           N12     As1   v050
        BYTE           N06     Cn1   v112
        BYTE   W12
        BYTE                   Dn1   v094
        BYTE   W12
        BYTE           N12     As1   v050
        BYTE   W12
        BYTE           N06     Cn1   v112
        BYTE           N06     Gs1   v016
        BYTE           N06     Dn1   v094
        BYTE   W06
        BYTE                   Dn1
        BYTE   W06
        BYTE                   Dn1
        BYTE   W06
        BYTE                   Dn1
        BYTE   W06
        BYTE                   Gs1   v023
        BYTE           N06     Cn2   v097
        BYTE   W06
        BYTE                   Cn2   v081
        BYTE   W06
        BYTE                   Cn1   v112
        BYTE   W06
        BYTE                   Fn1   v039
        BYTE   W06
// 029   ----------------------------------------
        BYTE   PATT
         POIN2  eo2thefirstcampaign_7_6
// 030   ----------------------------------------
        BYTE   PATT
         POIN2  eo2thefirstcampaign_7_5
// 031   ----------------------------------------
        BYTE   PATT
         POIN2  eo2thefirstcampaign_7_6
// 032   ----------------------------------------
        BYTE   PATT
         POIN2  eo2thefirstcampaign_7_5
// 033   ----------------------------------------
        BYTE   PATT
         POIN2  eo2thefirstcampaign_7_6
// 034   ----------------------------------------
        BYTE   PATT
         POIN2  eo2thefirstcampaign_7_5
// 035   ----------------------------------------
        BYTE   PATT
         POIN2  eo2thefirstcampaign_7_6
// 036   ----------------------------------------
        BYTE   PATT
         POIN2  eo2thefirstcampaign_7_5
// 037   ----------------------------------------
        BYTE   PATT
         POIN2  eo2thefirstcampaign_7_6
// 038   ----------------------------------------
        BYTE   PATT
         POIN2  eo2thefirstcampaign_7_5
// 039   ----------------------------------------
        BYTE   PATT
         POIN2  eo2thefirstcampaign_7_6
// 040   ----------------------------------------
        BYTE   PATT
         POIN2  eo2thefirstcampaign_7_5
// 041   ----------------------------------------
        BYTE   PATT
         POIN2  eo2thefirstcampaign_7_6
// 042   ----------------------------------------
        BYTE   PATT
         POIN2  eo2thefirstcampaign_7_5
// 043   ----------------------------------------
        BYTE   PATT
         POIN2  eo2thefirstcampaign_7_6
// 044   ----------------------------------------
        BYTE   PATT
         POIN2  eo2thefirstcampaign_7_19
// 045   ----------------------------------------
        BYTE   PATT
         POIN2  eo2thefirstcampaign_7_20
// 046   ----------------------------------------
        BYTE   PATT
         POIN2  eo2thefirstcampaign_7_6
// 047   ----------------------------------------
        BYTE   PATT
         POIN2  eo2thefirstcampaign_7_22
// 048   ----------------------------------------
        BYTE   PATT
         POIN2  eo2thefirstcampaign_7_23
// 049   ----------------------------------------
        BYTE   PATT
         POIN2  eo2thefirstcampaign_7_20
// 050   ----------------------------------------
        BYTE   PATT
         POIN2  eo2thefirstcampaign_7_6
// 051   ----------------------------------------
        BYTE   PATT
         POIN2  eo2thefirstcampaign_7_20
// 052   ----------------------------------------
        BYTE           N06     Cn1   v112
        BYTE   W12
        BYTE           N12     As1   v050
        BYTE   W12
        BYTE           N06     Dn1   v094
        BYTE   W12
        BYTE           N12     As1   v050
        BYTE   W12
        BYTE           N06     Gs1   v016
        BYTE           N06     Dn1   v094
        BYTE   W06
        BYTE                   Dn1
        BYTE   W06
        BYTE                   Dn1
        BYTE   W06
        BYTE                   Dn1
        BYTE   W06
        BYTE                   Gs1   v023
        BYTE           N06     Cn2   v097
        BYTE   W06
        BYTE                   Cn2   v081
        BYTE   W06
        BYTE                   Cn1   v112
        BYTE   W06
        BYTE                   Fn1   v039
        BYTE   W06
// 053   ----------------------------------------
eo2thefirstcampaign_7_53:
        BYTE           N06     Cn1   v112
        BYTE           N12     As1   v050
        BYTE   W24
        BYTE                   As1
        BYTE           N06     Dn1   v094
        BYTE   W24
        BYTE           N12     As1   v050
        BYTE           N06     Cn1   v112
        BYTE   W12
        BYTE                   Cn1
        BYTE   W12
        BYTE           N12     As1   v050
        BYTE           N06     Dn1   v094
        BYTE   W12
        BYTE                   Cn1   v112
        BYTE   W12
        BYTE   PEND
// 054   ----------------------------------------
eo2thefirstcampaign_7_54:
        BYTE           N12     As1   v050
        BYTE   W12
        BYTE           N06     Cn1   v112
        BYTE   W12
        BYTE           N12     As1   v050
        BYTE           N06     Dn1   v094
        BYTE   W24
        BYTE           N12     As1   v050
        BYTE           N06     Cn1   v112
        BYTE   W24
        BYTE           N12     As1   v050
        BYTE           N06     Dn1   v094
        BYTE   W24
        BYTE   PEND
// 055   ----------------------------------------
        BYTE   PATT
         POIN2  eo2thefirstcampaign_7_53
// 056   ----------------------------------------
        BYTE   PATT
         POIN2  eo2thefirstcampaign_7_54
// 057   ----------------------------------------
        BYTE   PATT
         POIN2  eo2thefirstcampaign_7_53
// 058   ----------------------------------------
        BYTE   PATT
         POIN2  eo2thefirstcampaign_7_54
// 059   ----------------------------------------
        BYTE   PATT
         POIN2  eo2thefirstcampaign_7_53
// 060   ----------------------------------------
        BYTE   PATT
         POIN2  eo2thefirstcampaign_7_54
// 061   ----------------------------------------
        BYTE   PATT
         POIN2  eo2thefirstcampaign_7_53
// 062   ----------------------------------------
        BYTE   PATT
         POIN2  eo2thefirstcampaign_7_54
// 063   ----------------------------------------
        BYTE   PATT
         POIN2  eo2thefirstcampaign_7_53
// 064   ----------------------------------------
        BYTE   PATT
         POIN2  eo2thefirstcampaign_7_54
// 065   ----------------------------------------
        BYTE   PATT
         POIN2  eo2thefirstcampaign_7_53
// 066   ----------------------------------------
        BYTE   PATT
         POIN2  eo2thefirstcampaign_7_54
// 067   ----------------------------------------
        BYTE           N03     Cn1   v112
        BYTE           N06     Dn1   v104
        BYTE   W06
        BYTE           N03     Cn1   v112
        BYTE   W12
        BYTE                   Cn1
        BYTE   W06
        BYTE           N12     Gn2   v127
        BYTE           N06     Dn1   v126
        BYTE   W06
        BYTE           N03     Cn1   v112
        BYTE   W12
        BYTE                   Cn1
        BYTE   W06
        BYTE           N06     Dn1   v097
        BYTE   W06
        BYTE           N03     Cn1   v112
        BYTE   W12
        BYTE                   Cn1
        BYTE   W06
        BYTE           N06     Dn1   v119
        BYTE   W12
        BYTE           N03     Cn1   v112
        BYTE   W12
// 068   ----------------------------------------
        BYTE           N06     Dn1   v104
        BYTE   W06
        BYTE           N03     Cn1   v112
        BYTE   W12
        BYTE                   Cn1
        BYTE   W06
        BYTE                   Cn1
        BYTE           N06     Dn1   v126
        BYTE   W24
        BYTE                   Dn1   v097
        BYTE   W12
        BYTE           N03     Cn1   v112
        BYTE   W06
        BYTE                   Cn1
        BYTE   W18
        BYTE                   Cn1
        BYTE   W06
        BYTE                   Cn1
        BYTE   W06
// 069   ----------------------------------------
        BYTE   GoTo
         POIN2  eo2thefirstcampaign_7_LOOP
        BYTE   FINE


//********************** End of Song ***********************//

        ALIGN 4
eo2thefirstcampaign:
        BYTE   8                       // Num Tracks
        BYTE   0                       // Unknown
        BYTE   eo2thefirstcampaign_pri // Priority
        BYTE   eo2thefirstcampaign_rev // Reverb

        POIN2   eo2thefirstcampaign_grp

        POIN2   eo2thefirstcampaign_0
        POIN2   eo2thefirstcampaign_1
        POIN2   eo2thefirstcampaign_2
        POIN2   eo2thefirstcampaign_3
        POIN2   eo2thefirstcampaign_4
        POIN2   eo2thefirstcampaign_5
        POIN2   eo2thefirstcampaign_6
        POIN2   eo2thefirstcampaign_7

        
