//Event file generated from Sappy .s format.
        #include "MPlayDef.event"

        #define    eo2woodlandruins_grp  MusicVoices
        #define    eo2woodlandruins_pri  0
        #define    eo2woodlandruins_rev  0x80
        #define    eo2woodlandruins_key  0

        // .rodata
        // eo2woodlandruins
        ALIGN 4

//****************** Track 0 (Midi-Chn.0) ******************//

eo2woodlandruins_0:
        BYTE   KEYSH   eo2woodlandruins_key+0
// 000   ----------------------------------------
        BYTE   TEMPO   94/2
        BYTE           VOICE   48
        BYTE           VOL     37
        BYTE           PAN     c_v-14
        BYTE   W96
// 001   ----------------------------------------
        BYTE   W96
// 002   ----------------------------------------
        BYTE   W96
// 003   ----------------------------------------
        BYTE   W96
// 004   ----------------------------------------
        BYTE   W96
// 005   ----------------------------------------
        BYTE   W96
// 006   ----------------------------------------
eo2woodlandruins_0_LOOP:
        BYTE   W96
// 007   ----------------------------------------
        BYTE   W96
// 008   ----------------------------------------
        BYTE   W96
// 009   ----------------------------------------
        BYTE   W96
// 010   ----------------------------------------
        BYTE   W96
// 011   ----------------------------------------
        BYTE   W96
// 012   ----------------------------------------
        BYTE   W96
// 013   ----------------------------------------
        BYTE   W96
// 014   ----------------------------------------
eo2woodlandruins_0_14:
        BYTE           N92     Cn4   v055   gtp3
        BYTE                   En4
        BYTE           N23     Gn5   v080
        BYTE   W24
        BYTE           N32     Bn4   v080   gtp3
        BYTE   W36
        BYTE           N11     An4
        BYTE   W12
        BYTE                   Bn4
        BYTE   W12
        BYTE                   En5
        BYTE   W12
        BYTE   PEND
// 015   ----------------------------------------
eo2woodlandruins_0_15:
        BYTE           N92     Bn3   v055   gtp3
        BYTE                   Dn4
        BYTE           N23     Fs4   v080
        BYTE   W24
        BYTE           N32     Gn4   v080   gtp3
        BYTE   W36
        BYTE           N11     An4
        BYTE   W12
        BYTE                   Bn4
        BYTE   W12
        BYTE                   En5
        BYTE   W12
        BYTE   PEND
// 016   ----------------------------------------
eo2woodlandruins_0_16:
        BYTE           N44     Cn4   v055   gtp3
        BYTE                   En4
        BYTE           N23     Gn5   v080
        BYTE   W24
        BYTE           N32     Fs5   v080   gtp3
        BYTE   W24
        BYTE           N44     An3   v055   gtp3
        BYTE                   Dn4
        BYTE   W12
        BYTE           N11     An5   v080
        BYTE   W12
        BYTE                   Gn5
        BYTE   W12
        BYTE                   Fs5
        BYTE   W12
        BYTE   PEND
// 017   ----------------------------------------
eo2woodlandruins_0_17:
        BYTE           N92     Bn3   v055   gtp3
        BYTE                   Dn4
        BYTE           N11     Fs5   v080
        BYTE   W12
        BYTE                   Dn5
        BYTE   W12
        BYTE           N28     Dn5   v080   gtp1
        BYTE   W36
        BYTE           N11
        BYTE   W12
        BYTE                   En5
        BYTE   W12
        BYTE                   Fs5
        BYTE   W12
        BYTE   PEND
// 018   ----------------------------------------
eo2woodlandruins_0_18:
        BYTE           N68     Cn4   v055   gtp3
        BYTE           N92     En4   v055   gtp3
        BYTE           N23     Gn5   v080
        BYTE   W24
        BYTE           N32     Cn5   v080   gtp3
        BYTE   W36
        BYTE           N11     Bn5
        BYTE   W12
        BYTE           N92     Dn4   v055   gtp3
        BYTE           N11     An5   v080
        BYTE   W12
        BYTE                   Gn5
        BYTE   W12
        BYTE   PEND
// 019   ----------------------------------------
eo2woodlandruins_0_19:
        BYTE           N44     Bn3   v055   gtp3
        BYTE           N11     Fs5   v080
        BYTE   W12
        BYTE                   En5
        BYTE   W12
        BYTE           N32     Fs5   v080   gtp3
        BYTE   W24
        BYTE           N44     As3   v055   gtp3
        BYTE   W12
        BYTE           N11     An5   v080
        BYTE   W12
        BYTE           N23     Cs4   v055
        BYTE           N11     Gn5   v080
        BYTE   W12
        BYTE                   En5
        BYTE   W12
        BYTE   PEND
// 020   ----------------------------------------
eo2woodlandruins_0_20:
        BYTE           N92     An3   v055   gtp3
        BYTE                   Cn4
        BYTE           N11     Cn5   v080
        BYTE   W12
        BYTE                   Bn4
        BYTE   W12
        BYTE           N32     Cn5   v080   gtp3
        BYTE   W36
        BYTE           N11     Bn4
        BYTE   W12
        BYTE                   En5
        BYTE   W12
        BYTE                   Dn5
        BYTE   W12
        BYTE   PEND
// 021   ----------------------------------------
        BYTE           N92     Fs3   v055   gtp3
        BYTE                   Bn3
        BYTE           N88     Bn4   v080   gtp1
        BYTE   W96
// 022   ----------------------------------------
        BYTE   W96
// 023   ----------------------------------------
        BYTE   W96
// 024   ----------------------------------------
        BYTE   W96
// 025   ----------------------------------------
        BYTE   W96
// 026   ----------------------------------------
        BYTE   W96
// 027   ----------------------------------------
        BYTE   W96
// 028   ----------------------------------------
        BYTE   W96
// 029   ----------------------------------------
        BYTE   W96
// 030   ----------------------------------------
        BYTE   PATT
         POIN2  eo2woodlandruins_0_14
// 031   ----------------------------------------
        BYTE   PATT
         POIN2  eo2woodlandruins_0_15
// 032   ----------------------------------------
        BYTE   PATT
         POIN2  eo2woodlandruins_0_16
// 033   ----------------------------------------
        BYTE   PATT
         POIN2  eo2woodlandruins_0_17
// 034   ----------------------------------------
        BYTE   PATT
         POIN2  eo2woodlandruins_0_18
// 035   ----------------------------------------
        BYTE   PATT
         POIN2  eo2woodlandruins_0_19
// 036   ----------------------------------------
        BYTE   PATT
         POIN2  eo2woodlandruins_0_20
// 037   ----------------------------------------
        BYTE           N92     Bn2   v055   gtp3
        BYTE                   Dn3
        BYTE           N92     Fs3   v055   gtp3
        BYTE                   Bn3
        BYTE           N88     Bn4   v080   gtp1
        BYTE   W96
// 038   ----------------------------------------
        BYTE           N72     As2   v055
        BYTE           N72     En3
        BYTE           TIE     Fs3
        BYTE           TIE     As3
        BYTE   W96
// 039   ----------------------------------------
        BYTE           N72     Cs5   v080
        BYTE   W48
        BYTE           EOT     As3
        BYTE                   Fs3
        BYTE   W48
// 040   ----------------------------------------
        BYTE   W96
// 041   ----------------------------------------
        BYTE           N44     Bn3   v060   gtp3
        BYTE   W48
        BYTE           N32     Fs3   v060   gtp3
        BYTE   W36
        BYTE           N11     En3
        BYTE   W12
// 042   ----------------------------------------
        BYTE           N23     Fs3
        BYTE   W24
        BYTE           N32     Bn2   v060   gtp3
        BYTE   W48
        BYTE           N11     En3
        BYTE   W12
        BYTE                   Fs3
        BYTE   W12
// 043   ----------------------------------------
        BYTE           N23     Dn3
        BYTE   W24
        BYTE           N11     Cs3
        BYTE   W12
        BYTE                   Dn3
        BYTE   W12
        BYTE           N32     En3   v060   gtp3
        BYTE   W36
        BYTE           N11     Bn3
        BYTE   W12
// 044   ----------------------------------------
        BYTE           N23     An3
        BYTE   W24
        BYTE           N32     En3   v060   gtp3
        BYTE   W48
        BYTE           N11
        BYTE   W12
        BYTE                   Fs3
        BYTE   W12
// 045   ----------------------------------------
        BYTE           N23     Gn3
        BYTE   W24
        BYTE           N11     An3
        BYTE   W12
        BYTE                   Gn3
        BYTE   W12
        BYTE           N32     Fs3   v060   gtp3
        BYTE   W36
        BYTE           N11     En3
        BYTE   W12
// 046   ----------------------------------------
        BYTE           N23     Fs3
        BYTE   W24
        BYTE           N11     Cs3
        BYTE   W12
        BYTE                   Bn2
        BYTE   W12
        BYTE           N32     Cs3   v060   gtp3
        BYTE   W36
        BYTE           N11     Dn3
        BYTE   W12
// 047   ----------------------------------------
        BYTE           N23     En3
        BYTE   W24
        BYTE           N44     Dn4   v060   gtp3
        BYTE   W48
        BYTE           N11     Cs4
        BYTE   W12
        BYTE                   Bn3
        BYTE   W12
// 048   ----------------------------------------
        BYTE           N23
        BYTE   W24
        BYTE           N11     An3
        BYTE   W12
        BYTE                   Bn3
        BYTE   W12
        BYTE           N23     Cs4
        BYTE   W24
        BYTE           N11     Dn4
        BYTE   W12
        BYTE                   En4
        BYTE   W12
// 049   ----------------------------------------
        BYTE           N52     Fs4   v060   gtp1
        BYTE   W60
        BYTE           N11
        BYTE   W12
        BYTE                   Fs4
        BYTE   W12
        BYTE                   Gn4
        BYTE   W12
// 050   ----------------------------------------
        BYTE           N23     Fs4
        BYTE   W24
        BYTE           N28     Bn3   v060   gtp1
        BYTE   W36
        BYTE           N11
        BYTE   W12
        BYTE                   An4   v050
        BYTE   W12
        BYTE                   Gn4   v060
        BYTE   W12
// 051   ----------------------------------------
        BYTE                   Fs4
        BYTE   W12
        BYTE           N08     En4
        BYTE   W12
        BYTE           N28     En4   v060   gtp1
        BYTE   W36
        BYTE           N11     Cs4
        BYTE   W12
        BYTE                   Dn4
        BYTE   W12
        BYTE                   En4
        BYTE   W12
// 052   ----------------------------------------
        BYTE           N68     Fs4   v060   gtp3
        BYTE   W96
// 053   ----------------------------------------
        BYTE           N23
        BYTE   W24
        BYTE                   En4
        BYTE   W36
        BYTE           N11
        BYTE   W12
        BYTE                   Cs5   v050
        BYTE   W12
        BYTE                   En4   v060
        BYTE   W12
// 054   ----------------------------------------
        BYTE           N23
        BYTE   W24
        BYTE                   Dn4
        BYTE   W36
        BYTE           N11
        BYTE   W12
        BYTE                   Bn4   v050
        BYTE   W12
        BYTE                   An4
        BYTE   W12
// 055   ----------------------------------------
        BYTE           N23     Dn4   v060
        BYTE   W24
        BYTE           N32     Cs4   v060   gtp3
        BYTE   W48
        BYTE           N11     Bn3
        BYTE   W12
        BYTE                   Cs4
        BYTE   W12
// 056   ----------------------------------------
        BYTE           N23     Dn4
        BYTE   W24
        BYTE           N56     Cs4   v060   gtp3
        BYTE   W72
// 057   ----------------------------------------
        BYTE   W96
// 058   ----------------------------------------
        BYTE   W96
// 059   ----------------------------------------
        BYTE   W96
// 060   ----------------------------------------
        BYTE   W96
// 061   ----------------------------------------
        BYTE   W96
// 062   ----------------------------------------
        BYTE   W96
// 063   ----------------------------------------
        BYTE   W96
// 064   ----------------------------------------
        BYTE   W96
// 065   ----------------------------------------
        BYTE   GoTo
         POIN2  eo2woodlandruins_0_LOOP
        BYTE   FINE

//****************** Track 1 (Midi-Chn.1) ******************//

eo2woodlandruins_1:
        BYTE   KEYSH   eo2woodlandruins_key+0
// 000   ----------------------------------------
        BYTE           VOICE   0
        BYTE           PAN     c_v+29
        BYTE           VOL     54
        BYTE   W01
        BYTE           N22     Gn5   v080
        BYTE   W23
        BYTE           N11     Fs5
        BYTE   W12
        BYTE                   En5
        BYTE   W12
        BYTE           N23     Fs5
        BYTE   W24
        BYTE                   Dn5
        BYTE   W24
// 001   ----------------------------------------
        BYTE                   Gn5
        BYTE   W24
        BYTE           N11     Fs5
        BYTE   W12
        BYTE                   En5
        BYTE   W12
        BYTE           N23     Dn5
        BYTE   W48
// 002   ----------------------------------------
        BYTE   W96
// 003   ----------------------------------------
        BYTE   W96
// 004   ----------------------------------------
        BYTE   W54
        BYTE           N05     En5   v050
        BYTE   W06
        BYTE                   Fs5
        BYTE   W06
        BYTE                   Gs5
        BYTE   W06
        BYTE                   Bn5
        BYTE   W06
        BYTE                   En6
        BYTE   W06
        BYTE                   Fs6
        BYTE   W06
        BYTE                   Gs6
        BYTE   W06
// 005   ----------------------------------------
        BYTE           TIE     Dn5   v080
        BYTE   W24
        BYTE           N92     Dn6   v056   gtp3
        BYTE   W72
// 006   ----------------------------------------
eo2woodlandruins_1_LOOP:
        BYTE           N23     En5   v080
        BYTE   W05
        BYTE           EOT     Dn5
        BYTE   W19
        BYTE           N32     Dn5   v080   gtp3
        BYTE   W60
        BYTE           N11
        BYTE   W12
// 007   ----------------------------------------
        BYTE   W96
// 008   ----------------------------------------
        BYTE   W96
// 009   ----------------------------------------
        BYTE   W96
// 010   ----------------------------------------
eo2woodlandruins_1_10:
        BYTE           N23     En5   v080
        BYTE   W24
        BYTE           N32     Dn5   v080   gtp3
        BYTE   W60
        BYTE           N11
        BYTE   W12
        BYTE   PEND
// 011   ----------------------------------------
        BYTE   W96
// 012   ----------------------------------------
eo2woodlandruins_1_12:
        BYTE   W48
        BYTE           N32     Dn5   v080   gtp3
        BYTE   W48
        BYTE   PEND
// 013   ----------------------------------------
        BYTE   W96
// 014   ----------------------------------------
eo2woodlandruins_1_14:
        BYTE           N44     En5   v070   gtp3
        BYTE   W84
        BYTE           N32     En5   v070   gtp3
        BYTE   W12
        BYTE   PEND
// 015   ----------------------------------------
        BYTE   W96
// 016   ----------------------------------------
eo2woodlandruins_1_16:
        BYTE           N32     En5   v080   gtp3
        BYTE   W84
        BYTE                   Dn5
        BYTE   W12
        BYTE   PEND
// 017   ----------------------------------------
        BYTE   W96
// 018   ----------------------------------------
        BYTE   W96
// 019   ----------------------------------------
eo2woodlandruins_1_19:
        BYTE           N32     Dn5   v080   gtp3
        BYTE   W48
        BYTE                   Dn5
        BYTE   W48
        BYTE   PEND
// 020   ----------------------------------------
        BYTE   W96
// 021   ----------------------------------------
        BYTE                   Dn5
        BYTE   W96
// 022   ----------------------------------------
        BYTE   PATT
         POIN2  eo2woodlandruins_1_10
// 023   ----------------------------------------
        BYTE   W96
// 024   ----------------------------------------
        BYTE   W96
// 025   ----------------------------------------
        BYTE   W96
// 026   ----------------------------------------
        BYTE   PATT
         POIN2  eo2woodlandruins_1_10
// 027   ----------------------------------------
        BYTE   W96
// 028   ----------------------------------------
        BYTE   PATT
         POIN2  eo2woodlandruins_1_12
// 029   ----------------------------------------
        BYTE   W96
// 030   ----------------------------------------
        BYTE   PATT
         POIN2  eo2woodlandruins_1_14
// 031   ----------------------------------------
        BYTE   W96
// 032   ----------------------------------------
        BYTE   PATT
         POIN2  eo2woodlandruins_1_16
// 033   ----------------------------------------
        BYTE   W96
// 034   ----------------------------------------
        BYTE   W96
// 035   ----------------------------------------
        BYTE   PATT
         POIN2  eo2woodlandruins_1_19
// 036   ----------------------------------------
        BYTE   W96
// 037   ----------------------------------------
        BYTE           N32     Dn5   v080   gtp3
        BYTE   W96
// 038   ----------------------------------------
        BYTE   W96
// 039   ----------------------------------------
        BYTE           N88     Fs5   v080   gtp1
        BYTE   W96
// 040   ----------------------------------------
        BYTE   W96
// 041   ----------------------------------------
        BYTE   W96
// 042   ----------------------------------------
        BYTE   W96
// 043   ----------------------------------------
        BYTE   W96
// 044   ----------------------------------------
        BYTE   W72
        BYTE           N11     En5   v090
        BYTE   W12
        BYTE                   Fs5
        BYTE   W12
// 045   ----------------------------------------
        BYTE           N23     Dn5   v080
        BYTE   W01
        BYTE           N22     Gn5   v090
        BYTE   W23
        BYTE           N11     An5
        BYTE   W12
        BYTE                   Gn5
        BYTE   W13
        BYTE           N32     Fs5   v090   gtp2
        BYTE   W32
        BYTE   W03
        BYTE           N11     En5
        BYTE   W12
// 046   ----------------------------------------
        BYTE   W01
        BYTE           N22     Fs5
        BYTE   W80
        BYTE   W03
        BYTE           N11     Dn5
        BYTE   W12
// 047   ----------------------------------------
        BYTE           N20     En5
        BYTE   W22
        BYTE           N48     En5   v080   gtp3
        BYTE   W02
        BYTE           N48     Gn5   v080   gtp2
        BYTE   W01
        BYTE           N44     Dn6   v090   gtp2
        BYTE   W44
        BYTE   W03
        BYTE           N11     Cs6
        BYTE   W12
        BYTE                   Bn5
        BYTE   W12
// 048   ----------------------------------------
        BYTE           N24     En5   v080   gtp2
        BYTE   W01
        BYTE           N22     Bn5   v090
        BYTE   W23
        BYTE           N11     An5
        BYTE   W12
        BYTE                   Bn5
        BYTE   W10
        BYTE           N24     En5   v080   gtp1
        BYTE   W02
        BYTE           N23     As5
        BYTE   W01
        BYTE           N22     Cs6   v090
        BYTE   W23
        BYTE           N11     Dn6
        BYTE   W12
        BYTE                   En6
        BYTE   W12
// 049   ----------------------------------------
        BYTE           N44     Dn5   v080   gtp3
        BYTE                   Fs6   v090
        BYTE   W60
        BYTE           N11     Dn5   v080
        BYTE           N11     Fs6   v090
        BYTE   W12
        BYTE           N17     Dn5   v080
        BYTE           N11     Fs6   v090
        BYTE   W12
        BYTE                   Gn6
        BYTE   W12
// 050   ----------------------------------------
        BYTE           N44     Dn5   v080   gtp3
        BYTE           N23     Fs6   v090
        BYTE   W24
        BYTE                   Bn5
        BYTE   W36
        BYTE           N11
        BYTE   W12
        BYTE                   An6
        BYTE   W12
        BYTE                   Gn6
        BYTE   W12
// 051   ----------------------------------------
        BYTE                   Fs5
        BYTE   W12
        BYTE                   En5
        BYTE   W12
        BYTE           N32     En5   v090   gtp3
        BYTE   W48
        BYTE           N11     Dn5
        BYTE   W12
        BYTE                   En5
        BYTE   W12
// 052   ----------------------------------------
        BYTE           N23     Fs5
        BYTE   W24
        BYTE                   Dn5   v079
        BYTE   W12
        BYTE                   En5
        BYTE   W12
        BYTE           N44     Fs5   v079   gtp3
        BYTE   W48
// 053   ----------------------------------------
        BYTE   W01
        BYTE           N21     Fs5   v090
        BYTE   W23
        BYTE           N24     En5   v090   gtp2
        BYTE   W36
        BYTE           N11
        BYTE   W12
        BYTE                   Cs6   v080
        BYTE   W12
        BYTE                   En5   v090
        BYTE   W12
// 054   ----------------------------------------
        BYTE           N22
        BYTE   W24
        BYTE           N32     Dn5
        BYTE   W36
        BYTE           N11
        BYTE   W12
        BYTE                   Bn5
        BYTE   W12
        BYTE                   An5
        BYTE   W12
// 055   ----------------------------------------
        BYTE           N23     Dn5
        BYTE           N23     Fs5   v080
        BYTE   W24
        BYTE           N32     En5   v080   gtp3
        BYTE   W72
// 056   ----------------------------------------
        BYTE           N23     Dn5   v090
        BYTE           N23     Fs5   v080
        BYTE   W24
        BYTE           N32     En5   v080   gtp3
        BYTE   W48
        BYTE           N11     Fs5   v090
        BYTE   W12
        BYTE                   Gn5
        BYTE   W12
// 057   ----------------------------------------
        BYTE                   Gn5
        BYTE   W12
        BYTE                   Fs5
        BYTE   W12
        BYTE           N23
        BYTE   W72
// 058   ----------------------------------------
        BYTE   W96
// 059   ----------------------------------------
        BYTE   W96
// 060   ----------------------------------------
        BYTE           N11     An5
        BYTE   W12
        BYTE                   Gn5
        BYTE   W12
        BYTE           TIE     Gn5   v078
        BYTE   W12
        BYTE           N11     Dn5   v074
        BYTE   W12
        BYTE           N44     Dn5   v070   gtp3
        BYTE   W48
// 061   ----------------------------------------
        BYTE   W88
        BYTE   W01
        BYTE           EOT     Gn5
        BYTE   W07
// 062   ----------------------------------------
        BYTE           N11     Fs5   v090
        BYTE   W96
// 063   ----------------------------------------
        BYTE   W96
// 064   ----------------------------------------
        BYTE   W96
// 065   ----------------------------------------
        BYTE   GoTo
         POIN2  eo2woodlandruins_1_LOOP
        BYTE   FINE

//****************** Track 2 (Midi-Chn.2) ******************//

eo2woodlandruins_2:
        BYTE   KEYSH   eo2woodlandruins_key+0
// 000   ----------------------------------------
        BYTE           VOICE   0
        BYTE           PAN     c_v+11
        BYTE           VOL     54
        BYTE           N05     Bn4   v050
        BYTE   W24
        BYTE                   Bn4
        BYTE   W24
        BYTE                   Bn4
        BYTE   W24
        BYTE                   Bn4
        BYTE   W24
// 001   ----------------------------------------
        BYTE                   Bn4
        BYTE   W24
        BYTE                   Bn4
        BYTE   W24
        BYTE                   An4
        BYTE   W24
        BYTE                   An4
        BYTE   W24
// 002   ----------------------------------------
        BYTE           N23     Cn5   v080
        BYTE           N05     An4   v050
        BYTE   W24
        BYTE           N11     Bn4   v080
        BYTE           N05     An4   v050
        BYTE   W12
        BYTE           N11     An4   v080
        BYTE   W12
        BYTE           N05     An4   v050
        BYTE   W24
        BYTE                   An4
        BYTE   W24
// 003   ----------------------------------------
        BYTE           N23     Cn5   v080
        BYTE           N05     An4   v050
        BYTE   W24
        BYTE           N11     Bn4   v080
        BYTE           N05     An4   v050
        BYTE   W12
        BYTE           N11     An4   v080
        BYTE   W12
        BYTE           N05     An4   v050
        BYTE   W24
        BYTE                   An4
        BYTE   W22
        BYTE           N03     As4   v057
        BYTE   W02
// 004   ----------------------------------------
        BYTE           N48     Bn4   v083
        BYTE   W48
        BYTE           N05     Bn4   v050
        BYTE   W44
        BYTE                   Cn5   v035
        BYTE   W02
        BYTE           N13     Cs5   v061
        BYTE   W02
// 005   ----------------------------------------
        BYTE   W96
// 006   ----------------------------------------
eo2woodlandruins_2_LOOP:
        BYTE   W96
// 007   ----------------------------------------
eo2woodlandruins_2_7:
        BYTE           N23     Bn4   v080
        BYTE   W84
        BYTE           N11     An4
        BYTE   W12
        BYTE   PEND
// 008   ----------------------------------------
        BYTE   W96
// 009   ----------------------------------------
        BYTE   W96
// 010   ----------------------------------------
        BYTE   W96
// 011   ----------------------------------------
        BYTE   PATT
         POIN2  eo2woodlandruins_2_7
// 012   ----------------------------------------
        BYTE   W96
// 013   ----------------------------------------
        BYTE   W96
// 014   ----------------------------------------
eo2woodlandruins_2_14:
        BYTE   W24
        BYTE           N44     An4   v070   gtp3
        BYTE   W48
        BYTE           N32     An4   v070   gtp3
        BYTE   W24
        BYTE   PEND
// 015   ----------------------------------------
eo2woodlandruins_2_15:
        BYTE           N44     Bn4   v070   gtp3
        BYTE   W84
        BYTE           N32     Bn4   v080   gtp3
        BYTE   W12
        BYTE   PEND
// 016   ----------------------------------------
eo2woodlandruins_2_16:
        BYTE   W24
        BYTE           N32     An4   v080   gtp3
        BYTE   W48
        BYTE                   An4
        BYTE   W24
        BYTE   PEND
// 017   ----------------------------------------
        BYTE                   Bn4
        BYTE   W96
// 018   ----------------------------------------
eo2woodlandruins_2_18:
        BYTE           N32     Cn5   v080   gtp3
        BYTE   W24
        BYTE           N44     An4   v080   gtp3
        BYTE   W48
        BYTE           N32     An4   v080   gtp3
        BYTE   W24
        BYTE   PEND
// 019   ----------------------------------------
eo2woodlandruins_2_19:
        BYTE   W24
        BYTE           N23     Bn4   v070
        BYTE   W48
        BYTE                   As4
        BYTE   W24
        BYTE   PEND
// 020   ----------------------------------------
eo2woodlandruins_2_20:
        BYTE           N23     An4   v080
        BYTE   W24
        BYTE                   An4   v070
        BYTE   W48
        BYTE           N32     An4   v080   gtp3
        BYTE   W24
        BYTE   PEND
// 021   ----------------------------------------
eo2woodlandruins_2_21:
        BYTE   W24
        BYTE           N32     Bn4   v080   gtp3
        BYTE   W24
        BYTE                   An4
        BYTE   W48
        BYTE   PEND
// 022   ----------------------------------------
        BYTE   W96
// 023   ----------------------------------------
        BYTE   PATT
         POIN2  eo2woodlandruins_2_7
// 024   ----------------------------------------
        BYTE   W96
// 025   ----------------------------------------
        BYTE   W96
// 026   ----------------------------------------
        BYTE   W96
// 027   ----------------------------------------
        BYTE   PATT
         POIN2  eo2woodlandruins_2_7
// 028   ----------------------------------------
        BYTE   W96
// 029   ----------------------------------------
        BYTE   W96
// 030   ----------------------------------------
        BYTE   PATT
         POIN2  eo2woodlandruins_2_14
// 031   ----------------------------------------
        BYTE   PATT
         POIN2  eo2woodlandruins_2_15
// 032   ----------------------------------------
        BYTE   PATT
         POIN2  eo2woodlandruins_2_16
// 033   ----------------------------------------
        BYTE           N32     Bn4   v080   gtp3
        BYTE   W96
// 034   ----------------------------------------
        BYTE   PATT
         POIN2  eo2woodlandruins_2_18
// 035   ----------------------------------------
        BYTE   PATT
         POIN2  eo2woodlandruins_2_19
// 036   ----------------------------------------
        BYTE   PATT
         POIN2  eo2woodlandruins_2_20
// 037   ----------------------------------------
        BYTE   PATT
         POIN2  eo2woodlandruins_2_21
// 038   ----------------------------------------
        BYTE           N32     Cs5   v080   gtp3
        BYTE   W48
        BYTE                   As4
        BYTE   W48
// 039   ----------------------------------------
        BYTE   W96
// 040   ----------------------------------------
        BYTE   W96
// 041   ----------------------------------------
        BYTE           N44     Bn4   v090   gtp3
        BYTE   W96
// 042   ----------------------------------------
        BYTE   W96
// 043   ----------------------------------------
        BYTE   W84
        BYTE           N11
        BYTE   W12
// 044   ----------------------------------------
        BYTE           N23     An4
        BYTE   W92
        BYTE   W02
        BYTE           N24     Bn4   v080   gtp1
        BYTE   W02
// 045   ----------------------------------------
        BYTE   W48
        BYTE           N32     Cs5   v080   gtp3
        BYTE   W44
        BYTE   W02
        BYTE           N24     An4
        BYTE   W02
// 046   ----------------------------------------
        BYTE           N23     Cs5
        BYTE   W24
        BYTE           N11     Cs5   v090
        BYTE   W12
        BYTE                   Bn4
        BYTE   W12
        BYTE           N32     An4   v080   gtp3
        BYTE   W01
        BYTE           N32     Cs5   v090   gtp2
        BYTE   W44
        BYTE   W03
// 047   ----------------------------------------
        BYTE   W92
        BYTE   W02
        BYTE           N24     Cs5   v080   gtp3
        BYTE   W02
// 048   ----------------------------------------
        BYTE   W96
// 049   ----------------------------------------
        BYTE   W96
// 050   ----------------------------------------
        BYTE   W96
// 051   ----------------------------------------
        BYTE           N24     Bn4   v080   gtp1
        BYTE   W44
        BYTE   W02
        BYTE                   An4
        BYTE   W02
        BYTE           N11     Cs5
        BYTE   W12
        BYTE                   Cs5   v090
        BYTE   W36
// 052   ----------------------------------------
        BYTE   W12
        BYTE           N23     An4   v079
        BYTE   W84
// 053   ----------------------------------------
        BYTE           N24     Bn4   v080   gtp1
        BYTE   W48
        BYTE                   As4
        BYTE   W48
// 054   ----------------------------------------
        BYTE                   Bn4
        BYTE   W48
        BYTE                   Bn4
        BYTE   W48
// 055   ----------------------------------------
        BYTE           N56     Bn4   v080   gtp3
        BYTE   W24
        BYTE           N32     Cs5   v090   gtp2
        BYTE   W48
        BYTE           N11     Bn4
        BYTE   W12
        BYTE                   Cs5
        BYTE   W12
// 056   ----------------------------------------
        BYTE           N64     An4   v080   gtp1
        BYTE   W24
        BYTE           N40     Cs5   v090   gtp1
        BYTE   W72
// 057   ----------------------------------------
        BYTE   W96
// 058   ----------------------------------------
        BYTE   W96
// 059   ----------------------------------------
        BYTE   W96
// 060   ----------------------------------------
        BYTE   W60
        BYTE           N11     As4   v067
        BYTE   W12
        BYTE           N44     As4   v065   gtp3
        BYTE   W24
// 061   ----------------------------------------
        BYTE   W96
// 062   ----------------------------------------
        BYTE   W12
        BYTE           N11     Cs5   v090
        BYTE   W12
        BYTE           TIE     Cs5   v075
        BYTE   W12
        BYTE           N11     An4   v068
        BYTE   W12
        BYTE           N44     An4   v061   gtp3
        BYTE   W48
// 063   ----------------------------------------
        BYTE   W88
        BYTE   W01
        BYTE           EOT     Cs5
        BYTE   W07
// 064   ----------------------------------------
        BYTE   W96
// 065   ----------------------------------------
        BYTE   GoTo
         POIN2  eo2woodlandruins_2_LOOP
        BYTE   FINE

//****************** Track 3 (Midi-Chn.3) ******************//

eo2woodlandruins_3:
        BYTE   KEYSH   eo2woodlandruins_key+0
// 000   ----------------------------------------
        BYTE           VOICE   0
        BYTE           PAN     c_v-3
        BYTE           VOL     54
        BYTE   W06
        BYTE           N05     En4   v050
        BYTE   W06
        BYTE                   Gn4
        BYTE   W06
        BYTE                   En4
        BYTE   W12
        BYTE                   Gn4
        BYTE   W06
        BYTE                   En4
        BYTE   W18
        BYTE                   Dn4
        BYTE   W06
        BYTE                   Fs4
        BYTE   W06
        BYTE                   Dn4
        BYTE   W12
        BYTE                   Fs4
        BYTE   W06
        BYTE                   Dn4
        BYTE   W12
// 001   ----------------------------------------
        BYTE   W06
        BYTE                   En4
        BYTE   W06
        BYTE                   Gn4
        BYTE   W06
        BYTE                   En4
        BYTE   W12
        BYTE                   Gn4
        BYTE   W06
        BYTE                   En4
        BYTE   W18
        BYTE                   Dn4
        BYTE   W06
        BYTE                   Fs4
        BYTE   W06
        BYTE                   Dn4
        BYTE   W12
        BYTE                   Fs4
        BYTE   W06
        BYTE                   Dn4
        BYTE   W12
// 002   ----------------------------------------
        BYTE   W06
        BYTE                   En4
        BYTE   W06
        BYTE                   Gn4
        BYTE   W06
        BYTE                   En4
        BYTE   W12
        BYTE                   Gn4
        BYTE   W06
        BYTE                   En4
        BYTE   W06
        BYTE                   Gn4
        BYTE   W06
        BYTE           N12     Gn4   v080
        BYTE   W06
        BYTE           N05     Dn4   v050
        BYTE   W06
        BYTE                   Gn4
        BYTE   W06
        BYTE                   Dn4
        BYTE   W06
        BYTE           N12     Dn4   v080
        BYTE   W06
        BYTE           N05     Gn4   v050
        BYTE   W06
        BYTE                   Dn4
        BYTE   W12
// 003   ----------------------------------------
        BYTE   W06
        BYTE                   En4
        BYTE   W06
        BYTE                   Gn4
        BYTE   W06
        BYTE                   En4
        BYTE   W12
        BYTE                   Gn4
        BYTE   W06
        BYTE                   En4
        BYTE   W06
        BYTE                   Gn4
        BYTE   W06
        BYTE           N12     Gn4   v080
        BYTE   W06
        BYTE           N05     Dn4   v050
        BYTE   W06
        BYTE                   Gn4
        BYTE   W06
        BYTE                   Dn4
        BYTE   W12
        BYTE                   Fs4
        BYTE   W06
        BYTE                   Dn4
        BYTE   W12
// 004   ----------------------------------------
        BYTE   W12
        BYTE                   Fs4
        BYTE   W06
        BYTE                   Gs4
        BYTE   W12
        BYTE                   En4
        BYTE   W06
        BYTE                   Fs4
        BYTE   W06
        BYTE                   Gs4
        BYTE   W54
// 005   ----------------------------------------
        BYTE   W96
// 006   ----------------------------------------
eo2woodlandruins_3_LOOP:
        BYTE   W60
        BYTE           N11     Dn4   v080
        BYTE   W12
        BYTE                   En4
        BYTE   W24
// 007   ----------------------------------------
eo2woodlandruins_3_7:
        BYTE   W24
        BYTE           N32     En4   v080   gtp3
        BYTE   W48
        BYTE           N11
        BYTE   W24
        BYTE   PEND
// 008   ----------------------------------------
eo2woodlandruins_3_8:
        BYTE           N32     Gn4   v080   gtp3
        BYTE   W36
        BYTE           N05     Fs4
        BYTE   W06
        BYTE                   En4
        BYTE   W06
        BYTE           N32     Dn4   v080   gtp3
        BYTE   W36
        BYTE           N11     En4
        BYTE   W12
        BYTE   PEND
// 009   ----------------------------------------
        BYTE   W96
// 010   ----------------------------------------
eo2woodlandruins_3_10:
        BYTE   W60
        BYTE           N11     Dn4   v080
        BYTE   W12
        BYTE                   En4
        BYTE   W24
        BYTE   PEND
// 011   ----------------------------------------
        BYTE   PATT
         POIN2  eo2woodlandruins_3_7
// 012   ----------------------------------------
eo2woodlandruins_3_12:
        BYTE           N32     Gn4   v080   gtp3
        BYTE   W36
        BYTE           N05     Fs4
        BYTE   W06
        BYTE                   Gn4
        BYTE   W42
        BYTE           N11     Fs4
        BYTE   W12
        BYTE   PEND
// 013   ----------------------------------------
        BYTE           N80     En4   v080   gtp3
        BYTE   W96
// 014   ----------------------------------------
eo2woodlandruins_3_14:
        BYTE   W12
        BYTE           N23     En4   v063
        BYTE   W48
        BYTE           N32     En4   v070   gtp3
        BYTE   W36
        BYTE   PEND
// 015   ----------------------------------------
eo2woodlandruins_3_15:
        BYTE   W24
        BYTE           N44     En4   v070   gtp3
        BYTE   W36
        BYTE           N23     Fs4
        BYTE   W12
        BYTE                   Gn4   v080
        BYTE   W24
        BYTE   PEND
// 016   ----------------------------------------
eo2woodlandruins_3_16:
        BYTE   W12
        BYTE           N23     En4   v063
        BYTE   W48
        BYTE           N32     Dn4   v080   gtp3
        BYTE   W36
        BYTE   PEND
// 017   ----------------------------------------
eo2woodlandruins_3_17:
        BYTE   W24
        BYTE           N32     Fs4   v080   gtp3
        BYTE   W12
        BYTE                   Dn4   v066
        BYTE   W24
        BYTE           N23     Fs4   v080
        BYTE   W12
        BYTE                   Dn4   v070
        BYTE   W24
        BYTE   PEND
// 018   ----------------------------------------
eo2woodlandruins_3_18:
        BYTE   W12
        BYTE           N23     En4   v066
        BYTE   W48
        BYTE           N32     En4   v070   gtp3
        BYTE   W36
        BYTE   PEND
// 019   ----------------------------------------
eo2woodlandruins_3_19:
        BYTE   W12
        BYTE           N32     Fs4   v070   gtp3
        BYTE   W24
        BYTE           N11     Dn4
        BYTE   W24
        BYTE           N32     Fs4   v070   gtp3
        BYTE   W24
        BYTE           N11     En4
        BYTE   W12
        BYTE   PEND
// 020   ----------------------------------------
eo2woodlandruins_3_20:
        BYTE   W12
        BYTE           N23     En4   v070
        BYTE   W36
        BYTE           N32     Dn4   v070   gtp3
        BYTE   W12
        BYTE           N23     Fs4   v080
        BYTE   W24
        BYTE                   Fs4
        BYTE   W12
        BYTE   PEND
// 021   ----------------------------------------
        BYTE           N40     Gn4   v080   gtp1
        BYTE   W24
        BYTE                   Dn4
        BYTE   W48
        BYTE           N32     Fs4   v080   gtp3
        BYTE   W24
// 022   ----------------------------------------
        BYTE   PATT
         POIN2  eo2woodlandruins_3_10
// 023   ----------------------------------------
        BYTE   PATT
         POIN2  eo2woodlandruins_3_7
// 024   ----------------------------------------
        BYTE   PATT
         POIN2  eo2woodlandruins_3_8
// 025   ----------------------------------------
        BYTE   W96
// 026   ----------------------------------------
        BYTE   PATT
         POIN2  eo2woodlandruins_3_10
// 027   ----------------------------------------
        BYTE   PATT
         POIN2  eo2woodlandruins_3_7
// 028   ----------------------------------------
        BYTE   PATT
         POIN2  eo2woodlandruins_3_12
// 029   ----------------------------------------
        BYTE           N80     En4   v080   gtp3
        BYTE   W96
// 030   ----------------------------------------
        BYTE   PATT
         POIN2  eo2woodlandruins_3_14
// 031   ----------------------------------------
        BYTE   PATT
         POIN2  eo2woodlandruins_3_15
// 032   ----------------------------------------
        BYTE   PATT
         POIN2  eo2woodlandruins_3_16
// 033   ----------------------------------------
        BYTE   PATT
         POIN2  eo2woodlandruins_3_17
// 034   ----------------------------------------
        BYTE   PATT
         POIN2  eo2woodlandruins_3_18
// 035   ----------------------------------------
        BYTE   PATT
         POIN2  eo2woodlandruins_3_19
// 036   ----------------------------------------
        BYTE   PATT
         POIN2  eo2woodlandruins_3_20
// 037   ----------------------------------------
        BYTE   W24
        BYTE           N40     Dn4   v080   gtp1
        BYTE   W48
        BYTE           N32     Fs4   v080   gtp3
        BYTE   W24
// 038   ----------------------------------------
        BYTE   W24
        BYTE                   Cs4
        BYTE   W48
        BYTE                   Fs4
        BYTE   W24
// 039   ----------------------------------------
        BYTE   W96
// 040   ----------------------------------------
        BYTE   W96
// 041   ----------------------------------------
        BYTE           N44     Fs4   v090   gtp3
        BYTE   W48
        BYTE           N32     Cs4   v090   gtp3
        BYTE                   Fs4
        BYTE   W36
        BYTE           N11     En4
        BYTE   W12
// 042   ----------------------------------------
        BYTE           N23     Fs4
        BYTE   W72
        BYTE           N11     En4
        BYTE   W12
        BYTE                   Fs4
        BYTE   W12
// 043   ----------------------------------------
        BYTE           N23     Dn4
        BYTE   W24
        BYTE           N11     Cs4
        BYTE   W12
        BYTE                   Dn4
        BYTE   W12
        BYTE           N32     Cs4   v090   gtp3
        BYTE                   En4
        BYTE   W48
// 044   ----------------------------------------
        BYTE   W24
        BYTE                   En4
        BYTE   W72
// 045   ----------------------------------------
        BYTE   W96
// 046   ----------------------------------------
        BYTE   W96
// 047   ----------------------------------------
        BYTE   W96
// 048   ----------------------------------------
        BYTE   W96
// 049   ----------------------------------------
        BYTE   W96
// 050   ----------------------------------------
eo2woodlandruins_3_50:
        BYTE   W92
        BYTE   W02
        BYTE           N24     Gn4   v080   gtp1
        BYTE   W02
        BYTE   PEND
// 051   ----------------------------------------
        BYTE   W96
// 052   ----------------------------------------
        BYTE   PATT
         POIN2  eo2woodlandruins_3_50
// 053   ----------------------------------------
        BYTE   W44
        BYTE   W02
        BYTE           N24     Gn4   v080   gtp1
        BYTE   W48
        BYTE                   Fs4
        BYTE   W02
// 054   ----------------------------------------
        BYTE   W44
        BYTE   W02
        BYTE                   Fs4
        BYTE   W48
        BYTE   W02
// 055   ----------------------------------------
        BYTE           N56     Gn4   v080   gtp3
        BYTE   W96
// 056   ----------------------------------------
        BYTE           N64     En4   v080   gtp1
        BYTE   W72
        BYTE           N11     Dn4   v090
        BYTE           N11     Fs4
        BYTE   W12
        BYTE                   En4
        BYTE           N11     Gn4
        BYTE   W12
// 057   ----------------------------------------
        BYTE                   En4
        BYTE           N11     Gn4
        BYTE   W12
        BYTE                   Dn4
        BYTE           N11     Fs4
        BYTE   W12
        BYTE           TIE     Dn4
        BYTE           TIE     Fs4
        BYTE   W72
// 058   ----------------------------------------
        BYTE   W92
        BYTE   W03
        BYTE           EOT
        BYTE           EOT     Dn4
        BYTE   W01
// 059   ----------------------------------------
        BYTE   W96
// 060   ----------------------------------------
        BYTE   W84
        BYTE           N11     Gn4   v061
        BYTE   W12
// 061   ----------------------------------------
        BYTE           N44     Gn4   v059   gtp3
        BYTE   W12
        BYTE           N11     Dn4   v056
        BYTE   W12
        BYTE           N44     Dn4   v055   gtp3
        BYTE   W72
// 062   ----------------------------------------
        BYTE   W60
        BYTE           N11     Fs4
        BYTE   W12
        BYTE           N44     Fs4   v049   gtp3
        BYTE   W12
        BYTE           N11     Cs4   v044
        BYTE   W12
// 063   ----------------------------------------
        BYTE           N44     Cs4   v040   gtp3
        BYTE   W96
// 064   ----------------------------------------
        BYTE   W96
// 065   ----------------------------------------
        BYTE   GoTo
         POIN2  eo2woodlandruins_3_LOOP
        BYTE   FINE

//****************** Track 4 (Midi-Chn.4) ******************//

eo2woodlandruins_4:
        BYTE   KEYSH   eo2woodlandruins_key+0
// 000   ----------------------------------------
        BYTE           VOICE   0
        BYTE           VOL     54
        BYTE           PAN     c_v-18
        BYTE   W96
// 001   ----------------------------------------
        BYTE   W96
// 002   ----------------------------------------
        BYTE   W90
        BYTE           N05     Bn3   v050
        BYTE   W06
// 003   ----------------------------------------
        BYTE   W90
        BYTE                   An3
        BYTE   W06
// 004   ----------------------------------------
        BYTE                   En3
        BYTE   W06
        BYTE                   Bn3
        BYTE   W18
        BYTE                   Bn3
        BYTE   W72
// 005   ----------------------------------------
        BYTE   W96
// 006   ----------------------------------------
eo2woodlandruins_4_LOOP:
        BYTE   W96
// 007   ----------------------------------------
        BYTE   W96
// 008   ----------------------------------------
        BYTE   W96
// 009   ----------------------------------------
        BYTE           N88     Bn3   v080   gtp1
        BYTE   W96
// 010   ----------------------------------------
        BYTE   W96
// 011   ----------------------------------------
        BYTE   W96
// 012   ----------------------------------------
        BYTE   W96
// 013   ----------------------------------------
        BYTE   W96
// 014   ----------------------------------------
eo2woodlandruins_4_14:
        BYTE   W36
        BYTE           N22     An3   v063
        BYTE   W60
        BYTE   PEND
// 015   ----------------------------------------
eo2woodlandruins_4_15:
        BYTE   W12
        BYTE           N23     Bn3   v070
        BYTE   W24
        BYTE                   En3
        BYTE   W60
        BYTE   PEND
// 016   ----------------------------------------
eo2woodlandruins_4_16:
        BYTE   W36
        BYTE           N23     An3   v063
        BYTE   W60
        BYTE   PEND
// 017   ----------------------------------------
eo2woodlandruins_4_17:
        BYTE   W12
        BYTE           N32     Bn3   v066   gtp3
        BYTE   W72
        BYTE           N23     An3   v070
        BYTE   W12
        BYTE   PEND
// 018   ----------------------------------------
eo2woodlandruins_4_18:
        BYTE   W36
        BYTE           N23     An3   v070
        BYTE   W60
        BYTE   PEND
// 019   ----------------------------------------
        BYTE   W96
// 020   ----------------------------------------
eo2woodlandruins_4_20:
        BYTE   W36
        BYTE           N32     An3   v070   gtp3
        BYTE   W60
        BYTE   PEND
// 021   ----------------------------------------
        BYTE   W96
// 022   ----------------------------------------
        BYTE   W96
// 023   ----------------------------------------
        BYTE   W96
// 024   ----------------------------------------
        BYTE   W96
// 025   ----------------------------------------
        BYTE           N88     Bn3   v080   gtp1
        BYTE   W96
// 026   ----------------------------------------
        BYTE   W96
// 027   ----------------------------------------
        BYTE   W96
// 028   ----------------------------------------
        BYTE   W96
// 029   ----------------------------------------
        BYTE   W96
// 030   ----------------------------------------
        BYTE   PATT
         POIN2  eo2woodlandruins_4_14
// 031   ----------------------------------------
        BYTE   PATT
         POIN2  eo2woodlandruins_4_15
// 032   ----------------------------------------
        BYTE   PATT
         POIN2  eo2woodlandruins_4_16
// 033   ----------------------------------------
        BYTE   PATT
         POIN2  eo2woodlandruins_4_17
// 034   ----------------------------------------
        BYTE   PATT
         POIN2  eo2woodlandruins_4_18
// 035   ----------------------------------------
        BYTE   W96
// 036   ----------------------------------------
        BYTE   PATT
         POIN2  eo2woodlandruins_4_20
// 037   ----------------------------------------
        BYTE   W96
// 038   ----------------------------------------
        BYTE   W96
// 039   ----------------------------------------
        BYTE   W96
// 040   ----------------------------------------
        BYTE   W96
// 041   ----------------------------------------
        BYTE   W96
// 042   ----------------------------------------
        BYTE           N23     Bn3   v090
        BYTE   W24
        BYTE           N32     Bn3   v090   gtp3
        BYTE   W72
// 043   ----------------------------------------
        BYTE           N23
        BYTE   W96
// 044   ----------------------------------------
        BYTE   W96
// 045   ----------------------------------------
        BYTE   W96
// 046   ----------------------------------------
        BYTE   W96
// 047   ----------------------------------------
        BYTE   W96
// 048   ----------------------------------------
        BYTE   W96
// 049   ----------------------------------------
        BYTE   W96
// 050   ----------------------------------------
        BYTE   W96
// 051   ----------------------------------------
        BYTE   W96
// 052   ----------------------------------------
        BYTE   W96
// 053   ----------------------------------------
        BYTE   W96
// 054   ----------------------------------------
        BYTE   W96
// 055   ----------------------------------------
        BYTE   W96
// 056   ----------------------------------------
        BYTE   W96
// 057   ----------------------------------------
        BYTE   W96
// 058   ----------------------------------------
        BYTE   W96
// 059   ----------------------------------------
        BYTE   W96
// 060   ----------------------------------------
        BYTE   W96
// 061   ----------------------------------------
        BYTE   W36
        BYTE           N11     As3   v053
        BYTE   W12
        BYTE           N44     As3   v052   gtp3
        BYTE   W12
        BYTE           N11     Gn3
        BYTE   W12
        BYTE           N23     Gn3   v051
        BYTE   W12
        BYTE           N11     Dn3
        BYTE   W12
// 062   ----------------------------------------
        BYTE   W96
// 063   ----------------------------------------
        BYTE   W12
        BYTE                   An3   v037
        BYTE   W12
        BYTE           N44     An3   v035   gtp3
        BYTE   W12
        BYTE           N11     Fs3   v034
        BYTE   W12
        BYTE           N44     Fs3   v033   gtp3
        BYTE   W48
// 064   ----------------------------------------
        BYTE   W96
// 065   ----------------------------------------
        BYTE   GoTo
         POIN2  eo2woodlandruins_4_LOOP
        BYTE   FINE

//****************** Track 5 (Midi-Chn.5) ******************//

eo2woodlandruins_5:
        BYTE   KEYSH   eo2woodlandruins_key+0
// 000   ----------------------------------------
        BYTE           VOICE   81
        BYTE           0xCD   0x08 0x30
        BYTE           0xCD   0x09 0x30
        BYTE           VOL     40
        BYTE           PAN     c_v+8
        BYTE           TIE     Bn4   v049
        BYTE   W96
// 001   ----------------------------------------
        BYTE   W44
        BYTE   W03
        BYTE           EOT
        BYTE   W01
        BYTE           N44     An4   v049   gtp3
        BYTE   W48
// 002   ----------------------------------------
        BYTE                   Gn4
        BYTE   W48
        BYTE                   Dn4
        BYTE   W48
// 003   ----------------------------------------
        BYTE                   Gn4
        BYTE   W48
        BYTE                   An4
        BYTE   W48
// 004   ----------------------------------------
        BYTE           N88     Bn4   v049   gtp1
        BYTE   W96
// 005   ----------------------------------------
        BYTE   W96
// 006   ----------------------------------------
eo2woodlandruins_5_LOOP:
        BYTE           N23     En5   v080
        BYTE   W24
        BYTE           N32     Dn5   v080   gtp3
        BYTE   W36
        BYTE           N11     Dn4
        BYTE   W12
        BYTE                   En4
        BYTE   W12
        BYTE                   Dn5
        BYTE   W12
// 007   ----------------------------------------
eo2woodlandruins_5_7:
        BYTE           N23     Bn4   v080
        BYTE   W24
        BYTE           N32     En4   v080   gtp3
        BYTE   W48
        BYTE           N11
        BYTE   W12
        BYTE                   An4
        BYTE   W12
        BYTE   PEND
// 008   ----------------------------------------
        BYTE   PATT
         POIN2  eo2woodlandruins_3_8
// 009   ----------------------------------------
        BYTE           N88     Bn3   v080   gtp1
        BYTE   W96
// 010   ----------------------------------------
eo2woodlandruins_5_10:
        BYTE           N23     En5   v080
        BYTE   W24
        BYTE           N32     Dn5   v080   gtp3
        BYTE   W36
        BYTE           N11     Dn4
        BYTE   W12
        BYTE                   En4
        BYTE   W12
        BYTE                   Dn5
        BYTE   W12
        BYTE   PEND
// 011   ----------------------------------------
        BYTE   PATT
         POIN2  eo2woodlandruins_5_7
// 012   ----------------------------------------
eo2woodlandruins_5_12:
        BYTE           N32     Gn4   v080   gtp3
        BYTE   W36
        BYTE           N05     Fs4
        BYTE   W06
        BYTE                   Gn4
        BYTE   W06
        BYTE           N32     Dn5   v080   gtp3
        BYTE   W36
        BYTE           N11     Fs4
        BYTE   W12
        BYTE   PEND
// 013   ----------------------------------------
eo2woodlandruins_5_13:
        BYTE           N60     En4   v080
        BYTE   W60
        BYTE           N12     Bn4
        BYTE   W12
        BYTE                   Cn5
        BYTE   W12
        BYTE                   En5
        BYTE   W12
        BYTE   PEND
// 014   ----------------------------------------
eo2woodlandruins_5_14:
        BYTE           N23     Gn5   v080
        BYTE   W24
        BYTE           N32     Bn4   v080   gtp3
        BYTE   W36
        BYTE           N11     An4
        BYTE   W12
        BYTE                   Bn4
        BYTE   W12
        BYTE                   En5
        BYTE   W12
        BYTE   PEND
// 015   ----------------------------------------
eo2woodlandruins_5_15:
        BYTE           N23     Fs4   v080
        BYTE   W24
        BYTE           N32     Gn4   v080   gtp3
        BYTE   W36
        BYTE           N11     An4
        BYTE   W12
        BYTE                   Bn4
        BYTE   W12
        BYTE                   En5
        BYTE   W12
        BYTE   PEND
// 016   ----------------------------------------
eo2woodlandruins_5_16:
        BYTE           N23     Gn5   v080
        BYTE   W24
        BYTE           N32     Fs5   v080   gtp3
        BYTE   W36
        BYTE           N11     An5
        BYTE   W12
        BYTE                   Gn5
        BYTE   W12
        BYTE                   Fs5
        BYTE   W12
        BYTE   PEND
// 017   ----------------------------------------
eo2woodlandruins_5_17:
        BYTE           N11     Fs5   v080
        BYTE   W12
        BYTE                   Dn5
        BYTE   W12
        BYTE           N28     Dn5   v080   gtp1
        BYTE   W36
        BYTE           N11
        BYTE   W12
        BYTE                   En5
        BYTE   W12
        BYTE                   Fs5
        BYTE   W12
        BYTE   PEND
// 018   ----------------------------------------
eo2woodlandruins_5_18:
        BYTE           N23     Gn5   v080
        BYTE   W24
        BYTE           N32     Cn5   v080   gtp3
        BYTE   W36
        BYTE           N11     Bn5
        BYTE   W12
        BYTE                   An5
        BYTE   W12
        BYTE                   Gn5
        BYTE   W12
        BYTE   PEND
// 019   ----------------------------------------
eo2woodlandruins_5_19:
        BYTE           N11     Fs5   v080
        BYTE   W12
        BYTE                   En5
        BYTE   W12
        BYTE           N32     Fs5   v080   gtp3
        BYTE   W36
        BYTE           N11     An5
        BYTE   W12
        BYTE                   Gn5
        BYTE   W12
        BYTE                   En5
        BYTE   W12
        BYTE   PEND
// 020   ----------------------------------------
eo2woodlandruins_5_20:
        BYTE           N11     Cn5   v080
        BYTE   W12
        BYTE                   Bn4
        BYTE   W12
        BYTE           N32     Cn5   v080   gtp3
        BYTE   W36
        BYTE           N11     Bn4
        BYTE   W12
        BYTE                   En5
        BYTE   W12
        BYTE                   Dn5
        BYTE   W12
        BYTE   PEND
// 021   ----------------------------------------
        BYTE           N88     Bn4   v080   gtp1
        BYTE   W96
// 022   ----------------------------------------
        BYTE   PATT
         POIN2  eo2woodlandruins_5_10
// 023   ----------------------------------------
        BYTE   PATT
         POIN2  eo2woodlandruins_5_7
// 024   ----------------------------------------
        BYTE   PATT
         POIN2  eo2woodlandruins_3_8
// 025   ----------------------------------------
        BYTE           N88     Bn3   v080   gtp1
        BYTE   W96
// 026   ----------------------------------------
        BYTE   PATT
         POIN2  eo2woodlandruins_5_10
// 027   ----------------------------------------
        BYTE   PATT
         POIN2  eo2woodlandruins_5_7
// 028   ----------------------------------------
        BYTE   PATT
         POIN2  eo2woodlandruins_5_12
// 029   ----------------------------------------
        BYTE   PATT
         POIN2  eo2woodlandruins_5_13
// 030   ----------------------------------------
        BYTE   PATT
         POIN2  eo2woodlandruins_5_14
// 031   ----------------------------------------
        BYTE   PATT
         POIN2  eo2woodlandruins_5_15
// 032   ----------------------------------------
        BYTE   PATT
         POIN2  eo2woodlandruins_5_16
// 033   ----------------------------------------
        BYTE   PATT
         POIN2  eo2woodlandruins_5_17
// 034   ----------------------------------------
        BYTE   PATT
         POIN2  eo2woodlandruins_5_18
// 035   ----------------------------------------
        BYTE   PATT
         POIN2  eo2woodlandruins_5_19
// 036   ----------------------------------------
        BYTE   PATT
         POIN2  eo2woodlandruins_5_20
// 037   ----------------------------------------
        BYTE           N92     Bn4   v080   gtp3
        BYTE   W96
// 038   ----------------------------------------
        BYTE                   Cs4   v060
        BYTE   W72
        BYTE           N23     Fs4
        BYTE   W24
// 039   ----------------------------------------
        BYTE           N72     Cs5
        BYTE   W96
// 040   ----------------------------------------
        BYTE   W96
// 041   ----------------------------------------
        BYTE           BEND    c_v+2
        BYTE   W96
// 042   ----------------------------------------
        BYTE   W96
// 043   ----------------------------------------
        BYTE   W96
// 044   ----------------------------------------
        BYTE   W72
        BYTE           N11     En4   v080
        BYTE   W12
        BYTE                   Fs4
        BYTE   W12
// 045   ----------------------------------------
        BYTE           N23     Gn4
        BYTE   W24
        BYTE           N11     An4
        BYTE   W12
        BYTE                   Gn4
        BYTE   W12
        BYTE           N32     Fs4   v080   gtp3
        BYTE   W36
        BYTE           N11     En4
        BYTE   W12
// 046   ----------------------------------------
        BYTE           N23     Fs4
        BYTE   W24
        BYTE           N11     Cs4
        BYTE   W12
        BYTE                   Bn3
        BYTE   W12
        BYTE           N32     Cs4   v080   gtp3
        BYTE   W36
        BYTE           N11     Dn4
        BYTE   W12
// 047   ----------------------------------------
        BYTE           N23     En4
        BYTE   W24
        BYTE           N40     Dn5   v080   gtp1
        BYTE   W48
        BYTE           N11     Cs5
        BYTE   W12
        BYTE                   Bn4
        BYTE   W12
// 048   ----------------------------------------
        BYTE           N23
        BYTE   W24
        BYTE           N11     An4
        BYTE   W12
        BYTE                   Bn4
        BYTE   W12
        BYTE           N23     Cs5
        BYTE   W24
        BYTE           N11     Dn5
        BYTE   W12
        BYTE                   En5
        BYTE   W12
// 049   ----------------------------------------
        BYTE           N52     Fs4   v080   gtp1
        BYTE   W60
        BYTE           N11
        BYTE   W12
        BYTE                   Fs4
        BYTE   W12
        BYTE                   Gn4
        BYTE   W12
// 050   ----------------------------------------
        BYTE           N23     Fs4
        BYTE   W24
        BYTE           N28     Bn3   v080   gtp1
        BYTE   W36
        BYTE           N11
        BYTE   W12
        BYTE                   An4
        BYTE   W12
        BYTE                   Gn4
        BYTE   W12
// 051   ----------------------------------------
        BYTE                   Fs4
        BYTE   W12
        BYTE           N08     En4
        BYTE   W12
        BYTE           N28     En4   v080   gtp1
        BYTE   W36
        BYTE           N11     Cs4
        BYTE   W12
        BYTE                   Dn4
        BYTE   W12
        BYTE                   En4
        BYTE   W12
// 052   ----------------------------------------
        BYTE           N68     Fs4   v080   gtp3
        BYTE   W96
// 053   ----------------------------------------
        BYTE           N23
        BYTE   W12
        BYTE           N11     Cs3   v065
        BYTE   W12
        BYTE                   Fs3
        BYTE           N23     En4   v080
        BYTE   W12
        BYTE           N11     En3   v065
        BYTE   W12
        BYTE                   An3
        BYTE   W12
        BYTE                   Gn3
        BYTE           N11     En4   v080
        BYTE   W12
        BYTE                   Gn3   v065
        BYTE           N11     Cs5   v080
        BYTE   W12
        BYTE                   Fs3   v065
        BYTE           N11     En4   v080
        BYTE   W12
// 054   ----------------------------------------
        BYTE           N23
        BYTE   W12
        BYTE           N11     Bn2   v065
        BYTE   W12
        BYTE                   En3
        BYTE           N23     Dn4   v080
        BYTE   W12
        BYTE           N11     Dn3   v065
        BYTE   W12
        BYTE                   Fs3
        BYTE   W12
        BYTE                   En3
        BYTE           N11     Dn4   v080
        BYTE   W12
        BYTE                   En3   v065
        BYTE           N11     Bn4   v080
        BYTE   W12
        BYTE                   Dn3   v065
        BYTE           N11     An4   v080
        BYTE   W12
// 055   ----------------------------------------
        BYTE           N92     En3   v065   gtp3
        BYTE           N23     Dn4   v080
        BYTE   W24
        BYTE           N32     Cs4   v080   gtp3
        BYTE   W48
        BYTE           N11     Bn3
        BYTE   W12
        BYTE                   Cs4
        BYTE   W12
// 056   ----------------------------------------
        BYTE           N92     En3   v065   gtp3
        BYTE                   An3
        BYTE           N23     Dn4   v080
        BYTE   W24
        BYTE           N44     Cs4   v080   gtp3
        BYTE   W72
// 057   ----------------------------------------
        BYTE           N92     Bn2   v063   gtp3
        BYTE           TIE     Fs3
        BYTE   W44
        BYTE           N05     Bn3   v054
        BYTE   W02
        BYTE                   Cs4   v057
        BYTE   W03
        BYTE           N17     Dn4   v068
        BYTE   W17
        BYTE           N14     Cs4   v063
        BYTE   W12
        BYTE           N17     Bn3   v067
        BYTE   W18
// 058   ----------------------------------------
        BYTE           N92     An2   v063   gtp3
        BYTE           N44     Cs4   v060   gtp3
        BYTE   W48
        BYTE                   Fs4
        BYTE   W48
// 059   ----------------------------------------
        BYTE           N92     Gs2   v063   gtp3
        BYTE           N28     Bn3   v060   gtp1
        BYTE   W42
        BYTE           N05     Bn3   v062
        BYTE   W03
        BYTE           N06     Cs4   v068
        BYTE   W03
        BYTE           N18     Dn4   v067
        BYTE   W18
        BYTE           N17     Cs4   v068
        BYTE   W17
        BYTE           N11     Dn4   v069
        BYTE   W12
        BYTE           EOT     Fs3
        BYTE   W01
// 060   ----------------------------------------
        BYTE           TIE     En3   v057
        BYTE           TIE     Gn3
        BYTE           N10     An4   v067
        BYTE   W12
        BYTE           TIE     Gn4   v066
        BYTE   W84
// 061   ----------------------------------------
        BYTE   W22
        BYTE           N05     Cs4   v047
        BYTE   W01
        BYTE           EOT     Gn4
        BYTE   W01
        BYTE           N44     Dn4   v059   gtp3
        BYTE   W18
        BYTE           N24     As3   v072   gtp1
        BYTE   W05
        BYTE           EOT     Gn3
        BYTE   W13
        BYTE           N24     Gn3   v061   gtp1
        BYTE   W12
        BYTE           N13     Dn3   v071
        BYTE   W10
        BYTE           EOT     En3
        BYTE   W02
        BYTE           N13     As2   v054
        BYTE   W12
// 062   ----------------------------------------
        BYTE           TIE     Cs3   v051
        BYTE           TIE     Fs3
        BYTE           N92     Fs4   v066   gtp3
        BYTE   W44
        BYTE   W01
        BYTE           N05     Cn4   v044
        BYTE   W03
        BYTE           TIE     Cs4   v059
        BYTE   W44
        BYTE   W03
        BYTE                   An3   v063
        BYTE   W01
// 063   ----------------------------------------
        BYTE   W96
// 064   ----------------------------------------
        BYTE   W44
        BYTE   W02
        BYTE           EOT
        BYTE   W01
        BYTE                   Cs3
        BYTE                   Fs3
        BYTE                   Cs4
        BYTE   W01
        BYTE           N44     Cs3   v022   gtp3
        BYTE                   Fs3
        BYTE           N44     An3   v022   gtp3
        BYTE                   Cs4
        BYTE   W48
// 065   ----------------------------------------
        BYTE           BEND    c_v+0
        BYTE   GoTo
         POIN2  eo2woodlandruins_5_LOOP
        BYTE   FINE

//****************** Track 6 (Midi-Chn.6) ******************//

eo2woodlandruins_6:
        BYTE   KEYSH   eo2woodlandruins_key+0
// 000   ----------------------------------------
        BYTE           VOICE   24
        BYTE           VOL     38
        BYTE           PAN     c_v-32
        BYTE           BEND    c_v+4
        BYTE           N44     Bn3   v090   gtp3
        BYTE                   En2   v100
        BYTE   W01
        BYTE           N22     Gn4
        BYTE   W11
        BYTE           N23     Bn2   v080
        BYTE   W12
        BYTE                   Gn3
        BYTE           N11     Fs4   v100
        BYTE   W12
        BYTE           N23     Bn2   v080
        BYTE           N11     En4   v100
        BYTE   W10
        BYTE           N48     An3   v090   gtp1
        BYTE   W02
        BYTE           N23     Fs4   v100
        BYTE           N44     Dn2   v100   gtp3
        BYTE   W12
        BYTE           N23     An2   v080
        BYTE   W12
        BYTE                   Fs3
        BYTE           N23     Dn4   v100
        BYTE   W12
        BYTE                   An2   v080
        BYTE   W10
        BYTE           N48     Bn3   v090   gtp1
        BYTE   W02
// 001   ----------------------------------------
        BYTE           N23     Gn4   v100
        BYTE           N44     Cn2   v100   gtp3
        BYTE   W12
        BYTE           N23     Bn2   v080
        BYTE   W12
        BYTE                   En3
        BYTE           N11     Fs4   v100
        BYTE   W12
        BYTE           N23     Bn2   v080
        BYTE           N11     En4   v100
        BYTE   W10
        BYTE           N24     An3   v090   gtp1
        BYTE   W02
        BYTE           N23     Dn4   v100
        BYTE           N44     Bn1   v100   gtp3
        BYTE   W12
        BYTE           N23     An2   v080
        BYTE   W12
        BYTE                   Dn3
        BYTE           N23     An3   v100
        BYTE   W12
        BYTE                   An2   v080
        BYTE   W10
        BYTE           N48     Gn3   v090   gtp1
        BYTE   W02
// 002   ----------------------------------------
        BYTE           N23     Cn4   v100
        BYTE           N44     An1   v100   gtp3
        BYTE   W12
        BYTE           N23     Gn2   v080
        BYTE   W12
        BYTE                   Cn3
        BYTE           N11     Bn3   v100
        BYTE   W12
        BYTE           N23     Gn2   v080
        BYTE           N11     An3   v100
        BYTE   W12
        BYTE           N23     Gn3
        BYTE           N44     Bn1   v100   gtp3
        BYTE   W12
        BYTE           N23     Gn2   v080
        BYTE   W12
        BYTE                   Bn2
        BYTE           N23     Dn3   v100
        BYTE   W12
        BYTE                   Gn2   v080
        BYTE   W10
        BYTE           N48     Gn3   v090   gtp1
        BYTE   W02
// 003   ----------------------------------------
        BYTE           N23     Cn4   v100
        BYTE           N44     Cn2   v100   gtp3
        BYTE   W12
        BYTE           N23     Gn2   v080
        BYTE   W12
        BYTE                   En3
        BYTE           N11     Bn3   v100
        BYTE   W12
        BYTE           N23     Gn2   v080
        BYTE           N11     An3   v100
        BYTE   W10
        BYTE           N24     Dn3   v080   gtp1
        BYTE   W02
        BYTE           N23     Gn3   v100
        BYTE           N44     Dn2   v100   gtp3
        BYTE   W12
        BYTE           N23     An2   v080
        BYTE   W12
        BYTE                   Dn3
        BYTE           N23     An3   v100
        BYTE   W12
        BYTE                   An2   v080
        BYTE   W12
// 004   ----------------------------------------
        BYTE           N90     Bn3   v100   gtp1
        BYTE           N92     En1   v100   gtp3
        BYTE   W12
        BYTE           N80     Bn1   v080   gtp3
        BYTE   W12
        BYTE           N72     Fs2   v080   gtp1
        BYTE   W12
        BYTE           N68     Gs2   v080   gtp2
        BYTE   W12
        BYTE           N56     Bn2   v080   gtp2
        BYTE   W12
        BYTE           N36     En3   v080   gtp2
        BYTE   W12
        BYTE           N22     Fs3
        BYTE   W12
        BYTE           N23     Gs3
        BYTE   W10
        BYTE           TIE     Dn1   v074
        BYTE   W01
        BYTE                   Cn3   v070
        BYTE   W01
// 005   ----------------------------------------
        BYTE   W01
        BYTE           N96     An1   v092
        BYTE   W01
        BYTE           N92     Fs3   v096   gtp3
        BYTE                   En2   v074
        BYTE   W02
        BYTE           N92     Dn4   v082   gtp2
        BYTE   W92
// 006   ----------------------------------------
eo2woodlandruins_6_LOOP:
        BYTE   W01
        BYTE           EOT     Cn3
        BYTE   W66
        BYTE   W01
        BYTE                   Dn1
        BYTE   W28
// 007   ----------------------------------------
        BYTE   W96
// 008   ----------------------------------------
        BYTE   W96
// 009   ----------------------------------------
        BYTE   W96
// 010   ----------------------------------------
        BYTE   W96
// 011   ----------------------------------------
        BYTE   W96
// 012   ----------------------------------------
        BYTE   W96
// 013   ----------------------------------------
        BYTE   W96
// 014   ----------------------------------------
        BYTE   W96
// 015   ----------------------------------------
        BYTE   W96
// 016   ----------------------------------------
        BYTE   W96
// 017   ----------------------------------------
        BYTE   W96
// 018   ----------------------------------------
        BYTE   W96
// 019   ----------------------------------------
        BYTE   W96
// 020   ----------------------------------------
        BYTE   W96
// 021   ----------------------------------------
        BYTE   W96
// 022   ----------------------------------------
        BYTE   W96
// 023   ----------------------------------------
        BYTE   W96
// 024   ----------------------------------------
        BYTE   W96
// 025   ----------------------------------------
        BYTE   W96
// 026   ----------------------------------------
        BYTE   W96
// 027   ----------------------------------------
        BYTE   W96
// 028   ----------------------------------------
        BYTE   W96
// 029   ----------------------------------------
        BYTE   W96
// 030   ----------------------------------------
        BYTE   W96
// 031   ----------------------------------------
        BYTE   W96
// 032   ----------------------------------------
        BYTE   W96
// 033   ----------------------------------------
        BYTE   W96
// 034   ----------------------------------------
        BYTE   W96
// 035   ----------------------------------------
        BYTE   W96
// 036   ----------------------------------------
        BYTE   W96
// 037   ----------------------------------------
        BYTE   W96
// 038   ----------------------------------------
        BYTE   W96
// 039   ----------------------------------------
        BYTE   W96
// 040   ----------------------------------------
        BYTE   W96
// 041   ----------------------------------------
        BYTE           N44     Fs2   v105   gtp3
        BYTE                   Dn3
        BYTE           N44     Bn1   v090   gtp3
        BYTE   W48
        BYTE                   Cs3   v105
        BYTE           N44     An1   v090   gtp3
        BYTE                   En2   v105
        BYTE   W48
// 042   ----------------------------------------
        BYTE           N68     Bn2   v105   gtp3
        BYTE                   Gn1   v090
        BYTE           N68     Dn2   v105   gtp3
        BYTE   W96
// 043   ----------------------------------------
        BYTE           N44     An1   v090   gtp3
        BYTE                   En2   v105
        BYTE   W48
        BYTE                   Gn1   v090
        BYTE           N44     En2   v105   gtp3
        BYTE   W48
// 044   ----------------------------------------
        BYTE           N68     Fs1   v090   gtp3
        BYTE   W12
        BYTE           N56     En2   v105   gtp3
        BYTE   W12
        BYTE           N44     An2   v105   gtp3
        BYTE   W72
// 045   ----------------------------------------
        BYTE                   En1   v090
        BYTE   W12
        BYTE           N23     Bn1   v095
        BYTE   W12
        BYTE                   Gn2   v105
        BYTE   W12
        BYTE           N11     Bn1   v095
        BYTE   W12
        BYTE           N44     An1   v090   gtp3
        BYTE   W12
        BYTE           N23     Fs2   v105
        BYTE   W12
        BYTE                   An2
        BYTE   W12
        BYTE           N11     Fs2
        BYTE   W12
// 046   ----------------------------------------
        BYTE           N44     Dn1   v090   gtp3
        BYTE   W12
        BYTE           N23     Bn1   v095
        BYTE   W12
        BYTE                   Fs2   v105
        BYTE   W12
        BYTE           N11     Bn1   v095
        BYTE   W12
        BYTE           N44     Gn1   v090   gtp3
        BYTE   W12
        BYTE           N23     Dn2   v105
        BYTE   W12
        BYTE                   An2
        BYTE   W12
        BYTE           N11     Dn2
        BYTE   W12
// 047   ----------------------------------------
        BYTE           N92     En1   v090   gtp3
        BYTE   W12
        BYTE           N80     Bn1   v095   gtp3
        BYTE   W12
        BYTE           N68     Fs2   v105   gtp3
        BYTE   W72
// 048   ----------------------------------------
        BYTE           N44     An1   v090   gtp3
        BYTE   W12
        BYTE           N23     En2   v105
        BYTE   W12
        BYTE                   Bn2
        BYTE   W12
        BYTE           N11     En2
        BYTE   W12
        BYTE           N44     Fs1   v090   gtp3
        BYTE   W12
        BYTE           N32     En2   v105   gtp3
        BYTE   W12
        BYTE           N23     As2
        BYTE   W24
// 049   ----------------------------------------
eo2woodlandruins_6_49:
        BYTE   W12
        BYTE           N23     Fs2   v105
        BYTE   W12
        BYTE                   Cs3
        BYTE   W12
        BYTE           N11     Fs2
        BYTE   W24
        BYTE           N23
        BYTE   W12
        BYTE                   Bn2
        BYTE   W12
        BYTE           N11     Fs2
        BYTE   W12
        BYTE   PEND
// 050   ----------------------------------------
        BYTE   W12
        BYTE           N66     Fs2   v105   gtp1
        BYTE   W12
        BYTE           N68     Bn2
        BYTE   W72
// 051   ----------------------------------------
        BYTE   W12
        BYTE           N23
        BYTE   W12
        BYTE                   Gn3
        BYTE   W12
        BYTE           N11     Bn2
        BYTE   W24
        BYTE           N23     En2
        BYTE   W12
        BYTE                   Cs3
        BYTE   W12
        BYTE           N11     En2
        BYTE   W12
// 052   ----------------------------------------
        BYTE   W12
        BYTE           N76     An2   v093   gtp1
        BYTE   W12
        BYTE           N60     Dn3   v094   gtp2
        BYTE   W12
        BYTE           N52     En3
        BYTE   W12
        BYTE           N40     Fs3   v091   gtp1
        BYTE   W12
        BYTE           N32     An3   v089   gtp2
        BYTE   W12
        BYTE           N22     Dn4   v088
        BYTE   W12
        BYTE           N11     En4   v085
        BYTE   W12
// 053   ----------------------------------------
        BYTE   W12
        BYTE           N23     Bn2   v105
        BYTE   W12
        BYTE                   En3
        BYTE   W12
        BYTE           N11     Bn2
        BYTE   W24
        BYTE           N23     As2
        BYTE   W12
        BYTE                   En3
        BYTE   W12
        BYTE           N11     As2
        BYTE   W12
// 054   ----------------------------------------
        BYTE   PATT
         POIN2  eo2woodlandruins_6_49
// 055   ----------------------------------------
eo2woodlandruins_6_55:
        BYTE   W12
        BYTE           N68     En2   v105   gtp3
        BYTE   W12
        BYTE           N56     Bn2   v105   gtp3
        BYTE   W72
        BYTE   PEND
// 056   ----------------------------------------
        BYTE   PATT
         POIN2  eo2woodlandruins_6_55
// 057   ----------------------------------------
        BYTE   W12
        BYTE           N76     Fs2   v093   gtp1
        BYTE   W12
        BYTE           N23     Dn3   v094
        BYTE   W12
        BYTE           N52     Cs3
        BYTE   W12
        BYTE           N40     Dn3   v091   gtp1
        BYTE   W12
        BYTE           N80     Fs3   v089   gtp2
        BYTE   W12
        BYTE           N68     Bn3   v088   gtp2
        BYTE   W12
        BYTE           N56     Cs4   v085   gtp3
        BYTE   W12
// 058   ----------------------------------------
        BYTE   W12
        BYTE           N76     Fs2   v093   gtp1
        BYTE   W12
        BYTE           N23     Dn3   v094
        BYTE   W12
        BYTE           N52     Cs3
        BYTE   W12
        BYTE           N40     Dn3   v091   gtp1
        BYTE   W12
        BYTE           N80     Fs3   v089   gtp2
        BYTE   W12
        BYTE           N68     Bn3   v088   gtp2
        BYTE   W12
        BYTE           N56     Dn4   v085   gtp3
        BYTE   W12
// 059   ----------------------------------------
        BYTE   W12
        BYTE           N76     Fs2   v093   gtp1
        BYTE   W12
        BYTE           N23     Dn3   v094
        BYTE   W12
        BYTE           N52     Cs3
        BYTE   W12
        BYTE           N40     Dn3   v091   gtp1
        BYTE   W12
        BYTE           N30     Bn3   v089   gtp1
        BYTE   W12
        BYTE           N22     Dn4   v088
        BYTE   W12
        BYTE           N11     Fs4   v085
        BYTE   W10
        BYTE           TIE     As3   v100
        BYTE   W02
// 060   ----------------------------------------
        BYTE                   Gn2
        BYTE           TIE     Dn4
        BYTE   W01
        BYTE                   En3
        BYTE           N10     An4
        BYTE   W11
        BYTE           TIE     Gn4
        BYTE   W84
// 061   ----------------------------------------
        BYTE   W68
        BYTE   W03
        BYTE           EOT
        BYTE   W15
        BYTE                   As3
        BYTE   W02
        BYTE                   Dn4
        BYTE   W04
        BYTE                   Gn2
        BYTE   W01
        BYTE           TIE     Gn3
        BYTE   W01
        BYTE           EOT     En3
        BYTE           TIE     Bn3
        BYTE           TIE     En2
        BYTE   W02
// 062   ----------------------------------------
        BYTE                   Cs3
        BYTE   W01
        BYTE           N10     Fs4
        BYTE   W11
        BYTE           TIE     Cs4
        BYTE   W84
// 063   ----------------------------------------
        BYTE   W68
        BYTE   W03
        BYTE           EOT
        BYTE   W14
        BYTE                   Gn3
        BYTE   W01
        BYTE                   Bn3
        BYTE   W05
        BYTE                   En2
        BYTE   W01
        BYTE                   Cs3
        BYTE   W04
// 064   ----------------------------------------
        BYTE   W96
// 065   ----------------------------------------
        BYTE   GoTo
         POIN2  eo2woodlandruins_6_LOOP
        BYTE   FINE

//****************** Track 7 (Midi-Chn.7) ******************//

eo2woodlandruins_7:
        BYTE   KEYSH   eo2woodlandruins_key+0
// 000   ----------------------------------------
        BYTE           VOICE   2
        BYTE           VOL     54
        BYTE   W96
// 001   ----------------------------------------
        BYTE   W96
// 002   ----------------------------------------
        BYTE   W96
// 003   ----------------------------------------
        BYTE   W96
// 004   ----------------------------------------
        BYTE   W96
// 005   ----------------------------------------
        BYTE   W96
// 006   ----------------------------------------
eo2woodlandruins_7_LOOP:
        BYTE           N32     Gn0   v127   gtp3
        BYTE   W36
        BYTE           N23     Dn1
        BYTE   W24
        BYTE                   Gn0
        BYTE   W24
        BYTE           N11
        BYTE   W12
// 007   ----------------------------------------
eo2woodlandruins_7_7:
        BYTE           N32     Cn1   v127   gtp3
        BYTE   W36
        BYTE           N23     Gn1
        BYTE   W24
        BYTE                   Cn1
        BYTE   W24
        BYTE           N11     Bn0
        BYTE   W12
        BYTE   PEND
// 008   ----------------------------------------
eo2woodlandruins_7_8:
        BYTE           N32     An0   v127
        BYTE   W36
        BYTE           N11
        BYTE   W12
        BYTE           N32     Bn0
        BYTE   W36
        BYTE           N11
        BYTE   W12
        BYTE   PEND
// 009   ----------------------------------------
eo2woodlandruins_7_9:
        BYTE           N32     En1   v127   gtp3
        BYTE   W36
        BYTE           N23
        BYTE   W24
        BYTE           N11     Dn2
        BYTE   W12
        BYTE                   Bn1
        BYTE   W12
        BYTE                   En1
        BYTE   W12
        BYTE   PEND
// 010   ----------------------------------------
eo2woodlandruins_7_10:
        BYTE           N32     Gn0   v127   gtp3
        BYTE   W36
        BYTE           N23     Dn1
        BYTE   W24
        BYTE                   Gn0
        BYTE   W24
        BYTE           N11
        BYTE   W12
        BYTE   PEND
// 011   ----------------------------------------
        BYTE   PATT
         POIN2  eo2woodlandruins_7_7
// 012   ----------------------------------------
eo2woodlandruins_7_12:
        BYTE           N32     An0   v127   gtp3
        BYTE   W36
        BYTE           N11
        BYTE   W12
        BYTE           N32     Bn0   v127   gtp3
        BYTE   W36
        BYTE           N11
        BYTE   W12
        BYTE   PEND
// 013   ----------------------------------------
eo2woodlandruins_7_13:
        BYTE           N32     Cn1   v127   gtp3
        BYTE   W36
        BYTE           N23
        BYTE   W24
        BYTE           N11     Gn1
        BYTE   W12
        BYTE                   Cn1
        BYTE   W12
        BYTE                   Bn0
        BYTE   W12
        BYTE   PEND
// 014   ----------------------------------------
eo2woodlandruins_7_14:
        BYTE           N32     An0   v127
        BYTE   W36
        BYTE           N20     En1
        BYTE   W24
        BYTE           N11     An1
        BYTE   W12
        BYTE                   En1
        BYTE   W12
        BYTE                   An0
        BYTE   W12
        BYTE   PEND
// 015   ----------------------------------------
eo2woodlandruins_7_15:
        BYTE           N32     En0   v127
        BYTE   W36
        BYTE           N20     Bn0
        BYTE   W24
        BYTE           N11     En1
        BYTE   W12
        BYTE                   Bn0
        BYTE   W12
        BYTE                   En0
        BYTE   W12
        BYTE   PEND
// 016   ----------------------------------------
eo2woodlandruins_7_16:
        BYTE           N32     An0   v127
        BYTE   W36
        BYTE           N20     En1
        BYTE   W24
        BYTE           N11     Dn1
        BYTE   W12
        BYTE                   An1
        BYTE   W12
        BYTE                   Dn1
        BYTE   W12
        BYTE   PEND
// 017   ----------------------------------------
eo2woodlandruins_7_17:
        BYTE           N32     Gn0   v127
        BYTE   W36
        BYTE           N20     Dn1
        BYTE   W24
        BYTE           N11     Gn1
        BYTE   W12
        BYTE                   Dn1
        BYTE   W12
        BYTE                   Gn0
        BYTE   W12
        BYTE   PEND
// 018   ----------------------------------------
        BYTE   PATT
         POIN2  eo2woodlandruins_7_14
// 019   ----------------------------------------
eo2woodlandruins_7_19:
        BYTE           N11     Bn0   v127
        BYTE   W12
        BYTE                   Fs1
        BYTE   W12
        BYTE                   Cs2
        BYTE   W12
        BYTE                   Bn1
        BYTE   W12
        BYTE                   As0
        BYTE   W12
        BYTE                   Fs1
        BYTE   W12
        BYTE                   As1
        BYTE   W12
        BYTE                   As0
        BYTE   W12
        BYTE   PEND
// 020   ----------------------------------------
eo2woodlandruins_7_20:
        BYTE           N11     An0   v127
        BYTE   W12
        BYTE                   En1
        BYTE   W12
        BYTE           N23     An1
        BYTE   W36
        BYTE           N11     Dn1
        BYTE   W12
        BYTE                   An1
        BYTE   W12
        BYTE                   Dn1
        BYTE   W12
        BYTE   PEND
// 021   ----------------------------------------
eo2woodlandruins_7_21:
        BYTE           N32     Gn0   v127
        BYTE   W36
        BYTE           N23     Dn1
        BYTE   W24
        BYTE           N20
        BYTE   W24
        BYTE           N11     Gn0
        BYTE   W12
        BYTE   PEND
// 022   ----------------------------------------
        BYTE   PATT
         POIN2  eo2woodlandruins_7_10
// 023   ----------------------------------------
        BYTE   PATT
         POIN2  eo2woodlandruins_7_7
// 024   ----------------------------------------
        BYTE   PATT
         POIN2  eo2woodlandruins_7_8
// 025   ----------------------------------------
        BYTE   PATT
         POIN2  eo2woodlandruins_7_9
// 026   ----------------------------------------
        BYTE   PATT
         POIN2  eo2woodlandruins_7_10
// 027   ----------------------------------------
        BYTE   PATT
         POIN2  eo2woodlandruins_7_7
// 028   ----------------------------------------
        BYTE   PATT
         POIN2  eo2woodlandruins_7_12
// 029   ----------------------------------------
        BYTE   PATT
         POIN2  eo2woodlandruins_7_13
// 030   ----------------------------------------
        BYTE   PATT
         POIN2  eo2woodlandruins_7_14
// 031   ----------------------------------------
        BYTE   PATT
         POIN2  eo2woodlandruins_7_15
// 032   ----------------------------------------
        BYTE   PATT
         POIN2  eo2woodlandruins_7_16
// 033   ----------------------------------------
        BYTE   PATT
         POIN2  eo2woodlandruins_7_17
// 034   ----------------------------------------
        BYTE   PATT
         POIN2  eo2woodlandruins_7_14
// 035   ----------------------------------------
        BYTE   PATT
         POIN2  eo2woodlandruins_7_19
// 036   ----------------------------------------
        BYTE   PATT
         POIN2  eo2woodlandruins_7_20
// 037   ----------------------------------------
        BYTE   PATT
         POIN2  eo2woodlandruins_7_21
// 038   ----------------------------------------
        BYTE           N32     Fs0   v127
        BYTE   W36
        BYTE           N23     Cs1
        BYTE   W24
        BYTE           N20
        BYTE   W24
        BYTE           N11     Fs0
        BYTE   W12
// 039   ----------------------------------------
        BYTE           N92     Fs0   v127   gtp3
        BYTE   W96
// 040   ----------------------------------------
        BYTE   W96
// 041   ----------------------------------------
        BYTE   W96
// 042   ----------------------------------------
        BYTE   W96
// 043   ----------------------------------------
        BYTE   W96
// 044   ----------------------------------------
        BYTE   W96
// 045   ----------------------------------------
        BYTE   W96
// 046   ----------------------------------------
        BYTE   W96
// 047   ----------------------------------------
        BYTE   W96
// 048   ----------------------------------------
        BYTE   W96
// 049   ----------------------------------------
eo2woodlandruins_7_49:
        BYTE           N32     Bn0   v127   gtp3
        BYTE   W36
        BYTE           N11
        BYTE   W12
        BYTE           N32     An0   v127   gtp3
        BYTE   W36
        BYTE           N11
        BYTE   W12
        BYTE   PEND
// 050   ----------------------------------------
        BYTE           N23     Gn0
        BYTE   W24
        BYTE           N28     Dn1   v127   gtp1
        BYTE   W48
        BYTE           N23     Gn0
        BYTE   W24
// 051   ----------------------------------------
        BYTE           N32     En1   v127   gtp3
        BYTE   W36
        BYTE           N11
        BYTE   W12
        BYTE           N32     An0   v127   gtp3
        BYTE   W36
        BYTE           N11
        BYTE   W12
// 052   ----------------------------------------
        BYTE           N80     Dn1   v127   gtp3
        BYTE   W96
// 053   ----------------------------------------
        BYTE           N32     Cs1   v127   gtp3
        BYTE   W36
        BYTE           N11
        BYTE   W12
        BYTE           N32     Cn1   v127   gtp3
        BYTE   W36
        BYTE           N11
        BYTE   W12
// 054   ----------------------------------------
        BYTE   PATT
         POIN2  eo2woodlandruins_7_49
// 055   ----------------------------------------
        BYTE           N80     Gn0   v127   gtp3
        BYTE   W96
// 056   ----------------------------------------
        BYTE                   An0
        BYTE   W96
// 057   ----------------------------------------
        BYTE           N32     Bn0   v127   gtp3
        BYTE   W36
        BYTE           N23     Fs1
        BYTE   W24
        BYTE                   Bn1
        BYTE   W24
        BYTE           N11     Bn0
        BYTE   W12
// 058   ----------------------------------------
        BYTE           N32     An0   v127   gtp3
        BYTE   W36
        BYTE           N23     Fs1
        BYTE   W24
        BYTE                   An1
        BYTE   W24
        BYTE           N11     An0
        BYTE   W12
// 059   ----------------------------------------
        BYTE           N32     Gs0   v127   gtp3
        BYTE   W36
        BYTE           N23     Gs1
        BYTE   W24
        BYTE                   Gs1
        BYTE   W24
        BYTE           N11     Gs0
        BYTE   W12
// 060   ----------------------------------------
        BYTE           TIE     Cn1
        BYTE   W96
// 061   ----------------------------------------
        BYTE   W54
        BYTE           EOT
        BYTE   W42
// 062   ----------------------------------------
        BYTE           TIE     An0
        BYTE   W96
// 063   ----------------------------------------
        BYTE   W54
        BYTE           EOT
        BYTE   W42
// 064   ----------------------------------------
        BYTE   W96
// 065   ----------------------------------------
        BYTE   GoTo
         POIN2  eo2woodlandruins_7_LOOP
        BYTE   FINE

//****************** Track 8 (Midi-Chn.8) ******************//

eo2woodlandruins_8:
        BYTE   KEYSH   eo2woodlandruins_key+0
// 000   ----------------------------------------
        BYTE           VOICE   11
        BYTE           PAN     c_v-38
        BYTE           VOL     42
        BYTE   W96
// 001   ----------------------------------------
        BYTE   W96
// 002   ----------------------------------------
        BYTE   W96
// 003   ----------------------------------------
        BYTE   W96
// 004   ----------------------------------------
        BYTE   W96
// 005   ----------------------------------------
        BYTE   W96
// 006   ----------------------------------------
eo2woodlandruins_8_LOOP:
        BYTE   W96
// 007   ----------------------------------------
        BYTE   W96
// 008   ----------------------------------------
        BYTE   W96
// 009   ----------------------------------------
        BYTE   W96
// 010   ----------------------------------------
        BYTE   W96
// 011   ----------------------------------------
        BYTE   W96
// 012   ----------------------------------------
        BYTE   W96
// 013   ----------------------------------------
        BYTE   W96
// 014   ----------------------------------------
        BYTE   W96
// 015   ----------------------------------------
        BYTE   W96
// 016   ----------------------------------------
        BYTE   W96
// 017   ----------------------------------------
        BYTE   W96
// 018   ----------------------------------------
        BYTE   W96
// 019   ----------------------------------------
        BYTE   W96
// 020   ----------------------------------------
        BYTE   W96
// 021   ----------------------------------------
        BYTE   W96
// 022   ----------------------------------------
        BYTE   W96
// 023   ----------------------------------------
        BYTE   W96
// 024   ----------------------------------------
        BYTE   W96
// 025   ----------------------------------------
        BYTE   W96
// 026   ----------------------------------------
        BYTE   W96
// 027   ----------------------------------------
        BYTE   W96
// 028   ----------------------------------------
        BYTE   W96
// 029   ----------------------------------------
        BYTE   W96
// 030   ----------------------------------------
        BYTE   W96
// 031   ----------------------------------------
        BYTE   W96
// 032   ----------------------------------------
        BYTE   W96
// 033   ----------------------------------------
        BYTE   W96
// 034   ----------------------------------------
        BYTE   W96
// 035   ----------------------------------------
        BYTE   W96
// 036   ----------------------------------------
        BYTE   W96
// 037   ----------------------------------------
        BYTE   W96
// 038   ----------------------------------------
        BYTE   W96
// 039   ----------------------------------------
        BYTE   W96
// 040   ----------------------------------------
        BYTE           N92     Fs1   v127   gtp3
        BYTE   W96
// 041   ----------------------------------------
        BYTE   W96
// 042   ----------------------------------------
        BYTE   W96
// 043   ----------------------------------------
        BYTE   W96
// 044   ----------------------------------------
        BYTE   W96
// 045   ----------------------------------------
        BYTE   W96
// 046   ----------------------------------------
        BYTE   W96
// 047   ----------------------------------------
        BYTE   W96
// 048   ----------------------------------------
        BYTE   W48
        BYTE           N44     Fs1   v127   gtp3
        BYTE   W48
// 049   ----------------------------------------
        BYTE   W96
// 050   ----------------------------------------
        BYTE   W96
// 051   ----------------------------------------
        BYTE   W96
// 052   ----------------------------------------
        BYTE           TIE     Dn2
        BYTE   W96
// 053   ----------------------------------------
        BYTE   W11
        BYTE           EOT
        BYTE   W84
        BYTE   W01
// 054   ----------------------------------------
        BYTE   W96
// 055   ----------------------------------------
        BYTE   W96
// 056   ----------------------------------------
        BYTE   W96
// 057   ----------------------------------------
        BYTE   W96
// 058   ----------------------------------------
        BYTE   W96
// 059   ----------------------------------------
        BYTE   W96
// 060   ----------------------------------------
        BYTE   W96
// 061   ----------------------------------------
        BYTE   W96
// 062   ----------------------------------------
        BYTE   W96
// 063   ----------------------------------------
        BYTE   W96
// 064   ----------------------------------------
        BYTE   W96
// 065   ----------------------------------------
        BYTE   GoTo
         POIN2  eo2woodlandruins_8_LOOP
        BYTE   FINE

//***************** Track 9 (Midi-Chn.10) ******************//

eo2woodlandruins_9:
        BYTE   KEYSH   eo2woodlandruins_key+0
// 000   ----------------------------------------
        BYTE           VOICE   124
        BYTE           VOL     49
        BYTE   W96
// 001   ----------------------------------------
        BYTE   W96
// 002   ----------------------------------------
        BYTE   W96
// 003   ----------------------------------------
        BYTE   W96
// 004   ----------------------------------------
        BYTE   W96
// 005   ----------------------------------------
        BYTE   W60
        BYTE           N05     Fs1   v037
        BYTE   W12
        BYTE           N23     As1   v057
        BYTE   W24
// 006   ----------------------------------------
eo2woodlandruins_9_LOOP:
        BYTE           N11     Cn1   v127
        BYTE           N92     Cs2   v110   gtp3
        BYTE           N05     Fs1   v055
        BYTE   W12
        BYTE                   Fs1   v037
        BYTE   W12
        BYTE                   Fs1
        BYTE   W12
        BYTE           N11     Cn1   v127
        BYTE           N05     Fs1   v047
        BYTE   W12
        BYTE           N11     Cn1   v127
        BYTE           N11     Dn1   v102
        BYTE           N05     Fs1   v037
        BYTE   W12
        BYTE                   Fs1
        BYTE   W12
        BYTE                   Fs1   v050
        BYTE   W12
        BYTE           N11     Cn1   v127
        BYTE           N05     Fs1   v037
        BYTE   W12
// 007   ----------------------------------------
eo2woodlandruins_9_7:
        BYTE           N11     Cn1   v127
        BYTE           N05     Fs1   v055
        BYTE   W12
        BYTE                   Fs1   v037
        BYTE   W12
        BYTE                   Fs1
        BYTE   W12
        BYTE           N11     Cn1   v127
        BYTE           N05     Fs1   v047
        BYTE   W12
        BYTE           N11     Cn1   v127
        BYTE           N11     Dn1   v102
        BYTE           N05     Fs1   v037
        BYTE   W12
        BYTE                   Fs1
        BYTE   W12
        BYTE                   Fs1   v050
        BYTE   W12
        BYTE           N11     Cn1   v127
        BYTE           N05     Fs1   v037
        BYTE   W12
        BYTE   PEND
// 008   ----------------------------------------
        BYTE   PATT
         POIN2  eo2woodlandruins_9_7
// 009   ----------------------------------------
        BYTE   PATT
         POIN2  eo2woodlandruins_9_7
// 010   ----------------------------------------
        BYTE   PATT
         POIN2  eo2woodlandruins_9_7
// 011   ----------------------------------------
        BYTE   PATT
         POIN2  eo2woodlandruins_9_7
// 012   ----------------------------------------
        BYTE   PATT
         POIN2  eo2woodlandruins_9_7
// 013   ----------------------------------------
        BYTE   PATT
         POIN2  eo2woodlandruins_9_7
// 014   ----------------------------------------
eo2woodlandruins_9_14:
        BYTE           N11     Cn1   v127
        BYTE           N92     Cs2   v110   gtp3
        BYTE           N05     Fs1   v055
        BYTE   W12
        BYTE                   Fs1   v037
        BYTE   W12
        BYTE                   Fs1
        BYTE   W12
        BYTE           N11     Cn1   v127
        BYTE           N05     Fs1   v047
        BYTE   W12
        BYTE           N11     Cn1   v127
        BYTE           N11     Dn1   v102
        BYTE           N05     Fs1   v037
        BYTE   W12
        BYTE                   Fs1
        BYTE   W12
        BYTE                   Fs1   v050
        BYTE   W12
        BYTE           N11     Cn1   v127
        BYTE           N05     Fs1   v037
        BYTE   W12
        BYTE   PEND
// 015   ----------------------------------------
        BYTE   PATT
         POIN2  eo2woodlandruins_9_7
// 016   ----------------------------------------
        BYTE   PATT
         POIN2  eo2woodlandruins_9_7
// 017   ----------------------------------------
        BYTE   PATT
         POIN2  eo2woodlandruins_9_7
// 018   ----------------------------------------
        BYTE   PATT
         POIN2  eo2woodlandruins_9_7
// 019   ----------------------------------------
        BYTE   PATT
         POIN2  eo2woodlandruins_9_7
// 020   ----------------------------------------
        BYTE   PATT
         POIN2  eo2woodlandruins_9_7
// 021   ----------------------------------------
        BYTE   PATT
         POIN2  eo2woodlandruins_9_7
// 022   ----------------------------------------
        BYTE   PATT
         POIN2  eo2woodlandruins_9_14
// 023   ----------------------------------------
        BYTE   PATT
         POIN2  eo2woodlandruins_9_7
// 024   ----------------------------------------
        BYTE   PATT
         POIN2  eo2woodlandruins_9_7
// 025   ----------------------------------------
        BYTE   PATT
         POIN2  eo2woodlandruins_9_7
// 026   ----------------------------------------
        BYTE   PATT
         POIN2  eo2woodlandruins_9_7
// 027   ----------------------------------------
        BYTE   PATT
         POIN2  eo2woodlandruins_9_7
// 028   ----------------------------------------
        BYTE   PATT
         POIN2  eo2woodlandruins_9_7
// 029   ----------------------------------------
        BYTE   PATT
         POIN2  eo2woodlandruins_9_7
// 030   ----------------------------------------
        BYTE   PATT
         POIN2  eo2woodlandruins_9_14
// 031   ----------------------------------------
        BYTE   PATT
         POIN2  eo2woodlandruins_9_7
// 032   ----------------------------------------
        BYTE   PATT
         POIN2  eo2woodlandruins_9_7
// 033   ----------------------------------------
        BYTE   PATT
         POIN2  eo2woodlandruins_9_7
// 034   ----------------------------------------
        BYTE   PATT
         POIN2  eo2woodlandruins_9_7
// 035   ----------------------------------------
        BYTE   PATT
         POIN2  eo2woodlandruins_9_7
// 036   ----------------------------------------
        BYTE   PATT
         POIN2  eo2woodlandruins_9_7
// 037   ----------------------------------------
        BYTE   PATT
         POIN2  eo2woodlandruins_9_7
// 038   ----------------------------------------
        BYTE   PATT
         POIN2  eo2woodlandruins_9_7
// 039   ----------------------------------------
        BYTE           N11     Cn1   v127
        BYTE           N05     Fs1   v055
        BYTE   W12
        BYTE                   Fs1   v037
        BYTE   W12
        BYTE                   Fs1
        BYTE   W12
        BYTE           N11     Cn1   v127
        BYTE           N05     Fs1   v047
        BYTE   W12
        BYTE           N11     Cn1   v127
        BYTE           N11     Dn1   v102
        BYTE           N05     Fs1   v037
        BYTE   W12
        BYTE                   Fs1
        BYTE   W12
        BYTE                   Fs1   v050
        BYTE   W24
// 040   ----------------------------------------
        BYTE           N96     Fn2   v080
        BYTE   W96
// 041   ----------------------------------------
        BYTE           N92     An2   v073   gtp3
        BYTE   W96
// 042   ----------------------------------------
        BYTE   W96
// 043   ----------------------------------------
        BYTE   W96
// 044   ----------------------------------------
        BYTE   W96
// 045   ----------------------------------------
        BYTE   W96
// 046   ----------------------------------------
        BYTE   W96
// 047   ----------------------------------------
        BYTE   W96
// 048   ----------------------------------------
        BYTE   W96
// 049   ----------------------------------------
        BYTE   PATT
         POIN2  eo2woodlandruins_9_14
// 050   ----------------------------------------
        BYTE           N11     Cn1   v127
        BYTE           N05     Fs1   v055
        BYTE   W12
        BYTE                   Fs1   v037
        BYTE   W12
        BYTE                   Fs1
        BYTE   W12
        BYTE           N11     Cn1   v127
        BYTE           N05     Fs1   v047
        BYTE   W12
        BYTE                   Fs1   v037
        BYTE   W12
        BYTE                   Fs1
        BYTE   W12
        BYTE           N23     As1   v063
        BYTE   W24
// 051   ----------------------------------------
        BYTE   PATT
         POIN2  eo2woodlandruins_9_7
// 052   ----------------------------------------
        BYTE           N11     Cn1   v127
        BYTE           N05     Fs1   v055
        BYTE   W12
        BYTE                   Fs1   v037
        BYTE   W12
        BYTE                   Fs1
        BYTE   W12
        BYTE                   Fs1   v047
        BYTE   W12
        BYTE                   Fs1   v037
        BYTE   W12
        BYTE                   Fs1
        BYTE   W12
        BYTE                   Fs1   v050
        BYTE   W12
        BYTE                   Fs1   v037
        BYTE   W12
// 053   ----------------------------------------
        BYTE           N11     Cn1   v127
        BYTE           N92     Cs2   v110   gtp3
        BYTE           N05     Fs1   v055
        BYTE           N92     Fs3   v114   gtp3
        BYTE   W12
        BYTE           N05     Fs1   v037
        BYTE   W12
        BYTE                   Fs1
        BYTE   W12
        BYTE           N11     Cn1   v127
        BYTE           N05     Fs1   v047
        BYTE   W12
        BYTE           N11     Cn1   v127
        BYTE           N11     Dn1   v102
        BYTE           N05     Fs1   v037
        BYTE   W12
        BYTE                   Fs1
        BYTE   W12
        BYTE                   Fs1   v050
        BYTE   W12
        BYTE           N11     Cn1   v127
        BYTE           N05     Fs1   v037
        BYTE   W12
// 054   ----------------------------------------
        BYTE   PATT
         POIN2  eo2woodlandruins_9_7
// 055   ----------------------------------------
        BYTE           N11     Cn1   v127
        BYTE           N92     Ds2   v055   gtp3
        BYTE           N05     Fs1
        BYTE   W24
        BYTE                   Fs1   v037
        BYTE   W24
        BYTE                   Fs1
        BYTE   W24
        BYTE           N23     As1   v057
        BYTE   W24
// 056   ----------------------------------------
        BYTE           N11     Cn1   v127
        BYTE           N92     Ds2   v055   gtp3
        BYTE           N05     Fs1
        BYTE   W24
        BYTE                   Fs1   v037
        BYTE   W24
        BYTE                   Fs1
        BYTE   W12
        BYTE                   Fs1
        BYTE   W12
        BYTE           N23     As1   v057
        BYTE   W24
// 057   ----------------------------------------
        BYTE   PATT
         POIN2  eo2woodlandruins_9_14
// 058   ----------------------------------------
        BYTE   PATT
         POIN2  eo2woodlandruins_9_7
// 059   ----------------------------------------
        BYTE   PATT
         POIN2  eo2woodlandruins_9_7
// 060   ----------------------------------------
        BYTE           N11     Cn1   v127
        BYTE           N92     Cs2   v125   gtp3
        BYTE           N11     Ds2   v050
        BYTE   W12
        BYTE                   Ds2   v036
        BYTE   W12
        BYTE                   Ds2
        BYTE   W12
        BYTE                   Cn1   v127
        BYTE           N11     Ds2   v040
        BYTE   W12
        BYTE                   Cn1   v127
        BYTE           N11     Ds2   v050
        BYTE   W12
        BYTE                   Ds2   v034
        BYTE   W12
        BYTE                   Ds2   v035
        BYTE   W12
        BYTE                   Cn1   v127
        BYTE           N11     Ds2   v050
        BYTE   W12
// 061   ----------------------------------------
        BYTE                   Cn1   v127
        BYTE           N11     Ds2   v050
        BYTE   W12
        BYTE                   Ds2   v034
        BYTE   W12
        BYTE           N13     Dn2   v127
        BYTE           N11     Ds2   v035
        BYTE           N13     Dn1   v118
        BYTE   W12
        BYTE           N11     Cn1   v127
        BYTE   W06
        BYTE                   An1
        BYTE   W06
        BYTE                   Cn1
        BYTE   W12
        BYTE                   Fn1
        BYTE   W18
        BYTE           N17     An1   v119
        BYTE   W05
        BYTE           N16     Fn1   v127
        BYTE   W01
        BYTE           N11     Dn1
        BYTE   W12
// 062   ----------------------------------------
        BYTE                   Cn1
        BYTE           N48     Cs2   v125
        BYTE           N12     Ds2   v050
        BYTE   W12
        BYTE           N11     Ds2   v036
        BYTE   W12
        BYTE                   Ds2
        BYTE   W12
        BYTE                   Cn1   v127
        BYTE           N11     Ds2   v040
        BYTE   W12
        BYTE                   Cn1   v127
        BYTE           N11     Ds2   v050
        BYTE   W12
        BYTE                   Ds2   v034
        BYTE   W12
        BYTE                   Ds2   v035
        BYTE   W12
        BYTE                   Cn1   v127
        BYTE           N11     Ds2   v050
        BYTE   W12
// 063   ----------------------------------------
        BYTE                   Cn1   v127
        BYTE           TIE     Cs2   v125
        BYTE           N11     Ds2   v050
        BYTE   W12
        BYTE                   Ds2   v034
        BYTE   W12
        BYTE                   Ds2   v035
        BYTE   W12
        BYTE                   Ds2   v040
        BYTE   W12
        BYTE           TIE     Ds2   v050
        BYTE   W48
// 064   ----------------------------------------
        BYTE   W60
        BYTE           N05     Fs1   v037
        BYTE   W12
        BYTE           N23     As1   v057
        BYTE   W23
        BYTE           EOT     Cs2
        BYTE                   Ds2
        BYTE   W01
// 065   ----------------------------------------
        BYTE   GoTo
         POIN2  eo2woodlandruins_9_LOOP
        BYTE   FINE

//***************** Track 10 (Midi-Chn.11) *****************//

eo2woodlandruins_10:
        BYTE   KEYSH   eo2woodlandruins_key+0
// 000   ----------------------------------------
        BYTE           VOICE   13
        BYTE           VOL     41
        BYTE           PAN     c_v-26
        BYTE   W96
// 001   ----------------------------------------
        BYTE   W96
// 002   ----------------------------------------
        BYTE   W96
// 003   ----------------------------------------
        BYTE   W96
// 004   ----------------------------------------
        BYTE   W96
// 005   ----------------------------------------
        BYTE           VOL     3
        BYTE           VOICE   125
        BYTE           N96     An1   v080
        BYTE   W03
        BYTE           VOL     5
        BYTE   W03
        BYTE                   8
        BYTE   W03
        BYTE                   10
        BYTE   W03
        BYTE                   13
        BYTE   W03
        BYTE                   15
        BYTE   W03
        BYTE                   18
        BYTE   W03
        BYTE                   21
        BYTE   W03
        BYTE                   23
        BYTE   W03
        BYTE                   26
        BYTE   W03
        BYTE                   28
        BYTE   W03
        BYTE                   31
        BYTE   W03
        BYTE                   34
        BYTE   W03
        BYTE                   36
        BYTE   W03
        BYTE                   39
        BYTE   W03
        BYTE                   41
        BYTE   W48
        BYTE   W03
// 006   ----------------------------------------
eo2woodlandruins_10_LOOP:
        BYTE   W12
        BYTE           VOICE   13
        BYTE           N23     Fs3   v070
        BYTE   W12
        BYTE                   Bn3
        BYTE   W12
        BYTE           N32     Fs3   v070   gtp3
        BYTE   W24
        BYTE           N23     Bn3   v065
        BYTE   W12
        BYTE                   Fs3
        BYTE   W12
        BYTE                   Bn2
        BYTE   W12
// 007   ----------------------------------------
eo2woodlandruins_10_7:
        BYTE   W12
        BYTE           N23     Bn2   v070
        BYTE   W12
        BYTE                   En3
        BYTE   W12
        BYTE           N32     Bn2   v070   gtp3
        BYTE   W24
        BYTE           N23     En3   v065
        BYTE   W12
        BYTE           N11     Bn2
        BYTE   W12
        BYTE           N23     En3
        BYTE   W12
        BYTE   PEND
// 008   ----------------------------------------
eo2woodlandruins_10_8:
        BYTE   W12
        BYTE           N23     Gn3   v070
        BYTE   W12
        BYTE                   Cn4
        BYTE   W12
        BYTE                   Gn3
        BYTE   W24
        BYTE                   Fs3
        BYTE   W12
        BYTE                   Bn3
        BYTE   W12
        BYTE                   Fs3
        BYTE   W12
        BYTE   PEND
// 009   ----------------------------------------
eo2woodlandruins_10_9:
        BYTE   W12
        BYTE           N23     Dn3   v070
        BYTE   W12
        BYTE                   Gn3
        BYTE   W12
        BYTE                   Dn3
        BYTE   W24
        BYTE           N11     Dn3   v065
        BYTE   W12
        BYTE           N23     Gn3
        BYTE   W12
        BYTE                   Dn3
        BYTE   W12
        BYTE   PEND
// 010   ----------------------------------------
eo2woodlandruins_10_10:
        BYTE   W12
        BYTE           N23     Fs3   v070
        BYTE   W12
        BYTE                   Bn3
        BYTE   W12
        BYTE           N32     Fs3   v070   gtp3
        BYTE   W24
        BYTE           N23     Bn3   v065
        BYTE   W12
        BYTE           N11     Fs3
        BYTE   W12
        BYTE           N23     Bn2
        BYTE   W12
        BYTE   PEND
// 011   ----------------------------------------
eo2woodlandruins_10_11:
        BYTE   W12
        BYTE           N23     Bn2   v070
        BYTE   W12
        BYTE                   En3
        BYTE   W12
        BYTE           N32     Bn2   v070   gtp3
        BYTE   W24
        BYTE           N23     En3   v065
        BYTE   W12
        BYTE           N11     Bn2
        BYTE   W12
        BYTE                   En3
        BYTE   W12
        BYTE   PEND
// 012   ----------------------------------------
eo2woodlandruins_10_12:
        BYTE   W12
        BYTE           N23     Gn3   v070
        BYTE   W12
        BYTE                   Cn4
        BYTE   W12
        BYTE                   Gn3
        BYTE   W24
        BYTE                   An3
        BYTE   W12
        BYTE                   Dn4
        BYTE   W12
        BYTE           N11     An3
        BYTE   W12
        BYTE   PEND
// 013   ----------------------------------------
eo2woodlandruins_10_13:
        BYTE   W12
        BYTE           N32     Bn3   v066   gtp3
        BYTE   W12
        BYTE                   Cn4
        BYTE   W12
        BYTE           N44     En4   v066   gtp3
        BYTE   W24
        BYTE           N32     Bn4   v066   gtp3
        BYTE   W12
        BYTE                   Cn5
        BYTE   W12
        BYTE                   En5
        BYTE   W12
        BYTE   PEND
// 014   ----------------------------------------
eo2woodlandruins_10_14:
        BYTE   W12
        BYTE           N23     En3   v070
        BYTE   W12
        BYTE                   Cn4
        BYTE   W12
        BYTE                   En3
        BYTE   W24
        BYTE                   An3   v065
        BYTE   W12
        BYTE                   En4
        BYTE   W12
        BYTE           N11     Cn4
        BYTE   W12
        BYTE   PEND
// 015   ----------------------------------------
eo2woodlandruins_10_15:
        BYTE   W12
        BYTE           N23     Bn2   v070
        BYTE   W12
        BYTE                   Fs3
        BYTE   W12
        BYTE                   Bn2
        BYTE   W24
        BYTE                   En3
        BYTE   W12
        BYTE                   Bn3
        BYTE   W12
        BYTE           N11     Gn3
        BYTE   W12
        BYTE   PEND
// 016   ----------------------------------------
eo2woodlandruins_10_16:
        BYTE   W12
        BYTE           N23     En3   v070
        BYTE   W12
        BYTE                   Cn4
        BYTE   W12
        BYTE                   En3
        BYTE   W24
        BYTE                   An3   v065
        BYTE   W12
        BYTE                   En4
        BYTE   W12
        BYTE           N11     Dn4
        BYTE   W12
        BYTE   PEND
// 017   ----------------------------------------
eo2woodlandruins_10_17:
        BYTE   W12
        BYTE           N23     Fs3   v070
        BYTE   W12
        BYTE                   Bn3
        BYTE   W12
        BYTE           N32     Fs3   v070   gtp3
        BYTE   W24
        BYTE           N23     Dn4
        BYTE   W12
        BYTE           N11     Bn3
        BYTE   W12
        BYTE                   Dn3
        BYTE   W12
        BYTE   PEND
// 018   ----------------------------------------
        BYTE   PATT
         POIN2  eo2woodlandruins_10_14
// 019   ----------------------------------------
eo2woodlandruins_10_19:
        BYTE   W12
        BYTE           N23     An3   v070
        BYTE   W12
        BYTE                   Dn4
        BYTE   W12
        BYTE           N11     An3
        BYTE   W24
        BYTE                   Fs3
        BYTE   W12
        BYTE           N23     Cs4
        BYTE   W12
        BYTE                   Gn3
        BYTE   W12
        BYTE   PEND
// 020   ----------------------------------------
eo2woodlandruins_10_20:
        BYTE   W12
        BYTE           N23     Gn3   v070
        BYTE   W12
        BYTE                   Cn4
        BYTE   W12
        BYTE                   Gn3
        BYTE   W24
        BYTE                   Cn3
        BYTE   W12
        BYTE                   Fs3
        BYTE   W12
        BYTE                   Cn3
        BYTE   W12
        BYTE   PEND
// 021   ----------------------------------------
        BYTE   W12
        BYTE                   Fs3
        BYTE   W12
        BYTE                   Bn3
        BYTE   W12
        BYTE                   Fs3
        BYTE   W24
        BYTE                   Dn3
        BYTE   W12
        BYTE                   Bn3
        BYTE   W12
        BYTE                   Dn3
        BYTE   W12
// 022   ----------------------------------------
        BYTE   W12
        BYTE                   Fs3
        BYTE   W12
        BYTE                   Bn3
        BYTE   W12
        BYTE           N32     Fs3   v070   gtp3
        BYTE   W24
        BYTE           N23     Bn3   v065
        BYTE   W12
        BYTE                   Fs3
        BYTE   W12
        BYTE                   Bn2
        BYTE   W12
// 023   ----------------------------------------
        BYTE   PATT
         POIN2  eo2woodlandruins_10_7
// 024   ----------------------------------------
        BYTE   PATT
         POIN2  eo2woodlandruins_10_8
// 025   ----------------------------------------
        BYTE   PATT
         POIN2  eo2woodlandruins_10_9
// 026   ----------------------------------------
        BYTE   PATT
         POIN2  eo2woodlandruins_10_10
// 027   ----------------------------------------
        BYTE   PATT
         POIN2  eo2woodlandruins_10_11
// 028   ----------------------------------------
        BYTE   PATT
         POIN2  eo2woodlandruins_10_12
// 029   ----------------------------------------
        BYTE   PATT
         POIN2  eo2woodlandruins_10_13
// 030   ----------------------------------------
        BYTE   PATT
         POIN2  eo2woodlandruins_10_14
// 031   ----------------------------------------
        BYTE   PATT
         POIN2  eo2woodlandruins_10_15
// 032   ----------------------------------------
        BYTE   PATT
         POIN2  eo2woodlandruins_10_16
// 033   ----------------------------------------
        BYTE   PATT
         POIN2  eo2woodlandruins_10_17
// 034   ----------------------------------------
        BYTE   PATT
         POIN2  eo2woodlandruins_10_14
// 035   ----------------------------------------
        BYTE   PATT
         POIN2  eo2woodlandruins_10_19
// 036   ----------------------------------------
        BYTE   PATT
         POIN2  eo2woodlandruins_10_20
// 037   ----------------------------------------
        BYTE   W12
        BYTE           N80     Fs3   v070   gtp3
        BYTE   W12
        BYTE           N68     Bn3   v070   gtp3
        BYTE   W12
        BYTE           N23     An3
        BYTE   W12
        BYTE                   En4
        BYTE   W12
        BYTE                   Dn4
        BYTE   W12
        BYTE                   Bn4
        BYTE   W12
        BYTE                   An4
        BYTE   W12
// 038   ----------------------------------------
        BYTE   W12
        BYTE           N80     En3   v070   gtp3
        BYTE   W12
        BYTE           N68     As3   v070   gtp3
        BYTE   W12
        BYTE           N23     Fs3
        BYTE   W12
        BYTE                   En4
        BYTE   W12
        BYTE                   Cs4
        BYTE   W12
        BYTE                   As4
        BYTE   W12
        BYTE           N11     En4
        BYTE   W12
// 039   ----------------------------------------
        BYTE           N24     As3
        BYTE           N24     En4
        BYTE           N24     Cs5
        BYTE   W72
        BYTE           VOICE   125
        BYTE           VOL     3
        BYTE   W03
        BYTE                   5
        BYTE   W03
        BYTE                   8
        BYTE   W03
        BYTE                   10
        BYTE   W03
        BYTE                   13
        BYTE   W03
        BYTE                   15
        BYTE   W03
        BYTE                   18
        BYTE   W03
        BYTE                   21
        BYTE   W03
// 040   ----------------------------------------
        BYTE                   23
        BYTE           N96     An1   v100
        BYTE   W03
        BYTE           VOL     26
        BYTE   W03
        BYTE                   28
        BYTE   W03
        BYTE                   31
        BYTE   W03
        BYTE                   34
        BYTE   W03
        BYTE                   36
        BYTE   W03
        BYTE                   39
        BYTE   W03
        BYTE                   41
        BYTE   W72
        BYTE   W03
// 041   ----------------------------------------
        BYTE   W96
// 042   ----------------------------------------
        BYTE   W96
// 043   ----------------------------------------
        BYTE   W96
// 044   ----------------------------------------
        BYTE   W96
// 045   ----------------------------------------
        BYTE   W96
// 046   ----------------------------------------
        BYTE   W96
// 047   ----------------------------------------
        BYTE   W96
// 048   ----------------------------------------
        BYTE   W96
// 049   ----------------------------------------
        BYTE   W96
// 050   ----------------------------------------
        BYTE   W96
// 051   ----------------------------------------
        BYTE   W96
// 052   ----------------------------------------
        BYTE   W96
// 053   ----------------------------------------
        BYTE   W96
// 054   ----------------------------------------
        BYTE   W96
// 055   ----------------------------------------
        BYTE   W96
// 056   ----------------------------------------
        BYTE   W96
// 057   ----------------------------------------
        BYTE   W96
// 058   ----------------------------------------
        BYTE   W96
// 059   ----------------------------------------
        BYTE   W96
// 060   ----------------------------------------
        BYTE   W96
// 061   ----------------------------------------
        BYTE   W96
// 062   ----------------------------------------
        BYTE   W96
// 063   ----------------------------------------
        BYTE   W48
        BYTE                   3
        BYTE           TIE
        BYTE   W03
        BYTE           VOL     5
        BYTE   W03
        BYTE                   8
        BYTE   W03
        BYTE                   10
        BYTE   W03
        BYTE                   13
        BYTE   W03
        BYTE                   15
        BYTE   W03
        BYTE                   18
        BYTE   W03
        BYTE                   21
        BYTE   W03
        BYTE                   23
        BYTE   W03
        BYTE                   26
        BYTE   W03
        BYTE                   28
        BYTE   W03
        BYTE                   31
        BYTE   W03
        BYTE                   34
        BYTE   W03
        BYTE                   36
        BYTE   W03
        BYTE                   39
        BYTE   W03
        BYTE                   41
        BYTE   W03
// 064   ----------------------------------------
        BYTE   W96
// 065   ----------------------------------------
        BYTE           EOT
        BYTE   GoTo
         POIN2  eo2woodlandruins_10_LOOP
        BYTE   FINE

//***************** Track 11 (Midi-Chn.12) *****************//

eo2woodlandruins_11:
        BYTE   KEYSH   eo2woodlandruins_key+0
// 000   ----------------------------------------
        BYTE           VOICE   0
        BYTE           VOL     14
        BYTE           PAN     c_v-41
        BYTE   W96
// 001   ----------------------------------------
        BYTE   W96
// 002   ----------------------------------------
        BYTE   W96
// 003   ----------------------------------------
        BYTE   W96
// 004   ----------------------------------------
        BYTE   W96
// 005   ----------------------------------------
        BYTE   W96
// 006   ----------------------------------------
eo2woodlandruins_11_LOOP:
        BYTE   W24
        BYTE           N23     En5   v080
        BYTE   W24
        BYTE           N32     Dn5   v080   gtp3
        BYTE   W36
        BYTE           N11     Dn4
        BYTE   W12
// 007   ----------------------------------------
eo2woodlandruins_11_7:
        BYTE           N11     En4   v080
        BYTE   W12
        BYTE                   Dn5
        BYTE   W12
        BYTE           N23     Bn4
        BYTE   W24
        BYTE           N32     En4   v080   gtp3
        BYTE   W48
        BYTE   PEND
// 008   ----------------------------------------
eo2woodlandruins_11_8:
        BYTE           N11     En4   v080
        BYTE   W12
        BYTE                   An4
        BYTE   W12
        BYTE           N32     Gn4   v080   gtp3
        BYTE   W36
        BYTE           N05     Fs4
        BYTE   W06
        BYTE                   En4
        BYTE   W06
        BYTE           N32     Dn4   v080   gtp3
        BYTE   W24
        BYTE   PEND
// 009   ----------------------------------------
eo2woodlandruins_11_9:
        BYTE   W12
        BYTE           N11     En4   v080
        BYTE   W12
        BYTE           N88     Bn3   v080   gtp1
        BYTE   W72
        BYTE   PEND
// 010   ----------------------------------------
eo2woodlandruins_11_10:
        BYTE   W24
        BYTE           N23     En5   v080
        BYTE   W24
        BYTE           N32     Dn5   v080   gtp3
        BYTE   W36
        BYTE           N11     Dn4
        BYTE   W12
        BYTE   PEND
// 011   ----------------------------------------
        BYTE   PATT
         POIN2  eo2woodlandruins_11_7
// 012   ----------------------------------------
eo2woodlandruins_11_12:
        BYTE           N11     En4   v080
        BYTE   W12
        BYTE                   An4
        BYTE   W12
        BYTE           N32     Gn4   v080   gtp3
        BYTE   W36
        BYTE           N05     Fs4
        BYTE   W06
        BYTE                   Gn4
        BYTE   W06
        BYTE           N32     Dn5   v080   gtp3
        BYTE   W24
        BYTE   PEND
// 013   ----------------------------------------
eo2woodlandruins_11_13:
        BYTE   W12
        BYTE           N11     Fs4   v080
        BYTE   W12
        BYTE           N80     En4   v080   gtp3
        BYTE   W72
        BYTE   PEND
// 014   ----------------------------------------
eo2woodlandruins_11_14:
        BYTE   W24
        BYTE           N23     Gn5   v080
        BYTE   W24
        BYTE           N32     Bn4   v080   gtp3
        BYTE   W36
        BYTE           N11     An4
        BYTE   W12
        BYTE   PEND
// 015   ----------------------------------------
eo2woodlandruins_11_15:
        BYTE           N11     Bn4   v080
        BYTE   W12
        BYTE                   En5
        BYTE   W12
        BYTE           N23     Fs4
        BYTE   W24
        BYTE           N32     Gn4   v080   gtp3
        BYTE   W36
        BYTE           N11     An4
        BYTE   W12
        BYTE   PEND
// 016   ----------------------------------------
eo2woodlandruins_11_16:
        BYTE           N11     Bn4   v080
        BYTE   W12
        BYTE                   En5
        BYTE   W12
        BYTE           N23     Gn5
        BYTE   W24
        BYTE           N32     Fs5   v080   gtp3
        BYTE   W36
        BYTE           N11     An5
        BYTE   W12
        BYTE   PEND
// 017   ----------------------------------------
eo2woodlandruins_11_17:
        BYTE           N11     Gn5   v080
        BYTE   W12
        BYTE                   Fs5
        BYTE   W12
        BYTE                   Fs5
        BYTE   W12
        BYTE                   Dn5
        BYTE   W12
        BYTE           N28     Dn5   v080   gtp1
        BYTE   W36
        BYTE           N11
        BYTE   W12
        BYTE   PEND
// 018   ----------------------------------------
eo2woodlandruins_11_18:
        BYTE           N11     En5   v080
        BYTE   W12
        BYTE                   Fs5
        BYTE   W12
        BYTE           N23     Gn5
        BYTE   W24
        BYTE           N32     Cn5   v080   gtp3
        BYTE   W36
        BYTE           N11     Bn5
        BYTE   W12
        BYTE   PEND
// 019   ----------------------------------------
eo2woodlandruins_11_19:
        BYTE           N11     An5   v080
        BYTE   W12
        BYTE                   Gn5
        BYTE   W12
        BYTE                   Fs5
        BYTE   W12
        BYTE                   En5
        BYTE   W12
        BYTE           N32     Fs5   v080   gtp3
        BYTE   W36
        BYTE           N11     An5
        BYTE   W12
        BYTE   PEND
// 020   ----------------------------------------
eo2woodlandruins_11_20:
        BYTE           N11     Gn5   v080
        BYTE   W12
        BYTE                   En5
        BYTE   W12
        BYTE                   Cn5
        BYTE   W12
        BYTE                   Bn4
        BYTE   W12
        BYTE           N32     Cn5   v080   gtp3
        BYTE   W36
        BYTE           N11     Bn4
        BYTE   W12
        BYTE   PEND
// 021   ----------------------------------------
eo2woodlandruins_11_21:
        BYTE           N11     En5   v080
        BYTE   W12
        BYTE                   Dn5
        BYTE   W12
        BYTE           N88     Bn4   v080   gtp1
        BYTE   W72
        BYTE   PEND
// 022   ----------------------------------------
        BYTE   PATT
         POIN2  eo2woodlandruins_11_10
// 023   ----------------------------------------
        BYTE   PATT
         POIN2  eo2woodlandruins_11_7
// 024   ----------------------------------------
        BYTE   PATT
         POIN2  eo2woodlandruins_11_8
// 025   ----------------------------------------
        BYTE   PATT
         POIN2  eo2woodlandruins_11_9
// 026   ----------------------------------------
        BYTE   PATT
         POIN2  eo2woodlandruins_11_10
// 027   ----------------------------------------
        BYTE   PATT
         POIN2  eo2woodlandruins_11_7
// 028   ----------------------------------------
        BYTE   PATT
         POIN2  eo2woodlandruins_11_12
// 029   ----------------------------------------
        BYTE   PATT
         POIN2  eo2woodlandruins_11_13
// 030   ----------------------------------------
        BYTE   PATT
         POIN2  eo2woodlandruins_11_14
// 031   ----------------------------------------
        BYTE   PATT
         POIN2  eo2woodlandruins_11_15
// 032   ----------------------------------------
        BYTE   PATT
         POIN2  eo2woodlandruins_11_16
// 033   ----------------------------------------
        BYTE   PATT
         POIN2  eo2woodlandruins_11_17
// 034   ----------------------------------------
        BYTE   PATT
         POIN2  eo2woodlandruins_11_18
// 035   ----------------------------------------
        BYTE   PATT
         POIN2  eo2woodlandruins_11_19
// 036   ----------------------------------------
        BYTE   PATT
         POIN2  eo2woodlandruins_11_20
// 037   ----------------------------------------
        BYTE   PATT
         POIN2  eo2woodlandruins_11_21
// 038   ----------------------------------------
        BYTE   W96
// 039   ----------------------------------------
        BYTE   W24
        BYTE           N88     Cs5   v080   gtp1
        BYTE   W72
// 040   ----------------------------------------
        BYTE   W96
// 041   ----------------------------------------
        BYTE   W96
// 042   ----------------------------------------
        BYTE   W96
// 043   ----------------------------------------
        BYTE   W96
// 044   ----------------------------------------
        BYTE   W96
// 045   ----------------------------------------
        BYTE   W96
// 046   ----------------------------------------
        BYTE   W96
// 047   ----------------------------------------
        BYTE   W96
// 048   ----------------------------------------
        BYTE   W96
// 049   ----------------------------------------
        BYTE   W96
// 050   ----------------------------------------
        BYTE   W96
// 051   ----------------------------------------
        BYTE   W96
// 052   ----------------------------------------
        BYTE   W96
// 053   ----------------------------------------
        BYTE   W96
// 054   ----------------------------------------
        BYTE   W96
// 055   ----------------------------------------
        BYTE   W96
// 056   ----------------------------------------
        BYTE   W96
// 057   ----------------------------------------
        BYTE   W96
// 058   ----------------------------------------
        BYTE   W96
// 059   ----------------------------------------
        BYTE   W96
// 060   ----------------------------------------
        BYTE   W96
// 061   ----------------------------------------
        BYTE   W96
// 062   ----------------------------------------
        BYTE   W96
// 063   ----------------------------------------
        BYTE   W96
// 064   ----------------------------------------
        BYTE   W96
// 065   ----------------------------------------
        BYTE   GoTo
         POIN2  eo2woodlandruins_11_LOOP
        BYTE   FINE


//********************** End of Song ***********************//

        ALIGN 4
eo2woodlandruins:
        BYTE   12                      // Num Tracks
        BYTE   0                       // Unknown
        BYTE   eo2woodlandruins_pri    // Priority
        BYTE   eo2woodlandruins_rev    // Reverb

        POIN2   eo2woodlandruins_grp   

        POIN2   eo2woodlandruins_0
        POIN2   eo2woodlandruins_1
        POIN2   eo2woodlandruins_2
        POIN2   eo2woodlandruins_3
        POIN2   eo2woodlandruins_4
        POIN2   eo2woodlandruins_5
        POIN2   eo2woodlandruins_6
        POIN2   eo2woodlandruins_7
        POIN2   eo2woodlandruins_8
        POIN2   eo2woodlandruins_9
        POIN2   eo2woodlandruins_10
        POIN2   eo2woodlandruins_11

        
