//Event file generated from Sappy .s format.
        #include "MPlayDef.event"

        #define    eo3palaceofsplendor_grp  MusicVoices
        #define    eo3palaceofsplendor_pri  0
        #define    eo3palaceofsplendor_rev  0x80
        #define    eo3palaceofsplendor_key  0

        // .rodata
        // eo3palaceofsplendor
        ALIGN 4

//****************** Track 0 (Midi-Chn.0) ******************//

eo3palaceofsplendor_0:
        BYTE   KEYSH   eo3palaceofsplendor_key+0
// 000   ----------------------------------------
        BYTE   TEMPO   108/2
eo3palaceofsplendor_0_LOOP:
        BYTE           VOICE   81
        BYTE           VOL     63
        BYTE           MOD     1
        BYTE           N12     As2   v061
        BYTE   W12
        BYTE           N03     Fn2   v056
        BYTE   W06
        BYTE                   As2
        BYTE   W12
        BYTE                   Fn2
        BYTE   W06
        BYTE                   As2
        BYTE   W06
        BYTE                   Fn2
        BYTE   W06
        BYTE           N12     As2   v061
        BYTE   W12
        BYTE           N03     Fn2   v056
        BYTE   W06
        BYTE           N09     As2
        BYTE   W12
        BYTE           N03     Fn2
        BYTE   W06
        BYTE                   As2
        BYTE   W06
        BYTE                   Fn2
        BYTE   W06
// 001   ----------------------------------------
        BYTE           N12     Cn3   v061
        BYTE   W12
        BYTE           N03     Gn2   v056
        BYTE   W06
        BYTE                   Cn3
        BYTE   W12
        BYTE                   Gn2
        BYTE   W06
        BYTE                   Cn3
        BYTE   W06
        BYTE                   Gn2
        BYTE   W06
        BYTE           N12     Cn3   v061
        BYTE   W12
        BYTE           N03     Gn2   v056
        BYTE   W06
        BYTE           N09     Cn3
        BYTE   W12
        BYTE           N03     Gn2
        BYTE   W06
        BYTE                   Cn3
        BYTE   W06
        BYTE                   Gn2
        BYTE   W06
// 002   ----------------------------------------
        BYTE           N12     Cs3   v061
        BYTE   W12
        BYTE           N03     Gs2   v056
        BYTE   W06
        BYTE                   Cs3
        BYTE   W12
        BYTE                   Gs2
        BYTE   W06
        BYTE                   Cs3
        BYTE   W06
        BYTE                   Gs2
        BYTE   W06
        BYTE           N12     Cs3   v061
        BYTE   W12
        BYTE           N03     Gs2   v056
        BYTE   W06
        BYTE           N09     Cs3
        BYTE   W12
        BYTE           N03     Gs2
        BYTE   W06
        BYTE                   Cs3
        BYTE   W06
        BYTE                   Gs2
        BYTE   W06
// 003   ----------------------------------------
eo3palaceofsplendor_0_3:
        BYTE           N12     Ds3   v061
        BYTE   W12
        BYTE           N03     As2   v056
        BYTE   W06
        BYTE                   Ds3
        BYTE   W12
        BYTE                   As2
        BYTE   W06
        BYTE                   Ds3
        BYTE   W06
        BYTE                   As2
        BYTE   W06
        BYTE           N12     Ds3   v061
        BYTE   W12
        BYTE           N03     As2   v056
        BYTE   W06
        BYTE           N09     Ds3
        BYTE   W12
        BYTE           N03     As2
        BYTE   W06
        BYTE                   Ds3
        BYTE   W06
        BYTE                   As2
        BYTE   W06
        BYTE   PEND
// 004   ----------------------------------------
        BYTE   PATT
         POIN2  eo3palaceofsplendor_0_3
// 005   ----------------------------------------
eo3palaceofsplendor_0_5:
        BYTE           N12     Fn3   v061
        BYTE   W12
        BYTE           N03     Cn3   v056
        BYTE   W06
        BYTE                   Fn3
        BYTE   W12
        BYTE                   Cn3
        BYTE   W06
        BYTE                   Fn3
        BYTE   W06
        BYTE                   Cn3
        BYTE   W06
        BYTE           N12     Fn3   v061
        BYTE   W12
        BYTE           N03     Cn3   v056
        BYTE   W06
        BYTE           N09     Fn3
        BYTE   W12
        BYTE           N03     Cn3
        BYTE   W06
        BYTE                   Fn3
        BYTE   W06
        BYTE                   Cn3
        BYTE   W06
        BYTE   PEND
// 006   ----------------------------------------
        BYTE           N12     Fn3   v061
        BYTE   W12
        BYTE           N03     Cn3   v056
        BYTE   W06
        BYTE                   Fn3
        BYTE   W12
        BYTE                   Cn3
        BYTE   W06
        BYTE                   Fn3
        BYTE   W06
        BYTE                   Cn3
        BYTE   W06
        BYTE           N12     Gn3   v061
        BYTE   W12
        BYTE           N03     Cn3   v056
        BYTE   W06
        BYTE           N09     Gn3
        BYTE   W12
        BYTE           N03     Cn3
        BYTE   W06
        BYTE                   Gn3
        BYTE   W06
        BYTE                   Cn3
        BYTE   W06
// 007   ----------------------------------------
        BYTE   PATT
         POIN2  eo3palaceofsplendor_0_5
// 008   ----------------------------------------
        BYTE           N12     Fn3   v036
        BYTE   W12
        BYTE           N03     Cn3   v035
        BYTE   W06
        BYTE                   Fn3   v031
        BYTE   W12
        BYTE                   Cn3
        BYTE   W06
        BYTE                   Fn3   v033
        BYTE   W06
        BYTE                   Cn3   v030
        BYTE   W06
        BYTE           N12     Fn3   v022
        BYTE   W12
        BYTE           N03     Cn3
        BYTE   W06
        BYTE           N09     Fn3
        BYTE   W12
        BYTE           N03     Cn3   v018
        BYTE   W06
        BYTE                   Fn3   v017
        BYTE   W06
        BYTE                   Cn3   v016
        BYTE   W06
// 009   ----------------------------------------
eo3palaceofsplendor_0_9:
        BYTE           N12     Fn3   v061
        BYTE   W12
        BYTE           N03     An2   v056
        BYTE   W06
        BYTE                   Fn3
        BYTE   W12
        BYTE                   An2
        BYTE   W06
        BYTE                   Fn3
        BYTE   W06
        BYTE                   An2
        BYTE   W06
        BYTE           N12     Fn3   v061
        BYTE   W12
        BYTE           N03     An2   v056
        BYTE   W06
        BYTE           N09     Fn3
        BYTE   W12
        BYTE           N03     An2
        BYTE   W06
        BYTE                   Fn3
        BYTE   W06
        BYTE                   An2
        BYTE   W06
        BYTE   PEND
// 010   ----------------------------------------
        BYTE   PATT
         POIN2  eo3palaceofsplendor_0_9
// 011   ----------------------------------------
        BYTE   W96
// 012   ----------------------------------------
        BYTE   PATT
         POIN2  eo3palaceofsplendor_0_9
// 013   ----------------------------------------
        BYTE   PATT
         POIN2  eo3palaceofsplendor_0_9
// 014   ----------------------------------------
        BYTE   W96
// 015   ----------------------------------------
        BYTE           VOICE   1
        BYTE   W54
        BYTE           N05     Bn4   v070
        BYTE   W06
        BYTE                   An4   v069
        BYTE   W06
        BYTE                   Bn4
        BYTE   W06
        BYTE                   En4
        BYTE   W06
        BYTE                   An4
        BYTE   W06
        BYTE                   En5
        BYTE   W06
        BYTE                   Bn4
        BYTE   W06
// 016   ----------------------------------------
eo3palaceofsplendor_0_16:
        BYTE           N05     Bn4   v021
        BYTE   W54
        BYTE                   Bn4   v070
        BYTE   W06
        BYTE                   An4   v069
        BYTE   W06
        BYTE                   Bn4
        BYTE   W06
        BYTE                   En4
        BYTE   W06
        BYTE                   An4
        BYTE   W06
        BYTE                   En5
        BYTE   W06
        BYTE                   Bn4
        BYTE   W06
        BYTE   PEND
// 017   ----------------------------------------
eo3palaceofsplendor_0_17:
        BYTE           N05     Bn4   v021
        BYTE   W54
        BYTE                   Cs5   v070
        BYTE   W06
        BYTE                   Bn4   v069
        BYTE   W06
        BYTE                   Cs5
        BYTE   W06
        BYTE                   Fs4
        BYTE   W06
        BYTE                   Bn4
        BYTE   W06
        BYTE                   Fs5
        BYTE   W06
        BYTE                   Cs5
        BYTE   W06
        BYTE   PEND
// 018   ----------------------------------------
eo3palaceofsplendor_0_18:
        BYTE           N05     Cs5   v021
        BYTE   W54
        BYTE                   Cs5   v070
        BYTE   W06
        BYTE                   Bn4   v069
        BYTE   W06
        BYTE                   Cs5
        BYTE   W06
        BYTE                   Fs4
        BYTE   W06
        BYTE                   Bn4
        BYTE   W06
        BYTE                   Fs5
        BYTE   W06
        BYTE                   Cs5
        BYTE   W06
        BYTE   PEND
// 019   ----------------------------------------
        BYTE   W54
        BYTE                   Bn4   v070
        BYTE   W06
        BYTE                   An4   v069
        BYTE   W06
        BYTE                   Bn4
        BYTE   W06
        BYTE                   En4
        BYTE   W06
        BYTE                   An4
        BYTE   W06
        BYTE                   En5
        BYTE   W06
        BYTE                   Bn4
        BYTE   W06
// 020   ----------------------------------------
        BYTE   PATT
         POIN2  eo3palaceofsplendor_0_16
// 021   ----------------------------------------
        BYTE   PATT
         POIN2  eo3palaceofsplendor_0_17
// 022   ----------------------------------------
        BYTE   PATT
         POIN2  eo3palaceofsplendor_0_18
// 023   ----------------------------------------
        BYTE           VOICE   104
        BYTE           N11     Gs3   v071
        BYTE           N12     Cs4   v082
        BYTE   W18
        BYTE           N09     En3   v073
        BYTE           N09     An3   v087
        BYTE   W18
        BYTE           TIE     Fs3   v089
        BYTE           TIE     Bn3   v079
        BYTE   W60
// 024   ----------------------------------------
eo3palaceofsplendor_0_24:
        BYTE   W44
        BYTE   W03
        BYTE           EOT     Fs3
        BYTE                   Bn3
        BYTE   W07
        BYTE           N05     Cs3   v075
        BYTE   W06
        BYTE                   Fs3
        BYTE   W06
        BYTE                   Bn3   v079
        BYTE   W06
        BYTE                   An3   v056
        BYTE   W06
        BYTE                   En3   v065
        BYTE   W06
        BYTE                   Bn2   v078
        BYTE   W06
        BYTE                   Fs2   v073
        BYTE   W06
        BYTE   PEND
// 025   ----------------------------------------
eo3palaceofsplendor_0_25:
        BYTE           N11     Gs3   v069
        BYTE           N12     Cs4   v085
        BYTE   W18
        BYTE           N05     En3   v074
        BYTE           N08     An3   v085
        BYTE   W18
        BYTE           N11     Fs3   v075
        BYTE           N13     Bn3   v085
        BYTE   W24
        BYTE           N80     Dn3   v075   gtp3
        BYTE                   Gn3   v085
        BYTE   W36
        BYTE   PEND
// 026   ----------------------------------------
        BYTE   W96
// 027   ----------------------------------------
        BYTE           N11     Gs3   v071
        BYTE           N12     Cs4   v082
        BYTE   W18
        BYTE           N09     En3   v073
        BYTE           N09     An3   v087
        BYTE   W18
        BYTE           TIE     Fs3   v089
        BYTE           TIE     Bn3   v079
        BYTE   W60
// 028   ----------------------------------------
        BYTE   PATT
         POIN2  eo3palaceofsplendor_0_24
// 029   ----------------------------------------
        BYTE   PATT
         POIN2  eo3palaceofsplendor_0_25
// 030   ----------------------------------------
        BYTE   W96
// 031   ----------------------------------------
        BYTE           VOICE   48
        BYTE           N17     Cn6   v060
        BYTE   W18
        BYTE                   As5   v064
        BYTE   W18
        BYTE           N11     Fn5   v074
        BYTE   W12
        BYTE           N17     Ds5   v076
        BYTE   W18
        BYTE                   As4
        BYTE   W18
        BYTE           N11     Fn4
        BYTE   W12
// 032   ----------------------------------------
eo3palaceofsplendor_0_32:
        BYTE           N17     Cn4   v076
        BYTE   W18
        BYTE                   Cs4
        BYTE   W18
        BYTE           N11     Fs4
        BYTE   W12
        BYTE           N17     Cs5
        BYTE   W18
        BYTE                   Fs5   v072
        BYTE   W18
        BYTE           N11     Cs6   v056
        BYTE   W12
        BYTE   PEND
// 033   ----------------------------------------
eo3palaceofsplendor_0_33:
        BYTE           N17     Cn6   v060
        BYTE   W18
        BYTE                   As5   v064
        BYTE   W18
        BYTE           N11     Fn5   v074
        BYTE   W12
        BYTE           N17     Ds5   v076
        BYTE   W18
        BYTE                   As4
        BYTE   W18
        BYTE           N11     Fn4
        BYTE   W12
        BYTE   PEND
// 034   ----------------------------------------
        BYTE           N17     As3
        BYTE   W18
        BYTE                   Bn3
        BYTE   W18
        BYTE           N11     En4
        BYTE   W12
        BYTE           N17     Bn4
        BYTE   W18
        BYTE                   En5
        BYTE   W18
        BYTE           N11     Bn5   v062
        BYTE   W12
// 035   ----------------------------------------
        BYTE   PATT
         POIN2  eo3palaceofsplendor_0_33
// 036   ----------------------------------------
        BYTE   PATT
         POIN2  eo3palaceofsplendor_0_32
// 037   ----------------------------------------
        BYTE   PATT
         POIN2  eo3palaceofsplendor_0_33
// 038   ----------------------------------------
        BYTE           N17     As3   v076
        BYTE   W18
        BYTE                   En4
        BYTE   W18
        BYTE           N11     Bn4
        BYTE   W12
        BYTE           N17     Bn3
        BYTE   W18
        BYTE                   Fn4
        BYTE   W18
        BYTE           N11     Cn5
        BYTE   W12
// 039   ----------------------------------------
        BYTE           N17     Cn4
        BYTE   W18
        BYTE                   Fs4
        BYTE   W18
        BYTE           N11     Cs5
        BYTE   W12
        BYTE           N17
        BYTE   W18
        BYTE                   Fs5   v072
        BYTE   W18
        BYTE           N11     Cs6   v056
        BYTE   W12
// 040   ----------------------------------------
        BYTE   W12
        BYTE           N05     Dn5   v076
        BYTE   W06
        BYTE           N06     Dn5   v044
        BYTE   W12
        BYTE           N05     Ds5   v076
        BYTE   W06
        BYTE           N06     Ds5   v044
        BYTE   W12
        BYTE           N05     En5   v076
        BYTE   W06
        BYTE           N06     En5   v044
        BYTE   W42
// 041   ----------------------------------------
        BYTE           VOICE   1
        BYTE   W54
        BYTE           N05     Bn4   v065
        BYTE   W06
        BYTE                   An4   v064
        BYTE   W06
        BYTE                   Bn4
        BYTE   W06
        BYTE                   En4
        BYTE   W06
        BYTE                   An4
        BYTE   W06
        BYTE                   En5
        BYTE   W06
        BYTE                   Bn4
        BYTE   W06
// 042   ----------------------------------------
eo3palaceofsplendor_0_42:
        BYTE           N05     Bn4   v016
        BYTE   W54
        BYTE                   Bn4   v065
        BYTE   W06
        BYTE                   An4   v064
        BYTE   W06
        BYTE                   Bn4
        BYTE   W06
        BYTE                   En4
        BYTE   W06
        BYTE                   An4
        BYTE   W06
        BYTE                   En5
        BYTE   W06
        BYTE                   Bn4
        BYTE   W06
        BYTE   PEND
// 043   ----------------------------------------
eo3palaceofsplendor_0_43:
        BYTE           N05     Bn4   v016
        BYTE   W54
        BYTE                   Cs5   v065
        BYTE   W06
        BYTE                   Bn4   v064
        BYTE   W06
        BYTE                   Cs5
        BYTE   W06
        BYTE                   Fs4
        BYTE   W06
        BYTE                   Bn4
        BYTE   W06
        BYTE                   Fs5
        BYTE   W06
        BYTE                   Cs5
        BYTE   W06
        BYTE   PEND
// 044   ----------------------------------------
        BYTE                   Cs5   v016
        BYTE   W54
        BYTE                   Cs5   v065
        BYTE   W06
        BYTE                   Bn4   v064
        BYTE   W06
        BYTE                   Cs5
        BYTE   W06
        BYTE                   Fs4
        BYTE   W06
        BYTE                   Bn4
        BYTE   W06
        BYTE                   Fs5
        BYTE   W06
        BYTE                   Cs5
        BYTE   W06
// 045   ----------------------------------------
        BYTE                   Cs5   v016
        BYTE   W54
        BYTE                   Bn4   v065
        BYTE   W06
        BYTE                   An4   v064
        BYTE   W06
        BYTE                   Bn4
        BYTE   W06
        BYTE                   En4
        BYTE   W06
        BYTE                   An4
        BYTE   W06
        BYTE                   En5
        BYTE   W06
        BYTE                   Bn4
        BYTE   W06
// 046   ----------------------------------------
        BYTE   PATT
         POIN2  eo3palaceofsplendor_0_42
// 047   ----------------------------------------
        BYTE   PATT
         POIN2  eo3palaceofsplendor_0_43
// 048   ----------------------------------------
        BYTE           N05     Cs5   v016
        BYTE   W54
        BYTE                   Cs5   v065
        BYTE   W06
        BYTE                   Bn4   v064
        BYTE   W06
        BYTE                   Dn5
        BYTE   W06
        BYTE                   Gn4
        BYTE   W06
        BYTE                   Cs5
        BYTE   W06
        BYTE                   Gs5
        BYTE   W06
        BYTE                   Ds5
        BYTE   W06
// 049   ----------------------------------------
        BYTE           VOICE   108
        BYTE           N92     As3   v068   gtp3
        BYTE                   Cn4   v072
        BYTE           N92     Cs5   v085   gtp3
        BYTE   W96
// 050   ----------------------------------------
eo3palaceofsplendor_0_50:
        BYTE           N92     Gs3   v072   gtp3
        BYTE                   Ds4
        BYTE           N92     Cn5   v085   gtp3
        BYTE   W96
        BYTE   PEND
// 051   ----------------------------------------
eo3palaceofsplendor_0_51:
        BYTE           N92     As3   v072   gtp3
        BYTE                   Fn4   v085
        BYTE   W96
        BYTE   PEND
// 052   ----------------------------------------
        BYTE                   Gs3   v072
        BYTE           N92     Ds4   v072   gtp3
        BYTE                   Gs4   v085
        BYTE   W96
// 053   ----------------------------------------
        BYTE                   As3   v068
        BYTE           N92     Cn4   v072   gtp3
        BYTE                   Cs5   v085
        BYTE   W96
// 054   ----------------------------------------
        BYTE   PATT
         POIN2  eo3palaceofsplendor_0_50
// 055   ----------------------------------------
        BYTE   PATT
         POIN2  eo3palaceofsplendor_0_51
// 056   ----------------------------------------
        BYTE           TIE     Gs3   v072
        BYTE           TIE     Ds4
        BYTE           N92     Gs4   v085   gtp3
        BYTE   W96
// 057   ----------------------------------------
        BYTE           TIE     As4
        BYTE   W96
// 058   ----------------------------------------
        BYTE   W96
// 059   ----------------------------------------
        BYTE   W96
// 060   ----------------------------------------
        BYTE   W92
        BYTE   W03
        BYTE           EOT
        BYTE           EOT     Ds4
        BYTE                   Gs3
        BYTE   W01
// 061   ----------------------------------------
        BYTE           VOICE   81
        BYTE   GoTo
         POIN2  eo3palaceofsplendor_0_LOOP
        BYTE   FINE

//****************** Track 1 (Midi-Chn.1) ******************//

eo3palaceofsplendor_1:
        BYTE   KEYSH   eo3palaceofsplendor_key+0
// 000   ----------------------------------------
eo3palaceofsplendor_1_LOOP:
        BYTE           VOICE   50
        BYTE           VOL     33
        BYTE           PAN     c_v+40
        BYTE           N92     As0   v127   gtp3
        BYTE   W96
// 001   ----------------------------------------
        BYTE                   Gn0
        BYTE   W96
// 002   ----------------------------------------
        BYTE                   Fs0
        BYTE   W96
// 003   ----------------------------------------
        BYTE                   Cs0
        BYTE   W96
// 004   ----------------------------------------
        BYTE                   Cn1
        BYTE   W96
// 005   ----------------------------------------
        BYTE                   Cs0
        BYTE   W96
// 006   ----------------------------------------
        BYTE                   Cn0
        BYTE   W96
// 007   ----------------------------------------
        BYTE                   Fn0
        BYTE   W96
// 008   ----------------------------------------
        BYTE   W96
// 009   ----------------------------------------
        BYTE   W96
// 010   ----------------------------------------
        BYTE   W96
// 011   ----------------------------------------
        BYTE           PAN     c_v+0
        BYTE           VOICE   48
        BYTE           N13     Fn3   v117
        BYTE   W24
        BYTE           N10     En3
        BYTE   W24
        BYTE           N11     Fs3
        BYTE   W24
        BYTE           N12     Gs3
        BYTE   W24
// 012   ----------------------------------------
        BYTE   W96
// 013   ----------------------------------------
        BYTE   W96
// 014   ----------------------------------------
        BYTE           N13     Fn3
        BYTE   W24
        BYTE           N10     En3
        BYTE   W24
        BYTE           N11     Fs3
        BYTE   W24
        BYTE           N12     Gs3
        BYTE   W24
// 015   ----------------------------------------
eo3palaceofsplendor_1_15:
        BYTE           N08     Cn3   v117
        BYTE   W18
        BYTE                   Bn2
        BYTE   W18
        BYTE           N17     En3
        BYTE   W18
        BYTE           N05     An2   v102
        BYTE   W06
        BYTE                   En3
        BYTE   W06
        BYTE                   An2
        BYTE   W06
        BYTE                   En3
        BYTE   W06
        BYTE                   An2
        BYTE   W06
        BYTE                   En3
        BYTE   W06
        BYTE                   An2
        BYTE   W06
        BYTE   PEND
// 016   ----------------------------------------
        BYTE   PATT
         POIN2  eo3palaceofsplendor_1_15
// 017   ----------------------------------------
eo3palaceofsplendor_1_17:
        BYTE           N08     Dn3   v117
        BYTE   W18
        BYTE                   Cs3
        BYTE   W18
        BYTE           N17     Fs3
        BYTE   W18
        BYTE           N05     Bn2   v102
        BYTE   W06
        BYTE                   Fs3
        BYTE   W06
        BYTE                   Bn2
        BYTE   W06
        BYTE                   Fs3
        BYTE   W06
        BYTE                   Bn2
        BYTE   W06
        BYTE                   Fs3
        BYTE   W06
        BYTE                   Bn2
        BYTE   W06
        BYTE   PEND
// 018   ----------------------------------------
        BYTE   PATT
         POIN2  eo3palaceofsplendor_1_17
// 019   ----------------------------------------
        BYTE   PATT
         POIN2  eo3palaceofsplendor_1_15
// 020   ----------------------------------------
        BYTE   PATT
         POIN2  eo3palaceofsplendor_1_15
// 021   ----------------------------------------
        BYTE   PATT
         POIN2  eo3palaceofsplendor_1_17
// 022   ----------------------------------------
        BYTE   PATT
         POIN2  eo3palaceofsplendor_1_17
// 023   ----------------------------------------
eo3palaceofsplendor_1_23:
        BYTE           N11     Cs3   v113
        BYTE   W18
        BYTE           N05     An2   v118
        BYTE   W18
        BYTE           TIE     Bn2   v119
        BYTE   W60
        BYTE   PEND
// 024   ----------------------------------------
        BYTE   W44
        BYTE   W03
        BYTE           EOT
        BYTE   W48
        BYTE   W01
// 025   ----------------------------------------
eo3palaceofsplendor_1_25:
        BYTE           N11     Cs3   v113
        BYTE   W18
        BYTE           N05     An2   v118
        BYTE   W18
        BYTE           N11     Bn2   v119
        BYTE   W24
        BYTE           N80     Gn2   v119   gtp3
        BYTE   W36
        BYTE   PEND
// 026   ----------------------------------------
eo3palaceofsplendor_1_26:
        BYTE   W54
        BYTE           N05     Gs2   v116
        BYTE   W06
        BYTE                   Cs3
        BYTE   W06
        BYTE                   Fs3
        BYTE   W06
        BYTE                   En3
        BYTE   W06
        BYTE                   Bn2
        BYTE   W06
        BYTE                   Fs2
        BYTE   W06
        BYTE                   Cs2
        BYTE   W06
        BYTE   PEND
// 027   ----------------------------------------
        BYTE   PATT
         POIN2  eo3palaceofsplendor_1_23
// 028   ----------------------------------------
        BYTE   W44
        BYTE   W03
        BYTE           EOT     Bn2
        BYTE   W48
        BYTE   W01
// 029   ----------------------------------------
        BYTE   PATT
         POIN2  eo3palaceofsplendor_1_25
// 030   ----------------------------------------
        BYTE   PATT
         POIN2  eo3palaceofsplendor_1_26
// 031   ----------------------------------------
eo3palaceofsplendor_1_31:
        BYTE           N05     Cn4   v095
        BYTE   W18
        BYTE           N56     As3
        BYTE   W78
        BYTE   PEND
// 032   ----------------------------------------
eo3palaceofsplendor_1_32:
        BYTE           N05     Cn4   v095
        BYTE   W18
        BYTE           N56     Cs4
        BYTE   W78
        BYTE   PEND
// 033   ----------------------------------------
        BYTE   PATT
         POIN2  eo3palaceofsplendor_1_31
// 034   ----------------------------------------
        BYTE           N05     As3   v095
        BYTE   W18
        BYTE           N56     Bn3
        BYTE   W78
// 035   ----------------------------------------
        BYTE   PATT
         POIN2  eo3palaceofsplendor_1_31
// 036   ----------------------------------------
        BYTE   PATT
         POIN2  eo3palaceofsplendor_1_32
// 037   ----------------------------------------
        BYTE   PATT
         POIN2  eo3palaceofsplendor_1_31
// 038   ----------------------------------------
        BYTE           N05     As3   v095
        BYTE   W18
        BYTE           N20     Bn3
        BYTE   W30
        BYTE           N05
        BYTE   W18
        BYTE           N20     Cn4
        BYTE   W30
// 039   ----------------------------------------
        BYTE           N05
        BYTE   W18
        BYTE           N72     Cs4   v095   gtp2
        BYTE   W78
// 040   ----------------------------------------
        BYTE   W12
        BYTE           N05     Dn4
        BYTE   W18
        BYTE           N17     Ds4
        BYTE   W18
        BYTE           N05     En4
        BYTE   W48
// 041   ----------------------------------------
eo3palaceofsplendor_1_41:
        BYTE           N08     Cn3   v111
        BYTE   W18
        BYTE                   Bn2   v108
        BYTE   W18
        BYTE           N17     En3   v116
        BYTE   W18
        BYTE           N05     An2   v107
        BYTE   W06
        BYTE                   En3   v102
        BYTE   W06
        BYTE                   An2   v108
        BYTE   W06
        BYTE                   En3   v102
        BYTE   W06
        BYTE                   An2
        BYTE   W06
        BYTE                   En3
        BYTE   W06
        BYTE                   An2
        BYTE   W06
        BYTE   PEND
// 042   ----------------------------------------
        BYTE           N08     Cn3   v113
        BYTE   W18
        BYTE                   Bn2   v111
        BYTE   W18
        BYTE           N17     En3   v112
        BYTE   W18
        BYTE           N05     An2   v098
        BYTE   W06
        BYTE                   En3   v094
        BYTE   W06
        BYTE                   An2   v110
        BYTE   W06
        BYTE                   En3   v104
        BYTE   W06
        BYTE                   An2   v101
        BYTE   W06
        BYTE                   En3   v112
        BYTE   W06
        BYTE                   An2   v104
        BYTE   W06
// 043   ----------------------------------------
eo3palaceofsplendor_1_43:
        BYTE           N08     Dn3   v113
        BYTE   W18
        BYTE                   Cs3   v111
        BYTE   W18
        BYTE           N17     Fs3   v112
        BYTE   W18
        BYTE           N05     Bn2   v098
        BYTE   W06
        BYTE                   Fs3   v094
        BYTE   W06
        BYTE                   Bn2   v110
        BYTE   W06
        BYTE                   Fs3   v104
        BYTE   W06
        BYTE                   Bn2   v101
        BYTE   W06
        BYTE                   Fs3   v112
        BYTE   W06
        BYTE                   Bn2   v104
        BYTE   W06
        BYTE   PEND
// 044   ----------------------------------------
        BYTE   PATT
         POIN2  eo3palaceofsplendor_1_43
// 045   ----------------------------------------
        BYTE   PATT
         POIN2  eo3palaceofsplendor_1_41
// 046   ----------------------------------------
        BYTE           N05     Cn3   v113
        BYTE   W18
        BYTE           N08     Bn2   v111
        BYTE   W18
        BYTE           N17     En3   v112
        BYTE   W18
        BYTE           N05     An2   v098
        BYTE   W06
        BYTE                   En3   v094
        BYTE   W06
        BYTE                   An2   v110
        BYTE   W06
        BYTE                   En3   v104
        BYTE   W06
        BYTE                   An2   v101
        BYTE   W06
        BYTE                   En3   v112
        BYTE   W06
        BYTE                   An2   v104
        BYTE   W06
// 047   ----------------------------------------
        BYTE   PATT
         POIN2  eo3palaceofsplendor_1_43
// 048   ----------------------------------------
        BYTE           N08     Dn3   v113
        BYTE   W18
        BYTE                   Cs3   v111
        BYTE   W18
        BYTE           N17     Fs3   v115
        BYTE   W24
        BYTE           N12     Cn3
        BYTE           N10     Gn3   v121
        BYTE   W18
        BYTE           N11     Cs3   v124
        BYTE           N11     Gs3
        BYTE   W18
// 049   ----------------------------------------
        BYTE   W96
// 050   ----------------------------------------
        BYTE   W96
// 051   ----------------------------------------
        BYTE   W96
// 052   ----------------------------------------
        BYTE   W96
// 053   ----------------------------------------
        BYTE   W06
        BYTE           PAN     c_v-48
        BYTE           VOICE   39
        BYTE           N06     As1   v093
        BYTE   W12
        BYTE           N07     As2
        BYTE   W12
        BYTE           N05     As1
        BYTE   W06
        BYTE           N06     As2
        BYTE   W12
        BYTE           N05     As1
        BYTE   W06
        BYTE           N07     As2
        BYTE   W12
        BYTE           N05     As1
        BYTE   W06
        BYTE           N09     As2
        BYTE   W12
        BYTE           N05     As1
        BYTE   W06
        BYTE           N06     As2
        BYTE   W06
// 054   ----------------------------------------
eo3palaceofsplendor_1_54:
        BYTE   W06
        BYTE           N06     As1   v093
        BYTE   W12
        BYTE           N07     As2
        BYTE   W12
        BYTE           N05     As1
        BYTE   W06
        BYTE           N06     As2
        BYTE   W12
        BYTE           N05     As1
        BYTE   W06
        BYTE           N07     As2
        BYTE   W12
        BYTE           N05     As1
        BYTE   W06
        BYTE           N09     As2
        BYTE   W12
        BYTE           N05     As1
        BYTE   W06
        BYTE                   As2
        BYTE   W06
        BYTE   PEND
// 055   ----------------------------------------
eo3palaceofsplendor_1_55:
        BYTE           N05     As1   v093
        BYTE   W06
        BYTE           N06
        BYTE   W12
        BYTE           N07     As2
        BYTE   W12
        BYTE           N05     As1
        BYTE   W06
        BYTE           N06     As2
        BYTE   W12
        BYTE           N05     As1
        BYTE   W06
        BYTE           N07     As2
        BYTE   W12
        BYTE           N05     As1
        BYTE   W06
        BYTE           N09     As2
        BYTE   W12
        BYTE           N05     As1
        BYTE   W06
        BYTE           N06     As2
        BYTE   W06
        BYTE   PEND
// 056   ----------------------------------------
        BYTE   PATT
         POIN2  eo3palaceofsplendor_1_54
// 057   ----------------------------------------
        BYTE   PATT
         POIN2  eo3palaceofsplendor_1_55
// 058   ----------------------------------------
        BYTE   PATT
         POIN2  eo3palaceofsplendor_1_54
// 059   ----------------------------------------
        BYTE   PATT
         POIN2  eo3palaceofsplendor_1_55
// 060   ----------------------------------------
        BYTE   PATT
         POIN2  eo3palaceofsplendor_1_54
// 061   ----------------------------------------
        BYTE           VOICE   50
        BYTE           PAN     c_v+40
        BYTE   GoTo
         POIN2  eo3palaceofsplendor_1_LOOP
        BYTE   FINE

//****************** Track 2 (Midi-Chn.2) ******************//

eo3palaceofsplendor_2:
        BYTE   KEYSH   eo3palaceofsplendor_key+0
// 000   ----------------------------------------
eo3palaceofsplendor_2_LOOP:
        BYTE           VOICE   61
        BYTE           VOL     54
        BYTE           BEND    c_v+3
        BYTE           MOD     1
        BYTE           N92     As3   v127   gtp3
        BYTE   W96
// 001   ----------------------------------------
eo3palaceofsplendor_2_1:
        BYTE           N76     Fn4   v127   gtp1
        BYTE   W84
        BYTE           N05     Ds4
        BYTE   W06
        BYTE                   Fn4
        BYTE   W06
        BYTE   PEND
// 002   ----------------------------------------
eo3palaceofsplendor_2_2:
        BYTE           N40     Gs4   v127   gtp1
        BYTE   W48
        BYTE           N11     Fs4
        BYTE   W12
        BYTE           N06     Fs4   v080
        BYTE   W06
        BYTE           N11     Fn4   v127
        BYTE   W12
        BYTE           N06     Fn4   v080
        BYTE   W06
        BYTE           N05     Ds4   v127
        BYTE   W06
        BYTE           N06     Ds4   v080
        BYTE   W06
        BYTE   PEND
// 003   ----------------------------------------
eo3palaceofsplendor_2_3:
        BYTE           N11     Fn4   v127
        BYTE   W12
        BYTE           N06     Fn4   v080
        BYTE   W06
        BYTE           N11     Cn4   v127
        BYTE   W12
        BYTE           N06     Cn4   v080
        BYTE   W06
        BYTE           N40     As3   v127   gtp1
        BYTE   W48
        BYTE           N05     Gs3
        BYTE   W06
        BYTE                   As3
        BYTE   W06
        BYTE   PEND
// 004   ----------------------------------------
eo3palaceofsplendor_2_4:
        BYTE           N11     As3   v127
        BYTE   W12
        BYTE           N06     As3   v080
        BYTE   W06
        BYTE           N11     As3   v127
        BYTE   W12
        BYTE           N06     As3   v080
        BYTE   W06
        BYTE           N40     Ds4   v127   gtp1
        BYTE   W48
        BYTE           N05
        BYTE   W06
        BYTE                   Cs4
        BYTE   W06
        BYTE   PEND
// 005   ----------------------------------------
eo3palaceofsplendor_2_5:
        BYTE           N11     Cn4   v127
        BYTE   W12
        BYTE           N06     Cn4   v080
        BYTE   W06
        BYTE           N11     Ds4   v127
        BYTE   W12
        BYTE           N06     Ds4   v080
        BYTE   W06
        BYTE           N40     Fn4   v127   gtp1
        BYTE   W48
        BYTE           N05     Ds4
        BYTE   W06
        BYTE                   Fn4
        BYTE   W06
        BYTE   PEND
// 006   ----------------------------------------
eo3palaceofsplendor_2_6:
        BYTE           N11     Fn4   v127
        BYTE   W12
        BYTE           N06     Fn4   v080
        BYTE   W06
        BYTE           N11     Fn4   v127
        BYTE   W12
        BYTE           N06     Fn4   v080
        BYTE   W06
        BYTE           N28     As4   v127   gtp1
        BYTE   W32
        BYTE           N06     As4   v080
        BYTE   W04
        BYTE           N23     Cn5   v127
        BYTE   W24
        BYTE   PEND
// 007   ----------------------------------------
        BYTE           N92     Fn4   v127   gtp3
        BYTE   W96
// 008   ----------------------------------------
        BYTE   W96
// 009   ----------------------------------------
        BYTE           BEND    c_v+1
        BYTE           VOICE   39
        BYTE           N02     Dn2   v080
        BYTE   W06
        BYTE                   Dn2
        BYTE   W06
        BYTE                   Dn3
        BYTE   W06
        BYTE                   Dn2
        BYTE   W12
        BYTE                   Dn2
        BYTE   W06
        BYTE                   Dn3
        BYTE   W06
        BYTE                   Dn2
        BYTE   W06
        BYTE                   Dn2
        BYTE   W06
        BYTE                   Dn2
        BYTE   W06
        BYTE                   Dn3
        BYTE   W06
        BYTE                   Dn2
        BYTE   W12
        BYTE                   Dn2
        BYTE   W06
        BYTE                   Dn3
        BYTE   W06
        BYTE                   Dn2
        BYTE   W06
// 010   ----------------------------------------
eo3palaceofsplendor_2_10:
        BYTE           N02     Dn2   v080
        BYTE   W06
        BYTE                   Dn2
        BYTE   W06
        BYTE                   Dn3
        BYTE   W06
        BYTE                   Dn2
        BYTE   W12
        BYTE                   Dn2
        BYTE   W06
        BYTE                   Dn3
        BYTE   W06
        BYTE                   Dn2
        BYTE   W06
        BYTE                   Dn2
        BYTE   W06
        BYTE                   Dn2
        BYTE   W06
        BYTE                   Dn3
        BYTE   W06
        BYTE                   Dn2
        BYTE   W12
        BYTE                   Dn2
        BYTE   W06
        BYTE                   Dn3
        BYTE   W06
        BYTE                   Dn2
        BYTE   W06
        BYTE   PEND
// 011   ----------------------------------------
eo3palaceofsplendor_2_11:
        BYTE           N13     Dn3   v090
        BYTE   W24
        BYTE           N09     Cn3
        BYTE   W24
        BYTE           N14     Ds3
        BYTE   W24
        BYTE           N12     Fn3
        BYTE   W24
        BYTE   PEND
// 012   ----------------------------------------
        BYTE   PATT
         POIN2  eo3palaceofsplendor_2_10
// 013   ----------------------------------------
        BYTE   PATT
         POIN2  eo3palaceofsplendor_2_10
// 014   ----------------------------------------
        BYTE   PATT
         POIN2  eo3palaceofsplendor_2_11
// 015   ----------------------------------------
eo3palaceofsplendor_2_15:
        BYTE           N02     Fn2   v075
        BYTE   W06
        BYTE                   Fn2
        BYTE   W12
        BYTE                   En2
        BYTE   W06
        BYTE                   En2
        BYTE   W12
        BYTE                   An2
        BYTE   W06
        BYTE           N11
        BYTE   W12
        BYTE           N05
        BYTE   W06
        BYTE                   An3
        BYTE   W06
        BYTE                   An2
        BYTE   W06
        BYTE                   An3
        BYTE   W06
        BYTE                   An2
        BYTE   W06
        BYTE                   An2
        BYTE   W06
        BYTE                   An3
        BYTE   W06
        BYTE   PEND
// 016   ----------------------------------------
        BYTE   PATT
         POIN2  eo3palaceofsplendor_2_15
// 017   ----------------------------------------
eo3palaceofsplendor_2_17:
        BYTE           N02     Gn2   v075
        BYTE   W06
        BYTE                   Gn2
        BYTE   W12
        BYTE                   Fs2
        BYTE   W06
        BYTE                   Fs2
        BYTE   W12
        BYTE                   Bn2
        BYTE   W06
        BYTE           N11
        BYTE   W12
        BYTE           N05
        BYTE   W06
        BYTE                   Bn3
        BYTE   W06
        BYTE                   Bn2
        BYTE   W06
        BYTE                   Bn3
        BYTE   W06
        BYTE                   Bn2
        BYTE   W06
        BYTE                   Bn2
        BYTE   W06
        BYTE                   Bn3
        BYTE   W06
        BYTE   PEND
// 018   ----------------------------------------
        BYTE   PATT
         POIN2  eo3palaceofsplendor_2_17
// 019   ----------------------------------------
        BYTE   PATT
         POIN2  eo3palaceofsplendor_2_15
// 020   ----------------------------------------
        BYTE   PATT
         POIN2  eo3palaceofsplendor_2_15
// 021   ----------------------------------------
        BYTE   PATT
         POIN2  eo3palaceofsplendor_2_17
// 022   ----------------------------------------
        BYTE   PATT
         POIN2  eo3palaceofsplendor_2_17
// 023   ----------------------------------------
eo3palaceofsplendor_2_23:
        BYTE           N05     Cs3   v076
        BYTE   W06
        BYTE                   Cs4
        BYTE   W06
        BYTE                   Cs3
        BYTE   W06
        BYTE                   An2
        BYTE   W06
        BYTE                   An3
        BYTE   W06
        BYTE                   An2
        BYTE   W06
        BYTE           N17     Bn2   v084
        BYTE   W18
        BYTE           N05     Bn2   v076
        BYTE   W06
        BYTE                   Bn3
        BYTE   W06
        BYTE                   Bn2
        BYTE   W06
        BYTE                   Bn3
        BYTE   W06
        BYTE                   Bn2
        BYTE   W06
        BYTE                   Bn2
        BYTE   W06
        BYTE                   Bn3
        BYTE   W06
        BYTE   PEND
// 024   ----------------------------------------
eo3palaceofsplendor_2_24:
        BYTE           N05     Bn2   v076
        BYTE   W06
        BYTE                   Bn3
        BYTE   W06
        BYTE                   Bn2
        BYTE   W06
        BYTE                   Bn2
        BYTE   W06
        BYTE                   Bn3
        BYTE   W06
        BYTE                   Bn2
        BYTE   W06
        BYTE                   Bn2
        BYTE   W06
        BYTE                   Bn3
        BYTE   W12
        BYTE                   Cs3
        BYTE   W06
        BYTE                   Fs3
        BYTE   W06
        BYTE                   Bn3
        BYTE   W06
        BYTE                   An3
        BYTE   W06
        BYTE                   En3
        BYTE   W06
        BYTE                   Bn2
        BYTE   W06
        BYTE                   Fs2
        BYTE   W06
        BYTE   PEND
// 025   ----------------------------------------
eo3palaceofsplendor_2_25:
        BYTE           N05     Cs3   v076
        BYTE   W06
        BYTE                   Cs4
        BYTE   W06
        BYTE                   Cs3
        BYTE   W06
        BYTE                   An2
        BYTE   W06
        BYTE                   An3
        BYTE   W06
        BYTE                   An2
        BYTE   W06
        BYTE                   Bn2
        BYTE   W06
        BYTE                   Bn3
        BYTE   W06
        BYTE                   Bn2
        BYTE   W06
        BYTE                   Bn3
        BYTE   W06
        BYTE           N17     Fn2   v084
        BYTE   W18
        BYTE           N05     Fn2   v076
        BYTE   W06
        BYTE                   Fn2
        BYTE   W06
        BYTE                   Fn3
        BYTE   W06
        BYTE   PEND
// 026   ----------------------------------------
eo3palaceofsplendor_2_26:
        BYTE           N05     Fn2   v076
        BYTE   W06
        BYTE                   Fn3
        BYTE   W06
        BYTE                   Fn2
        BYTE   W06
        BYTE                   Fn2
        BYTE   W06
        BYTE                   Fn3
        BYTE   W06
        BYTE                   Fn2
        BYTE   W06
        BYTE                   Fn2
        BYTE   W06
        BYTE                   Fn3
        BYTE   W12
        BYTE                   Gs2   v084
        BYTE   W06
        BYTE                   Cs3
        BYTE   W06
        BYTE                   Fs3
        BYTE   W06
        BYTE                   En3
        BYTE   W06
        BYTE                   Bn2
        BYTE   W06
        BYTE                   Fs2
        BYTE   W06
        BYTE                   Cs2
        BYTE   W06
        BYTE   PEND
// 027   ----------------------------------------
        BYTE   PATT
         POIN2  eo3palaceofsplendor_2_23
// 028   ----------------------------------------
        BYTE   PATT
         POIN2  eo3palaceofsplendor_2_24
// 029   ----------------------------------------
        BYTE   PATT
         POIN2  eo3palaceofsplendor_2_25
// 030   ----------------------------------------
        BYTE   PATT
         POIN2  eo3palaceofsplendor_2_26
// 031   ----------------------------------------
eo3palaceofsplendor_2_31:
        BYTE           N08     Dn3   v080
        BYTE   W18
        BYTE           N56     Gn2   v080   gtp3
        BYTE   W78
        BYTE   PEND
// 032   ----------------------------------------
eo3palaceofsplendor_2_32:
        BYTE           N08     Dn3   v080
        BYTE   W18
        BYTE           N56     Gs2   v080   gtp3
        BYTE   W78
        BYTE   PEND
// 033   ----------------------------------------
        BYTE   PATT
         POIN2  eo3palaceofsplendor_2_31
// 034   ----------------------------------------
        BYTE           N08     Cs2   v080
        BYTE   W18
        BYTE           N56     Gs2   v080   gtp3
        BYTE   W78
// 035   ----------------------------------------
        BYTE   PATT
         POIN2  eo3palaceofsplendor_2_31
// 036   ----------------------------------------
        BYTE   PATT
         POIN2  eo3palaceofsplendor_2_32
// 037   ----------------------------------------
        BYTE   PATT
         POIN2  eo3palaceofsplendor_2_31
// 038   ----------------------------------------
        BYTE           N08     Cs2   v080
        BYTE   W18
        BYTE           N23     Gs2
        BYTE   W30
        BYTE           N08     Dn2
        BYTE   W18
        BYTE           N23     An2
        BYTE   W30
// 039   ----------------------------------------
        BYTE           N08     Ds2
        BYTE   W18
        BYTE           N68     As2   v080   gtp3
        BYTE   W78
// 040   ----------------------------------------
        BYTE   W12
        BYTE           N05     An2
        BYTE   W18
        BYTE           N17     Gs2
        BYTE   W18
        BYTE           N05     Gn2
        BYTE   W48
// 041   ----------------------------------------
        BYTE   PATT
         POIN2  eo3palaceofsplendor_2_15
// 042   ----------------------------------------
        BYTE   PATT
         POIN2  eo3palaceofsplendor_2_15
// 043   ----------------------------------------
        BYTE   PATT
         POIN2  eo3palaceofsplendor_2_17
// 044   ----------------------------------------
        BYTE   PATT
         POIN2  eo3palaceofsplendor_2_17
// 045   ----------------------------------------
        BYTE   PATT
         POIN2  eo3palaceofsplendor_2_15
// 046   ----------------------------------------
        BYTE   PATT
         POIN2  eo3palaceofsplendor_2_15
// 047   ----------------------------------------
        BYTE   PATT
         POIN2  eo3palaceofsplendor_2_17
// 048   ----------------------------------------
        BYTE           N02     Gn2   v075
        BYTE   W06
        BYTE                   Gn2
        BYTE   W12
        BYTE                   Fs2
        BYTE   W06
        BYTE                   Fs2
        BYTE   W12
        BYTE                   Bn2
        BYTE   W06
        BYTE           N11
        BYTE   W12
        BYTE           N05
        BYTE   W06
        BYTE                   Cn4
        BYTE   W06
        BYTE                   Cn3
        BYTE   W06
        BYTE                   Cn4
        BYTE   W06
        BYTE                   Cs3
        BYTE   W06
        BYTE                   Cs3
        BYTE   W06
        BYTE                   Cs4
        BYTE   W06
// 049   ----------------------------------------
        BYTE   W96
// 050   ----------------------------------------
        BYTE   W96
// 051   ----------------------------------------
        BYTE   W96
// 052   ----------------------------------------
        BYTE   W96
// 053   ----------------------------------------
        BYTE           PAN     c_v+48
        BYTE           N06     As1   v081
        BYTE   W12
        BYTE           N07     As2
        BYTE   W12
        BYTE           N05     As1
        BYTE   W06
        BYTE           N06     As2
        BYTE   W12
        BYTE           N05     As1
        BYTE   W06
        BYTE           N07     As2
        BYTE   W12
        BYTE           N05     As1
        BYTE   W06
        BYTE           N09     As2
        BYTE   W12
        BYTE           N05     As1
        BYTE   W06
        BYTE           N06     As2
        BYTE   W12
// 054   ----------------------------------------
eo3palaceofsplendor_2_54:
        BYTE           N06     As1   v081
        BYTE   W12
        BYTE           N07     As2
        BYTE   W12
        BYTE           N05     As1
        BYTE   W06
        BYTE           N06     As2
        BYTE   W12
        BYTE           N05     As1
        BYTE   W06
        BYTE           N07     As2
        BYTE   W12
        BYTE           N05     As1
        BYTE   W06
        BYTE           N09     As2
        BYTE   W12
        BYTE           N05     As1
        BYTE   W06
        BYTE                   As2
        BYTE   W06
        BYTE                   As1
        BYTE   W06
        BYTE   PEND
// 055   ----------------------------------------
eo3palaceofsplendor_2_55:
        BYTE           N06     As1   v081
        BYTE   W12
        BYTE           N07     As2
        BYTE   W12
        BYTE           N05     As1
        BYTE   W06
        BYTE           N06     As2
        BYTE   W12
        BYTE           N05     As1
        BYTE   W06
        BYTE           N07     As2
        BYTE   W12
        BYTE           N05     As1
        BYTE   W06
        BYTE           N09     As2
        BYTE   W12
        BYTE           N05     As1
        BYTE   W06
        BYTE           N06     As2
        BYTE   W12
        BYTE   PEND
// 056   ----------------------------------------
        BYTE   PATT
         POIN2  eo3palaceofsplendor_2_54
// 057   ----------------------------------------
        BYTE   PATT
         POIN2  eo3palaceofsplendor_2_55
// 058   ----------------------------------------
        BYTE   PATT
         POIN2  eo3palaceofsplendor_2_54
// 059   ----------------------------------------
        BYTE   PATT
         POIN2  eo3palaceofsplendor_2_55
// 060   ----------------------------------------
        BYTE           N06     As1   v081
        BYTE   W12
        BYTE           N07     As2
        BYTE   W12
        BYTE           N05     As1
        BYTE   W06
        BYTE           N06     As2
        BYTE   W12
        BYTE           N05     As1
        BYTE   W06
        BYTE           N07     As2
        BYTE   W12
        BYTE           N05     As1
        BYTE   W06
        BYTE           N09     As2
        BYTE   W12
        BYTE           N05     As1
        BYTE   W06
        BYTE                   As2
        BYTE   W12
// 061   ----------------------------------------
        BYTE           VOICE   61
        BYTE           PAN     c_v+0
        BYTE           BEND    c_v+3
        BYTE   GoTo
         POIN2  eo3palaceofsplendor_2_LOOP
        BYTE   FINE

//****************** Track 3 (Midi-Chn.3) ******************//

eo3palaceofsplendor_3:
        BYTE   KEYSH   eo3palaceofsplendor_key+0
// 000   ----------------------------------------
eo3palaceofsplendor_3_LOOP:
        BYTE           VOICE   54
        BYTE           VOL     48
        BYTE           BEND    c_v-2
        BYTE           N92     Fn3   v070   gtp3
        BYTE                   As3
        BYTE   W96
// 001   ----------------------------------------
        BYTE                   Gn3
        BYTE           N92     Cn4   v070   gtp3
        BYTE   W96
// 002   ----------------------------------------
        BYTE                   Gs3
        BYTE           N92     Cs4   v070   gtp3
        BYTE   W96
// 003   ----------------------------------------
eo3palaceofsplendor_3_3:
        BYTE           N92     As3   v070   gtp3
        BYTE                   Ds4
        BYTE   W96
        BYTE   PEND
// 004   ----------------------------------------
        BYTE   PATT
         POIN2  eo3palaceofsplendor_3_3
// 005   ----------------------------------------
eo3palaceofsplendor_3_5:
        BYTE           N92     Cn4   v070   gtp3
        BYTE                   Fn4
        BYTE   W96
        BYTE   PEND
// 006   ----------------------------------------
        BYTE   PATT
         POIN2  eo3palaceofsplendor_3_5
// 007   ----------------------------------------
        BYTE           TIE     Cn4   v070
        BYTE           TIE     Fn4
        BYTE   W96
// 008   ----------------------------------------
        BYTE   W02
        BYTE           EOT     Cn4
        BYTE                   Fn4
        BYTE   W92
        BYTE   W02
// 009   ----------------------------------------
eo3palaceofsplendor_3_9:
        BYTE           TIE     Dn4   v055
        BYTE           TIE     Fn4
        BYTE   W96
        BYTE   PEND
// 010   ----------------------------------------
eo3palaceofsplendor_3_10:
        BYTE   W92
        BYTE   W03
        BYTE           EOT     Dn4
        BYTE                   Fn4
        BYTE   W01
        BYTE   PEND
// 011   ----------------------------------------
eo3palaceofsplendor_3_11:
        BYTE           N14     Fn4   v095
        BYTE   W24
        BYTE                   En4
        BYTE   W24
        BYTE           N15     Fs4
        BYTE   W24
        BYTE           N14     Gs4
        BYTE   W24
        BYTE   PEND
// 012   ----------------------------------------
        BYTE   PATT
         POIN2  eo3palaceofsplendor_3_9
// 013   ----------------------------------------
        BYTE   PATT
         POIN2  eo3palaceofsplendor_3_10
// 014   ----------------------------------------
        BYTE   PATT
         POIN2  eo3palaceofsplendor_3_11
// 015   ----------------------------------------
eo3palaceofsplendor_3_15:
        BYTE           N36     En3   v060   gtp1
        BYTE           N36     En4   v074
        BYTE   W36
        BYTE           TIE     An3   v061
        BYTE           TIE     An4   v076
        BYTE   W60
        BYTE   PEND
// 016   ----------------------------------------
eo3palaceofsplendor_3_16:
        BYTE   W88
        BYTE   W01
        BYTE           EOT     An3
        BYTE                   An4
        BYTE   W07
        BYTE   PEND
// 017   ----------------------------------------
eo3palaceofsplendor_3_17:
        BYTE           N36     Fs3   v060   gtp1
        BYTE           N36     Fs4   v074
        BYTE   W36
        BYTE           TIE     Bn3   v061
        BYTE           TIE     Bn4   v076
        BYTE   W60
        BYTE   PEND
// 018   ----------------------------------------
eo3palaceofsplendor_3_18:
        BYTE   W88
        BYTE   W01
        BYTE           EOT     Bn3
        BYTE                   Bn4
        BYTE   W07
        BYTE   PEND
// 019   ----------------------------------------
        BYTE   PATT
         POIN2  eo3palaceofsplendor_3_15
// 020   ----------------------------------------
        BYTE   PATT
         POIN2  eo3palaceofsplendor_3_16
// 021   ----------------------------------------
        BYTE   PATT
         POIN2  eo3palaceofsplendor_3_17
// 022   ----------------------------------------
        BYTE   PATT
         POIN2  eo3palaceofsplendor_3_18
// 023   ----------------------------------------
        BYTE           N17     Cs4   v085
        BYTE   W18
        BYTE                   An3
        BYTE   W18
        BYTE           TIE     Bn3
        BYTE   W60
// 024   ----------------------------------------
        BYTE   W56
        BYTE   W03
        BYTE           EOT
        BYTE   W36
        BYTE   W01
// 025   ----------------------------------------
        BYTE           N23     Cs4
        BYTE   W18
        BYTE           N17     An3
        BYTE   W18
        BYTE                   Bn3
        BYTE   W24
        BYTE           N80     Gn3   v085   gtp3
        BYTE   W36
// 026   ----------------------------------------
        BYTE   W96
// 027   ----------------------------------------
        BYTE           N18     Cs4
        BYTE   W18
        BYTE                   An3
        BYTE   W18
        BYTE           TIE     Bn3
        BYTE   W60
// 028   ----------------------------------------
        BYTE   W60
        BYTE           EOT
        BYTE   W36
// 029   ----------------------------------------
        BYTE           N24     Cs4
        BYTE   W18
        BYTE           N18     An3
        BYTE   W18
        BYTE                   Bn3
        BYTE   W24
        BYTE           N84     Gn3
        BYTE   W36
// 030   ----------------------------------------
        BYTE   W48
        BYTE           VOICE   103
        BYTE           N06     Fn1   v048
        BYTE   W06
        BYTE           N05     Gs2   v073
        BYTE   W06
        BYTE                   Cs3
        BYTE   W06
        BYTE                   Fs3
        BYTE   W06
        BYTE                   En3
        BYTE   W06
        BYTE                   Bn2
        BYTE   W06
        BYTE                   Fs2
        BYTE   W06
        BYTE                   Cs2
        BYTE   W06
// 031   ----------------------------------------
eo3palaceofsplendor_3_31:
        BYTE           N05     Dn2   v073
        BYTE   W06
        BYTE                   Dn3
        BYTE   W06
        BYTE                   Dn2
        BYTE   W06
        BYTE           N11     Gn1
        BYTE   W12
        BYTE           N05
        BYTE   W06
        BYTE                   Gn2
        BYTE   W06
        BYTE                   Gn1
        BYTE   W06
        BYTE                   Gn2
        BYTE   W06
        BYTE                   Dn2
        BYTE   W06
        BYTE                   Gn2
        BYTE   W06
        BYTE                   Dn2
        BYTE   W06
        BYTE                   Gn2
        BYTE   W06
        BYTE                   Dn3
        BYTE   W06
        BYTE                   Gn3
        BYTE   W06
        BYTE                   Gn2
        BYTE   W06
        BYTE   PEND
// 032   ----------------------------------------
eo3palaceofsplendor_3_32:
        BYTE           N05     Dn2   v073
        BYTE   W06
        BYTE                   Dn3
        BYTE   W06
        BYTE                   Dn2
        BYTE   W06
        BYTE           N11     Gs1
        BYTE   W12
        BYTE           N05
        BYTE   W06
        BYTE                   Gs2
        BYTE   W06
        BYTE                   Gs1
        BYTE   W06
        BYTE                   Gs2
        BYTE   W06
        BYTE                   Ds2
        BYTE   W06
        BYTE                   Gs2
        BYTE   W06
        BYTE                   Ds2
        BYTE   W06
        BYTE                   Gs2
        BYTE   W06
        BYTE                   Ds3
        BYTE   W06
        BYTE                   Gs3
        BYTE   W06
        BYTE                   Gs2
        BYTE   W06
        BYTE   PEND
// 033   ----------------------------------------
        BYTE   PATT
         POIN2  eo3palaceofsplendor_3_31
// 034   ----------------------------------------
        BYTE           N05     Cs2   v073
        BYTE   W06
        BYTE                   Cs3
        BYTE   W06
        BYTE                   Cs2
        BYTE   W06
        BYTE           N11     Gs1
        BYTE   W12
        BYTE           N05
        BYTE   W06
        BYTE                   Gs2
        BYTE   W06
        BYTE                   Gs1
        BYTE   W06
        BYTE                   Gs2
        BYTE   W06
        BYTE                   Ds2
        BYTE   W06
        BYTE                   Gs2
        BYTE   W06
        BYTE                   Ds2
        BYTE   W06
        BYTE                   Gs2
        BYTE   W06
        BYTE                   Ds3
        BYTE   W06
        BYTE                   Gs3
        BYTE   W06
        BYTE                   Gs2
        BYTE   W06
// 035   ----------------------------------------
        BYTE   PATT
         POIN2  eo3palaceofsplendor_3_31
// 036   ----------------------------------------
        BYTE   PATT
         POIN2  eo3palaceofsplendor_3_32
// 037   ----------------------------------------
        BYTE   PATT
         POIN2  eo3palaceofsplendor_3_31
// 038   ----------------------------------------
        BYTE           N05     Cs2   v073
        BYTE   W06
        BYTE                   Cs3
        BYTE   W06
        BYTE                   Cs2
        BYTE   W06
        BYTE           N11     Gs1
        BYTE   W12
        BYTE           N05
        BYTE   W06
        BYTE                   Gs2
        BYTE   W06
        BYTE                   Gs1
        BYTE   W06
        BYTE                   Dn2
        BYTE   W06
        BYTE                   Dn3
        BYTE   W06
        BYTE                   Dn2
        BYTE   W06
        BYTE           N11     An1
        BYTE   W12
        BYTE           N05
        BYTE   W06
        BYTE                   An2
        BYTE   W06
        BYTE                   An1
        BYTE   W06
// 039   ----------------------------------------
        BYTE                   Ds2
        BYTE   W06
        BYTE                   Ds3
        BYTE   W06
        BYTE                   Ds2
        BYTE   W06
        BYTE           N06     Ds2   v036
        BYTE   W06
        BYTE           N11     As1   v073
        BYTE   W12
        BYTE           N05
        BYTE   W06
        BYTE                   As2
        BYTE   W06
        BYTE                   As1
        BYTE   W06
        BYTE                   As1
        BYTE   W06
        BYTE                   As2
        BYTE   W06
        BYTE                   As1
        BYTE   W06
        BYTE                   As1
        BYTE   W06
        BYTE                   As1
        BYTE   W06
        BYTE                   As2
        BYTE   W06
        BYTE                   As1
        BYTE   W06
// 040   ----------------------------------------
        BYTE                   As2   v052
        BYTE   W06
        BYTE                   As1
        BYTE   W06
        BYTE                   An2   v073
        BYTE   W06
        BYTE                   An1
        BYTE   W06
        BYTE                   An1
        BYTE   W06
        BYTE                   Gs2
        BYTE   W06
        BYTE                   Gs1
        BYTE   W06
        BYTE                   Gs1
        BYTE   W06
        BYTE                   Gn2
        BYTE   W06
        BYTE           N06     Gn2   v036
        BYTE   W42
// 041   ----------------------------------------
        BYTE           VOICE   54
        BYTE           N36     En3   v060   gtp1
        BYTE           N36     En4   v074
        BYTE   W36
        BYTE           TIE     An3   v061
        BYTE           TIE     An4   v076
        BYTE   W60
// 042   ----------------------------------------
        BYTE   PATT
         POIN2  eo3palaceofsplendor_3_16
// 043   ----------------------------------------
        BYTE   PATT
         POIN2  eo3palaceofsplendor_3_17
// 044   ----------------------------------------
        BYTE   PATT
         POIN2  eo3palaceofsplendor_3_18
// 045   ----------------------------------------
        BYTE   PATT
         POIN2  eo3palaceofsplendor_3_15
// 046   ----------------------------------------
        BYTE   PATT
         POIN2  eo3palaceofsplendor_3_16
// 047   ----------------------------------------
        BYTE   PATT
         POIN2  eo3palaceofsplendor_3_17
// 048   ----------------------------------------
        BYTE   W44
        BYTE   W03
        BYTE           EOT     Bn3
        BYTE                   Bn4
        BYTE   W13
        BYTE           N06     Cn3   v064
        BYTE           N10     Cn4   v076
        BYTE   W18
        BYTE           N03     Cs3
        BYTE           N04     Cs4   v079
        BYTE   W18
// 049   ----------------------------------------
        BYTE           BEND    c_v+2
        BYTE           VOICE   81
        BYTE           N05     As1   v127
        BYTE   W06
        BYTE                   Fn2
        BYTE   W06
        BYTE                   As2
        BYTE   W06
        BYTE                   As1
        BYTE   W06
        BYTE                   Fn2
        BYTE   W06
        BYTE                   Cn3
        BYTE   W06
        BYTE                   As1
        BYTE   W06
        BYTE                   Fn2
        BYTE   W06
        BYTE                   As2
        BYTE   W06
        BYTE                   As1
        BYTE   W06
        BYTE                   Fn2
        BYTE   W06
        BYTE                   Cn3
        BYTE   W06
        BYTE                   As1
        BYTE   W06
        BYTE                   Fn2
        BYTE   W06
        BYTE                   As2
        BYTE   W06
        BYTE                   Fn2
        BYTE   W06
// 050   ----------------------------------------
eo3palaceofsplendor_3_50:
        BYTE           N05     As1   v127
        BYTE   W06
        BYTE                   Fn2
        BYTE   W06
        BYTE                   As2
        BYTE   W06
        BYTE                   As1
        BYTE   W06
        BYTE                   Fn2
        BYTE   W06
        BYTE                   Cn3
        BYTE   W06
        BYTE                   As1
        BYTE   W06
        BYTE                   Fn2
        BYTE   W06
        BYTE                   As2
        BYTE   W06
        BYTE                   As1
        BYTE   W06
        BYTE                   Fn2
        BYTE   W06
        BYTE                   Cn3
        BYTE   W06
        BYTE                   As1
        BYTE   W06
        BYTE                   Fn2
        BYTE   W06
        BYTE                   As2
        BYTE   W06
        BYTE                   Fn2
        BYTE   W06
        BYTE   PEND
// 051   ----------------------------------------
        BYTE   PATT
         POIN2  eo3palaceofsplendor_3_50
// 052   ----------------------------------------
        BYTE   PATT
         POIN2  eo3palaceofsplendor_3_50
// 053   ----------------------------------------
        BYTE   PATT
         POIN2  eo3palaceofsplendor_3_50
// 054   ----------------------------------------
        BYTE   PATT
         POIN2  eo3palaceofsplendor_3_50
// 055   ----------------------------------------
        BYTE   PATT
         POIN2  eo3palaceofsplendor_3_50
// 056   ----------------------------------------
        BYTE   PATT
         POIN2  eo3palaceofsplendor_3_50
// 057   ----------------------------------------
        BYTE   PATT
         POIN2  eo3palaceofsplendor_3_50
// 058   ----------------------------------------
        BYTE   PATT
         POIN2  eo3palaceofsplendor_3_50
// 059   ----------------------------------------
        BYTE   PATT
         POIN2  eo3palaceofsplendor_3_50
// 060   ----------------------------------------
        BYTE   PATT
         POIN2  eo3palaceofsplendor_3_50
// 061   ----------------------------------------
        BYTE           VOICE   54
        BYTE           BEND    c_v-2
        BYTE   GoTo
         POIN2  eo3palaceofsplendor_3_LOOP
        BYTE   FINE

//****************** Track 4 (Midi-Chn.4) ******************//

eo3palaceofsplendor_4:
        BYTE   KEYSH   eo3palaceofsplendor_key+0
// 000   ----------------------------------------
eo3palaceofsplendor_4_LOOP:
        BYTE           VOICE   50
        BYTE           VOL     32
        BYTE           PAN     c_v-32
        BYTE           N92     As1   v100   gtp3
        BYTE   W96
// 001   ----------------------------------------
        BYTE                   Gn1
        BYTE   W96
// 002   ----------------------------------------
        BYTE                   Fs1
        BYTE   W96
// 003   ----------------------------------------
        BYTE                   Cs1
        BYTE   W96
// 004   ----------------------------------------
        BYTE                   Cn2
        BYTE   W96
// 005   ----------------------------------------
        BYTE                   Cs1
        BYTE   W96
// 006   ----------------------------------------
        BYTE                   Cn1
        BYTE   W96
// 007   ----------------------------------------
        BYTE                   Fn1
        BYTE   W96
// 008   ----------------------------------------
        BYTE   W96
// 009   ----------------------------------------
eo3palaceofsplendor_4_9:
        BYTE           VOICE   103
        BYTE           TIE     Dn2   v064
        BYTE   W96
        BYTE   PEND
// 010   ----------------------------------------
        BYTE   W84
        BYTE   W02
        BYTE           EOT
        BYTE   W10
// 011   ----------------------------------------
        BYTE           PAN     c_v-48
        BYTE           VOICE   48
        BYTE           N14     An2   v117
        BYTE   W24
        BYTE           N09     Gn2
        BYTE   W24
        BYTE                   As2
        BYTE   W24
        BYTE           N12     Cn3
        BYTE   W24
// 012   ----------------------------------------
        BYTE   PATT
         POIN2  eo3palaceofsplendor_4_9
// 013   ----------------------------------------
        BYTE   W84
        BYTE   W02
        BYTE           EOT     Dn2
        BYTE   W10
// 014   ----------------------------------------
        BYTE           VOICE   48
        BYTE           N14     An2   v117
        BYTE   W24
        BYTE           N09     Gn2
        BYTE   W24
        BYTE                   As2
        BYTE   W24
        BYTE           N12     Cn3
        BYTE   W24
// 015   ----------------------------------------
eo3palaceofsplendor_4_15:
        BYTE           N08     Fn2   v117
        BYTE   W18
        BYTE           N07     En2
        BYTE   W18
        BYTE           N11     An2
        BYTE   W60
        BYTE   PEND
// 016   ----------------------------------------
eo3palaceofsplendor_4_16:
        BYTE           N09     Fn2   v117
        BYTE   W18
        BYTE           N07     En2
        BYTE   W18
        BYTE           N12     An2
        BYTE   W60
        BYTE   PEND
// 017   ----------------------------------------
eo3palaceofsplendor_4_17:
        BYTE           N09     Gn2   v117
        BYTE   W18
        BYTE           N07     Fs2
        BYTE   W18
        BYTE           N12     Bn2
        BYTE   W60
        BYTE   PEND
// 018   ----------------------------------------
        BYTE   PATT
         POIN2  eo3palaceofsplendor_4_17
// 019   ----------------------------------------
        BYTE   PATT
         POIN2  eo3palaceofsplendor_4_15
// 020   ----------------------------------------
        BYTE   PATT
         POIN2  eo3palaceofsplendor_4_16
// 021   ----------------------------------------
        BYTE   PATT
         POIN2  eo3palaceofsplendor_4_17
// 022   ----------------------------------------
        BYTE   PATT
         POIN2  eo3palaceofsplendor_4_17
// 023   ----------------------------------------
        BYTE           VOICE   63
        BYTE   W60
        BYTE           BEND    c_v-64
        BYTE           MOD     16
        BYTE           N72     An3   v096
        BYTE   W01
        BYTE           BEND    c_v-33
        BYTE   W02
        BYTE                   c_v-2
        BYTE   W01
        BYTE                   c_v+30
        BYTE   W02
        BYTE                   c_v+63
        BYTE           MOD     1
        BYTE   W30
// 024   ----------------------------------------
        BYTE                   5
        BYTE   W32
        BYTE   W01
        BYTE                   0
        BYTE   W21
        BYTE           BEND    c_v+1
        BYTE           PAN     c_v+0
        BYTE           N05     Cs3   v085
        BYTE   W06
        BYTE                   Fs3
        BYTE   W06
        BYTE                   Bn3
        BYTE   W06
        BYTE                   An3
        BYTE   W06
        BYTE                   En3
        BYTE   W06
        BYTE                   Bn2
        BYTE   W06
        BYTE                   Fs2
        BYTE   W06
// 025   ----------------------------------------
eo3palaceofsplendor_4_25:
        BYTE   W60
        BYTE           PAN     c_v-48
        BYTE           MOD     16
        BYTE           BEND    c_v-64
        BYTE           N72     Fn3   v096
        BYTE   W01
        BYTE           BEND    c_v-33
        BYTE   W02
        BYTE                   c_v-2
        BYTE   W01
        BYTE                   c_v+30
        BYTE   W02
        BYTE           MOD     1
        BYTE           BEND    c_v+63
        BYTE   W30
        BYTE   PEND
// 026   ----------------------------------------
eo3palaceofsplendor_4_26:
        BYTE           MOD     5
        BYTE   W32
        BYTE   W01
        BYTE                   0
        BYTE   W21
        BYTE           PAN     c_v+0
        BYTE           BEND    c_v+1
        BYTE           N05     Gs2   v085
        BYTE   W06
        BYTE                   Cs3
        BYTE   W06
        BYTE                   Fs3
        BYTE   W06
        BYTE                   En3
        BYTE   W06
        BYTE                   Bn2
        BYTE   W06
        BYTE                   Fs2
        BYTE   W06
        BYTE                   Cs2
        BYTE   W06
        BYTE   PEND
// 027   ----------------------------------------
        BYTE   W60
        BYTE           PAN     c_v-48
        BYTE           MOD     16
        BYTE           BEND    c_v-64
        BYTE           N72     An3   v096
        BYTE   W01
        BYTE           BEND    c_v-33
        BYTE   W02
        BYTE                   c_v-2
        BYTE   W01
        BYTE                   c_v+30
        BYTE   W02
        BYTE           MOD     1
        BYTE           BEND    c_v+63
        BYTE   W30
// 028   ----------------------------------------
        BYTE           MOD     5
        BYTE   W32
        BYTE   W01
        BYTE                   0
        BYTE   W21
        BYTE           PAN     c_v+0
        BYTE           BEND    c_v+1
        BYTE           N05     Cs3   v085
        BYTE   W06
        BYTE                   Fs3
        BYTE   W06
        BYTE                   Bn3
        BYTE   W06
        BYTE                   An3
        BYTE   W06
        BYTE                   En3
        BYTE   W06
        BYTE                   Bn2
        BYTE   W06
        BYTE                   Fs2
        BYTE   W06
// 029   ----------------------------------------
        BYTE   PATT
         POIN2  eo3palaceofsplendor_4_25
// 030   ----------------------------------------
        BYTE   PATT
         POIN2  eo3palaceofsplendor_4_26
// 031   ----------------------------------------
        BYTE           PAN     c_v-48
        BYTE           VOICE   48
        BYTE           N05     Gn3   v095
        BYTE   W18
        BYTE           N56     Fn3
        BYTE   W78
// 032   ----------------------------------------
eo3palaceofsplendor_4_32:
        BYTE           N05     Gn3   v095
        BYTE   W18
        BYTE           N56     Gs3
        BYTE   W78
        BYTE   PEND
// 033   ----------------------------------------
eo3palaceofsplendor_4_33:
        BYTE           N05     Gn3   v095
        BYTE   W18
        BYTE           N56     Fn3
        BYTE   W78
        BYTE   PEND
// 034   ----------------------------------------
        BYTE           N05
        BYTE   W18
        BYTE           N56     Fs3
        BYTE   W78
// 035   ----------------------------------------
        BYTE   PATT
         POIN2  eo3palaceofsplendor_4_33
// 036   ----------------------------------------
        BYTE   PATT
         POIN2  eo3palaceofsplendor_4_32
// 037   ----------------------------------------
        BYTE   PATT
         POIN2  eo3palaceofsplendor_4_33
// 038   ----------------------------------------
        BYTE           N05     Fn3   v095
        BYTE   W18
        BYTE           N20     Fs3
        BYTE   W30
        BYTE           N05
        BYTE   W18
        BYTE           N20     Gn3
        BYTE   W30
// 039   ----------------------------------------
        BYTE           N05
        BYTE   W18
        BYTE           N72     Gs3   v095   gtp2
        BYTE   W78
// 040   ----------------------------------------
        BYTE   W12
        BYTE           N05     An3
        BYTE   W18
        BYTE           N17     As3
        BYTE   W18
        BYTE           N05     Bn3
        BYTE   W48
// 041   ----------------------------------------
eo3palaceofsplendor_4_41:
        BYTE           N08     Fn2   v115
        BYTE   W18
        BYTE           N07     En2   v120
        BYTE   W18
        BYTE           N11     An2   v109
        BYTE   W60
        BYTE   PEND
// 042   ----------------------------------------
eo3palaceofsplendor_4_42:
        BYTE           N09     Fn2   v114
        BYTE   W18
        BYTE           N07     En2   v120
        BYTE   W18
        BYTE           N12     An2   v117
        BYTE   W60
        BYTE   PEND
// 043   ----------------------------------------
eo3palaceofsplendor_4_43:
        BYTE           N09     Gn2   v114
        BYTE   W18
        BYTE           N07     Fs2   v120
        BYTE   W18
        BYTE           N12     Bn2   v117
        BYTE   W60
        BYTE   PEND
// 044   ----------------------------------------
        BYTE   PATT
         POIN2  eo3palaceofsplendor_4_43
// 045   ----------------------------------------
        BYTE   PATT
         POIN2  eo3palaceofsplendor_4_41
// 046   ----------------------------------------
        BYTE   PATT
         POIN2  eo3palaceofsplendor_4_42
// 047   ----------------------------------------
        BYTE   PATT
         POIN2  eo3palaceofsplendor_4_43
// 048   ----------------------------------------
        BYTE           N09     Gn2   v114
        BYTE   W18
        BYTE           N07     Fs2   v120
        BYTE   W18
        BYTE           N16     Bn2   v108
        BYTE   W24
        BYTE           N12     Cn3   v115
        BYTE   W18
        BYTE           N11     Cs3   v124
        BYTE   W18
// 049   ----------------------------------------
        BYTE           PAN     c_v-32
        BYTE           VOICE   124
        BYTE   W12
        BYTE           N05     Dn3   v107
        BYTE   W24
        BYTE                   Dn3
        BYTE   W24
        BYTE                   Dn3
        BYTE   W24
        BYTE                   Dn3
        BYTE   W12
// 050   ----------------------------------------
eo3palaceofsplendor_4_50:
        BYTE   W12
        BYTE           N05     Dn3   v107
        BYTE   W24
        BYTE                   Dn3
        BYTE   W24
        BYTE                   Dn3
        BYTE   W24
        BYTE                   Dn3
        BYTE   W12
        BYTE   PEND
// 051   ----------------------------------------
        BYTE   PATT
         POIN2  eo3palaceofsplendor_4_50
// 052   ----------------------------------------
        BYTE   PATT
         POIN2  eo3palaceofsplendor_4_50
// 053   ----------------------------------------
        BYTE   PATT
         POIN2  eo3palaceofsplendor_4_50
// 054   ----------------------------------------
        BYTE   PATT
         POIN2  eo3palaceofsplendor_4_50
// 055   ----------------------------------------
        BYTE   PATT
         POIN2  eo3palaceofsplendor_4_50
// 056   ----------------------------------------
        BYTE   PATT
         POIN2  eo3palaceofsplendor_4_50
// 057   ----------------------------------------
        BYTE   PATT
         POIN2  eo3palaceofsplendor_4_50
// 058   ----------------------------------------
        BYTE   PATT
         POIN2  eo3palaceofsplendor_4_50
// 059   ----------------------------------------
        BYTE   PATT
         POIN2  eo3palaceofsplendor_4_50
// 060   ----------------------------------------
        BYTE   PATT
         POIN2  eo3palaceofsplendor_4_50
// 061   ----------------------------------------
        BYTE           VOICE   50
        BYTE           BEND    c_v+0
        BYTE   GoTo
         POIN2  eo3palaceofsplendor_4_LOOP
        BYTE   FINE

//****************** Track 5 (Midi-Chn.6) ******************//

eo3palaceofsplendor_5:
        BYTE   KEYSH   eo3palaceofsplendor_key+0
// 000   ----------------------------------------
eo3palaceofsplendor_5_LOOP:
        BYTE           VOICE   81
        BYTE           VOL     28
        BYTE           MOD     5
        BYTE           LFOS     4
        BYTE           BEND    c_v-2
        BYTE           N92     As3   v127   gtp3
        BYTE   W96
// 001   ----------------------------------------
        BYTE   PATT
         POIN2  eo3palaceofsplendor_2_1
// 002   ----------------------------------------
        BYTE   PATT
         POIN2  eo3palaceofsplendor_2_2
// 003   ----------------------------------------
        BYTE   PATT
         POIN2  eo3palaceofsplendor_2_3
// 004   ----------------------------------------
        BYTE   PATT
         POIN2  eo3palaceofsplendor_2_4
// 005   ----------------------------------------
        BYTE   PATT
         POIN2  eo3palaceofsplendor_2_5
// 006   ----------------------------------------
        BYTE   PATT
         POIN2  eo3palaceofsplendor_2_6
// 007   ----------------------------------------
        BYTE           N92     Fn4   v127   gtp3
        BYTE   W96
// 008   ----------------------------------------
        BYTE   W96
// 009   ----------------------------------------
        BYTE           MOD     1
        BYTE           BEND    c_v+1
        BYTE           PAN     c_v+16
        BYTE           VOICE   1
        BYTE           N05     Dn5   v075
        BYTE   W06
        BYTE           N06     Dn4
        BYTE   W06
        BYTE           N04     An4
        BYTE   W06
        BYTE           N03     Dn5
        BYTE   W12
        BYTE           N05     Dn4
        BYTE   W06
        BYTE                   An4
        BYTE   W06
        BYTE           N06     Dn4
        BYTE   W06
        BYTE           N04     Dn5
        BYTE   W06
        BYTE           N06     Dn4
        BYTE   W06
        BYTE           N05     An4
        BYTE   W06
        BYTE           N03     Dn5
        BYTE   W12
        BYTE           N05     Dn4
        BYTE   W06
        BYTE                   An4
        BYTE   W06
        BYTE                   Dn4
        BYTE   W06
// 010   ----------------------------------------
eo3palaceofsplendor_5_10:
        BYTE           N04     Dn5   v075
        BYTE   W06
        BYTE           N06     Dn4
        BYTE   W06
        BYTE           N05     An4
        BYTE   W06
        BYTE           N03     Dn5
        BYTE   W12
        BYTE           N05     Dn4
        BYTE   W06
        BYTE                   An4
        BYTE   W06
        BYTE                   Dn4
        BYTE   W06
        BYTE           N04     Dn5
        BYTE   W06
        BYTE           N05     Dn4
        BYTE   W06
        BYTE           N06     An4
        BYTE   W06
        BYTE           N03     Dn5
        BYTE   W12
        BYTE           N05     Dn4
        BYTE   W06
        BYTE                   An4
        BYTE   W06
        BYTE           N03     Dn4
        BYTE   W06
        BYTE   PEND
// 011   ----------------------------------------
eo3palaceofsplendor_5_11:
        BYTE           VOICE   103
        BYTE           N14     Dn2   v090
        BYTE   W16
        BYTE           N06     Dn2   v048
        BYTE   W08
        BYTE           N14     Cn2   v090
        BYTE   W16
        BYTE           N06     Cn2   v048
        BYTE   W08
        BYTE           N14     Ds2   v090
        BYTE   W16
        BYTE           N06     Ds2   v048
        BYTE   W08
        BYTE           N14     Fn2   v090
        BYTE   W16
        BYTE           N06     Fn2   v048
        BYTE   W08
        BYTE   PEND
// 012   ----------------------------------------
        BYTE           VOICE   1
        BYTE           N05     Dn5   v075
        BYTE   W06
        BYTE           N06     Dn4
        BYTE   W06
        BYTE           N04     An4
        BYTE   W06
        BYTE           N03     Dn5
        BYTE   W12
        BYTE           N05     Dn4
        BYTE   W06
        BYTE                   An4
        BYTE   W06
        BYTE           N06     Dn4
        BYTE   W06
        BYTE           N04     Dn5
        BYTE   W06
        BYTE           N06     Dn4
        BYTE   W06
        BYTE           N05     An4
        BYTE   W06
        BYTE           N03     Dn5
        BYTE   W12
        BYTE           N05     Dn4
        BYTE   W06
        BYTE                   An4
        BYTE   W06
        BYTE                   Dn4
        BYTE   W06
// 013   ----------------------------------------
        BYTE   PATT
         POIN2  eo3palaceofsplendor_5_10
// 014   ----------------------------------------
        BYTE   PATT
         POIN2  eo3palaceofsplendor_5_11
// 015   ----------------------------------------
eo3palaceofsplendor_5_15:
        BYTE           N11     Fn2   v080
        BYTE   W12
        BYTE           N06     Fn2   v048
        BYTE   W06
        BYTE           N11     En2   v076
        BYTE   W12
        BYTE           N06     En2   v048
        BYTE   W06
        BYTE           N54     An2   v078   gtp1
        BYTE   W60
        BYTE   PEND
// 016   ----------------------------------------
        BYTE   PATT
         POIN2  eo3palaceofsplendor_5_15
// 017   ----------------------------------------
eo3palaceofsplendor_5_17:
        BYTE           N11     Gn2   v080
        BYTE   W12
        BYTE           N06     Gn2   v048
        BYTE   W06
        BYTE           N11     Fs2   v076
        BYTE   W12
        BYTE           N06     Fs2   v048
        BYTE   W06
        BYTE           N54     Bn2   v078   gtp1
        BYTE   W60
        BYTE   PEND
// 018   ----------------------------------------
        BYTE   PATT
         POIN2  eo3palaceofsplendor_5_17
// 019   ----------------------------------------
        BYTE   PATT
         POIN2  eo3palaceofsplendor_5_15
// 020   ----------------------------------------
        BYTE   PATT
         POIN2  eo3palaceofsplendor_5_15
// 021   ----------------------------------------
        BYTE   PATT
         POIN2  eo3palaceofsplendor_5_17
// 022   ----------------------------------------
        BYTE   PATT
         POIN2  eo3palaceofsplendor_5_17
// 023   ----------------------------------------
        BYTE           N11     Cs2   v085
        BYTE   W12
        BYTE           N06     Cs2   v048
        BYTE   W06
        BYTE           N09     An1   v085
        BYTE   W18
        BYTE           N48     Bn1   v085   gtp3
        BYTE   W60
// 024   ----------------------------------------
eo3palaceofsplendor_5_24:
        BYTE           N05     Bn1   v085
        BYTE   W06
        BYTE                   Fs2
        BYTE   W06
        BYTE           N06     Bn1   v048
        BYTE   W06
        BYTE           N05     Fs2   v085
        BYTE   W06
        BYTE           N06     Fs2   v048
        BYTE   W06
        BYTE           N05     Bn1   v085
        BYTE   W06
        BYTE                   Fs2
        BYTE   W06
        BYTE                   Bn1
        BYTE   W06
        BYTE           N06     Bn1   v048
        BYTE   W06
        BYTE           N05     Cs3   v085
        BYTE   W06
        BYTE                   Fs3
        BYTE   W06
        BYTE                   Bn3
        BYTE   W06
        BYTE                   An3
        BYTE   W06
        BYTE                   En3
        BYTE   W06
        BYTE                   Bn2
        BYTE   W06
        BYTE                   Fs2
        BYTE   W06
        BYTE   PEND
// 025   ----------------------------------------
eo3palaceofsplendor_5_25:
        BYTE           N14     Cs3   v091
        BYTE   W18
        BYTE           N11     An2   v094
        BYTE   W12
        BYTE           N06     An2   v048
        BYTE   W06
        BYTE           N11     Bn2   v091
        BYTE   W12
        BYTE           N06     Bn2   v048
        BYTE   W12
        BYTE           N32     Fn2   v090   gtp3
        BYTE   W36
        BYTE   PEND
// 026   ----------------------------------------
        BYTE           N01     Fn1   v085
        BYTE   W06
        BYTE           N04
        BYTE   W12
        BYTE           N05     Fn2
        BYTE   W06
        BYTE           N06     Fn2   v048
        BYTE   W06
        BYTE           N05     Fn1   v085
        BYTE   W06
        BYTE                   Fn2
        BYTE   W06
        BYTE                   Fn1
        BYTE   W06
        BYTE           N06     Fn1   v048
        BYTE   W06
        BYTE           N05     Gs2   v085
        BYTE   W06
        BYTE                   Cs3
        BYTE   W06
        BYTE                   Fs3
        BYTE   W06
        BYTE                   En3
        BYTE   W06
        BYTE                   Bn2
        BYTE   W06
        BYTE                   Fs2
        BYTE   W06
        BYTE                   Cs2
        BYTE   W06
// 027   ----------------------------------------
        BYTE           N11
        BYTE   W12
        BYTE           N06     Cs2   v048
        BYTE   W06
        BYTE           N12     An1   v085
        BYTE   W12
        BYTE           N06     An1   v048
        BYTE   W06
        BYTE           N48     Bn1   v085   gtp3
        BYTE   W60
// 028   ----------------------------------------
        BYTE   PATT
         POIN2  eo3palaceofsplendor_5_24
// 029   ----------------------------------------
        BYTE   PATT
         POIN2  eo3palaceofsplendor_5_25
// 030   ----------------------------------------
        BYTE           N01     Fn1   v085
        BYTE   W06
        BYTE           N04
        BYTE   W12
        BYTE           N05     Fn2
        BYTE   W06
        BYTE           N06     Fn2   v048
        BYTE   W06
        BYTE           N05     Fn1   v085
        BYTE   W06
        BYTE                   Fn2
        BYTE   W06
        BYTE                   Fn1
        BYTE   W54
// 031   ----------------------------------------
        BYTE           VOICE   117
        BYTE   W12
        BYTE           N06     Fn4   v112
        BYTE   W18
        BYTE                   En3
        BYTE   W18
        BYTE                   Fn4
        BYTE   W18
        BYTE                   En3
        BYTE   W18
        BYTE                   Fn4
        BYTE   W12
// 032   ----------------------------------------
eo3palaceofsplendor_5_32:
        BYTE   W12
        BYTE           N06     Fn4   v112
        BYTE   W18
        BYTE                   En3
        BYTE   W18
        BYTE                   Fn4
        BYTE   W18
        BYTE                   En3
        BYTE   W18
        BYTE                   Fn4
        BYTE   W12
        BYTE   PEND
// 033   ----------------------------------------
        BYTE   PATT
         POIN2  eo3palaceofsplendor_5_32
// 034   ----------------------------------------
eo3palaceofsplendor_5_34:
        BYTE   W12
        BYTE           N06     Fn4   v112
        BYTE   W18
        BYTE                   En3
        BYTE   W18
        BYTE                   Fn4
        BYTE   W06
        BYTE                   En3
        BYTE   W12
        BYTE                   En3
        BYTE   W18
        BYTE                   Fn4
        BYTE   W12
        BYTE   PEND
// 035   ----------------------------------------
        BYTE   PATT
         POIN2  eo3palaceofsplendor_5_32
// 036   ----------------------------------------
        BYTE   PATT
         POIN2  eo3palaceofsplendor_5_32
// 037   ----------------------------------------
        BYTE   PATT
         POIN2  eo3palaceofsplendor_5_32
// 038   ----------------------------------------
        BYTE   PATT
         POIN2  eo3palaceofsplendor_5_34
// 039   ----------------------------------------
        BYTE   PATT
         POIN2  eo3palaceofsplendor_5_32
// 040   ----------------------------------------
        BYTE   PATT
         POIN2  eo3palaceofsplendor_5_32
// 041   ----------------------------------------
        BYTE           VOICE   103
        BYTE           N11     Fn2   v080
        BYTE   W12
        BYTE           N06     Fn2   v048
        BYTE   W06
        BYTE           N11     En2   v076
        BYTE   W12
        BYTE           N06     En2   v048
        BYTE   W06
        BYTE           N54     An2   v078   gtp1
        BYTE   W60
// 042   ----------------------------------------
        BYTE   PATT
         POIN2  eo3palaceofsplendor_5_15
// 043   ----------------------------------------
        BYTE   PATT
         POIN2  eo3palaceofsplendor_5_17
// 044   ----------------------------------------
        BYTE   PATT
         POIN2  eo3palaceofsplendor_5_17
// 045   ----------------------------------------
        BYTE   PATT
         POIN2  eo3palaceofsplendor_5_15
// 046   ----------------------------------------
        BYTE   PATT
         POIN2  eo3palaceofsplendor_5_15
// 047   ----------------------------------------
        BYTE   PATT
         POIN2  eo3palaceofsplendor_5_17
// 048   ----------------------------------------
        BYTE           N11     Gn2   v080
        BYTE   W12
        BYTE           N06     Gn2   v048
        BYTE   W06
        BYTE           N11     Fs2   v076
        BYTE   W12
        BYTE           N06     Fs2   v048
        BYTE   W06
        BYTE           N14     Bn2   v078
        BYTE   W18
        BYTE           N06     Bn2   v048
        BYTE   W06
        BYTE           N14     Cn3   v089
        BYTE   W18
        BYTE                   Cs3   v088
        BYTE   W18
// 049   ----------------------------------------
        BYTE           VOICE   117
        BYTE   W12
        BYTE           N06     Dn4   v100
        BYTE   W18
        BYTE                   Cs3
        BYTE   W18
        BYTE                   Dn4
        BYTE   W18
        BYTE                   Cs3
        BYTE   W18
        BYTE                   Dn4
        BYTE   W12
// 050   ----------------------------------------
eo3palaceofsplendor_5_50:
        BYTE   W12
        BYTE           N06     Dn4   v100
        BYTE   W18
        BYTE                   Cs3
        BYTE   W18
        BYTE                   Dn4
        BYTE   W18
        BYTE                   Cs3
        BYTE   W18
        BYTE                   Dn4
        BYTE   W12
        BYTE   PEND
// 051   ----------------------------------------
        BYTE   PATT
         POIN2  eo3palaceofsplendor_5_50
// 052   ----------------------------------------
eo3palaceofsplendor_5_52:
        BYTE   W12
        BYTE           N06     Dn4   v100
        BYTE   W18
        BYTE                   Cs3
        BYTE   W18
        BYTE                   Dn4
        BYTE   W06
        BYTE                   Cs3
        BYTE   W12
        BYTE                   Cs3
        BYTE   W18
        BYTE                   Dn4
        BYTE   W12
        BYTE   PEND
// 053   ----------------------------------------
        BYTE   PATT
         POIN2  eo3palaceofsplendor_5_50
// 054   ----------------------------------------
        BYTE   PATT
         POIN2  eo3palaceofsplendor_5_50
// 055   ----------------------------------------
        BYTE   PATT
         POIN2  eo3palaceofsplendor_5_50
// 056   ----------------------------------------
        BYTE   PATT
         POIN2  eo3palaceofsplendor_5_52
// 057   ----------------------------------------
        BYTE   PATT
         POIN2  eo3palaceofsplendor_5_50
// 058   ----------------------------------------
        BYTE   PATT
         POIN2  eo3palaceofsplendor_5_50
// 059   ----------------------------------------
        BYTE   PATT
         POIN2  eo3palaceofsplendor_5_50
// 060   ----------------------------------------
        BYTE   PATT
         POIN2  eo3palaceofsplendor_5_52
// 061   ----------------------------------------
        BYTE           VOICE   61
        BYTE           PAN     c_v+0
        BYTE           BEND    c_v-2
        BYTE           MOD     5
        BYTE   GoTo
         POIN2  eo3palaceofsplendor_5_LOOP
        BYTE   FINE

//****************** Track 6 (Midi-Chn.7) ******************//

eo3palaceofsplendor_6:
        BYTE   KEYSH   eo3palaceofsplendor_key+0
// 000   ----------------------------------------
eo3palaceofsplendor_6_LOOP:
        BYTE           VOICE   124
        BYTE           LFOS   10
        BYTE           VOL     41
        BYTE           N12     Cn1   v127
        BYTE           N02     Fs1   v048
        BYTE   W24
        BYTE           N12     Cn1   v127
        BYTE           N11     En1   v076
        BYTE   W18
        BYTE           N05     Cn1   v127
        BYTE   W06
        BYTE           N11
        BYTE   W24
        BYTE           N10
        BYTE           N10     En1   v076
        BYTE   W24
// 001   ----------------------------------------
eo3palaceofsplendor_6_1:
        BYTE           N12     Cn1   v127
        BYTE   W24
        BYTE                   Cn1
        BYTE           N11     En1   v076
        BYTE   W18
        BYTE           N05     Cn1   v127
        BYTE   W06
        BYTE           N11
        BYTE   W24
        BYTE           N10
        BYTE           N10     En1   v076
        BYTE   W24
        BYTE   PEND
// 002   ----------------------------------------
        BYTE   PATT
         POIN2  eo3palaceofsplendor_6_1
// 003   ----------------------------------------
        BYTE   PATT
         POIN2  eo3palaceofsplendor_6_1
// 004   ----------------------------------------
        BYTE   PATT
         POIN2  eo3palaceofsplendor_6_1
// 005   ----------------------------------------
        BYTE   PATT
         POIN2  eo3palaceofsplendor_6_1
// 006   ----------------------------------------
        BYTE   PATT
         POIN2  eo3palaceofsplendor_6_1
// 007   ----------------------------------------
        BYTE   PATT
         POIN2  eo3palaceofsplendor_6_1
// 008   ----------------------------------------
        BYTE           N11     Cn1   v127
        BYTE   W12
        BYTE           N05     Dn2   v088
        BYTE           N06     Cs1   v056
        BYTE   W12
        BYTE           N11     Cn1   v127
        BYTE           N05     Dn2   v088
        BYTE   W06
        BYTE                   Dn2
        BYTE           N06     Cs1   v056
        BYTE   W06
        BYTE           N05     Dn2   v088
        BYTE   W06
        BYTE                   Cn2
        BYTE   W06
        BYTE           N11     Cn1   v127
        BYTE           N05     An1   v096
        BYTE           N06     Cs1   v056
        BYTE   W12
        BYTE           N05     An1   v096
        BYTE   W06
        BYTE                   An1
        BYTE           N06     Cs1   v056
        BYTE   W06
        BYTE           N11     Cn1   v127
        BYTE           N05     Fn1   v096
        BYTE           N17     Bn2   v056
        BYTE   W12
        BYTE           N05     Fn1   v096
        BYTE           N06     Cs1   v056
        BYTE   W06
        BYTE           N05     En1   v076
        BYTE           N05     Fn1   v096
        BYTE   W06
// 009   ----------------------------------------
eo3palaceofsplendor_6_9:
        BYTE           N11     Cn1   v127
        BYTE           N23     Gs3   v056
        BYTE   W12
        BYTE           N06     Cs1
        BYTE   W12
        BYTE           N11     Cn1   v127
        BYTE           N11     En1   v076
        BYTE   W06
        BYTE           N06     Cs1   v056
        BYTE   W18
        BYTE           N11     Cn1   v127
        BYTE           N06     Cs1   v056
        BYTE   W12
        BYTE           N11     Cn1   v127
        BYTE   W12
        BYTE                   Cn1
        BYTE           N11     En1   v076
        BYTE   W24
        BYTE   PEND
// 010   ----------------------------------------
eo3palaceofsplendor_6_10:
        BYTE           N11     Cn1   v127
        BYTE   W12
        BYTE           N06     Cs1   v056
        BYTE   W12
        BYTE           N11     Cn1   v127
        BYTE           N11     En1   v076
        BYTE   W06
        BYTE           N06     Cs1   v056
        BYTE   W12
        BYTE           N17     En1   v076
        BYTE   W06
        BYTE           N11     Cn1   v127
        BYTE           N06     Cs1   v056
        BYTE   W12
        BYTE           N11     Cn1   v127
        BYTE   W12
        BYTE                   Cn1
        BYTE           N11     En1   v076
        BYTE   W24
        BYTE   PEND
// 011   ----------------------------------------
        BYTE                   Cn1   v127
        BYTE   W24
        BYTE                   Cn1
        BYTE           N11     En1   v076
        BYTE   W24
        BYTE                   Cn1   v127
        BYTE   W12
        BYTE           N05     En1   v076
        BYTE   W06
        BYTE                   En1
        BYTE   W12
        BYTE                   En1
        BYTE   W06
        BYTE                   En1
        BYTE           N06     Gs2   v056
        BYTE   W12
// 012   ----------------------------------------
        BYTE   PATT
         POIN2  eo3palaceofsplendor_6_9
// 013   ----------------------------------------
        BYTE   PATT
         POIN2  eo3palaceofsplendor_6_10
// 014   ----------------------------------------
        BYTE           N11     Cn1   v127
        BYTE   W12
        BYTE           N06     Cs1   v056
        BYTE   W12
        BYTE           N11     Cn1   v127
        BYTE           N11     En1   v076
        BYTE   W06
        BYTE           N06     Cs1   v056
        BYTE   W12
        BYTE           N05     En1   v076
        BYTE   W06
        BYTE                   Cn1   v127
        BYTE           N02     Cn2   v088
        BYTE   W08
        BYTE                   Cn2
        BYTE   W07
        BYTE           N04
        BYTE   W09
        BYTE           N05     Cn1   v127
        BYTE           N03     Gn1   v103
        BYTE   W08
        BYTE           N02
        BYTE   W07
        BYTE           N04
        BYTE   W09
// 015   ----------------------------------------
eo3palaceofsplendor_6_15:
        BYTE           N05     Cn1   v127
        BYTE           N03     Dn3   v056
        BYTE   W06
        BYTE           N05     Cn1   v127
        BYTE   W12
        BYTE           N03     Dn3   v056
        BYTE   W06
        BYTE           N11     En1   v076
        BYTE   W12
        BYTE           N05     Cn1   v127
        BYTE   W06
        BYTE                   Cn1
        BYTE   W18
        BYTE                   Cn1
        BYTE           N16     An1   v096
        BYTE   W12
        BYTE           N11     En1   v076
        BYTE           N11     Bn2   v056
        BYTE   W12
        BYTE           N05     Cn1   v127
        BYTE   W12
        BYTE   PEND
// 016   ----------------------------------------
eo3palaceofsplendor_6_16:
        BYTE           N05     Cn1   v127
        BYTE           N03     Dn3   v056
        BYTE   W06
        BYTE           N05     Cn1   v127
        BYTE   W12
        BYTE           N03     Dn3   v056
        BYTE   W06
        BYTE           N11     En1   v076
        BYTE   W12
        BYTE           N05     Cn1   v127
        BYTE   W06
        BYTE                   Cn1
        BYTE   W12
        BYTE                   Cn1
        BYTE   W06
        BYTE                   Cn1
        BYTE           N11     An1   v096
        BYTE   W12
        BYTE                   En1   v076
        BYTE           N11     Bn2   v056
        BYTE   W12
        BYTE           N05     Cn1   v127
        BYTE   W12
        BYTE   PEND
// 017   ----------------------------------------
        BYTE   PATT
         POIN2  eo3palaceofsplendor_6_16
// 018   ----------------------------------------
eo3palaceofsplendor_6_18:
        BYTE           N05     Cn1   v127
        BYTE           N03     Dn3   v056
        BYTE   W06
        BYTE           N05     Cn1   v127
        BYTE   W12
        BYTE           N03     Dn3   v056
        BYTE   W06
        BYTE           N11     En1   v076
        BYTE   W12
        BYTE           N05     Cn1   v127
        BYTE   W06
        BYTE                   Cn1
        BYTE   W12
        BYTE                   Cn1
        BYTE   W06
        BYTE                   Cn1
        BYTE           N05     An1   v096
        BYTE   W06
        BYTE                   Cn1   v127
        BYTE           N06     Gs2   v056
        BYTE   W06
        BYTE           N02     Cn1   v127
        BYTE           N16     Bn2   v056
        BYTE           N01     En1   v076
        BYTE   W03
        BYTE                   En1
        BYTE   W03
        BYTE                   Cn1   v127
        BYTE           N01     En1   v076
        BYTE   W03
        BYTE                   En1
        BYTE   W03
        BYTE           N05     An1   v096
        BYTE   W12
        BYTE   PEND
// 019   ----------------------------------------
        BYTE   PATT
         POIN2  eo3palaceofsplendor_6_15
// 020   ----------------------------------------
        BYTE   PATT
         POIN2  eo3palaceofsplendor_6_16
// 021   ----------------------------------------
        BYTE   PATT
         POIN2  eo3palaceofsplendor_6_16
// 022   ----------------------------------------
        BYTE           N02     Cn1   v127
        BYTE           N03     Dn3   v056
        BYTE   W06
        BYTE           N02     Cn1   v127
        BYTE   W12
        BYTE           N03     Dn3   v056
        BYTE   W06
        BYTE           N11     En1   v076
        BYTE   W12
        BYTE           N02     Cn1   v127
        BYTE   W06
        BYTE                   Cn1
        BYTE   W12
        BYTE           N01
        BYTE   W06
        BYTE           N05
        BYTE           N05     An1   v096
        BYTE   W06
        BYTE           N02     En1   v076
        BYTE   W12
        BYTE           N01
        BYTE   W06
        BYTE           N04
        BYTE           N06     Gs2   v056
        BYTE   W12
// 023   ----------------------------------------
eo3palaceofsplendor_6_23:
        BYTE           N44     Gs3   v056   gtp3
        BYTE           N13     Cn1   v127
        BYTE   W24
        BYTE           N12
        BYTE           N11     En1   v076
        BYTE   W24
        BYTE           N12     Cn1   v127
        BYTE   W24
        BYTE                   Cn1
        BYTE           N11     En1   v076
        BYTE   W24
        BYTE   PEND
// 024   ----------------------------------------
eo3palaceofsplendor_6_24:
        BYTE           N12     Cn1   v127
        BYTE   W24
        BYTE                   Cn1
        BYTE           N11     En1   v076
        BYTE   W18
        BYTE           N05
        BYTE   W06
        BYTE                   Cn1   v127
        BYTE   W06
        BYTE           N07
        BYTE   W06
        BYTE           N01     En1   v076
        BYTE   W06
        BYTE           N02
        BYTE   W12
        BYTE           N01
        BYTE   W06
        BYTE           N04
        BYTE           N06     Gs2   v056
        BYTE   W12
        BYTE   PEND
// 025   ----------------------------------------
        BYTE   PATT
         POIN2  eo3palaceofsplendor_6_23
// 026   ----------------------------------------
        BYTE   PATT
         POIN2  eo3palaceofsplendor_6_24
// 027   ----------------------------------------
        BYTE   PATT
         POIN2  eo3palaceofsplendor_6_23
// 028   ----------------------------------------
        BYTE   PATT
         POIN2  eo3palaceofsplendor_6_24
// 029   ----------------------------------------
        BYTE   PATT
         POIN2  eo3palaceofsplendor_6_23
// 030   ----------------------------------------
        BYTE   PATT
         POIN2  eo3palaceofsplendor_6_24
// 031   ----------------------------------------
eo3palaceofsplendor_6_31:
        BYTE           N64     An2   v064   gtp1
        BYTE           N13     Cn1   v127
        BYTE   W24
        BYTE           N12
        BYTE           N11     En1   v076
        BYTE   W24
        BYTE           N12     Cn1   v127
        BYTE   W24
        BYTE                   Cn1
        BYTE           N11     En1   v076
        BYTE   W24
        BYTE   PEND
// 032   ----------------------------------------
eo3palaceofsplendor_6_32:
        BYTE           N12     Cn1   v127
        BYTE   W24
        BYTE                   Cn1
        BYTE           N11     En1   v076
        BYTE   W18
        BYTE           N16
        BYTE   W06
        BYTE           N11     Cn1   v127
        BYTE   W24
        BYTE           N10
        BYTE           N10     En1   v076
        BYTE   W24
        BYTE   PEND
// 033   ----------------------------------------
eo3palaceofsplendor_6_33:
        BYTE           N13     Cn1   v127
        BYTE   W24
        BYTE           N12
        BYTE           N11     En1   v076
        BYTE   W24
        BYTE           N12     Cn1   v127
        BYTE   W24
        BYTE                   Cn1
        BYTE           N11     En1   v076
        BYTE   W24
        BYTE   PEND
// 034   ----------------------------------------
        BYTE           N12     Cn1   v127
        BYTE   W24
        BYTE                   Cn1
        BYTE           N11     En1   v076
        BYTE   W18
        BYTE           N05
        BYTE   W06
        BYTE                   Cn1   v127
        BYTE   W06
        BYTE                   Cn1
        BYTE   W06
        BYTE           N01     En1   v076
        BYTE   W06
        BYTE           N02
        BYTE   W12
        BYTE           N01
        BYTE   W06
        BYTE           N04
        BYTE           N06     Gs2   v056
        BYTE   W12
// 035   ----------------------------------------
        BYTE   PATT
         POIN2  eo3palaceofsplendor_6_31
// 036   ----------------------------------------
        BYTE   PATT
         POIN2  eo3palaceofsplendor_6_32
// 037   ----------------------------------------
        BYTE   PATT
         POIN2  eo3palaceofsplendor_6_33
// 038   ----------------------------------------
        BYTE           N12     Cn1   v127
        BYTE   W24
        BYTE                   Cn1
        BYTE           N11     En1   v076
        BYTE   W18
        BYTE           N05
        BYTE   W06
        BYTE                   Cn1   v127
        BYTE   W06
        BYTE           N06
        BYTE   W06
        BYTE           N01     En1   v076
        BYTE   W06
        BYTE           N02
        BYTE   W12
        BYTE           N01
        BYTE   W06
        BYTE           N04
        BYTE           N06     Gs2   v056
        BYTE   W12
// 039   ----------------------------------------
        BYTE           N56     An2   v064   gtp3
        BYTE           N13     Cn1   v127
        BYTE   W24
        BYTE           N12
        BYTE           N11     En1   v076
        BYTE   W24
        BYTE           N12     Cn1   v127
        BYTE   W24
        BYTE                   Cn1
        BYTE           N11     En1   v076
        BYTE   W24
// 040   ----------------------------------------
        BYTE           N05     Cn1   v127
        BYTE   W12
        BYTE           N01     En1   v076
        BYTE           N02     Dn3   v103
        BYTE           N06     Cs1   v056
        BYTE   W03
        BYTE           N01     En1   v076
        BYTE   W03
        BYTE                   En1
        BYTE   W03
        BYTE                   En1
        BYTE   W03
        BYTE           N12     Cn1   v127
        BYTE           N01     En1   v076
        BYTE   W06
        BYTE           N02
        BYTE           N06     Cs1   v056
        BYTE   W06
        BYTE           N02     Dn3   v103
        BYTE   W06
        BYTE           N01     En1   v076
        BYTE   W06
        BYTE           N12     Cn1   v127
        BYTE           N06     Cs1   v056
        BYTE   W06
        BYTE           N01     En1   v076
        BYTE   W06
        BYTE           N24     An1   v096
        BYTE   W06
        BYTE           N01     En1   v076
        BYTE           N06     Cs1   v056
        BYTE   W06
        BYTE           N11     Cn1   v127
        BYTE           N01     En1   v076
        BYTE   W12
        BYTE           N02
        BYTE           N06     Cs1   v056
        BYTE   W12
// 041   ----------------------------------------
        BYTE   PATT
         POIN2  eo3palaceofsplendor_6_15
// 042   ----------------------------------------
eo3palaceofsplendor_6_42:
        BYTE           N05     Cn1   v127
        BYTE           N03     Dn3   v056
        BYTE   W06
        BYTE           N05     Cn1   v127
        BYTE   W12
        BYTE           N03     Dn3   v056
        BYTE   W06
        BYTE           N11     En1   v076
        BYTE   W12
        BYTE           N05     Cn1   v127
        BYTE   W06
        BYTE                   Cn1
        BYTE   W12
        BYTE                   Cn1
        BYTE   W06
        BYTE                   Cn1
        BYTE           N12     An1   v096
        BYTE   W12
        BYTE           N11     En1   v076
        BYTE           N14     Bn2   v056
        BYTE   W12
        BYTE           N05     Cn1   v127
        BYTE   W12
        BYTE   PEND
// 043   ----------------------------------------
eo3palaceofsplendor_6_43:
        BYTE           N05     Cn1   v127
        BYTE           N03     Dn3   v056
        BYTE   W06
        BYTE           N05     Cn1   v127
        BYTE   W06
        BYTE           N06     Gs2   v056
        BYTE   W06
        BYTE           N02     Dn3
        BYTE           N06     Gs2
        BYTE   W06
        BYTE           N11     En1   v076
        BYTE   W12
        BYTE           N05     Cn1   v127
        BYTE   W06
        BYTE                   Cn1
        BYTE   W12
        BYTE                   Cn1
        BYTE   W06
        BYTE                   Cn1
        BYTE           N11     An1   v096
        BYTE   W12
        BYTE                   En1   v076
        BYTE           N10     Bn2   v056
        BYTE   W12
        BYTE           N05     Cn1   v127
        BYTE   W12
        BYTE   PEND
// 044   ----------------------------------------
        BYTE   PATT
         POIN2  eo3palaceofsplendor_6_18
// 045   ----------------------------------------
        BYTE   PATT
         POIN2  eo3palaceofsplendor_6_15
// 046   ----------------------------------------
        BYTE   PATT
         POIN2  eo3palaceofsplendor_6_42
// 047   ----------------------------------------
        BYTE   PATT
         POIN2  eo3palaceofsplendor_6_43
// 048   ----------------------------------------
        BYTE           N02     Cn1   v127
        BYTE           N03     Dn3   v056
        BYTE   W06
        BYTE           N02     Cn1   v127
        BYTE   W12
        BYTE           N03     Dn3   v056
        BYTE   W06
        BYTE           N11     En1   v076
        BYTE   W12
        BYTE           N02     Cn1   v127
        BYTE   W06
        BYTE           N01
        BYTE   W12
        BYTE           N02
        BYTE   W06
        BYTE           N05
        BYTE           N05     An1   v096
        BYTE   W06
        BYTE           N02     En1   v076
        BYTE   W12
        BYTE           N01
        BYTE   W06
        BYTE           N04
        BYTE           N06     Gs2   v056
        BYTE   W12
// 049   ----------------------------------------
        BYTE           N52     An2   v064   gtp1
        BYTE           N11     Cn1   v127
        BYTE   W12
        BYTE           N06     Gs2   v056
        BYTE   W12
        BYTE           N11     Cn1   v127
        BYTE           N11     En1   v076
        BYTE   W12
        BYTE           N06     Gs2   v056
        BYTE   W06
        BYTE           N17     En1   v076
        BYTE   W06
        BYTE           N11     Cn1   v127
        BYTE   W12
        BYTE           N06     Gs2   v056
        BYTE   W12
        BYTE           N11     Cn1   v127
        BYTE           N11     En1   v076
        BYTE   W12
        BYTE           N06     Gs2   v056
        BYTE   W12
// 050   ----------------------------------------
eo3palaceofsplendor_6_50:
        BYTE           N11     Cn1   v127
        BYTE   W12
        BYTE           N06     Gs2   v056
        BYTE   W12
        BYTE           N11     Cn1   v127
        BYTE           N11     En1   v076
        BYTE   W12
        BYTE           N06     Gs2   v056
        BYTE   W06
        BYTE           N17     En1   v076
        BYTE   W06
        BYTE           N11     Cn1   v127
        BYTE   W12
        BYTE           N14     An1   v096
        BYTE           N06     Gs2   v056
        BYTE   W12
        BYTE           N11     Cn1   v127
        BYTE           N11     En1   v076
        BYTE   W12
        BYTE           N06     Gs2   v056
        BYTE   W12
        BYTE   PEND
// 051   ----------------------------------------
eo3palaceofsplendor_6_51:
        BYTE           N11     Cn1   v127
        BYTE   W12
        BYTE           N06     Gs2   v056
        BYTE   W12
        BYTE           N11     Cn1   v127
        BYTE           N11     En1   v076
        BYTE   W12
        BYTE           N06     Gs2   v056
        BYTE   W06
        BYTE           N17     En1   v076
        BYTE   W06
        BYTE           N11     Cn1   v127
        BYTE   W12
        BYTE           N06     Gs2   v056
        BYTE   W12
        BYTE           N11     Cn1   v127
        BYTE           N11     En1   v076
        BYTE   W12
        BYTE           N06     Gs2   v056
        BYTE   W12
        BYTE   PEND
// 052   ----------------------------------------
        BYTE   PATT
         POIN2  eo3palaceofsplendor_6_50
// 053   ----------------------------------------
        BYTE   PATT
         POIN2  eo3palaceofsplendor_6_51
// 054   ----------------------------------------
        BYTE   PATT
         POIN2  eo3palaceofsplendor_6_50
// 055   ----------------------------------------
        BYTE   PATT
         POIN2  eo3palaceofsplendor_6_51
// 056   ----------------------------------------
        BYTE   PATT
         POIN2  eo3palaceofsplendor_6_50
// 057   ----------------------------------------
        BYTE   PATT
         POIN2  eo3palaceofsplendor_6_51
// 058   ----------------------------------------
        BYTE   PATT
         POIN2  eo3palaceofsplendor_6_50
// 059   ----------------------------------------
        BYTE   PATT
         POIN2  eo3palaceofsplendor_6_51
// 060   ----------------------------------------
        BYTE           N05     Cn1   v127
        BYTE   W12
        BYTE           N01     En1   v076
        BYTE   W03
        BYTE                   En1
        BYTE   W03
        BYTE                   En1
        BYTE   W03
        BYTE                   En1
        BYTE   W03
        BYTE           N11     Cn1   v127
        BYTE           N01     En1   v076
        BYTE   W06
        BYTE           N02
        BYTE   W12
        BYTE           N01
        BYTE   W06
        BYTE           N11     Cn1   v127
        BYTE   W06
        BYTE           N01     En1   v076
        BYTE   W06
        BYTE           N23     An1   v096
        BYTE   W06
        BYTE           N01     En1   v076
        BYTE   W06
        BYTE           N11     Cn1   v127
        BYTE           N01     En1   v076
        BYTE   W12
        BYTE           N02
        BYTE   W12
// 061   ----------------------------------------
        BYTE   GoTo
         POIN2  eo3palaceofsplendor_6_LOOP
        BYTE   FINE

//****************** Track 7 (Midi-Chn.8) ******************//

eo3palaceofsplendor_7:
        BYTE   KEYSH   eo3palaceofsplendor_key+0
// 000   ----------------------------------------
eo3palaceofsplendor_7_LOOP:
        BYTE           VOICE   124
        BYTE           VOL     33
        BYTE   W06
        BYTE           N02     Fs1   v056
        BYTE   W06
        BYTE           N04     As1   v060
        BYTE   W06
        BYTE                   As1
        BYTE   W06
        BYTE           N02     Fs1   v056
        BYTE   W06
        BYTE                   Fs1
        BYTE   W06
        BYTE           N06     Fs2   v040
        BYTE   W06
        BYTE           N02     Fs1   v056
        BYTE   W06
        BYTE                   Fs1
        BYTE   W06
        BYTE                   Fs1
        BYTE   W06
        BYTE           N04     As1   v060
        BYTE   W06
        BYTE                   As1
        BYTE   W06
        BYTE           N02     Fs1   v056
        BYTE   W06
        BYTE                   Fs1
        BYTE   W06
        BYTE           N06     Fs2   v040
        BYTE   W06
        BYTE           N02     Fs1   v056
        BYTE   W06
// 001   ----------------------------------------
eo3palaceofsplendor_7_1:
        BYTE           N02     Fs1   v056
        BYTE   W06
        BYTE                   Fs1
        BYTE   W06
        BYTE           N04     As1   v060
        BYTE   W06
        BYTE                   As1
        BYTE   W06
        BYTE           N02     Fs1   v056
        BYTE   W06
        BYTE                   Fs1
        BYTE   W06
        BYTE           N06     Fs2   v040
        BYTE   W06
        BYTE           N02     Fs1   v056
        BYTE   W06
        BYTE                   Fs1
        BYTE   W06
        BYTE                   Fs1
        BYTE   W06
        BYTE           N04     As1   v060
        BYTE   W06
        BYTE                   As1
        BYTE   W06
        BYTE           N02     Fs1   v056
        BYTE   W06
        BYTE                   Fs1
        BYTE   W06
        BYTE           N06     Fs2   v040
        BYTE   W06
        BYTE           N02     Fs1   v056
        BYTE   W06
        BYTE   PEND
// 002   ----------------------------------------
        BYTE   PATT
         POIN2  eo3palaceofsplendor_7_1
// 003   ----------------------------------------
        BYTE   PATT
         POIN2  eo3palaceofsplendor_7_1
// 004   ----------------------------------------
        BYTE   PATT
         POIN2  eo3palaceofsplendor_7_1
// 005   ----------------------------------------
        BYTE   PATT
         POIN2  eo3palaceofsplendor_7_1
// 006   ----------------------------------------
        BYTE   PATT
         POIN2  eo3palaceofsplendor_7_1
// 007   ----------------------------------------
        BYTE   PATT
         POIN2  eo3palaceofsplendor_7_1
// 008   ----------------------------------------
        BYTE           N02     Fs1   v056
        BYTE   W06
        BYTE                   Fs1
        BYTE   W06
        BYTE           N06     As1   v068
        BYTE   W06
        BYTE           N02     Fs1   v056
        BYTE   W06
        BYTE                   Fs1
        BYTE   W06
        BYTE                   Fs1
        BYTE   W06
        BYTE           N06     As1   v068
        BYTE   W06
        BYTE           N02     Fs1   v056
        BYTE   W06
        BYTE                   Fs1
        BYTE   W06
        BYTE                   Fs1
        BYTE   W06
        BYTE           N06     As1   v068
        BYTE   W06
        BYTE           N02     Fs1   v056
        BYTE   W18
        BYTE           N06     As1   v068
        BYTE   W12
// 009   ----------------------------------------
        BYTE   PATT
         POIN2  eo3palaceofsplendor_7_1
// 010   ----------------------------------------
        BYTE   PATT
         POIN2  eo3palaceofsplendor_7_1
// 011   ----------------------------------------
        BYTE   PATT
         POIN2  eo3palaceofsplendor_7_1
// 012   ----------------------------------------
        BYTE   PATT
         POIN2  eo3palaceofsplendor_7_1
// 013   ----------------------------------------
        BYTE   PATT
         POIN2  eo3palaceofsplendor_7_1
// 014   ----------------------------------------
        BYTE           N02     Fs1   v056
        BYTE   W06
        BYTE                   Fs1
        BYTE   W06
        BYTE           N04     As1   v060
        BYTE   W06
        BYTE                   As1
        BYTE   W06
        BYTE           N02     Fs1   v056
        BYTE   W06
        BYTE                   Fs1
        BYTE   W06
        BYTE           N06     Fs2   v040
        BYTE   W06
        BYTE           N02     Fs1   v056
        BYTE   W54
// 015   ----------------------------------------
eo3palaceofsplendor_7_15:
        BYTE           N06     As1   v068
        BYTE   W06
        BYTE           N02     Fs1   v056
        BYTE   W06
        BYTE                   As1   v068
        BYTE   W06
        BYTE                   Fs1   v056
        BYTE   W06
        BYTE           N06     As1   v068
        BYTE   W06
        BYTE           N02     Fs1   v056
        BYTE   W06
        BYTE           N06     As1   v068
        BYTE   W06
        BYTE           N02     Fs1   v056
        BYTE   W06
        BYTE           N06     As1   v068
        BYTE   W06
        BYTE           N02     Fs1   v056
        BYTE   W06
        BYTE           N06     As1   v068
        BYTE   W06
        BYTE           N02     Fs1   v056
        BYTE   W06
        BYTE           N06     As1   v068
        BYTE   W06
        BYTE           N02     Fs1   v056
        BYTE   W06
        BYTE           N06     As1   v068
        BYTE   W06
        BYTE           N02     Fs1   v056
        BYTE   W06
        BYTE   PEND
// 016   ----------------------------------------
        BYTE   PATT
         POIN2  eo3palaceofsplendor_7_15
// 017   ----------------------------------------
        BYTE   PATT
         POIN2  eo3palaceofsplendor_7_15
// 018   ----------------------------------------
        BYTE   PATT
         POIN2  eo3palaceofsplendor_7_15
// 019   ----------------------------------------
        BYTE   PATT
         POIN2  eo3palaceofsplendor_7_15
// 020   ----------------------------------------
        BYTE   PATT
         POIN2  eo3palaceofsplendor_7_15
// 021   ----------------------------------------
        BYTE   PATT
         POIN2  eo3palaceofsplendor_7_15
// 022   ----------------------------------------
        BYTE   PATT
         POIN2  eo3palaceofsplendor_7_15
// 023   ----------------------------------------
        BYTE   PATT
         POIN2  eo3palaceofsplendor_7_1
// 024   ----------------------------------------
        BYTE   PATT
         POIN2  eo3palaceofsplendor_7_1
// 025   ----------------------------------------
        BYTE   PATT
         POIN2  eo3palaceofsplendor_7_1
// 026   ----------------------------------------
        BYTE   PATT
         POIN2  eo3palaceofsplendor_7_1
// 027   ----------------------------------------
        BYTE   PATT
         POIN2  eo3palaceofsplendor_7_1
// 028   ----------------------------------------
        BYTE   PATT
         POIN2  eo3palaceofsplendor_7_1
// 029   ----------------------------------------
        BYTE   PATT
         POIN2  eo3palaceofsplendor_7_1
// 030   ----------------------------------------
        BYTE   PATT
         POIN2  eo3palaceofsplendor_7_1
// 031   ----------------------------------------
        BYTE   PATT
         POIN2  eo3palaceofsplendor_7_1
// 032   ----------------------------------------
        BYTE   PATT
         POIN2  eo3palaceofsplendor_7_1
// 033   ----------------------------------------
        BYTE   PATT
         POIN2  eo3palaceofsplendor_7_1
// 034   ----------------------------------------
        BYTE   PATT
         POIN2  eo3palaceofsplendor_7_1
// 035   ----------------------------------------
        BYTE   PATT
         POIN2  eo3palaceofsplendor_7_1
// 036   ----------------------------------------
        BYTE   PATT
         POIN2  eo3palaceofsplendor_7_1
// 037   ----------------------------------------
        BYTE   PATT
         POIN2  eo3palaceofsplendor_7_1
// 038   ----------------------------------------
        BYTE   PATT
         POIN2  eo3palaceofsplendor_7_1
// 039   ----------------------------------------
        BYTE   PATT
         POIN2  eo3palaceofsplendor_7_1
// 040   ----------------------------------------
        BYTE           N02     Fs1   v056
        BYTE   W06
        BYTE                   Fs1
        BYTE   W06
        BYTE           N06     As1   v068
        BYTE   W06
        BYTE           N02     Fs1   v056
        BYTE   W06
        BYTE           N06     As1   v068
        BYTE   W06
        BYTE           N02     Fs1   v056
        BYTE   W06
        BYTE           N06     As1   v068
        BYTE   W06
        BYTE           N02     Fs1   v056
        BYTE   W06
        BYTE                   Fs1
        BYTE   W48
// 041   ----------------------------------------
eo3palaceofsplendor_7_41:
        BYTE           N06     As1   v068
        BYTE   W06
        BYTE           N02     Fs1   v056
        BYTE   W06
        BYTE                   As1   v068
        BYTE   W06
        BYTE                   Fs1   v056
        BYTE   W06
        BYTE           N06     As1   v068
        BYTE   W06
        BYTE           N02     Fs1   v056
        BYTE   W06
        BYTE           N04     As1   v060
        BYTE   W06
        BYTE           N02     Fs1   v056
        BYTE   W06
        BYTE           N06     As1   v068
        BYTE   W06
        BYTE           N02     Fs1   v056
        BYTE   W06
        BYTE           N06     As1   v068
        BYTE   W06
        BYTE           N02     Fs1   v056
        BYTE   W06
        BYTE           N06     As1   v068
        BYTE   W06
        BYTE           N02     Fs1   v056
        BYTE   W06
        BYTE           N04     As1   v060
        BYTE   W06
        BYTE           N02     Fs1   v056
        BYTE   W06
        BYTE   PEND
// 042   ----------------------------------------
        BYTE   PATT
         POIN2  eo3palaceofsplendor_7_41
// 043   ----------------------------------------
        BYTE   PATT
         POIN2  eo3palaceofsplendor_7_41
// 044   ----------------------------------------
        BYTE   PATT
         POIN2  eo3palaceofsplendor_7_41
// 045   ----------------------------------------
        BYTE   PATT
         POIN2  eo3palaceofsplendor_7_41
// 046   ----------------------------------------
        BYTE   PATT
         POIN2  eo3palaceofsplendor_7_41
// 047   ----------------------------------------
        BYTE   PATT
         POIN2  eo3palaceofsplendor_7_41
// 048   ----------------------------------------
        BYTE   PATT
         POIN2  eo3palaceofsplendor_7_41
// 049   ----------------------------------------
eo3palaceofsplendor_7_49:
        BYTE           N02     Fs1   v056
        BYTE   W06
        BYTE                   Fs1
        BYTE   W06
        BYTE                   Fs1
        BYTE   W06
        BYTE                   Fs1
        BYTE   W06
        BYTE           N09     As1   v068
        BYTE   W06
        BYTE           N02     Fs1   v056
        BYTE   W06
        BYTE                   Fs1
        BYTE   W06
        BYTE                   Fs1
        BYTE   W06
        BYTE                   Fs1
        BYTE   W06
        BYTE                   Fs1
        BYTE   W06
        BYTE                   Fs1
        BYTE   W06
        BYTE                   Fs1
        BYTE   W06
        BYTE           N09     As1   v068
        BYTE   W06
        BYTE           N02     Fs1   v056
        BYTE   W06
        BYTE                   Fs1
        BYTE   W06
        BYTE                   Fs1
        BYTE   W06
        BYTE   PEND
// 050   ----------------------------------------
        BYTE   PATT
         POIN2  eo3palaceofsplendor_7_49
// 051   ----------------------------------------
        BYTE   PATT
         POIN2  eo3palaceofsplendor_7_49
// 052   ----------------------------------------
        BYTE   PATT
         POIN2  eo3palaceofsplendor_7_49
// 053   ----------------------------------------
        BYTE   PATT
         POIN2  eo3palaceofsplendor_7_49
// 054   ----------------------------------------
        BYTE   PATT
         POIN2  eo3palaceofsplendor_7_49
// 055   ----------------------------------------
        BYTE   PATT
         POIN2  eo3palaceofsplendor_7_49
// 056   ----------------------------------------
        BYTE   PATT
         POIN2  eo3palaceofsplendor_7_49
// 057   ----------------------------------------
        BYTE   PATT
         POIN2  eo3palaceofsplendor_7_49
// 058   ----------------------------------------
        BYTE   PATT
         POIN2  eo3palaceofsplendor_7_49
// 059   ----------------------------------------
        BYTE   PATT
         POIN2  eo3palaceofsplendor_7_49
// 060   ----------------------------------------
        BYTE           N02     Fs1   v056
        BYTE   W06
        BYTE                   Fs1
        BYTE   W06
        BYTE           N06     As1   v068
        BYTE   W06
        BYTE           N02     Fs1   v056
        BYTE   W06
        BYTE           N06     As1   v068
        BYTE   W06
        BYTE           N02     Fs1   v056
        BYTE   W06
        BYTE           N06     As1   v068
        BYTE   W06
        BYTE           N02     Fs1   v056
        BYTE   W06
        BYTE                   Fs1
        BYTE   W06
        BYTE                   Fs1
        BYTE   W06
        BYTE           N06     As1   v068
        BYTE   W06
        BYTE           N02     Fs1   v056
        BYTE   W06
        BYTE           N06     As1   v068
        BYTE   W06
        BYTE           N02     Fs1   v056
        BYTE   W06
        BYTE           N06     As1   v068
        BYTE   W06
        BYTE           N02     Fs1   v056
        BYTE   W06
// 061   ----------------------------------------
        BYTE   GoTo
         POIN2  eo3palaceofsplendor_7_LOOP
        BYTE   FINE


//********************** End of Song ***********************//

        ALIGN 4
eo3palaceofsplendor:
        BYTE   8                       // Num Tracks
        BYTE   0                       // Unknown
        BYTE   eo3palaceofsplendor_pri // Priority
        BYTE   eo3palaceofsplendor_rev // Reverb

        POIN2   eo3palaceofsplendor_grp

        POIN2   eo3palaceofsplendor_0
        POIN2   eo3palaceofsplendor_1
        POIN2   eo3palaceofsplendor_2
        POIN2   eo3palaceofsplendor_3
        POIN2   eo3palaceofsplendor_4
        POIN2   eo3palaceofsplendor_5
        POIN2   eo3palaceofsplendor_6
        POIN2   eo3palaceofsplendor_7

        
