//Event file generated from Sappy .s format.
        #include "MPlayDef.event"

        #define    lang2soldat_grp  MusicVoices
        #define    lang2soldat_pri  0
        #define    lang2soldat_rev  0x80
        #define    lang2soldat_key  0

        // .rodata
        // lang2soldat
        ALIGN 4

//****************** Track 0 (Midi-Chn.0) ******************//

lang2soldat_0:
        BYTE   KEYSH   lang2soldat_key+0
// 000   ----------------------------------------
        BYTE   TEMPO   106/2
        BYTE           VOICE   56
        BYTE           0xCD   0x08 0x20
        BYTE           0xCD   0x09 0x10
        BYTE           MOD     3
        BYTE           BENDR   12
        BYTE           VOL     64
        BYTE   W12
// 001   ----------------------------------------
        BYTE   W96
// 002   ----------------------------------------
lang2soldat_0_LOOP:
        BYTE           N06     Dn4   v114
        BYTE   W06
        BYTE                   En4
        BYTE   W06
        BYTE                   Fn4
        BYTE   W06
        BYTE                   Gn4
        BYTE   W06
        BYTE           N12     An4
        BYTE   W12
        BYTE           N06     Dn4
        BYTE   W06
        BYTE           N36     Cn5
        BYTE   W36
        BYTE           N06     As4
        BYTE   W06
        BYTE                   An4
        BYTE   W06
        BYTE                   Gn4
        BYTE   W05
        BYTE           VOL     48
        BYTE   W01
// 003   ----------------------------------------
lang2soldat_0_3:
        BYTE           N72     An4   v114
        BYTE   W02
        BYTE           VOL     56
        BYTE   W03
        BYTE                   60
        BYTE   W03
        BYTE                   62
        BYTE   W03
        BYTE                   64
        BYTE   W03
        BYTE                   66
        BYTE   W06
        BYTE                   68
        BYTE   W06
        BYTE                   66
        BYTE   W03
        BYTE                   64
        BYTE   W03
        BYTE                   62
        BYTE   W03
        BYTE                   60
        BYTE   W06
        BYTE                   58
        BYTE   W06
        BYTE                   56
        BYTE   W06
        BYTE                   54
        BYTE   W06
        BYTE                   52
        BYTE   W06
        BYTE                   50
        BYTE   W06
        BYTE                   48
        BYTE   W24
        BYTE                   64
        BYTE   W01
        BYTE   PEND
// 004   ----------------------------------------
        BYTE           N06     Dn4
        BYTE   W06
        BYTE                   En4
        BYTE   W06
        BYTE                   Fn4
        BYTE   W06
        BYTE                   Gn4
        BYTE   W06
        BYTE           N12     An4
        BYTE   W12
        BYTE           N06     Dn4
        BYTE   W06
        BYTE           N24     Cn5
        BYTE   W24
        BYTE           N06     Dn5
        BYTE   W06
        BYTE           N08     As4
        BYTE   W09
        BYTE                   An4
        BYTE   W06
        BYTE                   Gn4
        BYTE   W09
// 005   ----------------------------------------
        BYTE           N60     An4
        BYTE   W02
        BYTE           VOL     56
        BYTE   W03
        BYTE                   60
        BYTE   W03
        BYTE                   62
        BYTE   W03
        BYTE                   64
        BYTE   W03
        BYTE                   66
        BYTE   W06
        BYTE                   68
        BYTE   W06
        BYTE                   66
        BYTE   W03
        BYTE                   64
        BYTE   W03
        BYTE                   62
        BYTE   W03
        BYTE                   60
        BYTE   W06
        BYTE                   58
        BYTE   W06
        BYTE                   56
        BYTE   W06
        BYTE                   54
        BYTE   W06
        BYTE                   52
        BYTE   W06
        BYTE                   64
        BYTE   W01
        BYTE           N03     Gn4   v072
        BYTE   W03
        BYTE                   Gs4   v086
        BYTE   W03
        BYTE           N24     An4   v114
        BYTE   W24
// 006   ----------------------------------------
        BYTE           N08
        BYTE   W08
        BYTE                   Gn4
        BYTE   W08
        BYTE                   An4
        BYTE   W07
        BYTE           VOL     48
        BYTE   W01
        BYTE           N40     Dn4   v114   gtp1
        BYTE   W02
        BYTE           VOL     56
        BYTE   W03
        BYTE                   60
        BYTE   W03
        BYTE                   62
        BYTE   W03
        BYTE                   64
        BYTE   W06
        BYTE                   62
        BYTE   W03
        BYTE                   60
        BYTE   W03
        BYTE                   56
        BYTE   W03
        BYTE                   52
        BYTE   W15
        BYTE                   64
        BYTE   W01
        BYTE           N01     En4   v072
        BYTE   W02
        BYTE                   Fn4   v086
        BYTE   W02
        BYTE                   Gn4   v099
        BYTE   W02
        BYTE           N24     An4   v114
        BYTE   W24
// 007   ----------------------------------------
        BYTE           N12     En5
        BYTE   W12
        BYTE                   Fn5
        BYTE   W12
        BYTE           N06     En5
        BYTE   W06
        BYTE                   Cn5
        BYTE   W06
        BYTE                   Gn4
        BYTE   W06
        BYTE           N42     As4
        BYTE   W02
        BYTE           VOL     56
        BYTE   W03
        BYTE                   60
        BYTE   W03
        BYTE                   62
        BYTE   W03
        BYTE                   64
        BYTE   W06
        BYTE                   62
        BYTE   W03
        BYTE                   60
        BYTE   W03
        BYTE                   56
        BYTE   W03
        BYTE                   52
        BYTE   W15
        BYTE                   64
        BYTE   W01
        BYTE           N09     An4
        BYTE   W11
        BYTE           VOL     48
        BYTE   W01
// 008   ----------------------------------------
lang2soldat_0_8:
        BYTE           N96     Gs4   v114
        BYTE   W02
        BYTE           VOL     56
        BYTE   W03
        BYTE                   60
        BYTE   W03
        BYTE                   62
        BYTE   W03
        BYTE                   64
        BYTE   W03
        BYTE                   66
        BYTE   W06
        BYTE                   68
        BYTE   W06
        BYTE                   66
        BYTE   W03
        BYTE                   64
        BYTE   W03
        BYTE                   62
        BYTE   W03
        BYTE                   60
        BYTE   W06
        BYTE                   58
        BYTE   W06
        BYTE                   56
        BYTE   W06
        BYTE                   54
        BYTE   W06
        BYTE                   52
        BYTE   W06
        BYTE                   50
        BYTE   W06
        BYTE                   48
        BYTE   W03
        BYTE                   46
        BYTE   W03
        BYTE                   44
        BYTE   W03
        BYTE                   42
        BYTE   W03
        BYTE                   40
        BYTE   W06
        BYTE                   38
        BYTE   W03
        BYTE                   36
        BYTE   W03
        BYTE                   48
        BYTE   W01
        BYTE   PEND
// 009   ----------------------------------------
        BYTE           N42     An4
        BYTE   W02
        BYTE           VOL     56
        BYTE   W03
        BYTE                   60
        BYTE   W03
        BYTE                   62
        BYTE   W03
        BYTE                   64
        BYTE   W06
        BYTE                   62
        BYTE   W03
        BYTE                   60
        BYTE   W03
        BYTE                   56
        BYTE   W03
        BYTE                   52
        BYTE   W15
        BYTE                   64
        BYTE   W54
        BYTE   W01
// 010   ----------------------------------------
        BYTE           N06     Dn4
        BYTE   W06
        BYTE                   En4
        BYTE   W06
        BYTE                   Fn4
        BYTE   W06
        BYTE                   Gn4
        BYTE   W06
        BYTE           N12     An4
        BYTE   W12
        BYTE           N06     Dn4
        BYTE   W06
        BYTE           N36     Cn5
        BYTE   W36
        BYTE           N06     As4
        BYTE   W06
        BYTE                   An4
        BYTE   W06
        BYTE                   Gn4
        BYTE   W05
        BYTE           VOL     48
        BYTE   W01
// 011   ----------------------------------------
        BYTE           N72     An4
        BYTE   W02
        BYTE           VOL     56
        BYTE   W03
        BYTE                   60
        BYTE   W03
        BYTE                   62
        BYTE   W03
        BYTE                   64
        BYTE   W03
        BYTE                   66
        BYTE   W06
        BYTE                   68
        BYTE   W06
        BYTE                   66
        BYTE   W03
        BYTE                   64
        BYTE   W03
        BYTE                   62
        BYTE   W03
        BYTE                   60
        BYTE   W06
        BYTE                   58
        BYTE   W06
        BYTE                   56
        BYTE   W06
        BYTE                   54
        BYTE   W06
        BYTE                   52
        BYTE   W06
        BYTE                   50
        BYTE   W06
        BYTE                   48
        BYTE   W01
        BYTE           N06     An3
        BYTE   W06
        BYTE                   As3
        BYTE   W06
        BYTE           N12     An3
        BYTE   W11
        BYTE           VOL     64
        BYTE   W01
// 012   ----------------------------------------
        BYTE           N06     Dn4
        BYTE   W06
        BYTE                   En4
        BYTE   W06
        BYTE                   Fn4
        BYTE   W06
        BYTE                   Gn4
        BYTE   W06
        BYTE           N12     An4
        BYTE   W12
        BYTE           N06     Dn4
        BYTE   W06
        BYTE           N24     Cn5
        BYTE   W24
        BYTE           N06     Dn5
        BYTE   W06
        BYTE           N08     As4
        BYTE   W08
        BYTE                   An4
        BYTE   W08
        BYTE                   Gn4
        BYTE   W08
// 013   ----------------------------------------
        BYTE           N72     An4
        BYTE   W02
        BYTE           VOL     56
        BYTE   W03
        BYTE                   60
        BYTE   W03
        BYTE                   62
        BYTE   W03
        BYTE                   64
        BYTE   W03
        BYTE                   66
        BYTE   W06
        BYTE                   68
        BYTE   W06
        BYTE                   66
        BYTE   W03
        BYTE                   64
        BYTE   W03
        BYTE                   62
        BYTE   W03
        BYTE                   60
        BYTE   W06
        BYTE                   58
        BYTE   W06
        BYTE                   56
        BYTE   W06
        BYTE                   54
        BYTE   W06
        BYTE                   52
        BYTE   W06
        BYTE                   50
        BYTE   W06
        BYTE                   48
        BYTE   W01
        BYTE           N03
        BYTE   W04
        BYTE                   An4
        BYTE           VOL     64
        BYTE   W04
        BYTE           N03
        BYTE   W04
        BYTE                   An4
        BYTE   W04
        BYTE                   An4
        BYTE   W04
        BYTE                   An4
        BYTE   W04
// 014   ----------------------------------------
        BYTE           N08
        BYTE   W08
        BYTE                   Gn4
        BYTE   W08
        BYTE                   An4
        BYTE   W07
        BYTE           VOL     48
        BYTE   W01
        BYTE           N42     Dn4
        BYTE   W02
        BYTE           VOL     56
        BYTE   W03
        BYTE                   60
        BYTE   W03
        BYTE                   62
        BYTE   W03
        BYTE                   64
        BYTE   W06
        BYTE                   62
        BYTE   W03
        BYTE                   60
        BYTE   W03
        BYTE                   56
        BYTE   W03
        BYTE                   52
        BYTE   W15
        BYTE                   64
        BYTE   W01
        BYTE           N03     En4
        BYTE   W02
        BYTE                   Fn4
        BYTE   W02
        BYTE                   Gn4
        BYTE   W02
        BYTE           N12     An4
        BYTE   W12
        BYTE                   An4
        BYTE   W12
// 015   ----------------------------------------
        BYTE                   En5
        BYTE   W12
        BYTE                   Fn5
        BYTE   W12
        BYTE           N06     En5
        BYTE   W06
        BYTE                   Cn5
        BYTE   W06
        BYTE                   Gn4
        BYTE   W05
        BYTE           VOL     48
        BYTE   W01
        BYTE           N42     As4
        BYTE   W02
        BYTE           VOL     56
        BYTE   W03
        BYTE                   60
        BYTE   W03
        BYTE                   62
        BYTE   W03
        BYTE                   64
        BYTE   W06
        BYTE                   62
        BYTE   W03
        BYTE                   60
        BYTE   W03
        BYTE                   56
        BYTE   W03
        BYTE                   52
        BYTE   W15
        BYTE                   64
        BYTE   W01
        BYTE           N09     An4
        BYTE   W11
        BYTE           VOL     48
        BYTE   W01
// 016   ----------------------------------------
        BYTE   PATT
         POIN2  lang2soldat_0_8
// 017   ----------------------------------------
        BYTE           N96     An4   v114
        BYTE   W02
        BYTE           VOL     56
        BYTE   W03
        BYTE                   60
        BYTE   W03
        BYTE                   62
        BYTE   W03
        BYTE                   64
        BYTE   W03
        BYTE                   66
        BYTE   W06
        BYTE                   68
        BYTE   W06
        BYTE                   66
        BYTE   W03
        BYTE                   64
        BYTE   W03
        BYTE                   62
        BYTE   W03
        BYTE                   60
        BYTE   W06
        BYTE                   58
        BYTE   W06
        BYTE                   56
        BYTE   W06
        BYTE                   54
        BYTE   W06
        BYTE                   52
        BYTE   W06
        BYTE                   50
        BYTE   W06
        BYTE                   48
        BYTE   W03
        BYTE                   46
        BYTE   W03
        BYTE                   44
        BYTE   W03
        BYTE                   42
        BYTE   W03
        BYTE                   40
        BYTE   W06
        BYTE                   38
        BYTE   W03
        BYTE                   36
        BYTE   W03
        BYTE           PAN     c_v+16
        BYTE           VOL     64
        BYTE   W01
// 018   ----------------------------------------
        BYTE           VOICE   13
        BYTE           N07     An4   v072
        BYTE   W08
        BYTE                   Gn4
        BYTE   W08
        BYTE                   An4
        BYTE   W08
        BYTE           N05     Dn4
        BYTE   W06
        BYTE           N12     Dn4   v044
        BYTE   W12
        BYTE           N05     Dn4   v072
        BYTE   W06
        BYTE           N07     An4
        BYTE   W08
        BYTE                   Gn4
        BYTE   W08
        BYTE                   An4
        BYTE   W08
        BYTE           N11     En4
        BYTE   W12
        BYTE           N12     En4   v044
        BYTE   W12
// 019   ----------------------------------------
        BYTE           N07     Cn5   v072
        BYTE   W08
        BYTE                   As4
        BYTE   W08
        BYTE                   An4
        BYTE   W08
        BYTE           N05     Gn4
        BYTE   W06
        BYTE                   Fn4
        BYTE   W06
        BYTE                   Gn4
        BYTE   W06
        BYTE           N06     An4
        BYTE   W06
        BYTE           N12     An4   v036
        BYTE   W36
        BYTE           N05     Gn4   v072
        BYTE   W06
        BYTE                   Fn4
        BYTE   W06
// 020   ----------------------------------------
lang2soldat_0_20:
        BYTE           N12     En4   v072
        BYTE   W12
        BYTE                   En4   v036
        BYTE   W84
        BYTE   PEND
// 021   ----------------------------------------
        BYTE   W96
// 022   ----------------------------------------
        BYTE           N07     An4   v072
        BYTE   W08
        BYTE                   Gn4
        BYTE   W08
        BYTE                   An4
        BYTE   W08
        BYTE           N05     Dn4
        BYTE   W06
        BYTE           N12     Dn4   v044
        BYTE   W12
        BYTE           N05     Dn4   v072
        BYTE   W06
        BYTE           N07     An4
        BYTE   W08
        BYTE                   Gn4
        BYTE   W08
        BYTE                   An4
        BYTE   W08
        BYTE           N05     En4
        BYTE   W06
        BYTE           N12     En4   v044
        BYTE   W12
        BYTE           N05     En4   v072
        BYTE   W06
// 023   ----------------------------------------
        BYTE           N07     Cn5
        BYTE   W08
        BYTE                   As4
        BYTE   W08
        BYTE                   An4
        BYTE   W08
        BYTE           N05     Gn4
        BYTE   W06
        BYTE                   Fn4
        BYTE   W06
        BYTE                   Gn4
        BYTE   W06
        BYTE           N12     An4
        BYTE   W12
        BYTE                   An4   v036
        BYTE   W30
        BYTE           N05     Gn4   v072
        BYTE   W06
        BYTE                   Fn4
        BYTE   W06
// 024   ----------------------------------------
        BYTE   PATT
         POIN2  lang2soldat_0_20
// 025   ----------------------------------------
        BYTE   W96
// 026   ----------------------------------------
        BYTE           N12     En4   v072
        BYTE   W12
        BYTE                   En4   v036
        BYTE   W54
        BYTE           N05     Gn4   v072
        BYTE   W06
        BYTE           N12     Gn4   v044
        BYTE   W12
        BYTE           N11     Fn4   v072
        BYTE   W12
// 027   ----------------------------------------
        BYTE           N12     En4
        BYTE   W12
        BYTE                   En4   v036
        BYTE   W56
        BYTE   W03
        BYTE           PAN     c_v-24
        BYTE   W01
        BYTE           VOICE   65
        BYTE           N02     An3   v044
        BYTE   W03
        BYTE                   As3
        BYTE   W03
        BYTE           N05     An3
        BYTE   W06
        BYTE           N11
        BYTE   W11
        BYTE           PAN     c_v+0
        BYTE   W01
// 028   ----------------------------------------
        BYTE           VOICE   56
        BYTE           N06     Dn4   v114
        BYTE   W06
        BYTE                   En4
        BYTE   W06
        BYTE                   Fn4
        BYTE   W06
        BYTE                   Gn4
        BYTE   W06
        BYTE           N12     An4
        BYTE   W12
        BYTE           N06     Dn4
        BYTE   W06
        BYTE           N36     Cn5
        BYTE   W36
        BYTE           N06     As4
        BYTE   W06
        BYTE                   An4
        BYTE   W06
        BYTE                   Gn4
        BYTE   W05
        BYTE           VOL     48
        BYTE   W01
// 029   ----------------------------------------
        BYTE   PATT
         POIN2  lang2soldat_0_3
// 030   ----------------------------------------
        BYTE           N06     Dn4   v114
        BYTE   W06
        BYTE                   En4
        BYTE   W06
        BYTE                   Fn4
        BYTE   W06
        BYTE                   Gn4
        BYTE   W06
        BYTE           N12     An4
        BYTE   W12
        BYTE           N06     Dn4
        BYTE   W06
        BYTE           N24     Cn5
        BYTE   W24
        BYTE           N06     Dn5
        BYTE   W06
        BYTE           N08     As4
        BYTE   W08
        BYTE                   An4
        BYTE   W08
        BYTE                   Gn4
        BYTE   W07
        BYTE           VOL     48
        BYTE   W01
// 031   ----------------------------------------
        BYTE           N60     An4
        BYTE   W02
        BYTE           VOL     56
        BYTE   W03
        BYTE                   60
        BYTE   W03
        BYTE                   62
        BYTE   W03
        BYTE                   64
        BYTE   W03
        BYTE                   66
        BYTE   W06
        BYTE                   68
        BYTE   W06
        BYTE                   66
        BYTE   W03
        BYTE                   64
        BYTE   W03
        BYTE                   62
        BYTE   W03
        BYTE                   60
        BYTE   W06
        BYTE                   58
        BYTE   W06
        BYTE                   56
        BYTE   W06
        BYTE                   54
        BYTE   W06
        BYTE                   52
        BYTE   W06
        BYTE                   50
        BYTE   W01
        BYTE           N01     Gn4   v072
        BYTE   W02
        BYTE           N03     Gs4   v086
        BYTE   W03
        BYTE           VOL     64
        BYTE   W01
        BYTE           N23     An4   v114
        BYTE   W24
// 032   ----------------------------------------
        BYTE           N08
        BYTE   W08
        BYTE                   Gn4
        BYTE   W08
        BYTE                   An4
        BYTE   W08
        BYTE           N42     Dn4
        BYTE   W42
        BYTE           N01     En4   v072
        BYTE   W02
        BYTE                   Fn4   v086
        BYTE   W02
        BYTE                   Gn4   v099
        BYTE   W02
        BYTE           N11     An4   v114
        BYTE   W12
        BYTE           N12
        BYTE   W12
// 033   ----------------------------------------
        BYTE                   En5
        BYTE   W12
        BYTE                   Fn5
        BYTE   W12
        BYTE           N06     En5
        BYTE   W06
        BYTE                   Cn5
        BYTE   W06
        BYTE                   Gn4
        BYTE   W05
        BYTE           VOL     48
        BYTE   W01
        BYTE           N42     As4
        BYTE   W02
        BYTE           VOL     56
        BYTE   W03
        BYTE                   60
        BYTE   W03
        BYTE                   62
        BYTE   W03
        BYTE                   64
        BYTE   W06
        BYTE                   62
        BYTE   W03
        BYTE                   60
        BYTE   W03
        BYTE                   56
        BYTE   W03
        BYTE                   52
        BYTE   W15
        BYTE                   64
        BYTE   W01
        BYTE           N09     An4
        BYTE   W11
        BYTE           VOL     62
        BYTE   W01
// 034   ----------------------------------------
        BYTE           N48     As3   v099
        BYTE           N48     Gn4   v127
        BYTE   W02
        BYTE           VOL     64
        BYTE   W03
        BYTE                   66
        BYTE   W03
        BYTE                   64
        BYTE   W15
        BYTE                   58
        BYTE   W03
        BYTE                   56
        BYTE   W03
        BYTE                   54
        BYTE   W03
        BYTE                   52
        BYTE   W03
        BYTE                   50
        BYTE   W03
        BYTE                   52
        BYTE   W03
        BYTE                   54
        BYTE   W03
        BYTE                   58
        BYTE   W04
        BYTE           N48     Cn4   v099
        BYTE           N48     An4   v127
        BYTE   W02
        BYTE           VOL     64
        BYTE   W03
        BYTE                   66
        BYTE   W03
        BYTE                   64
        BYTE   W15
        BYTE                   58
        BYTE   W03
        BYTE                   56
        BYTE   W03
        BYTE                   54
        BYTE   W03
        BYTE                   52
        BYTE   W03
        BYTE                   50
        BYTE   W03
        BYTE                   52
        BYTE   W03
        BYTE                   54
        BYTE   W03
        BYTE                   58
        BYTE   W04
// 035   ----------------------------------------
        BYTE           N48     Dn4   v099
        BYTE           N48     As4   v127
        BYTE   W02
        BYTE           VOL     64
        BYTE   W03
        BYTE                   66
        BYTE   W03
        BYTE                   64
        BYTE   W15
        BYTE                   58
        BYTE   W03
        BYTE                   56
        BYTE   W03
        BYTE                   54
        BYTE   W03
        BYTE                   52
        BYTE   W03
        BYTE                   50
        BYTE   W03
        BYTE                   52
        BYTE   W03
        BYTE                   54
        BYTE   W03
        BYTE                   58
        BYTE   W03
        BYTE                   64
        BYTE   W01
        BYTE           N17     En4   v099
        BYTE           N17     Cn5   v127
        BYTE   W18
        BYTE           N01     Fn4   v059
        BYTE           N01     Cs5   v086
        BYTE   W02
        BYTE                   Fs4   v059
        BYTE           N01     Dn5   v086
        BYTE   W02
        BYTE                   Ds5
        BYTE   W02
        BYTE           N23     Gn4   v099
        BYTE           N23     En5   v127
        BYTE   W24
// 036   ----------------------------------------
        BYTE           N42     Fn4   v099
        BYTE           N42     Dn5   v127
        BYTE   W42
        BYTE           N30     Gn4   v099
        BYTE           N30     Ds5   v127
        BYTE   W30
        BYTE           N06     Ds4   v099
        BYTE           N06     Cn5   v127
        BYTE   W12
        BYTE           N03     Ds4   v092
        BYTE           N03     Cn5
        BYTE   W04
        BYTE                   Ds4
        BYTE           N03     Cn5
        BYTE   W04
        BYTE                   Ds4
        BYTE           N03     Cn5
        BYTE   W04
// 037   ----------------------------------------
        BYTE           N40     Fn4   v099   gtp1
        BYTE                   Dn5   v127
        BYTE   W42
        BYTE           N18     An4   v099
        BYTE           N18     Fn5   v127
        BYTE           BEND    c_v-53
        BYTE   W01
        BYTE                   c_v-39
        BYTE   W01
        BYTE                   c_v-28
        BYTE   W01
        BYTE                   c_v-20
        BYTE   W01
        BYTE                   c_v-15
        BYTE   W01
        BYTE                   c_v-11
        BYTE   W01
        BYTE                   c_v-8
        BYTE   W01
        BYTE                   c_v-5
        BYTE   W01
        BYTE                   c_v-4
        BYTE   W01
        BYTE                   c_v-3
        BYTE   W01
        BYTE                   c_v-2
        BYTE   W01
        BYTE                   c_v-1
        BYTE   W02
        BYTE                   c_v+0
        BYTE   W05
        BYTE           N12     Gn4   v099
        BYTE           N12     Ds5   v127
        BYTE   W12
        BYTE           N06     Ds4   v099
        BYTE           N06     Cn5   v127
        BYTE   W12
        BYTE           N03     Ds4   v074
        BYTE           N03     Cn5
        BYTE   W04
        BYTE                   Ds4   v083
        BYTE           N03     Cn5
        BYTE   W04
        BYTE                   Ds4   v092
        BYTE           N03     Cn5
        BYTE   W04
// 038   ----------------------------------------
        BYTE           N40     Fn4   v099   gtp1
        BYTE                   Dn5   v127
        BYTE   W42
        BYTE           N30     Gn4   v099
        BYTE           N30     Ds5   v127
        BYTE   W30
        BYTE           N06     Ds4   v099
        BYTE           N06     Cn5   v127
        BYTE   W12
        BYTE           N03     Ds4   v074
        BYTE           N03     Cn5
        BYTE   W04
        BYTE                   Ds4   v083
        BYTE           N03     Cn5
        BYTE   W04
        BYTE                   Ds4   v092
        BYTE           N03     Cn5
        BYTE   W04
// 039   ----------------------------------------
        BYTE           N44     Fn4   v099   gtp3
        BYTE                   Dn5   v127
        BYTE   W05
        BYTE           VOL     66
        BYTE   W03
        BYTE                   64
        BYTE   W15
        BYTE                   58
        BYTE   W03
        BYTE                   56
        BYTE   W03
        BYTE                   54
        BYTE   W03
        BYTE                   52
        BYTE   W03
        BYTE                   50
        BYTE   W03
        BYTE                   52
        BYTE   W03
        BYTE                   54
        BYTE   W03
        BYTE                   58
        BYTE   W52
// 040   ----------------------------------------
        BYTE                   64
        BYTE   GoTo
         POIN2  lang2soldat_0_LOOP
        BYTE   FINE

//****************** Track 1 (Midi-Chn.1) ******************//

lang2soldat_1:
        BYTE   KEYSH   lang2soldat_key+0
// 000   ----------------------------------------
        BYTE           VOICE   65
        BYTE           LFOS   4
        BYTE           BENDR   12
        BYTE           VOL     38
        BYTE           MOD     2
        BYTE           PAN     c_v+32
        BYTE   W04
        BYTE           N01     Cn2   v088
        BYTE           PAN     c_v-16
        BYTE   W01
        BYTE           N01     Dn2
        BYTE           PAN     c_v-8
        BYTE   W01
        BYTE           N01     En2
        BYTE   W01
        BYTE                   Fn2
        BYTE           PAN     c_v+0
        BYTE   W01
        BYTE           N01     Gn2
        BYTE           PAN     c_v+8
        BYTE   W01
        BYTE           N01     An2
        BYTE   W01
        BYTE                   Bn2
        BYTE           PAN     c_v+16
        BYTE   W01
        BYTE           N01     Cn3
        BYTE           PAN     c_v+24
        BYTE   W01
// 001   ----------------------------------------
        BYTE           N11     Dn3   v100
        BYTE           N11     An3
        BYTE           N12     Fn3
        BYTE   W01
        BYTE           PAN     c_v+32
        BYTE   W10
        BYTE                   c_v+0
        BYTE   W01
        BYTE           N03     An3   v040
        BYTE           N03     Fn3
        BYTE   W05
        BYTE           PAN     c_v-16
        BYTE   W01
        BYTE           N11     Gn2   v100
        BYTE           N11     Cn3
        BYTE           N11     En3
        BYTE           N11     Gn3
        BYTE   W01
        BYTE           PAN     c_v-24
        BYTE   W10
        BYTE                   c_v+0
        BYTE   W01
        BYTE           N03     Gn3   v040
        BYTE           N03     En3
        BYTE   W11
        BYTE           PAN     c_v+24
        BYTE   W01
        BYTE           N11     En2   v100
        BYTE           N11     An2
        BYTE           N11     Cs3
        BYTE           N11     En3
        BYTE   W01
        BYTE           PAN     c_v+32
        BYTE   W10
        BYTE                   c_v+0
        BYTE   W01
        BYTE           N06     En3   v040
        BYTE           N06     Cs3
        BYTE   W42
// 002   ----------------------------------------
lang2soldat_1_LOOP:
        BYTE   W96
// 003   ----------------------------------------
        BYTE   W96
// 004   ----------------------------------------
        BYTE   W96
// 005   ----------------------------------------
        BYTE   W96
// 006   ----------------------------------------
        BYTE   W96
// 007   ----------------------------------------
        BYTE   W96
// 008   ----------------------------------------
        BYTE   W96
// 009   ----------------------------------------
        BYTE   W28
        BYTE   W01
        BYTE           PAN     c_v-24
        BYTE   W01
        BYTE           N02     Cn2   v117
        BYTE   W01
        BYTE           PAN     c_v-16
        BYTE   W01
        BYTE           N02     Dn2
        BYTE   W01
        BYTE           PAN     c_v-8
        BYTE   W01
        BYTE           N02     En2
        BYTE   W01
        BYTE           PAN     c_v+0
        BYTE   W01
        BYTE           N02     Fn2
        BYTE   W01
        BYTE           PAN     c_v+8
        BYTE   W01
        BYTE           N02     Gn2
        BYTE   W01
        BYTE           PAN     c_v+16
        BYTE   W01
        BYTE           N02     An2
        BYTE   W01
        BYTE           PAN     c_v+24
        BYTE   W01
        BYTE           N08     As2   v092
        BYTE           N08     Dn3
        BYTE           N08     Fn3
        BYTE           N08     An3
        BYTE   W02
        BYTE           PAN     c_v+32
        BYTE   W09
        BYTE                   c_v+0
        BYTE   W01
        BYTE           N04     As2
        BYTE           N04     Dn3
        BYTE           N04     Fn3
        BYTE           N04     An3
        BYTE   W05
        BYTE           PAN     c_v+32
        BYTE   W01
        BYTE           N05     As2   v069
        BYTE           N05     Dn3
        BYTE           N05     Fn3   v080
        BYTE           N05     An3   v069
        BYTE   W06
        BYTE                   An2   v092
        BYTE           N05     Cs3
        BYTE           N05     En3
        BYTE           N05     An3
        BYTE   W06
        BYTE                   En3   v040
        BYTE           N05     An3
        BYTE   W06
        BYTE           N06     Gn2   v102
        BYTE   W06
        BYTE                   Fn2
        BYTE   W06
        BYTE                   En2
        BYTE   W06
// 010   ----------------------------------------
        BYTE           N42     Fn2   v072
        BYTE   W42
        BYTE           N54     Gn2
        BYTE   W54
// 011   ----------------------------------------
        BYTE           N06     An2
        BYTE   W06
        BYTE                   As2
        BYTE   W06
        BYTE                   An2
        BYTE   W06
        BYTE                   An3
        BYTE   W06
        BYTE                   As3   v064
        BYTE   W06
        BYTE                   An3
        BYTE   W06
        BYTE                   An4   v056
        BYTE   W06
        BYTE                   As4
        BYTE   W06
        BYTE           N48     An4
        BYTE   W48
// 012   ----------------------------------------
        BYTE   W12
        BYTE           N12     Fn4   v062
        BYTE   W12
        BYTE                   En4
        BYTE   W12
        BYTE           N06     Fn4
        BYTE   W06
        BYTE           N54     Ds4
        BYTE   W54
// 013   ----------------------------------------
        BYTE           N06     Dn4
        BYTE   W06
        BYTE                   Cs4
        BYTE   W06
        BYTE                   Dn4
        BYTE   W06
        BYTE                   An3   v092
        BYTE   W06
        BYTE                   Gs3
        BYTE   W06
        BYTE                   An3
        BYTE   W06
        BYTE                   Fn3
        BYTE   W06
        BYTE                   En3
        BYTE   W06
        BYTE           N24     Fn3
        BYTE   W24
        BYTE                   En3
        BYTE   W24
// 014   ----------------------------------------
        BYTE           TIE     Dn3
        BYTE   W96
// 015   ----------------------------------------
        BYTE   W42
        BYTE           EOT
        BYTE           N54     Fn3
        BYTE   W54
// 016   ----------------------------------------
        BYTE           N24     En3
        BYTE   W24
        BYTE           N18     Fn3
        BYTE   W18
        BYTE           N30     En3
        BYTE   W30
        BYTE           N24     Dn3
        BYTE   W24
// 017   ----------------------------------------
        BYTE           N06     En3
        BYTE   W12
        BYTE                   Fn3
        BYTE   W12
        BYTE                   Gn3
        BYTE   W12
        BYTE                   An3
        BYTE   W06
        BYTE           N12     As3
        BYTE   W12
        BYTE           N06
        BYTE   W06
        BYTE                   An3
        BYTE   W06
        BYTE           N07     An4   v082
        BYTE   W12
        BYTE           N06     Gn4
        BYTE   W06
        BYTE           N04     En4
        BYTE   W04
        BYTE                   An3   v092
        BYTE   W04
        BYTE                   En3
        BYTE   W04
// 018   ----------------------------------------
lang2soldat_1_18:
        BYTE           VOICE   105
        BYTE           N11     Fn2   v080
        BYTE           N11     As2
        BYTE   W36
        BYTE           N05     Fn2
        BYTE           N05     As2
        BYTE   W06
        BYTE           N11     Fn2
        BYTE           N11     As2
        BYTE   W48
        BYTE           N05     Fn2
        BYTE           N05     As2
        BYTE   W06
        BYTE   PEND
// 019   ----------------------------------------
lang2soldat_1_19:
        BYTE           N11     En2   v080
        BYTE           N11     An2
        BYTE   W36
        BYTE           N05     En2
        BYTE           N05     An2
        BYTE   W06
        BYTE           N11     Dn3
        BYTE   W12
        BYTE           N05     An2
        BYTE   W06
        BYTE                   Fn3
        BYTE   W06
        BYTE           N11     En3
        BYTE   W12
        BYTE           N05     Dn3
        BYTE   W06
        BYTE                   Cn3
        BYTE   W06
        BYTE                   As2
        BYTE   W06
        BYTE   PEND
// 020   ----------------------------------------
        BYTE           N12     An2   v072
        BYTE   W11
        BYTE           MOD     4
        BYTE   W01
        BYTE           LFOS   50
        BYTE           VOICE   41
        BYTE           N68     An4   v080   gtp3
        BYTE           BEND    c_v-56
        BYTE   W01
        BYTE                   c_v-44
        BYTE   W01
        BYTE                   c_v-34
        BYTE   W01
        BYTE                   c_v-27
        BYTE   W01
        BYTE                   c_v-21
        BYTE   W01
        BYTE                   c_v-17
        BYTE   W01
        BYTE                   c_v-13
        BYTE   W01
        BYTE                   c_v-10
        BYTE   W01
        BYTE                   c_v-8
        BYTE   W01
        BYTE                   c_v-6
        BYTE   W01
        BYTE                   c_v-5
        BYTE   W01
        BYTE                   c_v-4
        BYTE   W01
        BYTE                   c_v-3
        BYTE   W01
        BYTE                   c_v-2
        BYTE   W02
        BYTE                   c_v-1
        BYTE   W03
        BYTE                   c_v+0
        BYTE   W05
        BYTE           MOD     6
        BYTE   W36
        BYTE                   9
        BYTE   W12
        BYTE                   1
        BYTE   W01
        BYTE           N06     Gn4
        BYTE   W06
        BYTE                   Fn4
        BYTE   W06
// 021   ----------------------------------------
        BYTE                   En4
        BYTE   W04
        BYTE                   Fn4
        BYTE   W04
        BYTE                   En4
        BYTE   W04
        BYTE                   Dn4
        BYTE   W04
        BYTE                   En4
        BYTE   W04
        BYTE                   Dn4
        BYTE   W04
        BYTE                   Cn4
        BYTE   W04
        BYTE                   Dn4
        BYTE   W04
        BYTE                   Cn4
        BYTE   W04
        BYTE                   As3
        BYTE   W04
        BYTE                   Cn4
        BYTE   W04
        BYTE                   As3
        BYTE   W04
        BYTE                   An3
        BYTE   W04
        BYTE                   As3
        BYTE   W04
        BYTE                   An3
        BYTE   W04
        BYTE                   Gs3
        BYTE   W04
        BYTE                   An3
        BYTE   W04
        BYTE                   En3
        BYTE   W04
        BYTE                   En4
        BYTE   W04
        BYTE                   Cs4
        BYTE   W04
        BYTE                   An3
        BYTE   W04
        BYTE                   Gn3
        BYTE   W04
        BYTE                   En3
        BYTE   W04
        BYTE           N04     An2
        BYTE   W04
        BYTE           LFOS   4
// 022   ----------------------------------------
        BYTE   PATT
         POIN2  lang2soldat_1_18
// 023   ----------------------------------------
        BYTE   PATT
         POIN2  lang2soldat_1_19
// 024   ----------------------------------------
        BYTE           TIE     An2   v080
        BYTE   W23
        BYTE           VOL     36
        BYTE   W24
        BYTE                   34
        BYTE   W24
        BYTE                   32
        BYTE   W24
        BYTE                   30
        BYTE   W01
// 025   ----------------------------------------
        BYTE   W23
        BYTE                   28
        BYTE   W24
        BYTE                   26
        BYTE   W24
        BYTE                   24
        BYTE   W24
        BYTE                   22
        BYTE   W01
// 026   ----------------------------------------
        BYTE   W92
        BYTE   W03
        BYTE                   20
        BYTE   W01
// 027   ----------------------------------------
        BYTE   W40
        BYTE   W01
        BYTE                   38
        BYTE           MOD     4
        BYTE   W01
        BYTE           VOICE   65
        BYTE           N08     Dn3   v104
        BYTE           N08     En3
        BYTE           N08     An3
        BYTE   W06
        BYTE           EOT     An2
        BYTE   W06
        BYTE           N02     En3   v061
        BYTE           N02     An3   v075
        BYTE   W06
        BYTE           N05     En3   v104
        BYTE           N05     An3
        BYTE   W06
        BYTE           N08     En3   v090
        BYTE           N08     An3   v104
        BYTE   W11
        BYTE           PAN     c_v+0
        BYTE   W01
        BYTE           N06     En3   v036
        BYTE           N06     An3
        BYTE   W18
// 028   ----------------------------------------
        BYTE   W96
// 029   ----------------------------------------
        BYTE   W96
// 030   ----------------------------------------
        BYTE   W96
// 031   ----------------------------------------
        BYTE   W96
// 032   ----------------------------------------
        BYTE   W96
// 033   ----------------------------------------
        BYTE   W96
// 034   ----------------------------------------
        BYTE   W23
        BYTE           PAN     c_v+32
        BYTE   W01
        BYTE           N23     Dn3   v099
        BYTE   W24
        BYTE           N12     Dn3   v020
        BYTE   W24
        BYTE           N23     En3   v099
        BYTE   W24
// 035   ----------------------------------------
        BYTE           N12     En3   v020
        BYTE   W24
        BYTE           N23     Dn3   v088
        BYTE           N23     Fn3
        BYTE   W24
        BYTE                   En3
        BYTE   W24
        BYTE                   En3
        BYTE   W24
// 036   ----------------------------------------
        BYTE           N06     En3   v036
        BYTE   W12
        BYTE           N04     Dn3   v088
        BYTE           N04     Fn3
        BYTE   W06
        BYTE                   Dn3   v028
        BYTE           N04     Fn3
        BYTE   W12
        BYTE                   Dn3   v065
        BYTE           N04     Fn3   v076
        BYTE   W06
        BYTE                   Dn3   v028
        BYTE           N04     Fn3
        BYTE   W24
        BYTE                   Ds3   v088
        BYTE           N04     Gn3
        BYTE   W06
        BYTE                   Ds3   v028
        BYTE           N04     Gn3
        BYTE   W12
        BYTE           N03     Ds3   v076
        BYTE           N03     Gn3
        BYTE   W06
        BYTE           N04     Ds3   v028
        BYTE           N04     Gn3
        BYTE   W12
// 037   ----------------------------------------
        BYTE   W12
        BYTE           N03     Dn3   v088
        BYTE           N03     Fn3
        BYTE   W06
        BYTE           N04     Dn3   v028
        BYTE           N04     Fn3
        BYTE   W12
        BYTE           N03     Dn3   v065
        BYTE           N03     Fn3   v076
        BYTE   W06
        BYTE           N04     Dn3   v028
        BYTE           N04     Fn3
        BYTE   W24
        BYTE           N05     Ds3   v088
        BYTE           N05     Gn3
        BYTE   W06
        BYTE           N04     Ds3   v028
        BYTE           N04     Gn3
        BYTE   W12
        BYTE           N03     Ds3   v076
        BYTE           N03     Gn3
        BYTE   W06
        BYTE           N04     Ds3   v028
        BYTE           N04     Gn3
        BYTE   W12
// 038   ----------------------------------------
        BYTE   W12
        BYTE                   Dn3   v088
        BYTE           N04     Fn3
        BYTE   W06
        BYTE                   Dn3   v028
        BYTE           N04     Fn3
        BYTE   W12
        BYTE                   Dn3   v065
        BYTE           N04     Fn3   v076
        BYTE   W06
        BYTE                   Dn3   v028
        BYTE           N04     Fn3
        BYTE   W24
        BYTE           N06     Ds3   v088
        BYTE           N06     Gn3
        BYTE   W06
        BYTE           N04     Ds3   v028
        BYTE           N04     Gn3
        BYTE   W12
        BYTE                   Ds3   v076
        BYTE           N04     Gn3
        BYTE   W06
        BYTE                   Ds3   v028
        BYTE           N04     Gn3
        BYTE   W12
// 039   ----------------------------------------
        BYTE   W12
        BYTE                   Dn3   v088
        BYTE           N04     Fn3   v076
        BYTE   W06
        BYTE                   Dn3   v028
        BYTE           N04     Fn3
        BYTE   W12
        BYTE                   Dn3   v076
        BYTE           N04     Fn3   v088
        BYTE   W12
        BYTE           N11     Ds3   v068
        BYTE   W12
        BYTE           N05     As2
        BYTE   W06
        BYTE                   Ds3
        BYTE   W06
        BYTE                   Gn3
        BYTE   W06
        BYTE                   As3
        BYTE   W06
        BYTE                   As3
        BYTE   W06
        BYTE           N06     As3   v028
        BYTE   W12
// 040   ----------------------------------------
        BYTE           PAN     c_v+0
        BYTE           MOD     2
        BYTE   GoTo
         POIN2  lang2soldat_1_LOOP
        BYTE   FINE

//****************** Track 2 (Midi-Chn.2) ******************//

lang2soldat_2:
        BYTE   KEYSH   lang2soldat_key+0
// 000   ----------------------------------------
        BYTE           VOICE   65
        BYTE           MOD     1
        BYTE           VOL     40
        BYTE   W12
// 001   ----------------------------------------
        BYTE   W96
// 002   ----------------------------------------
lang2soldat_2_LOOP:
        BYTE           VOICE   124
        BYTE           N48     An2   v100
        BYTE   W96
// 003   ----------------------------------------
        BYTE   W96
// 004   ----------------------------------------
        BYTE   W96
// 005   ----------------------------------------
        BYTE   W96
// 006   ----------------------------------------
        BYTE   W96
// 007   ----------------------------------------
        BYTE   W96
// 008   ----------------------------------------
        BYTE   W96
// 009   ----------------------------------------
        BYTE   W42
        BYTE                   Gn2   v080
        BYTE   W54
// 010   ----------------------------------------
        BYTE                   An2   v100
        BYTE   W96
// 011   ----------------------------------------
        BYTE   W96
// 012   ----------------------------------------
        BYTE   W96
// 013   ----------------------------------------
        BYTE   W96
// 014   ----------------------------------------
        BYTE   W96
// 015   ----------------------------------------
        BYTE   W96
// 016   ----------------------------------------
        BYTE   W96
// 017   ----------------------------------------
        BYTE   W92
        BYTE   W03
        BYTE           PAN     c_v+16
        BYTE   W01
// 018   ----------------------------------------
lang2soldat_2_18:
        BYTE           VOICE   65
        BYTE           N08     Fn3   v088
        BYTE           N08     As3
        BYTE           N08     Dn4
        BYTE   W12
        BYTE           N05     As3   v032
        BYTE           N05     Dn4
        BYTE   W24
        BYTE           N02     Fn3   v080
        BYTE           N02     As3
        BYTE           N02     Dn4
        BYTE   W06
        BYTE           N05     Fn3   v088
        BYTE           N05     As3
        BYTE           N05     Dn4
        BYTE   W06
        BYTE                   As3   v032
        BYTE           N05     Dn4
        BYTE   W42
        BYTE           N02     Fn3   v080
        BYTE           N02     As3
        BYTE           N02     Dn4
        BYTE   W06
        BYTE   PEND
// 019   ----------------------------------------
lang2soldat_2_19:
        BYTE           N08     En3   v088
        BYTE           N08     An3
        BYTE           N08     Cn4
        BYTE   W12
        BYTE           N05     An3   v032
        BYTE           N05     Cn4
        BYTE   W24
        BYTE           N04     En3   v080
        BYTE           N04     An3
        BYTE           N04     Cn4
        BYTE   W06
        BYTE           N54     Fn3   v088
        BYTE           N54     An3
        BYTE           N54     Dn4
        BYTE   W52
        BYTE   W01
        BYTE           PAN     c_v+0
        BYTE   W01
        BYTE   PEND
// 020   ----------------------------------------
lang2soldat_2_20:
        BYTE           VOICE   124
        BYTE           N48     An2   v100
        BYTE   W96
        BYTE   PEND
// 021   ----------------------------------------
        BYTE   W92
        BYTE   W03
        BYTE           PAN     c_v+16
        BYTE   W01
// 022   ----------------------------------------
        BYTE   PATT
         POIN2  lang2soldat_2_18
// 023   ----------------------------------------
        BYTE   PATT
         POIN2  lang2soldat_2_19
// 024   ----------------------------------------
        BYTE   PATT
         POIN2  lang2soldat_2_20
// 025   ----------------------------------------
        BYTE   W96
// 026   ----------------------------------------
        BYTE   W96
// 027   ----------------------------------------
        BYTE   W23
        BYTE           PAN     c_v+16
        BYTE           BEND    c_v-64
        BYTE           BENDR   16
        BYTE   W01
        BYTE           VOICE   65
        BYTE           N24     An2   v100   gtp2
        BYTE   W01
        BYTE           BEND    c_v-57
        BYTE   W03
        BYTE                   c_v-50
        BYTE   W01
        BYTE                   c_v-43
        BYTE   W02
        BYTE                   c_v-36
        BYTE   W03
        BYTE                   c_v-28
        BYTE   W01
        BYTE                   c_v-21
        BYTE   W02
        BYTE                   c_v-14
        BYTE   W03
        BYTE                   c_v-7
        BYTE   W07
        BYTE                   c_v+0
        BYTE   W07
        BYTE           N02     An2   v087
        BYTE   W06
        BYTE           N05     An2   v127
        BYTE   W06
        BYTE           N08     An2   v102
        BYTE           N08     Cs3
        BYTE   W28
        BYTE   W01
        BYTE           PAN     c_v+0
        BYTE   W01
// 028   ----------------------------------------
        BYTE   PATT
         POIN2  lang2soldat_2_20
// 029   ----------------------------------------
        BYTE   W96
// 030   ----------------------------------------
        BYTE   W96
// 031   ----------------------------------------
        BYTE   W96
// 032   ----------------------------------------
        BYTE   W96
// 033   ----------------------------------------
        BYTE   W92
        BYTE   W03
        BYTE           PAN     c_v+16
        BYTE   W01
// 034   ----------------------------------------
        BYTE           VOICE   65
        BYTE   W24
        BYTE           N23     Gn2   v100
        BYTE           N23     As2
        BYTE   W24
        BYTE           N12     As2   v024
        BYTE   W24
        BYTE           N23     Gn2   v088
        BYTE           N23     Cn3   v100
        BYTE   W24
// 035   ----------------------------------------
        BYTE           N12     Cn3   v024
        BYTE   W24
        BYTE           N23     As2   v100
        BYTE   W24
        BYTE                   Gn2   v088
        BYTE           N23     Cn3   v100
        BYTE   W24
        BYTE                   Gn2   v088
        BYTE           N23     Cn3   v100
        BYTE   W24
// 036   ----------------------------------------
        BYTE           N06     Gn2   v048
        BYTE           N06     Cn3
        BYTE   W12
        BYTE           N04     An2   v088
        BYTE   W18
        BYTE                   An2   v077
        BYTE   W30
        BYTE                   As2   v100
        BYTE   W18
        BYTE           N03
        BYTE   W18
// 037   ----------------------------------------
        BYTE   W12
        BYTE                   An2   v088
        BYTE   W18
        BYTE                   An2   v077
        BYTE   W30
        BYTE           N05     As2   v100
        BYTE   W18
        BYTE           N03
        BYTE   W18
// 038   ----------------------------------------
        BYTE   W12
        BYTE           N04     An2   v088
        BYTE   W18
        BYTE                   An2   v077
        BYTE   W30
        BYTE           N06     As2   v100
        BYTE   W18
        BYTE           N04
        BYTE   W18
// 039   ----------------------------------------
        BYTE   W12
        BYTE                   An2
        BYTE   W18
        BYTE                   An2   v088
        BYTE   W12
        BYTE           N06     As2   v077
        BYTE           N06     Ds3
        BYTE   W06
        BYTE                   As2   v040
        BYTE           N06     Ds3
        BYTE   W48
// 040   ----------------------------------------
        BYTE           VOICE   124
        BYTE           PAN     c_v+0
        BYTE           BENDR   2
        BYTE   GoTo
         POIN2  lang2soldat_2_LOOP
        BYTE   FINE

//****************** Track 3 (Midi-Chn.3) ******************//

lang2soldat_3:
        BYTE   KEYSH   lang2soldat_key+0
// 000   ----------------------------------------
        BYTE           VOICE   66
        BYTE           VOL     40
        BYTE           MOD     1
        BYTE           PAN     c_v+10
        BYTE   W12
// 001   ----------------------------------------
        BYTE   W52
        BYTE   W01
        BYTE                   c_v-16
        BYTE   W01
        BYTE           N05     As3   v100
        BYTE   W06
        BYTE                   An3
        BYTE   W06
        BYTE                   Gn3
        BYTE   W05
        BYTE           PAN     c_v-24
        BYTE   W01
        BYTE           N05     Fn3
        BYTE   W06
        BYTE                   En3
        BYTE   W06
        BYTE                   Cn3
        BYTE   W06
        BYTE                   An2
        BYTE   W06
// 002   ----------------------------------------
lang2soldat_3_LOOP:
        BYTE   W96
// 003   ----------------------------------------
        BYTE   W96
// 004   ----------------------------------------
        BYTE   W96
// 005   ----------------------------------------
        BYTE   W96
// 006   ----------------------------------------
        BYTE   W96
// 007   ----------------------------------------
        BYTE   W96
// 008   ----------------------------------------
        BYTE   W96
// 009   ----------------------------------------
        BYTE   W42
        BYTE           N11     As3   v080
        BYTE   W12
        BYTE           N05
        BYTE   W06
        BYTE                   As3
        BYTE   W06
        BYTE                   An3
        BYTE   W30
// 010   ----------------------------------------
        BYTE   W96
// 011   ----------------------------------------
        BYTE   W96
// 012   ----------------------------------------
        BYTE   W96
// 013   ----------------------------------------
        BYTE   W96
// 014   ----------------------------------------
        BYTE   W96
// 015   ----------------------------------------
        BYTE   W96
// 016   ----------------------------------------
        BYTE   W96
// 017   ----------------------------------------
        BYTE   W96
// 018   ----------------------------------------
lang2soldat_3_18:
        BYTE           N07     An3   v087
        BYTE   W08
        BYTE                   Gn3
        BYTE   W08
        BYTE                   An3
        BYTE   W08
        BYTE           N17     Dn3
        BYTE   W18
        BYTE           N05
        BYTE   W06
        BYTE           N07     An3
        BYTE   W08
        BYTE                   Gn3
        BYTE   W08
        BYTE                   An3
        BYTE   W08
        BYTE           N17     En3
        BYTE   W18
        BYTE           N05
        BYTE   W06
        BYTE   PEND
// 019   ----------------------------------------
lang2soldat_3_19:
        BYTE           N07     Cn4   v087
        BYTE   W08
        BYTE                   As3
        BYTE   W08
        BYTE                   An3
        BYTE   W08
        BYTE           N05     Gn3
        BYTE   W06
        BYTE                   Fn3
        BYTE   W06
        BYTE                   Gn3
        BYTE   W06
        BYTE           N40     An3   v087   gtp1
        BYTE   W42
        BYTE           N05     Gn3
        BYTE   W06
        BYTE                   Fn3
        BYTE   W06
        BYTE   PEND
// 020   ----------------------------------------
        BYTE           TIE     En3
        BYTE   W96
// 021   ----------------------------------------
        BYTE   W92
        BYTE   W03
        BYTE           EOT
        BYTE   W01
// 022   ----------------------------------------
        BYTE   PATT
         POIN2  lang2soldat_3_18
// 023   ----------------------------------------
        BYTE   PATT
         POIN2  lang2soldat_3_19
// 024   ----------------------------------------
        BYTE           TIE     En3   v087
        BYTE   W96
// 025   ----------------------------------------
        BYTE   W88
        BYTE   W01
        BYTE           EOT
        BYTE   W07
// 026   ----------------------------------------
        BYTE           N64     En3   v100   gtp1
        BYTE   W66
        BYTE           N17     Gn3
        BYTE   W18
        BYTE           N11     Fn3
        BYTE   W12
// 027   ----------------------------------------
        BYTE           N44     En3   v100   gtp3
        BYTE   W68
        BYTE   W03
        BYTE           BEND    c_v-2
        BYTE           PAN     c_v+36
        BYTE   W01
        BYTE           N02     An3   v020
        BYTE   W03
        BYTE                   As3
        BYTE   W03
        BYTE           N05     An3
        BYTE   W05
        BYTE           BEND    c_v+0
        BYTE   W01
        BYTE           N11
        BYTE   W12
// 028   ----------------------------------------
        BYTE   W96
// 029   ----------------------------------------
        BYTE   W96
// 030   ----------------------------------------
        BYTE   W96
// 031   ----------------------------------------
        BYTE   W96
// 032   ----------------------------------------
        BYTE   W96
// 033   ----------------------------------------
        BYTE   W96
// 034   ----------------------------------------
        BYTE   W96
// 035   ----------------------------------------
        BYTE   W92
        BYTE   W03
        BYTE           PAN     c_v+16
        BYTE   W01
// 036   ----------------------------------------
        BYTE           VOICE   124
        BYTE           N48     An2   v080
        BYTE   W92
        BYTE   W03
        BYTE           PAN     c_v-16
        BYTE   W01
// 037   ----------------------------------------
        BYTE           N48
        BYTE   W92
        BYTE   W03
        BYTE           PAN     c_v+16
        BYTE   W01
// 038   ----------------------------------------
        BYTE           N48
        BYTE   W92
        BYTE   W03
        BYTE           PAN     c_v-16
        BYTE   W01
// 039   ----------------------------------------
        BYTE           N48
        BYTE   W40
        BYTE   W01
        BYTE           PAN     c_v-32
        BYTE   W01
        BYTE           VOICE   66
        BYTE           N11     Ds3   v120
        BYTE   W12
        BYTE           N05     As2
        BYTE   W06
        BYTE                   Ds3
        BYTE   W06
        BYTE                   Gn3
        BYTE   W06
        BYTE                   As3
        BYTE   W06
        BYTE                   As3
        BYTE   W06
        BYTE           N06     As3   v040
        BYTE   W12
// 040   ----------------------------------------
        BYTE           PAN     c_v-24
        BYTE   GoTo
         POIN2  lang2soldat_3_LOOP
        BYTE   FINE

//****************** Track 4 (Midi-Chn.4) ******************//

lang2soldat_4:
        BYTE   KEYSH   lang2soldat_key+0
// 000   ----------------------------------------
        BYTE           VOICE   48
        BYTE           VOL     34
        BYTE           PAN     c_v-10
        BYTE   W12
// 001   ----------------------------------------
        BYTE           N11     Dn3   v091
        BYTE           N11     An2
        BYTE   W12
        BYTE           N06     Dn3   v048
        BYTE           N06     An2
        BYTE   W06
        BYTE           N11     Cn3   v083
        BYTE           N11     Gn2   v095
        BYTE   W12
        BYTE           N06     Cn3   v048
        BYTE           N06     Gn2
        BYTE   W12
        BYTE           N11     Cs3   v075
        BYTE           N11     An2   v092
        BYTE   W12
        BYTE           N06     Cs3   v048
        BYTE           N06     An2
        BYTE   W42
// 002   ----------------------------------------
lang2soldat_4_LOOP:
        BYTE           N40     Dn3   v081   gtp1
        BYTE                   An2   v084
        BYTE   W42
        BYTE           N52     Ds3   v068   gtp1
        BYTE                   As2   v075
        BYTE   W54
// 003   ----------------------------------------
        BYTE           N76     Dn3   v077   gtp1
        BYTE                   An2   v083
        BYTE   W78
        BYTE           N17     Cs3   v073
        BYTE           N17     An2   v091
        BYTE   W18
// 004   ----------------------------------------
        BYTE           N40     Dn3   v085   gtp1
        BYTE                   An2   v068
        BYTE   W42
        BYTE           N52     Ds3   v063   gtp1
        BYTE                   As2   v081
        BYTE   W54
// 005   ----------------------------------------
        BYTE           N68     Dn3   v077   gtp3
        BYTE                   An2   v075
        BYTE   W72
        BYTE           N23     Cn3   v079
        BYTE           N23     Gn2   v078
        BYTE   W24
// 006   ----------------------------------------
lang2soldat_4_6:
        BYTE           TIE     Dn3   v078
        BYTE           TIE     As2   v076
        BYTE   W96
        BYTE   PEND
// 007   ----------------------------------------
        BYTE   W32
        BYTE   W03
        BYTE           EOT
        BYTE           EOT     Dn3
        BYTE   W07
        BYTE           N32     Dn3   v085   gtp3
        BYTE                   As2   v003
        BYTE   W42
        BYTE           N11     Dn3   v082
        BYTE           N11     As2   v075
        BYTE   W12
// 008   ----------------------------------------
        BYTE           N88     Dn3   v078   gtp1
        BYTE                   Gs2   v083
        BYTE   W96
// 009   ----------------------------------------
        BYTE           N32     Dn3   v082   gtp3
        BYTE                   An2   v091
        BYTE   W42
        BYTE           N11     Dn3   v086
        BYTE           N11     An2   v083
        BYTE   W24
        BYTE                   Cs3   v066
        BYTE           N11     An2   v086
        BYTE   W30
// 010   ----------------------------------------
        BYTE           N40     Dn3   v081   gtp1
        BYTE                   An2   v087
        BYTE   W42
        BYTE           N52     Ds3   v065   gtp1
        BYTE                   As2   v070
        BYTE   W54
// 011   ----------------------------------------
        BYTE                   Dn3   v077
        BYTE           N52     An2   v086   gtp1
        BYTE   W60
        BYTE           N11     Dn3   v092
        BYTE           N11     An2   v083
        BYTE   W18
        BYTE                   Cs3   v065
        BYTE           N11     An2   v086
        BYTE   W18
// 012   ----------------------------------------
        BYTE           N40     Dn3   v081   gtp1
        BYTE                   An2   v075
        BYTE   W42
        BYTE           N52     Ds3   v063   gtp1
        BYTE                   As2   v073
        BYTE   W54
// 013   ----------------------------------------
        BYTE           N68     Dn3   v076   gtp3
        BYTE                   An2   v075
        BYTE   W72
        BYTE           N23     Cn3   v079
        BYTE           N23     Gn2   v083
        BYTE   W24
// 014   ----------------------------------------
        BYTE           N88     Dn3   v081   gtp1
        BYTE                   As2   v076
        BYTE   W96
// 015   ----------------------------------------
        BYTE                   Dn3   v072
        BYTE           N88     As2   v003   gtp1
        BYTE   W96
// 016   ----------------------------------------
        BYTE           N76     Dn3   v073   gtp1
        BYTE                   Gs2   v068
        BYTE   W84
        BYTE           N11     Dn3   v073
        BYTE           N11     Gs2   v075
        BYTE   W12
// 017   ----------------------------------------
        BYTE           N32     Dn3   v082   gtp3
        BYTE                   An2   v087
        BYTE   W42
        BYTE           N11     Dn3   v079
        BYTE           N11     As2   v074
        BYTE   W42
        BYTE                   Cs3   v076
        BYTE           N11     An2   v086
        BYTE   W12
// 018   ----------------------------------------
        BYTE                   Dn3   v093
        BYTE           N11     As2   v092
        BYTE   W36
        BYTE           N05     Dn3   v081
        BYTE           N05     As2   v071
        BYTE   W06
        BYTE                   Dn3   v085
        BYTE           N05     As2   v071
        BYTE   W48
        BYTE                   Fn3   v081
        BYTE           N05     As2   v048
        BYTE   W06
// 019   ----------------------------------------
        BYTE           N11     En3   v089
        BYTE           N11     Cn3   v092
        BYTE   W36
        BYTE           N05     En3   v078
        BYTE           N05     Cn3   v089
        BYTE   W06
        BYTE           N32     Fn3   v092   gtp3
        BYTE                   Dn3
        BYTE   W42
        BYTE           N11     Fn3   v082
        BYTE           N11     Dn3   v083
        BYTE   W12
// 020   ----------------------------------------
        BYTE           N40     En3   v082   gtp1
        BYTE                   Cs3   v089
        BYTE   W42
        BYTE           N52     Fn3   v082   gtp1
        BYTE                   Dn3   v084
        BYTE   W54
// 021   ----------------------------------------
        BYTE           N40     Gn3   v083   gtp1
        BYTE                   En3   v087
        BYTE   W42
        BYTE           N52     An3   v082   gtp1
        BYTE                   En3   v070
        BYTE   W54
// 022   ----------------------------------------
        BYTE           N11     Dn3   v081
        BYTE           N11     As2   v075
        BYTE   W36
        BYTE           N05     Dn3   v082
        BYTE           N05     As2   v079
        BYTE   W06
        BYTE                   Dn3   v067
        BYTE           N05     As2   v037
        BYTE   W48
        BYTE                   Fn3   v088
        BYTE           N05     As2   v075
        BYTE   W06
// 023   ----------------------------------------
        BYTE           N11     En3   v081
        BYTE           N11     Cn3   v088
        BYTE   W36
        BYTE           N05     En3   v078
        BYTE           N05     Cn3   v088
        BYTE   W06
        BYTE           N32     Fn3   v083   gtp3
        BYTE                   Dn3   v084
        BYTE   W42
        BYTE           N11     Fn3   v079
        BYTE           N11     Dn3
        BYTE   W12
// 024   ----------------------------------------
        BYTE           N40     En3   v085   gtp1
        BYTE                   Cs3   v071
        BYTE   W42
        BYTE           N44     Fn3   v060   gtp3
        BYTE                   Dn3   v077
        BYTE   W48
        BYTE                   Gn3   v093
        BYTE           N44     En3   v098   gtp3
        BYTE   W06
// 025   ----------------------------------------
        BYTE   W42
        BYTE           N52     Fn3   v076   gtp1
        BYTE                   Dn3   v087
        BYTE   W54
// 026   ----------------------------------------
        BYTE           N40     En3   v079   gtp1
        BYTE                   Cs3   v073
        BYTE   W42
        BYTE           N52     Fn3   v081   gtp1
        BYTE                   Dn3   v084
        BYTE   W54
// 027   ----------------------------------------
        BYTE           N40     En3   v076   gtp1
        BYTE                   Cs3
        BYTE   W42
        BYTE           N11     En3   v056
        BYTE           N11     Dn3   v061
        BYTE   W12
        BYTE           N05     En3   v060
        BYTE           N05     Dn3   v056
        BYTE   W06
        BYTE                   En3   v081
        BYTE           N05     Dn3   v075
        BYTE   W06
        BYTE                   En3   v088
        BYTE           N05     Cs3   v090
        BYTE   W30
// 028   ----------------------------------------
        BYTE           N40     Dn3   v077   gtp1
        BYTE                   An2   v088
        BYTE   W42
        BYTE           N52     Ds3   v065   gtp1
        BYTE                   As2   v078
        BYTE   W54
// 029   ----------------------------------------
        BYTE           N76     Dn3   v078   gtp1
        BYTE                   An2   v082
        BYTE   W78
        BYTE           N17     En3   v083
        BYTE           N17     Cs3   v076
        BYTE   W18
// 030   ----------------------------------------
        BYTE           N40     Fn3   v091   gtp1
        BYTE                   Dn3   v088
        BYTE   W42
        BYTE           N52     Gn3   v081   gtp1
        BYTE                   Ds3   v073
        BYTE   W54
// 031   ----------------------------------------
        BYTE           N68     Fn3   v069   gtp3
        BYTE                   Dn3   v083
        BYTE   W72
        BYTE           N23     En3   v078
        BYTE           N23     Cn3   v073
        BYTE   W24
// 032   ----------------------------------------
        BYTE   PATT
         POIN2  lang2soldat_4_6
// 033   ----------------------------------------
        BYTE   W80
        BYTE   W03
        BYTE           EOT     As2
        BYTE                   Dn3
        BYTE   W01
        BYTE           N11     Dn3   v093
        BYTE           N11     As2   v071
        BYTE   W12
// 034   ----------------------------------------
        BYTE           N23     Dn3   v095
        BYTE           N23     As2   v009
        BYTE   W48
        BYTE                   En3   v089
        BYTE           N23     Cn3   v086
        BYTE   W48
// 035   ----------------------------------------
        BYTE                   Fn3   v096
        BYTE           N23     Dn3   v093
        BYTE   W48
        BYTE                   Gn3
        BYTE           N23     En3   v098
        BYTE   W24
        BYTE                   Gn3   v077
        BYTE           N23     En3   v088
        BYTE   W24
// 036   ----------------------------------------
        BYTE           N40     Fn3   v088   gtp1
        BYTE                   Dn3   v092
        BYTE   W42
        BYTE           N52     Gn3   v086   gtp1
        BYTE                   Ds3   v076
        BYTE   W54
// 037   ----------------------------------------
        BYTE           N40     Fn3   v079   gtp1
        BYTE                   Dn3   v087
        BYTE   W42
        BYTE           N32     Gn3   v081   gtp3
        BYTE                   Ds3   v073
        BYTE   W42
        BYTE           N11     Gn3   v083
        BYTE           N11     Ds3   v079
        BYTE   W12
// 038   ----------------------------------------
        BYTE           N40     Fn3   v082   gtp1
        BYTE                   Dn3   v088
        BYTE   W42
        BYTE           N32     Gn3   v079   gtp3
        BYTE                   Ds3   v076
        BYTE   W42
        BYTE           N11     Gn3   v081
        BYTE           N11     Ds3   v078
        BYTE   W12
// 039   ----------------------------------------
        BYTE           N40     Fn3   v077   gtp1
        BYTE                   Dn3   v084
        BYTE   W42
        BYTE           N11     Ds3   v092
        BYTE           N11     Ds2   v102
        BYTE   W12
        BYTE           N05     As2   v068
        BYTE           N05     As1   v071
        BYTE   W06
        BYTE                   Ds3   v060
        BYTE           N05     Ds2   v065
        BYTE   W06
        BYTE                   Gn3   v078
        BYTE           N05     Gn2   v066
        BYTE   W06
        BYTE                   As2   v068
        BYTE           N05     Ds2
        BYTE   W06
        BYTE                   As2   v071
        BYTE           N05     Ds2   v075
        BYTE   W18
// 040   ----------------------------------------
        BYTE   GoTo
         POIN2  lang2soldat_4_LOOP
        BYTE   FINE

//****************** Track 5 (Midi-Chn.5) ******************//

lang2soldat_5:
        BYTE   KEYSH   lang2soldat_key+0
// 000   ----------------------------------------
        BYTE           VOICE   39
        BYTE           VOL     22
        BYTE           PAN     c_v-34
        BYTE   W12
// 001   ----------------------------------------
        BYTE           N08     Dn2   v100
        BYTE   W18
        BYTE                   Cn2
        BYTE   W24
        BYTE           N11     An1
        BYTE   W30
        BYTE           N02     An2
        BYTE   W02
        BYTE           N04     As2   v090
        BYTE   W02
        BYTE                   An2
        BYTE   W02
        BYTE                   Gn2
        BYTE   W02
        BYTE                   Fn2
        BYTE   W02
        BYTE                   En2
        BYTE   W02
        BYTE           N05     An1   v100
        BYTE   W06
        BYTE                   An2
        BYTE   W06
// 002   ----------------------------------------
lang2soldat_5_LOOP:
        BYTE           N03     Dn2   v100
        BYTE   W06
        BYTE           N06
        BYTE   W06
        BYTE           N05     An2
        BYTE   W06
        BYTE                   Dn2
        BYTE   W06
        BYTE           N11     As2
        BYTE   W06
        BYTE           BEND    c_v+63
        BYTE   W06
        BYTE                   c_v+0
        BYTE           N02     Dn2
        BYTE   W06
        BYTE           N12     Ds2
        BYTE   W12
        BYTE           N05
        BYTE   W06
        BYTE                   Gn2
        BYTE   W06
        BYTE           N11     As2
        BYTE   W06
        BYTE           BEND    c_v+63
        BYTE   W06
        BYTE                   c_v+0
        BYTE           N11     Gn2
        BYTE   W12
        BYTE           N05     Ds2
        BYTE   W06
// 003   ----------------------------------------
lang2soldat_5_3:
        BYTE           N03     Dn2   v100
        BYTE   W06
        BYTE           N06
        BYTE   W06
        BYTE           N05     An2
        BYTE   W06
        BYTE                   Dn2
        BYTE   W06
        BYTE           N11     As2
        BYTE   W06
        BYTE           BEND    c_v+63
        BYTE   W06
        BYTE                   c_v+0
        BYTE           N02     Dn2
        BYTE   W06
        BYTE           N11     Dn3
        BYTE   W12
        BYTE           N06     Dn2
        BYTE   W06
        BYTE           N11     Gn2
        BYTE   W06
        BYTE           BEND    c_v+63
        BYTE   W06
        BYTE                   c_v+0
        BYTE           N04     Dn2
        BYTE   W06
        BYTE           N06
        BYTE   W06
        BYTE           N05     Fn2
        BYTE   W06
        BYTE                   An1
        BYTE   W06
        BYTE   PEND
// 004   ----------------------------------------
lang2soldat_5_4:
        BYTE           N03     Dn2   v100
        BYTE   W06
        BYTE           N06
        BYTE   W06
        BYTE           N05     An2
        BYTE   W06
        BYTE                   Dn2
        BYTE   W06
        BYTE           N11     As2
        BYTE   W06
        BYTE           BEND    c_v+63
        BYTE   W06
        BYTE                   c_v+0
        BYTE           N02     Dn2
        BYTE   W06
        BYTE           N12     Ds2
        BYTE   W12
        BYTE           N05
        BYTE   W06
        BYTE                   Gn2
        BYTE   W06
        BYTE           N11     As2
        BYTE   W06
        BYTE           BEND    c_v+63
        BYTE   W06
        BYTE                   c_v+0
        BYTE           N11     Gn2
        BYTE   W12
        BYTE           N05     Ds2
        BYTE   W06
        BYTE   PEND
// 005   ----------------------------------------
lang2soldat_5_5:
        BYTE           N02     Dn2   v100
        BYTE   W06
        BYTE           N06
        BYTE   W06
        BYTE           N05     An2
        BYTE   W06
        BYTE                   Dn2
        BYTE   W06
        BYTE           N11     As2
        BYTE   W06
        BYTE           BEND    c_v+63
        BYTE   W06
        BYTE                   c_v+0
        BYTE           N02     Dn2
        BYTE   W06
        BYTE           N11     Dn3
        BYTE   W12
        BYTE           N06     Dn2
        BYTE   W06
        BYTE           N12     Gn2
        BYTE   W06
        BYTE           BEND    c_v+63
        BYTE   W06
        BYTE                   c_v+0
        BYTE           N06     Dn2
        BYTE   W06
        BYTE           N02     Dn3
        BYTE   W06
        BYTE           N06     Cn2
        BYTE   W06
        BYTE           N02     Cn3
        BYTE   W06
        BYTE   PEND
// 006   ----------------------------------------
lang2soldat_5_6:
        BYTE           N06     As1   v100
        BYTE   W06
        BYTE           N02     As2
        BYTE   W06
        BYTE           N05     Fn2
        BYTE   W06
        BYTE                   As1
        BYTE   W06
        BYTE           N11     An2
        BYTE   W06
        BYTE           BEND    c_v+35
        BYTE   W06
        BYTE                   c_v+0
        BYTE           N02     As1
        BYTE   W06
        BYTE           N11     As2
        BYTE   W12
        BYTE           N06     As1
        BYTE   W06
        BYTE           N11     Ds2
        BYTE   W06
        BYTE           BEND    c_v+63
        BYTE   W06
        BYTE                   c_v+0
        BYTE           N02     As1
        BYTE   W06
        BYTE           N06
        BYTE   W06
        BYTE           N05     As2
        BYTE   W06
        BYTE                   As1
        BYTE   W06
        BYTE   PEND
// 007   ----------------------------------------
lang2soldat_5_7:
        BYTE           N02     As1   v100
        BYTE   W06
        BYTE           N06
        BYTE   W06
        BYTE           N05     Fn2
        BYTE   W06
        BYTE                   As1
        BYTE   W06
        BYTE           N11     An2
        BYTE   W06
        BYTE           BEND    c_v+35
        BYTE   W06
        BYTE                   c_v+0
        BYTE           N02     As1
        BYTE   W06
        BYTE           N11     As2
        BYTE   W12
        BYTE           N06     As1
        BYTE   W06
        BYTE           N11     Ds2
        BYTE   W06
        BYTE           BEND    c_v+63
        BYTE   W06
        BYTE                   c_v+0
        BYTE           N02     As1
        BYTE   W06
        BYTE           N06
        BYTE   W06
        BYTE           N05     As2
        BYTE   W06
        BYTE                   As1
        BYTE   W06
        BYTE   PEND
// 008   ----------------------------------------
lang2soldat_5_8:
        BYTE           N02     En2   v100
        BYTE   W06
        BYTE           N06
        BYTE   W06
        BYTE           N05     Bn2
        BYTE   W06
        BYTE                   En2
        BYTE   W06
        BYTE           N11     Dn3
        BYTE   W06
        BYTE           BEND    c_v+63
        BYTE   W06
        BYTE                   c_v+0
        BYTE           N02     En2
        BYTE   W06
        BYTE           N11     En3
        BYTE   W12
        BYTE           N06     En2
        BYTE   W06
        BYTE           N11     An2
        BYTE   W06
        BYTE           BEND    c_v+63
        BYTE   W06
        BYTE                   c_v+0
        BYTE           N02     En2
        BYTE   W06
        BYTE           N06
        BYTE   W06
        BYTE           N05     Bn2
        BYTE   W06
        BYTE                   En2
        BYTE   W06
        BYTE   PEND
// 009   ----------------------------------------
lang2soldat_5_9:
        BYTE           N02     An1   v100
        BYTE   W06
        BYTE           N06
        BYTE   W06
        BYTE           N05     En2
        BYTE   W06
        BYTE                   An1
        BYTE   W06
        BYTE           N11     Gn2
        BYTE   W06
        BYTE           BEND    c_v+63
        BYTE   W06
        BYTE                   c_v+0
        BYTE           N02     An1
        BYTE   W06
        BYTE           N10     As1
        BYTE   W12
        BYTE           N06
        BYTE   W06
        BYTE           N05     An1
        BYTE   W06
        BYTE           N11
        BYTE   W12
        BYTE           N04
        BYTE   W06
        BYTE           N06
        BYTE   W06
        BYTE                   An1
        BYTE   W06
        BYTE   PEND
// 010   ----------------------------------------
        BYTE   PATT
         POIN2  lang2soldat_5_4
// 011   ----------------------------------------
        BYTE   PATT
         POIN2  lang2soldat_5_3
// 012   ----------------------------------------
        BYTE   PATT
         POIN2  lang2soldat_5_4
// 013   ----------------------------------------
        BYTE   PATT
         POIN2  lang2soldat_5_5
// 014   ----------------------------------------
        BYTE   PATT
         POIN2  lang2soldat_5_6
// 015   ----------------------------------------
        BYTE   PATT
         POIN2  lang2soldat_5_7
// 016   ----------------------------------------
        BYTE   PATT
         POIN2  lang2soldat_5_8
// 017   ----------------------------------------
        BYTE   PATT
         POIN2  lang2soldat_5_9
// 018   ----------------------------------------
lang2soldat_5_18:
        BYTE           N11     As1   v100
        BYTE   W36
        BYTE           N05
        BYTE   W06
        BYTE           N08
        BYTE   W48
        BYTE           N05
        BYTE   W06
        BYTE   PEND
// 019   ----------------------------------------
lang2soldat_5_19:
        BYTE           N08     An1   v100
        BYTE   W36
        BYTE           N05
        BYTE   W06
        BYTE           N11     Dn2
        BYTE   W12
        BYTE           N05     An1
        BYTE   W06
        BYTE                   Fn2
        BYTE   W06
        BYTE           N11     En2
        BYTE   W12
        BYTE           N05     Dn2
        BYTE   W06
        BYTE                   Cn2
        BYTE   W06
        BYTE                   As1
        BYTE   W06
        BYTE   PEND
// 020   ----------------------------------------
lang2soldat_5_20:
        BYTE           N05     An1   v100
        BYTE   W06
        BYTE                   An1
        BYTE   W06
        BYTE                   An1
        BYTE   W06
        BYTE                   An1
        BYTE   W06
        BYTE                   An1
        BYTE   W06
        BYTE                   An1
        BYTE   W06
        BYTE           N03
        BYTE   W06
        BYTE           N11     As1
        BYTE           BEND    c_v-16
        BYTE   W01
        BYTE                   c_v-5
        BYTE   W01
        BYTE                   c_v-2
        BYTE   W01
        BYTE                   c_v+0
        BYTE   W09
        BYTE           N05
        BYTE   W06
        BYTE                   As1
        BYTE   W06
        BYTE                   As1
        BYTE   W06
        BYTE                   As1
        BYTE   W06
        BYTE                   As1
        BYTE   W06
        BYTE                   As1
        BYTE   W06
        BYTE                   As1
        BYTE   W06
        BYTE   PEND
// 021   ----------------------------------------
        BYTE                   An1
        BYTE   W06
        BYTE                   An1
        BYTE   W06
        BYTE                   An1
        BYTE   W06
        BYTE                   An1
        BYTE   W06
        BYTE                   An1
        BYTE   W06
        BYTE                   An1
        BYTE   W06
        BYTE           N04
        BYTE   W06
        BYTE           N11
        BYTE           BEND    c_v-19
        BYTE   W01
        BYTE                   c_v-7
        BYTE   W01
        BYTE                   c_v-2
        BYTE   W01
        BYTE                   c_v+0
        BYTE   W09
        BYTE           N05
        BYTE   W06
        BYTE                   An1
        BYTE   W06
        BYTE                   An1
        BYTE   W06
        BYTE                   An1
        BYTE   W06
        BYTE                   An1
        BYTE   W06
        BYTE                   An1
        BYTE   W06
        BYTE                   An1
        BYTE   W06
// 022   ----------------------------------------
        BYTE   PATT
         POIN2  lang2soldat_5_18
// 023   ----------------------------------------
        BYTE   PATT
         POIN2  lang2soldat_5_19
// 024   ----------------------------------------
        BYTE   PATT
         POIN2  lang2soldat_5_20
// 025   ----------------------------------------
        BYTE   PATT
         POIN2  lang2soldat_5_20
// 026   ----------------------------------------
        BYTE   PATT
         POIN2  lang2soldat_5_20
// 027   ----------------------------------------
        BYTE           N05     An1   v100
        BYTE   W06
        BYTE                   An1
        BYTE   W06
        BYTE                   An1
        BYTE   W06
        BYTE                   An1
        BYTE   W06
        BYTE           N11     Gn2
        BYTE   W06
        BYTE           BEND    c_v+63
        BYTE   W06
        BYTE                   c_v+0
        BYTE           N05     An1
        BYTE   W06
        BYTE           N11
        BYTE   W12
        BYTE           N05
        BYTE   W06
        BYTE                   An1
        BYTE   W06
        BYTE                   An1
        BYTE   W24
        BYTE                   An1
        BYTE   W06
// 028   ----------------------------------------
        BYTE   PATT
         POIN2  lang2soldat_5_4
// 029   ----------------------------------------
        BYTE   PATT
         POIN2  lang2soldat_5_3
// 030   ----------------------------------------
        BYTE   PATT
         POIN2  lang2soldat_5_4
// 031   ----------------------------------------
        BYTE   PATT
         POIN2  lang2soldat_5_5
// 032   ----------------------------------------
        BYTE   PATT
         POIN2  lang2soldat_5_6
// 033   ----------------------------------------
        BYTE   PATT
         POIN2  lang2soldat_5_7
// 034   ----------------------------------------
        BYTE   W06
        BYTE           N06     Cn2   v100
        BYTE   W06
        BYTE                   Dn2
        BYTE   W06
        BYTE           N01     Gn1
        BYTE   W06
        BYTE           N22
        BYTE   W30
        BYTE           N06     Dn2
        BYTE   W06
        BYTE                   En2
        BYTE   W06
        BYTE           N01     An1
        BYTE   W06
        BYTE           N22
        BYTE   W24
// 035   ----------------------------------------
        BYTE   W06
        BYTE           N06     Fn2
        BYTE   W06
        BYTE                   Gn2
        BYTE   W06
        BYTE           N01     As1
        BYTE   W06
        BYTE           N22
        BYTE   W24
        BYTE           N06     Cn2
        BYTE   W06
        BYTE           N11     As2
        BYTE   W06
        BYTE           BEND    c_v+63
        BYTE   W06
        BYTE                   c_v+0
        BYTE           N05     Cn2
        BYTE   W12
        BYTE                   Gn2
        BYTE   W06
        BYTE           N11     Cn2
        BYTE   W12
// 036   ----------------------------------------
lang2soldat_5_36:
        BYTE           N03     Dn2   v100
        BYTE   W06
        BYTE           N05
        BYTE   W06
        BYTE                   An2
        BYTE   W06
        BYTE                   Dn2
        BYTE   W06
        BYTE           N11     As2
        BYTE   W06
        BYTE           BEND    c_v+63
        BYTE   W06
        BYTE                   c_v+0
        BYTE           N02     Dn2
        BYTE   W06
        BYTE           N12     Ds2
        BYTE   W12
        BYTE           N05     Ds3
        BYTE   W06
        BYTE                   Gn2
        BYTE   W06
        BYTE           N11     As2
        BYTE   W06
        BYTE           BEND    c_v+63
        BYTE   W06
        BYTE                   c_v+0
        BYTE           N11     Ds2
        BYTE   W12
        BYTE           N05     As2
        BYTE   W06
        BYTE   PEND
// 037   ----------------------------------------
        BYTE   PATT
         POIN2  lang2soldat_5_36
// 038   ----------------------------------------
        BYTE   PATT
         POIN2  lang2soldat_5_36
// 039   ----------------------------------------
        BYTE           N05     Dn2   v100
        BYTE   W06
        BYTE                   Dn2
        BYTE   W06
        BYTE                   Dn2
        BYTE   W06
        BYTE                   Dn2
        BYTE   W06
        BYTE                   Dn2
        BYTE   W06
        BYTE                   Dn2
        BYTE   W06
        BYTE                   Dn2
        BYTE   W06
        BYTE           N11     Ds2
        BYTE   W12
        BYTE           N05     As1
        BYTE   W06
        BYTE                   Ds2
        BYTE   W06
        BYTE                   Gn2
        BYTE   W06
        BYTE                   As2
        BYTE   W06
        BYTE                   As2
        BYTE   W18
// 040   ----------------------------------------
        BYTE   GoTo
         POIN2  lang2soldat_5_LOOP
        BYTE   FINE

//****************** Track 6 (Midi-Chn.6) ******************//

lang2soldat_6:
        BYTE   KEYSH   lang2soldat_key+0
// 000   ----------------------------------------
        BYTE           VOICE   124
        BYTE           VOL     32
        BYTE   W12
// 001   ----------------------------------------
        BYTE           N06     Dn1   v100
        BYTE   W06
        BYTE                   Cn2   v108
        BYTE   W03
        BYTE                   An1   v112
        BYTE   W03
        BYTE                   Cn1   v127
        BYTE   W06
        BYTE                   Dn1   v100
        BYTE   W06
        BYTE                   An1   v112
        BYTE   W03
        BYTE                   Fn1   v100
        BYTE   W03
        BYTE                   Dn1
        BYTE   W06
        BYTE                   Cn1   v127
        BYTE   W06
        BYTE                   Dn1   v100
        BYTE   W12
        BYTE                   Cn2   v108
        BYTE   W06
        BYTE                   Cn1   v127
        BYTE           N06     Cn2   v108
        BYTE   W06
        BYTE                   An1   v112
        BYTE   W06
        BYTE                   Cn1   v127
        BYTE           N06     An1   v112
        BYTE   W06
        BYTE                   Fn1   v100
        BYTE   W06
        BYTE                   Cn1   v127
        BYTE           N06     Fn1   v100
        BYTE   W06
        BYTE                   Dn1
        BYTE   W06
// 002   ----------------------------------------
lang2soldat_6_LOOP:
        BYTE           N06     Cn1   v127
        BYTE           N06     As1   v048
        BYTE   W12
        BYTE                   Dn1   v100
        BYTE           N06     As1   v048
        BYTE   W12
        BYTE                   Cn1   v127
        BYTE           N06     As1   v048
        BYTE   W12
        BYTE                   Dn1   v100
        BYTE           N06     As1   v048
        BYTE   W06
        BYTE                   Cn1   v127
        BYTE   W06
        BYTE                   As1   v048
        BYTE   W06
        BYTE                   Cn1   v127
        BYTE   W06
        BYTE                   Dn1   v100
        BYTE           N06     As1   v048
        BYTE   W12
        BYTE                   Cn1   v127
        BYTE           N06     As1   v048
        BYTE   W06
        BYTE                   Cn1   v127
        BYTE   W06
        BYTE                   Dn1   v100
        BYTE           N06     As1   v048
        BYTE   W12
// 003   ----------------------------------------
lang2soldat_6_3:
        BYTE           N06     Cn1   v127
        BYTE           N06     As1   v048
        BYTE   W12
        BYTE                   Dn1   v100
        BYTE           N06     As1   v048
        BYTE   W12
        BYTE                   Cn1   v127
        BYTE           N06     As1   v048
        BYTE   W12
        BYTE                   Dn1   v100
        BYTE           N06     As1   v048
        BYTE   W06
        BYTE                   Cn1   v127
        BYTE   W06
        BYTE                   As1   v048
        BYTE   W06
        BYTE                   Cn1   v127
        BYTE   W06
        BYTE                   Dn1   v100
        BYTE           N06     As1   v048
        BYTE   W12
        BYTE                   Cn1   v127
        BYTE           N06     As1   v048
        BYTE   W06
        BYTE                   Cn1   v127
        BYTE   W06
        BYTE                   Dn1   v100
        BYTE           N06     As1   v048
        BYTE   W12
        BYTE   PEND
// 004   ----------------------------------------
        BYTE   PATT
         POIN2  lang2soldat_6_3
// 005   ----------------------------------------
        BYTE   PATT
         POIN2  lang2soldat_6_3
// 006   ----------------------------------------
        BYTE   PATT
         POIN2  lang2soldat_6_3
// 007   ----------------------------------------
        BYTE   PATT
         POIN2  lang2soldat_6_3
// 008   ----------------------------------------
        BYTE   PATT
         POIN2  lang2soldat_6_3
// 009   ----------------------------------------
        BYTE           N06     Cn1   v127
        BYTE           N06     As1   v048
        BYTE   W12
        BYTE                   Dn1   v100
        BYTE           N06     As1   v048
        BYTE   W12
        BYTE                   Cn1   v127
        BYTE           N06     As1   v048
        BYTE   W12
        BYTE                   Dn1   v100
        BYTE           N06     As1   v048
        BYTE   W06
        BYTE                   Cn1   v127
        BYTE           N06     As1   v048
        BYTE   W12
        BYTE                   Dn1   v100
        BYTE   W03
        BYTE                   An1   v112
        BYTE   W03
        BYTE                   Fn1   v100
        BYTE   W06
        BYTE                   Dn1
        BYTE   W12
        BYTE           N03     Cn1   v127
        BYTE   W03
        BYTE                   Cn1
        BYTE   W03
        BYTE                   Dn1   v100
        BYTE   W12
// 010   ----------------------------------------
lang2soldat_6_10:
        BYTE           N03     Cn1   v127
        BYTE           N03     As1   v048
        BYTE   W12
        BYTE                   Dn1   v100
        BYTE           N03     As1   v048
        BYTE   W12
        BYTE                   Cn1   v127
        BYTE           N03     As1   v048
        BYTE   W12
        BYTE                   Dn1   v100
        BYTE           N03     As1   v048
        BYTE   W06
        BYTE                   Cn1   v127
        BYTE   W06
        BYTE                   As1   v048
        BYTE   W06
        BYTE                   Cn1   v127
        BYTE   W06
        BYTE                   Dn1   v100
        BYTE           N03     As1   v048
        BYTE   W12
        BYTE                   Cn1   v127
        BYTE           N03     As1   v048
        BYTE   W06
        BYTE                   Cn1   v127
        BYTE   W06
        BYTE                   Dn1   v100
        BYTE           N03     As1   v048
        BYTE   W12
        BYTE   PEND
// 011   ----------------------------------------
        BYTE   PATT
         POIN2  lang2soldat_6_10
// 012   ----------------------------------------
        BYTE   PATT
         POIN2  lang2soldat_6_10
// 013   ----------------------------------------
        BYTE   PATT
         POIN2  lang2soldat_6_10
// 014   ----------------------------------------
        BYTE   PATT
         POIN2  lang2soldat_6_10
// 015   ----------------------------------------
        BYTE   PATT
         POIN2  lang2soldat_6_10
// 016   ----------------------------------------
        BYTE   PATT
         POIN2  lang2soldat_6_10
// 017   ----------------------------------------
        BYTE           N03     Cn1   v127
        BYTE           N03     As1   v048
        BYTE   W12
        BYTE                   Dn1   v100
        BYTE           N03     As1   v048
        BYTE   W12
        BYTE                   Cn1   v127
        BYTE           N03     As1   v048
        BYTE   W12
        BYTE                   Dn1   v100
        BYTE           N03     As1   v048
        BYTE   W06
        BYTE                   Cn1   v127
        BYTE   W06
        BYTE                   As1   v048
        BYTE   W06
        BYTE                   Cn1   v127
        BYTE   W06
        BYTE                   Dn1   v100
        BYTE           N03     As1   v048
        BYTE   W12
        BYTE                   Cn1   v127
        BYTE           N03     As1   v048
        BYTE   W06
        BYTE                   An1   v112
        BYTE   W06
        BYTE                   Dn1   v100
        BYTE           N03     As1   v048
        BYTE   W12
// 018   ----------------------------------------
        BYTE                   Cn1   v127
        BYTE           N48     Gn2   v080
        BYTE   W12
        BYTE           N03     Dn1   v100
        BYTE           N03     Fs1   v048
        BYTE   W12
        BYTE                   Cn1   v127
        BYTE   W12
        BYTE                   Dn1   v100
        BYTE           N03     Fs1   v048
        BYTE   W06
        BYTE                   Cn1   v127
        BYTE   W12
        BYTE                   Cn1
        BYTE   W06
        BYTE                   Dn1   v100
        BYTE           N03     Fs1   v048
        BYTE   W12
        BYTE                   Cn1   v127
        BYTE   W06
        BYTE                   Cn1
        BYTE   W06
        BYTE                   Dn1   v100
        BYTE           N03     Fs1   v048
        BYTE   W12
// 019   ----------------------------------------
        BYTE                   Cn1   v127
        BYTE   W12
        BYTE                   Dn1   v100
        BYTE           N03     Fs1   v048
        BYTE   W12
        BYTE                   Cn1   v127
        BYTE   W12
        BYTE                   Dn1   v100
        BYTE           N03     Fs1   v048
        BYTE   W06
        BYTE                   Cn1   v127
        BYTE   W12
        BYTE                   Cn1
        BYTE   W06
        BYTE                   Dn1   v100
        BYTE           N03     Fs1   v048
        BYTE   W12
        BYTE                   Cn1   v127
        BYTE   W06
        BYTE                   Cn1
        BYTE   W06
        BYTE                   Dn1   v100
        BYTE           N03     Fs1   v048
        BYTE   W12
// 020   ----------------------------------------
        BYTE   PATT
         POIN2  lang2soldat_6_10
// 021   ----------------------------------------
        BYTE   PATT
         POIN2  lang2soldat_6_10
// 022   ----------------------------------------
        BYTE           N03     Cn1   v127
        BYTE           N03     Dn1   v100
        BYTE           N48     Gn2   v080
        BYTE   W12
        BYTE           N03     Fs1   v048
        BYTE   W24
        BYTE                   Cn1   v127
        BYTE           N03     Dn1   v100
        BYTE           N03     Fs1   v048
        BYTE   W06
        BYTE                   Cn1   v127
        BYTE           N03     Dn1   v100
        BYTE   W18
        BYTE                   Fs1   v048
        BYTE   W24
        BYTE                   Fs1
        BYTE   W06
        BYTE                   Cn1   v127
        BYTE           N03     Dn1   v100
        BYTE   W06
// 023   ----------------------------------------
        BYTE                   Cn1   v127
        BYTE           N03     Dn1   v100
        BYTE   W12
        BYTE                   Fs1   v048
        BYTE   W24
        BYTE                   Cn1   v127
        BYTE           N03     Dn1   v100
        BYTE           N03     Fs1   v048
        BYTE   W06
        BYTE                   Dn1   v100
        BYTE           N48     An2   v060
        BYTE   W12
        BYTE           N03     Cn1   v127
        BYTE   W06
        BYTE                   Dn1   v100
        BYTE           N03     Fs1   v048
        BYTE   W12
        BYTE                   Cn1   v127
        BYTE   W12
        BYTE                   Dn1   v100
        BYTE           N03     Fs1   v048
        BYTE   W12
// 024   ----------------------------------------
        BYTE   PATT
         POIN2  lang2soldat_6_10
// 025   ----------------------------------------
        BYTE   PATT
         POIN2  lang2soldat_6_10
// 026   ----------------------------------------
        BYTE   PATT
         POIN2  lang2soldat_6_10
// 027   ----------------------------------------
        BYTE           N03     Cn1   v127
        BYTE           N03     As1   v048
        BYTE   W12
        BYTE                   Dn1   v100
        BYTE           N03     As1   v048
        BYTE   W12
        BYTE                   Cn1   v127
        BYTE           N03     As1   v048
        BYTE   W12
        BYTE                   Dn1   v100
        BYTE           N03     As1   v048
        BYTE   W06
        BYTE                   Cn1   v127
        BYTE   W06
        BYTE                   Dn1   v100
        BYTE   W06
        BYTE                   Cn2   v108
        BYTE   W03
        BYTE                   Cn2
        BYTE   W03
        BYTE                   An1   v112
        BYTE   W06
        BYTE                   Cn1   v127
        BYTE           N03     Fn1   v100
        BYTE   W18
        BYTE                   Dn1
        BYTE           N03     Cn1   v127
        BYTE   W12
// 028   ----------------------------------------
        BYTE   PATT
         POIN2  lang2soldat_6_10
// 029   ----------------------------------------
        BYTE   PATT
         POIN2  lang2soldat_6_10
// 030   ----------------------------------------
        BYTE   PATT
         POIN2  lang2soldat_6_10
// 031   ----------------------------------------
        BYTE   PATT
         POIN2  lang2soldat_6_10
// 032   ----------------------------------------
        BYTE   PATT
         POIN2  lang2soldat_6_10
// 033   ----------------------------------------
        BYTE   PATT
         POIN2  lang2soldat_6_10
// 034   ----------------------------------------
        BYTE           N03     Cn1   v127
        BYTE           N03     As1   v048
        BYTE   W06
        BYTE                   Cn1   v127
        BYTE   W06
        BYTE                   Dn1   v100
        BYTE           N03     As1   v048
        BYTE   W12
        BYTE                   Cn1   v127
        BYTE           N03     Fn1   v100
        BYTE           N03     As1   v048
        BYTE   W12
        BYTE                   Dn1   v100
        BYTE           N03     As1   v048
        BYTE   W06
        BYTE                   Cn1   v127
        BYTE   W06
        BYTE                   As1   v048
        BYTE   W06
        BYTE                   Cn1   v127
        BYTE   W06
        BYTE                   Dn1   v100
        BYTE           N03     As1   v048
        BYTE   W12
        BYTE                   Cn1   v127
        BYTE           N03     Fn1   v100
        BYTE           N03     As1   v048
        BYTE   W06
        BYTE                   Cn1   v127
        BYTE   W06
        BYTE                   Dn1   v100
        BYTE           N03     As1   v048
        BYTE   W06
        BYTE                   Cn1   v127
        BYTE   W06
// 035   ----------------------------------------
        BYTE                   Cn1
        BYTE           N03     As1   v048
        BYTE   W06
        BYTE                   Cn1   v127
        BYTE   W06
        BYTE                   Dn1   v100
        BYTE           N03     As1   v048
        BYTE   W06
        BYTE                   Cn1   v127
        BYTE   W06
        BYTE                   Dn1   v100
        BYTE           N03     As1   v048
        BYTE   W06
        BYTE                   Cn1   v127
        BYTE   W06
        BYTE                   Dn1   v100
        BYTE           N03     As1   v048
        BYTE   W03
        BYTE                   Dn1   v100
        BYTE   W06
        BYTE                   Dn1
        BYTE   W03
        BYTE                   Cn1   v127
        BYTE           N03     Dn1   v100
        BYTE           N03     As1   v048
        BYTE   W03
        BYTE                   Dn1   v100
        BYTE   W03
        BYTE                   Dn1
        BYTE   W03
        BYTE                   Cn2   v108
        BYTE   W03
        BYTE                   Cn1   v127
        BYTE           N03     As1   v048
        BYTE           N03     Cn2   v108
        BYTE   W03
        BYTE                   Cn2
        BYTE   W03
        BYTE                   An1   v112
        BYTE   W03
        BYTE                   An1
        BYTE   W03
        BYTE                   Cn1   v127
        BYTE           N03     An1   v112
        BYTE           N03     As1   v048
        BYTE   W03
        BYTE                   Fn1   v100
        BYTE   W03
        BYTE                   Fn1
        BYTE   W03
        BYTE                   Fn1
        BYTE   W03
        BYTE                   Cn1   v127
        BYTE           N03     Dn1   v100
        BYTE           N03     As1   v048
        BYTE   W12
// 036   ----------------------------------------
lang2soldat_6_36:
        BYTE           N03     Cn1   v127
        BYTE           N03     As1   v048
        BYTE   W12
        BYTE                   Dn1   v100
        BYTE           N03     As1   v048
        BYTE   W12
        BYTE                   Cn1   v127
        BYTE           N03     As1   v048
        BYTE   W12
        BYTE                   Dn1   v100
        BYTE           N03     As1   v048
        BYTE   W06
        BYTE                   Cn1   v127
        BYTE           N24     Gn2   v080
        BYTE   W06
        BYTE           N03     As1   v048
        BYTE   W06
        BYTE                   Cn1   v127
        BYTE   W06
        BYTE                   Dn1   v100
        BYTE           N03     As1   v048
        BYTE   W12
        BYTE                   Cn1   v127
        BYTE           N03     As1   v048
        BYTE   W06
        BYTE                   Cn1   v127
        BYTE   W06
        BYTE                   Dn1   v100
        BYTE           N03     As1   v048
        BYTE   W12
        BYTE   PEND
// 037   ----------------------------------------
        BYTE   PATT
         POIN2  lang2soldat_6_36
// 038   ----------------------------------------
        BYTE   PATT
         POIN2  lang2soldat_6_36
// 039   ----------------------------------------
        BYTE           N03     Cn1   v127
        BYTE           N03     As1   v048
        BYTE   W12
        BYTE                   Dn1   v100
        BYTE           N03     As1   v048
        BYTE   W12
        BYTE                   Cn1   v127
        BYTE           N03     As1   v048
        BYTE   W12
        BYTE                   Dn1   v100
        BYTE           N03     As1   v048
        BYTE   W06
        BYTE                   Cn1   v127
        BYTE           N24     Gn2   v080
        BYTE   W12
        BYTE           N03     Cn1   v127
        BYTE   W06
        BYTE                   Dn1   v100
        BYTE   W12
        BYTE                   Dn1
        BYTE   W06
        BYTE                   Dn1
        BYTE   W06
        BYTE                   Fn1
        BYTE   W12
// 040   ----------------------------------------
        BYTE   GoTo
         POIN2  lang2soldat_6_LOOP
        BYTE   FINE

//****************** Track 7 (Midi-Chn.7) ******************//

lang2soldat_7:
        BYTE   KEYSH   lang2soldat_key+0
// 000   ----------------------------------------
        BYTE           VOICE   103
        BYTE           VOL     32
        BYTE           PAN     c_v+36
        BYTE   W12
// 001   ----------------------------------------
        BYTE           N05     Dn2   v075
        BYTE   W18
        BYTE                   Cn2
        BYTE   W24
        BYTE                   An1
        BYTE   W54
// 002   ----------------------------------------
lang2soldat_7_LOOP:
        BYTE           N02     Dn2   v075
        BYTE   W06
        BYTE                   Dn2
        BYTE   W06
        BYTE           N05
        BYTE           N05     An2
        BYTE   W06
        BYTE           N02     Dn2
        BYTE   W06
        BYTE                   Dn2
        BYTE   W06
        BYTE           N05
        BYTE           N05     An2
        BYTE   W06
        BYTE           N02     Dn2
        BYTE   W06
        BYTE           N11     Ds2
        BYTE           N11     As2
        BYTE   W12
        BYTE           N02     Ds2
        BYTE   W06
        BYTE           N05
        BYTE           N05     As2
        BYTE   W06
        BYTE           N02     Ds2
        BYTE   W06
        BYTE                   Ds2
        BYTE   W06
        BYTE           N05
        BYTE           N05     As2
        BYTE   W06
        BYTE           N02     Ds2
        BYTE   W06
        BYTE                   Ds2
        BYTE   W06
// 003   ----------------------------------------
lang2soldat_7_3:
        BYTE           N02     Dn2   v075
        BYTE   W06
        BYTE                   Dn2
        BYTE   W06
        BYTE           N05
        BYTE           N05     An2
        BYTE   W06
        BYTE           N02     Dn2
        BYTE   W06
        BYTE                   Dn2
        BYTE   W06
        BYTE           N05
        BYTE           N05     An2
        BYTE   W06
        BYTE           N02     Dn2
        BYTE   W06
        BYTE           N11
        BYTE           N11     An2
        BYTE   W12
        BYTE           N02     Dn2
        BYTE   W06
        BYTE           N05
        BYTE           N05     An2
        BYTE   W06
        BYTE           N02     Dn2
        BYTE   W06
        BYTE                   Dn2
        BYTE   W06
        BYTE           N05     An1
        BYTE           N05     En2
        BYTE   W06
        BYTE           N02     An1
        BYTE   W06
        BYTE                   An1
        BYTE   W06
        BYTE   PEND
// 004   ----------------------------------------
lang2soldat_7_4:
        BYTE           N02     Dn2   v075
        BYTE   W06
        BYTE                   Dn2
        BYTE   W06
        BYTE           N05
        BYTE           N05     An2
        BYTE   W06
        BYTE           N02     Dn2
        BYTE   W06
        BYTE                   Dn2
        BYTE   W06
        BYTE           N05
        BYTE           N05     An2
        BYTE   W06
        BYTE           N02     Dn2
        BYTE   W06
        BYTE           N11     Ds2
        BYTE           N11     As2
        BYTE   W12
        BYTE           N02     Ds2
        BYTE   W06
        BYTE           N05
        BYTE           N05     As2
        BYTE   W06
        BYTE           N02     Ds2
        BYTE   W06
        BYTE                   Ds2
        BYTE   W06
        BYTE           N05
        BYTE           N05     As2
        BYTE   W06
        BYTE           N02     Ds2
        BYTE   W06
        BYTE                   Ds2
        BYTE   W06
        BYTE   PEND
// 005   ----------------------------------------
lang2soldat_7_5:
        BYTE           N02     Dn2   v075
        BYTE   W06
        BYTE                   Dn2
        BYTE   W06
        BYTE           N05
        BYTE           N05     An2
        BYTE   W06
        BYTE           N02     Dn2
        BYTE   W06
        BYTE                   Dn2
        BYTE   W06
        BYTE           N05
        BYTE           N05     An2
        BYTE   W06
        BYTE           N02     Dn2
        BYTE   W06
        BYTE           N11
        BYTE           N11     An2
        BYTE   W12
        BYTE           N02     Dn2
        BYTE   W06
        BYTE           N05
        BYTE           N05     An2
        BYTE   W06
        BYTE           N02     Dn2
        BYTE   W06
        BYTE                   Dn2
        BYTE   W06
        BYTE                   Cn2
        BYTE   W06
        BYTE                   Cn2
        BYTE   W06
        BYTE                   Cn2
        BYTE   W06
        BYTE   PEND
// 006   ----------------------------------------
lang2soldat_7_6:
        BYTE           N02     As1   v075
        BYTE   W06
        BYTE                   As1
        BYTE   W06
        BYTE           N05
        BYTE           N05     Fn2
        BYTE   W06
        BYTE           N02     As1
        BYTE   W06
        BYTE                   As1
        BYTE   W06
        BYTE           N05
        BYTE           N05     Fn2
        BYTE   W06
        BYTE           N02     As1
        BYTE   W06
        BYTE           N11
        BYTE           N11     Fn2
        BYTE   W12
        BYTE           N02     As1
        BYTE   W06
        BYTE           N05
        BYTE           N05     Fn2
        BYTE   W06
        BYTE           N02     As1
        BYTE   W06
        BYTE                   As1
        BYTE   W06
        BYTE           N05
        BYTE           N05     Fn2
        BYTE   W06
        BYTE           N02     As1
        BYTE   W06
        BYTE                   As1
        BYTE   W06
        BYTE   PEND
// 007   ----------------------------------------
        BYTE   PATT
         POIN2  lang2soldat_7_6
// 008   ----------------------------------------
lang2soldat_7_8:
        BYTE           N02     En2   v075
        BYTE   W06
        BYTE                   En2
        BYTE   W06
        BYTE           N05
        BYTE           N05     Bn2
        BYTE   W06
        BYTE           N02     En2
        BYTE   W06
        BYTE                   En2
        BYTE   W06
        BYTE           N05
        BYTE           N05     Bn2
        BYTE   W06
        BYTE           N02     En2
        BYTE   W06
        BYTE           N11
        BYTE           N11     Bn2
        BYTE   W12
        BYTE           N02     En2
        BYTE   W06
        BYTE           N05
        BYTE           N05     Bn2
        BYTE   W06
        BYTE           N02     En2
        BYTE   W06
        BYTE                   En2
        BYTE   W06
        BYTE           N05
        BYTE           N05     Bn2
        BYTE   W06
        BYTE           N02     En2
        BYTE   W06
        BYTE                   En2
        BYTE   W06
        BYTE   PEND
// 009   ----------------------------------------
lang2soldat_7_9:
        BYTE           N02     An1   v075
        BYTE   W06
        BYTE                   An1
        BYTE   W06
        BYTE           N05
        BYTE           N05     En2
        BYTE   W06
        BYTE           N02     An1
        BYTE   W06
        BYTE                   An1
        BYTE   W06
        BYTE           N05
        BYTE           N05     En2
        BYTE   W06
        BYTE           N02     An1
        BYTE   W06
        BYTE           N11     As1
        BYTE           N11     As2
        BYTE           BEND    c_v-6
        BYTE   W01
        BYTE                   c_v-3
        BYTE   W01
        BYTE                   c_v-1
        BYTE   W01
        BYTE                   c_v+0
        BYTE   W09
        BYTE           N02     As1
        BYTE   W06
        BYTE           N05
        BYTE           N05     As2
        BYTE   W06
        BYTE                   An1
        BYTE           N05     An2
        BYTE   W24
        BYTE                   An1
        BYTE           N05     En2
        BYTE   W06
        BYTE   PEND
// 010   ----------------------------------------
        BYTE   PATT
         POIN2  lang2soldat_7_4
// 011   ----------------------------------------
        BYTE   PATT
         POIN2  lang2soldat_7_3
// 012   ----------------------------------------
        BYTE   PATT
         POIN2  lang2soldat_7_4
// 013   ----------------------------------------
        BYTE   PATT
         POIN2  lang2soldat_7_5
// 014   ----------------------------------------
        BYTE   PATT
         POIN2  lang2soldat_7_6
// 015   ----------------------------------------
        BYTE   PATT
         POIN2  lang2soldat_7_6
// 016   ----------------------------------------
        BYTE   PATT
         POIN2  lang2soldat_7_8
// 017   ----------------------------------------
        BYTE   PATT
         POIN2  lang2soldat_7_9
// 018   ----------------------------------------
        BYTE           N09     As1   v075
        BYTE           N09     Fn2
        BYTE   W36
        BYTE           N05     As1
        BYTE           N05     Fn2
        BYTE   W06
        BYTE           N09     As1
        BYTE           N09     Fn2
        BYTE   W48
        BYTE           N05     As1
        BYTE           N05     Fn2
        BYTE   W06
// 019   ----------------------------------------
lang2soldat_7_19:
        BYTE           N08     An1   v075
        BYTE           N08     En2
        BYTE   W36
        BYTE           N05     An1
        BYTE   W06
        BYTE           N11     Dn2
        BYTE   W12
        BYTE           N05     An1
        BYTE   W06
        BYTE                   Fn2
        BYTE   W06
        BYTE           N11     En2
        BYTE   W12
        BYTE           N05     Dn2
        BYTE   W06
        BYTE                   Cn2
        BYTE   W06
        BYTE                   As1
        BYTE   W06
        BYTE   PEND
// 020   ----------------------------------------
lang2soldat_7_20:
        BYTE           N02     An1   v025
        BYTE   W06
        BYTE                   An1
        BYTE   W06
        BYTE           N05     An1   v075
        BYTE           N05     En2
        BYTE   W06
        BYTE           N02     An1   v025
        BYTE   W06
        BYTE                   An1
        BYTE   W06
        BYTE           N05     An1   v075
        BYTE           N05     En2
        BYTE   W06
        BYTE           N02     An1   v025
        BYTE   W06
        BYTE           N11     As1   v075
        BYTE           N11     Fn2
        BYTE   W12
        BYTE           N02     As1   v025
        BYTE   W06
        BYTE           N05     As1   v075
        BYTE           N05     Fn2
        BYTE   W06
        BYTE           N02     As1   v025
        BYTE   W06
        BYTE                   As1
        BYTE   W06
        BYTE           N05     As1   v075
        BYTE           N05     Fn2
        BYTE   W06
        BYTE           N02     As1   v025
        BYTE   W06
        BYTE                   As1
        BYTE   W06
        BYTE   PEND
// 021   ----------------------------------------
        BYTE                   An1
        BYTE   W06
        BYTE                   An1
        BYTE   W06
        BYTE           N05     An1   v075
        BYTE           N05     En2
        BYTE   W06
        BYTE           N02     An1   v025
        BYTE   W06
        BYTE                   An1
        BYTE   W06
        BYTE           N05     An1   v075
        BYTE           N05     En2
        BYTE   W06
        BYTE           N02     An1   v025
        BYTE   W06
        BYTE           N11     An1   v075
        BYTE           N11     En2
        BYTE   W12
        BYTE           N02     An1   v025
        BYTE   W06
        BYTE           N05     An1   v075
        BYTE           N05     En2
        BYTE   W06
        BYTE           N02     An1   v025
        BYTE   W06
        BYTE                   An1
        BYTE   W06
        BYTE           N05     An1   v075
        BYTE           N05     En2
        BYTE   W06
        BYTE           N02     An1   v025
        BYTE   W06
        BYTE                   An1
        BYTE   W06
// 022   ----------------------------------------
        BYTE           N08     As1   v075
        BYTE           N08     Fn2
        BYTE   W36
        BYTE           N05     As1
        BYTE           N05     Fn2
        BYTE   W06
        BYTE           N08     As1
        BYTE           N08     Fn2
        BYTE   W48
        BYTE           N05     As1
        BYTE           N05     Fn2
        BYTE   W06
// 023   ----------------------------------------
        BYTE   PATT
         POIN2  lang2soldat_7_19
// 024   ----------------------------------------
        BYTE   PATT
         POIN2  lang2soldat_7_20
// 025   ----------------------------------------
        BYTE   PATT
         POIN2  lang2soldat_7_20
// 026   ----------------------------------------
        BYTE   PATT
         POIN2  lang2soldat_7_20
// 027   ----------------------------------------
        BYTE           N02     An1   v025
        BYTE   W06
        BYTE                   An1
        BYTE   W06
        BYTE           N05     An1   v075
        BYTE           N05     En2
        BYTE   W06
        BYTE           N02     An1   v025
        BYTE   W06
        BYTE                   An1
        BYTE   W06
        BYTE           N05     An1   v075
        BYTE           N05     En2
        BYTE   W06
        BYTE           N02     An1   v025
        BYTE   W06
        BYTE           N11     An1   v075
        BYTE           N11     En2
        BYTE   W12
        BYTE           N02     An1
        BYTE   W06
        BYTE                   An1
        BYTE   W06
        BYTE           N08
        BYTE           N08     En2
        BYTE   W24
        BYTE           N05     An1
        BYTE   W06
// 028   ----------------------------------------
        BYTE   PATT
         POIN2  lang2soldat_7_4
// 029   ----------------------------------------
        BYTE   PATT
         POIN2  lang2soldat_7_3
// 030   ----------------------------------------
        BYTE   PATT
         POIN2  lang2soldat_7_4
// 031   ----------------------------------------
        BYTE   PATT
         POIN2  lang2soldat_7_5
// 032   ----------------------------------------
        BYTE   PATT
         POIN2  lang2soldat_7_6
// 033   ----------------------------------------
        BYTE   PATT
         POIN2  lang2soldat_7_6
// 034   ----------------------------------------
        BYTE   W24
        BYTE           N23     Gn1   v075
        BYTE           N23     Dn2
        BYTE   W48
        BYTE                   An1
        BYTE           N23     En2
        BYTE   W24
// 035   ----------------------------------------
        BYTE   W24
        BYTE                   As1
        BYTE           N23     Fn2
        BYTE   W24
        BYTE                   Cn2
        BYTE           N23     Gn2
        BYTE   W24
        BYTE                   Cn2
        BYTE           N23     Gn2
        BYTE   W24
// 036   ----------------------------------------
        BYTE   PATT
         POIN2  lang2soldat_7_4
// 037   ----------------------------------------
        BYTE   PATT
         POIN2  lang2soldat_7_4
// 038   ----------------------------------------
        BYTE   PATT
         POIN2  lang2soldat_7_4
// 039   ----------------------------------------
        BYTE           N02     Dn2   v025
        BYTE   W06
        BYTE                   Dn2
        BYTE   W06
        BYTE           N05     Dn2   v075
        BYTE           N05     An2
        BYTE   W06
        BYTE           N02     Dn2   v025
        BYTE   W06
        BYTE                   Dn2
        BYTE   W06
        BYTE           N05     Dn2   v075
        BYTE           N05     An2
        BYTE   W06
        BYTE           N02     Dn2   v025
        BYTE   W06
        BYTE           N11     Ds2   v075
        BYTE   W12
        BYTE           N05     As1
        BYTE   W06
        BYTE                   Ds2
        BYTE   W06
        BYTE                   Gn2
        BYTE   W06
        BYTE                   As2
        BYTE   W06
        BYTE           N06
        BYTE   W18
// 040   ----------------------------------------
        BYTE   GoTo
         POIN2  lang2soldat_7_LOOP
        BYTE   FINE


//********************** End of Song ***********************//

        ALIGN 4
lang2soldat:
        BYTE   8                       // Num Tracks
        BYTE   0                       // Unknown
        BYTE   lang2soldat_pri         // Priority
        BYTE   lang2soldat_rev         // Reverb

        POIN2   lang2soldat_grp        

        POIN2   lang2soldat_0
        POIN2   lang2soldat_1
        POIN2   lang2soldat_2
        POIN2   lang2soldat_3
        POIN2   lang2soldat_4
        POIN2   lang2soldat_5
        POIN2   lang2soldat_6
        POIN2   lang2soldat_7

        
