//Event file generated from Sappy .s format.
        #include "MPlayDef.event"

        #define    lang2requiem_grp  MusicVoices
        #define    lang2requiem_pri  0
        #define    lang2requiem_rev  0x80
        #define    lang2requiem_key  0

        // .rodata
        // lang2requiem
        ALIGN 4

//****************** Track 0 (Midi-Chn.0) ******************//

lang2requiem_0:
        BYTE   KEYSH   lang2requiem_key+0
// 000   ----------------------------------------
        BYTE   TEMPO   120/2
lang2requiem_0_LOOP:
        BYTE           VOICE   125
        BYTE           VOL     22
        BYTE           TIE     Cn1   v100
        BYTE   W96
// 001   ----------------------------------------
        BYTE   W96
// 002   ----------------------------------------
        BYTE   W96
// 003   ----------------------------------------
        BYTE   W96
// 004   ----------------------------------------
        BYTE   W96
// 005   ----------------------------------------
        BYTE   W96
// 006   ----------------------------------------
        BYTE   W96
// 007   ----------------------------------------
        BYTE   W96
// 008   ----------------------------------------
        BYTE   W96
// 009   ----------------------------------------
        BYTE   W96
// 010   ----------------------------------------
        BYTE   W96
// 011   ----------------------------------------
        BYTE   W96
// 012   ----------------------------------------
        BYTE   W96
// 013   ----------------------------------------
        BYTE   W96
// 014   ----------------------------------------
        BYTE   W96
// 015   ----------------------------------------
        BYTE   W96
// 016   ----------------------------------------
        BYTE   W96
// 017   ----------------------------------------
        BYTE   W96
// 018   ----------------------------------------
        BYTE   W96
// 019   ----------------------------------------
        BYTE   W96
// 020   ----------------------------------------
        BYTE   W96
// 021   ----------------------------------------
        BYTE   W96
// 022   ----------------------------------------
        BYTE   W96
// 023   ----------------------------------------
        BYTE   W96
// 024   ----------------------------------------
        BYTE   W96
// 025   ----------------------------------------
        BYTE   W96
// 026   ----------------------------------------
        BYTE   W96
// 027   ----------------------------------------
        BYTE   W96
// 028   ----------------------------------------
        BYTE   W96
// 029   ----------------------------------------
        BYTE   W96
// 030   ----------------------------------------
        BYTE   W96
// 031   ----------------------------------------
        BYTE   W96
// 032   ----------------------------------------
        BYTE   W96
// 033   ----------------------------------------
        BYTE   W96
// 034   ----------------------------------------
        BYTE   W96
// 035   ----------------------------------------
        BYTE   W96
// 036   ----------------------------------------
        BYTE   W96
// 037   ----------------------------------------
        BYTE   W96
// 038   ----------------------------------------
        BYTE   W96
// 039   ----------------------------------------
        BYTE   W96
// 040   ----------------------------------------
        BYTE   W72
        BYTE           EOT
        BYTE   GoTo
         POIN2  lang2requiem_0_LOOP
        BYTE   FINE

//****************** Track 1 (Midi-Chn.1) ******************//

lang2requiem_1:
        BYTE   KEYSH   lang2requiem_key+0
// 000   ----------------------------------------
lang2requiem_1_LOOP:
        BYTE           VOICE   0
        BYTE           VOL     50
        BYTE           N08     Bn2   v127
        BYTE   W06
        BYTE           N09     Cn3   v100
        BYTE   W08
        BYTE           N56     An2   v080
        BYTE   W78
        BYTE   W01
        BYTE           N07     An2   v127
        BYTE   W03
// 001   ----------------------------------------
        BYTE   W08
        BYTE           N06     Bn2   v116
        BYTE   W06
        BYTE           N04     Cn3   v100
        BYTE   W04
        BYTE           N08     Dn3   v104
        BYTE   W12
        BYTE           N56     An2
        BYTE   W01
        BYTE                   Dn3   v124
        BYTE   W64
        BYTE   W01
// 002   ----------------------------------------
        BYTE   W11
        BYTE           TIE     Cn3   v096
        BYTE   W84
        BYTE   W01
// 003   ----------------------------------------
        BYTE   W96
// 004   ----------------------------------------
        BYTE           EOT
        BYTE   W18
        BYTE           N14     Bn2   v127
        BYTE   W10
        BYTE           N11     Cn3   v092
        BYTE   W09
        BYTE           N56     An2   v080
        BYTE   W56
        BYTE   W03
// 005   ----------------------------------------
        BYTE   W06
        BYTE           N06     An2   v127
        BYTE   W12
        BYTE           N05     Bn2   v116
        BYTE   W06
        BYTE           N04     Cn3   v100
        BYTE   W04
        BYTE           N06     Dn3   v116
        BYTE   W14
        BYTE           N32     An2   v124
        BYTE           N32     Dn3   v127
        BYTE   W44
        BYTE   W02
        BYTE           N42     Bn2   v088
        BYTE   W08
// 006   ----------------------------------------
        BYTE   W40
        BYTE           TIE     An2   v100
        BYTE   W06
        BYTE                   Cn3   v104
        BYTE   W48
        BYTE   W02
// 007   ----------------------------------------
        BYTE   W96
// 008   ----------------------------------------
        BYTE   W48
        BYTE           EOT     An2
        BYTE                   Cn3
        BYTE   W28
        BYTE           TIE     An2   v116
        BYTE   W20
// 009   ----------------------------------------
        BYTE   W96
// 010   ----------------------------------------
        BYTE   W44
        BYTE   W03
        BYTE           EOT
        BYTE   W48
        BYTE   W01
// 011   ----------------------------------------
        BYTE   W18
        BYTE           N32     Cn3   v080
        BYTE   W40
        BYTE           N09     Cn3   v068
        BYTE   W16
        BYTE           TIE     Cn3   v076
        BYTE   W22
// 012   ----------------------------------------
        BYTE   W92
        BYTE   W03
        BYTE           EOT
        BYTE   W01
// 013   ----------------------------------------
        BYTE   W48
        BYTE   W02
        BYTE           N30     An2   v084
        BYTE   W01
        BYTE           N17     Dn3   v100
        BYTE   W32
        BYTE   W03
        BYTE           N08     An2   v104
        BYTE           N08     Dn3   v116
        BYTE   W10
// 014   ----------------------------------------
        BYTE   W05
        BYTE           N24     An2   v104
        BYTE           N22     Cn3   v116
        BYTE   W42
        BYTE   W01
        BYTE           N44     An2   v088
        BYTE           N48     Dn3   v100
        BYTE   W48
// 015   ----------------------------------------
        BYTE   W36
        BYTE   W02
        BYTE           N06     Bn2   v072
        BYTE   W15
        BYTE           N05
        BYTE   W09
        BYTE           N06     Bn2   v088
        BYTE   W32
        BYTE   W02
// 016   ----------------------------------------
        BYTE   W96
// 017   ----------------------------------------
        BYTE   W60
        BYTE   W03
        BYTE           N05     Bn2   v127
        BYTE   W03
        BYTE           N09     Cn3   v104
        BYTE   W08
        BYTE           TIE     An2   v092
        BYTE   W22
// 018   ----------------------------------------
        BYTE   W96
// 019   ----------------------------------------
        BYTE   W78
        BYTE   W01
        BYTE           EOT
        BYTE   W05
        BYTE           N07     An2   v127
        BYTE   W10
        BYTE           N05     Bn2   v104
        BYTE   W02
// 020   ----------------------------------------
        BYTE   W05
        BYTE           N03     Cn3   v072
        BYTE   W03
        BYTE           N05     Dn3   v104
        BYTE   W14
        BYTE           N42     An2   v116
        BYTE   W01
        BYTE                   Dn3   v127
        BYTE   W72
        BYTE   W01
// 021   ----------------------------------------
        BYTE           N96     An2   v092
        BYTE           N96     Cn3   v088
        BYTE   W96
// 022   ----------------------------------------
        BYTE   W10
        BYTE           N08     Bn2   v127
        BYTE   W06
        BYTE                   Cn3   v096
        BYTE   W06
        BYTE           N64     An2
        BYTE   W72
        BYTE   W02
// 023   ----------------------------------------
        BYTE   W01
        BYTE           N06     An2   v127
        BYTE   W10
        BYTE           N04     Bn2   v116
        BYTE   W06
        BYTE                   Cn3   v096
        BYTE   W04
        BYTE           N06     Dn3   v104
        BYTE   W13
        BYTE           N32     An2   v116
        BYTE           N21     Dn3   v127
        BYTE   W24
        BYTE   W03
        BYTE           N04     Dn3   v116
        BYTE   W12
        BYTE           N40     Bn2   v104
        BYTE   W23
// 024   ----------------------------------------
        BYTE   W24
        BYTE   W02
        BYTE           N54     An2   v056
        BYTE   W02
        BYTE                   Cn3   v060
        BYTE   W68
// 025   ----------------------------------------
        BYTE   W96
// 026   ----------------------------------------
        BYTE   W06
        BYTE           N48     An2   v088
        BYTE   W02
        BYTE           N44     Cn3   v084
        BYTE   W88
// 027   ----------------------------------------
        BYTE   W96
// 028   ----------------------------------------
        BYTE   W19
        BYTE           N60     An2   v100
        BYTE   W02
        BYTE           N11     Cn3   v104
        BYTE   W20
        BYTE           N01     Cn3   v056
        BYTE   W44
        BYTE   W02
        BYTE           N14     Dn3   v092
        BYTE   W09
// 029   ----------------------------------------
        BYTE   W48
        BYTE   W01
        BYTE           N20     Cn3   v127
        BYTE   W17
        BYTE           N17     Bn2   v088
        BYTE   W17
        BYTE           N20     An2   v096
        BYTE   W13
// 030   ----------------------------------------
        BYTE   W96
// 031   ----------------------------------------
        BYTE   W24
        BYTE   W03
        BYTE           TIE     An2   v092
        BYTE   W09
        BYTE                   Dn3   v096
        BYTE   W60
// 032   ----------------------------------------
        BYTE   W44
        BYTE   W03
        BYTE           EOT     An2
        BYTE   W01
        BYTE                   Dn3
        BYTE   W48
// 033   ----------------------------------------
        BYTE   W44
        BYTE   W01
        BYTE           N05     Dn3   v127
        BYTE   W24
        BYTE   W02
        BYTE           N28     An2   v116
        BYTE           N13     Cn3   v127
        BYTE   W11
        BYTE           N12     Dn3   v096
        BYTE   W14
// 034   ----------------------------------------
        BYTE   W06
        BYTE           N56     An2
        BYTE   W80
        BYTE   W02
        BYTE           N15     Bn2   v127
        BYTE   W08
// 035   ----------------------------------------
        BYTE   W05
        BYTE           N10     Cn3   v088
        BYTE   W13
        BYTE           N11     Dn3   v080
        BYTE   W78
// 036   ----------------------------------------
        BYTE   W56
        BYTE   W03
        BYTE           N24     An2   v127
        BYTE   W18
        BYTE           N18     Bn2   v096
        BYTE   W18
        BYTE           TIE     Cn3   v088
        BYTE   W01
// 037   ----------------------------------------
        BYTE   W24
        BYTE   W03
        BYTE                   An2   v072
        BYTE   W68
        BYTE   W01
// 038   ----------------------------------------
        BYTE   W12
        BYTE           EOT     Cn3
        BYTE   W60
        BYTE   W03
        BYTE                   An2
        BYTE   W21
// 039   ----------------------------------------
        BYTE   W96
// 040   ----------------------------------------
        BYTE   W72
        BYTE   GoTo
         POIN2  lang2requiem_1_LOOP
        BYTE   FINE

//****************** Track 2 (Midi-Chn.2) ******************//

lang2requiem_2:
        BYTE   KEYSH   lang2requiem_key+0
// 000   ----------------------------------------
lang2requiem_2_LOOP:
        BYTE           VOICE   0
        BYTE           VOL     50
        BYTE           PAN     c_v+36
        BYTE   W96
// 001   ----------------------------------------
        BYTE   W96
// 002   ----------------------------------------
        BYTE   W96
// 003   ----------------------------------------
        BYTE   W96
// 004   ----------------------------------------
        BYTE   W96
// 005   ----------------------------------------
        BYTE   W96
// 006   ----------------------------------------
        BYTE   W84
        BYTE   W01
        BYTE           TIE     Cn4   v100
        BYTE   W11
// 007   ----------------------------------------
        BYTE   W96
// 008   ----------------------------------------
        BYTE   W48
        BYTE           EOT
        BYTE   W30
        BYTE   W01
        BYTE           N10     Dn4   v127
        BYTE   W13
        BYTE           N08     Cn4   v116
        BYTE   W04
// 009   ----------------------------------------
        BYTE   W15
        BYTE           N06     Cn4   v104
        BYTE   W80
        BYTE   W01
// 010   ----------------------------------------
        BYTE   W96
// 011   ----------------------------------------
        BYTE   W96
// 012   ----------------------------------------
        BYTE   W96
// 013   ----------------------------------------
        BYTE   W96
// 014   ----------------------------------------
        BYTE   W96
// 015   ----------------------------------------
        BYTE   W96
// 016   ----------------------------------------
        BYTE   W96
// 017   ----------------------------------------
        BYTE   W96
// 018   ----------------------------------------
        BYTE   W96
// 019   ----------------------------------------
        BYTE   W96
// 020   ----------------------------------------
        BYTE   W96
// 021   ----------------------------------------
        BYTE   W96
// 022   ----------------------------------------
        BYTE   W96
// 023   ----------------------------------------
        BYTE   W96
// 024   ----------------------------------------
        BYTE   W72
        BYTE           N68     Cn4   v127
        BYTE   W24
// 025   ----------------------------------------
        BYTE   W96
// 026   ----------------------------------------
        BYTE   W11
        BYTE           N11     Dn4   v096
        BYTE   W13
        BYTE           N06     Cn4
        BYTE   W18
        BYTE           N05     Cn4   v127
        BYTE   W54
// 027   ----------------------------------------
        BYTE   W96
// 028   ----------------------------------------
        BYTE   W96
// 029   ----------------------------------------
        BYTE   W96
// 030   ----------------------------------------
        BYTE   W96
// 031   ----------------------------------------
        BYTE   W96
// 032   ----------------------------------------
        BYTE   W96
// 033   ----------------------------------------
        BYTE   W96
// 034   ----------------------------------------
        BYTE   W96
// 035   ----------------------------------------
        BYTE   W96
// 036   ----------------------------------------
        BYTE   W96
// 037   ----------------------------------------
        BYTE   W96
// 038   ----------------------------------------
        BYTE   W80
        BYTE           TIE     An4   v080
        BYTE   W16
// 039   ----------------------------------------
        BYTE   W96
// 040   ----------------------------------------
        BYTE   W44
        BYTE   W03
        BYTE           EOT
        BYTE   W24
        BYTE   W01
        BYTE   GoTo
         POIN2  lang2requiem_2_LOOP
        BYTE   FINE

//****************** Track 3 (Midi-Chn.3) ******************//

lang2requiem_3:
        BYTE   KEYSH   lang2requiem_key+0
// 000   ----------------------------------------
lang2requiem_3_LOOP:
        BYTE           VOICE   0
        BYTE           VOL     50
        BYTE           PAN     c_v+24
        BYTE   W96
// 001   ----------------------------------------
        BYTE   W32
        BYTE           N02     An3   v104
        BYTE   W64
// 002   ----------------------------------------
        BYTE   W96
// 003   ----------------------------------------
        BYTE   W96
// 004   ----------------------------------------
        BYTE   W96
// 005   ----------------------------------------
        BYTE   W90
        BYTE           N14     An3   v127
        BYTE   W06
// 006   ----------------------------------------
        BYTE   W08
        BYTE           N06     Gs3
        BYTE   W24
        BYTE   W02
        BYTE           N05
        BYTE   W13
        BYTE           N14     Bn3
        BYTE   W16
        BYTE           TIE     An3
        BYTE   W32
        BYTE   W01
// 007   ----------------------------------------
        BYTE   W96
// 008   ----------------------------------------
        BYTE   W44
        BYTE   W03
        BYTE           EOT
        BYTE   W32
        BYTE           N09
        BYTE   W13
        BYTE           N07     An3   v100
        BYTE   W04
// 009   ----------------------------------------
        BYTE   W06
        BYTE           N06     Bn3   v116
        BYTE   W01
        BYTE           N04     An3   v100
        BYTE   W10
        BYTE           N01     An3   v064
        BYTE   W07
        BYTE           TIE     An3   v100
        BYTE   W72
// 010   ----------------------------------------
        BYTE   W48
        BYTE           EOT
        BYTE   W48
// 011   ----------------------------------------
        BYTE   W18
        BYTE           N15
        BYTE   W78
// 012   ----------------------------------------
        BYTE   W96
// 013   ----------------------------------------
        BYTE   W96
// 014   ----------------------------------------
        BYTE   W96
// 015   ----------------------------------------
        BYTE   W96
// 016   ----------------------------------------
        BYTE   W96
// 017   ----------------------------------------
        BYTE   W96
// 018   ----------------------------------------
        BYTE   W96
// 019   ----------------------------------------
        BYTE   W96
// 020   ----------------------------------------
        BYTE   W96
// 021   ----------------------------------------
        BYTE   W96
// 022   ----------------------------------------
        BYTE   W96
// 023   ----------------------------------------
        BYTE   W76
        BYTE   W01
        BYTE           N07     An3   v127
        BYTE   W12
        BYTE           N04     Gs3   v124
        BYTE   W07
// 024   ----------------------------------------
        BYTE   W16
        BYTE                   Gs3   v127
        BYTE   W15
        BYTE           N11     Bn3
        BYTE   W16
        BYTE           N07     An3
        BYTE   W11
        BYTE           N06     Gs3   v104
        BYTE   W06
        BYTE           N78     An3   v116
        BYTE   W32
// 025   ----------------------------------------
        BYTE   W68
        BYTE   W03
        BYTE           N05     An3   v100
        BYTE   W24
        BYTE   W01
// 026   ----------------------------------------
        BYTE   W06
        BYTE           N19     An3   v088
        BYTE   W28
        BYTE           N05     Bn3   v116
        BYTE   W16
        BYTE           N56     An3   v127
        BYTE   W44
        BYTE   W02
// 027   ----------------------------------------
        BYTE   W96
// 028   ----------------------------------------
        BYTE   W36
        BYTE   W02
        BYTE           N08     An3   v104
        BYTE   W56
        BYTE   W02
// 029   ----------------------------------------
        BYTE   W96
// 030   ----------------------------------------
        BYTE   W96
// 031   ----------------------------------------
        BYTE   W96
// 032   ----------------------------------------
        BYTE   W96
// 033   ----------------------------------------
        BYTE   W96
// 034   ----------------------------------------
        BYTE   W96
// 035   ----------------------------------------
        BYTE   W96
// 036   ----------------------------------------
        BYTE   W96
// 037   ----------------------------------------
        BYTE   W96
// 038   ----------------------------------------
        BYTE   W80
        BYTE           TIE     Fn4   v080
        BYTE   W16
// 039   ----------------------------------------
        BYTE   W96
// 040   ----------------------------------------
        BYTE   W48
        BYTE           EOT
        BYTE   W24
        BYTE   GoTo
         POIN2  lang2requiem_3_LOOP
        BYTE   FINE

//****************** Track 4 (Midi-Chn.4) ******************//

lang2requiem_4:
        BYTE   KEYSH   lang2requiem_key+0
// 000   ----------------------------------------
lang2requiem_4_LOOP:
        BYTE           VOICE   0
        BYTE           VOL     50
        BYTE           PAN     c_v+12
        BYTE   W21
        BYTE           N48     En3   v096
        BYTE   W72
        BYTE   W03
// 001   ----------------------------------------
        BYTE   W23
        BYTE           N05     En3   v124
        BYTE   W05
        BYTE                   Fn3   v104
        BYTE   W04
        BYTE           N23     Gn3   v124
        BYTE   W22
        BYTE           N19     Fn3   v100
        BYTE   W17
        BYTE           N16     En3   v092
        BYTE   W14
        BYTE           N11     Fn3   v100
        BYTE   W11
// 002   ----------------------------------------
        BYTE   W11
        BYTE           TIE     En3   v096
        BYTE   W84
        BYTE   W01
// 003   ----------------------------------------
        BYTE   W92
        BYTE   W03
        BYTE           EOT
        BYTE   W01
// 004   ----------------------------------------
        BYTE   W42
        BYTE   W01
        BYTE           N48     En3   v092
        BYTE   W52
        BYTE   W01
// 005   ----------------------------------------
        BYTE   W32
        BYTE   W02
        BYTE           N04     En3   v116
        BYTE   W04
        BYTE           N06     Fn3   v104
        BYTE   W05
        BYTE           N17     Gn3   v127
        BYTE   W17
        BYTE           N09     Fn3   v104
        BYTE   W11
        BYTE           N05     En3   v116
        BYTE   W08
        BYTE           N04     Fn3   v127
        BYTE   W11
        BYTE           N21     En3
        BYTE   W06
// 006   ----------------------------------------
        BYTE   W22
        BYTE           N04     En3   v116
        BYTE           N06     Fs3   v127
        BYTE   W12
        BYTE           N03     En3   v124
        BYTE   W13
        BYTE           TIE     Fn3   v127
        BYTE   W48
        BYTE   W01
// 007   ----------------------------------------
        BYTE   W96
// 008   ----------------------------------------
        BYTE   W44
        BYTE   W03
        BYTE           EOT
        BYTE   W30
        BYTE   W01
        BYTE           N11     Fn3   v124
        BYTE   W14
        BYTE           N07     Fn3   v104
        BYTE   W04
// 009   ----------------------------------------
        BYTE   W07
        BYTE           N04     Fn3   v100
        BYTE   W09
        BYTE                   Fn3   v088
        BYTE   W08
        BYTE           TIE     Fn3   v100
        BYTE   W72
// 010   ----------------------------------------
        BYTE   W44
        BYTE   W03
        BYTE           EOT
        BYTE   W32
        BYTE   W03
        BYTE           N09     Fn3   v080
        BYTE   W14
// 011   ----------------------------------------
        BYTE   W17
        BYTE           N11     En3   v100
        BYTE   W22
        BYTE                   Gn3
        BYTE   W18
        BYTE                   Fn3   v084
        BYTE   W17
        BYTE           TIE     En3   v096
        BYTE   W22
// 012   ----------------------------------------
        BYTE   W92
        BYTE   W03
        BYTE           EOT
        BYTE   W01
// 013   ----------------------------------------
        BYTE   W52
        BYTE   W01
        BYTE           N15     Fn3
        BYTE   W17
        BYTE           N09     En3
        BYTE   W24
        BYTE   W02
// 014   ----------------------------------------
        BYTE   W96
// 015   ----------------------------------------
        BYTE   W44
        BYTE   W01
        BYTE           N05
        BYTE   W11
        BYTE           N04     En3   v092
        BYTE   W12
        BYTE           N02     En3   v072
        BYTE   W28
// 016   ----------------------------------------
        BYTE   W96
// 017   ----------------------------------------
        BYTE   W80
        BYTE   W02
        BYTE           TIE     En3   v092
        BYTE   W14
// 018   ----------------------------------------
        BYTE   W96
// 019   ----------------------------------------
        BYTE   W78
        BYTE   W01
        BYTE           EOT
        BYTE   W17
// 020   ----------------------------------------
        BYTE   W13
        BYTE           N04     En3   v116
        BYTE   W04
        BYTE           N06     Fn3
        BYTE   W04
        BYTE           N18     Gn3   v124
        BYTE   W19
        BYTE           N11     Fn3   v100
        BYTE   W12
        BYTE           N10     En3   v116
        BYTE   W10
        BYTE           N11     Fn3
        BYTE   W32
        BYTE   W02
// 021   ----------------------------------------
        BYTE   W01
        BYTE           N92     En3   v096
        BYTE   W92
        BYTE   W03
// 022   ----------------------------------------
        BYTE   W28
        BYTE           N52     En3   v092
        BYTE   W68
// 023   ----------------------------------------
        BYTE   W24
        BYTE   W02
        BYTE           N05     En3   v116
        BYTE   W04
        BYTE           N04     Fn3   v104
        BYTE   W05
        BYTE           N14     Gn3   v127
        BYTE   W16
        BYTE           N05     Fn3   v124
        BYTE   W10
        BYTE           N04     En3   v127
        BYTE   W07
        BYTE           N03     Fn3
        BYTE   W08
        BYTE           N07     En3   v124
        BYTE   W12
        BYTE           N04     En3   v104
        BYTE   W08
// 024   ----------------------------------------
        BYTE   W04
        BYTE                   En3   v096
        BYTE           N05     Fs3   v124
        BYTE   W12
        BYTE           N03     En3
        BYTE   W16
        BYTE           N12     Fn3   v127
        BYTE   W15
        BYTE           N06     Fn3   v104
        BYTE   W11
        BYTE           N84     Fn3   v100
        BYTE   W36
        BYTE   W02
// 025   ----------------------------------------
        BYTE   W96
// 026   ----------------------------------------
        BYTE   W03
        BYTE           N24     Fn3   v072
        BYTE   W30
        BYTE   W01
        BYTE           N04     Fn3   v100
        BYTE   W08
        BYTE                   Fn3
        BYTE   W08
        BYTE           N56     Fn3   v124
        BYTE   W44
        BYTE   W02
// 027   ----------------------------------------
        BYTE   W32
        BYTE   W01
        BYTE           N09     Fn3   v104
        BYTE   W36
        BYTE   W01
        BYTE           N14     En3   v116
        BYTE   W15
        BYTE           N12     Fn3
        BYTE   W11
// 028   ----------------------------------------
        BYTE   W21
        BYTE           N10     En3   v127
        BYTE   W36
        BYTE   W02
        BYTE           N09     En3   v100
        BYTE   W36
        BYTE   W01
// 029   ----------------------------------------
        BYTE   W96
// 030   ----------------------------------------
        BYTE   W96
// 031   ----------------------------------------
        BYTE   W96
// 032   ----------------------------------------
        BYTE   W96
// 033   ----------------------------------------
        BYTE   W07
        BYTE           N20     Fn3   v072
        BYTE   W22
        BYTE           N15     En3   v127
        BYTE   W60
        BYTE   W02
        BYTE           N68     En3   v096
        BYTE   W05
// 034   ----------------------------------------
        BYTE   W96
// 035   ----------------------------------------
        BYTE   W96
// 036   ----------------------------------------
        BYTE   W96
// 037   ----------------------------------------
        BYTE   W96
// 038   ----------------------------------------
        BYTE   W96
// 039   ----------------------------------------
        BYTE   W96
// 040   ----------------------------------------
        BYTE   W72
        BYTE   GoTo
         POIN2  lang2requiem_4_LOOP
        BYTE   FINE

//****************** Track 5 (Midi-Chn.5) ******************//

lang2requiem_5:
        BYTE   KEYSH   lang2requiem_key+0
// 000   ----------------------------------------
lang2requiem_5_LOOP:
        BYTE           VOICE   0
        BYTE           VOL     50
        BYTE           PAN     c_v-12
        BYTE           TIE     En2   v127
        BYTE   W96
// 001   ----------------------------------------
        BYTE   W13
        BYTE           EOT
        BYTE   W80
        BYTE   W03
// 002   ----------------------------------------
        BYTE   W10
        BYTE           TIE     En2   v092
        BYTE   W84
        BYTE   W02
// 003   ----------------------------------------
        BYTE   W96
// 004   ----------------------------------------
        BYTE           EOT
        BYTE   W18
        BYTE           TIE     En2   v127
        BYTE   W78
// 005   ----------------------------------------
        BYTE   W21
        BYTE           EOT
        BYTE   W60
        BYTE   W02
        BYTE           N44     En2   v124
        BYTE   W13
// 006   ----------------------------------------
        BYTE   W36
        BYTE   W03
        BYTE           TIE     Fn2
        BYTE   W56
        BYTE   W01
// 007   ----------------------------------------
        BYTE   W96
// 008   ----------------------------------------
        BYTE   W44
        BYTE   W03
        BYTE           EOT
        BYTE   W48
        BYTE   W01
// 009   ----------------------------------------
        BYTE   W96
// 010   ----------------------------------------
        BYTE   W96
// 011   ----------------------------------------
        BYTE   W17
        BYTE           N20     En2   v096
        BYTE   W22
        BYTE           N06     En2   v088
        BYTE   W17
        BYTE           N09
        BYTE   W18
        BYTE           TIE     En2   v084
        BYTE   W22
// 012   ----------------------------------------
        BYTE   W96
// 013   ----------------------------------------
        BYTE           EOT
        BYTE   W96
// 014   ----------------------------------------
        BYTE   W96
// 015   ----------------------------------------
        BYTE   W28
        BYTE           TIE     En2   v116
        BYTE   W03
        BYTE           N03     Gs2   v080
        BYTE   W64
        BYTE   W01
// 016   ----------------------------------------
        BYTE   W96
// 017   ----------------------------------------
        BYTE           EOT     En2
        BYTE   W60
        BYTE   W02
        BYTE           TIE     En2   v096
        BYTE   W32
        BYTE   W02
// 018   ----------------------------------------
        BYTE   W96
// 019   ----------------------------------------
        BYTE   W96
// 020   ----------------------------------------
        BYTE   W01
        BYTE           EOT
        BYTE   W92
        BYTE   W03
// 021   ----------------------------------------
        BYTE           N92     En2   v080
        BYTE   W96
// 022   ----------------------------------------
        BYTE   W10
        BYTE           TIE     En2   v127
        BYTE   W84
        BYTE   W02
// 023   ----------------------------------------
        BYTE   W16
        BYTE           EOT
        BYTE   W54
        BYTE   W01
        BYTE           N40     En2   v124
        BYTE   W24
        BYTE   W01
// 024   ----------------------------------------
        BYTE   W23
        BYTE           TIE     Fn2
        BYTE   W72
        BYTE   W01
// 025   ----------------------------------------
        BYTE   W44
        BYTE   W03
        BYTE           EOT
        BYTE   W48
        BYTE   W01
// 026   ----------------------------------------
        BYTE   W96
// 027   ----------------------------------------
        BYTE   W96
// 028   ----------------------------------------
        BYTE   W15
        BYTE           N68     En2   v096
        BYTE   W80
        BYTE   W01
// 029   ----------------------------------------
        BYTE   W48
        BYTE   W01
        BYTE           N32     Gn2   v124
        BYTE   W32
        BYTE   W01
        BYTE           N22     Fn2   v100
        BYTE   W14
// 030   ----------------------------------------
        BYTE   W08
        BYTE           N84     Gn2   v088
        BYTE   W88
// 031   ----------------------------------------
        BYTE   W14
        BYTE           N01     En2   v056
        BYTE   W05
        BYTE           TIE     Fn2   v124
        BYTE   W76
        BYTE   W01
// 032   ----------------------------------------
        BYTE   W44
        BYTE   W03
        BYTE           EOT
        BYTE   W48
        BYTE   W01
// 033   ----------------------------------------
        BYTE   W68
        BYTE           N90     En2   v104
        BYTE   W28
// 034   ----------------------------------------
        BYTE   W88
        BYTE           N30     Gn2   v127
        BYTE   W08
// 035   ----------------------------------------
        BYTE   W28
        BYTE   W01
        BYTE           N66     Gn2   v096
        BYTE   W66
        BYTE   W01
// 036   ----------------------------------------
        BYTE   W56
        BYTE   W02
        BYTE           TIE     Fn2   v116
        BYTE   W36
        BYTE   W02
// 037   ----------------------------------------
        BYTE   W96
// 038   ----------------------------------------
        BYTE   W96
// 039   ----------------------------------------
        BYTE   W48
        BYTE           EOT
        BYTE   W48
// 040   ----------------------------------------
        BYTE   W72
        BYTE   GoTo
         POIN2  lang2requiem_5_LOOP
        BYTE   FINE

//****************** Track 6 (Midi-Chn.6) ******************//

lang2requiem_6:
        BYTE   KEYSH   lang2requiem_key+0
// 000   ----------------------------------------
lang2requiem_6_LOOP:
        BYTE           VOICE   0
        BYTE           VOL     50
        BYTE           PAN     c_v-24
        BYTE   W96
// 001   ----------------------------------------
        BYTE   W28
        BYTE   W01
        BYTE           N56     Dn2   v116
        BYTE   W66
        BYTE   W01
// 002   ----------------------------------------
        BYTE   W96
// 003   ----------------------------------------
        BYTE   W96
// 004   ----------------------------------------
        BYTE   W96
// 005   ----------------------------------------
        BYTE   W42
        BYTE           N32     Dn2   v124
        BYTE   W54
// 006   ----------------------------------------
        BYTE   W96
// 007   ----------------------------------------
        BYTE   W96
// 008   ----------------------------------------
        BYTE   W72
        BYTE   W01
        BYTE           TIE     Dn2   v116
        BYTE   W23
// 009   ----------------------------------------
        BYTE   W96
// 010   ----------------------------------------
        BYTE   W48
        BYTE           EOT
        BYTE   W48
// 011   ----------------------------------------
        BYTE   W96
// 012   ----------------------------------------
        BYTE   W96
// 013   ----------------------------------------
        BYTE   W48
        BYTE   W03
        BYTE           N40     Dn2   v100
        BYTE   W44
        BYTE   W01
// 014   ----------------------------------------
        BYTE   W05
        BYTE           N32     Dn2   v104
        BYTE   W42
        BYTE           N48     Dn2   v096
        BYTE   W48
        BYTE   W01
// 015   ----------------------------------------
        BYTE   W20
        BYTE           TIE     Bn1   v116
        BYTE   W76
// 016   ----------------------------------------
        BYTE   W92
        BYTE   W03
        BYTE           EOT
        BYTE   W01
// 017   ----------------------------------------
        BYTE   W60
        BYTE   W02
        BYTE           N28     Cn2   v104
        BYTE   W32
        BYTE   W02
// 018   ----------------------------------------
        BYTE   W96
// 019   ----------------------------------------
        BYTE   W96
// 020   ----------------------------------------
        BYTE   W21
        BYTE           N36     Dn2   v124
        BYTE   W72
        BYTE   W03
// 021   ----------------------------------------
        BYTE   W96
// 022   ----------------------------------------
        BYTE   W96
// 023   ----------------------------------------
        BYTE   W32
        BYTE   W02
        BYTE           N28     Dn2   v127
        BYTE   W60
        BYTE   W02
// 024   ----------------------------------------
        BYTE   W96
// 025   ----------------------------------------
        BYTE   W96
// 026   ----------------------------------------
        BYTE           TIE     Dn2   v084
        BYTE   W96
// 027   ----------------------------------------
        BYTE   W13
        BYTE           EOT
        BYTE   W80
        BYTE   W03
// 028   ----------------------------------------
        BYTE   W96
// 029   ----------------------------------------
        BYTE   W96
// 030   ----------------------------------------
        BYTE   W96
// 031   ----------------------------------------
        BYTE   W11
        BYTE           TIE     Dn2   v127
        BYTE   W84
        BYTE   W01
// 032   ----------------------------------------
        BYTE   W44
        BYTE   W03
        BYTE           EOT
        BYTE   W48
        BYTE   W01
// 033   ----------------------------------------
        BYTE   W96
// 034   ----------------------------------------
        BYTE   W84
        BYTE   W03
        BYTE           TIE     Dn2   v100
        BYTE   W09
// 035   ----------------------------------------
        BYTE   W92
        BYTE   W03
        BYTE           EOT
        BYTE   W01
// 036   ----------------------------------------
        BYTE   W54
        BYTE   W01
        BYTE           TIE     Cn2   v116
        BYTE   W40
        BYTE   W01
// 037   ----------------------------------------
        BYTE   W96
// 038   ----------------------------------------
        BYTE   W96
// 039   ----------------------------------------
        BYTE   W44
        BYTE   W03
        BYTE           EOT
        BYTE   W48
        BYTE   W01
// 040   ----------------------------------------
        BYTE   W72
        BYTE   GoTo
         POIN2  lang2requiem_6_LOOP
        BYTE   FINE

//****************** Track 7 (Midi-Chn.7) ******************//

lang2requiem_7:
        BYTE   KEYSH   lang2requiem_key+0
// 000   ----------------------------------------
lang2requiem_7_LOOP:
        BYTE           VOICE   0
        BYTE           VOL     50
        BYTE           PAN     c_v-36
        BYTE           TIE     An1   v127
        BYTE   W96
// 001   ----------------------------------------
        BYTE   W11
        BYTE           EOT
        BYTE   W84
        BYTE   W01
// 002   ----------------------------------------
        BYTE   W02
        BYTE           TIE     An1   v104
        BYTE   W92
        BYTE   W02
// 003   ----------------------------------------
        BYTE   W92
        BYTE   W03
        BYTE           EOT
        BYTE   W01
// 004   ----------------------------------------
        BYTE   W17
        BYTE           TIE     An1   v127
        BYTE   W78
        BYTE   W01
// 005   ----------------------------------------
        BYTE   W19
        BYTE           EOT
        BYTE   W76
        BYTE   W01
// 006   ----------------------------------------
        BYTE   W96
// 007   ----------------------------------------
        BYTE   W96
// 008   ----------------------------------------
        BYTE   W96
// 009   ----------------------------------------
        BYTE   W96
// 010   ----------------------------------------
        BYTE   W96
// 011   ----------------------------------------
        BYTE   W17
        BYTE           N19     An1   v100
        BYTE   W22
        BYTE           N08     An1   v096
        BYTE   W18
        BYTE           N07     An1   v092
        BYTE   W17
        BYTE           TIE     An1   v088
        BYTE   W22
// 012   ----------------------------------------
        BYTE   W96
// 013   ----------------------------------------
        BYTE           EOT
        BYTE   W96
// 014   ----------------------------------------
        BYTE   W96
// 015   ----------------------------------------
        BYTE   W09
        BYTE           TIE     En1   v127
        BYTE   W84
        BYTE   W03
// 016   ----------------------------------------
        BYTE   W96
// 017   ----------------------------------------
        BYTE           EOT
        BYTE   W60
        BYTE   W01
        BYTE           TIE     An1   v100
        BYTE   W32
        BYTE   W03
// 018   ----------------------------------------
        BYTE   W96
// 019   ----------------------------------------
        BYTE   W96
// 020   ----------------------------------------
        BYTE           EOT
        BYTE   W90
        BYTE   W01
        BYTE           TIE     An1   v088
        BYTE   W05
// 021   ----------------------------------------
        BYTE   W92
        BYTE   W03
        BYTE           EOT
        BYTE   W01
// 022   ----------------------------------------
        BYTE   W10
        BYTE           TIE     An1   v127
        BYTE   W84
        BYTE   W02
// 023   ----------------------------------------
        BYTE   W15
        BYTE           EOT
        BYTE   W80
        BYTE   W01
// 024   ----------------------------------------
        BYTE   W96
// 025   ----------------------------------------
        BYTE   W96
// 026   ----------------------------------------
        BYTE   W96
// 027   ----------------------------------------
        BYTE   W96
// 028   ----------------------------------------
        BYTE   W11
        BYTE           TIE     An1   v100
        BYTE   W84
        BYTE   W01
// 029   ----------------------------------------
        BYTE   W48
        BYTE   W01
        BYTE           EOT
        BYTE   W44
        BYTE   W03
// 030   ----------------------------------------
        BYTE   W96
// 031   ----------------------------------------
        BYTE   W96
// 032   ----------------------------------------
        BYTE   W96
// 033   ----------------------------------------
        BYTE   W60
        BYTE   W02
        BYTE           TIE     An1   v116
        BYTE   W32
        BYTE   W02
// 034   ----------------------------------------
        BYTE   W64
        BYTE           EOT
        BYTE   W19
        BYTE           TIE     Gn1   v096
        BYTE   W13
// 035   ----------------------------------------
        BYTE   W92
        BYTE   W03
        BYTE           EOT
        BYTE   W01
// 036   ----------------------------------------
        BYTE   W52
        BYTE           TIE     Fn1   v104
        BYTE   W44
// 037   ----------------------------------------
        BYTE   W96
// 038   ----------------------------------------
        BYTE   W96
// 039   ----------------------------------------
        BYTE   W44
        BYTE   W03
        BYTE           EOT
        BYTE   W48
        BYTE   W01
// 040   ----------------------------------------
        BYTE   W72
        BYTE   GoTo
         POIN2  lang2requiem_7_LOOP
        BYTE   FINE


//********************** End of Song ***********************//

        ALIGN 4
lang2requiem:
        BYTE   8                       // Num Tracks
        BYTE   0                       // Unknown
        BYTE   lang2requiem_pri        // Priority
        BYTE   lang2requiem_rev        // Reverb

        POIN2   lang2requiem_grp       

        POIN2   lang2requiem_0
        POIN2   lang2requiem_1
        POIN2   lang2requiem_2
        POIN2   lang2requiem_3
        POIN2   lang2requiem_4
        POIN2   lang2requiem_5
        POIN2   lang2requiem_6
        POIN2   lang2requiem_7

        
