//Event file generated from Sappy .s format.
        #include "MPlayDef.event"

        #define    mmlataplacenobodyknows_grp  MusicVoices
        #define    mmlataplacenobodyknows_pri  0
        #define    mmlataplacenobodyknows_rev  0x80
        #define    mmlataplacenobodyknows_key  0

        // .rodata
        // mmlataplacenobodyknows
        ALIGN 4

//****************** Track 0 (Midi-Chn.0) ******************//

mmlataplacenobodyknows_0:
        BYTE   KEYSH   mmlataplacenobodyknows_key+0
// 000   ----------------------------------------
        BYTE   TEMPO   120/2
mmlataplacenobodyknows_0_LOOP:
        BYTE           VOICE   50
        BYTE           VOL     34
        BYTE           PAN     c_v+32
        BYTE           N96     Cn1   v110
        BYTE   W96
// 001   ----------------------------------------
        BYTE                   Dn1
        BYTE   W96
// 002   ----------------------------------------
        BYTE                   Ds1
        BYTE   W96
// 003   ----------------------------------------
        BYTE                   Dn1
        BYTE   W96
// 004   ----------------------------------------
        BYTE                   Cn1
        BYTE   W96
// 005   ----------------------------------------
        BYTE                   Gn0
        BYTE   W96
// 006   ----------------------------------------
        BYTE                   Gs0
        BYTE   W96
// 007   ----------------------------------------
        BYTE                   Gn0
        BYTE   W96
// 008   ----------------------------------------
        BYTE                   Cn1
        BYTE   W96
// 009   ----------------------------------------
        BYTE                   Dn1
        BYTE   W96
// 010   ----------------------------------------
        BYTE                   Ds1
        BYTE   W96
// 011   ----------------------------------------
        BYTE                   Dn1
        BYTE   W96
// 012   ----------------------------------------
        BYTE                   Cn1
        BYTE   W96
// 013   ----------------------------------------
        BYTE                   Gn0
        BYTE   W96
// 014   ----------------------------------------
        BYTE                   Gs0
        BYTE   W96
// 015   ----------------------------------------
        BYTE                   Gn0
        BYTE   W96
// 016   ----------------------------------------
        BYTE                   Cn1
        BYTE   W96
// 017   ----------------------------------------
        BYTE                   Dn1
        BYTE   W96
// 018   ----------------------------------------
        BYTE                   Ds1
        BYTE   W96
// 019   ----------------------------------------
        BYTE                   Dn1
        BYTE   W96
// 020   ----------------------------------------
        BYTE                   Cn1
        BYTE   W96
// 021   ----------------------------------------
        BYTE                   Gn0
        BYTE   W96
// 022   ----------------------------------------
        BYTE                   Gs0
        BYTE   W96
// 023   ----------------------------------------
        BYTE                   Gn0
        BYTE   W96
// 024   ----------------------------------------
        BYTE                   Cn1
        BYTE   W96
// 025   ----------------------------------------
        BYTE                   Dn1
        BYTE   W96
// 026   ----------------------------------------
        BYTE                   Ds1
        BYTE   W96
// 027   ----------------------------------------
        BYTE                   Dn1
        BYTE   W96
// 028   ----------------------------------------
        BYTE                   Cn1
        BYTE   W96
// 029   ----------------------------------------
        BYTE                   Gn0
        BYTE   W96
// 030   ----------------------------------------
        BYTE                   Gs0
        BYTE   W96
// 031   ----------------------------------------
        BYTE                   Gn0
        BYTE   W96
// 032   ----------------------------------------
        BYTE   GoTo
         POIN2  mmlataplacenobodyknows_0_LOOP
        BYTE   FINE

//****************** Track 1 (Midi-Chn.1) ******************//

mmlataplacenobodyknows_1:
        BYTE   KEYSH   mmlataplacenobodyknows_key+0
// 000   ----------------------------------------
mmlataplacenobodyknows_1_LOOP:
        BYTE           VOICE   47
        BYTE           VOL     42
        BYTE           N96     Cn2   v127
        BYTE           N48     Cn3   v080
        BYTE   W96
// 001   ----------------------------------------
        BYTE   W96
// 002   ----------------------------------------
        BYTE   W96
// 003   ----------------------------------------
        BYTE   W96
// 004   ----------------------------------------
        BYTE   W96
// 005   ----------------------------------------
        BYTE   W96
// 006   ----------------------------------------
        BYTE   W96
// 007   ----------------------------------------
        BYTE   W96
// 008   ----------------------------------------
mmlataplacenobodyknows_1_8:
        BYTE           N96     Cn2   v127
        BYTE           N48     Cn3   v080
        BYTE   W96
        BYTE   PEND
// 009   ----------------------------------------
        BYTE   W96
// 010   ----------------------------------------
        BYTE   W96
// 011   ----------------------------------------
        BYTE   W96
// 012   ----------------------------------------
        BYTE   W96
// 013   ----------------------------------------
        BYTE   W96
// 014   ----------------------------------------
        BYTE   W96
// 015   ----------------------------------------
        BYTE   W96
// 016   ----------------------------------------
        BYTE   PATT
         POIN2  mmlataplacenobodyknows_1_8
// 017   ----------------------------------------
        BYTE   W96
// 018   ----------------------------------------
        BYTE   W96
// 019   ----------------------------------------
        BYTE   W96
// 020   ----------------------------------------
        BYTE   W96
// 021   ----------------------------------------
        BYTE   W96
// 022   ----------------------------------------
        BYTE   W96
// 023   ----------------------------------------
        BYTE   W96
// 024   ----------------------------------------
        BYTE   PATT
         POIN2  mmlataplacenobodyknows_1_8
// 025   ----------------------------------------
        BYTE   W96
// 026   ----------------------------------------
        BYTE   W96
// 027   ----------------------------------------
        BYTE   W96
// 028   ----------------------------------------
        BYTE   W96
// 029   ----------------------------------------
        BYTE   W96
// 030   ----------------------------------------
        BYTE   W96
// 031   ----------------------------------------
        BYTE   W84
        BYTE           N12     Gn2   v080
        BYTE   W12
// 032   ----------------------------------------
        BYTE   GoTo
         POIN2  mmlataplacenobodyknows_1_LOOP
        BYTE   FINE

//****************** Track 2 (Midi-Chn.2) ******************//

mmlataplacenobodyknows_2:
        BYTE   KEYSH   mmlataplacenobodyknows_key+0
// 000   ----------------------------------------
mmlataplacenobodyknows_2_LOOP:
        BYTE           VOICE   41
        BYTE           VOL     48
        BYTE   W48
        BYTE           N48     Ds3   v092
        BYTE           N48     Gn3
        BYTE   W48
// 001   ----------------------------------------
mmlataplacenobodyknows_2_1:
        BYTE           N48     Dn3   v092
        BYTE           N48     Fn3
        BYTE   W48
        BYTE                   Bn2
        BYTE           N48     Dn3
        BYTE   W48
        BYTE   PEND
// 002   ----------------------------------------
mmlataplacenobodyknows_2_2:
        BYTE           N48     Gn2   v092
        BYTE           N48     Cn3
        BYTE   W48
        BYTE                   Ds3
        BYTE           N48     Gn3
        BYTE   W48
        BYTE   PEND
// 003   ----------------------------------------
mmlataplacenobodyknows_2_3:
        BYTE           N48     Fn3   v092
        BYTE           N48     Gs3
        BYTE   W48
        BYTE                   Dn3
        BYTE           N48     Bn3
        BYTE   W48
        BYTE   PEND
// 004   ----------------------------------------
mmlataplacenobodyknows_2_4:
        BYTE           N48     Ds3   v092
        BYTE           N48     Cn4
        BYTE   W48
        BYTE                   Gn3
        BYTE           N48     Ds4
        BYTE   W48
        BYTE   PEND
// 005   ----------------------------------------
mmlataplacenobodyknows_2_5:
        BYTE           N48     Fn3   v092
        BYTE           N48     Dn4
        BYTE   W48
        BYTE                   Gs3
        BYTE           N48     Fn4
        BYTE   W48
        BYTE   PEND
// 006   ----------------------------------------
mmlataplacenobodyknows_2_6:
        BYTE           N48     Gn3   v092
        BYTE           N48     Ds4
        BYTE   W48
        BYTE                   Cn4
        BYTE           N48     Gs4
        BYTE   W48
        BYTE   PEND
// 007   ----------------------------------------
mmlataplacenobodyknows_2_7:
        BYTE           N48     Bn3   v092
        BYTE           N48     Gn4
        BYTE   W48
        BYTE                   Bn2
        BYTE           N48     Gn3
        BYTE   W48
        BYTE   PEND
// 008   ----------------------------------------
mmlataplacenobodyknows_2_8:
        BYTE   W48
        BYTE           N48     Ds3   v092
        BYTE           N48     Gn3
        BYTE   W48
        BYTE   PEND
// 009   ----------------------------------------
        BYTE   PATT
         POIN2  mmlataplacenobodyknows_2_1
// 010   ----------------------------------------
        BYTE   PATT
         POIN2  mmlataplacenobodyknows_2_2
// 011   ----------------------------------------
        BYTE   PATT
         POIN2  mmlataplacenobodyknows_2_3
// 012   ----------------------------------------
        BYTE   PATT
         POIN2  mmlataplacenobodyknows_2_4
// 013   ----------------------------------------
        BYTE   PATT
         POIN2  mmlataplacenobodyknows_2_5
// 014   ----------------------------------------
        BYTE   PATT
         POIN2  mmlataplacenobodyknows_2_6
// 015   ----------------------------------------
        BYTE   PATT
         POIN2  mmlataplacenobodyknows_2_7
// 016   ----------------------------------------
        BYTE   PATT
         POIN2  mmlataplacenobodyknows_2_8
// 017   ----------------------------------------
        BYTE   PATT
         POIN2  mmlataplacenobodyknows_2_1
// 018   ----------------------------------------
        BYTE   PATT
         POIN2  mmlataplacenobodyknows_2_2
// 019   ----------------------------------------
        BYTE   PATT
         POIN2  mmlataplacenobodyknows_2_3
// 020   ----------------------------------------
        BYTE   PATT
         POIN2  mmlataplacenobodyknows_2_4
// 021   ----------------------------------------
        BYTE   PATT
         POIN2  mmlataplacenobodyknows_2_5
// 022   ----------------------------------------
        BYTE   PATT
         POIN2  mmlataplacenobodyknows_2_6
// 023   ----------------------------------------
        BYTE   PATT
         POIN2  mmlataplacenobodyknows_2_7
// 024   ----------------------------------------
        BYTE   PATT
         POIN2  mmlataplacenobodyknows_2_8
// 025   ----------------------------------------
        BYTE   PATT
         POIN2  mmlataplacenobodyknows_2_1
// 026   ----------------------------------------
        BYTE   PATT
         POIN2  mmlataplacenobodyknows_2_2
// 027   ----------------------------------------
        BYTE   PATT
         POIN2  mmlataplacenobodyknows_2_3
// 028   ----------------------------------------
        BYTE   PATT
         POIN2  mmlataplacenobodyknows_2_4
// 029   ----------------------------------------
        BYTE   PATT
         POIN2  mmlataplacenobodyknows_2_5
// 030   ----------------------------------------
        BYTE   PATT
         POIN2  mmlataplacenobodyknows_2_6
// 031   ----------------------------------------
        BYTE   PATT
         POIN2  mmlataplacenobodyknows_2_7
// 032   ----------------------------------------
        BYTE   GoTo
         POIN2  mmlataplacenobodyknows_2_LOOP
        BYTE   FINE

//****************** Track 3 (Midi-Chn.3) ******************//

mmlataplacenobodyknows_3:
        BYTE   KEYSH   mmlataplacenobodyknows_key+0
// 000   ----------------------------------------
mmlataplacenobodyknows_3_LOOP:
        BYTE           VOICE   34
        BYTE           VOL     28
        BYTE           PAN     c_v-30
        BYTE           N06     Cn2   v110
        BYTE   W12
        BYTE                   Cn2
        BYTE   W12
        BYTE                   Cn2
        BYTE   W12
        BYTE                   Cn2
        BYTE   W12
        BYTE                   Cn2
        BYTE   W12
        BYTE                   Cn2
        BYTE   W12
        BYTE                   Cn2
        BYTE   W12
        BYTE                   Cn2
        BYTE   W12
// 001   ----------------------------------------
mmlataplacenobodyknows_3_1:
        BYTE           N06     Dn2   v110
        BYTE   W12
        BYTE                   Dn2
        BYTE   W12
        BYTE                   Dn2
        BYTE   W12
        BYTE                   Dn2
        BYTE   W12
        BYTE                   Dn2
        BYTE   W12
        BYTE                   Dn2
        BYTE   W12
        BYTE                   Dn2
        BYTE   W12
        BYTE                   Dn2
        BYTE   W12
        BYTE   PEND
// 002   ----------------------------------------
mmlataplacenobodyknows_3_2:
        BYTE           N06     Ds2   v110
        BYTE   W12
        BYTE                   Ds2
        BYTE   W12
        BYTE                   Ds2
        BYTE   W12
        BYTE                   Ds2
        BYTE   W12
        BYTE                   Ds2
        BYTE   W12
        BYTE                   Ds2
        BYTE   W12
        BYTE                   Ds2
        BYTE   W12
        BYTE                   Ds2
        BYTE   W12
        BYTE   PEND
// 003   ----------------------------------------
        BYTE   PATT
         POIN2  mmlataplacenobodyknows_3_1
// 004   ----------------------------------------
mmlataplacenobodyknows_3_4:
        BYTE           N06     Cn2   v110
        BYTE   W12
        BYTE                   Cn2
        BYTE   W12
        BYTE                   Cn2
        BYTE   W12
        BYTE                   Cn2
        BYTE   W12
        BYTE                   Cn2
        BYTE   W12
        BYTE                   Cn2
        BYTE   W12
        BYTE                   Cn2
        BYTE   W12
        BYTE                   Cn2
        BYTE   W12
        BYTE   PEND
// 005   ----------------------------------------
mmlataplacenobodyknows_3_5:
        BYTE           N06     Gn1   v110
        BYTE   W12
        BYTE                   Gn1
        BYTE   W12
        BYTE                   Gn1
        BYTE   W12
        BYTE                   Gn1
        BYTE   W12
        BYTE                   Gn1
        BYTE   W12
        BYTE                   Gn1
        BYTE   W12
        BYTE                   Gn1
        BYTE   W12
        BYTE                   Gn1
        BYTE   W12
        BYTE   PEND
// 006   ----------------------------------------
mmlataplacenobodyknows_3_6:
        BYTE           N06     Gs1   v110
        BYTE   W12
        BYTE                   Gs1
        BYTE   W12
        BYTE                   Gs1
        BYTE   W12
        BYTE                   Gs1
        BYTE   W12
        BYTE                   Gs1
        BYTE   W12
        BYTE                   Gs1
        BYTE   W12
        BYTE                   Gs1
        BYTE   W12
        BYTE                   Gs1
        BYTE   W12
        BYTE   PEND
// 007   ----------------------------------------
        BYTE   PATT
         POIN2  mmlataplacenobodyknows_3_5
// 008   ----------------------------------------
        BYTE   PATT
         POIN2  mmlataplacenobodyknows_3_4
// 009   ----------------------------------------
        BYTE   PATT
         POIN2  mmlataplacenobodyknows_3_1
// 010   ----------------------------------------
        BYTE   PATT
         POIN2  mmlataplacenobodyknows_3_2
// 011   ----------------------------------------
        BYTE   PATT
         POIN2  mmlataplacenobodyknows_3_1
// 012   ----------------------------------------
        BYTE   PATT
         POIN2  mmlataplacenobodyknows_3_4
// 013   ----------------------------------------
        BYTE   PATT
         POIN2  mmlataplacenobodyknows_3_5
// 014   ----------------------------------------
        BYTE   PATT
         POIN2  mmlataplacenobodyknows_3_6
// 015   ----------------------------------------
        BYTE   PATT
         POIN2  mmlataplacenobodyknows_3_5
// 016   ----------------------------------------
        BYTE   PATT
         POIN2  mmlataplacenobodyknows_3_4
// 017   ----------------------------------------
        BYTE   PATT
         POIN2  mmlataplacenobodyknows_3_1
// 018   ----------------------------------------
        BYTE   PATT
         POIN2  mmlataplacenobodyknows_3_2
// 019   ----------------------------------------
        BYTE   PATT
         POIN2  mmlataplacenobodyknows_3_1
// 020   ----------------------------------------
        BYTE   PATT
         POIN2  mmlataplacenobodyknows_3_4
// 021   ----------------------------------------
        BYTE   PATT
         POIN2  mmlataplacenobodyknows_3_5
// 022   ----------------------------------------
        BYTE   PATT
         POIN2  mmlataplacenobodyknows_3_6
// 023   ----------------------------------------
        BYTE   PATT
         POIN2  mmlataplacenobodyknows_3_5
// 024   ----------------------------------------
        BYTE   PATT
         POIN2  mmlataplacenobodyknows_3_4
// 025   ----------------------------------------
        BYTE   PATT
         POIN2  mmlataplacenobodyknows_3_1
// 026   ----------------------------------------
        BYTE   PATT
         POIN2  mmlataplacenobodyknows_3_2
// 027   ----------------------------------------
        BYTE   PATT
         POIN2  mmlataplacenobodyknows_3_1
// 028   ----------------------------------------
        BYTE   PATT
         POIN2  mmlataplacenobodyknows_3_4
// 029   ----------------------------------------
        BYTE   PATT
         POIN2  mmlataplacenobodyknows_3_5
// 030   ----------------------------------------
        BYTE   PATT
         POIN2  mmlataplacenobodyknows_3_6
// 031   ----------------------------------------
        BYTE   PATT
         POIN2  mmlataplacenobodyknows_3_5
// 032   ----------------------------------------
        BYTE   GoTo
         POIN2  mmlataplacenobodyknows_3_LOOP
        BYTE   FINE

//****************** Track 4 (Midi-Chn.4) ******************//

mmlataplacenobodyknows_4:
        BYTE   KEYSH   mmlataplacenobodyknows_key+0
// 000   ----------------------------------------
mmlataplacenobodyknows_4_LOOP:
        BYTE           VOICE   55
        BYTE           VOL     42
        BYTE           PAN     c_v-16
        BYTE           N48     Cn3   v100
        BYTE   W96
// 001   ----------------------------------------
        BYTE   W96
// 002   ----------------------------------------
        BYTE   W96
// 003   ----------------------------------------
        BYTE   W96
// 004   ----------------------------------------
        BYTE   W96
// 005   ----------------------------------------
        BYTE   W96
// 006   ----------------------------------------
        BYTE   W96
// 007   ----------------------------------------
        BYTE   W96
// 008   ----------------------------------------
mmlataplacenobodyknows_4_8:
        BYTE           N48     Cn3   v100
        BYTE   W48
        BYTE           VOICE   48
        BYTE           N48     Gn4   v075
        BYTE   W48
        BYTE   PEND
// 009   ----------------------------------------
mmlataplacenobodyknows_4_9:
        BYTE           N48     Gs4   v075
        BYTE   W48
        BYTE                   Gn4
        BYTE   W48
        BYTE   PEND
// 010   ----------------------------------------
mmlataplacenobodyknows_4_10:
        BYTE           N48     Fn4   v075
        BYTE   W48
        BYTE                   Dn4
        BYTE   W48
        BYTE   PEND
// 011   ----------------------------------------
mmlataplacenobodyknows_4_11:
        BYTE           N48     Ds4   v075
        BYTE   W48
        BYTE                   Dn4
        BYTE   W48
        BYTE   PEND
// 012   ----------------------------------------
mmlataplacenobodyknows_4_12:
        BYTE           N48     Ds4   v075
        BYTE   W48
        BYTE                   Gn4
        BYTE   W48
        BYTE   PEND
// 013   ----------------------------------------
mmlataplacenobodyknows_4_13:
        BYTE           N48     Fn4   v075
        BYTE   W48
        BYTE                   Gs4
        BYTE   W48
        BYTE   PEND
// 014   ----------------------------------------
mmlataplacenobodyknows_4_14:
        BYTE           N48     Gn4   v075
        BYTE   W48
        BYTE                   Cn5
        BYTE   W48
        BYTE   PEND
// 015   ----------------------------------------
mmlataplacenobodyknows_4_15:
        BYTE           N48     Bn4   v075
        BYTE   W48
        BYTE                   Gn4
        BYTE   W48
        BYTE   PEND
// 016   ----------------------------------------
        BYTE           VOICE   55
        BYTE           N48     Cn3   v100
        BYTE   W96
// 017   ----------------------------------------
        BYTE   W96
// 018   ----------------------------------------
        BYTE   W96
// 019   ----------------------------------------
        BYTE   W96
// 020   ----------------------------------------
        BYTE   W96
// 021   ----------------------------------------
        BYTE   W96
// 022   ----------------------------------------
        BYTE   W96
// 023   ----------------------------------------
        BYTE   W96
// 024   ----------------------------------------
        BYTE   PATT
         POIN2  mmlataplacenobodyknows_4_8
// 025   ----------------------------------------
        BYTE   PATT
         POIN2  mmlataplacenobodyknows_4_9
// 026   ----------------------------------------
        BYTE   PATT
         POIN2  mmlataplacenobodyknows_4_10
// 027   ----------------------------------------
        BYTE   PATT
         POIN2  mmlataplacenobodyknows_4_11
// 028   ----------------------------------------
        BYTE   PATT
         POIN2  mmlataplacenobodyknows_4_12
// 029   ----------------------------------------
        BYTE   PATT
         POIN2  mmlataplacenobodyknows_4_13
// 030   ----------------------------------------
        BYTE   PATT
         POIN2  mmlataplacenobodyknows_4_14
// 031   ----------------------------------------
        BYTE   PATT
         POIN2  mmlataplacenobodyknows_4_15
// 032   ----------------------------------------
        BYTE           VOICE   55
        BYTE   GoTo
         POIN2  mmlataplacenobodyknows_4_LOOP
        BYTE   FINE

//****************** Track 5 (Midi-Chn.5) ******************//

mmlataplacenobodyknows_5:
        BYTE   KEYSH   mmlataplacenobodyknows_key+0
// 000   ----------------------------------------
mmlataplacenobodyknows_5_LOOP:
        BYTE           VOICE   41
        BYTE           VOL     28
        BYTE           PAN     c_v+16
        BYTE   W48
        BYTE           N06     Cn4   v092
        BYTE   W06
        BYTE                   Gn4
        BYTE   W06
        BYTE                   Cn5
        BYTE   W12
        BYTE           PAN     c_v-16
        BYTE           N06     Cn4   v060
        BYTE   W06
        BYTE                   Gn4
        BYTE   W06
        BYTE                   Cn5
        BYTE   W12
// 001   ----------------------------------------
mmlataplacenobodyknows_5_1:
        BYTE           PAN     c_v+48
        BYTE           N06     Cn4   v045
        BYTE   W06
        BYTE                   Gn4
        BYTE   W06
        BYTE                   Cn5
        BYTE   W12
        BYTE           PAN     c_v-48
        BYTE           N06     Cn4   v030
        BYTE   W06
        BYTE                   Gn4
        BYTE   W06
        BYTE                   Cn5
        BYTE   W60
        BYTE   PEND
// 002   ----------------------------------------
mmlataplacenobodyknows_5_2:
        BYTE   W48
        BYTE           PAN     c_v+16
        BYTE           N06     Cn4   v092
        BYTE   W06
        BYTE                   Gn4
        BYTE   W06
        BYTE                   Cn5
        BYTE   W12
        BYTE           PAN     c_v-16
        BYTE           N06     Cn4   v060
        BYTE   W06
        BYTE                   Gn4
        BYTE   W06
        BYTE                   Cn5
        BYTE   W12
        BYTE   PEND
// 003   ----------------------------------------
        BYTE   PATT
         POIN2  mmlataplacenobodyknows_5_1
// 004   ----------------------------------------
        BYTE   PATT
         POIN2  mmlataplacenobodyknows_5_2
// 005   ----------------------------------------
        BYTE   PATT
         POIN2  mmlataplacenobodyknows_5_1
// 006   ----------------------------------------
        BYTE   PATT
         POIN2  mmlataplacenobodyknows_5_2
// 007   ----------------------------------------
        BYTE   PATT
         POIN2  mmlataplacenobodyknows_5_1
// 008   ----------------------------------------
        BYTE   PATT
         POIN2  mmlataplacenobodyknows_5_2
// 009   ----------------------------------------
        BYTE   PATT
         POIN2  mmlataplacenobodyknows_5_1
// 010   ----------------------------------------
        BYTE   PATT
         POIN2  mmlataplacenobodyknows_5_2
// 011   ----------------------------------------
        BYTE   PATT
         POIN2  mmlataplacenobodyknows_5_1
// 012   ----------------------------------------
        BYTE   PATT
         POIN2  mmlataplacenobodyknows_5_2
// 013   ----------------------------------------
        BYTE   PATT
         POIN2  mmlataplacenobodyknows_5_1
// 014   ----------------------------------------
        BYTE   PATT
         POIN2  mmlataplacenobodyknows_5_2
// 015   ----------------------------------------
        BYTE   PATT
         POIN2  mmlataplacenobodyknows_5_1
// 016   ----------------------------------------
        BYTE   PATT
         POIN2  mmlataplacenobodyknows_5_2
// 017   ----------------------------------------
        BYTE   PATT
         POIN2  mmlataplacenobodyknows_5_1
// 018   ----------------------------------------
        BYTE   PATT
         POIN2  mmlataplacenobodyknows_5_2
// 019   ----------------------------------------
        BYTE   PATT
         POIN2  mmlataplacenobodyknows_5_1
// 020   ----------------------------------------
        BYTE   PATT
         POIN2  mmlataplacenobodyknows_5_2
// 021   ----------------------------------------
        BYTE   PATT
         POIN2  mmlataplacenobodyknows_5_1
// 022   ----------------------------------------
        BYTE   PATT
         POIN2  mmlataplacenobodyknows_5_2
// 023   ----------------------------------------
        BYTE   PATT
         POIN2  mmlataplacenobodyknows_5_1
// 024   ----------------------------------------
        BYTE   PATT
         POIN2  mmlataplacenobodyknows_5_2
// 025   ----------------------------------------
        BYTE   PATT
         POIN2  mmlataplacenobodyknows_5_1
// 026   ----------------------------------------
        BYTE   PATT
         POIN2  mmlataplacenobodyknows_5_2
// 027   ----------------------------------------
        BYTE   PATT
         POIN2  mmlataplacenobodyknows_5_1
// 028   ----------------------------------------
        BYTE   PATT
         POIN2  mmlataplacenobodyknows_5_2
// 029   ----------------------------------------
        BYTE   PATT
         POIN2  mmlataplacenobodyknows_5_1
// 030   ----------------------------------------
        BYTE   PATT
         POIN2  mmlataplacenobodyknows_5_2
// 031   ----------------------------------------
        BYTE   PATT
         POIN2  mmlataplacenobodyknows_5_1
// 032   ----------------------------------------
        BYTE           PAN     c_v+16
        BYTE   GoTo
         POIN2  mmlataplacenobodyknows_5_LOOP
        BYTE   FINE

//****************** Track 6 (Midi-Chn.6) ******************//

mmlataplacenobodyknows_6:
        BYTE   KEYSH   mmlataplacenobodyknows_key+0
// 000   ----------------------------------------
mmlataplacenobodyknows_6_LOOP:
        BYTE           VOICE   124
        BYTE           VOL     24
        BYTE           PAN     c_v-8
        BYTE           N12     Fs1   v110
        BYTE           N12     Cs2
        BYTE   W12
        BYTE                   Fs1
        BYTE   W12
        BYTE                   Fs1
        BYTE   W12
        BYTE                   Fs1
        BYTE   W12
        BYTE                   Fs1
        BYTE   W12
        BYTE                   Fs1
        BYTE   W12
        BYTE           N06
        BYTE   W06
        BYTE                   Fs1
        BYTE   W06
        BYTE           N12     As1
        BYTE   W12
// 001   ----------------------------------------
mmlataplacenobodyknows_6_1:
        BYTE           N12     Fs1   v110
        BYTE   W12
        BYTE                   Fs1
        BYTE   W12
        BYTE                   Fs1
        BYTE   W12
        BYTE                   Fs1
        BYTE   W12
        BYTE           N06
        BYTE   W06
        BYTE                   Fs1
        BYTE   W06
        BYTE           N12     As1
        BYTE   W12
        BYTE           N06     Fs1
        BYTE   W06
        BYTE                   Fs1
        BYTE   W06
        BYTE           N12     As1
        BYTE   W12
        BYTE   PEND
// 002   ----------------------------------------
mmlataplacenobodyknows_6_2:
        BYTE           N12     Fs1   v110
        BYTE   W12
        BYTE                   Fs1
        BYTE   W12
        BYTE                   Fs1
        BYTE   W12
        BYTE                   Fs1
        BYTE   W12
        BYTE                   Fs1
        BYTE   W12
        BYTE                   Fs1
        BYTE   W12
        BYTE           N06
        BYTE   W06
        BYTE                   Fs1
        BYTE   W06
        BYTE           N12     As1
        BYTE   W12
        BYTE   PEND
// 003   ----------------------------------------
        BYTE   PATT
         POIN2  mmlataplacenobodyknows_6_1
// 004   ----------------------------------------
        BYTE   PATT
         POIN2  mmlataplacenobodyknows_6_2
// 005   ----------------------------------------
        BYTE   PATT
         POIN2  mmlataplacenobodyknows_6_1
// 006   ----------------------------------------
        BYTE   PATT
         POIN2  mmlataplacenobodyknows_6_2
// 007   ----------------------------------------
        BYTE   PATT
         POIN2  mmlataplacenobodyknows_6_1
// 008   ----------------------------------------
mmlataplacenobodyknows_6_8:
        BYTE           N12     Fs1   v110
        BYTE           N12     Cs2
        BYTE   W12
        BYTE                   Fs1
        BYTE   W12
        BYTE                   Fs1
        BYTE   W12
        BYTE                   Fs1
        BYTE   W12
        BYTE                   Fs1
        BYTE   W12
        BYTE                   Fs1
        BYTE   W12
        BYTE           N06
        BYTE   W06
        BYTE                   Fs1
        BYTE   W06
        BYTE           N12     As1
        BYTE   W12
        BYTE   PEND
// 009   ----------------------------------------
        BYTE   PATT
         POIN2  mmlataplacenobodyknows_6_1
// 010   ----------------------------------------
        BYTE   PATT
         POIN2  mmlataplacenobodyknows_6_2
// 011   ----------------------------------------
        BYTE   PATT
         POIN2  mmlataplacenobodyknows_6_1
// 012   ----------------------------------------
        BYTE   PATT
         POIN2  mmlataplacenobodyknows_6_2
// 013   ----------------------------------------
        BYTE   PATT
         POIN2  mmlataplacenobodyknows_6_1
// 014   ----------------------------------------
        BYTE   PATT
         POIN2  mmlataplacenobodyknows_6_2
// 015   ----------------------------------------
        BYTE   PATT
         POIN2  mmlataplacenobodyknows_6_1
// 016   ----------------------------------------
        BYTE   PATT
         POIN2  mmlataplacenobodyknows_6_8
// 017   ----------------------------------------
        BYTE   PATT
         POIN2  mmlataplacenobodyknows_6_1
// 018   ----------------------------------------
        BYTE   PATT
         POIN2  mmlataplacenobodyknows_6_2
// 019   ----------------------------------------
        BYTE   PATT
         POIN2  mmlataplacenobodyknows_6_1
// 020   ----------------------------------------
        BYTE   PATT
         POIN2  mmlataplacenobodyknows_6_2
// 021   ----------------------------------------
        BYTE   PATT
         POIN2  mmlataplacenobodyknows_6_1
// 022   ----------------------------------------
        BYTE   PATT
         POIN2  mmlataplacenobodyknows_6_2
// 023   ----------------------------------------
        BYTE   PATT
         POIN2  mmlataplacenobodyknows_6_1
// 024   ----------------------------------------
        BYTE   PATT
         POIN2  mmlataplacenobodyknows_6_8
// 025   ----------------------------------------
        BYTE   PATT
         POIN2  mmlataplacenobodyknows_6_1
// 026   ----------------------------------------
        BYTE   PATT
         POIN2  mmlataplacenobodyknows_6_2
// 027   ----------------------------------------
        BYTE   PATT
         POIN2  mmlataplacenobodyknows_6_1
// 028   ----------------------------------------
        BYTE   PATT
         POIN2  mmlataplacenobodyknows_6_2
// 029   ----------------------------------------
        BYTE   PATT
         POIN2  mmlataplacenobodyknows_6_1
// 030   ----------------------------------------
        BYTE   PATT
         POIN2  mmlataplacenobodyknows_6_2
// 031   ----------------------------------------
        BYTE   PATT
         POIN2  mmlataplacenobodyknows_6_1
// 032   ----------------------------------------
        BYTE   GoTo
         POIN2  mmlataplacenobodyknows_6_LOOP
        BYTE   FINE

//****************** Track 7 (Midi-Chn.7) ******************//

mmlataplacenobodyknows_7:
        BYTE   KEYSH   mmlataplacenobodyknows_key+0
// 000   ----------------------------------------
mmlataplacenobodyknows_7_LOOP:
        BYTE           VOICE   124
        BYTE           VOL     47
        BYTE           PAN     c_v+8
        BYTE           N24     Cn1   v110
        BYTE   W24
        BYTE                   Cn1
        BYTE   W24
        BYTE                   Cn1
        BYTE   W24
        BYTE                   Cn1
        BYTE   W24
// 001   ----------------------------------------
mmlataplacenobodyknows_7_1:
        BYTE           N24     Cn1   v110
        BYTE   W24
        BYTE                   Cn1
        BYTE   W24
        BYTE                   Cn1
        BYTE   W24
        BYTE                   Cn1
        BYTE   W24
        BYTE   PEND
// 002   ----------------------------------------
        BYTE   PATT
         POIN2  mmlataplacenobodyknows_7_1
// 003   ----------------------------------------
        BYTE   PATT
         POIN2  mmlataplacenobodyknows_7_1
// 004   ----------------------------------------
        BYTE   PATT
         POIN2  mmlataplacenobodyknows_7_1
// 005   ----------------------------------------
        BYTE   PATT
         POIN2  mmlataplacenobodyknows_7_1
// 006   ----------------------------------------
        BYTE   PATT
         POIN2  mmlataplacenobodyknows_7_1
// 007   ----------------------------------------
        BYTE   PATT
         POIN2  mmlataplacenobodyknows_7_1
// 008   ----------------------------------------
        BYTE   PATT
         POIN2  mmlataplacenobodyknows_7_1
// 009   ----------------------------------------
        BYTE   PATT
         POIN2  mmlataplacenobodyknows_7_1
// 010   ----------------------------------------
        BYTE   PATT
         POIN2  mmlataplacenobodyknows_7_1
// 011   ----------------------------------------
        BYTE   PATT
         POIN2  mmlataplacenobodyknows_7_1
// 012   ----------------------------------------
        BYTE   PATT
         POIN2  mmlataplacenobodyknows_7_1
// 013   ----------------------------------------
        BYTE   PATT
         POIN2  mmlataplacenobodyknows_7_1
// 014   ----------------------------------------
        BYTE   PATT
         POIN2  mmlataplacenobodyknows_7_1
// 015   ----------------------------------------
        BYTE   PATT
         POIN2  mmlataplacenobodyknows_7_1
// 016   ----------------------------------------
mmlataplacenobodyknows_7_16:
        BYTE           N24     Cn1   v110
        BYTE   W24
        BYTE                   Cn1
        BYTE           N24     Dn1
        BYTE   W24
        BYTE           N12     Cn1
        BYTE   W12
        BYTE                   Cn1
        BYTE   W12
        BYTE           N24
        BYTE           N24     Dn1
        BYTE   W24
        BYTE   PEND
// 017   ----------------------------------------
mmlataplacenobodyknows_7_17:
        BYTE           N24     Cn1   v110
        BYTE   W24
        BYTE                   Cn1
        BYTE           N24     Dn1
        BYTE   W24
        BYTE           N12     Cn1
        BYTE   W12
        BYTE                   Cn1
        BYTE   W12
        BYTE                   Cn1
        BYTE           N12     Dn1
        BYTE   W12
        BYTE                   Cn1
        BYTE   W12
        BYTE   PEND
// 018   ----------------------------------------
        BYTE   PATT
         POIN2  mmlataplacenobodyknows_7_16
// 019   ----------------------------------------
        BYTE   PATT
         POIN2  mmlataplacenobodyknows_7_17
// 020   ----------------------------------------
        BYTE   PATT
         POIN2  mmlataplacenobodyknows_7_16
// 021   ----------------------------------------
        BYTE   PATT
         POIN2  mmlataplacenobodyknows_7_17
// 022   ----------------------------------------
        BYTE   PATT
         POIN2  mmlataplacenobodyknows_7_16
// 023   ----------------------------------------
        BYTE   PATT
         POIN2  mmlataplacenobodyknows_7_17
// 024   ----------------------------------------
        BYTE   PATT
         POIN2  mmlataplacenobodyknows_7_16
// 025   ----------------------------------------
        BYTE   PATT
         POIN2  mmlataplacenobodyknows_7_17
// 026   ----------------------------------------
        BYTE   PATT
         POIN2  mmlataplacenobodyknows_7_16
// 027   ----------------------------------------
        BYTE   PATT
         POIN2  mmlataplacenobodyknows_7_17
// 028   ----------------------------------------
        BYTE   PATT
         POIN2  mmlataplacenobodyknows_7_16
// 029   ----------------------------------------
        BYTE   PATT
         POIN2  mmlataplacenobodyknows_7_17
// 030   ----------------------------------------
        BYTE   PATT
         POIN2  mmlataplacenobodyknows_7_16
// 031   ----------------------------------------
        BYTE           N24     Cn1   v110
        BYTE   W24
        BYTE                   Cn1
        BYTE           N24     Dn1
        BYTE   W24
        BYTE           N12     Cn1
        BYTE   W12
        BYTE                   Cn1
        BYTE   W12
        BYTE                   Cn1
        BYTE           N12     Dn1
        BYTE   W12
        BYTE           N06
        BYTE   W06
        BYTE                   Dn1
        BYTE   W06
// 032   ----------------------------------------
        BYTE   GoTo
         POIN2  mmlataplacenobodyknows_7_LOOP
        BYTE   FINE


//********************** End of Song ***********************//

        ALIGN 4
mmlataplacenobodyknows:
        BYTE   8                       // Num Tracks
        BYTE   0                       // Unknown
        BYTE   mmlataplacenobodyknows_pri // Priority
        BYTE   mmlataplacenobodyknows_rev // Reverb

        POIN2   mmlataplacenobodyknows_grp

        POIN2   mmlataplacenobodyknows_0
        POIN2   mmlataplacenobodyknows_1
        POIN2   mmlataplacenobodyknows_2
        POIN2   mmlataplacenobodyknows_3
        POIN2   mmlataplacenobodyknows_4
        POIN2   mmlataplacenobodyknows_5
        POIN2   mmlataplacenobodyknows_6
        POIN2   mmlataplacenobodyknows_7

        
