//Event file generated from Sappy .s format.
        #include "MPlayDef.event"

        #define    obps1fogofphantom_grp  MusicVoices
        #define    obps1fogofphantom_pri  0
        #define    obps1fogofphantom_rev  0x80
        #define    obps1fogofphantom_key  0

        // .rodata
        // obps1fogofphantom
        ALIGN 4

//****************** Track 0 (Midi-Chn.0) ******************//

obps1fogofphantom_0:
        BYTE   KEYSH   obps1fogofphantom_key+0
// 000   ----------------------------------------
        BYTE   TEMPO   100/2
        BYTE           VOICE   48
        BYTE           VOL     64
        BYTE           BENDR   127
        BYTE   W96
// 001   ----------------------------------------
        BYTE   W96
// 002   ----------------------------------------
        BYTE   W96
// 003   ----------------------------------------
obps1fogofphantom_0_LOOP:
        BYTE   W12
        BYTE           VOICE   13
        BYTE           N06     An4   v080
        BYTE   W06
        BYTE           PAN     c_v+2
        BYTE   W06
        BYTE                   c_v+4
        BYTE           N06     As4
        BYTE   W06
        BYTE           PAN     c_v+6
        BYTE   W06
        BYTE                   c_v+8
        BYTE           N06     Fn5
        BYTE   W06
        BYTE           PAN     c_v+10
        BYTE   W06
        BYTE                   c_v+12
        BYTE           N06     En5
        BYTE   W06
        BYTE           PAN     c_v+14
        BYTE   W06
        BYTE                   c_v+16
        BYTE           N06     Cn5
        BYTE   W06
        BYTE           PAN     c_v+14
        BYTE   W06
        BYTE                   c_v+12
        BYTE           N06     Dn5
        BYTE   W06
        BYTE           PAN     c_v+10
        BYTE   W06
        BYTE                   c_v+8
        BYTE           N06     As4
        BYTE   W06
        BYTE           PAN     c_v+6
        BYTE   W06
// 004   ----------------------------------------
obps1fogofphantom_0_4:
        BYTE           PAN     c_v+4
        BYTE           N06     Cn5   v080
        BYTE   W06
        BYTE           PAN     c_v+2
        BYTE   W06
        BYTE                   c_v+0
        BYTE           N06     An4
        BYTE   W06
        BYTE           PAN     c_v-2
        BYTE   W06
        BYTE                   c_v-4
        BYTE           N06     As4
        BYTE   W06
        BYTE           PAN     c_v-6
        BYTE   W06
        BYTE                   c_v-8
        BYTE           N06     Fn4
        BYTE   W06
        BYTE           PAN     c_v-10
        BYTE   W06
        BYTE                   c_v-12
        BYTE           N06     Gn4
        BYTE   W06
        BYTE           PAN     c_v-14
        BYTE   W06
        BYTE                   c_v-16
        BYTE           N06     Ds4
        BYTE   W06
        BYTE           PAN     c_v-14
        BYTE   W06
        BYTE                   c_v-12
        BYTE           N06     Dn4
        BYTE   W06
        BYTE           PAN     c_v-10
        BYTE   W06
        BYTE                   c_v-8
        BYTE           N06     Ds4
        BYTE   W06
        BYTE           PAN     c_v-6
        BYTE   W06
        BYTE   PEND
// 005   ----------------------------------------
obps1fogofphantom_0_5:
        BYTE           PAN     c_v-4
        BYTE   W06
        BYTE                   c_v-2
        BYTE   W06
        BYTE                   c_v+0
        BYTE           N06     An4   v080
        BYTE   W06
        BYTE           PAN     c_v+2
        BYTE   W06
        BYTE                   c_v+4
        BYTE           N06     As4
        BYTE   W06
        BYTE           PAN     c_v+6
        BYTE   W06
        BYTE                   c_v+8
        BYTE           N06     Fn5
        BYTE   W06
        BYTE           PAN     c_v+10
        BYTE   W06
        BYTE                   c_v+12
        BYTE           N06     En5
        BYTE   W06
        BYTE           PAN     c_v+14
        BYTE   W06
        BYTE                   c_v+16
        BYTE           N06     Cn5
        BYTE   W06
        BYTE           PAN     c_v+14
        BYTE   W06
        BYTE                   c_v+12
        BYTE           N06     Dn5
        BYTE   W06
        BYTE           PAN     c_v+10
        BYTE   W06
        BYTE                   c_v+8
        BYTE           N06     As4
        BYTE   W06
        BYTE           PAN     c_v+6
        BYTE   W06
        BYTE   PEND
// 006   ----------------------------------------
        BYTE   PATT
         POIN2  obps1fogofphantom_0_4
// 007   ----------------------------------------
        BYTE   PATT
         POIN2  obps1fogofphantom_0_5
// 008   ----------------------------------------
        BYTE   PATT
         POIN2  obps1fogofphantom_0_4
// 009   ----------------------------------------
        BYTE   PATT
         POIN2  obps1fogofphantom_0_5
// 010   ----------------------------------------
        BYTE   PATT
         POIN2  obps1fogofphantom_0_4
// 011   ----------------------------------------
        BYTE   PATT
         POIN2  obps1fogofphantom_0_5
// 012   ----------------------------------------
        BYTE   PATT
         POIN2  obps1fogofphantom_0_4
// 013   ----------------------------------------
        BYTE   PATT
         POIN2  obps1fogofphantom_0_5
// 014   ----------------------------------------
        BYTE   PATT
         POIN2  obps1fogofphantom_0_4
// 015   ----------------------------------------
        BYTE   PATT
         POIN2  obps1fogofphantom_0_5
// 016   ----------------------------------------
        BYTE   PATT
         POIN2  obps1fogofphantom_0_4
// 017   ----------------------------------------
        BYTE   PATT
         POIN2  obps1fogofphantom_0_5
// 018   ----------------------------------------
        BYTE   PATT
         POIN2  obps1fogofphantom_0_4
// 019   ----------------------------------------
        BYTE           PAN     c_v-4
        BYTE           VOL     58
        BYTE   W06
        BYTE           PAN     c_v-2
        BYTE   W90
// 020   ----------------------------------------
        BYTE   W96
// 021   ----------------------------------------
        BYTE           VOL     64
        BYTE           PAN     c_v-8
        BYTE           VOICE   48
        BYTE           N12     Dn3   v048
        BYTE   W24
        BYTE                   Cn3
        BYTE   W48
        BYTE                   Dn3
        BYTE   W24
// 022   ----------------------------------------
        BYTE                   Cn3
        BYTE   W48
        BYTE                   Dn3
        BYTE   W36
        BYTE                   Cn3
        BYTE   W12
// 023   ----------------------------------------
        BYTE                   Dn3
        BYTE   W12
        BYTE                   En3
        BYTE   W84
// 024   ----------------------------------------
        BYTE           PAN     c_v+8
        BYTE           N12     Dn4   v056
        BYTE           N12     Fn3
        BYTE   W12
        BYTE                   An3
        BYTE           N12     Dn3
        BYTE   W12
        BYTE                   Cn4
        BYTE           N12     Gn3
        BYTE   W12
        BYTE                   As3
        BYTE           N12     Fn3
        BYTE   W12
        BYTE                   An3
        BYTE           N12     Dn3
        BYTE   W12
        BYTE                   Gn3
        BYTE           N12     Dn3
        BYTE   W12
        BYTE                   Dn4
        BYTE           N12     Fn3
        BYTE   W12
        BYTE                   An3
        BYTE           N12     Dn3
        BYTE   W12
// 025   ----------------------------------------
        BYTE                   Cn4
        BYTE           N12     Gn3
        BYTE   W12
        BYTE                   As3
        BYTE           N12     Fn3
        BYTE   W12
        BYTE                   An3
        BYTE           N12     Dn3
        BYTE   W12
        BYTE                   Gn3
        BYTE           N12     Dn3
        BYTE   W12
        BYTE                   Dn4
        BYTE           N12     Fn3
        BYTE   W12
        BYTE                   An3
        BYTE           N12     Dn3
        BYTE   W12
        BYTE                   As3
        BYTE           N12     Fn3
        BYTE   W12
        BYTE                   Cn4
        BYTE           N12     En3
        BYTE   W12
// 026   ----------------------------------------
        BYTE           PAN     c_v+12
        BYTE           N12     Dn4   v060
        BYTE           N12     Fn3
        BYTE   W12
        BYTE                   En4
        BYTE           N12     Gn3
        BYTE   W12
        BYTE           PAN     c_v+16
        BYTE           N12     Fn4
        BYTE           N12     Gs3
        BYTE   W12
        BYTE                   Cn4
        BYTE           N12     Fn3
        BYTE   W12
        BYTE           PAN     c_v+20
        BYTE           N12     Cs4   v064
        BYTE           N12     Gn3
        BYTE   W12
        BYTE                   Ds4
        BYTE           N12     Gs3
        BYTE   W12
        BYTE           PAN     c_v+24
        BYTE           N12     Fs4
        BYTE           N12     As3
        BYTE   W12
        BYTE                   Gn4
        BYTE           N12     Cn4
        BYTE   W12
// 027   ----------------------------------------
        BYTE   W96
// 028   ----------------------------------------
        BYTE   W72
        BYTE           PAN     c_v+32
        BYTE           N03     Gs4   v038
        BYTE           N03     Bn3
        BYTE   W02
        BYTE           PAN     c_v+24
        BYTE   W01
        BYTE           N03     An4
        BYTE           N03     Cn4
        BYTE   W03
        BYTE           PAN     c_v+16
        BYTE           N03     Gs4   v048
        BYTE           N03     Bn3
        BYTE   W03
        BYTE                   An4
        BYTE           N03     Cn4
        BYTE   W03
        BYTE           PAN     c_v+8
        BYTE           N03     Gs4   v058
        BYTE           N03     Bn3
        BYTE   W02
        BYTE           PAN     c_v+0
        BYTE   W01
        BYTE           N03     An4
        BYTE           N03     Cn4
        BYTE   W03
        BYTE                   Gs4   v048
        BYTE           N03     Bn3
        BYTE   W02
        BYTE           PAN     c_v-8
        BYTE   W01
        BYTE           N03     An4
        BYTE           N03     Cn4
        BYTE   W03
// 029   ----------------------------------------
        BYTE           PAN     c_v-16
        BYTE           N03     Gs4   v038
        BYTE           N03     Bn3
        BYTE   W02
        BYTE           PAN     c_v-24
        BYTE   W01
        BYTE           N03     An4   v028
        BYTE           N03     Cn4
        BYTE   W03
        BYTE           PAN     c_v-32
        BYTE           N03     Gs4
        BYTE           N03     Bn3
        BYTE   W02
        BYTE           PAN     c_v-64
        BYTE   W01
        BYTE           N03     An4   v018
        BYTE           N03     Cn4
        BYTE   W36
        BYTE   W03
        BYTE           PAN     c_v+32
        BYTE           N03     Gs4   v038
        BYTE           N03     Bn3
        BYTE   W02
        BYTE           PAN     c_v+24
        BYTE   W01
        BYTE           N03     An4
        BYTE           N03     Cn4
        BYTE   W03
        BYTE           PAN     c_v+16
        BYTE           N03     Gs4   v048
        BYTE           N03     Bn3
        BYTE   W03
        BYTE                   An4
        BYTE           N03     Cn4
        BYTE   W03
        BYTE           PAN     c_v+8
        BYTE           N03     Gs4   v058
        BYTE           N03     Bn3
        BYTE   W02
        BYTE           PAN     c_v+0
        BYTE   W01
        BYTE           N03     An4
        BYTE           N03     Cn4
        BYTE   W03
        BYTE                   Gs4   v048
        BYTE           N03     Bn3
        BYTE   W02
        BYTE           PAN     c_v-8
        BYTE   W01
        BYTE           N03     An4
        BYTE           N03     Cn4
        BYTE   W03
        BYTE           PAN     c_v-16
        BYTE           N03     Gs4   v038
        BYTE           N03     Bn3
        BYTE   W02
        BYTE           PAN     c_v-24
        BYTE   W01
        BYTE           N03     An4   v028
        BYTE           N03     Cn4
        BYTE   W03
        BYTE           PAN     c_v-32
        BYTE           N03     Gs4
        BYTE           N03     Bn3
        BYTE   W02
        BYTE           PAN     c_v-64
        BYTE   W01
        BYTE           N03     An4   v018
        BYTE           N03     Cn4
        BYTE   W15
// 030   ----------------------------------------
        BYTE   W96
// 031   ----------------------------------------
        BYTE   W72
        BYTE           PAN     c_v-32
        BYTE           N03     Fs4   v038
        BYTE           N03     An3
        BYTE   W02
        BYTE           PAN     c_v-24
        BYTE   W01
        BYTE           N03     Gn4
        BYTE           N03     As3
        BYTE   W03
        BYTE           PAN     c_v-16
        BYTE           N03     Fs4   v048
        BYTE           N03     An3
        BYTE   W03
        BYTE                   Gn4
        BYTE           N03     As3
        BYTE   W03
        BYTE           PAN     c_v-8
        BYTE           N03     Fs4   v058
        BYTE           N03     An3
        BYTE   W02
        BYTE           PAN     c_v+0
        BYTE   W01
        BYTE           N03     Gn4
        BYTE           N03     As3
        BYTE   W03
        BYTE                   Fs4   v048
        BYTE           N03     An3
        BYTE   W02
        BYTE           PAN     c_v+8
        BYTE   W01
        BYTE           N03     Gn4
        BYTE           N03     As3
        BYTE   W03
// 032   ----------------------------------------
        BYTE           PAN     c_v+16
        BYTE           N03     Fs4   v038
        BYTE           N03     An3
        BYTE   W02
        BYTE           PAN     c_v+24
        BYTE   W01
        BYTE           N03     Gn4   v028
        BYTE           N03     As3
        BYTE   W03
        BYTE           PAN     c_v+32
        BYTE           N03     Fs4
        BYTE           N03     An3
        BYTE   W02
        BYTE           PAN     c_v+63
        BYTE   W01
        BYTE           N03     Gn4   v018
        BYTE           N03     As3
        BYTE   W36
        BYTE   W03
        BYTE           PAN     c_v-32
        BYTE           N03     Fs4   v038
        BYTE           N03     An3
        BYTE   W02
        BYTE           PAN     c_v-24
        BYTE   W01
        BYTE           N03     Gn4
        BYTE           N03     As3
        BYTE   W03
        BYTE           PAN     c_v-16
        BYTE           N03     Fs4   v048
        BYTE           N03     An3
        BYTE   W03
        BYTE                   Gn4
        BYTE           N03     As3
        BYTE   W03
        BYTE           PAN     c_v-8
        BYTE           N03     Fs4   v058
        BYTE           N03     An3
        BYTE   W02
        BYTE           PAN     c_v+0
        BYTE   W01
        BYTE           N03     Gn4
        BYTE           N03     As3
        BYTE   W03
        BYTE                   Fs4   v048
        BYTE           N03     An3
        BYTE   W02
        BYTE           PAN     c_v+8
        BYTE   W01
        BYTE           N03     Gn4
        BYTE           N03     As3
        BYTE   W03
        BYTE           PAN     c_v+16
        BYTE           N03     Fs4   v038
        BYTE           N03     An3
        BYTE   W02
        BYTE           PAN     c_v+24
        BYTE   W01
        BYTE           N03     Gn4   v028
        BYTE           N03     As3
        BYTE   W03
        BYTE           PAN     c_v+32
        BYTE           N03     Fs4
        BYTE           N03     An3
        BYTE   W02
        BYTE           PAN     c_v+63
        BYTE   W01
        BYTE           N03     Gn4   v018
        BYTE           N03     As3
        BYTE   W15
// 033   ----------------------------------------
        BYTE           PAN     c_v+0
        BYTE   W72
        BYTE                   c_v-8
        BYTE           N12     Dn3   v048
        BYTE   W24
// 034   ----------------------------------------
        BYTE                   Cn3
        BYTE   W48
        BYTE                   Dn3
        BYTE   W24
        BYTE                   Cn3
        BYTE   W24
// 035   ----------------------------------------
        BYTE   W24
        BYTE                   Dn3
        BYTE   W36
        BYTE                   Cn3
        BYTE   W12
        BYTE                   Dn3
        BYTE   W12
        BYTE                   En3
        BYTE   W12
// 036   ----------------------------------------
        BYTE   W72
        BYTE           PAN     c_v+8
        BYTE           N12     Dn4   v056
        BYTE           N12     Fn3
        BYTE   W12
        BYTE                   An3
        BYTE           N12     Dn3
        BYTE   W12
// 037   ----------------------------------------
        BYTE                   Cn4   v058
        BYTE           N12     Gn3
        BYTE   W12
        BYTE                   As3
        BYTE           N12     Fn3
        BYTE   W12
        BYTE                   An3   v060
        BYTE           N12     Dn3
        BYTE   W12
        BYTE                   Gn3
        BYTE           N12     Dn3
        BYTE   W12
        BYTE                   Dn4   v062
        BYTE           N12     Fn3
        BYTE   W12
        BYTE                   An3
        BYTE           N12     Dn3
        BYTE   W12
        BYTE                   Cn4   v064
        BYTE           N12     Gn3
        BYTE   W12
        BYTE                   As3
        BYTE           N12     Fn3
        BYTE   W12
// 038   ----------------------------------------
        BYTE                   An3   v066
        BYTE           N12     Dn3
        BYTE   W12
        BYTE                   Gn3
        BYTE           N12     Dn3
        BYTE   W12
        BYTE                   Dn4   v068
        BYTE           N12     Fn3
        BYTE   W12
        BYTE                   An3
        BYTE           N12     Dn3
        BYTE   W12
        BYTE           PAN     c_v+12
        BYTE           N12     As3   v072
        BYTE           N12     Fn3
        BYTE   W12
        BYTE           PAN     c_v+16
        BYTE           N12     Cn4
        BYTE           N12     En3
        BYTE   W12
        BYTE           PAN     c_v+20
        BYTE           N12     Dn4   v076
        BYTE           N12     Fn3
        BYTE   W12
        BYTE           PAN     c_v+24
        BYTE           N12     En4
        BYTE           N12     Gn3
        BYTE   W12
// 039   ----------------------------------------
        BYTE           PAN     c_v+8
        BYTE           N48     An3   v080
        BYTE           N48     Dn3
        BYTE   W48
        BYTE           VOICE   69
        BYTE           N24     An3
        BYTE   W12
        BYTE           VOL     56
        BYTE   W02
        BYTE                   48
        BYTE   W04
        BYTE                   40
        BYTE   W02
        BYTE                   32
        BYTE   W04
        BYTE                   56
        BYTE           N24     As3
        BYTE   W02
        BYTE           VOL     60
        BYTE   W04
        BYTE                   64
        BYTE   W18
// 040   ----------------------------------------
        BYTE           N12     An3
        BYTE   W12
        BYTE                   Gn3
        BYTE   W12
        BYTE           N24     Fs3
        BYTE   W24
        BYTE           N18     Gn3
        BYTE   W12
        BYTE           VOL     60
        BYTE   W02
        BYTE                   56
        BYTE   W04
        BYTE                   48
        BYTE           N06
        BYTE   W02
        BYTE           VOL     40
        BYTE   W04
        BYTE                   52
        BYTE           N24     Gs3
        BYTE   W02
        BYTE           VOL     56
        BYTE   W04
        BYTE                   60
        BYTE   W02
        BYTE                   64
        BYTE   W16
// 041   ----------------------------------------
        BYTE           N12     Gn3
        BYTE   W12
        BYTE                   Fn3
        BYTE   W12
        BYTE           N24     En3
        BYTE   W24
        BYTE                   Fn3
        BYTE   W12
        BYTE           VOL     60
        BYTE   W02
        BYTE                   56
        BYTE   W04
        BYTE                   48
        BYTE   W02
        BYTE                   40
        BYTE   W04
        BYTE                   52
        BYTE           N96
        BYTE   W02
        BYTE           VOL     56
        BYTE   W04
        BYTE                   60
        BYTE   W02
        BYTE                   64
        BYTE   W16
// 042   ----------------------------------------
obps1fogofphantom_0_42:
        BYTE   W72
        BYTE           N96     En3   v080
        BYTE   W24
        BYTE   PEND
// 043   ----------------------------------------
        BYTE           VOL     62
        BYTE   W12
        BYTE                   60
        BYTE   W12
        BYTE                   58
        BYTE   W12
        BYTE                   56
        BYTE   W12
        BYTE                   48
        BYTE   W02
        BYTE                   44
        BYTE   W04
        BYTE                   40
        BYTE   W06
        BYTE                   42
        BYTE   W02
        BYTE                   46
        BYTE   W04
        BYTE                   48
        BYTE   W02
        BYTE                   52
        BYTE   W04
        BYTE                   64
        BYTE           N96     Fn3
        BYTE   W24
// 044   ----------------------------------------
        BYTE   PATT
         POIN2  obps1fogofphantom_0_42
// 045   ----------------------------------------
        BYTE           VOL     62
        BYTE   W12
        BYTE                   60
        BYTE   W12
        BYTE                   58
        BYTE   W12
        BYTE                   56
        BYTE   W12
        BYTE                   54
        BYTE   W12
        BYTE                   52
        BYTE   W02
        BYTE                   54
        BYTE   W04
        BYTE                   56
        BYTE   W02
        BYTE                   58
        BYTE   W04
        BYTE                   64
        BYTE           N96     Ds3   v056
        BYTE   W24
// 046   ----------------------------------------
        BYTE   W72
        BYTE                   Dn3
        BYTE   W24
// 047   ----------------------------------------
        BYTE   W72
        BYTE           VOL     58
        BYTE           TIE     Cs3
        BYTE   W06
        BYTE           VOL     60
        BYTE   W06
        BYTE                   62
        BYTE   W06
        BYTE                   64
        BYTE   W06
// 048   ----------------------------------------
        BYTE                   66
        BYTE   W12
        BYTE                   64
        BYTE   W12
        BYTE                   62
        BYTE   W06
        BYTE                   60
        BYTE   W06
        BYTE                   58
        BYTE   W06
        BYTE                   56
        BYTE   W06
        BYTE                   54
        BYTE   W06
        BYTE                   52
        BYTE   W06
        BYTE                   50
        BYTE   W06
        BYTE                   48
        BYTE   W06
        BYTE                   46
        BYTE   W06
        BYTE                   44
        BYTE   W06
        BYTE                   42
        BYTE   W06
        BYTE                   40
        BYTE   W06
// 049   ----------------------------------------
        BYTE                   38
        BYTE   W06
        BYTE                   36
        BYTE   W06
        BYTE                   34
        BYTE   W06
        BYTE                   32
        BYTE   W54
        BYTE           EOT
        BYTE   W24
// 050   ----------------------------------------
        BYTE   W96
// 051   ----------------------------------------
        BYTE   W72
        BYTE           VOICE   48
        BYTE           VOL     64
        BYTE           PAN     c_v+0
        BYTE   GoTo
         POIN2  obps1fogofphantom_0_LOOP
        BYTE   W24
// 052   ----------------------------------------
        BYTE   W72
        BYTE   FINE

//****************** Track 1 (Midi-Chn.1) ******************//

obps1fogofphantom_1:
        BYTE   KEYSH   obps1fogofphantom_key+0
// 000   ----------------------------------------
        BYTE           VOICE   60
        BYTE           VOL     64
        BYTE   W96
// 001   ----------------------------------------
        BYTE   W96
// 002   ----------------------------------------
        BYTE   W96
// 003   ----------------------------------------
obps1fogofphantom_1_LOOP:
        BYTE   W96
// 004   ----------------------------------------
        BYTE   W96
// 005   ----------------------------------------
        BYTE   W96
// 006   ----------------------------------------
        BYTE   W96
// 007   ----------------------------------------
obps1fogofphantom_1_7:
        BYTE           VOL     48
        BYTE           N92     Dn4   v100   gtp1
        BYTE                   Fn3
        BYTE   W02
        BYTE           VOL     52
        BYTE   W04
        BYTE                   56
        BYTE   W02
        BYTE                   60
        BYTE   W04
        BYTE                   64
        BYTE   W06
        BYTE                   66
        BYTE   W12
        BYTE                   64
        BYTE   W06
        BYTE                   62
        BYTE   W06
        BYTE                   60
        BYTE   W06
        BYTE                   58
        BYTE   W02
        BYTE                   56
        BYTE   W04
        BYTE                   52
        BYTE   W02
        BYTE                   48
        BYTE   W28
        BYTE                   40
        BYTE   W02
        BYTE                   32
        BYTE   W04
        BYTE                   24
        BYTE   W06
        BYTE   PEND
// 008   ----------------------------------------
obps1fogofphantom_1_8:
        BYTE           VOL     64
        BYTE           N48     Cn4   v100
        BYTE           N48     En3
        BYTE   W06
        BYTE           VOL     58
        BYTE   W06
        BYTE                   60
        BYTE   W06
        BYTE                   62
        BYTE   W06
        BYTE                   64
        BYTE   W24
        BYTE                   62
        BYTE           N48     Dn4
        BYTE           N48     Fn3
        BYTE   W12
        BYTE           VOL     60
        BYTE   W12
        BYTE                   58
        BYTE   W06
        BYTE                   56
        BYTE   W06
        BYTE                   54
        BYTE   W06
        BYTE                   52
        BYTE   W06
        BYTE   PEND
// 009   ----------------------------------------
        BYTE                   40
        BYTE           TIE     An3
        BYTE           TIE     Dn3
        BYTE   W02
        BYTE           VOL     48
        BYTE   W04
        BYTE                   56
        BYTE   W02
        BYTE                   60
        BYTE   W04
        BYTE                   64
        BYTE   W06
        BYTE                   66
        BYTE   W12
        BYTE                   68
        BYTE   W12
        BYTE                   66
        BYTE   W06
        BYTE                   64
        BYTE   W06
        BYTE                   62
        BYTE   W06
        BYTE                   60
        BYTE   W06
        BYTE                   58
        BYTE   W06
        BYTE                   56
        BYTE   W06
        BYTE                   54
        BYTE   W06
        BYTE                   52
        BYTE   W06
        BYTE                   50
        BYTE   W06
// 010   ----------------------------------------
        BYTE                   48
        BYTE   W06
        BYTE                   46
        BYTE   W06
        BYTE                   44
        BYTE   W06
        BYTE                   42
        BYTE   W12
        BYTE                   40
        BYTE   W18
        BYTE                   42
        BYTE   W06
        BYTE                   44
        BYTE   W06
        BYTE                   46
        BYTE   W02
        BYTE                   48
        BYTE   W04
        BYTE                   50
        BYTE   W02
        BYTE                   52
        BYTE   W04
        BYTE           EOT
        BYTE           EOT     An3
        BYTE   W24
// 011   ----------------------------------------
        BYTE   PATT
         POIN2  obps1fogofphantom_1_7
// 012   ----------------------------------------
        BYTE   PATT
         POIN2  obps1fogofphantom_1_8
// 013   ----------------------------------------
        BYTE           VOL     40
        BYTE           N48     An3   v100
        BYTE           N48     Dn3
        BYTE   W02
        BYTE           VOL     52
        BYTE   W04
        BYTE                   56
        BYTE   W02
        BYTE                   60
        BYTE   W04
        BYTE                   62
        BYTE   W12
        BYTE                   64
        BYTE   W12
        BYTE                   62
        BYTE   W12
        BYTE           N48     Gn3
        BYTE           N48     Cn3
        BYTE   W12
        BYTE           VOL     60
        BYTE   W12
        BYTE                   58
        BYTE   W06
        BYTE                   56
        BYTE   W06
        BYTE                   54
        BYTE   W06
        BYTE                   52
        BYTE   W06
// 014   ----------------------------------------
        BYTE           N48     Fn3
        BYTE           N48     An2
        BYTE   W06
        BYTE           VOL     54
        BYTE   W06
        BYTE                   56
        BYTE   W06
        BYTE                   58
        BYTE   W06
        BYTE                   60
        BYTE   W06
        BYTE                   62
        BYTE   W06
        BYTE                   64
        BYTE   W12
        BYTE           N48     An3
        BYTE           N48     Cn3
        BYTE   W24
        BYTE           VOL     62
        BYTE   W02
        BYTE                   60
        BYTE   W04
        BYTE                   56
        BYTE   W02
        BYTE                   52
        BYTE   W04
        BYTE                   48
        BYTE   W12
// 015   ----------------------------------------
        BYTE                   40
        BYTE           TIE     Bn3
        BYTE           TIE     Fn3
        BYTE   W02
        BYTE           VOL     48
        BYTE   W04
        BYTE                   56
        BYTE   W02
        BYTE                   60
        BYTE   W04
        BYTE                   64
        BYTE   W06
        BYTE                   66
        BYTE   W12
        BYTE                   68
        BYTE   W12
        BYTE                   66
        BYTE   W06
        BYTE                   64
        BYTE   W06
        BYTE                   62
        BYTE   W06
        BYTE                   60
        BYTE   W06
        BYTE                   58
        BYTE   W06
        BYTE                   56
        BYTE   W06
        BYTE                   54
        BYTE   W06
        BYTE                   52
        BYTE   W06
        BYTE                   50
        BYTE   W06
// 016   ----------------------------------------
        BYTE                   48
        BYTE   W06
        BYTE                   46
        BYTE   W06
        BYTE                   44
        BYTE   W06
        BYTE                   42
        BYTE   W12
        BYTE                   40
        BYTE   W18
        BYTE                   42
        BYTE   W06
        BYTE                   44
        BYTE   W06
        BYTE                   46
        BYTE   W02
        BYTE                   48
        BYTE   W04
        BYTE                   50
        BYTE   W02
        BYTE                   52
        BYTE   W06
        BYTE                   50
        BYTE   W04
        BYTE                   48
        BYTE   W02
        BYTE                   46
        BYTE   W04
        BYTE                   44
        BYTE   W02
        BYTE                   42
        BYTE   W04
        BYTE                   40
        BYTE   W06
// 017   ----------------------------------------
        BYTE                   36
        BYTE   W02
        BYTE                   32
        BYTE   W04
        BYTE                   28
        BYTE   W02
        BYTE                   24
        BYTE   W04
        BYTE                   20
        BYTE   W02
        BYTE                   16
        BYTE   W04
        BYTE                   12
        BYTE   W06
        BYTE           EOT
        BYTE           EOT     Bn3
        BYTE   W72
// 018   ----------------------------------------
        BYTE           VOL     64
        BYTE   W96
// 019   ----------------------------------------
        BYTE   W96
// 020   ----------------------------------------
        BYTE   W96
// 021   ----------------------------------------
        BYTE   W96
// 022   ----------------------------------------
        BYTE   W96
// 023   ----------------------------------------
        BYTE   W96
// 024   ----------------------------------------
        BYTE   W96
// 025   ----------------------------------------
        BYTE   W96
// 026   ----------------------------------------
        BYTE   W96
// 027   ----------------------------------------
        BYTE   W24
        BYTE           N12     Gs2
        BYTE   W12
        BYTE           PAN     c_v+48
        BYTE           N09     Gs2   v032
        BYTE   W08
        BYTE           PAN     c_v+0
        BYTE   W04
        BYTE           N12     Bn2   v100
        BYTE   W12
        BYTE           PAN     c_v-48
        BYTE           N09     Bn2   v032
        BYTE   W08
        BYTE           PAN     c_v+0
        BYTE   W04
        BYTE           N12     Dn3   v100
        BYTE   W12
        BYTE           PAN     c_v+48
        BYTE           N09     Dn3   v048
        BYTE   W08
        BYTE           PAN     c_v+0
        BYTE   W04
// 028   ----------------------------------------
        BYTE           N12     Ds3   v100
        BYTE   W12
        BYTE           PAN     c_v-48
        BYTE           N09     Ds3   v032
        BYTE   W08
        BYTE           PAN     c_v+0
        BYTE   W04
        BYTE           N12     Fs3   v100
        BYTE   W12
        BYTE           PAN     c_v+48
        BYTE           N09     Fs3   v032
        BYTE   W08
        BYTE           PAN     c_v+0
        BYTE   W04
        BYTE           VOL     52
        BYTE           N48     Gs3   v100
        BYTE   W06
        BYTE           VOL     56
        BYTE   W06
        BYTE                   60
        BYTE   W06
        BYTE                   62
        BYTE   W06
        BYTE                   64
        BYTE   W12
        BYTE                   62
        BYTE   W06
        BYTE                   60
        BYTE   W02
        BYTE                   56
        BYTE   W04
// 029   ----------------------------------------
        BYTE                   48
        BYTE           N09     Gs3   v048
        BYTE   W18
        BYTE           VOL     52
        BYTE           N06     Fs3   v100
        BYTE   W06
        BYTE           N72     Gs3
        BYTE   W06
        BYTE           VOL     56
        BYTE   W06
        BYTE                   60
        BYTE   W06
        BYTE                   62
        BYTE   W06
        BYTE                   64
        BYTE   W12
        BYTE                   62
        BYTE   W06
        BYTE                   60
        BYTE   W02
        BYTE                   56
        BYTE   W04
        BYTE                   48
        BYTE   W02
        BYTE                   40
        BYTE   W04
        BYTE                   36
        BYTE   W06
        BYTE                   34
        BYTE   W06
        BYTE                   32
        BYTE   W06
// 030   ----------------------------------------
        BYTE   W24
        BYTE                   64
        BYTE           N12     Fs2
        BYTE   W12
        BYTE           PAN     c_v+48
        BYTE           N09     Fs2   v032
        BYTE   W08
        BYTE           PAN     c_v+0
        BYTE   W04
        BYTE           N12     An2   v100
        BYTE   W12
        BYTE           PAN     c_v-48
        BYTE           N09     An2   v032
        BYTE   W08
        BYTE           PAN     c_v+0
        BYTE   W04
        BYTE           N12     Cn3   v100
        BYTE   W12
        BYTE           PAN     c_v+48
        BYTE           N09     Cn3   v032
        BYTE   W08
        BYTE           PAN     c_v+0
        BYTE   W04
// 031   ----------------------------------------
        BYTE           N12     Cs3   v100
        BYTE   W12
        BYTE           PAN     c_v-48
        BYTE           N09     Cs3   v032
        BYTE   W08
        BYTE           PAN     c_v+0
        BYTE   W04
        BYTE           N12     En3   v100
        BYTE   W12
        BYTE           PAN     c_v+48
        BYTE           N09     En3   v032
        BYTE   W08
        BYTE           PAN     c_v+0
        BYTE   W04
        BYTE           VOL     52
        BYTE           N48     Fs3   v100
        BYTE   W06
        BYTE           VOL     56
        BYTE   W06
        BYTE                   60
        BYTE   W06
        BYTE                   62
        BYTE   W06
        BYTE                   64
        BYTE   W12
        BYTE                   62
        BYTE   W06
        BYTE                   60
        BYTE   W02
        BYTE                   56
        BYTE   W04
// 032   ----------------------------------------
        BYTE                   48
        BYTE           N09     Fs3   v048
        BYTE   W18
        BYTE           VOL     52
        BYTE           N06     En3   v100
        BYTE   W06
        BYTE           N72     Fs3
        BYTE   W06
        BYTE           VOL     56
        BYTE   W06
        BYTE                   60
        BYTE   W06
        BYTE                   62
        BYTE   W06
        BYTE                   64
        BYTE   W12
        BYTE                   62
        BYTE   W06
        BYTE                   60
        BYTE   W02
        BYTE                   56
        BYTE   W04
        BYTE                   48
        BYTE   W02
        BYTE                   40
        BYTE   W04
        BYTE                   36
        BYTE   W06
        BYTE                   34
        BYTE   W06
        BYTE                   32
        BYTE   W06
// 033   ----------------------------------------
        BYTE   W96
// 034   ----------------------------------------
        BYTE   W96
// 035   ----------------------------------------
        BYTE   W96
// 036   ----------------------------------------
        BYTE   W96
// 037   ----------------------------------------
        BYTE   W96
// 038   ----------------------------------------
        BYTE   W96
// 039   ----------------------------------------
        BYTE   W72
        BYTE           VOICE   3
        BYTE           VOL     64
        BYTE           N12     Dn2   v092
        BYTE   W12
        BYTE                   Fs2
        BYTE   W12
// 040   ----------------------------------------
        BYTE                   Gn2
        BYTE   W12
        BYTE                   Gn2   v040
        BYTE   W60
        BYTE                   Cn2   v092
        BYTE   W12
        BYTE                   En2
        BYTE   W12
// 041   ----------------------------------------
        BYTE                   Fn2
        BYTE   W12
        BYTE                   Fn2   v040
        BYTE   W60
        BYTE                   Gs2   v092
        BYTE   W12
        BYTE                   An2
        BYTE   W12
// 042   ----------------------------------------
        BYTE                   Dn2
        BYTE   W12
        BYTE                   Dn2   v040
        BYTE   W60
        BYTE           BEND    c_v-32
        BYTE           N24     As2   v092
        BYTE   W01
        BYTE           BEND    c_v-24
        BYTE   W01
        BYTE                   c_v-8
        BYTE   W02
        BYTE                   c_v+0
        BYTE   W20
// 043   ----------------------------------------
        BYTE           N24     An2
        BYTE   W24
        BYTE           N12     An2   v040
        BYTE   W48
        BYTE                   Gs2   v092
        BYTE   W12
        BYTE                   An2
        BYTE   W12
// 044   ----------------------------------------
        BYTE                   Dn2
        BYTE   W12
        BYTE                   Dn2   v040
        BYTE   W60
        BYTE           BEND    c_v-32
        BYTE           N24     As2   v092
        BYTE   W02
        BYTE           BEND    c_v-24
        BYTE   W04
        BYTE                   c_v-9
        BYTE   W02
        BYTE                   c_v+0
        BYTE   W16
// 045   ----------------------------------------
        BYTE           N24     An2
        BYTE   W24
        BYTE           N12     An2   v040
        BYTE   W48
        BYTE           N96     Ds2   v080
        BYTE   W24
// 046   ----------------------------------------
        BYTE   W96
// 047   ----------------------------------------
        BYTE   W96
// 048   ----------------------------------------
        BYTE   W96
// 049   ----------------------------------------
        BYTE   W96
// 050   ----------------------------------------
        BYTE   W96
// 051   ----------------------------------------
        BYTE   W72
        BYTE           VOICE   60
        BYTE   GoTo
         POIN2  obps1fogofphantom_1_LOOP
        BYTE   W24
// 052   ----------------------------------------
        BYTE   W72
        BYTE   FINE

//****************** Track 2 (Midi-Chn.2) ******************//

obps1fogofphantom_2:
        BYTE   KEYSH   obps1fogofphantom_key+0
// 000   ----------------------------------------
        BYTE           VOICE   50
        BYTE           PAN     c_v+16
        BYTE           BENDR   127
        BYTE           VOL     48
        BYTE   W72
        BYTE           N12     Dn1   v088
        BYTE   W12
        BYTE                   Dn1   v048
        BYTE   W12
// 001   ----------------------------------------
obps1fogofphantom_2_1:
        BYTE           N24     Dn1   v104
        BYTE   W24
        BYTE                   Dn1   v048
        BYTE   W48
        BYTE           N12     Dn1   v088
        BYTE   W12
        BYTE                   Dn1   v048
        BYTE   W12
        BYTE   PEND
// 002   ----------------------------------------
        BYTE   PATT
         POIN2  obps1fogofphantom_2_1
// 003   ----------------------------------------
obps1fogofphantom_2_LOOP:
        BYTE           N06     An1   v088
        BYTE           N24     Dn1   v112
        BYTE   W12
        BYTE           N06     An1   v100
        BYTE   W12
        BYTE                   An1   v032
        BYTE           N24     Dn1   v056
        BYTE   W12
        BYTE           N06     An1   v072
        BYTE   W12
        BYTE                   An1   v032
        BYTE   W12
        BYTE                   An1   v072
        BYTE   W12
        BYTE                   An1   v032
        BYTE           N12     Dn1   v104
        BYTE   W12
        BYTE           N06     An1   v080
        BYTE           N06     Dn1   v048
        BYTE   W12
// 004   ----------------------------------------
obps1fogofphantom_2_4:
        BYTE           N06     An1   v088
        BYTE           N24     Dn1   v112
        BYTE   W12
        BYTE           N06     An1   v100
        BYTE   W12
        BYTE                   An1   v032
        BYTE           N24     Dn1   v056
        BYTE   W12
        BYTE           N06     An1   v072
        BYTE   W12
        BYTE                   An1   v032
        BYTE   W12
        BYTE                   An1   v072
        BYTE   W12
        BYTE                   An1   v032
        BYTE           N12     Dn1   v104
        BYTE   W12
        BYTE           N06     An1   v080
        BYTE           N06     Dn1   v048
        BYTE   W12
        BYTE   PEND
// 005   ----------------------------------------
        BYTE   PATT
         POIN2  obps1fogofphantom_2_4
// 006   ----------------------------------------
        BYTE   PATT
         POIN2  obps1fogofphantom_2_4
// 007   ----------------------------------------
        BYTE   PATT
         POIN2  obps1fogofphantom_2_4
// 008   ----------------------------------------
        BYTE   PATT
         POIN2  obps1fogofphantom_2_4
// 009   ----------------------------------------
        BYTE   PATT
         POIN2  obps1fogofphantom_2_4
// 010   ----------------------------------------
        BYTE   PATT
         POIN2  obps1fogofphantom_2_4
// 011   ----------------------------------------
        BYTE   PATT
         POIN2  obps1fogofphantom_2_4
// 012   ----------------------------------------
        BYTE   PATT
         POIN2  obps1fogofphantom_2_4
// 013   ----------------------------------------
        BYTE   PATT
         POIN2  obps1fogofphantom_2_4
// 014   ----------------------------------------
        BYTE   PATT
         POIN2  obps1fogofphantom_2_4
// 015   ----------------------------------------
        BYTE   PATT
         POIN2  obps1fogofphantom_2_4
// 016   ----------------------------------------
        BYTE   PATT
         POIN2  obps1fogofphantom_2_4
// 017   ----------------------------------------
        BYTE   PATT
         POIN2  obps1fogofphantom_2_4
// 018   ----------------------------------------
        BYTE   PATT
         POIN2  obps1fogofphantom_2_4
// 019   ----------------------------------------
        BYTE   W96
// 020   ----------------------------------------
        BYTE   W96
// 021   ----------------------------------------
obps1fogofphantom_2_21:
        BYTE           N72     Dn1   v090
        BYTE   W72
        BYTE                   Dn1
        BYTE   W24
        BYTE   PEND
// 022   ----------------------------------------
        BYTE   W48
        BYTE                   Dn1
        BYTE   W48
// 023   ----------------------------------------
        BYTE   W24
        BYTE                   Dn1
        BYTE   W72
// 024   ----------------------------------------
        BYTE   PATT
         POIN2  obps1fogofphantom_2_21
// 025   ----------------------------------------
        BYTE   W48
        BYTE           N48     Dn1   v090
        BYTE   W48
// 026   ----------------------------------------
        BYTE           N24     Cn1
        BYTE   W24
        BYTE           N48     Fn1
        BYTE   W48
        BYTE           N24     Ds1
        BYTE   W24
// 027   ----------------------------------------
        BYTE           TIE     Gs1
        BYTE   W96
// 028   ----------------------------------------
        BYTE   W48
        BYTE           EOT
        BYTE           TIE
        BYTE   W48
// 029   ----------------------------------------
        BYTE   W96
// 030   ----------------------------------------
        BYTE           EOT
        BYTE           TIE     Fs1
        BYTE   W96
// 031   ----------------------------------------
        BYTE   W48
        BYTE           EOT
        BYTE           TIE
        BYTE   W48
// 032   ----------------------------------------
        BYTE   W96
// 033   ----------------------------------------
        BYTE           EOT
        BYTE   W72
        BYTE           N72     Dn1   v080
        BYTE   W24
// 034   ----------------------------------------
obps1fogofphantom_2_34:
        BYTE   W48
        BYTE           N72     Dn1   v080
        BYTE   W48
        BYTE   PEND
// 035   ----------------------------------------
obps1fogofphantom_2_35:
        BYTE   W24
        BYTE           N72     Dn1   v080
        BYTE   W72
        BYTE   PEND
// 036   ----------------------------------------
        BYTE                   Dn1
        BYTE   W72
        BYTE                   Dn1
        BYTE   W24
// 037   ----------------------------------------
        BYTE   PATT
         POIN2  obps1fogofphantom_2_34
// 038   ----------------------------------------
        BYTE   PATT
         POIN2  obps1fogofphantom_2_35
// 039   ----------------------------------------
        BYTE           N72     Dn1   v080
        BYTE   W72
        BYTE           N96     Gn1   v086
        BYTE   W24
// 040   ----------------------------------------
        BYTE   W72
        BYTE                   Fn1
        BYTE   W24
// 041   ----------------------------------------
        BYTE   W72
        BYTE                   Dn1
        BYTE   W24
// 042   ----------------------------------------
        BYTE   W72
        BYTE                   Dn1   v096
        BYTE   W24
// 043   ----------------------------------------
        BYTE   W72
        BYTE                   Dn1   v105
        BYTE   W24
// 044   ----------------------------------------
        BYTE   W72
        BYTE                   Dn1   v115
        BYTE   W24
// 045   ----------------------------------------
        BYTE   W72
        BYTE           VOL     40
        BYTE           VOICE   48
        BYTE           TIE     Gs3   v056
        BYTE   W06
        BYTE           VOL     42
        BYTE   W06
        BYTE                   44
        BYTE   W06
        BYTE                   46
        BYTE   W06
// 046   ----------------------------------------
        BYTE                   48
        BYTE   W96
// 047   ----------------------------------------
        BYTE   W48
        BYTE                   46
        BYTE   W06
        BYTE                   44
        BYTE   W06
        BYTE                   42
        BYTE   W06
        BYTE                   40
        BYTE   W06
        BYTE           EOT
        BYTE           VOL     42
        BYTE           TIE     Gn3
        BYTE   W06
        BYTE           VOL     44
        BYTE   W06
        BYTE                   46
        BYTE   W06
        BYTE                   48
        BYTE   W06
// 048   ----------------------------------------
        BYTE                   50
        BYTE   W12
        BYTE                   52
        BYTE   W24
        BYTE                   50
        BYTE   W12
        BYTE                   48
        BYTE   W12
        BYTE                   46
        BYTE   W12
        BYTE                   44
        BYTE   W12
        BYTE                   42
        BYTE   W12
// 049   ----------------------------------------
        BYTE                   40
        BYTE   W12
        BYTE                   38
        BYTE   W12
        BYTE                   36
        BYTE   W12
        BYTE                   34
        BYTE   W12
        BYTE                   32
        BYTE   W24
        BYTE           EOT
        BYTE           VOL     48
        BYTE           VOICE   50
        BYTE           N24     Dn1   v104
        BYTE   W24
// 050   ----------------------------------------
        BYTE                   Dn1   v048
        BYTE   W48
        BYTE           N12     Dn1   v088
        BYTE   W12
        BYTE                   Dn1   v048
        BYTE   W12
        BYTE           N24     Dn1   v104
        BYTE   W24
// 051   ----------------------------------------
        BYTE                   Dn1   v048
        BYTE   W48
        BYTE           N12     Dn1   v088
        BYTE   W12
        BYTE                   Dn1   v048
        BYTE   W12
        BYTE   GoTo
         POIN2  obps1fogofphantom_2_LOOP
        BYTE   W24
// 052   ----------------------------------------
        BYTE   W72
        BYTE   FINE

//****************** Track 3 (Midi-Chn.3) ******************//

obps1fogofphantom_3:
        BYTE   KEYSH   obps1fogofphantom_key+0
// 000   ----------------------------------------
        BYTE           VOICE   18
        BYTE           VOL     56
        BYTE   W03
        BYTE           TIE     Bn3   v100
        BYTE           TIE     Fn3
        BYTE   W01
        BYTE           BEND    c_v-1
        BYTE   W05
        BYTE                   c_v-2
        BYTE   W04
        BYTE                   c_v-3
        BYTE   W05
        BYTE                   c_v-4
        BYTE   W04
        BYTE                   c_v-5
        BYTE   W05
        BYTE                   c_v-6
        BYTE   W04
        BYTE                   c_v-7
        BYTE   W05
        BYTE                   c_v-8
        BYTE   W04
        BYTE                   c_v-9
        BYTE   W05
        BYTE                   c_v-10
        BYTE   W04
        BYTE                   c_v-11
        BYTE   W05
        BYTE                   c_v-12
        BYTE   W04
        BYTE                   c_v-13
        BYTE   W05
        BYTE                   c_v-14
        BYTE   W04
        BYTE                   c_v-15
        BYTE   W05
        BYTE                   c_v-16
        BYTE   W04
        BYTE                   c_v-17
        BYTE   W05
        BYTE                   c_v-18
        BYTE   W04
        BYTE                   c_v-19
        BYTE   W05
        BYTE                   c_v-20
        BYTE   W04
        BYTE                   c_v-21
        BYTE   W02
// 001   ----------------------------------------
        BYTE   W03
        BYTE                   c_v-22
        BYTE   W04
        BYTE                   c_v-23
        BYTE   W05
        BYTE                   c_v-24
        BYTE   W04
        BYTE                   c_v-25
        BYTE   W05
        BYTE                   c_v-26
        BYTE   W04
        BYTE                   c_v-27
        BYTE   W05
        BYTE                   c_v-28
        BYTE   W04
        BYTE                   c_v-29
        BYTE   W05
        BYTE                   c_v-30
        BYTE   W04
        BYTE                   c_v-31
        BYTE   W05
        BYTE                   c_v-32
        BYTE   W04
        BYTE                   c_v-33
        BYTE   W05
        BYTE                   c_v-34
        BYTE   W04
        BYTE                   c_v-35
        BYTE   W05
        BYTE                   c_v-36
        BYTE   W04
        BYTE                   c_v-37
        BYTE   W05
        BYTE                   c_v-38
        BYTE   W04
        BYTE                   c_v-39
        BYTE   W05
        BYTE                   c_v-40
        BYTE   W04
        BYTE                   c_v-41
        BYTE   W05
        BYTE                   c_v-42
        BYTE   W03
// 002   ----------------------------------------
        BYTE   W01
        BYTE                   c_v-43
        BYTE   W05
        BYTE                   c_v-44
        BYTE   W04
        BYTE                   c_v-45
        BYTE   W02
        BYTE           VOL     54
        BYTE   W03
        BYTE           BEND    c_v-46
        BYTE   W04
        BYTE                   c_v-47
        BYTE   W05
        BYTE           VOL     52
        BYTE           BEND    c_v-48
        BYTE   W04
        BYTE                   c_v-49
        BYTE   W05
        BYTE                   c_v-50
        BYTE   W03
        BYTE           VOL     50
        BYTE   W01
        BYTE           BEND    c_v-51
        BYTE   W05
        BYTE                   c_v-52
        BYTE   W04
        BYTE                   c_v-53
        BYTE   W02
        BYTE           VOL     48
        BYTE   W03
        BYTE           BEND    c_v-54
        BYTE   W04
        BYTE                   c_v-55
        BYTE   W05
        BYTE           VOL     46
        BYTE           BEND    c_v-56
        BYTE   W04
        BYTE                   c_v-57
        BYTE   W05
        BYTE                   c_v-58
        BYTE   W03
        BYTE           VOL     44
        BYTE   W01
        BYTE           BEND    c_v-59
        BYTE   W05
        BYTE                   c_v-60
        BYTE   W04
        BYTE                   c_v-61
        BYTE   W02
        BYTE           VOL     42
        BYTE   W03
        BYTE           BEND    c_v-62
        BYTE   W04
        BYTE                   c_v-63
        BYTE   W05
// 003   ----------------------------------------
obps1fogofphantom_3_LOOP:
        BYTE           VOL     40
        BYTE   W06
        BYTE                   38
        BYTE   W06
        BYTE                   36
        BYTE   W06
        BYTE                   34
        BYTE   W06
        BYTE                   32
        BYTE   W12
        BYTE                   30
        BYTE   W12
        BYTE                   28
        BYTE   W12
        BYTE                   26
        BYTE   W12
        BYTE                   24
        BYTE   W06
        BYTE                   22
        BYTE   W06
        BYTE                   20
        BYTE   W12
// 004   ----------------------------------------
        BYTE   W03
        BYTE           EOT     Fn3
        BYTE                   Bn3
        BYTE   W92
        BYTE   W01
// 005   ----------------------------------------
        BYTE   W96
// 006   ----------------------------------------
        BYTE   W96
// 007   ----------------------------------------
        BYTE   W96
// 008   ----------------------------------------
        BYTE   W96
// 009   ----------------------------------------
        BYTE   W96
// 010   ----------------------------------------
        BYTE   W96
// 011   ----------------------------------------
        BYTE   W96
// 012   ----------------------------------------
        BYTE   W96
// 013   ----------------------------------------
        BYTE   W96
// 014   ----------------------------------------
        BYTE   W96
// 015   ----------------------------------------
        BYTE   W96
// 016   ----------------------------------------
        BYTE   W96
// 017   ----------------------------------------
        BYTE   W96
// 018   ----------------------------------------
        BYTE   W72
        BYTE           BEND    c_v-22
        BYTE   W24
// 019   ----------------------------------------
        BYTE           VOL     56
        BYTE           TIE     Fn3   v080
        BYTE           TIE     Bn3
        BYTE   W04
        BYTE           BEND    c_v-23
        BYTE   W06
        BYTE                   c_v-24
        BYTE   W06
        BYTE                   c_v-25
        BYTE   W06
        BYTE                   c_v-26
        BYTE   W05
        BYTE                   c_v-27
        BYTE   W06
        BYTE                   c_v-28
        BYTE   W06
        BYTE                   c_v-29
        BYTE   W06
        BYTE                   c_v-30
        BYTE   W03
        BYTE                   c_v-32
        BYTE   W04
        BYTE                   c_v-33
        BYTE   W05
        BYTE                   c_v-34
        BYTE   W04
        BYTE                   c_v-35
        BYTE   W05
        BYTE                   c_v-36
        BYTE   W04
        BYTE                   c_v-37
        BYTE   W05
        BYTE                   c_v-38
        BYTE   W04
        BYTE                   c_v-39
        BYTE   W05
        BYTE                   c_v-40
        BYTE   W04
        BYTE                   c_v-41
        BYTE   W05
        BYTE                   c_v-42
        BYTE   W03
// 020   ----------------------------------------
        BYTE           VOL     54
        BYTE   W01
        BYTE           BEND    c_v-43
        BYTE   W05
        BYTE                   c_v-44
        BYTE   W04
        BYTE                   c_v-45
        BYTE   W02
        BYTE           VOL     52
        BYTE   W03
        BYTE           BEND    c_v-46
        BYTE   W04
        BYTE                   c_v-47
        BYTE   W05
        BYTE           VOL     50
        BYTE           BEND    c_v-48
        BYTE   W04
        BYTE                   c_v-49
        BYTE   W05
        BYTE                   c_v-50
        BYTE   W03
        BYTE           VOL     48
        BYTE   W01
        BYTE           BEND    c_v-51
        BYTE   W05
        BYTE                   c_v-52
        BYTE   W04
        BYTE                   c_v-53
        BYTE   W02
        BYTE           VOL     46
        BYTE   W03
        BYTE           BEND    c_v-54
        BYTE   W04
        BYTE                   c_v-55
        BYTE   W05
        BYTE           VOL     44
        BYTE           BEND    c_v-56
        BYTE   W04
        BYTE                   c_v-57
        BYTE   W05
        BYTE                   c_v-58
        BYTE   W03
        BYTE           VOL     42
        BYTE   W01
        BYTE           BEND    c_v-59
        BYTE   W05
        BYTE                   c_v-60
        BYTE   W04
        BYTE                   c_v-61
        BYTE   W02
        BYTE           VOL     40
        BYTE   W03
        BYTE           BEND    c_v-62
        BYTE   W04
        BYTE                   c_v-63
        BYTE   W05
// 021   ----------------------------------------
        BYTE           EOT
        BYTE           EOT     Fn3
        BYTE   W24
        BYTE           VOL     56
        BYTE           BEND    c_v+0
        BYTE           VOICE   14
        BYTE           N48     An3   v088
        BYTE   W12
        BYTE           PAN     c_v+8
        BYTE   W02
        BYTE                   c_v+16
        BYTE   W04
        BYTE                   c_v+24
        BYTE   W02
        BYTE                   c_v+48
        BYTE   W52
// 022   ----------------------------------------
obps1fogofphantom_3_22:
        BYTE           PAN     c_v+0
        BYTE           N48     An3   v088
        BYTE   W12
        BYTE           PAN     c_v+8
        BYTE   W02
        BYTE                   c_v+16
        BYTE   W04
        BYTE                   c_v+24
        BYTE   W02
        BYTE                   c_v+48
        BYTE   W52
        BYTE                   c_v+0
        BYTE           N48
        BYTE   W12
        BYTE           PAN     c_v+8
        BYTE   W02
        BYTE                   c_v+16
        BYTE   W04
        BYTE                   c_v+24
        BYTE   W02
        BYTE                   c_v+48
        BYTE   W04
        BYTE   PEND
// 023   ----------------------------------------
obps1fogofphantom_3_23:
        BYTE   W48
        BYTE           PAN     c_v+0
        BYTE           N48     An3   v088
        BYTE   W12
        BYTE           PAN     c_v+8
        BYTE   W02
        BYTE                   c_v+16
        BYTE   W04
        BYTE                   c_v+24
        BYTE   W02
        BYTE                   c_v+48
        BYTE   W28
        BYTE   PEND
// 024   ----------------------------------------
obps1fogofphantom_3_24:
        BYTE   W24
        BYTE           PAN     c_v+0
        BYTE           N48     An3   v088
        BYTE   W12
        BYTE           PAN     c_v+8
        BYTE   W02
        BYTE                   c_v+16
        BYTE   W04
        BYTE                   c_v+24
        BYTE   W02
        BYTE                   c_v+48
        BYTE   W52
        BYTE   PEND
// 025   ----------------------------------------
        BYTE                   c_v+0
        BYTE           N48
        BYTE   W12
        BYTE           PAN     c_v+8
        BYTE   W02
        BYTE                   c_v+16
        BYTE   W04
        BYTE                   c_v+24
        BYTE   W02
        BYTE                   c_v+48
        BYTE   W52
        BYTE                   c_v+0
        BYTE           N24
        BYTE   W12
        BYTE           PAN     c_v+8
        BYTE   W02
        BYTE                   c_v+16
        BYTE   W04
        BYTE                   c_v+24
        BYTE   W02
        BYTE                   c_v+48
        BYTE   W04
// 026   ----------------------------------------
        BYTE                   c_v+0
        BYTE           N48     En3
        BYTE   W12
        BYTE           PAN     c_v+8
        BYTE   W02
        BYTE                   c_v+16
        BYTE   W04
        BYTE                   c_v+24
        BYTE   W02
        BYTE                   c_v+48
        BYTE   W28
        BYTE                   c_v+0
        BYTE           N24     Cn4
        BYTE   W12
        BYTE           PAN     c_v+8
        BYTE   W02
        BYTE                   c_v+16
        BYTE   W04
        BYTE                   c_v+24
        BYTE   W02
        BYTE                   c_v+48
        BYTE   W04
        BYTE                   c_v+0
        BYTE           N24     Fs3
        BYTE   W12
        BYTE           PAN     c_v+8
        BYTE   W02
        BYTE                   c_v+16
        BYTE   W04
        BYTE                   c_v+24
        BYTE   W02
        BYTE                   c_v+48
        BYTE   W04
// 027   ----------------------------------------
        BYTE   W96
// 028   ----------------------------------------
        BYTE   W96
// 029   ----------------------------------------
        BYTE   W96
// 030   ----------------------------------------
        BYTE   W96
// 031   ----------------------------------------
        BYTE   W96
// 032   ----------------------------------------
        BYTE   W96
// 033   ----------------------------------------
        BYTE   W96
// 034   ----------------------------------------
        BYTE   PATT
         POIN2  obps1fogofphantom_3_22
// 035   ----------------------------------------
        BYTE   PATT
         POIN2  obps1fogofphantom_3_23
// 036   ----------------------------------------
        BYTE   PATT
         POIN2  obps1fogofphantom_3_24
// 037   ----------------------------------------
        BYTE           PAN     c_v+0
        BYTE           N24     An3   v088
        BYTE   W12
        BYTE           PAN     c_v+8
        BYTE   W02
        BYTE                   c_v+16
        BYTE   W04
        BYTE                   c_v+24
        BYTE   W02
        BYTE                   c_v+48
        BYTE   W04
        BYTE                   c_v+0
        BYTE           N24     En3
        BYTE   W12
        BYTE           PAN     c_v+8
        BYTE   W02
        BYTE                   c_v+16
        BYTE   W04
        BYTE                   c_v+24
        BYTE   W02
        BYTE                   c_v+48
        BYTE   W04
        BYTE                   c_v+0
        BYTE           N72     Dn4
        BYTE   W12
        BYTE           PAN     c_v+8
        BYTE   W02
        BYTE                   c_v+16
        BYTE   W04
        BYTE                   c_v+24
        BYTE   W02
        BYTE                   c_v+48
        BYTE   W28
// 038   ----------------------------------------
        BYTE   W96
// 039   ----------------------------------------
        BYTE   W72
        BYTE                   c_v+0
        BYTE           VOICE   18
        BYTE           N96     Dn3   v060
        BYTE           N96     As3
        BYTE   W24
// 040   ----------------------------------------
        BYTE   W72
        BYTE                   Cn3
        BYTE           N96     Gs3
        BYTE   W24
// 041   ----------------------------------------
        BYTE   W72
        BYTE                   Dn3
        BYTE           N96     An3
        BYTE   W24
// 042   ----------------------------------------
        BYTE   W72
        BYTE                   Dn3   v070
        BYTE           N96     As3
        BYTE   W24
// 043   ----------------------------------------
        BYTE   W72
        BYTE                   Dn3   v080
        BYTE           N96     An3
        BYTE   W24
// 044   ----------------------------------------
        BYTE   W72
        BYTE           N90     Dn3   v090
        BYTE           N90     As3
        BYTE   W24
// 045   ----------------------------------------
        BYTE   W96
// 046   ----------------------------------------
        BYTE   W96
// 047   ----------------------------------------
        BYTE   W72
        BYTE           TIE     Bn3   v100
        BYTE           TIE     Fn3
        BYTE   W01
        BYTE           BEND    c_v-1
        BYTE   W05
        BYTE                   c_v-2
        BYTE   W04
        BYTE                   c_v-3
        BYTE   W02
        BYTE           VOL     52
        BYTE   W03
        BYTE           BEND    c_v-4
        BYTE   W04
        BYTE                   c_v-5
        BYTE   W05
// 048   ----------------------------------------
        BYTE           VOL     54
        BYTE           BEND    c_v-6
        BYTE   W04
        BYTE                   c_v-7
        BYTE   W05
        BYTE                   c_v-8
        BYTE   W03
        BYTE           VOL     56
        BYTE   W01
        BYTE           BEND    c_v-9
        BYTE   W05
        BYTE                   c_v-10
        BYTE   W04
        BYTE                   c_v-11
        BYTE   W05
        BYTE                   c_v-12
        BYTE   W04
        BYTE                   c_v-13
        BYTE   W05
        BYTE                   c_v-14
        BYTE   W04
        BYTE                   c_v-15
        BYTE   W05
        BYTE                   c_v-16
        BYTE   W04
        BYTE                   c_v-17
        BYTE   W05
        BYTE                   c_v-18
        BYTE   W04
        BYTE                   c_v-19
        BYTE   W05
        BYTE                   c_v-20
        BYTE   W04
        BYTE                   c_v-21
        BYTE   W05
        BYTE                   c_v-22
        BYTE   W04
        BYTE                   c_v-23
        BYTE   W05
        BYTE                   c_v-24
        BYTE   W04
        BYTE                   c_v-25
        BYTE   W05
        BYTE                   c_v-26
        BYTE   W04
        BYTE                   c_v-27
        BYTE   W02
// 049   ----------------------------------------
        BYTE   W03
        BYTE                   c_v-28
        BYTE   W04
        BYTE                   c_v-29
        BYTE   W05
        BYTE                   c_v-30
        BYTE   W04
        BYTE                   c_v-31
        BYTE   W05
        BYTE                   c_v-32
        BYTE   W04
        BYTE                   c_v-33
        BYTE   W05
        BYTE                   c_v-34
        BYTE   W04
        BYTE                   c_v-35
        BYTE   W05
        BYTE                   c_v-36
        BYTE   W04
        BYTE                   c_v-37
        BYTE   W05
        BYTE                   c_v-38
        BYTE   W04
        BYTE                   c_v-39
        BYTE   W05
        BYTE                   c_v-40
        BYTE   W04
        BYTE                   c_v-41
        BYTE   W05
        BYTE                   c_v-42
        BYTE   W04
        BYTE                   c_v-43
        BYTE   W02
        BYTE           VOL     54
        BYTE   W03
        BYTE           BEND    c_v-44
        BYTE   W04
        BYTE                   c_v-45
        BYTE   W05
        BYTE           VOL     52
        BYTE           BEND    c_v-46
        BYTE   W04
        BYTE                   c_v-47
        BYTE   W05
        BYTE                   c_v-48
        BYTE   W03
// 050   ----------------------------------------
        BYTE           VOL     50
        BYTE   W01
        BYTE           BEND    c_v-49
        BYTE   W05
        BYTE                   c_v-50
        BYTE   W04
        BYTE                   c_v-51
        BYTE   W02
        BYTE           VOL     48
        BYTE   W03
        BYTE           BEND    c_v-52
        BYTE   W04
        BYTE                   c_v-53
        BYTE   W05
        BYTE           VOL     46
        BYTE           BEND    c_v-54
        BYTE   W04
        BYTE                   c_v-55
        BYTE   W05
        BYTE                   c_v-56
        BYTE   W03
        BYTE           VOL     44
        BYTE   W01
        BYTE           BEND    c_v-57
        BYTE   W05
        BYTE                   c_v-58
        BYTE   W04
        BYTE                   c_v-59
        BYTE   W02
        BYTE           VOL     42
        BYTE   W03
        BYTE           BEND    c_v-60
        BYTE   W04
        BYTE                   c_v-61
        BYTE   W05
        BYTE           VOL     40
        BYTE           BEND    c_v-62
        BYTE   W04
        BYTE                   c_v-63
        BYTE   W08
        BYTE           VOL     38
        BYTE   W12
        BYTE                   36
        BYTE   W12
// 051   ----------------------------------------
        BYTE                   34
        BYTE   W12
        BYTE                   32
        BYTE   W12
        BYTE                   30
        BYTE   W12
        BYTE                   28
        BYTE   W12
        BYTE                   26
        BYTE   W12
        BYTE                   24
        BYTE   W12
        BYTE           EOT
        BYTE           EOT     Bn3
        BYTE           VOL     40
        BYTE   GoTo
         POIN2  obps1fogofphantom_3_LOOP
        BYTE   W24
// 052   ----------------------------------------
        BYTE   W72
        BYTE   FINE

//****************** Track 4 (Midi-Chn.4) ******************//

obps1fogofphantom_4:
        BYTE   KEYSH   obps1fogofphantom_key+0
// 000   ----------------------------------------
        BYTE           VOICE   19
        BYTE           VOL     60
        BYTE   W96
// 001   ----------------------------------------
        BYTE   W96
// 002   ----------------------------------------
        BYTE   W96
// 003   ----------------------------------------
obps1fogofphantom_4_LOOP:
        BYTE   W12
        BYTE           VOICE   13
        BYTE   W06
        BYTE           MOD     32
        BYTE           MODT    mod_tre
        BYTE           BEND    c_v+1
        BYTE           N06     An4   v024
        BYTE   W06
        BYTE           PAN     c_v+8
        BYTE   W06
        BYTE                   c_v+16
        BYTE           N06     As4
        BYTE   W06
        BYTE           PAN     c_v+24
        BYTE   W06
        BYTE                   c_v+32
        BYTE           N06     Fn5
        BYTE   W06
        BYTE           PAN     c_v+40
        BYTE   W06
        BYTE                   c_v+48
        BYTE           N06     En5
        BYTE   W06
        BYTE           PAN     c_v+56
        BYTE   W06
        BYTE                   c_v+63
        BYTE           N06     Cn5
        BYTE   W06
        BYTE           PAN     c_v+56
        BYTE   W06
        BYTE                   c_v+48
        BYTE           N06     Dn5
        BYTE   W06
        BYTE           PAN     c_v+40
        BYTE   W06
        BYTE                   c_v+32
        BYTE           N06     As4
        BYTE   W06
// 004   ----------------------------------------
obps1fogofphantom_4_4:
        BYTE           PAN     c_v+24
        BYTE   W06
        BYTE                   c_v+16
        BYTE           N06     Cn5   v024
        BYTE   W06
        BYTE           PAN     c_v+8
        BYTE   W06
        BYTE                   c_v+0
        BYTE           N06     An4
        BYTE   W06
        BYTE           PAN     c_v-8
        BYTE   W06
        BYTE                   c_v-16
        BYTE           N06     As4
        BYTE   W06
        BYTE           PAN     c_v-24
        BYTE   W06
        BYTE                   c_v-32
        BYTE           N06     Fn4
        BYTE   W06
        BYTE           PAN     c_v-40
        BYTE   W06
        BYTE                   c_v-48
        BYTE           N06     Gn4
        BYTE   W06
        BYTE           PAN     c_v-56
        BYTE   W06
        BYTE                   c_v-64
        BYTE           N06     Ds4
        BYTE   W06
        BYTE           PAN     c_v-56
        BYTE   W06
        BYTE                   c_v-48
        BYTE           N06     Dn4
        BYTE   W06
        BYTE           PAN     c_v-40
        BYTE   W06
        BYTE                   c_v-32
        BYTE           N06     Ds4
        BYTE   W06
        BYTE   PEND
// 005   ----------------------------------------
obps1fogofphantom_4_5:
        BYTE           PAN     c_v-24
        BYTE   W06
        BYTE                   c_v-16
        BYTE   W06
        BYTE                   c_v-8
        BYTE   W06
        BYTE                   c_v+0
        BYTE           N06     An4   v024
        BYTE   W06
        BYTE           PAN     c_v+8
        BYTE   W06
        BYTE                   c_v+16
        BYTE           N06     As4
        BYTE   W06
        BYTE           PAN     c_v+24
        BYTE   W06
        BYTE                   c_v+32
        BYTE           N06     Fn5
        BYTE   W06
        BYTE           PAN     c_v+40
        BYTE   W06
        BYTE                   c_v+48
        BYTE           N06     En5
        BYTE   W06
        BYTE           PAN     c_v+56
        BYTE   W06
        BYTE                   c_v+63
        BYTE           N06     Cn5
        BYTE   W06
        BYTE           PAN     c_v+56
        BYTE   W06
        BYTE                   c_v+48
        BYTE           N06     Dn5
        BYTE   W06
        BYTE           PAN     c_v+40
        BYTE   W06
        BYTE                   c_v+32
        BYTE           N06     As4
        BYTE   W06
        BYTE   PEND
// 006   ----------------------------------------
        BYTE   PATT
         POIN2  obps1fogofphantom_4_4
// 007   ----------------------------------------
        BYTE   PATT
         POIN2  obps1fogofphantom_4_5
// 008   ----------------------------------------
        BYTE           PAN     c_v+24
        BYTE   W06
        BYTE                   c_v+16
        BYTE           N06     Cn5   v024
        BYTE   W06
        BYTE           PAN     c_v+8
        BYTE   W06
        BYTE                   c_v+0
        BYTE           N06     An4
        BYTE   W06
        BYTE           PAN     c_v-8
        BYTE   W04
        BYTE           BEND    c_v+0
        BYTE   W02
        BYTE           PAN     c_v-16
        BYTE           N06     As4
        BYTE   W06
        BYTE           PAN     c_v-24
        BYTE   W06
        BYTE                   c_v-32
        BYTE           N06     Fn4
        BYTE   W06
        BYTE           PAN     c_v-40
        BYTE   W06
        BYTE                   c_v-48
        BYTE           N06     Gn4
        BYTE   W06
        BYTE           PAN     c_v-56
        BYTE   W06
        BYTE                   c_v-64
        BYTE           N06     Ds4
        BYTE   W06
        BYTE           PAN     c_v-56
        BYTE   W06
        BYTE                   c_v-48
        BYTE           N06     Dn4
        BYTE   W06
        BYTE           PAN     c_v-40
        BYTE   W06
        BYTE                   c_v-32
        BYTE           N06     Ds4
        BYTE   W06
// 009   ----------------------------------------
        BYTE   PATT
         POIN2  obps1fogofphantom_4_5
// 010   ----------------------------------------
        BYTE   PATT
         POIN2  obps1fogofphantom_4_4
// 011   ----------------------------------------
        BYTE   PATT
         POIN2  obps1fogofphantom_4_5
// 012   ----------------------------------------
        BYTE   PATT
         POIN2  obps1fogofphantom_4_4
// 013   ----------------------------------------
        BYTE   PATT
         POIN2  obps1fogofphantom_4_5
// 014   ----------------------------------------
        BYTE   PATT
         POIN2  obps1fogofphantom_4_4
// 015   ----------------------------------------
        BYTE   PATT
         POIN2  obps1fogofphantom_4_5
// 016   ----------------------------------------
        BYTE   PATT
         POIN2  obps1fogofphantom_4_4
// 017   ----------------------------------------
        BYTE   PATT
         POIN2  obps1fogofphantom_4_5
// 018   ----------------------------------------
        BYTE   PATT
         POIN2  obps1fogofphantom_4_4
// 019   ----------------------------------------
        BYTE           PAN     c_v-24
        BYTE   W06
        BYTE                   c_v-16
        BYTE   W90
// 020   ----------------------------------------
        BYTE   W96
// 021   ----------------------------------------
        BYTE                   c_v-8
        BYTE           MOD     10
        BYTE           VOICE   19
        BYTE           N48     Dn3   v064
        BYTE           N48     An2
        BYTE   W48
        BYTE           N24     Cn3
        BYTE           N24     Gn2
        BYTE   W24
        BYTE           N48     Dn3
        BYTE           N48     An2
        BYTE   W24
// 022   ----------------------------------------
        BYTE   W24
        BYTE           N24     Cn3
        BYTE           N24     An2
        BYTE   W24
        BYTE           N12     Dn3
        BYTE           N12     An2
        BYTE   W12
        BYTE                   Fn3
        BYTE           N12     Dn3
        BYTE   W12
        BYTE                   En3
        BYTE           N12     Cn3
        BYTE   W12
        BYTE                   Dn3
        BYTE           N12     An2
        BYTE   W12
// 023   ----------------------------------------
        BYTE           N24     Cn3
        BYTE           N24     Gn2
        BYTE   W24
        BYTE                   Dn3
        BYTE           N24     An2
        BYTE   W24
        BYTE           N48
        BYTE           N48     Dn2
        BYTE   W48
// 024   ----------------------------------------
        BYTE           VOICE   20
        BYTE           N48     Dn4   v080
        BYTE           N48     An3
        BYTE   W48
        BYTE           N24     Cn4
        BYTE           N24     Gn3
        BYTE   W24
        BYTE           N48     Dn4
        BYTE           N48     An3
        BYTE   W24
// 025   ----------------------------------------
        BYTE   W24
        BYTE           N24     Cn4
        BYTE           N24     An3
        BYTE   W24
        BYTE           N12     Dn4
        BYTE           N12     An3
        BYTE   W12
        BYTE                   Fn4
        BYTE           N12     Dn4
        BYTE   W12
        BYTE                   En4
        BYTE           N12     Cn4
        BYTE   W12
        BYTE                   Dn4
        BYTE           N12     An3
        BYTE   W12
// 026   ----------------------------------------
        BYTE                   Cn4
        BYTE           N12     Gn3
        BYTE   W12
        BYTE                   En4
        BYTE           N12     Cn4
        BYTE   W12
        BYTE                   Fn4
        BYTE           N12     Cn4
        BYTE   W12
        BYTE                   Gs4
        BYTE           N12     Fn4
        BYTE   W12
        BYTE                   Gn4
        BYTE           N12     En4
        BYTE   W12
        BYTE                   Fn4
        BYTE           N12     Cn4
        BYTE   W12
        BYTE                   Ds4
        BYTE           N12     As3
        BYTE   W12
        BYTE                   Gn4
        BYTE           N12     Ds4
        BYTE   W12
// 027   ----------------------------------------
        BYTE           TIE     Ds4   v054
        BYTE           TIE     Bn3
        BYTE   W96
// 028   ----------------------------------------
        BYTE   W48
        BYTE           EOT     Ds4
        BYTE                   Bn3
        BYTE           TIE     Dn4
        BYTE           TIE     As3
        BYTE   W48
// 029   ----------------------------------------
        BYTE   W96
// 030   ----------------------------------------
        BYTE           EOT     Dn4
        BYTE                   As3
        BYTE           TIE     Cs4
        BYTE           TIE     An3
        BYTE   W96
// 031   ----------------------------------------
        BYTE   W48
        BYTE           EOT     Cs4
        BYTE                   An3
        BYTE           TIE     Cn4
        BYTE           TIE     Gs3
        BYTE   W48
// 032   ----------------------------------------
        BYTE   W96
// 033   ----------------------------------------
        BYTE           EOT     Cn4
        BYTE                   Gs3
        BYTE   W72
        BYTE           VOICE   19
        BYTE           N48     Dn3   v064
        BYTE           N48     An2
        BYTE   W24
// 034   ----------------------------------------
        BYTE   W24
        BYTE           N24     Cn3
        BYTE           N24     Gn2
        BYTE   W24
        BYTE           N48     Dn3
        BYTE           N48     An2
        BYTE   W48
// 035   ----------------------------------------
        BYTE           N24     Cn3
        BYTE           N24     An2
        BYTE   W24
        BYTE           N12     Dn3
        BYTE           N12     An2
        BYTE   W12
        BYTE                   Fn3
        BYTE           N12     Dn3
        BYTE   W12
        BYTE                   En3
        BYTE           N12     Cn3
        BYTE   W12
        BYTE                   Dn3
        BYTE           N12     An2
        BYTE   W12
        BYTE           N24     Cn3
        BYTE           N24     Gn2
        BYTE   W24
// 036   ----------------------------------------
        BYTE                   Dn3
        BYTE           N24     An2
        BYTE   W24
        BYTE           N48
        BYTE           N48     Dn2
        BYTE   W48
        BYTE           VOICE   20
        BYTE           N48     Dn4   v088
        BYTE           N48     An3
        BYTE   W24
// 037   ----------------------------------------
        BYTE   W24
        BYTE           N24     Cn4
        BYTE           N24     Gn3
        BYTE   W24
        BYTE           N48     Dn4
        BYTE           N48     An3
        BYTE   W48
// 038   ----------------------------------------
        BYTE           N24     Cn4
        BYTE           N24     An3
        BYTE   W24
        BYTE           N12     Dn4
        BYTE           N12     An3
        BYTE   W12
        BYTE                   Fn4
        BYTE           N12     Dn4
        BYTE   W12
        BYTE                   En4
        BYTE           N12     Cn4
        BYTE   W12
        BYTE                   Dn4
        BYTE           N12     An3
        BYTE   W12
        BYTE           N24     Cn4
        BYTE           N24     Gn3
        BYTE   W24
// 039   ----------------------------------------
        BYTE           N48     Fn4
        BYTE           N48     An3
        BYTE   W72
        BYTE           VOL     48
        BYTE           VOICE   21
        BYTE           N96     Dn2   v052
        BYTE   W06
        BYTE           VOL     52
        BYTE   W06
        BYTE                   56
        BYTE   W06
        BYTE                   58
        BYTE   W06
// 040   ----------------------------------------
        BYTE                   60
        BYTE   W12
        BYTE                   58
        BYTE   W12
        BYTE                   56
        BYTE   W12
        BYTE                   54
        BYTE   W12
        BYTE                   52
        BYTE   W12
        BYTE                   50
        BYTE   W06
        BYTE                   48
        BYTE   W06
        BYTE                   50
        BYTE           N96     Cn2
        BYTE   W06
        BYTE           VOL     52
        BYTE   W06
        BYTE                   56
        BYTE   W06
        BYTE                   58
        BYTE   W06
// 041   ----------------------------------------
        BYTE                   60
        BYTE   W12
        BYTE                   58
        BYTE   W12
        BYTE                   56
        BYTE   W06
        BYTE                   54
        BYTE   W12
        BYTE                   52
        BYTE   W12
        BYTE                   50
        BYTE   W12
        BYTE                   48
        BYTE   W06
        BYTE           N96     An2   v044
        BYTE   W24
// 042   ----------------------------------------
        BYTE           VOL     46
        BYTE   W12
        BYTE                   44
        BYTE   W12
        BYTE                   46
        BYTE   W12
        BYTE                   48
        BYTE   W12
        BYTE                   50
        BYTE   W12
        BYTE                   52
        BYTE   W06
        BYTE                   54
        BYTE   W06
        BYTE                   56
        BYTE           N96     As2
        BYTE   W12
        BYTE           VOL     54
        BYTE   W12
// 043   ----------------------------------------
        BYTE                   52
        BYTE   W06
        BYTE                   50
        BYTE   W12
        BYTE                   48
        BYTE   W12
        BYTE                   46
        BYTE   W12
        BYTE                   44
        BYTE   W06
        BYTE                   48
        BYTE   W24
        BYTE           N96     An2
        BYTE   W06
        BYTE           VOL     46
        BYTE   W12
        BYTE                   44
        BYTE   W06
// 044   ----------------------------------------
        BYTE   W06
        BYTE                   46
        BYTE   W12
        BYTE                   48
        BYTE   W12
        BYTE                   50
        BYTE   W12
        BYTE                   52
        BYTE   W06
        BYTE                   54
        BYTE   W06
        BYTE                   56
        BYTE   W12
        BYTE                   54
        BYTE   W06
        BYTE           N96     As2
        BYTE   W06
        BYTE           VOL     52
        BYTE   W06
        BYTE                   50
        BYTE   W12
// 045   ----------------------------------------
        BYTE                   48
        BYTE   W12
        BYTE                   46
        BYTE   W12
        BYTE                   44
        BYTE   W48
        BYTE                   46
        BYTE           N96     Cn3
        BYTE   W06
        BYTE           VOL     48
        BYTE   W12
        BYTE                   46
        BYTE   W06
// 046   ----------------------------------------
        BYTE                   44
        BYTE   W06
        BYTE                   42
        BYTE   W06
        BYTE                   40
        BYTE   W06
        BYTE                   38
        BYTE   W06
        BYTE                   36
        BYTE   W06
        BYTE                   34
        BYTE   W06
        BYTE                   32
        BYTE   W06
        BYTE                   30
        BYTE   W06
        BYTE                   28
        BYTE   W06
        BYTE                   26
        BYTE   W06
        BYTE                   24
        BYTE   W06
        BYTE                   22
        BYTE   W06
        BYTE                   20
        BYTE   W24
// 047   ----------------------------------------
        BYTE   W96
// 048   ----------------------------------------
        BYTE   W96
// 049   ----------------------------------------
        BYTE   W96
// 050   ----------------------------------------
        BYTE   W96
// 051   ----------------------------------------
        BYTE   W72
        BYTE           VOICE   19
        BYTE           VOL     60
        BYTE           PAN     c_v+0
        BYTE           MOD     0
        BYTE           MODT    mod_vib
        BYTE   GoTo
         POIN2  obps1fogofphantom_4_LOOP
        BYTE   W24
// 052   ----------------------------------------
        BYTE   W72
        BYTE   FINE

//****************** Track 5 (Midi-Chn.5) ******************//

obps1fogofphantom_5:
        BYTE   KEYSH   obps1fogofphantom_key+0
// 000   ----------------------------------------
        BYTE           VOICE   51
        BYTE           VOL     48
        BYTE           BENDR   127
        BYTE   W96
// 001   ----------------------------------------
        BYTE   W96
// 002   ----------------------------------------
        BYTE   W96
// 003   ----------------------------------------
obps1fogofphantom_5_LOOP:
        BYTE           PAN     c_v-16
        BYTE           N06     Fn2   v064
        BYTE   W12
        BYTE                   Fn2   v080
        BYTE   W12
        BYTE                   Fn2   v024
        BYTE   W12
        BYTE                   Fn2   v056
        BYTE   W12
        BYTE                   Fn2   v016
        BYTE   W12
        BYTE                   Fn2   v056
        BYTE   W12
        BYTE                   Fn2   v016
        BYTE   W12
        BYTE                   Fn2   v064
        BYTE   W12
// 004   ----------------------------------------
obps1fogofphantom_5_4:
        BYTE           N06     Fn2   v064
        BYTE   W12
        BYTE                   Fn2   v080
        BYTE   W12
        BYTE                   Fn2   v024
        BYTE   W12
        BYTE                   Fn2   v056
        BYTE   W12
        BYTE                   Fn2   v016
        BYTE   W12
        BYTE                   Fn2   v056
        BYTE   W12
        BYTE                   Fn2   v016
        BYTE   W12
        BYTE                   Fn2   v064
        BYTE   W12
        BYTE   PEND
// 005   ----------------------------------------
        BYTE   PATT
         POIN2  obps1fogofphantom_5_4
// 006   ----------------------------------------
        BYTE   PATT
         POIN2  obps1fogofphantom_5_4
// 007   ----------------------------------------
        BYTE   PATT
         POIN2  obps1fogofphantom_5_4
// 008   ----------------------------------------
        BYTE   PATT
         POIN2  obps1fogofphantom_5_4
// 009   ----------------------------------------
        BYTE   PATT
         POIN2  obps1fogofphantom_5_4
// 010   ----------------------------------------
        BYTE   PATT
         POIN2  obps1fogofphantom_5_4
// 011   ----------------------------------------
        BYTE   PATT
         POIN2  obps1fogofphantom_5_4
// 012   ----------------------------------------
        BYTE   PATT
         POIN2  obps1fogofphantom_5_4
// 013   ----------------------------------------
        BYTE   PATT
         POIN2  obps1fogofphantom_5_4
// 014   ----------------------------------------
        BYTE   PATT
         POIN2  obps1fogofphantom_5_4
// 015   ----------------------------------------
        BYTE   PATT
         POIN2  obps1fogofphantom_5_4
// 016   ----------------------------------------
        BYTE   PATT
         POIN2  obps1fogofphantom_5_4
// 017   ----------------------------------------
        BYTE   PATT
         POIN2  obps1fogofphantom_5_4
// 018   ----------------------------------------
        BYTE   PATT
         POIN2  obps1fogofphantom_5_4
// 019   ----------------------------------------
        BYTE   W96
// 020   ----------------------------------------
        BYTE   W96
// 021   ----------------------------------------
        BYTE           N12     Fn2   v056
        BYTE   W12
        BYTE                   An2
        BYTE           N12     Dn2
        BYTE   W12
        BYTE                   Gn2
        BYTE   W12
        BYTE                   As2
        BYTE           N12     Fn2
        BYTE   W12
        BYTE                   An2
        BYTE           N12     Dn2
        BYTE   W12
        BYTE                   Gn2
        BYTE           N12     Dn2
        BYTE   W12
        BYTE                   Fn2
        BYTE   W12
        BYTE                   An2
        BYTE           N12     Dn2
        BYTE   W12
// 022   ----------------------------------------
        BYTE                   Gn2
        BYTE   W12
        BYTE                   As2
        BYTE           N12     Fn2
        BYTE   W12
        BYTE                   An2
        BYTE           N12     Dn2
        BYTE   W12
        BYTE                   Gn2
        BYTE           N12     Dn2
        BYTE   W12
        BYTE                   Fn2
        BYTE   W12
        BYTE                   An2
        BYTE           N12     Dn2
        BYTE   W12
        BYTE                   As2
        BYTE           N12     Fn2
        BYTE   W12
        BYTE                   En2
        BYTE   W12
// 023   ----------------------------------------
        BYTE                   Fn2
        BYTE   W12
        BYTE                   Gn2
        BYTE   W12
        BYTE           N60     An2
        BYTE           N60     Dn2
        BYTE   W72
// 024   ----------------------------------------
        BYTE   W96
// 025   ----------------------------------------
        BYTE   W96
// 026   ----------------------------------------
        BYTE   W96
// 027   ----------------------------------------
        BYTE   W96
// 028   ----------------------------------------
        BYTE   W96
// 029   ----------------------------------------
        BYTE   W96
// 030   ----------------------------------------
        BYTE   W96
// 031   ----------------------------------------
        BYTE   W96
// 032   ----------------------------------------
        BYTE   W96
// 033   ----------------------------------------
        BYTE   W72
        BYTE           N12     Fn2
        BYTE   W12
        BYTE                   An2
        BYTE           N12     Dn2
        BYTE   W12
// 034   ----------------------------------------
        BYTE                   Gn2
        BYTE   W12
        BYTE                   As2
        BYTE           N12     Fn2
        BYTE   W12
        BYTE                   An2
        BYTE           N12     Dn2
        BYTE   W12
        BYTE                   Gn2
        BYTE           N12     Dn2
        BYTE   W12
        BYTE                   Fn2
        BYTE   W12
        BYTE                   An2
        BYTE           N12     Dn2
        BYTE   W12
        BYTE                   Gn2
        BYTE   W12
        BYTE                   As2
        BYTE           N12     Fn2
        BYTE   W12
// 035   ----------------------------------------
        BYTE                   An2
        BYTE           N12     Dn2
        BYTE   W12
        BYTE                   Gn2
        BYTE           N12     Dn2
        BYTE   W12
        BYTE                   Fn2
        BYTE   W12
        BYTE                   An2
        BYTE           N12     Dn2
        BYTE   W12
        BYTE                   As2
        BYTE           N12     Fn2
        BYTE   W12
        BYTE                   En2
        BYTE   W12
        BYTE                   Fn2
        BYTE   W12
        BYTE                   Gn2
        BYTE   W12
// 036   ----------------------------------------
        BYTE           N60     An2   v080
        BYTE           N60     Dn2
        BYTE   W96
// 037   ----------------------------------------
        BYTE   W96
// 038   ----------------------------------------
        BYTE   W96
// 039   ----------------------------------------
        BYTE   W96
// 040   ----------------------------------------
        BYTE   W96
// 041   ----------------------------------------
        BYTE   W96
// 042   ----------------------------------------
        BYTE   W96
// 043   ----------------------------------------
        BYTE   W96
// 044   ----------------------------------------
        BYTE   W96
// 045   ----------------------------------------
        BYTE   W72
        BYTE           VOL     52
        BYTE           VOICE   41
        BYTE           N96     Cn4   v056
        BYTE   W02
        BYTE           VOL     56
        BYTE   W04
        BYTE                   60
        BYTE   W02
        BYTE                   62
        BYTE   W04
        BYTE                   64
        BYTE   W12
// 046   ----------------------------------------
        BYTE                   66
        BYTE   W12
        BYTE                   64
        BYTE   W12
        BYTE                   62
        BYTE   W06
        BYTE                   60
        BYTE   W06
        BYTE                   58
        BYTE   W06
        BYTE                   56
        BYTE   W12
        BYTE                   54
        BYTE   W06
        BYTE                   52
        BYTE   W06
        BYTE                   54
        BYTE   W06
        BYTE                   56
        BYTE           TIE     Cs4
        BYTE   W02
        BYTE           VOL     58
        BYTE   W04
        BYTE                   60
        BYTE   W02
        BYTE                   62
        BYTE   W04
        BYTE                   64
        BYTE   W06
        BYTE                   66
        BYTE   W06
// 047   ----------------------------------------
        BYTE                   68
        BYTE   W12
        BYTE                   66
        BYTE   W24
        BYTE                   64
        BYTE   W24
        BYTE                   62
        BYTE   W24
        BYTE                   60
        BYTE   W12
// 048   ----------------------------------------
        BYTE                   58
        BYTE   W12
        BYTE                   56
        BYTE   W12
        BYTE                   54
        BYTE   W12
        BYTE                   52
        BYTE   W12
        BYTE                   50
        BYTE   W12
        BYTE                   48
        BYTE   W12
        BYTE                   46
        BYTE   W12
        BYTE                   44
        BYTE   W12
// 049   ----------------------------------------
        BYTE                   42
        BYTE   W12
        BYTE                   40
        BYTE   W12
        BYTE                   38
        BYTE   W12
        BYTE                   36
        BYTE   W12
        BYTE                   34
        BYTE   W12
        BYTE                   32
        BYTE   W12
        BYTE           EOT
        BYTE   W24
// 050   ----------------------------------------
        BYTE   W96
// 051   ----------------------------------------
        BYTE   W72
        BYTE           VOICE   51
        BYTE           VOL     48
        BYTE   GoTo
         POIN2  obps1fogofphantom_5_LOOP
        BYTE   W24
// 052   ----------------------------------------
        BYTE   W72
        BYTE   FINE

//****************** Track 6 (Midi-Chn.6) ******************//

obps1fogofphantom_6:
        BYTE   KEYSH   obps1fogofphantom_key+0
// 000   ----------------------------------------
        BYTE           VOICE   47
        BYTE           VOL     56
        BYTE   W72
        BYTE           N18     Gn2   v100
        BYTE   W24
// 001   ----------------------------------------
obps1fogofphantom_6_1:
        BYTE           N48     Gn2   v100
        BYTE   W72
        BYTE           N18
        BYTE   W24
        BYTE   PEND
// 002   ----------------------------------------
        BYTE   PATT
         POIN2  obps1fogofphantom_6_1
// 003   ----------------------------------------
obps1fogofphantom_6_LOOP:
        BYTE           N48     Gn2   v100
        BYTE   W72
        BYTE           N18
        BYTE   W24
// 004   ----------------------------------------
        BYTE   PATT
         POIN2  obps1fogofphantom_6_1
// 005   ----------------------------------------
        BYTE   PATT
         POIN2  obps1fogofphantom_6_1
// 006   ----------------------------------------
        BYTE   PATT
         POIN2  obps1fogofphantom_6_1
// 007   ----------------------------------------
        BYTE   PATT
         POIN2  obps1fogofphantom_6_1
// 008   ----------------------------------------
        BYTE   PATT
         POIN2  obps1fogofphantom_6_1
// 009   ----------------------------------------
        BYTE   PATT
         POIN2  obps1fogofphantom_6_1
// 010   ----------------------------------------
        BYTE   PATT
         POIN2  obps1fogofphantom_6_1
// 011   ----------------------------------------
        BYTE   PATT
         POIN2  obps1fogofphantom_6_1
// 012   ----------------------------------------
        BYTE   PATT
         POIN2  obps1fogofphantom_6_1
// 013   ----------------------------------------
        BYTE   PATT
         POIN2  obps1fogofphantom_6_1
// 014   ----------------------------------------
        BYTE   PATT
         POIN2  obps1fogofphantom_6_1
// 015   ----------------------------------------
        BYTE   PATT
         POIN2  obps1fogofphantom_6_1
// 016   ----------------------------------------
        BYTE   PATT
         POIN2  obps1fogofphantom_6_1
// 017   ----------------------------------------
        BYTE   PATT
         POIN2  obps1fogofphantom_6_1
// 018   ----------------------------------------
        BYTE   PATT
         POIN2  obps1fogofphantom_6_1
// 019   ----------------------------------------
        BYTE   W48
        BYTE           N24     Dn3   v086
        BYTE   W24
        BYTE                   Dn3   v075
        BYTE   W24
// 020   ----------------------------------------
        BYTE           N12     Dn3   v064
        BYTE   W15
        BYTE                   Dn3   v054
        BYTE   W18
        BYTE                   Dn3   v043
        BYTE   W60
        BYTE   W03
// 021   ----------------------------------------
obps1fogofphantom_6_21:
        BYTE           N18     Dn3   v090
        BYTE   W24
        BYTE                   Dn3
        BYTE   W24
        BYTE                   Dn3
        BYTE   W24
        BYTE                   Dn3
        BYTE   W24
        BYTE   PEND
// 022   ----------------------------------------
        BYTE   PATT
         POIN2  obps1fogofphantom_6_21
// 023   ----------------------------------------
        BYTE           N18     Dn3   v090
        BYTE   W24
        BYTE                   Dn3
        BYTE   W24
        BYTE                   Dn3
        BYTE   W24
        BYTE           N09
        BYTE   W12
        BYTE                   Dn3
        BYTE   W12
// 024   ----------------------------------------
        BYTE   PATT
         POIN2  obps1fogofphantom_6_21
// 025   ----------------------------------------
        BYTE   PATT
         POIN2  obps1fogofphantom_6_21
// 026   ----------------------------------------
        BYTE   W24
        BYTE           N18     Fn3   v090
        BYTE   W24
        BYTE                   Fn3
        BYTE   W48
// 027   ----------------------------------------
        BYTE           N24     Gs3   v127
        BYTE   W24
        BYTE                   Gs3   v048
        BYTE   W72
// 028   ----------------------------------------
        BYTE   W24
        BYTE                   Gs3   v075
        BYTE   W24
        BYTE                   Gs3   v097
        BYTE   W24
        BYTE                   Gs3   v048
        BYTE   W24
// 029   ----------------------------------------
        BYTE   W72
        BYTE                   Gs3   v075
        BYTE   W24
// 030   ----------------------------------------
        BYTE                   Fs3   v097
        BYTE   W24
        BYTE                   Fs3   v048
        BYTE   W72
// 031   ----------------------------------------
        BYTE   W24
        BYTE                   Fs3   v075
        BYTE   W24
        BYTE                   Fs3   v097
        BYTE   W24
        BYTE                   Fs3   v048
        BYTE   W24
// 032   ----------------------------------------
        BYTE   W24
        BYTE                   Fs3   v097
        BYTE   W24
        BYTE                   Fs3   v048
        BYTE   W48
// 033   ----------------------------------------
        BYTE           N12     Dn3   v054
        BYTE   W12
        BYTE                   Dn3   v043
        BYTE   W36
        BYTE           N06     Dn3   v056
        BYTE   W06
        BYTE           N09     Dn3   v072
        BYTE   W09
        BYTE                   Dn3   v080
        BYTE   W09
        BYTE           N24     Dn3   v088
        BYTE   W24
// 034   ----------------------------------------
obps1fogofphantom_6_34:
        BYTE           N18     Dn3   v088
        BYTE   W24
        BYTE                   Dn3
        BYTE   W24
        BYTE                   Dn3
        BYTE   W24
        BYTE                   Dn3
        BYTE   W24
        BYTE   PEND
// 035   ----------------------------------------
        BYTE   PATT
         POIN2  obps1fogofphantom_6_34
// 036   ----------------------------------------
        BYTE           N18     Dn3   v088
        BYTE   W24
        BYTE                   Dn3
        BYTE   W24
        BYTE           N09
        BYTE   W12
        BYTE                   Dn3
        BYTE   W12
        BYTE           N18
        BYTE   W24
// 037   ----------------------------------------
        BYTE   PATT
         POIN2  obps1fogofphantom_6_34
// 038   ----------------------------------------
        BYTE   PATT
         POIN2  obps1fogofphantom_6_34
// 039   ----------------------------------------
        BYTE           N24     Dn3   v088
        BYTE   W24
        BYTE                   Dn3   v048
        BYTE   W72
// 040   ----------------------------------------
        BYTE   W96
// 041   ----------------------------------------
        BYTE   W96
// 042   ----------------------------------------
        BYTE   W96
// 043   ----------------------------------------
        BYTE   W96
// 044   ----------------------------------------
        BYTE   W96
// 045   ----------------------------------------
        BYTE   W72
        BYTE           N96     Gn2   v100
        BYTE   W24
// 046   ----------------------------------------
        BYTE   W96
// 047   ----------------------------------------
        BYTE   W72
        BYTE           N24
        BYTE   W24
// 048   ----------------------------------------
obps1fogofphantom_6_48:
        BYTE   W48
        BYTE           N18     Gn2   v100
        BYTE   W24
        BYTE           N48
        BYTE   W24
        BYTE   PEND
// 049   ----------------------------------------
        BYTE   PATT
         POIN2  obps1fogofphantom_6_48
// 050   ----------------------------------------
        BYTE   PATT
         POIN2  obps1fogofphantom_6_48
// 051   ----------------------------------------
        BYTE   W48
        BYTE           N18     Gn2   v100
        BYTE   W24
        BYTE   GoTo
         POIN2  obps1fogofphantom_6_LOOP
        BYTE   W24
// 052   ----------------------------------------
        BYTE   W72
        BYTE   FINE

//****************** Track 7 (Midi-Chn.7) ******************//

obps1fogofphantom_7:
        BYTE   KEYSH   obps1fogofphantom_key+0
// 000   ----------------------------------------
        BYTE           VOICE   124
        BYTE           VOL     48
        BYTE   W96
// 001   ----------------------------------------
        BYTE   W96
// 002   ----------------------------------------
        BYTE   W96
// 003   ----------------------------------------
obps1fogofphantom_7_LOOP:
        BYTE   W96
// 004   ----------------------------------------
        BYTE   W96
// 005   ----------------------------------------
        BYTE   W96
// 006   ----------------------------------------
        BYTE   W96
// 007   ----------------------------------------
        BYTE   W96
// 008   ----------------------------------------
        BYTE   W96
// 009   ----------------------------------------
        BYTE   W96
// 010   ----------------------------------------
        BYTE   W96
// 011   ----------------------------------------
        BYTE   W96
// 012   ----------------------------------------
        BYTE   W96
// 013   ----------------------------------------
        BYTE   W96
// 014   ----------------------------------------
        BYTE   W96
// 015   ----------------------------------------
        BYTE   W96
// 016   ----------------------------------------
        BYTE   W96
// 017   ----------------------------------------
        BYTE   W96
// 018   ----------------------------------------
        BYTE   W96
// 019   ----------------------------------------
        BYTE   W96
// 020   ----------------------------------------
        BYTE   W48
        BYTE           PAN     c_v-16
        BYTE           N03     Gn3   v031
        BYTE   W03
        BYTE                   Gn3
        BYTE   W03
        BYTE                   Gn3   v041
        BYTE   W03
        BYTE                   Gn3   v050
        BYTE   W03
        BYTE           PAN     c_v-12
        BYTE           N03     Gn3   v059
        BYTE   W03
        BYTE                   Gn3
        BYTE   W03
        BYTE           PAN     c_v-8
        BYTE           N03     Gn3   v082
        BYTE   W03
        BYTE                   Gn3   v069
        BYTE   W03
        BYTE           PAN     c_v-4
        BYTE           N04     Gn3   v059
        BYTE   W04
        BYTE           N05     Gn3   v050
        BYTE   W05
        BYTE                   Gn3
        BYTE   W05
        BYTE                   Gn3   v041
        BYTE   W05
        BYTE           PAN     c_v+0
        BYTE           N05     Gn3   v031
        BYTE   W05
// 021   ----------------------------------------
        BYTE   W96
// 022   ----------------------------------------
        BYTE   W96
// 023   ----------------------------------------
        BYTE   W96
// 024   ----------------------------------------
        BYTE   W96
// 025   ----------------------------------------
        BYTE   W96
// 026   ----------------------------------------
        BYTE           PAN     c_v+32
        BYTE           N03     Gn3   v069
        BYTE   W03
        BYTE                   Gn3
        BYTE   W03
        BYTE           PAN     c_v+24
        BYTE           N03
        BYTE   W03
        BYTE                   Gn3   v079
        BYTE   W03
        BYTE           PAN     c_v+16
        BYTE           N03     Gn3   v089
        BYTE   W03
        BYTE                   Gn3
        BYTE   W03
        BYTE           PAN     c_v+8
        BYTE           N03
        BYTE   W03
        BYTE                   Gn3   v080
        BYTE   W03
        BYTE           PAN     c_v+0
        BYTE           N03     Gn3   v071
        BYTE   W48
        BYTE           PAN     c_v-16
        BYTE           N03     Gn3   v069
        BYTE   W03
        BYTE                   Gn3
        BYTE   W03
        BYTE           PAN     c_v-12
        BYTE           N03
        BYTE   W03
        BYTE                   Gn3   v079
        BYTE   W03
        BYTE           PAN     c_v-8
        BYTE           N03     Gn3   v089
        BYTE   W03
        BYTE                   Gn3
        BYTE   W03
        BYTE           PAN     c_v-4
        BYTE           N03     Gn3   v080
        BYTE           N72     Fn2   v100
        BYTE   W03
        BYTE           N03     Gn3   v071
        BYTE   W03
// 027   ----------------------------------------
        BYTE           PAN     c_v+0
        BYTE           N06     Gn3   v062
        BYTE   W02
        BYTE           PAN     c_v-8
        BYTE   W04
        BYTE                   c_v-16
        BYTE   W02
        BYTE                   c_v-24
        BYTE   W04
        BYTE                   c_v-32
        BYTE   W84
// 028   ----------------------------------------
        BYTE   W96
// 029   ----------------------------------------
        BYTE   W84
        BYTE                   c_v-16
        BYTE           N72     Fn2   v100
        BYTE   W02
        BYTE           PAN     c_v-8
        BYTE   W04
        BYTE                   c_v+0
        BYTE   W02
        BYTE                   c_v+8
        BYTE   W04
// 030   ----------------------------------------
        BYTE                   c_v+16
        BYTE   W02
        BYTE                   c_v+24
        BYTE   W04
        BYTE                   c_v+32
        BYTE   W90
// 031   ----------------------------------------
        BYTE   W96
// 032   ----------------------------------------
        BYTE   W96
// 033   ----------------------------------------
        BYTE   W24
        BYTE           N03     Gn3   v031
        BYTE   W03
        BYTE                   Gn3
        BYTE   W03
        BYTE           PAN     c_v+24
        BYTE           N03     Gn3   v041
        BYTE   W03
        BYTE                   Gn3   v050
        BYTE   W03
        BYTE           PAN     c_v+16
        BYTE           N04     Gn3   v041
        BYTE   W04
        BYTE           PAN     c_v+8
        BYTE           N05     Gn3   v032
        BYTE   W05
        BYTE           PAN     c_v+0
        BYTE           N05
        BYTE   W48
        BYTE   W03
// 034   ----------------------------------------
        BYTE   W96
// 035   ----------------------------------------
        BYTE   W96
// 036   ----------------------------------------
        BYTE   W96
// 037   ----------------------------------------
        BYTE   W96
// 038   ----------------------------------------
        BYTE   W96
// 039   ----------------------------------------
        BYTE   W96
// 040   ----------------------------------------
obps1fogofphantom_7_40:
        BYTE           VOL     32
        BYTE           N72     Gn2   v056
        BYTE   W02
        BYTE           VOL     40
        BYTE   W06
        BYTE                   48
        BYTE   W88
        BYTE   PEND
// 041   ----------------------------------------
        BYTE   PATT
         POIN2  obps1fogofphantom_7_40
// 042   ----------------------------------------
        BYTE   PATT
         POIN2  obps1fogofphantom_7_40
// 043   ----------------------------------------
        BYTE   PATT
         POIN2  obps1fogofphantom_7_40
// 044   ----------------------------------------
        BYTE   PATT
         POIN2  obps1fogofphantom_7_40
// 045   ----------------------------------------
        BYTE           VOL     32
        BYTE           N72     Gn2   v056
        BYTE   W02
        BYTE           VOL     40
        BYTE   W06
        BYTE                   48
        BYTE   W64
        BYTE           N96     En2   v064
        BYTE   W24
// 046   ----------------------------------------
        BYTE   W96
// 047   ----------------------------------------
        BYTE   W96
// 048   ----------------------------------------
        BYTE   W96
// 049   ----------------------------------------
        BYTE   W96
// 050   ----------------------------------------
        BYTE   W96
// 051   ----------------------------------------
        BYTE   W72
        BYTE   GoTo
         POIN2  obps1fogofphantom_7_LOOP
        BYTE   W24
// 052   ----------------------------------------
        BYTE   W72
        BYTE   FINE


//********************** End of Song ***********************//

        ALIGN 4
obps1fogofphantom:
        BYTE   8                       // Num Tracks
        BYTE   0                       // Unknown
        BYTE   obps1fogofphantom_pri   // Priority
        BYTE   obps1fogofphantom_rev   // Reverb

        POIN2   obps1fogofphantom_grp  

        POIN2   obps1fogofphantom_0
        POIN2   obps1fogofphantom_1
        POIN2   obps1fogofphantom_2
        POIN2   obps1fogofphantom_3
        POIN2   obps1fogofphantom_4
        POIN2   obps1fogofphantom_5
        POIN2   obps1fogofphantom_6
        POIN2   obps1fogofphantom_7

        
