//Event file generated from Sappy .s format.
        #include "MPlayDef.event"

        #define    obps1chivalryandsavagery_grp  MusicVoices
        #define    obps1chivalryandsavagery_pri  0
        #define    obps1chivalryandsavagery_rev  0x80
        #define    obps1chivalryandsavagery_key  0

        // .rodata
        // obps1chivalryandsavagery
        ALIGN 4

//****************** Track 0 (Midi-Chn.0) ******************//

obps1chivalryandsavagery_0:
        BYTE   KEYSH   obps1chivalryandsavagery_key+0
// 000   ----------------------------------------
        BYTE   TEMPO   110/2
obps1chivalryandsavagery_0_LOOP:
        BYTE           VOICE   48
        BYTE           0xCD   0x08 0x30
        BYTE           0xCD   0x09 0x10
        BYTE           VOL     34
        BYTE           PAN     c_v-24
        BYTE           N14     Fn2   v090
        BYTE           N14     Dn3
        BYTE   W14
        BYTE           N02     Fn3
        BYTE           N02     An2
        BYTE   W02
        BYTE                   Gn3
        BYTE           N02     Bn2
        BYTE   W02
        BYTE           N06     Dn4
        BYTE           N06     Fn3
        BYTE   W18
        BYTE           N14     Dn3
        BYTE           N14     Fn2
        BYTE   W14
        BYTE           N02     Fn3
        BYTE           N02     An2
        BYTE   W02
        BYTE                   Gn3
        BYTE           N02     Bn2
        BYTE   W02
        BYTE           N06     Dn4
        BYTE           N06     Fn3
        BYTE   W18
        BYTE           N14     Dn3
        BYTE           N14     Fn2
        BYTE   W14
        BYTE           N02     Fn3
        BYTE           N02     An2
        BYTE   W02
        BYTE                   Gn3
        BYTE           N02     Bn2
        BYTE   W02
        BYTE           N06     Dn4
        BYTE           N06     Fn3
        BYTE   W06
// 001   ----------------------------------------
        BYTE   W12
        BYTE           N18     En3   v080
        BYTE           N18     Gn2
        BYTE   W18
        BYTE                   Cn3
        BYTE           N18     En2
        BYTE   W18
        BYTE           N04     Fn3   v090
        BYTE           N04     As2
        BYTE   W06
        BYTE                   Fn3
        BYTE           N04     As2
        BYTE   W06
        BYTE                   Fn3
        BYTE           N04     As2
        BYTE   W06
        BYTE           N12     Fn3
        BYTE           N12     As2
        BYTE   W18
        BYTE           N04     Gn3
        BYTE           N04     Cn3
        BYTE   W06
        BYTE                   Gn3
        BYTE           N04     Cn3
        BYTE   W06
// 002   ----------------------------------------
        BYTE                   Gn3
        BYTE           N04     Cn3
        BYTE   W06
        BYTE           N12     Gn3
        BYTE           N12     Cn3
        BYTE   W18
        BYTE           N04     An3
        BYTE           N04     Dn3
        BYTE   W06
        BYTE                   Dn4
        BYTE           N04     Fn3
        BYTE   W06
        BYTE                   An3
        BYTE           N04     Dn3
        BYTE   W06
        BYTE                   As3
        BYTE           N04     Dn3
        BYTE   W06
        BYTE                   Dn4
        BYTE           N04     Gn3
        BYTE   W06
        BYTE                   As3
        BYTE           N04     Dn3
        BYTE   W06
        BYTE           N12     Cs4
        BYTE           N12     En3
        BYTE   W18
        BYTE           N04     An3
        BYTE           N04     Cs3
        BYTE   W06
        BYTE                   En3
        BYTE           N04     An2
        BYTE   W06
        BYTE                   Cs3
        BYTE           N04     En2
        BYTE   W06
// 003   ----------------------------------------
        BYTE           N14     Dn3
        BYTE           N14     Fn2
        BYTE   W14
        BYTE           N02     Fn3
        BYTE           N02     An2
        BYTE   W02
        BYTE                   Gn3
        BYTE           N02     Bn2
        BYTE   W02
        BYTE           N06     Dn4
        BYTE           N06     Fn3
        BYTE   W18
        BYTE           N14     Dn3
        BYTE           N14     Fn2
        BYTE   W14
        BYTE           N02     Fn3
        BYTE           N02     An2
        BYTE   W02
        BYTE                   Gn3
        BYTE           N02     Bn2
        BYTE   W02
        BYTE           N06     Dn4
        BYTE           N06     Fn3
        BYTE   W18
        BYTE           N14     Dn3
        BYTE           N14     Fn2
        BYTE   W14
        BYTE           N02     Fn3
        BYTE           N02     An2
        BYTE   W02
        BYTE                   Gn3
        BYTE           N02     Bn2
        BYTE   W02
        BYTE           N06     Dn4
        BYTE           N06     Fn3
        BYTE   W06
// 004   ----------------------------------------
        BYTE   W12
        BYTE           N18     En3   v080
        BYTE           N18     Gn2
        BYTE   W18
        BYTE                   Cn3
        BYTE           N18     En2
        BYTE   W18
        BYTE                   Fn3   v100
        BYTE           N18     As2
        BYTE   W18
        BYTE                   As3
        BYTE           N18     Dn3
        BYTE   W18
        BYTE                   An3
        BYTE           N18     Cs3
        BYTE   W12
// 005   ----------------------------------------
        BYTE   W06
        BYTE                   En3
        BYTE           N18     An2
        BYTE   W18
        BYTE                   Fn3
        BYTE           N18     An2
        BYTE   W18
        BYTE                   An3
        BYTE           N18     Dn3
        BYTE   W18
        BYTE                   As3
        BYTE           N18     Ds3
        BYTE   W18
        BYTE                   Ds4
        BYTE           N18     Gn3
        BYTE   W18
// 006   ----------------------------------------
        BYTE           TIE     Dn4   v080
        BYTE           TIE     Fn3
        BYTE   W96
// 007   ----------------------------------------
        BYTE   W44
        BYTE   W03
        BYTE           EOT     Dn4
        BYTE                   Fn3
        BYTE   W48
        BYTE   W01
// 008   ----------------------------------------
        BYTE           N05     An3   v040
        BYTE           N05     Dn3
        BYTE   W06
        BYTE                   As3
        BYTE           N05     Ds3
        BYTE   W06
        BYTE                   An3
        BYTE           N05     Dn3
        BYTE   W06
        BYTE                   As3
        BYTE           N05     Ds3
        BYTE   W06
        BYTE                   An3
        BYTE           N05     Dn3
        BYTE   W06
        BYTE                   As3
        BYTE           N05     Ds3
        BYTE   W06
        BYTE                   An3   v050
        BYTE           N05     Dn3
        BYTE   W06
        BYTE                   As3
        BYTE           N05     Ds3
        BYTE   W06
        BYTE                   An3   v060
        BYTE           N05     Dn3
        BYTE   W06
        BYTE                   As3
        BYTE           N05     Ds3
        BYTE   W06
        BYTE                   An3   v070
        BYTE           N05     Dn3
        BYTE   W06
        BYTE                   As3
        BYTE           N05     Ds3
        BYTE   W06
        BYTE                   An3   v080
        BYTE           N05     Dn3
        BYTE   W06
        BYTE                   As3
        BYTE           N05     Ds3
        BYTE   W06
        BYTE                   An3   v090
        BYTE           N05     Dn3
        BYTE   W06
        BYTE                   As3
        BYTE           N05     Ds3
        BYTE   W06
// 009   ----------------------------------------
obps1chivalryandsavagery_0_9:
        BYTE           N05     An3   v060
        BYTE           N05     Dn3
        BYTE   W06
        BYTE                   As3
        BYTE           N05     Ds3
        BYTE   W06
        BYTE                   An3   v070
        BYTE           N05     Dn3
        BYTE   W06
        BYTE                   As3
        BYTE           N05     Ds3
        BYTE   W06
        BYTE                   An3   v080
        BYTE           N05     Dn3
        BYTE   W06
        BYTE                   As3
        BYTE           N05     Ds3
        BYTE   W06
        BYTE                   An3   v090
        BYTE           N05     Dn3
        BYTE   W06
        BYTE                   As3
        BYTE           N05     Ds3
        BYTE   W06
        BYTE                   An3   v080
        BYTE           N05     Dn3
        BYTE   W06
        BYTE                   As3
        BYTE           N05     Ds3
        BYTE   W06
        BYTE                   An3   v070
        BYTE           N05     Dn3
        BYTE   W06
        BYTE                   As3
        BYTE           N05     Ds3
        BYTE   W06
        BYTE                   An3   v060
        BYTE           N05     Dn3
        BYTE   W06
        BYTE                   As3
        BYTE           N05     Ds3
        BYTE   W06
        BYTE                   An3   v070
        BYTE           N05     Dn3
        BYTE   W06
        BYTE                   As3
        BYTE           N05     Ds3
        BYTE   W06
        BYTE   PEND
// 010   ----------------------------------------
obps1chivalryandsavagery_0_10:
        BYTE           N05     An3   v080
        BYTE           N05     Dn3
        BYTE   W06
        BYTE                   As3
        BYTE           N05     Ds3
        BYTE   W06
        BYTE                   An3   v090
        BYTE           N05     Dn3
        BYTE   W06
        BYTE                   As3
        BYTE           N05     Ds3
        BYTE   W06
        BYTE                   An3   v080
        BYTE           N05     Dn3
        BYTE   W06
        BYTE                   As3
        BYTE           N05     Ds3
        BYTE   W06
        BYTE                   An3   v070
        BYTE           N05     Dn3
        BYTE   W06
        BYTE                   As3
        BYTE           N05     Ds3
        BYTE   W06
        BYTE                   An3   v060
        BYTE           N05     Dn3
        BYTE   W06
        BYTE                   As3
        BYTE           N05     Ds3
        BYTE   W06
        BYTE                   An3   v070
        BYTE           N05     Dn3
        BYTE   W06
        BYTE                   As3
        BYTE           N05     Ds3
        BYTE   W06
        BYTE                   An3   v080
        BYTE           N05     Dn3
        BYTE   W06
        BYTE                   As3
        BYTE           N05     Ds3
        BYTE   W06
        BYTE                   An3   v090
        BYTE           N05     Dn3
        BYTE   W06
        BYTE                   As3
        BYTE           N05     Ds3
        BYTE   W06
        BYTE   PEND
// 011   ----------------------------------------
obps1chivalryandsavagery_0_11:
        BYTE           N05     An3   v080
        BYTE           N05     Dn3
        BYTE   W06
        BYTE                   As3
        BYTE           N05     Ds3
        BYTE   W06
        BYTE                   An3   v070
        BYTE           N05     Dn3
        BYTE   W06
        BYTE                   As3
        BYTE           N05     Ds3
        BYTE   W06
        BYTE                   An3   v060
        BYTE           N05     Dn3
        BYTE   W06
        BYTE                   As3
        BYTE           N05     Ds3
        BYTE   W06
        BYTE                   An3   v070
        BYTE           N05     Dn3
        BYTE   W06
        BYTE                   As3
        BYTE           N05     Ds3
        BYTE   W06
        BYTE                   An3   v080
        BYTE           N05     Dn3
        BYTE   W06
        BYTE                   As3
        BYTE           N05     Ds3
        BYTE   W06
        BYTE                   An3   v090
        BYTE           N05     Dn3
        BYTE   W06
        BYTE                   As3
        BYTE           N05     Ds3
        BYTE   W06
        BYTE                   An3   v080
        BYTE           N05     Dn3
        BYTE   W06
        BYTE                   As3
        BYTE           N05     Ds3
        BYTE   W06
        BYTE                   An3   v070
        BYTE           N05     Dn3
        BYTE   W06
        BYTE                   As3
        BYTE           N05     Ds3
        BYTE   W06
        BYTE   PEND
// 012   ----------------------------------------
        BYTE   PATT
         POIN2  obps1chivalryandsavagery_0_9
// 013   ----------------------------------------
        BYTE   PATT
         POIN2  obps1chivalryandsavagery_0_10
// 014   ----------------------------------------
        BYTE   PATT
         POIN2  obps1chivalryandsavagery_0_11
// 015   ----------------------------------------
obps1chivalryandsavagery_0_15:
        BYTE           N05     As3   v060
        BYTE           N05     Ds3
        BYTE   W06
        BYTE                   Bn3
        BYTE           N05     En3
        BYTE   W06
        BYTE                   As3   v070
        BYTE           N05     Ds3
        BYTE   W06
        BYTE                   Bn3
        BYTE           N05     En3
        BYTE   W06
        BYTE                   As3   v080
        BYTE           N05     Ds3
        BYTE   W06
        BYTE                   Bn3
        BYTE           N05     En3
        BYTE   W06
        BYTE                   As3   v090
        BYTE           N05     Ds3
        BYTE   W06
        BYTE                   Bn3
        BYTE           N05     En3
        BYTE   W06
        BYTE                   As3   v080
        BYTE           N05     Ds3
        BYTE   W06
        BYTE                   Bn3
        BYTE           N05     En3
        BYTE   W06
        BYTE                   As3   v070
        BYTE           N05     Ds3
        BYTE   W06
        BYTE                   Bn3
        BYTE           N05     En3
        BYTE   W06
        BYTE                   As3   v060
        BYTE           N05     Ds3
        BYTE   W06
        BYTE                   Bn3
        BYTE           N05     En3
        BYTE   W06
        BYTE                   As3   v070
        BYTE           N05     Ds3
        BYTE   W06
        BYTE                   Bn3
        BYTE           N05     En3
        BYTE   W06
        BYTE   PEND
// 016   ----------------------------------------
obps1chivalryandsavagery_0_16:
        BYTE           N05     As3   v080
        BYTE           N05     Ds3
        BYTE   W06
        BYTE                   Bn3
        BYTE           N05     En3
        BYTE   W06
        BYTE                   As3   v090
        BYTE           N05     Ds3
        BYTE   W06
        BYTE                   Bn3
        BYTE           N05     En3
        BYTE   W06
        BYTE                   As3   v080
        BYTE           N05     Ds3
        BYTE   W06
        BYTE                   Bn3
        BYTE           N05     En3
        BYTE   W06
        BYTE                   As3   v070
        BYTE           N05     Ds3
        BYTE   W06
        BYTE                   Bn3
        BYTE           N05     En3
        BYTE   W06
        BYTE                   As3   v060
        BYTE           N05     Ds3
        BYTE   W06
        BYTE                   Bn3
        BYTE           N05     En3
        BYTE   W06
        BYTE                   As3   v070
        BYTE           N05     Ds3
        BYTE   W06
        BYTE                   Bn3
        BYTE           N05     En3
        BYTE   W06
        BYTE                   As3   v080
        BYTE           N05     Ds3
        BYTE   W06
        BYTE                   Bn3
        BYTE           N05     En3
        BYTE   W06
        BYTE                   As3   v090
        BYTE           N05     Ds3
        BYTE   W06
        BYTE                   Bn3
        BYTE           N05     En3
        BYTE   W06
        BYTE   PEND
// 017   ----------------------------------------
        BYTE                   As3   v080
        BYTE           N05     Ds3
        BYTE   W06
        BYTE                   Bn3
        BYTE           N05     En3
        BYTE   W06
        BYTE                   As3   v070
        BYTE           N05     Ds3
        BYTE   W06
        BYTE                   Bn3
        BYTE           N05     En3
        BYTE   W06
        BYTE                   As3   v060
        BYTE           N05     Ds3
        BYTE   W06
        BYTE                   Bn3
        BYTE           N05     En3
        BYTE   W06
        BYTE                   As3   v070
        BYTE           N05     Ds3
        BYTE   W06
        BYTE                   Bn3
        BYTE           N05     En3
        BYTE   W06
        BYTE                   As3   v080
        BYTE           N05     Ds3
        BYTE   W06
        BYTE                   Bn3
        BYTE           N05     En3
        BYTE   W06
        BYTE                   As3   v090
        BYTE           N05     Ds3
        BYTE   W06
        BYTE                   Bn3
        BYTE           N05     En3
        BYTE   W06
        BYTE                   As3   v080
        BYTE           N05     Ds3
        BYTE   W06
        BYTE                   Bn3
        BYTE           N05     En3
        BYTE   W06
        BYTE                   As3   v070
        BYTE           N05     Ds3
        BYTE   W06
        BYTE                   Bn3
        BYTE           N05     En3
        BYTE   W06
// 018   ----------------------------------------
        BYTE   PATT
         POIN2  obps1chivalryandsavagery_0_15
// 019   ----------------------------------------
        BYTE   PATT
         POIN2  obps1chivalryandsavagery_0_16
// 020   ----------------------------------------
        BYTE           N05     As3   v080
        BYTE           N05     Ds3
        BYTE   W06
        BYTE                   Bn3
        BYTE           N05     En3
        BYTE   W06
        BYTE                   As3   v070
        BYTE           N05     Ds3
        BYTE   W06
        BYTE                   Bn3
        BYTE           N05     En3
        BYTE   W06
        BYTE                   As3   v060
        BYTE           N05     Ds3
        BYTE   W06
        BYTE                   Bn3
        BYTE           N05     En3
        BYTE   W06
        BYTE                   As3   v070
        BYTE           N05     Ds3
        BYTE   W06
        BYTE                   Bn3
        BYTE           N05     En3
        BYTE   W06
        BYTE                   As3   v080
        BYTE           N05     Ds3
        BYTE   W06
        BYTE                   Bn3
        BYTE           N05     En3
        BYTE   W06
        BYTE                   As3   v090
        BYTE           N05     Ds3
        BYTE   W06
        BYTE                   Bn3
        BYTE           N05     En3
        BYTE   W06
        BYTE                   As3   v080
        BYTE           N05     Ds3
        BYTE   W06
        BYTE                   Bn3
        BYTE           N05     En3
        BYTE   W06
        BYTE           N06     Ds4
        BYTE           N06     Fs3
        BYTE   W06
        BYTE                   En4
        BYTE           N06     Gn3
        BYTE   W06
// 021   ----------------------------------------
        BYTE           N05     Cn3
        BYTE           N05     Ds2
        BYTE   W06
        BYTE                   Cn3
        BYTE           N05     Ds2
        BYTE   W06
        BYTE                   Ds3
        BYTE           N05     Gn2
        BYTE   W06
        BYTE           N02     En3   v100
        BYTE           N02     Gs2
        BYTE   W03
        BYTE                   Fn3
        BYTE           N02     An2
        BYTE   W03
        BYTE                   En3
        BYTE           N02     Gs2
        BYTE   W03
        BYTE                   Fn3
        BYTE           N02     An2
        BYTE   W03
        BYTE                   En3
        BYTE           N02     Gs2
        BYTE   W03
        BYTE                   Fn3
        BYTE           N02     An2
        BYTE   W03
        BYTE           N05     Gn3   v080
        BYTE           N05     Cn3
        BYTE   W60
// 022   ----------------------------------------
        BYTE   W48
        BYTE                   Cn3
        BYTE           N05     Ds2
        BYTE   W06
        BYTE                   Cn3
        BYTE           N05     Ds2
        BYTE   W06
        BYTE                   Ds3
        BYTE           N05     Gn2
        BYTE   W06
        BYTE           N02     En3   v100
        BYTE           N02     Gs2
        BYTE   W03
        BYTE                   Fn3
        BYTE           N02     An2
        BYTE   W03
        BYTE                   En3
        BYTE           N02     Gs2
        BYTE   W03
        BYTE                   Fn3
        BYTE           N02     An2
        BYTE   W03
        BYTE                   En3
        BYTE           N02     Gs2
        BYTE   W03
        BYTE                   Fn3
        BYTE           N02     An2
        BYTE   W03
        BYTE           N05     Gn3   v080
        BYTE           N05     Cn3
        BYTE   W06
        BYTE           N03     Cn4   v090
        BYTE           N03     Gn3
        BYTE   W03
        BYTE                   Cs4
        BYTE           N03     Gs3
        BYTE   W03
// 023   ----------------------------------------
        BYTE           N06     Ds4
        BYTE           N06     Cn4
        BYTE   W06
        BYTE                   En4
        BYTE           N06     Cs4
        BYTE   W06
        BYTE                   Gn4
        BYTE           N06     Ds4
        BYTE   W06
        BYTE                   Gs4
        BYTE           N06     En4
        BYTE   W06
        BYTE                   Cn5
        BYTE           N06     Gn4
        BYTE   W06
        BYTE                   Gs4
        BYTE           N06     En4
        BYTE   W06
        BYTE                   Cn5
        BYTE           N06     Gn4
        BYTE   W06
        BYTE                   Gs4
        BYTE           N06     En4
        BYTE   W06
        BYTE                   Gn4
        BYTE           N06     Ds4
        BYTE   W06
        BYTE                   Gs4
        BYTE           N06     En4
        BYTE   W06
        BYTE                   Gn4
        BYTE           N06     Ds4
        BYTE   W06
        BYTE                   Gs4
        BYTE           N06     En4
        BYTE   W06
        BYTE                   Gn4
        BYTE           N06     Ds4
        BYTE   W06
        BYTE                   En4
        BYTE           N06     Cs4
        BYTE   W06
        BYTE                   Ds4
        BYTE           N06     Cn4
        BYTE   W06
        BYTE                   Cn4
        BYTE           N06     Gn3
        BYTE   W06
// 024   ----------------------------------------
        BYTE           N05     Cs3   v080
        BYTE           N05     En2
        BYTE   W06
        BYTE                   Cs3
        BYTE           N05     En2
        BYTE   W06
        BYTE                   En3
        BYTE           N05     Gs2
        BYTE   W06
        BYTE           N02     Fn3   v100
        BYTE           N02     An2
        BYTE   W03
        BYTE                   Fs3
        BYTE           N02     As2
        BYTE   W03
        BYTE                   Fn3
        BYTE           N02     An2
        BYTE   W03
        BYTE                   Fs3
        BYTE           N02     As2
        BYTE   W03
        BYTE                   Fn3
        BYTE           N02     An2
        BYTE   W03
        BYTE                   Fs3
        BYTE           N02     As2
        BYTE   W03
        BYTE           N05     Gs3   v080
        BYTE           N05     Cs3
        BYTE   W60
// 025   ----------------------------------------
        BYTE   W48
        BYTE                   Dn3
        BYTE           N05     Fn2
        BYTE   W06
        BYTE                   Dn3
        BYTE           N05     Fn2
        BYTE   W06
        BYTE                   Fn3
        BYTE           N05     An2
        BYTE   W06
        BYTE           N02     Fs3   v100
        BYTE           N02     As2
        BYTE   W03
        BYTE                   Gn3
        BYTE           N02     Bn2
        BYTE   W03
        BYTE                   Fs3
        BYTE           N02     As2
        BYTE   W03
        BYTE                   Gn3
        BYTE           N02     Bn2
        BYTE   W03
        BYTE                   Fs3
        BYTE           N02     As2
        BYTE   W03
        BYTE                   Gn3
        BYTE           N02     Bn2
        BYTE   W03
        BYTE           N05     An3   v080
        BYTE           N05     Dn3
        BYTE   W06
        BYTE           N03     Dn4   v090
        BYTE           N03     An3
        BYTE   W03
        BYTE                   Ds4
        BYTE           N03     As3
        BYTE   W03
// 026   ----------------------------------------
        BYTE           N06     Fn4
        BYTE           N06     Dn4
        BYTE   W06
        BYTE                   Fs4
        BYTE           N06     Ds4
        BYTE   W06
        BYTE                   An4
        BYTE           N06     Fn4
        BYTE   W06
        BYTE                   As4
        BYTE           N06     Fs4
        BYTE   W06
        BYTE                   Dn5
        BYTE           N06     An4
        BYTE   W06
        BYTE                   As4
        BYTE           N06     Fs4
        BYTE   W06
        BYTE                   Dn5
        BYTE           N06     An4
        BYTE   W06
        BYTE                   As4
        BYTE           N06     Fs4
        BYTE   W06
        BYTE                   An4
        BYTE           N06     Fn4
        BYTE   W06
        BYTE                   As4
        BYTE           N06     Fs4
        BYTE   W06
        BYTE                   An4
        BYTE           N06     Fn4
        BYTE   W06
        BYTE                   As4
        BYTE           N06     Fs4
        BYTE   W06
        BYTE                   An4
        BYTE           N06     Fn4
        BYTE   W06
        BYTE                   Fs4
        BYTE           N06     Ds4
        BYTE   W06
        BYTE                   Fn4
        BYTE           N06     Dn4
        BYTE   W06
        BYTE                   Dn4
        BYTE           N06     An3
        BYTE   W06
// 027   ----------------------------------------
        BYTE                   Ds5
        BYTE           N06     As4
        BYTE   W06
        BYTE                   Bn4
        BYTE           N06     Gn4
        BYTE   W06
        BYTE                   Ds5
        BYTE           N06     As4
        BYTE   W06
        BYTE                   Bn4
        BYTE           N06     Gn4
        BYTE   W06
        BYTE                   As4
        BYTE           N06     Fs4
        BYTE   W06
        BYTE                   Bn4
        BYTE           N06     Gn4
        BYTE   W06
        BYTE                   As4
        BYTE           N06     Fs4
        BYTE   W06
        BYTE                   Bn4
        BYTE           N06     Gn4
        BYTE   W06
        BYTE                   As4
        BYTE           N06     Fs4
        BYTE   W06
        BYTE                   Gn4
        BYTE           N06     En4
        BYTE   W06
        BYTE                   Fs4
        BYTE           N06     Ds4
        BYTE   W06
        BYTE                   Ds4
        BYTE           N06     As3
        BYTE   W06
        BYTE                   En5
        BYTE           N06     Bn4
        BYTE   W06
        BYTE                   Cn5
        BYTE           N06     Gs4
        BYTE   W06
        BYTE                   En5
        BYTE           N06     Bn4
        BYTE   W06
        BYTE                   Cn5
        BYTE           N06     Gs4
        BYTE   W06
// 028   ----------------------------------------
        BYTE                   Bn4
        BYTE           N06     Gn4
        BYTE   W06
        BYTE                   Cn5
        BYTE           N06     Gs4
        BYTE   W06
        BYTE                   Bn4
        BYTE           N06     Gn4
        BYTE   W06
        BYTE                   Cn5
        BYTE           N06     Gs4
        BYTE   W06
        BYTE                   Bn4
        BYTE           N06     Gn4
        BYTE   W06
        BYTE                   Gs4
        BYTE           N06     Fn4
        BYTE   W06
        BYTE                   Bn4
        BYTE           N06     Gn4
        BYTE   W06
        BYTE           N04     En5
        BYTE           N04     Bn4
        BYTE   W06
        BYTE           TIE     Fs5   v093
        BYTE           TIE     Cs5   v085
        BYTE   W40
        BYTE   W01
        BYTE           VOL     32
        BYTE   W03
        BYTE                   30
        BYTE   W04
// 029   ----------------------------------------
        BYTE                   28
        BYTE   W03
        BYTE                   26
        BYTE   W03
        BYTE                   25
        BYTE   W02
        BYTE                   24
        BYTE   W03
        BYTE                   22
        BYTE   W03
        BYTE                   21
        BYTE   W04
        BYTE                   20
        BYTE   W03
        BYTE                   19
        BYTE   W03
        BYTE                   18
        BYTE   W02
        BYTE                   17
        BYTE   W07
        BYTE                   16
        BYTE   W06
        BYTE                   15
        BYTE   W02
        BYTE                   14
        BYTE   W06
        BYTE                   13
        BYTE   W07
        BYTE                   12
        BYTE   W05
        BYTE                   11
        BYTE   W10
        BYTE                   12
        BYTE   W03
        BYTE                   13
        BYTE   W02
        BYTE                   14
        BYTE   W03
        BYTE                   15
        BYTE   W03
        BYTE                   17
        BYTE   W04
        BYTE                   18
        BYTE   W03
        BYTE                   22
        BYTE   W03
        BYTE           EOT     Fs5
        BYTE                   Cs5
        BYTE   W06
// 030   ----------------------------------------
        BYTE   W68
        BYTE   W03
        BYTE           VOL     28
        BYTE   W01
        BYTE                   34
        BYTE           N04     An2   v090
        BYTE           N04     Cs2
        BYTE   W06
        BYTE           VOL     21
        BYTE           N04     An2
        BYTE           N04     Cs2
        BYTE   W05
        BYTE           VOL     26
        BYTE   W01
        BYTE           N04     An2
        BYTE           N04     Cs2
        BYTE   W05
        BYTE           VOL     30
        BYTE   W01
        BYTE           N04     Cs3
        BYTE           N04     Fs2
        BYTE   W06
// 031   ----------------------------------------
        BYTE           VOL     24
        BYTE           N04     Cs3
        BYTE           N04     Fs2
        BYTE   W05
        BYTE           VOL     28
        BYTE   W01
        BYTE           N04     Cs3
        BYTE           N04     Fs2
        BYTE   W06
        BYTE           VOL     32
        BYTE           N04     Fs3   v100
        BYTE           N04     An2
        BYTE   W06
        BYTE           VOL     26
        BYTE           N04     Fs3
        BYTE           N04     An2
        BYTE   W05
        BYTE           VOL     30
        BYTE   W01
        BYTE           N04     Fs3
        BYTE           N04     An2
        BYTE   W06
        BYTE                   An3
        BYTE           N04     Cs3
        BYTE   W06
        BYTE           VOL     32
        BYTE           N04     Cs4
        BYTE           N04     Fs3
        BYTE   W05
        BYTE           VOL     34
        BYTE   W01
        BYTE           N04     Fs4
        BYTE           N04     An3
        BYTE   W06
        BYTE           N17     En4
        BYTE           N17     Bn3
        BYTE   W18
        BYTE           N04
        BYTE           N04     Fs3
        BYTE   W12
        BYTE                   An3
        BYTE           N04     Fs3
        BYTE   W06
        BYTE           N17     Bn3
        BYTE           N17     Fs3
        BYTE   W12
// 032   ----------------------------------------
obps1chivalryandsavagery_0_32:
        BYTE   W06
        BYTE           N04     Bn3   v100
        BYTE           N04     Fs3
        BYTE   W12
        BYTE                   An3
        BYTE           N04     Fs3
        BYTE   W06
        BYTE           N17     Bn3
        BYTE           N17     En3
        BYTE   W18
        BYTE           N04     Bn3
        BYTE           N04     En3
        BYTE   W12
        BYTE                   An3
        BYTE           N04     Dn3
        BYTE   W06
        BYTE                   An3
        BYTE           N04     Dn3
        BYTE   W12
        BYTE           N06     Gn3
        BYTE           N06     Cn3
        BYTE   W06
        BYTE           N17     Fs3
        BYTE           N17     An2
        BYTE   W18
        BYTE   PEND
// 033   ----------------------------------------
        BYTE           N18     En4   v070
        BYTE           N18     Gn3
        BYTE   W18
        BYTE                   Dn4
        BYTE           N18     Fs3
        BYTE   W18
        BYTE                   Cn4
        BYTE           N18     En3
        BYTE   W18
        BYTE                   En4
        BYTE           N18     Gn3
        BYTE   W18
        BYTE           N36     Fs4
        BYTE           N36     An3
        BYTE   W24
// 034   ----------------------------------------
        BYTE   W12
        BYTE                   Bn4
        BYTE           N36     Ds4
        BYTE   W36
        BYTE           N17     En4   v100
        BYTE           N17     Bn3
        BYTE   W18
        BYTE           N04
        BYTE           N04     Fs3
        BYTE   W12
        BYTE                   An3
        BYTE           N04     Fs3
        BYTE   W06
        BYTE           N17     Bn3
        BYTE           N17     Fs3
        BYTE   W12
// 035   ----------------------------------------
        BYTE   PATT
         POIN2  obps1chivalryandsavagery_0_32
// 036   ----------------------------------------
        BYTE           N06     Cn3   v060
        BYTE           N06     En2
        BYTE   W06
        BYTE                   Dn3
        BYTE           N06     Fs2
        BYTE   W06
        BYTE                   Cn3   v070
        BYTE           N06     En2
        BYTE   W06
        BYTE                   Dn3
        BYTE           N06     Fs2
        BYTE   W06
        BYTE                   Cn3   v080
        BYTE           N06     En2
        BYTE   W06
        BYTE                   Dn3
        BYTE           N06     Fs2
        BYTE   W06
        BYTE                   Cn3   v090
        BYTE           N06     En2
        BYTE   W06
        BYTE                   Dn3
        BYTE           N06     Fs2
        BYTE   W06
        BYTE                   Cn3   v080
        BYTE           N06     En2
        BYTE   W06
        BYTE                   Dn3
        BYTE           N06     Fs2
        BYTE   W06
        BYTE                   Cn3   v070
        BYTE           N06     En2
        BYTE   W06
        BYTE                   Dn3
        BYTE           N06     Fs2
        BYTE   W06
        BYTE                   Cn3   v080
        BYTE           N06     En2
        BYTE   W06
        BYTE                   En3
        BYTE           N06     Gn2
        BYTE   W06
        BYTE                   Gn3
        BYTE           N06     Cn3
        BYTE   W06
        BYTE                   Ds3
        BYTE           N06     Gn2
        BYTE   W06
// 037   ----------------------------------------
        BYTE                   Gn3
        BYTE           N06     As2
        BYTE   W06
        BYTE                   As3
        BYTE           N06     Ds3
        BYTE   W06
        BYTE                   Fs3
        BYTE           N06     As2
        BYTE   W06
        BYTE                   As3
        BYTE           N06     Cs3
        BYTE   W06
        BYTE                   Cs4
        BYTE           N06     Fs3
        BYTE   W06
        BYTE                   An3
        BYTE           N06     Cs3
        BYTE   W06
        BYTE                   Cs4
        BYTE           N06     En3
        BYTE   W06
        BYTE                   En4
        BYTE           N06     An3
        BYTE   W06
        BYTE           TIE     Fn4   v070
        BYTE           TIE     Dn4
        BYTE   W48
// 038   ----------------------------------------
        BYTE   W60
        BYTE           EOT     Fn4
        BYTE                   Dn4
        BYTE   W18
        BYTE           N06
        BYTE           N06     Fn3
        BYTE   W06
        BYTE                   An3
        BYTE           N06     Dn3
        BYTE   W06
        BYTE           N05     Fn3
        BYTE           N05     An2
        BYTE   W06
// 039   ----------------------------------------
        BYTE   GoTo
         POIN2  obps1chivalryandsavagery_0_LOOP
        BYTE   FINE

//****************** Track 1 (Midi-Chn.1) ******************//

obps1chivalryandsavagery_1:
        BYTE   KEYSH   obps1chivalryandsavagery_key+0
// 000   ----------------------------------------
obps1chivalryandsavagery_1_LOOP:
        BYTE           VOICE   61
        BYTE           0xCD   0x08 0x30
        BYTE           0xCD   0x09 0x10
        BYTE           VOL     32
        BYTE           PAN     c_v+16
        BYTE           N18     Dn4   v127
        BYTE           N18     An3   v120
        BYTE   W18
        BYTE           N03     An3   v110
        BYTE           N03     En3
        BYTE   W12
        BYTE                   Gn3
        BYTE           N03     En3
        BYTE   W06
        BYTE           N18     An3
        BYTE           N18     En3
        BYTE   W18
        BYTE           N03     An3
        BYTE           N03     En3
        BYTE   W12
        BYTE                   Gn3
        BYTE           N03     En3
        BYTE   W06
        BYTE           N18     An3
        BYTE           N18     Dn3
        BYTE   W18
        BYTE           N03     An3
        BYTE           N03     Dn3
        BYTE   W06
// 001   ----------------------------------------
        BYTE   W06
        BYTE                   Gn3
        BYTE           N03     Dn3
        BYTE   W06
        BYTE                   En3
        BYTE           N03     Cn3
        BYTE   W06
        BYTE                   Fn3
        BYTE           N03     Cn3
        BYTE   W06
        BYTE                   En3
        BYTE           N03     Cn3
        BYTE   W06
        BYTE                   Dn3   v120
        BYTE           N03     An2
        BYTE   W06
        BYTE                   Gn3
        BYTE           N03     Cn3
        BYTE   W06
        BYTE                   Cn4
        BYTE           N03     Gn3
        BYTE   W06
        BYTE                   Dn3   v110
        BYTE   W06
        BYTE                   En3
        BYTE   W06
        BYTE                   Fn3
        BYTE   W06
        BYTE                   Gn3
        BYTE   W06
        BYTE                   Fn3
        BYTE   W06
        BYTE                   Dn3
        BYTE   W06
        BYTE                   En3
        BYTE   W06
        BYTE                   Fn3
        BYTE   W06
// 002   ----------------------------------------
        BYTE                   Gn3
        BYTE   W06
        BYTE                   An3
        BYTE   W06
        BYTE                   Gn3
        BYTE   W06
        BYTE                   En3
        BYTE   W06
        BYTE                   Fn3   v100
        BYTE   W06
        BYTE                   Gn3
        BYTE   W06
        BYTE                   An3
        BYTE   W06
        BYTE                   As3
        BYTE   W06
        BYTE                   Cn4
        BYTE   W06
        BYTE                   Dn4
        BYTE   W06
        BYTE           N30     En4
        BYTE   W36
// 003   ----------------------------------------
        BYTE           N18     An3   v120
        BYTE           N18     Dn4   v127
        BYTE   W18
        BYTE           N03     An3   v110
        BYTE           N03     En3
        BYTE   W12
        BYTE                   Gn3
        BYTE           N03     En3
        BYTE   W06
        BYTE           N18     An3
        BYTE           N18     En3
        BYTE   W18
        BYTE           N03     An3
        BYTE           N03     En3
        BYTE   W12
        BYTE                   Gn3
        BYTE           N03     En3
        BYTE   W06
        BYTE           N18     An3
        BYTE           N18     Dn3
        BYTE   W18
        BYTE           N03     An3
        BYTE           N03     Dn3
        BYTE   W06
// 004   ----------------------------------------
        BYTE   W06
        BYTE                   Gn3
        BYTE           N03     Dn3
        BYTE   W06
        BYTE                   En3
        BYTE           N03     Cn3
        BYTE   W06
        BYTE                   Fn3
        BYTE           N03     Cn3
        BYTE   W06
        BYTE                   En3
        BYTE           N03     Cn3
        BYTE   W06
        BYTE                   Dn3   v120
        BYTE           N03     An2
        BYTE   W06
        BYTE                   Gn3
        BYTE           N03     Cn3
        BYTE   W06
        BYTE                   Cn4
        BYTE           N03     Gn3
        BYTE   W06
        BYTE           N09     Fn2
        BYTE           N09     As1
        BYTE   W18
        BYTE                   Fn2
        BYTE           N09     As1
        BYTE   W18
        BYTE                   En2
        BYTE           N09     An1
        BYTE   W12
// 005   ----------------------------------------
        BYTE   W06
        BYTE                   En2
        BYTE           N09     An1
        BYTE   W18
        BYTE                   Fn2
        BYTE           N09     An1
        BYTE   W18
        BYTE                   Dn2
        BYTE           N09     Fn1
        BYTE   W18
        BYTE                   Gn2
        BYTE           N09     As1
        BYTE   W18
        BYTE                   As2
        BYTE           N09     Ds2
        BYTE   W18
// 006   ----------------------------------------
        BYTE           TIE     An2   v100
        BYTE           TIE     Dn2
        BYTE   W96
// 007   ----------------------------------------
        BYTE   W36
        BYTE   W03
        BYTE           EOT
        BYTE           EOT     An2
        BYTE   W56
        BYTE   W01
// 008   ----------------------------------------
        BYTE   W96
// 009   ----------------------------------------
        BYTE           VOICE   60
        BYTE           N24     Dn2   v127
        BYTE           N24     An1
        BYTE   W36
        BYTE                   Ds2
        BYTE           N24     As1
        BYTE   W36
        BYTE           N54     Dn2
        BYTE           N54     An1
        BYTE   W24
// 010   ----------------------------------------
        BYTE   W66
        BYTE           N09     Dn2
        BYTE           N09     An1
        BYTE   W18
        BYTE                   Ds2
        BYTE           N09     As1
        BYTE   W12
// 011   ----------------------------------------
        BYTE   W06
        BYTE                   Fn2
        BYTE           N09     Dn2
        BYTE   W18
        BYTE                   Fs2
        BYTE           N09     Ds2
        BYTE   W18
        BYTE                   An2
        BYTE           N09     Fn2
        BYTE   W18
        BYTE                   As2
        BYTE           N09     Fs2
        BYTE   W18
        BYTE                   Dn3
        BYTE           N09     An2
        BYTE   W18
// 012   ----------------------------------------
        BYTE           N72     An3   v112
        BYTE           N72     Dn3
        BYTE   W72
        BYTE                   Gn3
        BYTE           N72     Fn3
        BYTE   W24
// 013   ----------------------------------------
        BYTE   W48
        BYTE                   An3
        BYTE           N72     En3
        BYTE   W48
// 014   ----------------------------------------
        BYTE   W24
        BYTE                   As3
        BYTE           N72     Ds3
        BYTE   W72
// 015   ----------------------------------------
        BYTE           N24     Ds2   v127
        BYTE           N24     As1
        BYTE   W36
        BYTE                   En2
        BYTE           N24     Bn1
        BYTE   W36
        BYTE           N54     Ds2
        BYTE           N54     As1
        BYTE   W24
// 016   ----------------------------------------
        BYTE   W66
        BYTE           N09     Ds2
        BYTE           N09     As1
        BYTE   W18
        BYTE                   En2
        BYTE           N09     Bn1
        BYTE   W12
// 017   ----------------------------------------
        BYTE   W06
        BYTE                   Fs2
        BYTE           N09     Ds2
        BYTE   W18
        BYTE                   Gn2
        BYTE           N09     En2
        BYTE   W18
        BYTE                   As2
        BYTE           N09     Fs2
        BYTE   W18
        BYTE                   Bn2
        BYTE           N09     Gn2
        BYTE   W18
        BYTE                   Ds3
        BYTE           N09     As2
        BYTE   W18
// 018   ----------------------------------------
        BYTE           N72     Ds4   v110
        BYTE           N72     Fs3   v100
        BYTE   W72
        BYTE                   En4   v110
        BYTE           N72     As3   v100
        BYTE   W24
// 019   ----------------------------------------
        BYTE   W48
        BYTE                   Fs4   v110
        BYTE           N72     Gs3   v100
        BYTE   W48
// 020   ----------------------------------------
        BYTE   W24
        BYTE                   As3   v110
        BYTE           N72     Fs3   v100
        BYTE   W72
// 021   ----------------------------------------
        BYTE           VOICE   61
        BYTE           N03     Cn2   v127
        BYTE   W06
        BYTE                   Cn2
        BYTE   W06
        BYTE                   Cn2
        BYTE   W06
        BYTE           N12     Cs2
        BYTE   W18
        BYTE           N06     Cn2
        BYTE   W36
        BYTE                   Cn2   v100
        BYTE   W06
        BYTE                   Cs2
        BYTE   W06
        BYTE                   Cn2   v110
        BYTE   W06
        BYTE                   Cs2
        BYTE   W06
// 022   ----------------------------------------
        BYTE                   Cn2   v120
        BYTE   W06
        BYTE                   Cs2   v127
        BYTE   W06
        BYTE                   Cn2   v100
        BYTE   W06
        BYTE                   Cs2
        BYTE   W06
        BYTE                   Cn2   v110
        BYTE   W06
        BYTE                   Cs2
        BYTE   W06
        BYTE                   Cn2   v120
        BYTE   W06
        BYTE                   Cs2   v127
        BYTE   W06
        BYTE           N03     Ds2
        BYTE   W06
        BYTE                   Ds2
        BYTE   W06
        BYTE                   Ds2
        BYTE   W06
        BYTE           N12     En2
        BYTE   W18
        BYTE           N06     Ds2
        BYTE   W12
// 023   ----------------------------------------
        BYTE   W24
        BYTE                   Ds2   v100
        BYTE   W06
        BYTE                   En2
        BYTE   W06
        BYTE                   Ds2   v110
        BYTE   W06
        BYTE                   En2
        BYTE   W06
        BYTE                   Ds2   v120
        BYTE   W06
        BYTE                   En2   v127
        BYTE   W06
        BYTE                   Ds2   v100
        BYTE   W06
        BYTE                   En2
        BYTE   W06
        BYTE                   Ds2   v110
        BYTE   W06
        BYTE                   En2
        BYTE   W06
        BYTE                   Ds2   v120
        BYTE   W06
        BYTE                   En2   v127
        BYTE   W06
// 024   ----------------------------------------
        BYTE           N03     Cs2
        BYTE   W06
        BYTE                   Cs2
        BYTE   W06
        BYTE                   Cs2
        BYTE   W06
        BYTE           N12     Dn2
        BYTE   W18
        BYTE           N06     Cs2
        BYTE   W36
        BYTE                   Cs2   v100
        BYTE   W06
        BYTE                   Dn2
        BYTE   W06
        BYTE                   Cs2   v110
        BYTE   W06
        BYTE                   Dn2
        BYTE   W06
// 025   ----------------------------------------
        BYTE                   Cs2   v120
        BYTE   W06
        BYTE                   Dn2   v127
        BYTE   W06
        BYTE                   Cs2   v100
        BYTE   W06
        BYTE                   Dn2
        BYTE   W06
        BYTE                   Cs2   v110
        BYTE   W06
        BYTE                   Dn2
        BYTE   W06
        BYTE                   Cs2   v120
        BYTE   W06
        BYTE                   Dn2   v127
        BYTE   W06
        BYTE           N03     Fn2
        BYTE   W06
        BYTE                   Fn2
        BYTE   W06
        BYTE                   Fn2
        BYTE   W06
        BYTE           N12     Fs2
        BYTE   W18
        BYTE           N06     Fn2
        BYTE   W12
// 026   ----------------------------------------
        BYTE   W24
        BYTE                   Fn2   v100
        BYTE   W06
        BYTE                   Fs2
        BYTE   W06
        BYTE                   Fn2   v110
        BYTE   W06
        BYTE                   Fs2
        BYTE   W06
        BYTE                   Fn2   v120
        BYTE   W06
        BYTE                   Fs2   v127
        BYTE   W06
        BYTE                   Fn2   v100
        BYTE   W06
        BYTE                   Fs2
        BYTE   W06
        BYTE                   Fn2   v110
        BYTE   W06
        BYTE                   Fs2
        BYTE   W06
        BYTE                   Fn2   v120
        BYTE   W06
        BYTE                   Fs2   v127
        BYTE   W06
// 027   ----------------------------------------
        BYTE                   Fs2   v100
        BYTE   W06
        BYTE                   Gn2
        BYTE   W06
        BYTE                   Fs2   v110
        BYTE   W06
        BYTE                   Gn2
        BYTE   W06
        BYTE                   Fs2   v120
        BYTE   W06
        BYTE                   Gn2   v127
        BYTE   W06
        BYTE                   Fs2   v100
        BYTE   W06
        BYTE                   Gn2
        BYTE   W06
        BYTE                   Fs2   v110
        BYTE   W06
        BYTE                   Gn2
        BYTE   W06
        BYTE                   Fs2   v120
        BYTE   W06
        BYTE                   Gn2   v127
        BYTE   W06
        BYTE                   Gn2   v100
        BYTE   W06
        BYTE                   Gs2
        BYTE   W06
        BYTE                   Gn2   v110
        BYTE   W06
        BYTE                   Gs2
        BYTE   W06
// 028   ----------------------------------------
        BYTE                   Gn2   v120
        BYTE   W06
        BYTE                   Gs2   v127
        BYTE   W06
        BYTE                   Gn2   v100
        BYTE   W06
        BYTE                   Gs2
        BYTE   W06
        BYTE                   Gn2   v110
        BYTE   W06
        BYTE                   Gs2
        BYTE   W06
        BYTE                   Gn2   v120
        BYTE   W06
        BYTE                   Gs2   v127
        BYTE   W06
        BYTE           TIE     An2   v110
        BYTE           TIE     Cs2
        BYTE   W44
        BYTE   W03
        BYTE           VOL     31
        BYTE   W01
// 029   ----------------------------------------
        BYTE   W02
        BYTE                   30
        BYTE   W04
        BYTE                   29
        BYTE   W03
        BYTE                   28
        BYTE   W03
        BYTE                   27
        BYTE   W02
        BYTE                   26
        BYTE   W03
        BYTE                   24
        BYTE   W03
        BYTE                   22
        BYTE   W04
        BYTE                   21
        BYTE   W03
        BYTE                   20
        BYTE   W68
        BYTE   W01
// 030   ----------------------------------------
        BYTE           EOT
        BYTE           EOT     An2
        BYTE   W72
        BYTE           N03     Cs2
        BYTE           N03     Fs2
        BYTE   W03
        BYTE           VOL     21
        BYTE   W03
        BYTE           N03
        BYTE           N03     Cs2
        BYTE   W03
        BYTE           VOL     22
        BYTE   W03
        BYTE           N03     Fs2
        BYTE           N03     Cs2
        BYTE   W02
        BYTE           VOL     23
        BYTE   W04
        BYTE           N03     An2
        BYTE           N03     Fs2
        BYTE   W03
        BYTE           VOL     24
        BYTE   W03
// 031   ----------------------------------------
        BYTE           N03     An2
        BYTE           N03     Fs2
        BYTE   W03
        BYTE           VOL     25
        BYTE   W03
        BYTE           N03     An2
        BYTE           N03     Fs2
        BYTE   W02
        BYTE           VOL     26
        BYTE   W04
        BYTE           N03     Cs3   v120
        BYTE           N03     An2
        BYTE   W03
        BYTE           VOL     27
        BYTE   W03
        BYTE           N03     Cs3
        BYTE           N03     An2
        BYTE   W02
        BYTE           VOL     28
        BYTE   W04
        BYTE           N03     Cs3
        BYTE           N03     An2
        BYTE   W02
        BYTE           VOL     29
        BYTE   W04
        BYTE           N03     Fs3
        BYTE           N03     Cs3
        BYTE   W03
        BYTE           VOL     30
        BYTE   W03
        BYTE           N03     An3
        BYTE           N03     Fs3
        BYTE   W02
        BYTE           VOL     31
        BYTE   W04
        BYTE           N03     Cs4
        BYTE           N03     An3
        BYTE   W03
        BYTE           VOL     32
        BYTE   W03
        BYTE           N03     En4   v100
        BYTE           N03     Gn3   v110
        BYTE   W06
        BYTE                   En4   v090
        BYTE           N03     Gn3   v100
        BYTE   W06
        BYTE                   En4   v090
        BYTE           N03     Gn3   v100
        BYTE   W06
        BYTE                   En4   v090
        BYTE           N03     Gn3   v100
        BYTE   W06
        BYTE                   En4   v090
        BYTE           N03     Gn3   v100
        BYTE   W06
        BYTE                   En4   v090
        BYTE           N03     Gn3   v100
        BYTE   W06
        BYTE                   En4
        BYTE           N03     Fs3   v110
        BYTE   W06
        BYTE                   En4   v090
        BYTE           N03     Fs3   v100
        BYTE   W06
// 032   ----------------------------------------
        BYTE                   En4   v090
        BYTE           N03     Fs3   v100
        BYTE   W06
        BYTE                   En4   v090
        BYTE           N03     Fs3   v100
        BYTE   W06
        BYTE                   En4   v090
        BYTE           N03     Fs3   v100
        BYTE   W06
        BYTE                   En4   v090
        BYTE           N03     Fs3   v100
        BYTE   W06
        BYTE                   Bn3
        BYTE           N03     En3   v110
        BYTE   W06
        BYTE                   Bn3   v090
        BYTE           N03     En3   v100
        BYTE   W06
        BYTE                   Bn3   v090
        BYTE           N03     En3   v100
        BYTE   W06
        BYTE                   Bn3   v090
        BYTE           N03     En3   v100
        BYTE   W06
        BYTE                   Bn3   v090
        BYTE           N03     En3   v100
        BYTE   W06
        BYTE                   Bn3   v090
        BYTE           N03     En3   v100
        BYTE   W06
        BYTE                   An3
        BYTE           N03     Dn3   v110
        BYTE   W06
        BYTE                   An3   v090
        BYTE           N03     Dn3   v100
        BYTE   W06
        BYTE                   An3   v090
        BYTE           N03     Dn3   v100
        BYTE   W06
        BYTE           N12     Fs3   v090
        BYTE           N12     An2   v100
        BYTE   W18
// 033   ----------------------------------------
        BYTE           N03     En3   v127
        BYTE           N03     Cn3
        BYTE   W06
        BYTE                   Fs3
        BYTE           N03     Dn3
        BYTE   W06
        BYTE                   Gn3
        BYTE           N03     En3
        BYTE   W06
        BYTE                   An3
        BYTE           N03     Fs3
        BYTE   W06
        BYTE                   Gn3
        BYTE           N03     En3
        BYTE   W06
        BYTE                   Fs3
        BYTE           N03     Dn3
        BYTE   W06
        BYTE                   En3
        BYTE           N03     Cn3
        BYTE   W06
        BYTE                   Fs3
        BYTE           N03     Dn3
        BYTE   W06
        BYTE                   Gn3
        BYTE           N03     En3
        BYTE   W06
        BYTE                   An3
        BYTE           N03     Fs3
        BYTE   W06
        BYTE                   Bn3
        BYTE           N03     Gn3
        BYTE   W06
        BYTE                   Cn4
        BYTE           N03     En3
        BYTE   W06
        BYTE           N24     Cs4
        BYTE           N24     An3
        BYTE   W24
// 034   ----------------------------------------
        BYTE           N03     Cs4
        BYTE           N03     Gn3
        BYTE   W06
        BYTE                   Cs4
        BYTE           N03     Fs3
        BYTE   W06
        BYTE           N24     Ds4
        BYTE           N24     An3
        BYTE   W36
        BYTE           N03     En4   v100
        BYTE           N03     Gn3   v110
        BYTE   W06
        BYTE                   En4   v090
        BYTE           N03     Gn3   v100
        BYTE   W06
        BYTE                   En4   v090
        BYTE           N03     Gn3   v100
        BYTE   W06
        BYTE                   En4   v090
        BYTE           N03     Gn3   v100
        BYTE   W06
        BYTE                   En4   v090
        BYTE           N03     Gn3   v100
        BYTE   W06
        BYTE                   En4   v090
        BYTE           N03     Gn3   v100
        BYTE   W06
        BYTE                   En4
        BYTE           N03     Fs3   v110
        BYTE   W06
        BYTE                   En4   v090
        BYTE           N03     Fs3   v100
        BYTE   W06
// 035   ----------------------------------------
        BYTE                   En4   v090
        BYTE           N03     Fs3   v100
        BYTE   W06
        BYTE                   En4   v090
        BYTE           N03     Fs3   v100
        BYTE   W06
        BYTE                   En4   v090
        BYTE           N03     Fs3   v100
        BYTE   W06
        BYTE                   En4   v090
        BYTE           N03     Fs3   v100
        BYTE   W06
        BYTE                   Bn3
        BYTE           N03     En3   v110
        BYTE   W06
        BYTE                   Bn3   v090
        BYTE           N03     En3   v100
        BYTE   W06
        BYTE                   Bn3   v090
        BYTE           N03     En3   v100
        BYTE   W06
        BYTE                   Bn3   v090
        BYTE           N03     En3   v100
        BYTE   W06
        BYTE                   Bn3   v090
        BYTE           N03     En3   v100
        BYTE   W06
        BYTE                   Bn3   v090
        BYTE           N03     En3   v100
        BYTE   W06
        BYTE                   An3
        BYTE           N03     Dn3   v110
        BYTE   W06
        BYTE                   An3   v090
        BYTE           N03     Dn3   v100
        BYTE   W06
        BYTE                   An3   v090
        BYTE           N03     Dn3   v100
        BYTE   W06
        BYTE           N12     Fs3   v090
        BYTE           N12     Bn2   v100
        BYTE   W18
// 036   ----------------------------------------
        BYTE           N72     En3   v120
        BYTE           N72     Gn2
        BYTE   W72
        BYTE           N18     Gn3
        BYTE           N18     As2
        BYTE   W18
        BYTE                   As3
        BYTE           N18     Cs3
        BYTE   W06
// 037   ----------------------------------------
        BYTE   W12
        BYTE                   Cs4
        BYTE           N18     En3
        BYTE   W18
        BYTE                   En4
        BYTE           N18     Gn3
        BYTE   W18
        BYTE           TIE     Dn4   v110
        BYTE           TIE     An3
        BYTE   W48
// 038   ----------------------------------------
        BYTE   W28
        BYTE   W01
        BYTE           VOL     31
        BYTE   W04
        BYTE                   30
        BYTE   W03
        BYTE                   29
        BYTE   W03
        BYTE                   28
        BYTE   W03
        BYTE                   26
        BYTE   W02
        BYTE                   24
        BYTE   W03
        BYTE                   22
        BYTE   W04
        BYTE                   20
        BYTE   W06
        BYTE           EOT
        BYTE           EOT     Dn4
        BYTE   W20
        BYTE           VOL     26
        BYTE   W01
        BYTE           N03     Dn3   v120
        BYTE           N03     Fn2
        BYTE   W02
        BYTE           VOL     27
        BYTE   W04
        BYTE                   28
        BYTE           N03     Fn3
        BYTE           N03     An2
        BYTE   W03
        BYTE           VOL     29
        BYTE   W03
        BYTE                   30
        BYTE           N03     An3
        BYTE           N03     Dn3
        BYTE   W02
        BYTE           VOL     31
        BYTE   W04
// 039   ----------------------------------------
        BYTE                   32
        BYTE   GoTo
         POIN2  obps1chivalryandsavagery_1_LOOP
        BYTE   FINE

//****************** Track 2 (Midi-Chn.2) ******************//

obps1chivalryandsavagery_2:
        BYTE   KEYSH   obps1chivalryandsavagery_key+0
// 000   ----------------------------------------
obps1chivalryandsavagery_2_LOOP:
        BYTE           VOICE   48
        BYTE           VOL     24
        BYTE           PAN     c_v+24
        BYTE   W96
// 001   ----------------------------------------
        BYTE   W96
// 002   ----------------------------------------
        BYTE   W96
// 003   ----------------------------------------
        BYTE   W96
// 004   ----------------------------------------
        BYTE   W96
// 005   ----------------------------------------
        BYTE   W96
// 006   ----------------------------------------
obps1chivalryandsavagery_2_6:
        BYTE   W18
        BYTE           N40     An2   v100
        BYTE   W72
        BYTE                   An2
        BYTE   W06
        BYTE   PEND
// 007   ----------------------------------------
obps1chivalryandsavagery_2_7:
        BYTE   W66
        BYTE           N40     An2   v100
        BYTE   W30
        BYTE   PEND
// 008   ----------------------------------------
obps1chivalryandsavagery_2_8:
        BYTE   W42
        BYTE           N40     An2   v100
        BYTE   W54
        BYTE   PEND
// 009   ----------------------------------------
        BYTE   PATT
         POIN2  obps1chivalryandsavagery_2_6
// 010   ----------------------------------------
        BYTE   PATT
         POIN2  obps1chivalryandsavagery_2_7
// 011   ----------------------------------------
        BYTE   PATT
         POIN2  obps1chivalryandsavagery_2_8
// 012   ----------------------------------------
        BYTE   PATT
         POIN2  obps1chivalryandsavagery_2_6
// 013   ----------------------------------------
        BYTE   PATT
         POIN2  obps1chivalryandsavagery_2_7
// 014   ----------------------------------------
        BYTE   PATT
         POIN2  obps1chivalryandsavagery_2_8
// 015   ----------------------------------------
obps1chivalryandsavagery_2_15:
        BYTE   W18
        BYTE           N40     As2   v100
        BYTE   W72
        BYTE                   As2
        BYTE   W06
        BYTE   PEND
// 016   ----------------------------------------
obps1chivalryandsavagery_2_16:
        BYTE   W66
        BYTE           N40     As2   v100
        BYTE   W30
        BYTE   PEND
// 017   ----------------------------------------
obps1chivalryandsavagery_2_17:
        BYTE   W42
        BYTE           N40     As2   v100
        BYTE   W54
        BYTE   PEND
// 018   ----------------------------------------
        BYTE   PATT
         POIN2  obps1chivalryandsavagery_2_15
// 019   ----------------------------------------
        BYTE   PATT
         POIN2  obps1chivalryandsavagery_2_16
// 020   ----------------------------------------
        BYTE   PATT
         POIN2  obps1chivalryandsavagery_2_17
// 021   ----------------------------------------
        BYTE   W48
        BYTE           N06     Cn5   v050
        BYTE   W12
        BYTE                   Gs4
        BYTE   W12
        BYTE                   Gn4
        BYTE   W12
        BYTE                   En4
        BYTE   W12
// 022   ----------------------------------------
        BYTE                   Ds4
        BYTE   W12
        BYTE                   Cn4
        BYTE   W12
        BYTE                   Cs4
        BYTE   W12
        BYTE                   Gn4
        BYTE   W60
// 023   ----------------------------------------
        BYTE   W96
// 024   ----------------------------------------
        BYTE   W48
        BYTE                   Cs5
        BYTE   W12
        BYTE                   An4
        BYTE   W12
        BYTE                   Gs4
        BYTE   W12
        BYTE                   Fn4
        BYTE   W12
// 025   ----------------------------------------
        BYTE                   En4
        BYTE   W12
        BYTE                   Cs4
        BYTE   W12
        BYTE                   Dn4
        BYTE   W12
        BYTE                   Gs4
        BYTE   W60
// 026   ----------------------------------------
        BYTE   W96
// 027   ----------------------------------------
        BYTE   W96
// 028   ----------------------------------------
        BYTE   W66
        BYTE           N40     Cs3   v100
        BYTE   W30
// 029   ----------------------------------------
        BYTE   W42
        BYTE                   Cs3
        BYTE   W54
// 030   ----------------------------------------
        BYTE   W18
        BYTE                   Cs3
        BYTE   W72
        BYTE                   Cs3
        BYTE   W06
// 031   ----------------------------------------
obps1chivalryandsavagery_2_31:
        BYTE   W48
        BYTE           N36     En2   v090
        BYTE   W36
        BYTE                   Fs2
        BYTE   W12
        BYTE   PEND
// 032   ----------------------------------------
        BYTE   W24
        BYTE                   Gn2
        BYTE   W36
        BYTE           N32     An2   v090   gtp1
        BYTE   W36
// 033   ----------------------------------------
        BYTE   W96
// 034   ----------------------------------------
        BYTE   PATT
         POIN2  obps1chivalryandsavagery_2_31
// 035   ----------------------------------------
        BYTE   W24
        BYTE           N36     Gn2   v090
        BYTE   W36
        BYTE           N18     An2
        BYTE   W18
        BYTE                   Bn2
        BYTE   W18
// 036   ----------------------------------------
        BYTE   W96
// 037   ----------------------------------------
        BYTE   PATT
         POIN2  obps1chivalryandsavagery_2_7
// 038   ----------------------------------------
        BYTE   PATT
         POIN2  obps1chivalryandsavagery_2_8
// 039   ----------------------------------------
        BYTE   GoTo
         POIN2  obps1chivalryandsavagery_2_LOOP
        BYTE   FINE

//****************** Track 3 (Midi-Chn.3) ******************//

obps1chivalryandsavagery_3:
        BYTE   KEYSH   obps1chivalryandsavagery_key+0
// 000   ----------------------------------------
obps1chivalryandsavagery_3_LOOP:
        BYTE           VOICE   32
        BYTE           VOL     28
        BYTE           PAN     c_v-16
        BYTE           N09     Dn1   v110
        BYTE   W18
        BYTE           N06
        BYTE   W12
        BYTE           N03
        BYTE   W06
        BYTE           N09
        BYTE   W18
        BYTE           N06
        BYTE   W12
        BYTE           N03
        BYTE   W06
        BYTE           N09
        BYTE   W18
        BYTE           N06
        BYTE   W06
// 001   ----------------------------------------
        BYTE   W06
        BYTE           N03
        BYTE   W06
        BYTE           N06     Cn1
        BYTE   W18
        BYTE                   Cn1
        BYTE   W18
        BYTE                   As0
        BYTE   W18
        BYTE                   As0
        BYTE   W18
        BYTE                   Cn1
        BYTE   W12
// 002   ----------------------------------------
        BYTE   W06
        BYTE                   Cn1
        BYTE   W18
        BYTE                   Dn1
        BYTE   W18
        BYTE                   Gn1
        BYTE   W18
        BYTE                   En1
        BYTE   W18
        BYTE                   An0
        BYTE   W18
// 003   ----------------------------------------
        BYTE           N09     Dn1
        BYTE   W18
        BYTE           N06
        BYTE   W12
        BYTE           N03
        BYTE   W06
        BYTE           N09
        BYTE   W18
        BYTE           N06
        BYTE   W12
        BYTE           N03
        BYTE   W06
        BYTE           N09
        BYTE   W18
        BYTE           N06
        BYTE   W06
// 004   ----------------------------------------
        BYTE   W06
        BYTE           N03
        BYTE   W06
        BYTE           N06     Cn1
        BYTE   W18
        BYTE                   Cn1
        BYTE   W18
        BYTE                   As0
        BYTE   W18
        BYTE                   As0
        BYTE   W18
        BYTE                   An0
        BYTE   W12
// 005   ----------------------------------------
        BYTE   W06
        BYTE                   An0
        BYTE   W18
        BYTE                   Dn1
        BYTE   W18
        BYTE                   Dn1
        BYTE   W18
        BYTE                   Ds1
        BYTE   W18
        BYTE                   Ds1
        BYTE   W18
// 006   ----------------------------------------
obps1chivalryandsavagery_3_6:
        BYTE           N44     Dn1   v110   gtp2
        BYTE   W54
        BYTE           N03     An0
        BYTE   W06
        BYTE                   An0
        BYTE   W06
        BYTE                   An0
        BYTE   W06
        BYTE           N44     Dn1   v110   gtp2
        BYTE   W24
        BYTE   PEND
// 007   ----------------------------------------
obps1chivalryandsavagery_3_7:
        BYTE   W30
        BYTE           N03     An0   v110
        BYTE   W06
        BYTE                   An0
        BYTE   W06
        BYTE                   An0
        BYTE   W06
        BYTE           N44     Dn1   v110   gtp2
        BYTE   W48
        BYTE   PEND
// 008   ----------------------------------------
obps1chivalryandsavagery_3_8:
        BYTE   W06
        BYTE           N03     An0   v110
        BYTE   W06
        BYTE                   An0
        BYTE   W06
        BYTE                   An0
        BYTE   W06
        BYTE           N44     Dn1   v110   gtp2
        BYTE   W54
        BYTE           N03     An0
        BYTE   W06
        BYTE                   An0
        BYTE   W06
        BYTE                   An0
        BYTE   W06
        BYTE   PEND
// 009   ----------------------------------------
        BYTE   PATT
         POIN2  obps1chivalryandsavagery_3_6
// 010   ----------------------------------------
        BYTE   PATT
         POIN2  obps1chivalryandsavagery_3_7
// 011   ----------------------------------------
        BYTE   PATT
         POIN2  obps1chivalryandsavagery_3_8
// 012   ----------------------------------------
        BYTE   PATT
         POIN2  obps1chivalryandsavagery_3_6
// 013   ----------------------------------------
        BYTE   PATT
         POIN2  obps1chivalryandsavagery_3_7
// 014   ----------------------------------------
        BYTE   PATT
         POIN2  obps1chivalryandsavagery_3_8
// 015   ----------------------------------------
obps1chivalryandsavagery_3_15:
        BYTE           N44     Ds1   v110   gtp2
        BYTE   W54
        BYTE           N03     As0
        BYTE   W06
        BYTE                   As0
        BYTE   W06
        BYTE                   As0
        BYTE   W06
        BYTE           N44     Ds1   v110   gtp2
        BYTE   W24
        BYTE   PEND
// 016   ----------------------------------------
obps1chivalryandsavagery_3_16:
        BYTE   W30
        BYTE           N03     As0   v110
        BYTE   W06
        BYTE                   As0
        BYTE   W06
        BYTE                   As0
        BYTE   W06
        BYTE           N44     Ds1   v110   gtp2
        BYTE   W48
        BYTE   PEND
// 017   ----------------------------------------
obps1chivalryandsavagery_3_17:
        BYTE   W06
        BYTE           N03     As0   v110
        BYTE   W06
        BYTE                   As0
        BYTE   W06
        BYTE                   As0
        BYTE   W06
        BYTE           N44     Ds1   v110   gtp2
        BYTE   W54
        BYTE           N03     As0
        BYTE   W06
        BYTE                   As0
        BYTE   W06
        BYTE                   As0
        BYTE   W06
        BYTE   PEND
// 018   ----------------------------------------
        BYTE   PATT
         POIN2  obps1chivalryandsavagery_3_15
// 019   ----------------------------------------
        BYTE   PATT
         POIN2  obps1chivalryandsavagery_3_16
// 020   ----------------------------------------
        BYTE   PATT
         POIN2  obps1chivalryandsavagery_3_17
// 021   ----------------------------------------
        BYTE           N03     Cn1   v110
        BYTE   W06
        BYTE                   Cn1
        BYTE   W06
        BYTE                   Cn1
        BYTE   W06
        BYTE           N15
        BYTE   W18
        BYTE           N05
        BYTE   W36
        BYTE           N03     Cn1   v080
        BYTE   W06
        BYTE                   Cn1
        BYTE   W06
        BYTE                   Cn1   v090
        BYTE   W06
        BYTE                   Cn1
        BYTE   W06
// 022   ----------------------------------------
        BYTE                   Cn1   v100
        BYTE   W06
        BYTE                   Cn1   v110
        BYTE   W06
        BYTE                   Cn1   v080
        BYTE   W06
        BYTE                   Cn1
        BYTE   W06
        BYTE                   Cn1   v090
        BYTE   W06
        BYTE                   Cn1
        BYTE   W06
        BYTE                   Cn1   v100
        BYTE   W06
        BYTE                   Cn1   v110
        BYTE   W06
        BYTE                   Cn1
        BYTE   W06
        BYTE                   Cn1
        BYTE   W06
        BYTE                   Cn1
        BYTE   W06
        BYTE           N15
        BYTE   W18
        BYTE           N05
        BYTE   W12
// 023   ----------------------------------------
        BYTE   W24
        BYTE           N03     Cn1   v080
        BYTE   W06
        BYTE                   Cn1
        BYTE   W06
        BYTE                   Cn1   v090
        BYTE   W06
        BYTE                   Cn1
        BYTE   W06
        BYTE                   Cn1   v100
        BYTE   W06
        BYTE                   Cn1   v110
        BYTE   W06
        BYTE                   Cn1   v080
        BYTE   W06
        BYTE                   Cn1
        BYTE   W06
        BYTE                   Cn1   v090
        BYTE   W06
        BYTE                   Cn1
        BYTE   W06
        BYTE                   Cn1   v100
        BYTE   W06
        BYTE                   Cn1   v110
        BYTE   W06
// 024   ----------------------------------------
        BYTE                   Cs1
        BYTE   W06
        BYTE                   Cs1
        BYTE   W06
        BYTE                   Cs1
        BYTE   W06
        BYTE           N15
        BYTE   W18
        BYTE           N05
        BYTE   W36
        BYTE           N03     Cs1   v080
        BYTE   W06
        BYTE                   Cs1
        BYTE   W06
        BYTE                   Cs1   v090
        BYTE   W06
        BYTE                   Cs1
        BYTE   W06
// 025   ----------------------------------------
        BYTE                   Cs1   v100
        BYTE   W06
        BYTE                   Cs1   v110
        BYTE   W06
        BYTE                   Cs1   v080
        BYTE   W06
        BYTE                   Cs1
        BYTE   W06
        BYTE                   Cs1   v090
        BYTE   W06
        BYTE                   Cs1
        BYTE   W06
        BYTE                   Cs1   v100
        BYTE   W06
        BYTE                   Cs1   v110
        BYTE   W06
        BYTE                   Dn1
        BYTE   W06
        BYTE                   Dn1
        BYTE   W06
        BYTE                   Dn1
        BYTE   W06
        BYTE           N15
        BYTE   W18
        BYTE           N05
        BYTE   W12
// 026   ----------------------------------------
        BYTE   W24
        BYTE           N03     Dn1   v080
        BYTE   W06
        BYTE                   Dn1
        BYTE   W06
        BYTE                   Dn1   v090
        BYTE   W06
        BYTE                   Dn1
        BYTE   W06
        BYTE                   Dn1   v100
        BYTE   W06
        BYTE                   Dn1   v110
        BYTE   W06
        BYTE                   Dn1   v080
        BYTE   W06
        BYTE                   Dn1
        BYTE   W06
        BYTE                   Dn1   v090
        BYTE   W06
        BYTE                   Dn1
        BYTE   W06
        BYTE                   Dn1   v100
        BYTE   W06
        BYTE                   Dn1   v110
        BYTE   W06
// 027   ----------------------------------------
        BYTE                   Ds1   v080
        BYTE   W06
        BYTE                   Ds1
        BYTE   W06
        BYTE                   Ds1   v090
        BYTE   W06
        BYTE                   Ds1
        BYTE   W06
        BYTE                   Ds1   v100
        BYTE   W06
        BYTE                   Ds1   v110
        BYTE   W06
        BYTE                   Ds1   v080
        BYTE   W06
        BYTE                   Ds1
        BYTE   W06
        BYTE                   Ds1   v090
        BYTE   W06
        BYTE                   Ds1
        BYTE   W06
        BYTE                   Ds1   v100
        BYTE   W06
        BYTE                   Ds1   v110
        BYTE   W06
        BYTE                   En1   v080
        BYTE   W06
        BYTE                   En1
        BYTE   W06
        BYTE                   En1   v090
        BYTE   W06
        BYTE                   En1
        BYTE   W06
// 028   ----------------------------------------
        BYTE                   En1   v100
        BYTE   W06
        BYTE                   En1   v110
        BYTE   W06
        BYTE                   En1   v080
        BYTE   W06
        BYTE                   En1
        BYTE   W06
        BYTE                   En1   v090
        BYTE   W06
        BYTE                   En1
        BYTE   W06
        BYTE                   En1   v100
        BYTE   W06
        BYTE                   En1   v110
        BYTE   W06
        BYTE           N44     Fs1   v110   gtp2
        BYTE   W48
// 029   ----------------------------------------
        BYTE   W06
        BYTE           N03     Cs1
        BYTE   W06
        BYTE                   Cs1
        BYTE   W06
        BYTE                   Cs1
        BYTE   W06
        BYTE           N44     Fs1   v110   gtp2
        BYTE   W54
        BYTE           N03     Cs1
        BYTE   W06
        BYTE                   Cs1
        BYTE   W06
        BYTE                   Cs1
        BYTE   W06
// 030   ----------------------------------------
        BYTE           N44     Fs1   v110   gtp2
        BYTE   W54
        BYTE           N03     Cs1
        BYTE   W06
        BYTE                   Cs1
        BYTE   W06
        BYTE                   Cs1
        BYTE   W06
        BYTE           N44     Fs1   v110   gtp2
        BYTE   W24
// 031   ----------------------------------------
        BYTE   W30
        BYTE           N03     Cs1
        BYTE   W06
        BYTE                   Cs1
        BYTE   W06
        BYTE                   Cs1
        BYTE   W06
        BYTE           N06     En1   v100
        BYTE   W18
        BYTE                   En1
        BYTE   W12
        BYTE           N03
        BYTE   W06
        BYTE           N06
        BYTE   W12
// 032   ----------------------------------------
        BYTE   W06
        BYTE                   En1
        BYTE   W12
        BYTE           N03
        BYTE   W06
        BYTE           N06
        BYTE   W18
        BYTE                   En1
        BYTE   W12
        BYTE           N03
        BYTE   W06
        BYTE           N06     Dn1
        BYTE   W18
        BYTE                   Dn1
        BYTE   W18
// 033   ----------------------------------------
        BYTE                   Cn1
        BYTE   W18
        BYTE                   Cn1
        BYTE   W18
        BYTE                   Cn1
        BYTE   W18
        BYTE                   Cn1
        BYTE   W18
        BYTE                   Fs1
        BYTE   W18
        BYTE                   Fs1
        BYTE   W06
// 034   ----------------------------------------
        BYTE   W12
        BYTE                   Bn0
        BYTE   W18
        BYTE                   Ds1
        BYTE   W18
        BYTE                   En1
        BYTE   W18
        BYTE                   En1
        BYTE   W12
        BYTE           N03
        BYTE   W06
        BYTE           N06     Dn1
        BYTE   W12
// 035   ----------------------------------------
        BYTE   W06
        BYTE                   Dn1
        BYTE   W12
        BYTE           N03
        BYTE   W06
        BYTE           N06     Cn1
        BYTE   W18
        BYTE                   Cn1
        BYTE   W12
        BYTE           N03
        BYTE   W06
        BYTE           N06     Bn0
        BYTE   W18
        BYTE                   Bn0
        BYTE   W18
// 036   ----------------------------------------
        BYTE                   Cn1
        BYTE   W18
        BYTE                   Cn1
        BYTE   W18
        BYTE                   Cn1
        BYTE   W18
        BYTE                   Cn1
        BYTE   W18
        BYTE                   Cn1
        BYTE   W18
        BYTE                   Cn1
        BYTE   W06
// 037   ----------------------------------------
        BYTE   W12
        BYTE                   Cn1
        BYTE   W18
        BYTE                   Cn1
        BYTE   W18
        BYTE           N44     Dn1   v110   gtp2
        BYTE   W48
// 038   ----------------------------------------
        BYTE   W06
        BYTE           N03     An0
        BYTE   W06
        BYTE                   An0
        BYTE   W06
        BYTE                   An0
        BYTE   W06
        BYTE           N36     Dn1
        BYTE   W54
        BYTE           N03     An0   v100
        BYTE   W06
        BYTE                   An0
        BYTE   W06
        BYTE                   An0
        BYTE   W06
// 039   ----------------------------------------
        BYTE   GoTo
         POIN2  obps1chivalryandsavagery_3_LOOP
        BYTE   FINE

//****************** Track 4 (Midi-Chn.4) ******************//

obps1chivalryandsavagery_4:
        BYTE   KEYSH   obps1chivalryandsavagery_key+0
// 000   ----------------------------------------
obps1chivalryandsavagery_4_LOOP:
        BYTE           VOICE   52
        BYTE           VOL     30
        BYTE   W96
// 001   ----------------------------------------
        BYTE   W48
        BYTE           N30     Dn3   v090
        BYTE   W36
        BYTE                   Gn3
        BYTE   W12
// 002   ----------------------------------------
        BYTE   W24
        BYTE           N15     Fn3
        BYTE   W18
        BYTE                   As3
        BYTE   W18
        BYTE                   An3
        BYTE   W36
// 003   ----------------------------------------
        BYTE   W96
// 004   ----------------------------------------
        BYTE   W48
        BYTE                   As2
        BYTE   W18
        BYTE                   Dn3
        BYTE   W18
        BYTE                   En3
        BYTE   W12
// 005   ----------------------------------------
        BYTE   W06
        BYTE                   An3
        BYTE   W18
        BYTE           N02
        BYTE   W02
        BYTE           N30     Dn4
        BYTE   W32
        BYTE   W02
        BYTE           N02     As3
        BYTE   W02
        BYTE           N30     Ds4
        BYTE   W32
        BYTE   W02
// 006   ----------------------------------------
        BYTE   W96
// 007   ----------------------------------------
        BYTE   W96
// 008   ----------------------------------------
        BYTE   W96
// 009   ----------------------------------------
        BYTE   W96
// 010   ----------------------------------------
        BYTE   W96
// 011   ----------------------------------------
        BYTE   W96
// 012   ----------------------------------------
        BYTE   W96
// 013   ----------------------------------------
        BYTE   W96
// 014   ----------------------------------------
        BYTE   W96
// 015   ----------------------------------------
        BYTE   W96
// 016   ----------------------------------------
        BYTE   W96
// 017   ----------------------------------------
        BYTE   W96
// 018   ----------------------------------------
        BYTE   W96
// 019   ----------------------------------------
        BYTE   W96
// 020   ----------------------------------------
        BYTE   W96
// 021   ----------------------------------------
        BYTE   W48
        BYTE           VOICE   24
        BYTE           N06     Cn4   v100
        BYTE           N06     Gn3
        BYTE   W06
        BYTE                   Cn4   v050
        BYTE           N06     Gn3
        BYTE   W06
        BYTE                   Gs3   v100
        BYTE           N06     En3
        BYTE   W06
        BYTE                   Gs3   v050
        BYTE           N06     En3
        BYTE   W06
        BYTE                   Gn3   v100
        BYTE           N06     Ds3
        BYTE   W06
        BYTE                   Gn3   v050
        BYTE           N06     Ds3
        BYTE   W06
        BYTE                   En3   v100
        BYTE           N06     Cs3
        BYTE   W06
        BYTE                   En3   v050
        BYTE           N06     Cs3
        BYTE   W06
// 022   ----------------------------------------
        BYTE                   Ds3   v100
        BYTE           N06     Cn3
        BYTE   W06
        BYTE                   Ds3   v050
        BYTE           N06     Cn3
        BYTE   W06
        BYTE                   Cn3   v100
        BYTE           N06     Gn2
        BYTE   W06
        BYTE                   Cn3   v050
        BYTE           N06     Gn2
        BYTE   W06
        BYTE                   Cs3   v100
        BYTE           N06     Gs2
        BYTE   W06
        BYTE                   Cs3   v050
        BYTE           N06     Gs2
        BYTE   W06
        BYTE                   Gn3   v100
        BYTE           N06     Ds3
        BYTE   W06
        BYTE                   Gn3   v050
        BYTE           N06     Ds3
        BYTE   W54
// 023   ----------------------------------------
        BYTE   W24
        BYTE           VOICE   52
        BYTE           N12     Gs3   v080
        BYTE   W12
        BYTE                   Gn3
        BYTE   W12
        BYTE                   En3
        BYTE   W12
        BYTE                   Ds3
        BYTE   W12
        BYTE                   Cs3
        BYTE   W12
        BYTE                   Cn3
        BYTE   W12
// 024   ----------------------------------------
        BYTE   W48
        BYTE           VOICE   24
        BYTE           N06     Cs4   v100
        BYTE           N06     Gs3
        BYTE   W06
        BYTE                   Cs4   v050
        BYTE           N06     Gs3
        BYTE   W06
        BYTE                   An3   v100
        BYTE           N06     Fn3
        BYTE   W06
        BYTE                   An3   v050
        BYTE           N06     Fn3
        BYTE   W06
        BYTE                   Gs3   v100
        BYTE           N06     En3
        BYTE   W06
        BYTE                   Gs3   v050
        BYTE           N06     En3
        BYTE   W06
        BYTE                   Fn3   v100
        BYTE           N06     Dn3
        BYTE   W06
        BYTE                   Fn3   v050
        BYTE           N06     Dn3
        BYTE   W06
// 025   ----------------------------------------
        BYTE                   En3   v100
        BYTE           N06     Cs3
        BYTE   W06
        BYTE                   En3   v050
        BYTE           N06     Cs3
        BYTE   W06
        BYTE                   Cs3   v100
        BYTE           N06     Gs2
        BYTE   W06
        BYTE                   Cs3   v050
        BYTE           N06     Gs2
        BYTE   W06
        BYTE                   Dn3   v100
        BYTE           N06     An2
        BYTE   W06
        BYTE                   Dn3   v050
        BYTE           N06     An2
        BYTE   W06
        BYTE                   Gs3   v100
        BYTE           N06     En3
        BYTE   W06
        BYTE                   Gs3   v050
        BYTE           N06     En3
        BYTE   W54
// 026   ----------------------------------------
        BYTE   W24
        BYTE           VOICE   52
        BYTE           N12     As3   v080
        BYTE   W12
        BYTE                   An3
        BYTE   W12
        BYTE                   Fs3
        BYTE   W12
        BYTE                   Fn3
        BYTE   W12
        BYTE                   Ds3
        BYTE   W12
        BYTE                   Dn3
        BYTE   W12
// 027   ----------------------------------------
        BYTE                   Bn3
        BYTE   W12
        BYTE                   As3
        BYTE   W12
        BYTE                   Gn3
        BYTE   W12
        BYTE                   Fs3
        BYTE   W12
        BYTE                   En3
        BYTE   W12
        BYTE                   Ds3
        BYTE   W36
// 028   ----------------------------------------
        BYTE   W96
// 029   ----------------------------------------
        BYTE   W96
// 030   ----------------------------------------
        BYTE   W96
// 031   ----------------------------------------
        BYTE   W96
// 032   ----------------------------------------
        BYTE   W96
// 033   ----------------------------------------
        BYTE                   Cn4
        BYTE   W18
        BYTE                   En3
        BYTE   W18
        BYTE                   Fs3
        BYTE   W18
        BYTE                   Gn3
        BYTE   W18
        BYTE                   An3
        BYTE   W18
        BYTE                   Cs4
        BYTE   W06
// 034   ----------------------------------------
        BYTE   W12
        BYTE                   Fs4
        BYTE   W84
// 035   ----------------------------------------
        BYTE   W96
// 036   ----------------------------------------
        BYTE   W96
// 037   ----------------------------------------
        BYTE   W96
// 038   ----------------------------------------
        BYTE   W96
// 039   ----------------------------------------
        BYTE   GoTo
         POIN2  obps1chivalryandsavagery_4_LOOP
        BYTE   FINE

//****************** Track 5 (Midi-Chn.5) ******************//

obps1chivalryandsavagery_5:
        BYTE   KEYSH   obps1chivalryandsavagery_key+0
// 000   ----------------------------------------
obps1chivalryandsavagery_5_LOOP:
        BYTE           VOICE   47
        BYTE           VOL     32
        BYTE   W18
        BYTE           N24     Dn2   v102
        BYTE   W36
        BYTE                   Dn2
        BYTE   W36
        BYTE                   Dn2
        BYTE   W06
// 001   ----------------------------------------
        BYTE   W12
        BYTE           N05     Cn3
        BYTE   W06
        BYTE                   Gn2   v091
        BYTE   W06
        BYTE                   Gn2
        BYTE   W06
        BYTE                   Cn3   v102
        BYTE   W06
        BYTE                   Gn2   v091
        BYTE   W06
        BYTE           N16
        BYTE   W06
        BYTE           VOICE   73
        BYTE           N04     Dn4   v120
        BYTE   W06
        BYTE                   En4
        BYTE   W06
        BYTE                   Fn4
        BYTE   W06
        BYTE                   Gn4
        BYTE   W06
        BYTE                   Fn4
        BYTE   W06
        BYTE                   Dn4
        BYTE   W06
        BYTE                   En4
        BYTE   W06
        BYTE                   Fn4
        BYTE   W06
// 002   ----------------------------------------
        BYTE                   Gn4
        BYTE   W06
        BYTE                   An4
        BYTE   W06
        BYTE                   Gn4
        BYTE   W06
        BYTE           N03     En4
        BYTE   W06
        BYTE           N04     Fn4
        BYTE   W06
        BYTE                   Gn4
        BYTE   W06
        BYTE                   An4
        BYTE   W06
        BYTE                   As4
        BYTE   W06
        BYTE                   Cn5
        BYTE   W06
        BYTE                   Dn5
        BYTE   W06
        BYTE           N16     En5
        BYTE   W18
        BYTE           VOICE   47
        BYTE           N02     An2   v091
        BYTE   W03
        BYTE                   An2   v079
        BYTE   W03
        BYTE           N05     An2   v091
        BYTE   W06
        BYTE           N24     An2   v102
        BYTE   W06
// 003   ----------------------------------------
        BYTE   W18
        BYTE                   Dn2
        BYTE   W36
        BYTE                   Dn2
        BYTE   W36
        BYTE                   Dn2
        BYTE   W06
// 004   ----------------------------------------
        BYTE   W12
        BYTE           N05     Cn3
        BYTE   W06
        BYTE                   Gn2   v091
        BYTE   W06
        BYTE                   Gn2
        BYTE   W06
        BYTE                   Cn3   v102
        BYTE   W06
        BYTE                   Gn2   v091
        BYTE   W06
        BYTE           N24
        BYTE   W54
// 005   ----------------------------------------
        BYTE   W96
// 006   ----------------------------------------
obps1chivalryandsavagery_5_6:
        BYTE           N24     Dn2   v114
        BYTE   W54
        BYTE           N05     Dn3   v079
        BYTE   W06
        BYTE                   Dn3   v091
        BYTE   W06
        BYTE                   Dn3   v102
        BYTE   W06
        BYTE           N24     Dn2   v114
        BYTE   W24
        BYTE   PEND
// 007   ----------------------------------------
obps1chivalryandsavagery_5_7:
        BYTE   W30
        BYTE           N05     Dn3   v079
        BYTE   W06
        BYTE                   Dn3   v091
        BYTE   W06
        BYTE                   Dn3   v102
        BYTE   W06
        BYTE           N24     Dn2   v114
        BYTE   W48
        BYTE   PEND
// 008   ----------------------------------------
obps1chivalryandsavagery_5_8:
        BYTE   W06
        BYTE           N05     Dn3   v079
        BYTE   W06
        BYTE                   Dn3   v091
        BYTE   W06
        BYTE                   Dn3   v102
        BYTE   W06
        BYTE           N24     Dn2   v114
        BYTE   W54
        BYTE           N05     Dn3   v079
        BYTE   W06
        BYTE                   Dn3   v091
        BYTE   W06
        BYTE                   Dn3   v102
        BYTE   W06
        BYTE   PEND
// 009   ----------------------------------------
        BYTE   PATT
         POIN2  obps1chivalryandsavagery_5_6
// 010   ----------------------------------------
        BYTE   PATT
         POIN2  obps1chivalryandsavagery_5_7
// 011   ----------------------------------------
        BYTE   PATT
         POIN2  obps1chivalryandsavagery_5_8
// 012   ----------------------------------------
        BYTE   PATT
         POIN2  obps1chivalryandsavagery_5_6
// 013   ----------------------------------------
        BYTE   PATT
         POIN2  obps1chivalryandsavagery_5_7
// 014   ----------------------------------------
        BYTE   PATT
         POIN2  obps1chivalryandsavagery_5_8
// 015   ----------------------------------------
obps1chivalryandsavagery_5_15:
        BYTE           N24     Ds2   v114
        BYTE   W54
        BYTE           N05     Ds3   v079
        BYTE   W06
        BYTE                   Ds3   v091
        BYTE   W06
        BYTE                   Ds3   v102
        BYTE   W06
        BYTE           N24     Ds2   v114
        BYTE   W24
        BYTE   PEND
// 016   ----------------------------------------
obps1chivalryandsavagery_5_16:
        BYTE   W30
        BYTE           N05     Ds3   v079
        BYTE   W06
        BYTE                   Ds3   v091
        BYTE   W06
        BYTE                   Ds3   v102
        BYTE   W06
        BYTE           N24     Ds2   v114
        BYTE   W48
        BYTE   PEND
// 017   ----------------------------------------
        BYTE   W06
        BYTE           N05     Ds3   v079
        BYTE   W06
        BYTE                   Ds3   v091
        BYTE   W06
        BYTE                   Ds3   v102
        BYTE   W06
        BYTE           N24     Ds2   v114
        BYTE   W54
        BYTE           N05     Ds3   v079
        BYTE   W06
        BYTE                   Ds3   v091
        BYTE   W06
        BYTE                   Ds3   v102
        BYTE   W06
// 018   ----------------------------------------
        BYTE   PATT
         POIN2  obps1chivalryandsavagery_5_15
// 019   ----------------------------------------
        BYTE   PATT
         POIN2  obps1chivalryandsavagery_5_16
// 020   ----------------------------------------
        BYTE   W06
        BYTE           N05     Ds3   v079
        BYTE   W06
        BYTE                   Ds3   v091
        BYTE   W06
        BYTE                   Ds3   v102
        BYTE   W06
        BYTE           N48     Ds3   v114
        BYTE   W54
        BYTE           N05     Ds3   v079
        BYTE   W06
        BYTE                   Ds3   v091
        BYTE   W06
        BYTE                   Ds3   v102
        BYTE   W06
// 021   ----------------------------------------
        BYTE                   Cn3
        BYTE   W06
        BYTE                   Cn3   v091
        BYTE   W06
        BYTE                   Cn3   v079
        BYTE   W06
        BYTE           N02
        BYTE   W03
        BYTE                   Cn3
        BYTE   W03
        BYTE                   Cn3
        BYTE   W03
        BYTE                   Cn3
        BYTE   W03
        BYTE                   Cn3
        BYTE   W03
        BYTE                   Cn3
        BYTE   W03
        BYTE           N24     Cn2   v114
        BYTE   W60
// 022   ----------------------------------------
        BYTE   W48
        BYTE           N05     Cn3   v102
        BYTE   W06
        BYTE                   Cn3   v091
        BYTE   W06
        BYTE           N04     Cn3   v079
        BYTE   W06
        BYTE           N02
        BYTE   W03
        BYTE                   Cn3
        BYTE   W03
        BYTE                   Cn3
        BYTE   W03
        BYTE                   Cn3
        BYTE   W03
        BYTE                   Cn3
        BYTE   W03
        BYTE                   Cn3
        BYTE   W03
        BYTE           N24     Cn2   v114
        BYTE   W12
// 023   ----------------------------------------
        BYTE   W96
// 024   ----------------------------------------
        BYTE           N05     Cs3   v102
        BYTE   W06
        BYTE                   Cs3   v091
        BYTE   W06
        BYTE           N04     Cs3   v079
        BYTE   W06
        BYTE           N02
        BYTE   W03
        BYTE                   Cs3
        BYTE   W03
        BYTE                   Cs3
        BYTE   W03
        BYTE                   Cs3
        BYTE   W03
        BYTE                   Cs3
        BYTE   W03
        BYTE                   Cs3
        BYTE   W03
        BYTE           N24     Cs2   v114
        BYTE   W60
// 025   ----------------------------------------
        BYTE   W48
        BYTE           N05     Dn3   v102
        BYTE   W06
        BYTE                   Dn3   v091
        BYTE   W06
        BYTE           N04     Dn3   v079
        BYTE   W06
        BYTE           N02     Cs3
        BYTE   W03
        BYTE                   Cs3
        BYTE   W03
        BYTE                   Cs3
        BYTE   W03
        BYTE                   Cs3
        BYTE   W03
        BYTE                   Cs3
        BYTE   W03
        BYTE                   Cs3
        BYTE   W03
        BYTE           N24     Dn2   v114
        BYTE   W12
// 026   ----------------------------------------
        BYTE   W96
// 027   ----------------------------------------
        BYTE   W72
        BYTE                   En2   v068
        BYTE   W06
        BYTE           N02     En3
        BYTE   W06
        BYTE                   En3   v079
        BYTE   W06
        BYTE                   En3
        BYTE   W06
// 028   ----------------------------------------
        BYTE                   En3   v091
        BYTE   W06
        BYTE           N24     En2   v102
        BYTE   W06
        BYTE           N02     En3   v079
        BYTE   W03
        BYTE                   En3   v068
        BYTE   W03
        BYTE                   En3   v057
        BYTE   W03
        BYTE                   En3   v068
        BYTE   W03
        BYTE                   En3   v079
        BYTE   W03
        BYTE                   En3   v091
        BYTE   W03
        BYTE           N24     En2   v102
        BYTE   W06
        BYTE           N02     En3   v114
        BYTE   W06
        BYTE                   En3   v125
        BYTE   W06
        BYTE           N24     Fs2   v114
        BYTE   W48
// 029   ----------------------------------------
        BYTE   W06
        BYTE           N05     Fs3   v079
        BYTE   W06
        BYTE                   Fs3   v091
        BYTE   W06
        BYTE                   Fs3   v102
        BYTE   W06
        BYTE           N24     Fs2   v114
        BYTE   W54
        BYTE           N05     Fs3   v079
        BYTE   W06
        BYTE                   Fs3   v091
        BYTE   W06
        BYTE                   Fs3   v102
        BYTE   W06
// 030   ----------------------------------------
        BYTE           N24     Fs2   v114
        BYTE   W54
        BYTE           N05     Fs3   v079
        BYTE   W06
        BYTE                   Fs3   v091
        BYTE   W06
        BYTE                   Fs3   v102
        BYTE   W06
        BYTE           N24     Fs2   v114
        BYTE   W24
// 031   ----------------------------------------
        BYTE   W30
        BYTE           N05     Fs3   v079
        BYTE   W06
        BYTE                   Fs3   v091
        BYTE   W06
        BYTE           N24     Fs2   v102
        BYTE   W54
// 032   ----------------------------------------
        BYTE   W96
// 033   ----------------------------------------
        BYTE   W96
// 034   ----------------------------------------
        BYTE   W30
        BYTE                   Ds3   v114
        BYTE   W06
        BYTE           N06     Bn2
        BYTE   W06
        BYTE                   Bn2
        BYTE   W54
// 035   ----------------------------------------
        BYTE   W96
// 036   ----------------------------------------
        BYTE   W42
        BYTE           N02     Cn3   v102
        BYTE   W03
        BYTE                   Cn3   v091
        BYTE   W03
        BYTE           N06     Cn2
        BYTE   W06
        BYTE                   Gn2   v079
        BYTE   W06
        BYTE                   Gn2   v091
        BYTE   W06
        BYTE                   Gn2   v102
        BYTE   W30
// 037   ----------------------------------------
        BYTE   W12
        BYTE           N03     Cn3   v057
        BYTE   W04
        BYTE           N04
        BYTE   W05
        BYTE           N03
        BYTE   W04
        BYTE           N04     Cn3   v068
        BYTE   W05
        BYTE           N03     Cn3   v079
        BYTE   W04
        BYTE                   Cn3
        BYTE   W03
        BYTE           N04     Cn3   v091
        BYTE   W04
        BYTE           N03     Cn3   v102
        BYTE   W04
        BYTE           N02
        BYTE   W03
        BYTE           N24     Dn2   v114
        BYTE   W48
// 038   ----------------------------------------
        BYTE   W06
        BYTE           N03     Dn2   v079
        BYTE   W06
        BYTE                   Dn2   v091
        BYTE   W06
        BYTE                   Dn2   v102
        BYTE   W06
        BYTE           N48     Dn2   v114
        BYTE   W54
        BYTE           N18
        BYTE   W18
// 039   ----------------------------------------
        BYTE   GoTo
         POIN2  obps1chivalryandsavagery_5_LOOP
        BYTE   FINE

//****************** Track 6 (Midi-Chn.6) ******************//

obps1chivalryandsavagery_6:
        BYTE   KEYSH   obps1chivalryandsavagery_key+0
// 000   ----------------------------------------
obps1chivalryandsavagery_6_LOOP:
        BYTE           VOICE   127
        BYTE           VOL     32
        BYTE           BENDR   127
        BYTE           PAN     c_v+24
        BYTE           N24     Gn2   v060
        BYTE   W36
        BYTE                   Gn2
        BYTE   W36
        BYTE                   Gn2
        BYTE   W24
// 001   ----------------------------------------
        BYTE   W96
// 002   ----------------------------------------
        BYTE   W96
// 003   ----------------------------------------
        BYTE                   Gn2
        BYTE   W36
        BYTE                   Gn2
        BYTE   W36
        BYTE                   Gn2
        BYTE   W24
// 004   ----------------------------------------
        BYTE   W96
// 005   ----------------------------------------
        BYTE   W96
// 006   ----------------------------------------
obps1chivalryandsavagery_6_6:
        BYTE           N24     Gn2   v054
        BYTE   W72
        BYTE                   Gn2
        BYTE   W24
        BYTE   PEND
// 007   ----------------------------------------
obps1chivalryandsavagery_6_7:
        BYTE   W48
        BYTE           N24     Gn2   v054
        BYTE   W48
        BYTE   PEND
// 008   ----------------------------------------
obps1chivalryandsavagery_6_8:
        BYTE   W24
        BYTE           N24     Gn2   v054
        BYTE   W72
        BYTE   PEND
// 009   ----------------------------------------
        BYTE   PATT
         POIN2  obps1chivalryandsavagery_6_6
// 010   ----------------------------------------
        BYTE   PATT
         POIN2  obps1chivalryandsavagery_6_7
// 011   ----------------------------------------
        BYTE   PATT
         POIN2  obps1chivalryandsavagery_6_8
// 012   ----------------------------------------
        BYTE   PATT
         POIN2  obps1chivalryandsavagery_6_6
// 013   ----------------------------------------
        BYTE   PATT
         POIN2  obps1chivalryandsavagery_6_7
// 014   ----------------------------------------
        BYTE   PATT
         POIN2  obps1chivalryandsavagery_6_8
// 015   ----------------------------------------
        BYTE   PATT
         POIN2  obps1chivalryandsavagery_6_6
// 016   ----------------------------------------
        BYTE   PATT
         POIN2  obps1chivalryandsavagery_6_7
// 017   ----------------------------------------
        BYTE   PATT
         POIN2  obps1chivalryandsavagery_6_8
// 018   ----------------------------------------
        BYTE   PATT
         POIN2  obps1chivalryandsavagery_6_6
// 019   ----------------------------------------
        BYTE   PATT
         POIN2  obps1chivalryandsavagery_6_7
// 020   ----------------------------------------
        BYTE   PATT
         POIN2  obps1chivalryandsavagery_6_8
// 021   ----------------------------------------
obps1chivalryandsavagery_6_21:
        BYTE   W36
        BYTE           N24     Gn2   v068
        BYTE   W60
        BYTE   PEND
// 022   ----------------------------------------
obps1chivalryandsavagery_6_22:
        BYTE   W84
        BYTE           N24     Gn2   v068
        BYTE   W12
        BYTE   PEND
// 023   ----------------------------------------
        BYTE   W96
// 024   ----------------------------------------
        BYTE   PATT
         POIN2  obps1chivalryandsavagery_6_21
// 025   ----------------------------------------
        BYTE   PATT
         POIN2  obps1chivalryandsavagery_6_22
// 026   ----------------------------------------
        BYTE   W96
// 027   ----------------------------------------
        BYTE           N24     Gn2   v068
        BYTE   W72
        BYTE                   Gn2
        BYTE   W24
// 028   ----------------------------------------
        BYTE   PATT
         POIN2  obps1chivalryandsavagery_6_7
// 029   ----------------------------------------
        BYTE   PATT
         POIN2  obps1chivalryandsavagery_6_8
// 030   ----------------------------------------
        BYTE   PATT
         POIN2  obps1chivalryandsavagery_6_6
// 031   ----------------------------------------
        BYTE   W96
// 032   ----------------------------------------
        BYTE   W96
// 033   ----------------------------------------
        BYTE   W96
// 034   ----------------------------------------
        BYTE   W96
// 035   ----------------------------------------
        BYTE   W96
// 036   ----------------------------------------
        BYTE           N24     Gn2   v060
        BYTE   W72
        BYTE                   Gn2
        BYTE   W24
// 037   ----------------------------------------
        BYTE   PATT
         POIN2  obps1chivalryandsavagery_6_7
// 038   ----------------------------------------
        BYTE   W24
        BYTE           N24     Gn2   v054
        BYTE   W36
        BYTE                   Gn2   v068
        BYTE   W36
// 039   ----------------------------------------
        BYTE   GoTo
         POIN2  obps1chivalryandsavagery_6_LOOP
        BYTE   FINE

//****************** Track 7 (Midi-Chn.7) ******************//

obps1chivalryandsavagery_7:
        BYTE   KEYSH   obps1chivalryandsavagery_key+0
// 000   ----------------------------------------
obps1chivalryandsavagery_7_LOOP:
        BYTE           VOICE   127
        BYTE           VOL     28
        BYTE           BENDR   127
        BYTE           PAN     c_v-8
        BYTE           N03     Dn1   v078
        BYTE   W03
        BYTE                   Dn1   v064
        BYTE   W03
        BYTE                   Dn1   v050
        BYTE   W03
        BYTE                   Dn1   v036
        BYTE   W03
        BYTE                   Dn1
        BYTE   W03
        BYTE                   Dn1
        BYTE   W03
        BYTE                   Dn1
        BYTE   W06
        BYTE                   Dn1   v050
        BYTE   W06
        BYTE                   Dn1   v064
        BYTE   W06
        BYTE                   Dn1   v078
        BYTE   W03
        BYTE                   Dn1   v064
        BYTE   W03
        BYTE                   Dn1   v050
        BYTE   W03
        BYTE                   Dn1   v036
        BYTE   W03
        BYTE                   Dn1
        BYTE   W03
        BYTE                   Dn1
        BYTE   W03
        BYTE                   Dn1
        BYTE   W06
        BYTE                   Dn1   v050
        BYTE   W06
        BYTE                   Dn1   v064
        BYTE   W06
        BYTE                   Dn1   v078
        BYTE   W03
        BYTE                   Dn1   v064
        BYTE   W03
        BYTE                   Dn1   v050
        BYTE   W03
        BYTE                   Dn1   v036
        BYTE   W03
        BYTE                   Dn1
        BYTE   W03
        BYTE                   Dn1
        BYTE   W03
        BYTE                   Dn1
        BYTE   W06
// 001   ----------------------------------------
        BYTE                   Dn1   v050
        BYTE   W06
        BYTE                   Dn1   v064
        BYTE   W06
        BYTE                   Dn1   v078
        BYTE   W06
        BYTE                   Dn1   v064
        BYTE   W06
        BYTE                   Dn1   v050
        BYTE   W06
        BYTE                   Dn1   v078
        BYTE   W06
        BYTE                   Dn1   v064
        BYTE   W06
        BYTE                   Dn1   v078
        BYTE   W06
        BYTE                   Dn1
        BYTE   W06
        BYTE                   Dn1   v064
        BYTE   W06
        BYTE                   Dn1   v050
        BYTE   W06
        BYTE                   Dn1   v064
        BYTE   W06
        BYTE                   Dn1   v036
        BYTE   W03
        BYTE                   Dn1
        BYTE   W03
        BYTE                   Dn1   v064
        BYTE   W06
        BYTE                   Dn1   v078
        BYTE   W06
        BYTE                   Dn1   v064
        BYTE   W06
// 002   ----------------------------------------
        BYTE                   Dn1   v050
        BYTE   W06
        BYTE                   Dn1   v064
        BYTE   W06
        BYTE                   Dn1   v036
        BYTE   W03
        BYTE                   Dn1
        BYTE   W03
        BYTE                   Dn1   v064
        BYTE   W06
        BYTE                   Dn1   v078
        BYTE   W06
        BYTE                   Dn1   v064
        BYTE   W06
        BYTE                   Dn1   v050
        BYTE   W06
        BYTE                   Dn1   v078
        BYTE   W06
        BYTE                   Dn1   v064
        BYTE   W06
        BYTE                   Dn1   v050
        BYTE   W06
        BYTE                   Dn1   v064
        BYTE   W03
        BYTE                   Dn1   v050
        BYTE   W03
        BYTE                   Dn1   v036
        BYTE   W03
        BYTE                   Dn1
        BYTE   W03
        BYTE                   Dn1
        BYTE   W03
        BYTE                   Dn1   v050
        BYTE   W03
        BYTE                   Dn1   v078
        BYTE   W06
        BYTE                   Dn1   v064
        BYTE   W06
        BYTE                   Dn1   v078
        BYTE   W06
// 003   ----------------------------------------
        BYTE                   Dn1
        BYTE   W03
        BYTE                   Dn1   v064
        BYTE   W03
        BYTE                   Dn1   v050
        BYTE   W03
        BYTE                   Dn1   v036
        BYTE   W03
        BYTE                   Dn1
        BYTE   W03
        BYTE                   Dn1
        BYTE   W03
        BYTE                   Dn1
        BYTE   W06
        BYTE                   Dn1   v050
        BYTE   W06
        BYTE                   Dn1   v064
        BYTE   W06
        BYTE                   Dn1   v078
        BYTE   W03
        BYTE                   Dn1   v064
        BYTE   W03
        BYTE                   Dn1   v050
        BYTE   W03
        BYTE                   Dn1   v036
        BYTE   W03
        BYTE                   Dn1
        BYTE   W03
        BYTE                   Dn1
        BYTE   W03
        BYTE                   Dn1
        BYTE   W06
        BYTE                   Dn1   v050
        BYTE   W06
        BYTE                   Dn1   v064
        BYTE   W06
        BYTE                   Dn1   v078
        BYTE   W03
        BYTE                   Dn1   v064
        BYTE   W03
        BYTE                   Dn1   v050
        BYTE   W03
        BYTE                   Dn1   v036
        BYTE   W03
        BYTE                   Dn1
        BYTE   W03
        BYTE                   Dn1
        BYTE   W03
        BYTE                   Dn1
        BYTE   W06
// 004   ----------------------------------------
        BYTE                   Dn1   v050
        BYTE   W06
        BYTE                   Dn1   v064
        BYTE   W06
        BYTE                   Dn1   v078
        BYTE   W06
        BYTE                   Dn1   v064
        BYTE   W06
        BYTE                   Dn1   v050
        BYTE   W06
        BYTE                   Dn1   v078
        BYTE   W06
        BYTE                   Dn1   v064
        BYTE   W06
        BYTE                   Dn1   v078
        BYTE   W06
        BYTE                   Dn1
        BYTE   W06
        BYTE                   Dn1   v064
        BYTE   W06
        BYTE                   Dn1   v050
        BYTE   W06
        BYTE                   Dn1   v078
        BYTE   W06
        BYTE                   Dn1   v064
        BYTE   W06
        BYTE                   Dn1   v050
        BYTE   W06
        BYTE                   Dn1   v078
        BYTE   W06
        BYTE                   Dn1   v064
        BYTE   W06
// 005   ----------------------------------------
        BYTE                   Dn1   v050
        BYTE   W06
        BYTE                   Dn1   v064
        BYTE   W06
        BYTE                   Dn1   v036
        BYTE   W03
        BYTE                   Dn1
        BYTE   W03
        BYTE                   Dn1   v064
        BYTE   W06
        BYTE                   Dn1   v078
        BYTE   W06
        BYTE                   Dn1   v064
        BYTE   W06
        BYTE                   Dn1   v050
        BYTE   W06
        BYTE                   Dn1   v078
        BYTE   W06
        BYTE                   Dn1   v064
        BYTE   W06
        BYTE                   Dn1   v050
        BYTE   W06
        BYTE                   Dn1
        BYTE   W06
        BYTE                   Dn1   v064
        BYTE   W06
        BYTE                   Dn1   v050
        BYTE   W06
        BYTE                   Dn1   v078
        BYTE   W06
        BYTE                   Dn1   v064
        BYTE   W06
        BYTE                   Dn1   v092
        BYTE   W06
// 006   ----------------------------------------
obps1chivalryandsavagery_7_6:
        BYTE   W18
        BYTE           N03     Dn1   v078
        BYTE   W03
        BYTE                   Dn1   v050
        BYTE   W03
        BYTE                   Dn1   v036
        BYTE   W03
        BYTE                   Dn1   v050
        BYTE   W03
        BYTE                   Dn1   v064
        BYTE   W06
        BYTE                   Dn1   v050
        BYTE   W06
        BYTE                   Dn1   v064
        BYTE   W06
        BYTE                   Dn1   v050
        BYTE   W06
        BYTE                   Dn1   v078
        BYTE   W06
        BYTE                   Dn1   v064
        BYTE   W06
        BYTE                   Dn1   v078
        BYTE   W24
        BYTE                   Dn1
        BYTE   W03
        BYTE                   Dn1   v050
        BYTE   W03
        BYTE   PEND
// 007   ----------------------------------------
obps1chivalryandsavagery_7_7:
        BYTE           N03     Dn1   v036
        BYTE   W03
        BYTE                   Dn1   v050
        BYTE   W03
        BYTE                   Dn1   v064
        BYTE   W06
        BYTE                   Dn1   v050
        BYTE   W06
        BYTE                   Dn1   v064
        BYTE   W06
        BYTE                   Dn1   v050
        BYTE   W06
        BYTE                   Dn1   v078
        BYTE   W06
        BYTE                   Dn1   v064
        BYTE   W06
        BYTE                   Dn1   v078
        BYTE   W24
        BYTE                   Dn1
        BYTE   W03
        BYTE                   Dn1   v050
        BYTE   W03
        BYTE                   Dn1   v036
        BYTE   W03
        BYTE                   Dn1   v050
        BYTE   W03
        BYTE                   Dn1   v064
        BYTE   W06
        BYTE                   Dn1   v050
        BYTE   W06
        BYTE                   Dn1   v064
        BYTE   W06
        BYTE   PEND
// 008   ----------------------------------------
obps1chivalryandsavagery_7_8:
        BYTE           N03     Dn1   v050
        BYTE   W06
        BYTE                   Dn1   v078
        BYTE   W06
        BYTE                   Dn1   v064
        BYTE   W06
        BYTE                   Dn1   v078
        BYTE   W24
        BYTE                   Dn1
        BYTE   W03
        BYTE                   Dn1   v050
        BYTE   W03
        BYTE                   Dn1   v036
        BYTE   W03
        BYTE                   Dn1   v050
        BYTE   W03
        BYTE                   Dn1   v064
        BYTE   W06
        BYTE                   Dn1   v050
        BYTE   W06
        BYTE                   Dn1   v064
        BYTE   W06
        BYTE                   Dn1   v050
        BYTE   W06
        BYTE                   Dn1   v078
        BYTE   W06
        BYTE                   Dn1   v064
        BYTE   W06
        BYTE                   Dn1   v078
        BYTE   W06
        BYTE   PEND
// 009   ----------------------------------------
        BYTE   PATT
         POIN2  obps1chivalryandsavagery_7_6
// 010   ----------------------------------------
        BYTE   PATT
         POIN2  obps1chivalryandsavagery_7_7
// 011   ----------------------------------------
        BYTE   PATT
         POIN2  obps1chivalryandsavagery_7_8
// 012   ----------------------------------------
        BYTE   PATT
         POIN2  obps1chivalryandsavagery_7_6
// 013   ----------------------------------------
        BYTE   PATT
         POIN2  obps1chivalryandsavagery_7_7
// 014   ----------------------------------------
        BYTE   PATT
         POIN2  obps1chivalryandsavagery_7_8
// 015   ----------------------------------------
        BYTE   PATT
         POIN2  obps1chivalryandsavagery_7_6
// 016   ----------------------------------------
        BYTE   PATT
         POIN2  obps1chivalryandsavagery_7_7
// 017   ----------------------------------------
        BYTE   PATT
         POIN2  obps1chivalryandsavagery_7_8
// 018   ----------------------------------------
        BYTE   PATT
         POIN2  obps1chivalryandsavagery_7_6
// 019   ----------------------------------------
        BYTE   PATT
         POIN2  obps1chivalryandsavagery_7_7
// 020   ----------------------------------------
        BYTE   PATT
         POIN2  obps1chivalryandsavagery_7_8
// 021   ----------------------------------------
obps1chivalryandsavagery_7_21:
        BYTE           N03     Dn1   v078
        BYTE   W06
        BYTE                   Dn1   v064
        BYTE   W06
        BYTE                   Dn1   v050
        BYTE   W06
        BYTE                   Dn1   v036
        BYTE   W03
        BYTE                   Dn1
        BYTE   W03
        BYTE                   Dn1
        BYTE   W03
        BYTE                   Dn1
        BYTE   W03
        BYTE                   Dn1   v050
        BYTE   W03
        BYTE                   Dn1   v064
        BYTE   W36
        BYTE   W03
        BYTE                   Dn1   v078
        BYTE   W03
        BYTE                   Dn1   v064
        BYTE   W03
        BYTE                   Dn1   v050
        BYTE   W03
        BYTE                   Dn1   v036
        BYTE   W03
        BYTE                   Dn1
        BYTE   W03
        BYTE                   Dn1
        BYTE   W03
        BYTE                   Dn1   v050
        BYTE   W03
        BYTE                   Dn1   v064
        BYTE   W03
        BYTE   PEND
// 022   ----------------------------------------
obps1chivalryandsavagery_7_22:
        BYTE           N03     Dn1   v078
        BYTE   W06
        BYTE                   Dn1   v064
        BYTE   W06
        BYTE                   Dn1   v078
        BYTE   W03
        BYTE                   Dn1   v064
        BYTE   W03
        BYTE                   Dn1   v050
        BYTE   W03
        BYTE                   Dn1   v036
        BYTE   W03
        BYTE                   Dn1
        BYTE   W03
        BYTE                   Dn1
        BYTE   W03
        BYTE                   Dn1   v050
        BYTE   W03
        BYTE                   Dn1   v064
        BYTE   W03
        BYTE                   Dn1   v078
        BYTE   W06
        BYTE                   Dn1   v064
        BYTE   W06
        BYTE                   Dn1   v078
        BYTE   W06
        BYTE                   Dn1   v064
        BYTE   W06
        BYTE                   Dn1   v050
        BYTE   W06
        BYTE                   Dn1   v036
        BYTE   W03
        BYTE                   Dn1
        BYTE   W03
        BYTE                   Dn1
        BYTE   W03
        BYTE                   Dn1
        BYTE   W03
        BYTE                   Dn1   v050
        BYTE   W03
        BYTE                   Dn1   v064
        BYTE   W15
        BYTE   PEND
// 023   ----------------------------------------
obps1chivalryandsavagery_7_23:
        BYTE   W24
        BYTE           N03     Dn1   v078
        BYTE   W03
        BYTE                   Dn1   v064
        BYTE   W03
        BYTE                   Dn1   v050
        BYTE   W03
        BYTE                   Dn1   v036
        BYTE   W03
        BYTE                   Dn1
        BYTE   W03
        BYTE                   Dn1
        BYTE   W03
        BYTE                   Dn1   v050
        BYTE   W03
        BYTE                   Dn1   v064
        BYTE   W03
        BYTE                   Dn1   v078
        BYTE   W06
        BYTE                   Dn1   v064
        BYTE   W06
        BYTE                   Dn1   v078
        BYTE   W03
        BYTE                   Dn1   v064
        BYTE   W03
        BYTE                   Dn1   v050
        BYTE   W03
        BYTE                   Dn1   v036
        BYTE   W03
        BYTE                   Dn1
        BYTE   W03
        BYTE                   Dn1
        BYTE   W03
        BYTE                   Dn1   v050
        BYTE   W03
        BYTE                   Dn1   v064
        BYTE   W03
        BYTE                   Dn1   v078
        BYTE   W06
        BYTE                   Dn1   v064
        BYTE   W06
        BYTE   PEND
// 024   ----------------------------------------
        BYTE   PATT
         POIN2  obps1chivalryandsavagery_7_21
// 025   ----------------------------------------
        BYTE   PATT
         POIN2  obps1chivalryandsavagery_7_22
// 026   ----------------------------------------
        BYTE   PATT
         POIN2  obps1chivalryandsavagery_7_23
// 027   ----------------------------------------
        BYTE   W36
        BYTE           N03     Dn1   v078
        BYTE   W06
        BYTE                   Dn1   v064
        BYTE   W06
        BYTE                   Dn1   v036
        BYTE   W03
        BYTE                   Dn1   v050
        BYTE   W03
        BYTE                   Dn1   v064
        BYTE   W06
        BYTE                   Dn1   v078
        BYTE   W06
        BYTE                   Dn1   v092
        BYTE   W30
// 028   ----------------------------------------
        BYTE   W12
        BYTE                   Dn1   v078
        BYTE   W03
        BYTE                   Dn1   v050
        BYTE   W03
        BYTE                   Dn1   v036
        BYTE   W03
        BYTE                   Dn1
        BYTE   W03
        BYTE                   Dn1
        BYTE   W03
        BYTE                   Dn1   v050
        BYTE   W03
        BYTE                   Dn1   v064
        BYTE   W06
        BYTE                   Dn1   v078
        BYTE   W06
        BYTE                   Dn1   v092
        BYTE   W24
        BYTE                   Dn1   v078
        BYTE   W03
        BYTE                   Dn1   v050
        BYTE   W03
        BYTE                   Dn1   v036
        BYTE   W03
        BYTE                   Dn1   v050
        BYTE   W03
        BYTE                   Dn1   v064
        BYTE   W06
        BYTE                   Dn1   v050
        BYTE   W06
        BYTE                   Dn1   v064
        BYTE   W06
// 029   ----------------------------------------
        BYTE   PATT
         POIN2  obps1chivalryandsavagery_7_8
// 030   ----------------------------------------
        BYTE   PATT
         POIN2  obps1chivalryandsavagery_7_6
// 031   ----------------------------------------
        BYTE           N03     Dn1   v036
        BYTE   W03
        BYTE                   Dn1   v050
        BYTE   W03
        BYTE                   Dn1   v064
        BYTE   W06
        BYTE                   Dn1   v050
        BYTE   W06
        BYTE                   Dn1   v064
        BYTE   W06
        BYTE                   Dn1   v050
        BYTE   W06
        BYTE                   Dn1   v078
        BYTE   W06
        BYTE                   Dn1   v064
        BYTE   W06
        BYTE                   Dn1   v078
        BYTE   W06
        BYTE                   Dn1
        BYTE   W06
        BYTE                   Dn1   v050
        BYTE   W03
        BYTE                   Dn1   v036
        BYTE   W03
        BYTE                   Dn1   v064
        BYTE   W06
        BYTE                   Dn1   v050
        BYTE   W03
        BYTE                   Dn1   v022
        BYTE   W03
        BYTE                   Dn1   v078
        BYTE   W06
        BYTE                   Dn1   v064
        BYTE   W06
        BYTE                   Dn1   v078
        BYTE   W06
        BYTE                   Dn1   v050
        BYTE   W03
        BYTE                   Dn1   v036
        BYTE   W03
// 032   ----------------------------------------
        BYTE                   Dn1   v064
        BYTE   W06
        BYTE                   Dn1   v050
        BYTE   W03
        BYTE                   Dn1   v022
        BYTE   W03
        BYTE                   Dn1   v078
        BYTE   W06
        BYTE                   Dn1   v064
        BYTE   W06
        BYTE                   Dn1   v078
        BYTE   W06
        BYTE                   Dn1   v050
        BYTE   W03
        BYTE                   Dn1   v036
        BYTE   W03
        BYTE                   Dn1   v064
        BYTE   W06
        BYTE                   Dn1   v050
        BYTE   W03
        BYTE                   Dn1   v022
        BYTE   W03
        BYTE                   Dn1   v078
        BYTE   W06
        BYTE                   Dn1   v064
        BYTE   W06
        BYTE                   Dn1   v078
        BYTE   W06
        BYTE                   Dn1   v050
        BYTE   W03
        BYTE                   Dn1   v036
        BYTE   W03
        BYTE                   Dn1   v064
        BYTE   W06
        BYTE                   Dn1   v050
        BYTE   W03
        BYTE                   Dn1   v022
        BYTE   W03
        BYTE                   Dn1   v078
        BYTE   W06
        BYTE                   Dn1   v064
        BYTE   W06
// 033   ----------------------------------------
        BYTE                   Dn1   v078
        BYTE   W06
        BYTE                   Dn1   v050
        BYTE   W03
        BYTE                   Dn1   v036
        BYTE   W03
        BYTE                   Dn1   v064
        BYTE   W06
        BYTE                   Dn1   v050
        BYTE   W03
        BYTE                   Dn1   v022
        BYTE   W03
        BYTE                   Dn1   v078
        BYTE   W06
        BYTE                   Dn1   v064
        BYTE   W06
        BYTE                   Dn1   v078
        BYTE   W06
        BYTE                   Dn1   v050
        BYTE   W03
        BYTE                   Dn1   v036
        BYTE   W03
        BYTE                   Dn1   v064
        BYTE   W06
        BYTE                   Dn1   v050
        BYTE   W03
        BYTE                   Dn1   v022
        BYTE   W03
        BYTE                   Dn1   v078
        BYTE   W06
        BYTE                   Dn1   v064
        BYTE   W06
        BYTE                   Dn1   v078
        BYTE   W06
        BYTE                   Dn1   v050
        BYTE   W03
        BYTE                   Dn1   v036
        BYTE   W03
        BYTE                   Dn1   v064
        BYTE   W06
        BYTE                   Dn1   v050
        BYTE   W03
        BYTE                   Dn1   v022
        BYTE   W03
// 034   ----------------------------------------
        BYTE                   Dn1   v078
        BYTE   W06
        BYTE                   Dn1   v064
        BYTE   W06
        BYTE                   Dn1   v078
        BYTE   W03
        BYTE                   Dn1   v064
        BYTE   W03
        BYTE                   Dn1   v050
        BYTE   W03
        BYTE                   Dn1   v036
        BYTE   W03
        BYTE                   Dn1
        BYTE   W03
        BYTE                   Dn1   v050
        BYTE   W03
        BYTE                   Dn1   v064
        BYTE   W06
        BYTE                   Dn1   v078
        BYTE   W06
        BYTE                   Dn1
        BYTE   W06
        BYTE                   Dn1
        BYTE   W06
        BYTE                   Dn1   v050
        BYTE   W03
        BYTE                   Dn1   v036
        BYTE   W03
        BYTE                   Dn1   v064
        BYTE   W06
        BYTE                   Dn1   v050
        BYTE   W03
        BYTE                   Dn1   v022
        BYTE   W03
        BYTE                   Dn1   v078
        BYTE   W06
        BYTE                   Dn1   v064
        BYTE   W06
        BYTE                   Dn1   v078
        BYTE   W06
        BYTE                   Dn1   v050
        BYTE   W03
        BYTE                   Dn1   v036
        BYTE   W03
// 035   ----------------------------------------
        BYTE                   Dn1   v064
        BYTE   W06
        BYTE                   Dn1   v050
        BYTE   W03
        BYTE                   Dn1   v022
        BYTE   W03
        BYTE                   Dn1   v078
        BYTE   W06
        BYTE                   Dn1   v064
        BYTE   W06
        BYTE                   Dn1   v078
        BYTE   W06
        BYTE                   Dn1   v050
        BYTE   W03
        BYTE                   Dn1   v036
        BYTE   W03
        BYTE                   Dn1   v064
        BYTE   W06
        BYTE                   Dn1   v050
        BYTE   W03
        BYTE                   Dn1   v022
        BYTE   W03
        BYTE                   Dn1   v078
        BYTE   W06
        BYTE                   Dn1   v064
        BYTE   W06
        BYTE                   Dn1   v078
        BYTE   W03
        BYTE                   Dn1   v064
        BYTE   W03
        BYTE                   Dn1   v050
        BYTE   W03
        BYTE                   Dn1   v036
        BYTE   W03
        BYTE                   Dn1
        BYTE   W03
        BYTE                   Dn1   v050
        BYTE   W03
        BYTE                   Dn1   v064
        BYTE   W06
        BYTE                   Dn1   v078
        BYTE   W06
        BYTE                   Dn1
        BYTE   W06
// 036   ----------------------------------------
        BYTE                   Dn1   v064
        BYTE   W03
        BYTE                   Dn1   v078
        BYTE   W03
        BYTE                   Dn1   v064
        BYTE   W06
        BYTE                   Dn1   v050
        BYTE   W06
        BYTE                   Dn1   v078
        BYTE   W06
        BYTE                   Dn1   v064
        BYTE   W06
        BYTE                   Dn1   v050
        BYTE   W06
        BYTE                   Dn1   v078
        BYTE   W06
        BYTE                   Dn1   v064
        BYTE   W06
        BYTE                   Dn1   v050
        BYTE   W06
        BYTE                   Dn1   v064
        BYTE   W03
        BYTE                   Dn1   v078
        BYTE   W03
        BYTE                   Dn1   v064
        BYTE   W06
        BYTE                   Dn1
        BYTE   W06
        BYTE                   Dn1
        BYTE   W03
        BYTE                   Dn1   v078
        BYTE   W03
        BYTE                   Dn1   v064
        BYTE   W06
        BYTE                   Dn1   v050
        BYTE   W06
        BYTE                   Dn1   v078
        BYTE   W06
// 037   ----------------------------------------
        BYTE                   Dn1   v064
        BYTE   W06
        BYTE                   Dn1   v050
        BYTE   W06
        BYTE                   Dn1   v078
        BYTE   W03
        BYTE                   Dn1   v064
        BYTE   W03
        BYTE                   Dn1   v050
        BYTE   W03
        BYTE                   Dn1   v036
        BYTE   W03
        BYTE                   Dn1
        BYTE   W03
        BYTE                   Dn1
        BYTE   W03
        BYTE                   Dn1   v050
        BYTE   W03
        BYTE                   Dn1   v064
        BYTE   W03
        BYTE                   Dn1   v078
        BYTE   W06
        BYTE                   Dn1   v092
        BYTE   W24
        BYTE                   Dn1   v078
        BYTE   W03
        BYTE                   Dn1   v050
        BYTE   W03
        BYTE                   Dn1   v036
        BYTE   W03
        BYTE                   Dn1   v050
        BYTE   W03
        BYTE                   Dn1   v064
        BYTE   W06
        BYTE                   Dn1   v050
        BYTE   W06
        BYTE                   Dn1   v064
        BYTE   W06
// 038   ----------------------------------------
        BYTE                   Dn1   v050
        BYTE   W06
        BYTE                   Dn1   v078
        BYTE   W06
        BYTE                   Dn1   v064
        BYTE   W06
        BYTE                   Dn1   v078
        BYTE   W24
        BYTE                   Dn1
        BYTE   W03
        BYTE                   Dn1   v050
        BYTE   W03
        BYTE                   Dn1   v036
        BYTE   W03
        BYTE                   Dn1   v050
        BYTE   W03
        BYTE                   Dn1   v064
        BYTE   W24
        BYTE                   Dn1
        BYTE   W06
        BYTE                   Dn1   v078
        BYTE   W06
        BYTE                   Dn1   v092
        BYTE   W06
// 039   ----------------------------------------
        BYTE   GoTo
         POIN2  obps1chivalryandsavagery_7_LOOP
        BYTE   FINE


//********************** End of Song ***********************//

        ALIGN 4
obps1chivalryandsavagery:
        BYTE   8                       // Num Tracks
        BYTE   0                       // Unknown
        BYTE   obps1chivalryandsavagery_pri // Priority
        BYTE   obps1chivalryandsavagery_rev // Reverb

        POIN2   obps1chivalryandsavagery_grp

        POIN2   obps1chivalryandsavagery_0
        POIN2   obps1chivalryandsavagery_1
        POIN2   obps1chivalryandsavagery_2
        POIN2   obps1chivalryandsavagery_3
        POIN2   obps1chivalryandsavagery_4
        POIN2   obps1chivalryandsavagery_5
        POIN2   obps1chivalryandsavagery_6
        POIN2   obps1chivalryandsavagery_7

        
