//Event file generated from Sappy .s format.
        #include "MPlayDef.event"

        #define    so2battle_grp  MusicVoices
        #define    so2battle_pri  0
        #define    so2battle_rev  0x80
        #define    so2battle_key  0

        // .rodata
        // so2battle
        ALIGN 4

//****************** Track 0 (Midi-Chn.0) ******************//

so2battle_0:
        BYTE   KEYSH   so2battle_key+0
// 000   ----------------------------------------
        BYTE   TEMPO   180/2
so2battle_0_LOOP:
        BYTE           VOICE   63
        BYTE           0xCD     0x08 0x20
        BYTE           0xCD     0x09 0x10
        BYTE           VOL     54
        BYTE           PAN     c_v-12
        BYTE           N60     Cn4   v064
        BYTE   W24
        BYTE           MOD     6
        BYTE   W36
        BYTE           N12     Bn3
        BYTE           MOD     0
        BYTE   W12
        BYTE           N12     An3
        BYTE   W12
        BYTE                   Gn3
        BYTE   W12
// 001   ----------------------------------------
so2battle_0_1:
        BYTE           N36     En3   v064
        BYTE   W36
        BYTE                   Gn3
        BYTE   W36
        BYTE           N24     Bn3
        BYTE   W24
        BYTE   PEND
// 002   ----------------------------------------
so2battle_0_2:
        BYTE           N36     Cn4   v064
        BYTE   W36
        BYTE                   Gn3
        BYTE   W36
        BYTE           N24     En4
        BYTE   W24
        BYTE   PEND
// 003   ----------------------------------------
so2battle_0_3:
        BYTE           N36     Dn4   v064
        BYTE   W36
        BYTE           N60     An3
        BYTE   W24
        BYTE           MOD     6
        BYTE   W36
        BYTE   PEND
// 004   ----------------------------------------
        BYTE           N60
        BYTE           N60     Cn4
        BYTE           MOD     0
        BYTE   W24
        BYTE                   6
        BYTE   W36
        BYTE           N12     An3
        BYTE           N12     Cn4
        BYTE           MOD     0
        BYTE   W12
        BYTE           N12     Bn3
        BYTE           N12     Dn4
        BYTE   W12
        BYTE                   Cn4
        BYTE           N12     En4
        BYTE   W12
// 005   ----------------------------------------
so2battle_0_5:
        BYTE           N36     Bn3   v064
        BYTE           N36     Dn4
        BYTE   W36
        BYTE           N24     En3
        BYTE           N24     Gn3
        BYTE   W24
        BYTE           N36     Bn3
        BYTE           N36     Dn4
        BYTE   W36
        BYTE   PEND
// 006   ----------------------------------------
        BYTE           N12     Cn4
        BYTE   W12
        BYTE                   An3
        BYTE   W12
        BYTE                   Cn4
        BYTE   W12
        BYTE                   En4
        BYTE   W12
        BYTE                   En4   v019
        BYTE   W12
        BYTE                   Dn4   v064
        BYTE   W12
        BYTE                   Dn4   v019
        BYTE   W12
        BYTE                   Cn4   v064
        BYTE   W12
// 007   ----------------------------------------
        BYTE                   Dn4
        BYTE   W12
        BYTE                   An3
        BYTE   W12
        BYTE                   Dn4
        BYTE   W12
        BYTE                   Fs4
        BYTE   W12
        BYTE                   Fs4   v019
        BYTE   W12
        BYTE                   En4   v064
        BYTE   W12
        BYTE                   En4   v019
        BYTE   W12
        BYTE                   Dn4   v064
        BYTE   W12
// 008   ----------------------------------------
        BYTE                   Fn4
        BYTE   W12
        BYTE                   En4
        BYTE   W12
        BYTE                   Dn4
        BYTE   W12
        BYTE                   Cn4
        BYTE   W12
        BYTE                   Cn4   v019
        BYTE   W12
        BYTE                   An3   v064
        BYTE   W12
        BYTE                   An3   v019
        BYTE   W12
        BYTE                   Cn4   v064
        BYTE   W12
// 009   ----------------------------------------
        BYTE           N48     Bn3
        BYTE   W24
        BYTE           MOD     6
        BYTE   W24
        BYTE           N48     En3
        BYTE           MOD     0
        BYTE   W24
        BYTE                   6
        BYTE   W24
// 010   ----------------------------------------
        BYTE           N60     Cn4
        BYTE           MOD     0
        BYTE   W24
        BYTE                   6
        BYTE   W36
        BYTE                   0
        BYTE           N12     Bn3
        BYTE   W12
        BYTE                   An3
        BYTE   W12
        BYTE                   Gn3
        BYTE   W12
// 011   ----------------------------------------
        BYTE   PATT
         POIN2  so2battle_0_1
// 012   ----------------------------------------
        BYTE   PATT
         POIN2  so2battle_0_2
// 013   ----------------------------------------
        BYTE   PATT
         POIN2  so2battle_0_3
// 014   ----------------------------------------
        BYTE           MOD     0
        BYTE           N60     An3   v064
        BYTE           N60     Cn4
        BYTE   W24
        BYTE           MOD     6
        BYTE   W36
        BYTE                   0
        BYTE           N12     An3
        BYTE           N12     Cn4
        BYTE   W12
        BYTE                   Bn3
        BYTE           N12     Dn4
        BYTE   W12
        BYTE                   Cn4
        BYTE           N12     En4
        BYTE   W12
// 015   ----------------------------------------
        BYTE   PATT
         POIN2  so2battle_0_5
// 016   ----------------------------------------
        BYTE           N60     Bn3   v064
        BYTE           N60     Dn4
        BYTE   W24
        BYTE           MOD     6
        BYTE   W36
        BYTE                   0
        BYTE           N12     Bn3
        BYTE           N12     Dn4
        BYTE   W12
        BYTE                   Cn4
        BYTE           N12     En4
        BYTE   W12
        BYTE                   Dn4
        BYTE           N12     Fn4
        BYTE   W12
// 017   ----------------------------------------
        BYTE           N48     Cn4
        BYTE           N48     En4
        BYTE   W24
        BYTE           MOD     6
        BYTE   W24
        BYTE                   0
        BYTE           N12     Bn3
        BYTE           N12     Dn4
        BYTE   W12
        BYTE                   Cn4
        BYTE           N12     En4
        BYTE   W12
        BYTE                   Cn4   v019
        BYTE           N12     En4
        BYTE   W12
        BYTE           N72     An3   v064
        BYTE           N72     Cn4
        BYTE   W12
// 018   ----------------------------------------
        BYTE   W12
        BYTE           MOD     6
        BYTE   W48
        BYTE                   0
        BYTE           N12     An3
        BYTE           N12     Cn4
        BYTE   W12
        BYTE                   Gn3
        BYTE           N12     Bn3
        BYTE   W12
        BYTE                   Fn3
        BYTE           N12     An3
        BYTE   W12
// 019   ----------------------------------------
        BYTE           N36     Gs3
        BYTE           N36     En3
        BYTE   W36
        BYTE                   En3
        BYTE           N36     An3
        BYTE   W36
        BYTE           N24     Gs3
        BYTE           N24     Bn3
        BYTE   W24
// 020   ----------------------------------------
        BYTE           N48     An3
        BYTE           N48     Cn4
        BYTE   W24
        BYTE           MOD     6
        BYTE   W24
        BYTE                   0
        BYTE           N12     An3
        BYTE           N12     Cn4
        BYTE   W12
        BYTE                   Bn3
        BYTE           N12     Dn4
        BYTE   W12
        BYTE                   Cn4
        BYTE           N12     En4
        BYTE   W12
        BYTE           TIE     Bn3
        BYTE           TIE     Dn4
        BYTE   W12
// 021   ----------------------------------------
        BYTE   W24
        BYTE           MOD     6
        BYTE   W72
// 022   ----------------------------------------
        BYTE           EOT
        BYTE           EOT     Bn3
        BYTE           VOICE   68
        BYTE           MOD     0
        BYTE           N12     An3   v085
        BYTE   W12
        BYTE           N09     Bn3
        BYTE   W12
        BYTE                   Cn4
        BYTE   W12
        BYTE                   En4
        BYTE   W12
        BYTE           N12     An4
        BYTE   W12
        BYTE           N09     Gn4
        BYTE   W12
        BYTE                   Fn4
        BYTE   W12
        BYTE           N24     Dn4
        BYTE   W12
// 023   ----------------------------------------
        BYTE   W12
        BYTE           N12     En4
        BYTE   W12
        BYTE                   Fn4
        BYTE   W12
        BYTE           N24     En4
        BYTE   W24
        BYTE                   Bn3
        BYTE   W24
        BYTE           N09     En4
        BYTE   W12
// 024   ----------------------------------------
        BYTE           N12     Cn4
        BYTE           N12     En4
        BYTE   W12
        BYTE                   Bn3
        BYTE           N12     Dn4
        BYTE   W12
        BYTE                   An3
        BYTE           N12     Cn4
        BYTE   W12
        BYTE           N24     Gn3
        BYTE           N24     Bn3
        BYTE   W24
        BYTE           N12     An3
        BYTE           N12     Cn4
        BYTE   W12
        BYTE           N24     Bn3
        BYTE           N24     Dn4
        BYTE   W24
// 025   ----------------------------------------
        BYTE           N36     Cn4
        BYTE           N36     En4
        BYTE   W36
        BYTE           N06     En4   v019
        BYTE           N06     Cn4
        BYTE   W12
        BYTE           N24     En4   v085
        BYTE           N24     Bn3
        BYTE   W24
        BYTE                   Bn3
        BYTE           N24     Dn4
        BYTE   W24
// 026   ----------------------------------------
        BYTE           N12     An3   v100
        BYTE   W12
        BYTE           N09     Bn3
        BYTE   W12
        BYTE                   Cn4
        BYTE   W12
        BYTE                   En4
        BYTE   W12
        BYTE           N12     An4
        BYTE   W12
        BYTE           N09     Gn4
        BYTE   W12
        BYTE                   Fn4
        BYTE   W12
        BYTE           N24     Dn4
        BYTE   W12
// 027   ----------------------------------------
        BYTE   W12
        BYTE           N12     En4
        BYTE   W12
        BYTE                   Fn4
        BYTE   W12
        BYTE           N24     En4
        BYTE   W24
        BYTE                   Bn3
        BYTE   W24
        BYTE           N09     En4
        BYTE   W12
// 028   ----------------------------------------
        BYTE           N12     Cn4
        BYTE           N12     En4
        BYTE   W12
        BYTE                   Bn3
        BYTE           N12     Dn4
        BYTE   W12
        BYTE                   An3
        BYTE           N12     Cn4
        BYTE   W12
        BYTE           N24     Gs3
        BYTE           N24     Bn3
        BYTE   W24
        BYTE           N12     An3
        BYTE           N12     Cn4
        BYTE   W12
        BYTE           N24     Bn3
        BYTE           N24     Dn4
        BYTE   W24
// 029   ----------------------------------------
        BYTE           N12
        BYTE           N12     Fn4
        BYTE   W12
        BYTE                   Cn4
        BYTE           N12     En4
        BYTE   W12
        BYTE                   Bn3
        BYTE           N12     Dn4
        BYTE   W12
        BYTE           N24     En3   v080
        BYTE           N60     Bn3   v100
        BYTE   W24
        BYTE           N36     Gs3   v080
        BYTE   W36
// 030   ----------------------------------------
        BYTE   W96
// 031   ----------------------------------------
        BYTE   W96
// 032   ----------------------------------------
        BYTE           VOICE   63
        BYTE           N09     Cn4   v048
        BYTE   W12
        BYTE                   An3
        BYTE   W12
        BYTE                   Cn4
        BYTE   W12
        BYTE                   En4
        BYTE   W12
        BYTE                   Dn4
        BYTE   W12
        BYTE                   Cn4
        BYTE   W12
        BYTE                   Bn3
        BYTE   W12
        BYTE                   An3
        BYTE   W12
// 033   ----------------------------------------
so2battle_0_33:
        BYTE           N09     Bn3   v048
        BYTE   W12
        BYTE                   Cn4
        BYTE   W12
        BYTE                   Dn4
        BYTE   W12
        BYTE                   En4
        BYTE   W12
        BYTE                   Dn4
        BYTE   W12
        BYTE                   Cn4
        BYTE   W12
        BYTE                   Bn3
        BYTE   W12
        BYTE                   An3
        BYTE   W12
        BYTE   PEND
// 034   ----------------------------------------
so2battle_0_34:
        BYTE           N09     Gs3   v048
        BYTE   W12
        BYTE                   An3
        BYTE   W12
        BYTE                   Bn3
        BYTE   W12
        BYTE                   En3
        BYTE   W12
        BYTE                   En4
        BYTE   W12
        BYTE                   Dn4
        BYTE   W12
        BYTE                   Cn4
        BYTE   W12
        BYTE                   Bn3
        BYTE   W12
        BYTE   PEND
// 035   ----------------------------------------
so2battle_0_35:
        BYTE           N09     An3   v048
        BYTE   W12
        BYTE                   Bn3
        BYTE   W12
        BYTE                   Cn4
        BYTE   W12
        BYTE                   En4
        BYTE   W12
        BYTE                   Dn4
        BYTE   W12
        BYTE                   Cn4
        BYTE   W12
        BYTE                   Bn3
        BYTE   W12
        BYTE                   An3
        BYTE   W12
        BYTE   PEND
// 036   ----------------------------------------
        BYTE                   Cn4
        BYTE   W12
        BYTE                   An3
        BYTE   W12
        BYTE                   Cn4
        BYTE   W12
        BYTE                   En4
        BYTE   W12
        BYTE                   Dn4
        BYTE   W12
        BYTE                   Cn4
        BYTE   W12
        BYTE                   Bn3
        BYTE   W12
        BYTE                   An3
        BYTE   W12
// 037   ----------------------------------------
        BYTE   PATT
         POIN2  so2battle_0_33
// 038   ----------------------------------------
        BYTE   PATT
         POIN2  so2battle_0_34
// 039   ----------------------------------------
        BYTE   PATT
         POIN2  so2battle_0_35
// 040   ----------------------------------------
        BYTE   W96
// 041   ----------------------------------------
        BYTE   W96
// 042   ----------------------------------------
        BYTE   W96
// 043   ----------------------------------------
        BYTE   W96
// 044   ----------------------------------------
        BYTE   W96
// 045   ----------------------------------------
        BYTE   W96
// 046   ----------------------------------------
        BYTE   W96
// 047   ----------------------------------------
        BYTE   W96
// 048   ----------------------------------------
        BYTE   W96
// 049   ----------------------------------------
        BYTE   W96
// 050   ----------------------------------------
        BYTE   W96
// 051   ----------------------------------------
        BYTE   W96
// 052   ----------------------------------------
        BYTE   W96
// 053   ----------------------------------------
        BYTE   W96
// 054   ----------------------------------------
        BYTE   W96
// 055   ----------------------------------------
        BYTE   W96
// 056   ----------------------------------------
        BYTE   GoTo
         POIN2  so2battle_0_LOOP
        BYTE   FINE

//****************** Track 1 (Midi-Chn.1) ******************//

so2battle_1:
        BYTE   KEYSH   so2battle_key+0
// 000   ----------------------------------------
so2battle_1_LOOP:
        BYTE           VOICE   48
        BYTE           VOL     44
        BYTE           PAN     c_v+12
        BYTE           BEND    c_v-2
        BYTE           MOD     3
        BYTE   W96
// 001   ----------------------------------------
        BYTE   W96
// 002   ----------------------------------------
        BYTE   W96
// 003   ----------------------------------------
        BYTE   W96
// 004   ----------------------------------------
        BYTE   W96
// 005   ----------------------------------------
        BYTE   W96
// 006   ----------------------------------------
        BYTE   W96
// 007   ----------------------------------------
        BYTE   W96
// 008   ----------------------------------------
        BYTE   W96
// 009   ----------------------------------------
        BYTE   W96
// 010   ----------------------------------------
        BYTE   W96
// 011   ----------------------------------------
        BYTE   W96
// 012   ----------------------------------------
        BYTE   W96
// 013   ----------------------------------------
        BYTE   W96
// 014   ----------------------------------------
        BYTE   W96
// 015   ----------------------------------------
        BYTE   W96
// 016   ----------------------------------------
        BYTE   W96
// 017   ----------------------------------------
        BYTE   W96
// 018   ----------------------------------------
        BYTE   W96
// 019   ----------------------------------------
        BYTE   W96
// 020   ----------------------------------------
        BYTE   W96
// 021   ----------------------------------------
        BYTE   W96
// 022   ----------------------------------------
        BYTE           BEND    c_v+1
        BYTE   W96
// 023   ----------------------------------------
        BYTE   W96
// 024   ----------------------------------------
        BYTE   W96
// 025   ----------------------------------------
        BYTE   W96
// 026   ----------------------------------------
        BYTE   W96
// 027   ----------------------------------------
        BYTE   W96
// 028   ----------------------------------------
        BYTE   W96
// 029   ----------------------------------------
        BYTE   W96
// 030   ----------------------------------------
        BYTE           MOD     0
        BYTE           N96     Gn3   v064
        BYTE           N96     As3
        BYTE   W96
// 031   ----------------------------------------
        BYTE           N48
        BYTE           N48     Dn4
        BYTE   W48
        BYTE                   Dn4
        BYTE           N48     Gn4
        BYTE   W48
// 032   ----------------------------------------
        BYTE   W96
// 033   ----------------------------------------
        BYTE   W96
// 034   ----------------------------------------
        BYTE   W96
// 035   ----------------------------------------
        BYTE   W96
// 036   ----------------------------------------
so2battle_1_36:
        BYTE           N04     En4   v064
        BYTE           N04     Cn4
        BYTE   W06
        BYTE                   En4
        BYTE           N04     Cn4
        BYTE   W12
        BYTE                   En4
        BYTE           N04     Cn4
        BYTE   W12
        BYTE                   Cn4
        BYTE           N04     En4
        BYTE   W06
        BYTE                   En4
        BYTE           N04     Cn4
        BYTE   W12
        BYTE                   En4
        BYTE           N04     Cn4
        BYTE   W12
        BYTE                   Cn4
        BYTE           N04     En4
        BYTE   W06
        BYTE                   En4
        BYTE           N04     Cn4
        BYTE   W12
        BYTE                   En4
        BYTE           N04     Cn4
        BYTE   W12
        BYTE                   En4
        BYTE           N04     Cn4
        BYTE   W06
        BYTE   PEND
// 037   ----------------------------------------
        BYTE   PATT
         POIN2  so2battle_1_36
// 038   ----------------------------------------
so2battle_1_38:
        BYTE           N04     En4   v064
        BYTE           N04     Bn3
        BYTE   W06
        BYTE                   Bn3
        BYTE           N04     En4
        BYTE   W12
        BYTE                   Bn3
        BYTE           N04     En4
        BYTE   W12
        BYTE                   En4
        BYTE           N04     Bn3
        BYTE   W06
        BYTE                   Bn3
        BYTE           N04     En4
        BYTE   W12
        BYTE                   Bn3
        BYTE           N04     En4
        BYTE   W12
        BYTE                   En4
        BYTE           N04     Bn3
        BYTE   W06
        BYTE                   Bn3
        BYTE           N04     En4
        BYTE   W12
        BYTE                   Bn3
        BYTE           N04     En4
        BYTE   W12
        BYTE                   En4
        BYTE           N04     Bn3
        BYTE   W06
        BYTE   PEND
// 039   ----------------------------------------
        BYTE   PATT
         POIN2  so2battle_1_38
// 040   ----------------------------------------
so2battle_1_40:
        BYTE           N48     Cn4   v085
        BYTE           N48     En4
        BYTE   W48
        BYTE           N12     Bn3
        BYTE           N12     Dn4
        BYTE   W12
        BYTE                   An3
        BYTE           N12     Cn4
        BYTE   W12
        BYTE                   Gn3
        BYTE           N12     Bn3
        BYTE   W12
        BYTE                   En3
        BYTE           N12     An3
        BYTE   W12
        BYTE   PEND
// 041   ----------------------------------------
so2battle_1_41:
        BYTE           N36     Dn3   v085
        BYTE           N36     Gn3
        BYTE   W36
        BYTE           N60     En3
        BYTE           N60     An3
        BYTE   W60
        BYTE   PEND
// 042   ----------------------------------------
so2battle_1_42:
        BYTE           N48     Gn3   v085
        BYTE           N48     Bn3
        BYTE   W48
        BYTE           N12     Gn3
        BYTE           N12     Bn3
        BYTE   W12
        BYTE                   An3
        BYTE           N12     Cn4
        BYTE   W12
        BYTE                   Bn3
        BYTE           N12     Dn4
        BYTE   W12
        BYTE                   En3
        BYTE           N12     Gn3
        BYTE   W12
        BYTE   PEND
// 043   ----------------------------------------
so2battle_1_43:
        BYTE           N36     Dn4   v085
        BYTE           N36     Fn4
        BYTE   W36
        BYTE                   Cn4
        BYTE           N36     En4
        BYTE   W36
        BYTE           N24     Bn3
        BYTE           N24     Dn4
        BYTE   W24
        BYTE   PEND
// 044   ----------------------------------------
so2battle_1_44:
        BYTE           N06     En3   v085
        BYTE           N06     An3
        BYTE   W06
        BYTE                   An3   v019
        BYTE           N06     En3
        BYTE   W06
        BYTE                   Gn3   v085
        BYTE           N06     Bn3
        BYTE   W06
        BYTE                   Bn3   v019
        BYTE           N06     Gn3
        BYTE   W06
        BYTE                   An3   v085
        BYTE           N06     Cn4
        BYTE   W06
        BYTE                   Cn4   v019
        BYTE           N06     An3
        BYTE   W06
        BYTE                   En3   v085
        BYTE           N06     An3
        BYTE   W06
        BYTE                   An3   v019
        BYTE           N06     En3
        BYTE   W06
        BYTE           N12     En4   v085
        BYTE           N12     Gn4
        BYTE   W12
        BYTE                   Dn4
        BYTE           N12     Fn4
        BYTE   W12
        BYTE                   Cn4
        BYTE           N12     En4
        BYTE   W12
        BYTE                   Bn3
        BYTE           N12     Dn4
        BYTE   W12
        BYTE   PEND
// 045   ----------------------------------------
so2battle_1_45:
        BYTE           N36     Bn3   v085
        BYTE           N36     Dn4
        BYTE   W36
        BYTE           N12     Cn4
        BYTE           N12     En4
        BYTE   W12
        BYTE           N48     En3
        BYTE           N48     An3
        BYTE   W48
        BYTE   PEND
// 046   ----------------------------------------
so2battle_1_46:
        BYTE           N36     Gs3   v085
        BYTE           N36     Bn3
        BYTE   W36
        BYTE                   An3
        BYTE           N36     Cn4
        BYTE   W36
        BYTE           N24     Bn3
        BYTE           N24     Dn4
        BYTE   W24
        BYTE   PEND
// 047   ----------------------------------------
        BYTE   PATT
         POIN2  so2battle_1_46
// 048   ----------------------------------------
        BYTE   PATT
         POIN2  so2battle_1_40
// 049   ----------------------------------------
        BYTE   PATT
         POIN2  so2battle_1_41
// 050   ----------------------------------------
        BYTE   PATT
         POIN2  so2battle_1_42
// 051   ----------------------------------------
        BYTE   PATT
         POIN2  so2battle_1_43
// 052   ----------------------------------------
        BYTE   PATT
         POIN2  so2battle_1_44
// 053   ----------------------------------------
        BYTE   PATT
         POIN2  so2battle_1_45
// 054   ----------------------------------------
        BYTE   PATT
         POIN2  so2battle_1_46
// 055   ----------------------------------------
        BYTE           N36     Bn3   v085
        BYTE           N36     Dn4
        BYTE   W36
        BYTE                   Cn4
        BYTE           N36     En4
        BYTE   W36
        BYTE           N24     Dn4
        BYTE           N24     Fn4
        BYTE   W24
// 056   ----------------------------------------
        BYTE           BEND    c_v-2
        BYTE           MOD     3
        BYTE   GoTo
         POIN2  so2battle_1_LOOP
        BYTE   FINE

//****************** Track 2 (Midi-Chn.2) ******************//

so2battle_2:
        BYTE   KEYSH   so2battle_key+0
// 000   ----------------------------------------
so2battle_2_LOOP:
        BYTE           VOICE   0
        BYTE           VOL     16
        BYTE           PAN     c_v+25
        BYTE           N06     Cn4   v067
        BYTE   W06
        BYTE                   An3
        BYTE   W06
        BYTE                   Cn4
        BYTE   W06
        BYTE                   En4
        BYTE   W06
        BYTE                   An4
        BYTE   W06
        BYTE                   En4
        BYTE   W06
        BYTE                   Cn4
        BYTE   W06
        BYTE                   An3
        BYTE   W06
        BYTE                   Cn4
        BYTE   W06
        BYTE                   An3
        BYTE   W06
        BYTE                   Cn4
        BYTE   W06
        BYTE                   En4
        BYTE   W06
        BYTE                   An4
        BYTE   W06
        BYTE                   En4
        BYTE   W06
        BYTE                   Cn4
        BYTE   W06
        BYTE                   An3
        BYTE   W06
// 001   ----------------------------------------
so2battle_2_1:
        BYTE           N06     Bn3   v067
        BYTE   W06
        BYTE                   Gn3
        BYTE   W06
        BYTE                   Bn3
        BYTE   W06
        BYTE                   En4
        BYTE   W06
        BYTE                   Gn4
        BYTE   W06
        BYTE                   En4
        BYTE   W06
        BYTE                   Bn3
        BYTE   W06
        BYTE                   Gn3
        BYTE   W06
        BYTE                   Bn3
        BYTE   W06
        BYTE                   Gn3
        BYTE   W06
        BYTE                   Bn3
        BYTE   W06
        BYTE                   En4
        BYTE   W06
        BYTE                   Gn4
        BYTE   W06
        BYTE                   En4
        BYTE   W06
        BYTE                   Bn3
        BYTE   W06
        BYTE                   Gn3
        BYTE   W06
        BYTE   PEND
// 002   ----------------------------------------
so2battle_2_2:
        BYTE           N06     Cn4   v067
        BYTE   W06
        BYTE                   Gn3
        BYTE   W06
        BYTE                   Cn4
        BYTE   W06
        BYTE                   En4
        BYTE   W06
        BYTE                   Gn4
        BYTE   W06
        BYTE                   En4
        BYTE   W06
        BYTE                   Cn4
        BYTE   W06
        BYTE                   Gn3
        BYTE   W06
        BYTE                   Cn4
        BYTE   W06
        BYTE                   Gn3
        BYTE   W06
        BYTE                   Cn4
        BYTE   W06
        BYTE                   En4
        BYTE   W06
        BYTE                   Gn4
        BYTE   W06
        BYTE                   En4
        BYTE   W06
        BYTE                   Cn4
        BYTE   W06
        BYTE                   Gn3
        BYTE   W06
        BYTE   PEND
// 003   ----------------------------------------
so2battle_2_3:
        BYTE           N06     Dn4   v067
        BYTE   W06
        BYTE                   An3
        BYTE   W06
        BYTE                   Dn4
        BYTE   W06
        BYTE                   Fs4
        BYTE   W06
        BYTE                   An4
        BYTE   W06
        BYTE                   Fs4
        BYTE   W06
        BYTE                   Dn4
        BYTE   W06
        BYTE                   An3
        BYTE   W06
        BYTE                   Dn4
        BYTE   W06
        BYTE                   An3
        BYTE   W06
        BYTE                   Dn4
        BYTE   W06
        BYTE                   Fs4
        BYTE   W06
        BYTE                   An4
        BYTE   W06
        BYTE                   Fs4
        BYTE   W06
        BYTE                   Dn4
        BYTE   W06
        BYTE                   An3
        BYTE   W06
        BYTE   PEND
// 004   ----------------------------------------
so2battle_2_4:
        BYTE           N06     Cn4   v067
        BYTE   W06
        BYTE                   An3
        BYTE   W06
        BYTE                   Cn4
        BYTE   W06
        BYTE                   Fn4
        BYTE   W06
        BYTE                   An4
        BYTE   W06
        BYTE                   Fn4
        BYTE   W06
        BYTE                   Cn4
        BYTE   W06
        BYTE                   An3
        BYTE   W06
        BYTE                   Cn4
        BYTE   W06
        BYTE                   An3
        BYTE   W06
        BYTE                   Cn4
        BYTE   W06
        BYTE                   Fn4
        BYTE   W06
        BYTE                   An4
        BYTE   W06
        BYTE                   Fn4
        BYTE   W06
        BYTE                   Cn4
        BYTE   W06
        BYTE                   An3
        BYTE   W06
        BYTE   PEND
// 005   ----------------------------------------
so2battle_2_5:
        BYTE           N06     Bn3   v067
        BYTE   W06
        BYTE                   Gn3
        BYTE   W06
        BYTE                   Bn3
        BYTE   W06
        BYTE                   Dn4
        BYTE   W06
        BYTE                   Gn4
        BYTE   W06
        BYTE                   Dn4
        BYTE   W06
        BYTE                   Bn3
        BYTE   W06
        BYTE                   Gn3
        BYTE   W06
        BYTE                   Bn3
        BYTE   W06
        BYTE                   Gn3
        BYTE   W06
        BYTE                   Bn3
        BYTE   W06
        BYTE                   Dn4
        BYTE   W06
        BYTE                   Gn4
        BYTE   W06
        BYTE                   Dn4
        BYTE   W06
        BYTE                   Bn3
        BYTE   W06
        BYTE                   Gn3
        BYTE   W06
        BYTE   PEND
// 006   ----------------------------------------
so2battle_2_6:
        BYTE           N06     Cn4   v067
        BYTE   W06
        BYTE                   An3
        BYTE   W06
        BYTE                   Cn4
        BYTE   W06
        BYTE                   En4
        BYTE   W06
        BYTE                   An4
        BYTE   W06
        BYTE                   En4
        BYTE   W06
        BYTE                   Cn4
        BYTE   W06
        BYTE                   An3
        BYTE   W06
        BYTE                   Cn4
        BYTE   W06
        BYTE                   An3
        BYTE   W06
        BYTE                   Cn4
        BYTE   W06
        BYTE                   En4
        BYTE   W06
        BYTE                   An4
        BYTE   W06
        BYTE                   En4
        BYTE   W06
        BYTE                   Cn4
        BYTE   W06
        BYTE                   An3
        BYTE   W06
        BYTE   PEND
// 007   ----------------------------------------
        BYTE   PATT
         POIN2  so2battle_2_3
// 008   ----------------------------------------
        BYTE   PATT
         POIN2  so2battle_2_4
// 009   ----------------------------------------
        BYTE           N06     En4   v067
        BYTE   W06
        BYTE                   An4
        BYTE   W06
        BYTE                   En4
        BYTE   W06
        BYTE                   An4
        BYTE   W06
        BYTE                   Bn4
        BYTE   W06
        BYTE                   An4
        BYTE   W06
        BYTE                   En4
        BYTE   W06
        BYTE                   Bn3
        BYTE   W06
        BYTE                   Gs3
        BYTE   W06
        BYTE                   En4
        BYTE   W06
        BYTE                   Gs4
        BYTE   W06
        BYTE                   En4
        BYTE   W06
        BYTE                   Bn3
        BYTE   W06
        BYTE                   En4
        BYTE   W06
        BYTE                   Gs4
        BYTE   W06
        BYTE                   Bn4
        BYTE   W06
// 010   ----------------------------------------
        BYTE   PATT
         POIN2  so2battle_2_6
// 011   ----------------------------------------
        BYTE   PATT
         POIN2  so2battle_2_1
// 012   ----------------------------------------
        BYTE   PATT
         POIN2  so2battle_2_2
// 013   ----------------------------------------
        BYTE   PATT
         POIN2  so2battle_2_3
// 014   ----------------------------------------
        BYTE   PATT
         POIN2  so2battle_2_4
// 015   ----------------------------------------
        BYTE   PATT
         POIN2  so2battle_2_5
// 016   ----------------------------------------
        BYTE           N06     En4   v067
        BYTE   W06
        BYTE                   Bn3
        BYTE   W06
        BYTE                   En4
        BYTE   W06
        BYTE                   Gs4
        BYTE   W06
        BYTE                   Bn4
        BYTE   W06
        BYTE                   Gs4
        BYTE   W06
        BYTE                   En4
        BYTE   W06
        BYTE                   Bn3
        BYTE   W06
        BYTE                   En4
        BYTE   W06
        BYTE                   Bn3
        BYTE   W06
        BYTE                   En4
        BYTE   W06
        BYTE                   Gs4
        BYTE   W06
        BYTE                   Bn4
        BYTE   W06
        BYTE                   Gs4
        BYTE   W06
        BYTE                   En4
        BYTE   W06
        BYTE                   Bn3
        BYTE   W06
// 017   ----------------------------------------
        BYTE                   En4
        BYTE   W06
        BYTE                   An3
        BYTE   W06
        BYTE                   Cn4
        BYTE   W06
        BYTE                   En4
        BYTE   W06
        BYTE                   An4
        BYTE   W06
        BYTE                   En4
        BYTE   W06
        BYTE                   Cn4
        BYTE   W06
        BYTE                   An3
        BYTE   W06
        BYTE                   En4
        BYTE   W06
        BYTE                   An3
        BYTE   W06
        BYTE                   Cn4
        BYTE   W06
        BYTE                   En4
        BYTE   W06
        BYTE                   An4
        BYTE   W06
        BYTE                   En4
        BYTE   W06
        BYTE                   Cn4
        BYTE   W06
        BYTE                   An3
        BYTE   W06
// 018   ----------------------------------------
        BYTE   PATT
         POIN2  so2battle_2_4
// 019   ----------------------------------------
        BYTE           N06     En3   v067
        BYTE   W06
        BYTE                   Gs3
        BYTE   W06
        BYTE                   Bn3
        BYTE   W06
        BYTE                   En4
        BYTE   W06
        BYTE                   Gs3
        BYTE   W06
        BYTE                   Bn3
        BYTE   W06
        BYTE                   En4
        BYTE   W06
        BYTE                   Gs4
        BYTE   W06
        BYTE                   Bn3
        BYTE   W06
        BYTE                   En4
        BYTE   W06
        BYTE                   Gs4
        BYTE   W06
        BYTE                   Bn4
        BYTE   W06
        BYTE                   En4
        BYTE   W06
        BYTE                   Gs4
        BYTE   W06
        BYTE                   Bn4
        BYTE   W06
        BYTE                   En5
        BYTE   W06
// 020   ----------------------------------------
        BYTE   PATT
         POIN2  so2battle_2_6
// 021   ----------------------------------------
        BYTE           N06     Fn3   v067
        BYTE   W06
        BYTE                   Gs3
        BYTE   W06
        BYTE                   Bn3
        BYTE   W06
        BYTE                   Fn4
        BYTE   W06
        BYTE                   Gs3
        BYTE   W06
        BYTE                   Bn3
        BYTE   W06
        BYTE                   Fn4
        BYTE   W06
        BYTE                   Gs4
        BYTE   W06
        BYTE                   Bn3
        BYTE   W06
        BYTE                   Fn4
        BYTE   W06
        BYTE                   Gs4
        BYTE   W06
        BYTE                   Bn4
        BYTE   W06
        BYTE                   Fn4
        BYTE   W06
        BYTE                   Gs4
        BYTE   W06
        BYTE                   Bn4
        BYTE   W06
        BYTE                   Fn5
        BYTE   W06
// 022   ----------------------------------------
so2battle_2_22:
        BYTE           N06     An3   v067
        BYTE   W06
        BYTE                   En3
        BYTE   W06
        BYTE                   Bn3
        BYTE   W06
        BYTE                   Gn3
        BYTE   W06
        BYTE                   Cn4
        BYTE   W06
        BYTE                   An3
        BYTE   W06
        BYTE                   En4
        BYTE   W06
        BYTE                   Bn3
        BYTE   W06
        BYTE                   An4
        BYTE   W06
        BYTE                   En4
        BYTE   W06
        BYTE                   Gn4
        BYTE   W06
        BYTE                   En4
        BYTE   W06
        BYTE                   Fn4
        BYTE   W06
        BYTE                   Cn4
        BYTE   W06
        BYTE                   Dn4
        BYTE   W06
        BYTE                   An3
        BYTE   W06
        BYTE   PEND
// 023   ----------------------------------------
        BYTE                   Gn4
        BYTE   W06
        BYTE                   Dn4
        BYTE   W06
        BYTE                   En4
        BYTE   W06
        BYTE                   Bn3
        BYTE   W06
        BYTE                   Fn4
        BYTE   W06
        BYTE                   Cn4
        BYTE   W06
        BYTE                   En4
        BYTE   W06
        BYTE                   Bn3
        BYTE   W06
        BYTE                   En4
        BYTE   W06
        BYTE                   Bn3
        BYTE   W06
        BYTE                   En4
        BYTE   W06
        BYTE                   Bn3
        BYTE   W06
        BYTE                   En4
        BYTE           N06     Bn3
        BYTE   W12
        BYTE                   Bn3
        BYTE           N06     En4
        BYTE   W12
// 024   ----------------------------------------
        BYTE                   En4
        BYTE           N06     Cn4
        BYTE   W12
        BYTE                   Dn4
        BYTE           N06     Bn3
        BYTE   W12
        BYTE                   Cn4
        BYTE           N06     An3
        BYTE   W12
        BYTE                   Bn3
        BYTE           N06     Gn3
        BYTE   W12
        BYTE                   Bn3
        BYTE           N06     Gn3
        BYTE   W12
        BYTE                   Bn3
        BYTE           N06     Gn3
        BYTE   W12
        BYTE                   Bn3
        BYTE           N06     Gn3
        BYTE   W12
        BYTE                   Bn3
        BYTE           N06     Gn3
        BYTE   W12
// 025   ----------------------------------------
        BYTE                   En4
        BYTE           N06     Cn4
        BYTE   W12
        BYTE                   En4
        BYTE           N06     Cn4
        BYTE   W12
        BYTE                   Cn4
        BYTE           N06     En4
        BYTE   W12
        BYTE                   En4
        BYTE           N06     Cn4
        BYTE   W12
        BYTE                   En4
        BYTE           N06     Bn3
        BYTE   W12
        BYTE                   Bn3
        BYTE           N06     En4
        BYTE   W12
        BYTE                   Dn4
        BYTE           N06     Bn3
        BYTE   W12
        BYTE                   Dn4
        BYTE           N06     Bn3
        BYTE   W12
// 026   ----------------------------------------
        BYTE   PATT
         POIN2  so2battle_2_22
// 027   ----------------------------------------
        BYTE           N06     Gn4   v067
        BYTE   W06
        BYTE                   Dn4
        BYTE   W06
        BYTE                   En4
        BYTE   W06
        BYTE                   Bn3
        BYTE   W06
        BYTE                   Fn4
        BYTE   W06
        BYTE                   Cn4
        BYTE   W06
        BYTE                   En4
        BYTE   W06
        BYTE                   Bn3
        BYTE   W06
        BYTE                   En4
        BYTE   W06
        BYTE                   Bn3
        BYTE   W06
        BYTE                   En4
        BYTE   W06
        BYTE                   Bn3
        BYTE   W06
        BYTE                   En4
        BYTE           N06     Bn3
        BYTE   W12
        BYTE                   En4
        BYTE           N06     Bn3
        BYTE   W12
// 028   ----------------------------------------
        BYTE                   En4
        BYTE           N06     Cn4
        BYTE   W12
        BYTE                   Dn4
        BYTE           N06     Bn3
        BYTE   W12
        BYTE                   Cn4
        BYTE           N06     An3
        BYTE   W12
        BYTE                   Bn3
        BYTE           N06     Gs3
        BYTE   W12
        BYTE                   Bn3
        BYTE           N06     Gs3
        BYTE   W12
        BYTE                   Bn3
        BYTE           N06     Gs3
        BYTE   W12
        BYTE                   Bn3
        BYTE           N06     Gs3
        BYTE   W12
        BYTE                   Bn3
        BYTE           N06     Gs3
        BYTE   W12
// 029   ----------------------------------------
        BYTE                   Fn4
        BYTE           N06     Dn4
        BYTE   W12
        BYTE                   En4
        BYTE           N06     Cn4
        BYTE   W12
        BYTE                   Bn3
        BYTE           N06     Dn4
        BYTE   W12
        BYTE                   Gs3
        BYTE           N06     Bn3
        BYTE   W12
        BYTE                   Bn3
        BYTE           N06     Gs3
        BYTE   W12
        BYTE                   Bn3
        BYTE           N06     Gs3
        BYTE   W12
        BYTE                   En4
        BYTE           N06     Cn4
        BYTE   W12
        BYTE                   En4
        BYTE           N06     Cn4
        BYTE   W12
// 030   ----------------------------------------
        BYTE           PAN     c_v+44
        BYTE           N06     As5   v083
        BYTE   W06
        BYTE           PAN     c_v+48
        BYTE           N06     Dn6
        BYTE   W06
        BYTE                   As5
        BYTE   W06
        BYTE                   Gn5
        BYTE   W06
        BYTE                   Dn5
        BYTE   W06
        BYTE           PAN     c_v+44
        BYTE           N06     Gn5
        BYTE   W06
        BYTE           PAN     c_v+40
        BYTE           N06     Dn5
        BYTE   W06
        BYTE           PAN     c_v+36
        BYTE           N06     As4
        BYTE   W06
        BYTE           PAN     c_v+32
        BYTE           N06     Gn4
        BYTE   W06
        BYTE           PAN     c_v+28
        BYTE           N06     As4
        BYTE   W06
        BYTE           PAN     c_v+24
        BYTE           N06     Gn4
        BYTE   W06
        BYTE           PAN     c_v+20
        BYTE           N06     Dn4
        BYTE   W06
        BYTE           PAN     c_v+16
        BYTE           N06     As3
        BYTE   W06
        BYTE           PAN     c_v+12
        BYTE           N06     Dn4
        BYTE   W06
        BYTE           PAN     c_v+8
        BYTE           N06     As3
        BYTE   W06
        BYTE           PAN     c_v+4
        BYTE           N06     Gn3
        BYTE   W06
// 031   ----------------------------------------
        BYTE           PAN     c_v+0
        BYTE           N06     Dn3
        BYTE   W06
        BYTE           PAN     c_v-4
        BYTE           N06     Gn3
        BYTE   W06
        BYTE           PAN     c_v-8
        BYTE           N06     Dn3
        BYTE   W06
        BYTE           PAN     c_v-12
        BYTE           N06     As2
        BYTE   W06
        BYTE           PAN     c_v-16
        BYTE           N06     Gn2
        BYTE   W06
        BYTE           PAN     c_v-20
        BYTE           N06     As2
        BYTE   W06
        BYTE           PAN     c_v-24
        BYTE           N06     Gn2
        BYTE   W06
        BYTE           PAN     c_v-28
        BYTE           N06     Dn2
        BYTE   W06
        BYTE                   As1
        BYTE   W06
        BYTE                   Dn2
        BYTE   W06
        BYTE           PAN     c_v-32
        BYTE           N06     As1
        BYTE   W06
        BYTE                   Gn1
        BYTE   W06
        BYTE           PAN     c_v-36
        BYTE           N06     Dn1
        BYTE   W06
        BYTE                   Gn1
        BYTE   W06
        BYTE           PAN     c_v-40
        BYTE           N06     Dn1
        BYTE   W06
        BYTE           PAN     c_v-44
        BYTE           N06     As0
        BYTE   W06
// 032   ----------------------------------------
        BYTE           PAN     c_v+25
        BYTE           N06     Gn3   v067
        BYTE   W12
        BYTE                   En3
        BYTE   W12
        BYTE                   Gn3
        BYTE   W12
        BYTE                   Cn4
        BYTE   W12
        BYTE                   Bn3
        BYTE   W12
        BYTE                   An3
        BYTE   W12
        BYTE                   Gn3
        BYTE   W12
        BYTE                   En3
        BYTE   W12
// 033   ----------------------------------------
so2battle_2_33:
        BYTE           N06     Gn3   v067
        BYTE   W12
        BYTE                   An3
        BYTE   W12
        BYTE                   En3
        BYTE   W12
        BYTE                   Cn4
        BYTE   W12
        BYTE                   Bn3
        BYTE   W12
        BYTE                   An3
        BYTE   W12
        BYTE                   Gn3
        BYTE   W12
        BYTE                   En3
        BYTE   W12
        BYTE   PEND
// 034   ----------------------------------------
so2battle_2_34:
        BYTE           N06     En3   v067
        BYTE   W12
        BYTE                   Fn3
        BYTE   W12
        BYTE                   Gs3
        BYTE   W12
        BYTE                   Bn2
        BYTE   W12
        BYTE                   Cn4
        BYTE   W12
        BYTE                   Bn3
        BYTE   W12
        BYTE                   An3
        BYTE   W12
        BYTE                   Gs3
        BYTE   W12
        BYTE   PEND
// 035   ----------------------------------------
so2battle_2_35:
        BYTE           N06     En3   v067
        BYTE   W12
        BYTE                   Gs3
        BYTE   W12
        BYTE                   An3
        BYTE   W12
        BYTE                   Cn4
        BYTE   W12
        BYTE                   Bn3
        BYTE   W12
        BYTE                   An3
        BYTE   W12
        BYTE                   Gs3
        BYTE   W12
        BYTE                   En3
        BYTE   W12
        BYTE   PEND
// 036   ----------------------------------------
        BYTE                   Gn3
        BYTE   W12
        BYTE                   En3
        BYTE   W12
        BYTE                   Gn3
        BYTE   W12
        BYTE                   Cn4
        BYTE   W12
        BYTE                   Bn3
        BYTE   W12
        BYTE                   An3
        BYTE   W12
        BYTE                   Gn3
        BYTE   W12
        BYTE                   En3
        BYTE   W12
// 037   ----------------------------------------
        BYTE   PATT
         POIN2  so2battle_2_33
// 038   ----------------------------------------
        BYTE   PATT
         POIN2  so2battle_2_34
// 039   ----------------------------------------
        BYTE   PATT
         POIN2  so2battle_2_35
// 040   ----------------------------------------
so2battle_2_40:
        BYTE           N06     En4   v067
        BYTE   W06
        BYTE                   Cn4
        BYTE   W06
        BYTE                   En4
        BYTE   W06
        BYTE                   Cn4
        BYTE   W06
        BYTE                   En4
        BYTE   W06
        BYTE                   Cn4
        BYTE   W06
        BYTE                   En4
        BYTE   W06
        BYTE                   Cn4
        BYTE   W06
        BYTE                   Dn4
        BYTE   W06
        BYTE                   Bn3
        BYTE   W06
        BYTE                   Cn4
        BYTE   W06
        BYTE                   An3
        BYTE   W06
        BYTE                   Bn3
        BYTE   W06
        BYTE                   Gn3
        BYTE   W06
        BYTE                   An3
        BYTE   W06
        BYTE                   En3
        BYTE   W06
        BYTE   PEND
// 041   ----------------------------------------
so2battle_2_41:
        BYTE           N06     An3   v067
        BYTE           N06     En3
        BYTE   W12
        BYTE                   En3
        BYTE           N06     An3
        BYTE   W12
        BYTE                   An3
        BYTE           N06     En3
        BYTE   W06
        BYTE                   An3
        BYTE           N06     En3
        BYTE   W12
        BYTE                   En3
        BYTE           N06     An3
        BYTE   W12
        BYTE                   An3
        BYTE           N06     En3
        BYTE   W06
        BYTE                   An3
        BYTE           N06     En3
        BYTE   W12
        BYTE                   En3
        BYTE           N06     An3
        BYTE   W12
        BYTE                   En3
        BYTE           N06     An3
        BYTE   W12
        BYTE   PEND
// 042   ----------------------------------------
so2battle_2_42:
        BYTE           N06     Gn3   v067
        BYTE           N06     Bn3
        BYTE   W12
        BYTE                   Gn3
        BYTE           N06     Bn3
        BYTE   W12
        BYTE                   Gn3
        BYTE           N06     Bn3
        BYTE   W06
        BYTE                   Gn3
        BYTE           N06     Bn3
        BYTE   W12
        BYTE                   Bn3
        BYTE           N06     Gn3
        BYTE   W12
        BYTE                   Gn3
        BYTE           N06     Bn3
        BYTE   W06
        BYTE                   Bn3
        BYTE           N06     Gn3
        BYTE   W12
        BYTE                   Bn3
        BYTE           N06     Gn3
        BYTE   W12
        BYTE                   Bn3
        BYTE           N06     Gn3
        BYTE   W12
        BYTE   PEND
// 043   ----------------------------------------
so2battle_2_43:
        BYTE           N06     Fn4   v067
        BYTE           N06     Cn4
        BYTE   W12
        BYTE                   Fn4
        BYTE           N06     Cn4
        BYTE   W12
        BYTE                   Cn4
        BYTE           N06     Fn4
        BYTE   W06
        BYTE                   Cn4
        BYTE           N06     Fn4
        BYTE   W12
        BYTE                   En4
        BYTE           N06     Cn4
        BYTE   W12
        BYTE                   Cn4
        BYTE           N06     En4
        BYTE   W06
        BYTE                   En4
        BYTE           N06     Cn4
        BYTE   W12
        BYTE                   En4
        BYTE           N06     Cn4
        BYTE   W12
        BYTE                   Cn4
        BYTE           N06     En4
        BYTE   W12
        BYTE   PEND
// 044   ----------------------------------------
so2battle_2_44:
        BYTE           N06     An3   v067
        BYTE           N06     En3
        BYTE   W12
        BYTE                   An3
        BYTE           N06     En3
        BYTE   W12
        BYTE                   En3
        BYTE           N06     An3
        BYTE   W06
        BYTE                   En3
        BYTE           N06     An3
        BYTE   W12
        BYTE                   An3
        BYTE           N06     En3
        BYTE   W12
        BYTE                   En4
        BYTE           N06     Gn4
        BYTE   W06
        BYTE                   Dn4
        BYTE           N06     Fn4
        BYTE   W12
        BYTE                   Cn4
        BYTE           N06     En4
        BYTE   W12
        BYTE                   Bn3
        BYTE           N06     Dn4
        BYTE   W12
        BYTE   PEND
// 045   ----------------------------------------
so2battle_2_45:
        BYTE           N06     Dn4   v067
        BYTE           N06     Bn3
        BYTE   W12
        BYTE                   Bn3
        BYTE           N06     Dn4
        BYTE   W12
        BYTE                   Dn4
        BYTE           N06     Bn3
        BYTE   W06
        BYTE                   Bn3
        BYTE           N06     Dn4
        BYTE   W12
        BYTE                   Dn4
        BYTE           N06     Bn3
        BYTE   W12
        BYTE                   Dn4
        BYTE           N06     Bn3
        BYTE   W06
        BYTE                   Dn4
        BYTE           N06     Bn3
        BYTE   W12
        BYTE                   Dn4
        BYTE           N06     Bn3
        BYTE   W12
        BYTE                   Dn4
        BYTE           N06     Bn3
        BYTE   W12
        BYTE   PEND
// 046   ----------------------------------------
        BYTE                   En4
        BYTE           N06     Cn4
        BYTE   W12
        BYTE                   En4
        BYTE           N06     Cn4
        BYTE   W12
        BYTE                   Cn4
        BYTE           N06     En4
        BYTE   W06
        BYTE                   En4
        BYTE           N06     Cn4
        BYTE   W12
        BYTE                   En4
        BYTE           N06     Cn4
        BYTE   W12
        BYTE                   En4
        BYTE           N06     Cn4
        BYTE   W06
        BYTE                   En4
        BYTE           N06     Cn4
        BYTE   W12
        BYTE                   En4
        BYTE           N06     Cn4
        BYTE   W12
        BYTE                   En4
        BYTE           N06     Cn4
        BYTE   W12
// 047   ----------------------------------------
        BYTE                   En4
        BYTE           N06     Bn3
        BYTE   W12
        BYTE                   En4
        BYTE           N06     Bn3
        BYTE   W12
        BYTE                   Bn3
        BYTE           N06     En4
        BYTE   W06
        BYTE                   En4
        BYTE           N06     Bn3
        BYTE   W12
        BYTE                   En4
        BYTE           N06     Bn3
        BYTE   W12
        BYTE                   En4
        BYTE           N06     Bn3
        BYTE   W06
        BYTE                   En4
        BYTE           N06     Bn3
        BYTE   W12
        BYTE                   En4
        BYTE           N06     Bn3
        BYTE   W12
        BYTE                   En4
        BYTE           N06     Bn3
        BYTE   W12
// 048   ----------------------------------------
        BYTE   PATT
         POIN2  so2battle_2_40
// 049   ----------------------------------------
        BYTE   PATT
         POIN2  so2battle_2_41
// 050   ----------------------------------------
        BYTE   PATT
         POIN2  so2battle_2_42
// 051   ----------------------------------------
        BYTE   PATT
         POIN2  so2battle_2_43
// 052   ----------------------------------------
        BYTE   PATT
         POIN2  so2battle_2_44
// 053   ----------------------------------------
        BYTE   PATT
         POIN2  so2battle_2_45
// 054   ----------------------------------------
        BYTE           N06     Gs3   v067
        BYTE           N06     Bn3
        BYTE   W12
        BYTE                   Gs3
        BYTE           N06     Bn3
        BYTE   W12
        BYTE                   Bn3
        BYTE           N06     Gs3
        BYTE   W06
        BYTE                   Gs3
        BYTE           N06     Bn3
        BYTE   W12
        BYTE                   Gs3
        BYTE           N06     Bn3
        BYTE   W12
        BYTE                   Gs3
        BYTE           N06     Bn3
        BYTE   W06
        BYTE                   Gs3
        BYTE           N06     Bn3
        BYTE   W12
        BYTE                   Gs3
        BYTE           N06     Bn3
        BYTE   W12
        BYTE                   Gs3
        BYTE           N06     Bn3
        BYTE   W12
// 055   ----------------------------------------
        BYTE   PATT
         POIN2  so2battle_2_45
// 056   ----------------------------------------
        BYTE   GoTo
         POIN2  so2battle_2_LOOP
        BYTE   FINE

//****************** Track 3 (Midi-Chn.3) ******************//

so2battle_3:
        BYTE   KEYSH   so2battle_key+0
// 000   ----------------------------------------
so2battle_3_LOOP:
        BYTE           VOICE   81
        BYTE           VOL     30
        BYTE           PAN     c_v+40
        BYTE           MOD     1
        BYTE           N60     Cn4   v048
        BYTE   W60
        BYTE           N12     Bn3
        BYTE   W12
        BYTE                   An3
        BYTE   W12
        BYTE                   Gn3
        BYTE   W12
// 001   ----------------------------------------
so2battle_3_1:
        BYTE           N36     En3   v048
        BYTE   W36
        BYTE                   Gn3
        BYTE   W36
        BYTE           N24     Bn3
        BYTE   W24
        BYTE   PEND
// 002   ----------------------------------------
so2battle_3_2:
        BYTE           N36     Cn4   v048
        BYTE   W36
        BYTE                   Gn3
        BYTE   W36
        BYTE           N24     En4
        BYTE   W24
        BYTE   PEND
// 003   ----------------------------------------
so2battle_3_3:
        BYTE           N36     Dn4   v048
        BYTE   W36
        BYTE           N60     An3
        BYTE   W60
        BYTE   PEND
// 004   ----------------------------------------
so2battle_3_4:
        BYTE           MOD     6
        BYTE           N60     Cn4   v048
        BYTE   W36
        BYTE           MOD     3
        BYTE   W24
        BYTE           N12
        BYTE   W12
        BYTE                   Dn4
        BYTE   W12
        BYTE                   En4
        BYTE   W12
        BYTE   PEND
// 005   ----------------------------------------
so2battle_3_5:
        BYTE           MOD     6
        BYTE           N36     Dn4   v048
        BYTE   W18
        BYTE           MOD     3
        BYTE   W18
        BYTE           N24     Gn3
        BYTE   W24
        BYTE           N36     Dn4
        BYTE   W36
        BYTE   PEND
// 006   ----------------------------------------
        BYTE           MOD     1
        BYTE           N12     Cn4
        BYTE   W12
        BYTE                   An3
        BYTE   W12
        BYTE                   Cn4
        BYTE   W12
        BYTE                   En4
        BYTE   W24
        BYTE                   Dn4
        BYTE   W24
        BYTE                   Cn4
        BYTE   W12
// 007   ----------------------------------------
        BYTE                   Dn4
        BYTE   W12
        BYTE                   An3
        BYTE   W12
        BYTE                   Dn4
        BYTE   W12
        BYTE                   Fs4
        BYTE   W24
        BYTE                   En4
        BYTE   W24
        BYTE                   Dn4
        BYTE   W12
// 008   ----------------------------------------
        BYTE                   Fn4
        BYTE   W12
        BYTE                   En4
        BYTE   W12
        BYTE                   Dn4
        BYTE   W12
        BYTE                   Cn4
        BYTE   W24
        BYTE                   An3
        BYTE   W24
        BYTE                   Cn4
        BYTE   W12
// 009   ----------------------------------------
        BYTE           N48     Bn3
        BYTE   W48
        BYTE                   En3
        BYTE   W48
// 010   ----------------------------------------
        BYTE           N60     Cn4
        BYTE   W60
        BYTE           N12     Bn3
        BYTE   W12
        BYTE                   An3
        BYTE   W12
        BYTE                   Gn3
        BYTE   W12
// 011   ----------------------------------------
        BYTE   PATT
         POIN2  so2battle_3_1
// 012   ----------------------------------------
        BYTE   PATT
         POIN2  so2battle_3_2
// 013   ----------------------------------------
        BYTE   PATT
         POIN2  so2battle_3_3
// 014   ----------------------------------------
        BYTE   PATT
         POIN2  so2battle_3_4
// 015   ----------------------------------------
        BYTE   PATT
         POIN2  so2battle_3_5
// 016   ----------------------------------------
        BYTE           MOD     6
        BYTE           N60     Dn4   v048
        BYTE   W36
        BYTE           MOD     3
        BYTE   W24
        BYTE           N12
        BYTE   W12
        BYTE                   En4
        BYTE   W12
        BYTE                   Fn4
        BYTE   W12
// 017   ----------------------------------------
        BYTE           MOD     6
        BYTE           N48     En4
        BYTE   W36
        BYTE           MOD     3
        BYTE   W12
        BYTE           N12     Dn4
        BYTE   W12
        BYTE                   En4
        BYTE   W24
        BYTE           N72     Cn4
        BYTE   W12
// 018   ----------------------------------------
        BYTE   W60
        BYTE           N12
        BYTE   W12
        BYTE                   Bn3
        BYTE   W12
        BYTE                   An3
        BYTE   W12
// 019   ----------------------------------------
so2battle_3_19:
        BYTE           N36     Gs3   v048
        BYTE   W36
        BYTE                   An3
        BYTE   W36
        BYTE           N24     Bn3
        BYTE   W24
        BYTE   PEND
// 020   ----------------------------------------
        BYTE           N48     Cn4
        BYTE   W48
        BYTE           N12
        BYTE   W12
        BYTE                   Dn4
        BYTE   W12
        BYTE                   En4
        BYTE   W12
        BYTE           TIE     Dn4
        BYTE   W12
// 021   ----------------------------------------
        BYTE   W96
// 022   ----------------------------------------
        BYTE           EOT
        BYTE           MOD     1
        BYTE   W96
// 023   ----------------------------------------
        BYTE   W96
// 024   ----------------------------------------
        BYTE   W96
// 025   ----------------------------------------
        BYTE   W96
// 026   ----------------------------------------
        BYTE   W96
// 027   ----------------------------------------
        BYTE   W96
// 028   ----------------------------------------
        BYTE   W96
// 029   ----------------------------------------
        BYTE   W96
// 030   ----------------------------------------
        BYTE   W96
// 031   ----------------------------------------
        BYTE   W96
// 032   ----------------------------------------
so2battle_3_32:
        BYTE           N06     Gn2   v056
        BYTE   W12
        BYTE                   En2
        BYTE   W12
        BYTE                   Gn2
        BYTE   W12
        BYTE                   Cn3
        BYTE   W12
        BYTE                   Bn2
        BYTE   W12
        BYTE                   An2
        BYTE   W12
        BYTE                   Gn2
        BYTE   W12
        BYTE                   En2
        BYTE   W12
        BYTE   PEND
// 033   ----------------------------------------
so2battle_3_33:
        BYTE           N06     Gn2   v056
        BYTE   W12
        BYTE                   An2
        BYTE   W12
        BYTE                   En2
        BYTE   W12
        BYTE                   Cn3
        BYTE   W12
        BYTE                   Bn2
        BYTE   W12
        BYTE                   An2
        BYTE   W12
        BYTE                   Gn2
        BYTE   W12
        BYTE                   En2
        BYTE   W12
        BYTE   PEND
// 034   ----------------------------------------
so2battle_3_34:
        BYTE           N06     En2   v056
        BYTE   W12
        BYTE                   Fn2
        BYTE   W12
        BYTE                   Gs2
        BYTE   W12
        BYTE                   Bn1
        BYTE   W12
        BYTE                   Cn3
        BYTE   W12
        BYTE                   Bn2
        BYTE   W12
        BYTE                   An2
        BYTE   W12
        BYTE                   Gs2
        BYTE   W12
        BYTE   PEND
// 035   ----------------------------------------
so2battle_3_35:
        BYTE           N06     En2   v056
        BYTE   W12
        BYTE                   Gs2
        BYTE   W12
        BYTE                   An2
        BYTE   W12
        BYTE                   Cn3
        BYTE   W12
        BYTE                   Bn2
        BYTE   W12
        BYTE                   An2
        BYTE   W12
        BYTE                   Gs2
        BYTE   W12
        BYTE                   En2
        BYTE   W12
        BYTE   PEND
// 036   ----------------------------------------
        BYTE   PATT
         POIN2  so2battle_3_32
// 037   ----------------------------------------
        BYTE   PATT
         POIN2  so2battle_3_33
// 038   ----------------------------------------
        BYTE   PATT
         POIN2  so2battle_3_34
// 039   ----------------------------------------
        BYTE   PATT
         POIN2  so2battle_3_35
// 040   ----------------------------------------
so2battle_3_40:
        BYTE           N48     Cn4   v048
        BYTE   W48
        BYTE           N12     Bn3
        BYTE   W12
        BYTE                   An3
        BYTE   W12
        BYTE                   Gn3
        BYTE   W12
        BYTE                   En3
        BYTE   W12
        BYTE   PEND
// 041   ----------------------------------------
        BYTE           N96
        BYTE   W96
// 042   ----------------------------------------
so2battle_3_42:
        BYTE           N48     Gn3   v048
        BYTE   W48
        BYTE           N12     Bn2
        BYTE   W12
        BYTE                   Cn3
        BYTE   W12
        BYTE                   Dn3
        BYTE   W12
        BYTE                   En3
        BYTE   W12
        BYTE   PEND
// 043   ----------------------------------------
so2battle_3_43:
        BYTE           N36     Dn3   v048
        BYTE   W36
        BYTE                   Cn4
        BYTE   W36
        BYTE           N24     Bn3
        BYTE   W24
        BYTE   PEND
// 044   ----------------------------------------
so2battle_3_44:
        BYTE           N48     Cn3   v048
        BYTE   W48
        BYTE                   Dn3
        BYTE   W48
        BYTE   PEND
// 045   ----------------------------------------
so2battle_3_45:
        BYTE           N48     Fn3   v048
        BYTE   W48
        BYTE                   En3
        BYTE   W48
        BYTE   PEND
// 046   ----------------------------------------
        BYTE           N36
        BYTE   W36
        BYTE                   En3
        BYTE   W36
        BYTE           N24
        BYTE   W24
// 047   ----------------------------------------
        BYTE   PATT
         POIN2  so2battle_3_19
// 048   ----------------------------------------
        BYTE   PATT
         POIN2  so2battle_3_40
// 049   ----------------------------------------
        BYTE           N96     En3   v048
        BYTE   W96
// 050   ----------------------------------------
        BYTE   PATT
         POIN2  so2battle_3_42
// 051   ----------------------------------------
        BYTE   PATT
         POIN2  so2battle_3_43
// 052   ----------------------------------------
        BYTE   PATT
         POIN2  so2battle_3_44
// 053   ----------------------------------------
        BYTE   PATT
         POIN2  so2battle_3_45
// 054   ----------------------------------------
        BYTE           N96     Gs3   v048
        BYTE   W96
// 055   ----------------------------------------
        BYTE           N36     Fn3
        BYTE   W36
        BYTE                   En3
        BYTE   W36
        BYTE           N24     Dn3
        BYTE   W24
// 056   ----------------------------------------
        BYTE   GoTo
         POIN2  so2battle_3_LOOP
        BYTE   FINE

//****************** Track 4 (Midi-Chn.4) ******************//

so2battle_4:
        BYTE   KEYSH   so2battle_key+0
// 000   ----------------------------------------
so2battle_4_LOOP:
        BYTE           VOICE   41
        BYTE           VOL     38
        BYTE           PAN     c_v-20
        BYTE           N96     En4   v045
        BYTE           N96     An4
        BYTE   W96
// 001   ----------------------------------------
so2battle_4_1:
        BYTE           N96     Bn4   v045
        BYTE           N96     En4
        BYTE   W96
        BYTE   PEND
// 002   ----------------------------------------
so2battle_4_2:
        BYTE           N96     En4   v045
        BYTE           N96     Cn5
        BYTE   W96
        BYTE   PEND
// 003   ----------------------------------------
so2battle_4_3:
        BYTE           N96     An4   v045
        BYTE           N96     Dn4
        BYTE   W96
        BYTE   PEND
// 004   ----------------------------------------
so2battle_4_4:
        BYTE           N96     Fn4   v045
        BYTE           N96     Cn5
        BYTE   W96
        BYTE   PEND
// 005   ----------------------------------------
so2battle_4_5:
        BYTE           N96     Bn4   v045
        BYTE           N96     Gn4
        BYTE   W96
        BYTE   PEND
// 006   ----------------------------------------
so2battle_4_6:
        BYTE           N96     En4   v045
        BYTE           N96     An4
        BYTE   W96
        BYTE   PEND
// 007   ----------------------------------------
        BYTE   PATT
         POIN2  so2battle_4_6
// 008   ----------------------------------------
        BYTE   PATT
         POIN2  so2battle_4_4
// 009   ----------------------------------------
        BYTE           N48     En4   v045
        BYTE           N48     Bn4
        BYTE   W48
        BYTE                   Bn3
        BYTE           N48     Bn4
        BYTE   W48
// 010   ----------------------------------------
        BYTE   PATT
         POIN2  so2battle_4_6
// 011   ----------------------------------------
        BYTE   PATT
         POIN2  so2battle_4_1
// 012   ----------------------------------------
        BYTE   PATT
         POIN2  so2battle_4_2
// 013   ----------------------------------------
        BYTE   PATT
         POIN2  so2battle_4_3
// 014   ----------------------------------------
        BYTE   PATT
         POIN2  so2battle_4_4
// 015   ----------------------------------------
        BYTE   PATT
         POIN2  so2battle_4_5
// 016   ----------------------------------------
        BYTE           N96     Dn4   v045
        BYTE           N96     Gs4
        BYTE   W96
// 017   ----------------------------------------
        BYTE           N48     En4
        BYTE           N48     An4
        BYTE   W84
        BYTE           TIE     Cn5
        BYTE           TIE     Fn4
        BYTE   W12
// 018   ----------------------------------------
        BYTE   W96
// 019   ----------------------------------------
        BYTE           EOT
        BYTE           EOT     Cn5
        BYTE           N96     En4
        BYTE           N96     Bn4
        BYTE   W96
// 020   ----------------------------------------
        BYTE   PATT
         POIN2  so2battle_4_6
// 021   ----------------------------------------
        BYTE           N96     En4   v045
        BYTE           N96     Bn4
        BYTE   W96
// 022   ----------------------------------------
so2battle_4_22:
        BYTE           N48     En4   v045
        BYTE           N48     An4
        BYTE   W48
        BYTE                   Fn4
        BYTE           N48     Cn4
        BYTE   W48
        BYTE   PEND
// 023   ----------------------------------------
so2battle_4_23:
        BYTE           N48     Dn4   v045
        BYTE           N48     Gn4
        BYTE   W48
        BYTE                   Bn3
        BYTE           N48     En4
        BYTE   W48
        BYTE   PEND
// 024   ----------------------------------------
        BYTE   PATT
         POIN2  so2battle_4_6
// 025   ----------------------------------------
        BYTE           N48     Cn4   v045
        BYTE           N48     En4
        BYTE   W48
        BYTE                   En4
        BYTE           N48     Bn3
        BYTE   W48
// 026   ----------------------------------------
        BYTE   PATT
         POIN2  so2battle_4_22
// 027   ----------------------------------------
        BYTE   PATT
         POIN2  so2battle_4_23
// 028   ----------------------------------------
        BYTE   PATT
         POIN2  so2battle_4_6
// 029   ----------------------------------------
        BYTE           N48     Cn4   v045
        BYTE           N48     Fn3
        BYTE   W48
        BYTE                   En3
        BYTE           N48     Bn3
        BYTE   W48
// 030   ----------------------------------------
        BYTE           TIE     Gn3
        BYTE           TIE     Gn4
        BYTE   W96
// 031   ----------------------------------------
        BYTE   W96
// 032   ----------------------------------------
        BYTE           EOT
        BYTE           EOT     Gn3
        BYTE           N24     En5   v056
        BYTE   W24
        BYTE                   Dn5
        BYTE   W24
        BYTE                   Cn5
        BYTE   W24
        BYTE                   Bn4
        BYTE   W24
// 033   ----------------------------------------
so2battle_4_33:
        BYTE           N24     An4   v056
        BYTE   W24
        BYTE                   Gn4
        BYTE   W24
        BYTE                   Fn4
        BYTE   W24
        BYTE                   En4
        BYTE   W24
        BYTE   PEND
// 034   ----------------------------------------
so2battle_4_34:
        BYTE           N24     Bn3   v056
        BYTE   W24
        BYTE                   Cn4
        BYTE   W24
        BYTE                   Dn4
        BYTE   W24
        BYTE                   En4
        BYTE   W24
        BYTE   PEND
// 035   ----------------------------------------
so2battle_4_35:
        BYTE           N24     Bn4   v056
        BYTE   W24
        BYTE                   Cn5
        BYTE   W24
        BYTE                   Dn5
        BYTE   W24
        BYTE                   En5
        BYTE   W24
        BYTE   PEND
// 036   ----------------------------------------
        BYTE                   En5
        BYTE   W24
        BYTE                   Dn5
        BYTE   W24
        BYTE                   Cn5
        BYTE   W24
        BYTE                   Bn4
        BYTE   W24
// 037   ----------------------------------------
        BYTE   PATT
         POIN2  so2battle_4_33
// 038   ----------------------------------------
        BYTE   PATT
         POIN2  so2battle_4_34
// 039   ----------------------------------------
        BYTE   PATT
         POIN2  so2battle_4_35
// 040   ----------------------------------------
so2battle_4_40:
        BYTE           N48     Cn5   v045
        BYTE           N48     En5
        BYTE   W48
        BYTE                   En4
        BYTE           N48     An4
        BYTE   W48
        BYTE   PEND
// 041   ----------------------------------------
so2battle_4_41:
        BYTE           N36     Dn4   v045
        BYTE           N36     Gn4
        BYTE   W36
        BYTE           N60     En4
        BYTE           N60     An4
        BYTE   W60
        BYTE   PEND
// 042   ----------------------------------------
so2battle_4_42:
        BYTE           N48     Gn4   v045
        BYTE           N48     Bn4
        BYTE   W48
        BYTE                   Bn4
        BYTE           N48     Dn5
        BYTE   W48
        BYTE   PEND
// 043   ----------------------------------------
so2battle_4_43:
        BYTE           N36     Dn5   v045
        BYTE           N36     Fn5
        BYTE   W36
        BYTE                   Cn5
        BYTE           N36     En5
        BYTE   W36
        BYTE           N24     Bn4
        BYTE           N24     Dn5
        BYTE   W24
        BYTE   PEND
// 044   ----------------------------------------
so2battle_4_44:
        BYTE           N48     En4   v045
        BYTE           N48     An4
        BYTE   W48
        BYTE                   Cn5
        BYTE           N48     En5
        BYTE   W48
        BYTE   PEND
// 045   ----------------------------------------
so2battle_4_45:
        BYTE           N48     Bn4   v045
        BYTE           N48     Dn5
        BYTE   W48
        BYTE                   En4
        BYTE           N48     An4
        BYTE   W48
        BYTE   PEND
// 046   ----------------------------------------
so2battle_4_46:
        BYTE           N36     Gs4   v045
        BYTE           N36     Bn4
        BYTE   W36
        BYTE                   An4
        BYTE           N36     Cn5
        BYTE   W36
        BYTE           N24     Bn4
        BYTE           N24     Dn5
        BYTE   W24
        BYTE   PEND
// 047   ----------------------------------------
        BYTE   PATT
         POIN2  so2battle_4_46
// 048   ----------------------------------------
        BYTE   PATT
         POIN2  so2battle_4_40
// 049   ----------------------------------------
        BYTE   PATT
         POIN2  so2battle_4_41
// 050   ----------------------------------------
        BYTE   PATT
         POIN2  so2battle_4_42
// 051   ----------------------------------------
        BYTE   PATT
         POIN2  so2battle_4_43
// 052   ----------------------------------------
        BYTE   PATT
         POIN2  so2battle_4_44
// 053   ----------------------------------------
        BYTE   PATT
         POIN2  so2battle_4_45
// 054   ----------------------------------------
        BYTE   PATT
         POIN2  so2battle_4_46
// 055   ----------------------------------------
        BYTE           N36     Dn5   v045
        BYTE           N36     Bn4
        BYTE   W36
        BYTE                   En5
        BYTE           N36     Cn5
        BYTE   W36
        BYTE           N24     Fn5
        BYTE           N24     Dn5
        BYTE   W24
// 056   ----------------------------------------
        BYTE   GoTo
         POIN2  so2battle_4_LOOP
        BYTE   FINE

//****************** Track 5 (Midi-Chn.5) ******************//

so2battle_5:
        BYTE   KEYSH   so2battle_key+0
// 000   ----------------------------------------
so2battle_5_LOOP:
        BYTE           VOICE   39
        BYTE           VOL     36
        BYTE           PAN     c_v-34
        BYTE           N12     An1   v085
        BYTE   W12
        BYTE                   An1
        BYTE   W12
        BYTE                   An2
        BYTE   W12
        BYTE           N06     An1
        BYTE   W06
        BYTE                   An1
        BYTE   W06
        BYTE           N12
        BYTE   W12
        BYTE                   An1
        BYTE   W12
        BYTE                   An2
        BYTE   W12
        BYTE                   En2
        BYTE   W12
// 001   ----------------------------------------
so2battle_5_1:
        BYTE           N12     En1   v085
        BYTE   W12
        BYTE                   En1
        BYTE   W12
        BYTE                   En2
        BYTE   W12
        BYTE           N06     En1
        BYTE   W06
        BYTE                   En1
        BYTE   W06
        BYTE                   En1
        BYTE   W06
        BYTE                   En1
        BYTE   W06
        BYTE                   En1
        BYTE   W06
        BYTE                   En1
        BYTE   W06
        BYTE           N12     En2
        BYTE   W12
        BYTE                   Bn1
        BYTE   W12
        BYTE   PEND
// 002   ----------------------------------------
so2battle_5_2:
        BYTE           N12     Cn2   v085
        BYTE   W12
        BYTE                   Cn2
        BYTE   W12
        BYTE                   Gn1
        BYTE   W12
        BYTE                   Cn2
        BYTE   W24
        BYTE                   Cn2
        BYTE   W12
        BYTE                   Gn1
        BYTE   W12
        BYTE                   Cn2
        BYTE   W12
        BYTE   PEND
// 003   ----------------------------------------
so2battle_5_3:
        BYTE           N12     Dn2   v085
        BYTE   W12
        BYTE                   Dn2
        BYTE   W12
        BYTE           N06     An1
        BYTE   W06
        BYTE                   Dn2
        BYTE   W06
        BYTE                   Dn2
        BYTE   W06
        BYTE                   Dn2
        BYTE   W06
        BYTE                   Dn2
        BYTE   W06
        BYTE                   Dn2
        BYTE   W06
        BYTE           N12
        BYTE   W12
        BYTE                   An1
        BYTE   W12
        BYTE                   Dn2
        BYTE   W12
        BYTE   PEND
// 004   ----------------------------------------
so2battle_5_4:
        BYTE           N12     Fn1   v085
        BYTE   W12
        BYTE                   Fn2
        BYTE   W12
        BYTE                   Fn1
        BYTE   W12
        BYTE                   Fn2
        BYTE   W12
        BYTE                   Fn1
        BYTE   W12
        BYTE                   Fn2
        BYTE   W12
        BYTE                   Fn1
        BYTE   W12
        BYTE                   Fn2
        BYTE   W12
        BYTE   PEND
// 005   ----------------------------------------
so2battle_5_5:
        BYTE           N12     Gn1   v085
        BYTE   W12
        BYTE                   Gn2
        BYTE   W12
        BYTE                   Gn1
        BYTE   W12
        BYTE                   Gn2
        BYTE   W12
        BYTE                   Gn1
        BYTE   W12
        BYTE                   Gn2
        BYTE   W12
        BYTE                   Gn1
        BYTE   W12
        BYTE                   Gn2
        BYTE   W12
        BYTE   PEND
// 006   ----------------------------------------
so2battle_5_6:
        BYTE           N12     An1   v085
        BYTE   W12
        BYTE                   An1
        BYTE   W12
        BYTE           N06     An2
        BYTE   W06
        BYTE                   En2
        BYTE   W06
        BYTE                   An1
        BYTE   W06
        BYTE                   En2
        BYTE   W06
        BYTE                   An2
        BYTE   W06
        BYTE                   En2
        BYTE   W06
        BYTE           N12     An1
        BYTE   W12
        BYTE                   An2
        BYTE   W12
        BYTE                   An1
        BYTE   W12
        BYTE   PEND
// 007   ----------------------------------------
        BYTE   PATT
         POIN2  so2battle_5_6
// 008   ----------------------------------------
        BYTE           N12     Fn1   v085
        BYTE   W12
        BYTE                   Fn1
        BYTE   W12
        BYTE           N06     Fn2
        BYTE   W06
        BYTE                   Cn2
        BYTE   W06
        BYTE                   Fn1
        BYTE   W06
        BYTE                   Cn2
        BYTE   W06
        BYTE                   Fn2
        BYTE   W06
        BYTE                   Cn2
        BYTE   W06
        BYTE           N12     Fn2
        BYTE   W12
        BYTE                   Cn2
        BYTE   W12
        BYTE                   Fn2
        BYTE   W12
// 009   ----------------------------------------
        BYTE                   En1
        BYTE   W12
        BYTE                   En1
        BYTE   W12
        BYTE           N06     En2
        BYTE   W06
        BYTE                   Bn1
        BYTE   W06
        BYTE                   En1
        BYTE   W06
        BYTE                   Bn1
        BYTE   W06
        BYTE                   En1
        BYTE   W06
        BYTE                   En1
        BYTE   W06
        BYTE                   En1
        BYTE   W06
        BYTE                   En1
        BYTE   W06
        BYTE           N12     En2
        BYTE   W12
        BYTE                   Bn1
        BYTE   W12
// 010   ----------------------------------------
        BYTE                   An1
        BYTE   W12
        BYTE                   An1
        BYTE   W12
        BYTE                   An2
        BYTE   W12
        BYTE           N06     An1
        BYTE   W06
        BYTE                   An1
        BYTE   W06
        BYTE           N12
        BYTE   W12
        BYTE                   An1
        BYTE   W12
        BYTE                   An2
        BYTE   W12
        BYTE                   En2
        BYTE   W12
// 011   ----------------------------------------
        BYTE   PATT
         POIN2  so2battle_5_1
// 012   ----------------------------------------
        BYTE   PATT
         POIN2  so2battle_5_2
// 013   ----------------------------------------
        BYTE   PATT
         POIN2  so2battle_5_3
// 014   ----------------------------------------
        BYTE   PATT
         POIN2  so2battle_5_4
// 015   ----------------------------------------
        BYTE   PATT
         POIN2  so2battle_5_5
// 016   ----------------------------------------
        BYTE           N12     Gs1   v085
        BYTE   W12
        BYTE                   Gs1
        BYTE   W12
        BYTE           N06     Gs2
        BYTE   W06
        BYTE                   Gs1
        BYTE   W06
        BYTE                   Gs1
        BYTE   W06
        BYTE                   Gs1
        BYTE   W06
        BYTE                   Gs1
        BYTE   W06
        BYTE                   Gs1
        BYTE   W06
        BYTE           N12
        BYTE   W12
        BYTE                   Gs2
        BYTE   W12
        BYTE                   Gs1
        BYTE   W12
// 017   ----------------------------------------
        BYTE                   An1
        BYTE   W12
        BYTE                   An1
        BYTE   W12
        BYTE           N06     An2
        BYTE   W06
        BYTE                   En2
        BYTE   W06
        BYTE                   An1
        BYTE   W06
        BYTE                   En2
        BYTE   W06
        BYTE           N12     Gs1
        BYTE   W12
        BYTE                   An1
        BYTE   W24
        BYTE                   Fn1
        BYTE   W12
// 018   ----------------------------------------
        BYTE                   Fn1
        BYTE   W12
        BYTE                   An1
        BYTE   W12
        BYTE           N06     Fn2
        BYTE   W06
        BYTE                   An1
        BYTE   W06
        BYTE                   Fn1
        BYTE   W06
        BYTE                   Fn1
        BYTE   W06
        BYTE                   Fn1
        BYTE   W06
        BYTE                   Fn1
        BYTE   W06
        BYTE           N12
        BYTE   W12
        BYTE                   Fn2
        BYTE   W12
        BYTE                   Fn1
        BYTE   W12
// 019   ----------------------------------------
        BYTE                   En1
        BYTE   W12
        BYTE                   En1
        BYTE   W12
        BYTE           N06     En2
        BYTE   W06
        BYTE                   An1
        BYTE   W06
        BYTE                   En1
        BYTE   W06
        BYTE                   An1
        BYTE   W06
        BYTE                   En1
        BYTE   W06
        BYTE                   En1
        BYTE   W06
        BYTE                   En1
        BYTE   W06
        BYTE                   En1
        BYTE   W06
        BYTE           N12     En2
        BYTE   W12
        BYTE                   An1
        BYTE   W12
// 020   ----------------------------------------
        BYTE                   An1
        BYTE   W12
        BYTE                   An1
        BYTE   W12
        BYTE           N06     An2
        BYTE   W06
        BYTE                   An1
        BYTE   W06
        BYTE                   An1
        BYTE   W06
        BYTE                   An1
        BYTE   W06
        BYTE                   An1
        BYTE   W06
        BYTE                   An1
        BYTE   W06
        BYTE           N12
        BYTE   W12
        BYTE                   An2
        BYTE   W12
        BYTE                   An1
        BYTE   W12
// 021   ----------------------------------------
        BYTE                   Fn1
        BYTE   W12
        BYTE                   Fn2
        BYTE   W12
        BYTE                   Gs1
        BYTE   W12
        BYTE                   Gs2
        BYTE   W12
        BYTE                   Bn1
        BYTE   W12
        BYTE                   Bn2
        BYTE   W12
        BYTE                   Dn2
        BYTE   W12
        BYTE                   Dn3
        BYTE   W12
// 022   ----------------------------------------
        BYTE                   An1
        BYTE   W12
        BYTE                   An1
        BYTE   W12
        BYTE                   An2
        BYTE   W12
        BYTE                   An1
        BYTE   W12
        BYTE                   Fn1
        BYTE   W12
        BYTE                   Fn1
        BYTE   W12
        BYTE                   Fn2
        BYTE   W12
        BYTE                   Gn1
        BYTE   W12
// 023   ----------------------------------------
        BYTE                   Gn1
        BYTE   W12
        BYTE                   Gn1
        BYTE   W12
        BYTE                   Gn2
        BYTE   W12
        BYTE                   Gn1
        BYTE   W12
        BYTE                   En1
        BYTE   W12
        BYTE           N06
        BYTE   W06
        BYTE                   En1
        BYTE   W06
        BYTE           N12     En2
        BYTE   W12
        BYTE                   En1
        BYTE   W12
// 024   ----------------------------------------
        BYTE                   An1
        BYTE   W12
        BYTE                   An1
        BYTE   W12
        BYTE                   An2
        BYTE   W12
        BYTE                   Gn1
        BYTE   W24
        BYTE                   Gn1
        BYTE   W12
        BYTE                   Gn2
        BYTE   W12
        BYTE                   Fn1
        BYTE   W12
// 025   ----------------------------------------
        BYTE                   Fn1
        BYTE   W12
        BYTE                   Fn1
        BYTE   W12
        BYTE                   Fn2
        BYTE   W12
        BYTE                   Fn1
        BYTE   W12
        BYTE                   Gn1
        BYTE   W12
        BYTE                   Gn1
        BYTE   W12
        BYTE                   Gn2
        BYTE   W12
        BYTE                   Gn1
        BYTE   W12
// 026   ----------------------------------------
        BYTE           N06     An1
        BYTE   W06
        BYTE                   An1
        BYTE   W06
        BYTE                   An2
        BYTE   W06
        BYTE                   An2
        BYTE   W06
        BYTE                   An1
        BYTE   W06
        BYTE                   An1
        BYTE   W06
        BYTE                   An2
        BYTE   W06
        BYTE                   An2
        BYTE   W06
        BYTE                   Fn1
        BYTE   W06
        BYTE                   Fn1
        BYTE   W06
        BYTE                   Fn2
        BYTE   W06
        BYTE                   Fn2
        BYTE   W06
        BYTE                   Fn1
        BYTE   W06
        BYTE                   Fn1
        BYTE   W06
        BYTE           N12     Gn1
        BYTE   W12
// 027   ----------------------------------------
        BYTE           N06
        BYTE   W06
        BYTE                   Gn1
        BYTE   W06
        BYTE                   Gn2
        BYTE   W06
        BYTE                   Gn2
        BYTE   W06
        BYTE                   Gn1
        BYTE   W06
        BYTE                   Gn1
        BYTE   W06
        BYTE           N12     En1
        BYTE   W12
        BYTE           N06
        BYTE   W06
        BYTE                   En1
        BYTE   W06
        BYTE                   En1
        BYTE   W06
        BYTE                   En1
        BYTE   W06
        BYTE           N12     En2
        BYTE   W12
        BYTE           N06     En1
        BYTE   W06
        BYTE                   En1
        BYTE   W06
// 028   ----------------------------------------
        BYTE           N12     An1
        BYTE   W12
        BYTE                   An1
        BYTE   W12
        BYTE                   An2
        BYTE   W12
        BYTE                   En1
        BYTE   W24
        BYTE                   En1
        BYTE   W12
        BYTE                   En2
        BYTE   W12
        BYTE                   En1
        BYTE   W12
// 029   ----------------------------------------
        BYTE                   Fn1
        BYTE   W12
        BYTE                   Fn1
        BYTE   W12
        BYTE                   Fn2
        BYTE   W12
        BYTE                   Fn1
        BYTE   W24
        BYTE                   En1
        BYTE   W12
        BYTE                   En2
        BYTE   W12
        BYTE                   En1
        BYTE   W12
// 030   ----------------------------------------
so2battle_5_30:
        BYTE           N12     Gn0   v085
        BYTE   W12
        BYTE                   Gn0
        BYTE   W12
        BYTE                   Gn1
        BYTE   W12
        BYTE           N06     Gn0
        BYTE   W06
        BYTE                   Gn1
        BYTE   W06
        BYTE           N12     Fn1
        BYTE   W12
        BYTE                   Gn1
        BYTE   W12
        BYTE                   Fn1
        BYTE   W12
        BYTE                   Gn1
        BYTE   W12
        BYTE   PEND
// 031   ----------------------------------------
        BYTE   PATT
         POIN2  so2battle_5_30
// 032   ----------------------------------------
so2battle_5_32:
        BYTE           N12     An1   v085
        BYTE   W12
        BYTE                   An1
        BYTE   W12
        BYTE                   An2
        BYTE   W12
        BYTE           N06     An1
        BYTE   W06
        BYTE                   Gn2
        BYTE   W06
        BYTE           N12     An1
        BYTE   W12
        BYTE                   Gn2
        BYTE   W12
        BYTE                   An1
        BYTE   W12
        BYTE           N06     Gn2
        BYTE   W06
        BYTE                   Gn3
        BYTE   W06
        BYTE   PEND
// 033   ----------------------------------------
        BYTE   PATT
         POIN2  so2battle_5_32
// 034   ----------------------------------------
so2battle_5_34:
        BYTE           N12     En1   v085
        BYTE   W12
        BYTE                   En1
        BYTE   W12
        BYTE                   En2
        BYTE   W12
        BYTE           N06     En1
        BYTE   W06
        BYTE                   Dn2
        BYTE   W06
        BYTE           N12     En1
        BYTE   W12
        BYTE                   Dn2
        BYTE   W12
        BYTE                   En1
        BYTE   W12
        BYTE           N06     Dn2
        BYTE   W06
        BYTE                   Dn3
        BYTE   W06
        BYTE   PEND
// 035   ----------------------------------------
        BYTE   PATT
         POIN2  so2battle_5_34
// 036   ----------------------------------------
        BYTE   PATT
         POIN2  so2battle_5_32
// 037   ----------------------------------------
        BYTE   PATT
         POIN2  so2battle_5_32
// 038   ----------------------------------------
        BYTE   PATT
         POIN2  so2battle_5_34
// 039   ----------------------------------------
        BYTE   PATT
         POIN2  so2battle_5_34
// 040   ----------------------------------------
        BYTE   PATT
         POIN2  so2battle_5_32
// 041   ----------------------------------------
        BYTE   PATT
         POIN2  so2battle_5_32
// 042   ----------------------------------------
so2battle_5_42:
        BYTE           N12     Gn1   v085
        BYTE   W12
        BYTE                   Gn1
        BYTE   W12
        BYTE                   Gn2
        BYTE   W12
        BYTE           N06     Gn1
        BYTE   W06
        BYTE                   Dn2
        BYTE   W06
        BYTE           N12     Gn1
        BYTE   W12
        BYTE                   Dn2
        BYTE   W12
        BYTE                   Gn1
        BYTE   W12
        BYTE           N06     Dn2
        BYTE   W06
        BYTE                   Dn3
        BYTE   W06
        BYTE   PEND
// 043   ----------------------------------------
so2battle_5_43:
        BYTE           N12     Fn1   v085
        BYTE   W12
        BYTE                   Fn1
        BYTE   W12
        BYTE                   Fn2
        BYTE   W12
        BYTE           N06     Fn1
        BYTE   W06
        BYTE                   Cn2
        BYTE   W06
        BYTE           N12     Fn1
        BYTE   W12
        BYTE                   Cn2
        BYTE   W12
        BYTE                   Fn1
        BYTE   W12
        BYTE           N06     Cn2
        BYTE   W06
        BYTE                   Cn3
        BYTE   W06
        BYTE   PEND
// 044   ----------------------------------------
        BYTE   PATT
         POIN2  so2battle_5_32
// 045   ----------------------------------------
so2battle_5_45:
        BYTE           N12     Fn1   v085
        BYTE   W12
        BYTE                   Fn1
        BYTE   W12
        BYTE                   Fn2
        BYTE   W12
        BYTE           N06     Fn1
        BYTE   W06
        BYTE                   An1
        BYTE   W06
        BYTE           N12     Fn1
        BYTE   W12
        BYTE                   An1
        BYTE   W12
        BYTE                   Fn1
        BYTE   W12
        BYTE           N06     An1
        BYTE   W06
        BYTE                   An2
        BYTE   W06
        BYTE   PEND
// 046   ----------------------------------------
        BYTE   PATT
         POIN2  so2battle_5_34
// 047   ----------------------------------------
        BYTE   PATT
         POIN2  so2battle_5_34
// 048   ----------------------------------------
        BYTE   PATT
         POIN2  so2battle_5_32
// 049   ----------------------------------------
        BYTE           N12     Fn1   v085
        BYTE   W12
        BYTE                   Fn1
        BYTE   W12
        BYTE                   Fn2
        BYTE   W12
        BYTE           N06     Fn1
        BYTE   W06
        BYTE                   Gn1
        BYTE   W06
        BYTE           N12     Fn1
        BYTE   W12
        BYTE                   Gn1
        BYTE   W12
        BYTE                   Fn1
        BYTE   W12
        BYTE           N06     Gn1
        BYTE   W06
        BYTE                   Gn2
        BYTE   W06
// 050   ----------------------------------------
        BYTE   PATT
         POIN2  so2battle_5_42
// 051   ----------------------------------------
        BYTE   PATT
         POIN2  so2battle_5_43
// 052   ----------------------------------------
        BYTE   PATT
         POIN2  so2battle_5_32
// 053   ----------------------------------------
        BYTE   PATT
         POIN2  so2battle_5_45
// 054   ----------------------------------------
        BYTE   PATT
         POIN2  so2battle_5_34
// 055   ----------------------------------------
        BYTE           N06     Dn2   v085
        BYTE   W06
        BYTE                   Dn2
        BYTE   W06
        BYTE                   Dn2
        BYTE   W06
        BYTE                   Dn2
        BYTE   W06
        BYTE           N12
        BYTE   W12
        BYTE           N06     An1
        BYTE   W06
        BYTE                   Dn2
        BYTE   W06
        BYTE           N12     An1
        BYTE   W12
        BYTE                   Dn2
        BYTE   W12
        BYTE                   Dn2
        BYTE   W12
        BYTE           N06     Cn3
        BYTE   W06
        BYTE                   Cn4
        BYTE   W06
// 056   ----------------------------------------
        BYTE   GoTo
         POIN2  so2battle_5_LOOP
        BYTE   FINE

//****************** Track 6 (Midi-Chn.6) ******************//

so2battle_6:
        BYTE   KEYSH   so2battle_key+0
// 000   ----------------------------------------
so2battle_6_LOOP:
        BYTE           VOICE   127
        BYTE           VOL     42
        BYTE           PAN     c_v+16
        BYTE           N48     An2   v120
        BYTE   W96
// 001   ----------------------------------------
        BYTE   W96
// 002   ----------------------------------------
        BYTE                   An2
        BYTE   W96
// 003   ----------------------------------------
        BYTE   W96
// 004   ----------------------------------------
        BYTE                   An2
        BYTE   W96
// 005   ----------------------------------------
        BYTE   W96
// 006   ----------------------------------------
        BYTE   W96
// 007   ----------------------------------------
        BYTE   W96
// 008   ----------------------------------------
        BYTE   W96
// 009   ----------------------------------------
so2battle_6_9:
        BYTE           N48     An2   v120
        BYTE   W48
        BYTE                   An2
        BYTE   W48
        BYTE   PEND
// 010   ----------------------------------------
        BYTE                   An2
        BYTE   W96
// 011   ----------------------------------------
        BYTE   W96
// 012   ----------------------------------------
        BYTE                   An2
        BYTE   W96
// 013   ----------------------------------------
        BYTE   W96
// 014   ----------------------------------------
        BYTE                   An2
        BYTE   W96
// 015   ----------------------------------------
        BYTE   W96
// 016   ----------------------------------------
        BYTE                   An2
        BYTE   W96
// 017   ----------------------------------------
        BYTE   W48
        BYTE           N12
        BYTE   W12
        BYTE           N18
        BYTE   W24
        BYTE           N48
        BYTE   W12
// 018   ----------------------------------------
        BYTE   W96
// 019   ----------------------------------------
        BYTE   W96
// 020   ----------------------------------------
        BYTE                   An2
        BYTE   W96
// 021   ----------------------------------------
so2battle_6_21:
        BYTE           N24     An2   v120
        BYTE   W24
        BYTE                   An2
        BYTE   W24
        BYTE                   An2
        BYTE   W24
        BYTE                   An2
        BYTE   W24
        BYTE   PEND
// 022   ----------------------------------------
so2battle_6_22:
        BYTE           N48     An2   v120
        BYTE   W48
        BYTE           N36
        BYTE   W36
        BYTE           N24
        BYTE   W12
        BYTE   PEND
// 023   ----------------------------------------
        BYTE   W96
// 024   ----------------------------------------
        BYTE   W96
// 025   ----------------------------------------
        BYTE   W96
// 026   ----------------------------------------
        BYTE   PATT
         POIN2  so2battle_6_22
// 027   ----------------------------------------
        BYTE   W96
// 028   ----------------------------------------
        BYTE   W96
// 029   ----------------------------------------
        BYTE   PATT
         POIN2  so2battle_6_21
// 030   ----------------------------------------
        BYTE           N48     An2   v120
        BYTE   W96
// 031   ----------------------------------------
        BYTE   W96
// 032   ----------------------------------------
        BYTE                   An2
        BYTE   W96
// 033   ----------------------------------------
        BYTE   W96
// 034   ----------------------------------------
        BYTE   W96
// 035   ----------------------------------------
        BYTE   PATT
         POIN2  so2battle_6_9
// 036   ----------------------------------------
        BYTE           N48     An2   v120
        BYTE   W96
// 037   ----------------------------------------
        BYTE   W96
// 038   ----------------------------------------
        BYTE                   An2
        BYTE   W96
// 039   ----------------------------------------
        BYTE   PATT
         POIN2  so2battle_6_21
// 040   ----------------------------------------
        BYTE           N48     An2   v120
        BYTE   W96
// 041   ----------------------------------------
        BYTE   W96
// 042   ----------------------------------------
        BYTE   W96
// 043   ----------------------------------------
        BYTE   W96
// 044   ----------------------------------------
        BYTE                   An2
        BYTE   W96
// 045   ----------------------------------------
        BYTE   W96
// 046   ----------------------------------------
        BYTE   W96
// 047   ----------------------------------------
        BYTE   PATT
         POIN2  so2battle_6_9
// 048   ----------------------------------------
        BYTE           N48     An2   v120
        BYTE   W96
// 049   ----------------------------------------
        BYTE   W96
// 050   ----------------------------------------
        BYTE   W96
// 051   ----------------------------------------
        BYTE   W96
// 052   ----------------------------------------
        BYTE                   An2
        BYTE   W96
// 053   ----------------------------------------
        BYTE   W96
// 054   ----------------------------------------
        BYTE                   An2
        BYTE   W96
// 055   ----------------------------------------
        BYTE   PATT
         POIN2  so2battle_6_9
// 056   ----------------------------------------
        BYTE   GoTo
         POIN2  so2battle_6_LOOP
        BYTE   FINE

//****************** Track 7 (Midi-Chn.7) ******************//

so2battle_7:
        BYTE   KEYSH   so2battle_key+0
// 000   ----------------------------------------
so2battle_7_LOOP:
        BYTE           VOICE   124
        BYTE           N06     Cn1   v112
        BYTE           VOL     38
        BYTE           PAN     c_v-8
        BYTE   W12
        BYTE           N06
        BYTE   W12
        BYTE                   En1   v102
        BYTE   W12
        BYTE                   Cn1   v112
        BYTE   W06
        BYTE                   Cn1
        BYTE   W06
        BYTE                   Cn1
        BYTE   W12
        BYTE                   Cn1
        BYTE   W12
        BYTE                   En1   v102
        BYTE   W12
        BYTE                   Cn1   v112
        BYTE   W12
// 001   ----------------------------------------
so2battle_7_1:
        BYTE           N06     Cn1   v112
        BYTE   W12
        BYTE                   Cn1
        BYTE   W12
        BYTE                   En1   v102
        BYTE   W12
        BYTE                   Cn1   v112
        BYTE   W06
        BYTE                   Cn1
        BYTE   W06
        BYTE                   Cn1
        BYTE   W12
        BYTE                   Cn1
        BYTE   W12
        BYTE                   En1   v102
        BYTE   W12
        BYTE                   Cn1   v112
        BYTE   W06
        BYTE           N03     En1   v102
        BYTE   W03
        BYTE                   En1
        BYTE   W03
        BYTE   PEND
// 002   ----------------------------------------
so2battle_7_2:
        BYTE           N06     Cn1   v112
        BYTE   W12
        BYTE                   Cn1
        BYTE   W12
        BYTE                   En1   v102
        BYTE   W12
        BYTE                   Cn1   v112
        BYTE   W12
        BYTE                   Cn1
        BYTE   W12
        BYTE                   Cn1
        BYTE   W12
        BYTE                   En1   v102
        BYTE   W12
        BYTE                   Cn1   v112
        BYTE   W12
        BYTE   PEND
// 003   ----------------------------------------
        BYTE                   Cn1
        BYTE   W12
        BYTE                   Cn1
        BYTE   W12
        BYTE                   En1   v102
        BYTE   W12
        BYTE                   Cn1   v112
        BYTE   W12
        BYTE                   Cn1
        BYTE   W06
        BYTE                   Cn1
        BYTE   W06
        BYTE                   Cn1
        BYTE   W06
        BYTE                   Cn1
        BYTE   W06
        BYTE                   En1   v102
        BYTE   W12
        BYTE                   Cn1   v112
        BYTE   W06
        BYTE                   Cn1
        BYTE   W06
// 004   ----------------------------------------
so2battle_7_4:
        BYTE           N06     Cn1   v112
        BYTE   W24
        BYTE                   En1   v102
        BYTE   W24
        BYTE                   Cn1   v112
        BYTE   W12
        BYTE                   Cn1
        BYTE   W12
        BYTE                   En1   v102
        BYTE   W12
        BYTE                   Cn1   v112
        BYTE   W06
        BYTE           N03     En1   v102
        BYTE   W03
        BYTE                   En1
        BYTE   W03
        BYTE   PEND
// 005   ----------------------------------------
so2battle_7_5:
        BYTE           N06     Cn1   v112
        BYTE   W12
        BYTE                   Cn1
        BYTE   W12
        BYTE                   En1   v102
        BYTE   W24
        BYTE                   Cn1   v112
        BYTE   W12
        BYTE                   Cn1
        BYTE   W12
        BYTE                   En1   v102
        BYTE   W24
        BYTE   PEND
// 006   ----------------------------------------
so2battle_7_6:
        BYTE           N06     Cn1   v112
        BYTE   W24
        BYTE                   En1   v102
        BYTE   W12
        BYTE                   Cn1   v112
        BYTE   W12
        BYTE                   Cn1
        BYTE   W06
        BYTE                   Cn1
        BYTE   W06
        BYTE                   Cn1
        BYTE   W12
        BYTE                   En1   v102
        BYTE   W12
        BYTE                   Cn1   v112
        BYTE   W12
        BYTE   PEND
// 007   ----------------------------------------
        BYTE                   Cn1
        BYTE   W12
        BYTE                   Cn1
        BYTE   W12
        BYTE                   En1   v102
        BYTE   W12
        BYTE                   Cn1   v112
        BYTE   W12
        BYTE                   Cn1
        BYTE   W06
        BYTE                   Cn1
        BYTE   W06
        BYTE                   Cn1
        BYTE   W12
        BYTE                   En1   v102
        BYTE   W12
        BYTE                   Cn1   v112
        BYTE   W06
        BYTE           N03     En1   v102
        BYTE   W03
        BYTE                   En1
        BYTE   W03
// 008   ----------------------------------------
so2battle_7_8:
        BYTE           N06     Cn1   v112
        BYTE   W12
        BYTE                   Cn1
        BYTE   W12
        BYTE                   En1   v102
        BYTE   W12
        BYTE                   Cn1   v112
        BYTE   W12
        BYTE                   Cn1
        BYTE   W06
        BYTE                   Cn1
        BYTE   W06
        BYTE                   Cn1
        BYTE   W12
        BYTE                   En1   v102
        BYTE   W12
        BYTE                   Cn1   v112
        BYTE   W12
        BYTE   PEND
// 009   ----------------------------------------
        BYTE                   Cn1
        BYTE   W12
        BYTE                   Cn1
        BYTE   W12
        BYTE                   En1   v102
        BYTE   W12
        BYTE                   Cn1   v112
        BYTE   W12
        BYTE                   En1   v102
        BYTE   W06
        BYTE                   Cn1   v112
        BYTE   W06
        BYTE                   Cn1
        BYTE   W06
        BYTE                   Cn1
        BYTE   W06
        BYTE                   En1   v102
        BYTE   W12
        BYTE                   Cn1   v112
        BYTE   W12
// 010   ----------------------------------------
        BYTE   PATT
         POIN2  so2battle_7_1
// 011   ----------------------------------------
        BYTE           N06     Cn1   v112
        BYTE   W12
        BYTE                   Cn1
        BYTE   W12
        BYTE                   En1   v102
        BYTE   W12
        BYTE                   Cn1   v112
        BYTE   W06
        BYTE                   Cn1
        BYTE   W06
        BYTE                   Cn1
        BYTE   W12
        BYTE                   Cn1
        BYTE   W12
        BYTE                   En1   v102
        BYTE   W12
        BYTE                   Cn1   v112
        BYTE   W12
// 012   ----------------------------------------
        BYTE   PATT
         POIN2  so2battle_7_2
// 013   ----------------------------------------
        BYTE           N06     Cn1   v112
        BYTE   W12
        BYTE                   Cn1
        BYTE   W12
        BYTE                   En1   v102
        BYTE   W12
        BYTE                   Cn1   v112
        BYTE   W12
        BYTE                   Cn1
        BYTE   W06
        BYTE                   Cn1
        BYTE   W06
        BYTE                   Cn1
        BYTE   W06
        BYTE                   Cn1
        BYTE   W06
        BYTE                   En1   v102
        BYTE   W12
        BYTE                   En1
        BYTE   W12
// 014   ----------------------------------------
        BYTE   PATT
         POIN2  so2battle_7_4
// 015   ----------------------------------------
        BYTE   PATT
         POIN2  so2battle_7_5
// 016   ----------------------------------------
        BYTE   PATT
         POIN2  so2battle_7_6
// 017   ----------------------------------------
        BYTE           N06     Cn1   v112
        BYTE   W12
        BYTE                   Cn1
        BYTE   W12
        BYTE                   En1   v102
        BYTE   W12
        BYTE                   Cn1   v112
        BYTE   W12
        BYTE                   Cn1
        BYTE           N06     En1   v102
        BYTE   W12
        BYTE                   Cn1   v112
        BYTE           N06     En1   v102
        BYTE   W24
        BYTE                   Cn1   v112
        BYTE           N06     En1   v102
        BYTE   W12
// 018   ----------------------------------------
        BYTE   PATT
         POIN2  so2battle_7_8
// 019   ----------------------------------------
so2battle_7_19:
        BYTE           N06     Cn1   v112
        BYTE   W12
        BYTE                   Cn1
        BYTE   W12
        BYTE                   En1   v102
        BYTE   W12
        BYTE                   Cn1   v112
        BYTE   W12
        BYTE                   Cn1
        BYTE   W06
        BYTE                   Cn1
        BYTE   W06
        BYTE                   Cn1
        BYTE   W06
        BYTE                   Cn1
        BYTE   W06
        BYTE                   En1   v102
        BYTE   W12
        BYTE                   Cn1   v112
        BYTE   W12
        BYTE   PEND
// 020   ----------------------------------------
        BYTE   PATT
         POIN2  so2battle_7_19
// 021   ----------------------------------------
so2battle_7_21:
        BYTE           N06     En1   v102
        BYTE   W12
        BYTE                   Cn1   v112
        BYTE   W12
        BYTE                   En1   v102
        BYTE   W12
        BYTE                   Cn1   v112
        BYTE   W12
        BYTE                   En1   v102
        BYTE   W12
        BYTE                   Cn1   v112
        BYTE   W12
        BYTE                   En1   v102
        BYTE   W12
        BYTE                   Cn1   v112
        BYTE   W12
        BYTE   PEND
// 022   ----------------------------------------
so2battle_7_22:
        BYTE           N06     Cn1   v112
        BYTE   W24
        BYTE                   En1   v102
        BYTE   W12
        BYTE                   Cn1   v112
        BYTE   W12
        BYTE                   Cn1
        BYTE   W12
        BYTE                   Cn1
        BYTE   W12
        BYTE                   En1   v102
        BYTE   W12
        BYTE                   Cn1   v112
        BYTE   W12
        BYTE   PEND
// 023   ----------------------------------------
so2battle_7_23:
        BYTE           N06     Cn1   v112
        BYTE           N06     Fs1   v056
        BYTE   W12
        BYTE                   Cn1   v112
        BYTE           N06     Fs1   v056
        BYTE   W12
        BYTE                   En1   v102
        BYTE           N12     As1   v064
        BYTE   W12
        BYTE           N06     Cn1   v112
        BYTE           N06     Fs1   v056
        BYTE   W06
        BYTE                   Fs1
        BYTE   W06
        BYTE                   Cn1   v112
        BYTE           N06     Fs1   v056
        BYTE   W12
        BYTE                   Cn1   v112
        BYTE           N06     Fs1   v056
        BYTE   W06
        BYTE                   Cn1   v112
        BYTE   W06
        BYTE                   En1   v102
        BYTE           N12     As1   v064
        BYTE   W12
        BYTE           N06     En1   v102
        BYTE           N06     Fs1   v056
        BYTE   W12
        BYTE   PEND
// 024   ----------------------------------------
so2battle_7_24:
        BYTE           N06     Cn1   v112
        BYTE           N06     Fs1   v056
        BYTE   W12
        BYTE                   Cn1   v112
        BYTE           N06     Fs1   v056
        BYTE   W12
        BYTE                   En1   v102
        BYTE           N12     As1   v064
        BYTE   W12
        BYTE           N06     Cn1   v112
        BYTE           N06     Fs1   v056
        BYTE   W06
        BYTE                   Fs1
        BYTE   W06
        BYTE                   Cn1   v112
        BYTE           N06     Fs1   v056
        BYTE   W12
        BYTE                   Cn1   v112
        BYTE           N06     Fs1   v056
        BYTE   W12
        BYTE                   En1   v102
        BYTE           N12     As1   v064
        BYTE   W12
        BYTE           N06     Cn1   v112
        BYTE           N06     Fs1   v056
        BYTE   W12
        BYTE   PEND
// 025   ----------------------------------------
so2battle_7_25:
        BYTE           N06     Cn1   v112
        BYTE           N06     Fs1   v056
        BYTE   W12
        BYTE                   Cn1   v112
        BYTE           N06     Fs1   v056
        BYTE   W12
        BYTE                   En1   v102
        BYTE           N12     As1   v064
        BYTE   W12
        BYTE           N06     Cn1   v112
        BYTE           N06     Fs1   v056
        BYTE   W06
        BYTE                   Fs1
        BYTE   W06
        BYTE                   Cn1   v112
        BYTE           N06     Fs1   v056
        BYTE   W12
        BYTE                   Cn1   v112
        BYTE           N06     Fs1   v056
        BYTE   W12
        BYTE                   En1   v102
        BYTE           N12     As1   v064
        BYTE   W12
        BYTE           N06     En1   v102
        BYTE           N06     Fs1   v056
        BYTE   W12
        BYTE   PEND
// 026   ----------------------------------------
        BYTE   PATT
         POIN2  so2battle_7_22
// 027   ----------------------------------------
        BYTE   PATT
         POIN2  so2battle_7_23
// 028   ----------------------------------------
        BYTE   PATT
         POIN2  so2battle_7_24
// 029   ----------------------------------------
        BYTE   PATT
         POIN2  so2battle_7_21
// 030   ----------------------------------------
so2battle_7_30:
        BYTE           N06     Cn1   v112
        BYTE   W12
        BYTE                   Cn1
        BYTE   W12
        BYTE                   En1   v102
        BYTE   W12
        BYTE                   Cn1   v112
        BYTE           N06     En1   v102
        BYTE   W06
        BYTE                   En1
        BYTE   W06
        BYTE                   Cn1   v112
        BYTE   W06
        BYTE                   En1   v102
        BYTE   W06
        BYTE                   Cn1   v112
        BYTE   W12
        BYTE                   En1   v102
        BYTE   W12
        BYTE                   En1
        BYTE   W06
        BYTE                   En1
        BYTE   W06
        BYTE   PEND
// 031   ----------------------------------------
        BYTE   PATT
         POIN2  so2battle_7_30
// 032   ----------------------------------------
so2battle_7_32:
        BYTE           N06     Cn1   v112
        BYTE           N06     Fs1   v056
        BYTE   W12
        BYTE                   Cn1   v112
        BYTE           N06     Fs1   v056
        BYTE   W12
        BYTE                   En1   v102
        BYTE           N12     As1   v064
        BYTE   W12
        BYTE           N06     Cn1   v112
        BYTE           N06     Fs1   v056
        BYTE   W06
        BYTE           N03     En1   v102
        BYTE           N06     Fs1   v056
        BYTE   W03
        BYTE           N03     En1   v102
        BYTE   W03
        BYTE           N06     Cn1   v112
        BYTE           N06     Fs1   v056
        BYTE   W06
        BYTE                   En1   v102
        BYTE   W06
        BYTE                   Cn1   v112
        BYTE           N06     Fs1   v056
        BYTE   W12
        BYTE                   En1   v102
        BYTE           N12     As1   v064
        BYTE   W12
        BYTE           N06     Cn1   v112
        BYTE           N06     Fs1   v056
        BYTE   W12
        BYTE   PEND
// 033   ----------------------------------------
        BYTE   PATT
         POIN2  so2battle_7_25
// 034   ----------------------------------------
        BYTE   PATT
         POIN2  so2battle_7_32
// 035   ----------------------------------------
        BYTE           N06     Cn1   v112
        BYTE           N06     Fs1   v056
        BYTE   W12
        BYTE                   Cn1   v112
        BYTE           N06     Fs1   v056
        BYTE   W12
        BYTE                   En1   v102
        BYTE           N06     Fs1   v056
        BYTE   W12
        BYTE                   Cn1   v112
        BYTE           N06     Fs1   v056
        BYTE   W06
        BYTE                   Fs1
        BYTE   W06
        BYTE                   En1   v102
        BYTE           N06     Fs1   v056
        BYTE   W12
        BYTE                   Cn1   v112
        BYTE           N06     Fs1   v056
        BYTE   W12
        BYTE                   En1   v102
        BYTE           N06     Fs1   v056
        BYTE   W12
        BYTE                   Cn1   v112
        BYTE           N06     Fs1   v056
        BYTE   W12
// 036   ----------------------------------------
        BYTE   PATT
         POIN2  so2battle_7_24
// 037   ----------------------------------------
        BYTE   PATT
         POIN2  so2battle_7_24
// 038   ----------------------------------------
        BYTE           N06     Cn1   v112
        BYTE           N06     Fs1   v056
        BYTE   W12
        BYTE                   Cn1   v112
        BYTE           N06     Fs1   v056
        BYTE   W12
        BYTE                   En1   v102
        BYTE           N12     As1   v064
        BYTE   W12
        BYTE           N06     Cn1   v112
        BYTE           N06     Fs1   v056
        BYTE   W06
        BYTE                   Fs1
        BYTE   W06
        BYTE                   En1   v102
        BYTE           N06     Fs1   v056
        BYTE   W12
        BYTE                   Cn1   v112
        BYTE           N06     Fs1   v056
        BYTE   W12
        BYTE                   En1   v102
        BYTE           N12     As1   v064
        BYTE   W12
        BYTE           N06     Cn1   v112
        BYTE           N06     Fs1   v056
        BYTE   W12
// 039   ----------------------------------------
        BYTE                   En1   v102
        BYTE   W12
        BYTE                   Cn1   v112
        BYTE   W12
        BYTE                   En1   v102
        BYTE   W12
        BYTE                   Cn1   v112
        BYTE   W12
        BYTE                   En1   v102
        BYTE   W12
        BYTE                   En1
        BYTE   W12
        BYTE                   En1
        BYTE   W12
        BYTE                   En1
        BYTE   W12
// 040   ----------------------------------------
so2battle_7_40:
        BYTE           N06     Cn1   v112
        BYTE           N06     Fs1   v056
        BYTE   W12
        BYTE                   Cn1   v112
        BYTE           N06     Fs1   v056
        BYTE   W12
        BYTE                   En1   v102
        BYTE           N06     Fs1   v056
        BYTE   W12
        BYTE                   Cn1   v112
        BYTE           N06     Fs1   v056
        BYTE   W06
        BYTE                   Cn1   v112
        BYTE   W06
        BYTE                   Cn1
        BYTE           N06     Fs1   v056
        BYTE   W12
        BYTE                   Cn1   v112
        BYTE           N06     Fs1   v056
        BYTE   W12
        BYTE                   En1   v102
        BYTE           N06     Fs1   v056
        BYTE   W12
        BYTE                   Cn1   v112
        BYTE           N06     Fs1   v056
        BYTE   W12
        BYTE   PEND
// 041   ----------------------------------------
so2battle_7_41:
        BYTE           N06     Cn1   v112
        BYTE           N06     Fs1   v056
        BYTE   W12
        BYTE                   Cn1   v112
        BYTE           N06     Fs1   v056
        BYTE   W12
        BYTE                   En1   v102
        BYTE           N06     Fs1   v056
        BYTE   W12
        BYTE                   Cn1   v112
        BYTE           N06     Fs1   v056
        BYTE   W06
        BYTE                   Cn1   v112
        BYTE   W06
        BYTE                   Cn1
        BYTE           N06     Fs1   v056
        BYTE   W12
        BYTE                   Cn1   v112
        BYTE           N06     Fs1   v056
        BYTE   W12
        BYTE                   En1   v102
        BYTE           N06     Fs1   v056
        BYTE   W12
        BYTE                   En1   v102
        BYTE           N06     Fs1   v056
        BYTE   W06
        BYTE                   En1   v102
        BYTE   W06
        BYTE   PEND
// 042   ----------------------------------------
        BYTE   PATT
         POIN2  so2battle_7_40
// 043   ----------------------------------------
        BYTE   PATT
         POIN2  so2battle_7_41
// 044   ----------------------------------------
        BYTE   PATT
         POIN2  so2battle_7_40
// 045   ----------------------------------------
        BYTE   PATT
         POIN2  so2battle_7_41
// 046   ----------------------------------------
        BYTE   PATT
         POIN2  so2battle_7_40
// 047   ----------------------------------------
        BYTE           N06     Cn1   v112
        BYTE           N06     Fs1   v056
        BYTE   W12
        BYTE                   Cn1   v112
        BYTE           N06     Fs1   v056
        BYTE   W12
        BYTE                   En1   v102
        BYTE           N06     Fs1   v056
        BYTE   W12
        BYTE                   Cn1   v112
        BYTE           N06     Fs1   v056
        BYTE   W12
        BYTE                   En1   v102
        BYTE           N06     Fs1   v056
        BYTE   W12
        BYTE                   Cn1   v112
        BYTE           N06     Fs1   v056
        BYTE   W12
        BYTE                   En1   v102
        BYTE           N06     Fs1   v056
        BYTE   W12
        BYTE                   En1   v102
        BYTE           N06     Fs1   v056
        BYTE   W12
// 048   ----------------------------------------
        BYTE   PATT
         POIN2  so2battle_7_41
// 049   ----------------------------------------
        BYTE           N06     Cn1   v112
        BYTE           N06     Fs1   v056
        BYTE   W12
        BYTE                   Cn1   v112
        BYTE           N06     Fs1   v056
        BYTE   W12
        BYTE                   En1   v102
        BYTE           N06     Fs1   v056
        BYTE   W12
        BYTE                   Cn1   v112
        BYTE           N06     Fs1   v056
        BYTE   W06
        BYTE                   Cn1   v112
        BYTE   W06
        BYTE                   Cn1
        BYTE           N06     Fs1   v056
        BYTE   W12
        BYTE                   Cn1   v112
        BYTE           N06     Fs1   v056
        BYTE   W12
        BYTE                   En1   v102
        BYTE           N06     Fs1   v056
        BYTE   W12
        BYTE                   En1   v102
        BYTE           N06     Fs1   v056
        BYTE   W12
// 050   ----------------------------------------
        BYTE   PATT
         POIN2  so2battle_7_40
// 051   ----------------------------------------
        BYTE           N06     Cn1   v112
        BYTE           N06     Fs1   v056
        BYTE   W12
        BYTE                   Cn1   v112
        BYTE           N06     Fs1   v056
        BYTE   W12
        BYTE                   En1   v102
        BYTE           N06     Fs1   v056
        BYTE   W12
        BYTE                   Cn1   v112
        BYTE           N06     Fs1   v056
        BYTE   W12
        BYTE                   En1   v102
        BYTE           N06     Fs1   v056
        BYTE   W12
        BYTE                   Cn1   v112
        BYTE           N06     Fs1   v056
        BYTE   W12
        BYTE                   En1   v102
        BYTE           N06     Fs1   v056
        BYTE   W12
        BYTE                   Cn1   v112
        BYTE           N06     Fs1   v056
        BYTE   W12
// 052   ----------------------------------------
        BYTE   PATT
         POIN2  so2battle_7_40
// 053   ----------------------------------------
        BYTE   PATT
         POIN2  so2battle_7_40
// 054   ----------------------------------------
        BYTE   PATT
         POIN2  so2battle_7_40
// 055   ----------------------------------------
        BYTE           N06     Cn1   v112
        BYTE           N06     Fs1   v056
        BYTE   W12
        BYTE                   Cn1   v112
        BYTE           N06     Fs1   v056
        BYTE   W12
        BYTE                   En1   v102
        BYTE           N06     Fs1   v056
        BYTE   W12
        BYTE                   Cn1   v112
        BYTE           N06     Fs1   v056
        BYTE   W12
        BYTE                   En1   v102
        BYTE           N06     Fs1   v056
        BYTE   W12
        BYTE                   En1   v102
        BYTE           N06     Fs1   v056
        BYTE   W12
        BYTE                   En1   v102
        BYTE           N06     Fs1   v056
        BYTE   W12
        BYTE                   En1   v102
        BYTE           N06     Fs1   v056
        BYTE   W12
// 056   ----------------------------------------
        BYTE   GoTo
         POIN2  so2battle_7_LOOP
        BYTE   FINE


//********************** End of Song ***********************//

        ALIGN 4
so2battle:
        BYTE   8                       // Num Tracks
        BYTE   0                       // Unknown
        BYTE   so2battle_pri           // Priority
        BYTE   so2battle_rev           // Reverb

        POIN2   so2battle_grp          

        POIN2   so2battle_0
        POIN2   so2battle_1
        POIN2   so2battle_2
        POIN2   so2battle_3
        POIN2   so2battle_4
        POIN2   so2battle_5
        POIN2   so2battle_6
        POIN2   so2battle_7

        
