//Event file generated from Sappy .s format.
        #include "MPlayDef.event"

        #define    tf3hungermadethemdesperate_grp  MusicVoices
        #define    tf3hungermadethemdesperate_pri  0
        #define    tf3hungermadethemdesperate_rev  0x80
        #define    tf3hungermadethemdesperate_key  0

        // .rodata
        // tf3hungermadethemdesperate
        ALIGN 4

//****************** Track 0 (Midi-Chn.0) ******************//

tf3hungermadethemdesperate_0:
        BYTE   KEYSH   tf3hungermadethemdesperate_key+0
// 000   ----------------------------------------
        BYTE   TEMPO   178/2
        BYTE           VOICE   39
        BYTE           VOL     44
        BYTE           BENDR   12
        BYTE   W72
        BYTE           N24     Fs2   v124
        BYTE           BEND    c_v-2
        BYTE   W01
        BYTE                   c_v-4
        BYTE   W01
        BYTE                   c_v-8
        BYTE   W01
        BYTE                   c_v-10
        BYTE   W01
        BYTE                   c_v-12
        BYTE   W01
        BYTE                   c_v-16
        BYTE   W01
        BYTE                   c_v-18
        BYTE   W01
        BYTE                   c_v-20
        BYTE   W01
        BYTE                   c_v-24
        BYTE   W01
        BYTE                   c_v-26
        BYTE   W01
        BYTE                   c_v-28
        BYTE   W01
        BYTE                   c_v-30
        BYTE   W01
        BYTE                   c_v-34
        BYTE   W01
        BYTE                   c_v-36
        BYTE   W01
        BYTE                   c_v-38
        BYTE   W01
        BYTE                   c_v-42
        BYTE   W01
        BYTE                   c_v-44
        BYTE   W01
        BYTE                   c_v-46
        BYTE   W01
        BYTE                   c_v-50
        BYTE   W01
        BYTE                   c_v-52
        BYTE   W01
        BYTE                   c_v-54
        BYTE   W01
        BYTE                   c_v-58
        BYTE   W01
        BYTE                   c_v-60
        BYTE   W01
        BYTE                   c_v-63
        BYTE   W01
// 001   ----------------------------------------
tf3hungermadethemdesperate_0_LOOP:
        BYTE           N09     Fs1   v124
        BYTE           BEND    c_v+0
        BYTE   W12
        BYTE           N04     Fs2
        BYTE   W06
        BYTE                   Fs2
        BYTE   W06
        BYTE           N09     Fs1
        BYTE   W12
        BYTE           N04     Fs2
        BYTE   W06
        BYTE                   Fs2
        BYTE   W06
        BYTE           N09     Fs1
        BYTE   W12
        BYTE           N04     Fs2
        BYTE   W06
        BYTE                   Fs2
        BYTE   W06
        BYTE           N09     Fs1
        BYTE   W12
        BYTE           N04     Fs2
        BYTE   W06
        BYTE                   Fs2
        BYTE   W06
// 002   ----------------------------------------
tf3hungermadethemdesperate_0_2:
        BYTE           N09     Fs1   v124
        BYTE   W12
        BYTE           N04     Fs2
        BYTE   W06
        BYTE                   Fs2
        BYTE   W06
        BYTE           N09     Fs1
        BYTE   W12
        BYTE           N04     Fs2
        BYTE   W06
        BYTE                   Fs2
        BYTE   W06
        BYTE           N09     Fs1
        BYTE   W12
        BYTE           N04     Fs2
        BYTE   W06
        BYTE                   Fs2
        BYTE   W06
        BYTE           N09     Fs1
        BYTE   W12
        BYTE           N04     Fs2
        BYTE   W06
        BYTE                   Fs2
        BYTE   W06
        BYTE   PEND
// 003   ----------------------------------------
tf3hungermadethemdesperate_0_3:
        BYTE           N09     Cs1   v124
        BYTE   W12
        BYTE           N04     Cs2
        BYTE   W06
        BYTE                   Cs2
        BYTE   W06
        BYTE           N09     Cs1
        BYTE   W12
        BYTE           N04     Cs2
        BYTE   W06
        BYTE                   Cs2
        BYTE   W06
        BYTE           N09     Cs1
        BYTE   W12
        BYTE           N04     Cs2
        BYTE   W06
        BYTE                   Cs2
        BYTE   W06
        BYTE           N09     Cs1
        BYTE   W12
        BYTE           N04     Cs2
        BYTE   W06
        BYTE                   Cs2
        BYTE   W06
        BYTE   PEND
// 004   ----------------------------------------
        BYTE   PATT
         POIN2  tf3hungermadethemdesperate_0_3
// 005   ----------------------------------------
        BYTE   PATT
         POIN2  tf3hungermadethemdesperate_0_2
// 006   ----------------------------------------
        BYTE   PATT
         POIN2  tf3hungermadethemdesperate_0_2
// 007   ----------------------------------------
        BYTE   PATT
         POIN2  tf3hungermadethemdesperate_0_3
// 008   ----------------------------------------
tf3hungermadethemdesperate_0_8:
        BYTE           N09     Cs2   v124
        BYTE   W12
        BYTE           N04     Cs3
        BYTE   W06
        BYTE                   Cs3
        BYTE   W06
        BYTE           N09     Bn1
        BYTE   W12
        BYTE           N04     Bn2
        BYTE   W06
        BYTE                   Bn2
        BYTE   W06
        BYTE           N09     An1
        BYTE   W12
        BYTE           N04     An2
        BYTE   W06
        BYTE                   An2
        BYTE   W06
        BYTE           N09     Gs2
        BYTE   W12
        BYTE                   En2
        BYTE   W12
        BYTE   PEND
// 009   ----------------------------------------
        BYTE   PATT
         POIN2  tf3hungermadethemdesperate_0_2
// 010   ----------------------------------------
        BYTE   PATT
         POIN2  tf3hungermadethemdesperate_0_2
// 011   ----------------------------------------
        BYTE   PATT
         POIN2  tf3hungermadethemdesperate_0_3
// 012   ----------------------------------------
        BYTE   PATT
         POIN2  tf3hungermadethemdesperate_0_3
// 013   ----------------------------------------
        BYTE   PATT
         POIN2  tf3hungermadethemdesperate_0_2
// 014   ----------------------------------------
        BYTE   PATT
         POIN2  tf3hungermadethemdesperate_0_2
// 015   ----------------------------------------
        BYTE   PATT
         POIN2  tf3hungermadethemdesperate_0_3
// 016   ----------------------------------------
        BYTE   PATT
         POIN2  tf3hungermadethemdesperate_0_8
// 017   ----------------------------------------
        BYTE   PATT
         POIN2  tf3hungermadethemdesperate_0_2
// 018   ----------------------------------------
        BYTE   PATT
         POIN2  tf3hungermadethemdesperate_0_2
// 019   ----------------------------------------
tf3hungermadethemdesperate_0_19:
        BYTE           N09     En1   v124
        BYTE   W12
        BYTE           N04     En2
        BYTE   W06
        BYTE                   En2
        BYTE   W06
        BYTE           N09     En1
        BYTE   W12
        BYTE           N04     En2
        BYTE   W06
        BYTE                   En2
        BYTE   W06
        BYTE           N09     En1
        BYTE   W12
        BYTE           N04     En2
        BYTE   W06
        BYTE                   En2
        BYTE   W06
        BYTE           N09     En1
        BYTE   W12
        BYTE           N04     En2
        BYTE   W06
        BYTE                   En2
        BYTE   W06
        BYTE   PEND
// 020   ----------------------------------------
        BYTE   PATT
         POIN2  tf3hungermadethemdesperate_0_3
// 021   ----------------------------------------
        BYTE   PATT
         POIN2  tf3hungermadethemdesperate_0_2
// 022   ----------------------------------------
        BYTE   PATT
         POIN2  tf3hungermadethemdesperate_0_2
// 023   ----------------------------------------
        BYTE   PATT
         POIN2  tf3hungermadethemdesperate_0_19
// 024   ----------------------------------------
        BYTE   PATT
         POIN2  tf3hungermadethemdesperate_0_3
// 025   ----------------------------------------
        BYTE   PATT
         POIN2  tf3hungermadethemdesperate_0_2
// 026   ----------------------------------------
        BYTE   PATT
         POIN2  tf3hungermadethemdesperate_0_2
// 027   ----------------------------------------
        BYTE   PATT
         POIN2  tf3hungermadethemdesperate_0_19
// 028   ----------------------------------------
        BYTE   PATT
         POIN2  tf3hungermadethemdesperate_0_3
// 029   ----------------------------------------
        BYTE   PATT
         POIN2  tf3hungermadethemdesperate_0_2
// 030   ----------------------------------------
        BYTE   PATT
         POIN2  tf3hungermadethemdesperate_0_2
// 031   ----------------------------------------
        BYTE   PATT
         POIN2  tf3hungermadethemdesperate_0_19
// 032   ----------------------------------------
        BYTE   PATT
         POIN2  tf3hungermadethemdesperate_0_3
// 033   ----------------------------------------
tf3hungermadethemdesperate_0_33:
        BYTE           N09     Dn1   v124
        BYTE   W12
        BYTE           N04     Dn2
        BYTE   W06
        BYTE                   Dn2
        BYTE   W06
        BYTE           N09     Dn1
        BYTE   W12
        BYTE           N04     Dn2
        BYTE   W06
        BYTE                   Dn2
        BYTE   W06
        BYTE           N09     Dn1
        BYTE   W12
        BYTE           N04     Dn2
        BYTE   W06
        BYTE                   Dn2
        BYTE   W06
        BYTE           N09     Dn1
        BYTE   W12
        BYTE           N04     Dn2
        BYTE   W06
        BYTE                   Dn2
        BYTE   W06
        BYTE   PEND
// 034   ----------------------------------------
        BYTE   PATT
         POIN2  tf3hungermadethemdesperate_0_33
// 035   ----------------------------------------
        BYTE   PATT
         POIN2  tf3hungermadethemdesperate_0_33
// 036   ----------------------------------------
        BYTE   PATT
         POIN2  tf3hungermadethemdesperate_0_33
// 037   ----------------------------------------
        BYTE   PATT
         POIN2  tf3hungermadethemdesperate_0_2
// 038   ----------------------------------------
        BYTE   PATT
         POIN2  tf3hungermadethemdesperate_0_2
// 039   ----------------------------------------
        BYTE   PATT
         POIN2  tf3hungermadethemdesperate_0_2
// 040   ----------------------------------------
        BYTE   PATT
         POIN2  tf3hungermadethemdesperate_0_2
// 041   ----------------------------------------
        BYTE   PATT
         POIN2  tf3hungermadethemdesperate_0_33
// 042   ----------------------------------------
        BYTE   PATT
         POIN2  tf3hungermadethemdesperate_0_33
// 043   ----------------------------------------
        BYTE   PATT
         POIN2  tf3hungermadethemdesperate_0_33
// 044   ----------------------------------------
        BYTE   PATT
         POIN2  tf3hungermadethemdesperate_0_33
// 045   ----------------------------------------
        BYTE   PATT
         POIN2  tf3hungermadethemdesperate_0_2
// 046   ----------------------------------------
        BYTE   PATT
         POIN2  tf3hungermadethemdesperate_0_2
// 047   ----------------------------------------
        BYTE   PATT
         POIN2  tf3hungermadethemdesperate_0_2
// 048   ----------------------------------------
        BYTE   PATT
         POIN2  tf3hungermadethemdesperate_0_2
// 049   ----------------------------------------
        BYTE   PATT
         POIN2  tf3hungermadethemdesperate_0_33
// 050   ----------------------------------------
        BYTE   PATT
         POIN2  tf3hungermadethemdesperate_0_33
// 051   ----------------------------------------
        BYTE   PATT
         POIN2  tf3hungermadethemdesperate_0_33
// 052   ----------------------------------------
        BYTE   PATT
         POIN2  tf3hungermadethemdesperate_0_33
// 053   ----------------------------------------
        BYTE   PATT
         POIN2  tf3hungermadethemdesperate_0_2
// 054   ----------------------------------------
        BYTE   PATT
         POIN2  tf3hungermadethemdesperate_0_2
// 055   ----------------------------------------
        BYTE   PATT
         POIN2  tf3hungermadethemdesperate_0_2
// 056   ----------------------------------------
        BYTE   PATT
         POIN2  tf3hungermadethemdesperate_0_2
// 057   ----------------------------------------
        BYTE   PATT
         POIN2  tf3hungermadethemdesperate_0_33
// 058   ----------------------------------------
        BYTE   PATT
         POIN2  tf3hungermadethemdesperate_0_33
// 059   ----------------------------------------
        BYTE   PATT
         POIN2  tf3hungermadethemdesperate_0_33
// 060   ----------------------------------------
        BYTE   PATT
         POIN2  tf3hungermadethemdesperate_0_33
// 061   ----------------------------------------
        BYTE   PATT
         POIN2  tf3hungermadethemdesperate_0_2
// 062   ----------------------------------------
        BYTE   PATT
         POIN2  tf3hungermadethemdesperate_0_2
// 063   ----------------------------------------
        BYTE   PATT
         POIN2  tf3hungermadethemdesperate_0_2
// 064   ----------------------------------------
        BYTE   PATT
         POIN2  tf3hungermadethemdesperate_0_2
// 065   ----------------------------------------
        BYTE   PATT
         POIN2  tf3hungermadethemdesperate_0_2
// 066   ----------------------------------------
        BYTE   PATT
         POIN2  tf3hungermadethemdesperate_0_2
// 067   ----------------------------------------
        BYTE   PATT
         POIN2  tf3hungermadethemdesperate_0_2
// 068   ----------------------------------------
        BYTE   PATT
         POIN2  tf3hungermadethemdesperate_0_2
// 069   ----------------------------------------
        BYTE   PATT
         POIN2  tf3hungermadethemdesperate_0_2
// 070   ----------------------------------------
        BYTE   PATT
         POIN2  tf3hungermadethemdesperate_0_2
// 071   ----------------------------------------
        BYTE   PATT
         POIN2  tf3hungermadethemdesperate_0_2
// 072   ----------------------------------------
        BYTE   PATT
         POIN2  tf3hungermadethemdesperate_0_2
// 073   ----------------------------------------
        BYTE   PATT
         POIN2  tf3hungermadethemdesperate_0_2
// 074   ----------------------------------------
        BYTE   PATT
         POIN2  tf3hungermadethemdesperate_0_2
// 075   ----------------------------------------
        BYTE   PATT
         POIN2  tf3hungermadethemdesperate_0_2
// 076   ----------------------------------------
        BYTE   PATT
         POIN2  tf3hungermadethemdesperate_0_2
// 077   ----------------------------------------
        BYTE   PATT
         POIN2  tf3hungermadethemdesperate_0_2
// 078   ----------------------------------------
        BYTE   PATT
         POIN2  tf3hungermadethemdesperate_0_2
// 079   ----------------------------------------
        BYTE   PATT
         POIN2  tf3hungermadethemdesperate_0_2
// 080   ----------------------------------------
        BYTE           N09     En1   v124
        BYTE   W12
        BYTE           N04     En2
        BYTE   W06
        BYTE                   En2
        BYTE   W06
        BYTE           N09     Fs1
        BYTE   W12
        BYTE           N04     Fs2
        BYTE   W06
        BYTE                   Fs2
        BYTE   W06
        BYTE           N09     Gs1
        BYTE   W12
        BYTE           N04     Gs2
        BYTE   W06
        BYTE                   Gs2
        BYTE   W06
        BYTE           N09     An1
        BYTE   W12
        BYTE           N04     An2
        BYTE   W06
        BYTE                   An2
        BYTE   W06
// 081   ----------------------------------------
        BYTE   GoTo
         POIN2  tf3hungermadethemdesperate_0_LOOP
        BYTE   FINE

//****************** Track 1 (Midi-Chn.1) ******************//

tf3hungermadethemdesperate_1:
        BYTE   KEYSH   tf3hungermadethemdesperate_key+0
// 000   ----------------------------------------
        BYTE           VOICE   81
        BYTE           0xCD   0x08 0x40
        BYTE           0xCD   0x09 0x10
        BYTE           VOL     34
        BYTE           PAN     c_v+8
        BYTE           BENDR   16
        BYTE           N48     Dn4   v116
        BYTE           N48     Fs4
        BYTE   W48
        BYTE                   En4
        BYTE           N48     Gs4
        BYTE   W48
// 001   ----------------------------------------
tf3hungermadethemdesperate_1_LOOP:
        BYTE           N96     Fs4   v116
        BYTE           N96     An4
        BYTE   W96
// 002   ----------------------------------------
tf3hungermadethemdesperate_1_2:
        BYTE           N36     Gs4   v116
        BYTE           N36     Bn4
        BYTE   W36
        BYTE                   Fs4
        BYTE           N36     An4
        BYTE   W36
        BYTE           N24     En4
        BYTE           N24     Gs4
        BYTE   W24
        BYTE   PEND
// 003   ----------------------------------------
tf3hungermadethemdesperate_1_3:
        BYTE           N96     Cs4   v116
        BYTE           N96     En4
        BYTE   W96
        BYTE   PEND
// 004   ----------------------------------------
tf3hungermadethemdesperate_1_4:
        BYTE           N96     An3   v116
        BYTE           N96     Cs4
        BYTE   W96
        BYTE   PEND
// 005   ----------------------------------------
tf3hungermadethemdesperate_1_5:
        BYTE           N96     Fs4   v116
        BYTE           N96     An4
        BYTE   W96
        BYTE   PEND
// 006   ----------------------------------------
        BYTE   PATT
         POIN2  tf3hungermadethemdesperate_1_2
// 007   ----------------------------------------
        BYTE           N36     Cs4   v116
        BYTE           N36     En4
        BYTE   W36
        BYTE                   Gs4
        BYTE           N36     Bn4
        BYTE   W36
        BYTE           N24     Fs4
        BYTE           N24     An4
        BYTE   W24
// 008   ----------------------------------------
tf3hungermadethemdesperate_1_8:
        BYTE           N24     An4   v116
        BYTE           N24     Cs5
        BYTE   W24
        BYTE                   Gs4
        BYTE           N24     Bn4
        BYTE   W24
        BYTE                   Fs4
        BYTE           N24     An4
        BYTE   W24
        BYTE                   En4
        BYTE           N24     Gs4
        BYTE   W24
        BYTE   PEND
// 009   ----------------------------------------
        BYTE   PATT
         POIN2  tf3hungermadethemdesperate_1_5
// 010   ----------------------------------------
        BYTE   PATT
         POIN2  tf3hungermadethemdesperate_1_2
// 011   ----------------------------------------
        BYTE   PATT
         POIN2  tf3hungermadethemdesperate_1_3
// 012   ----------------------------------------
        BYTE   PATT
         POIN2  tf3hungermadethemdesperate_1_4
// 013   ----------------------------------------
        BYTE   PATT
         POIN2  tf3hungermadethemdesperate_1_5
// 014   ----------------------------------------
        BYTE   PATT
         POIN2  tf3hungermadethemdesperate_1_2
// 015   ----------------------------------------
        BYTE           N36     Cs4   v116
        BYTE           N36     En4
        BYTE   W36
        BYTE                   Fs4
        BYTE           N36     An4
        BYTE   W36
        BYTE           N24     Gs4
        BYTE           N24     Bn4
        BYTE   W24
// 016   ----------------------------------------
        BYTE           N48     An4
        BYTE           N48     Cs5
        BYTE   W48
        BYTE           N24     Gs4
        BYTE           N24     Bn4
        BYTE   W24
        BYTE                   En4
        BYTE           N24     Gs4
        BYTE   W24
// 017   ----------------------------------------
tf3hungermadethemdesperate_1_17:
        BYTE           N12     Fs4   v116
        BYTE           N12     An4
        BYTE   W12
        BYTE                   En4
        BYTE           N12     Gs4
        BYTE   W12
        BYTE           N36     Fs4
        BYTE           N36     An4
        BYTE   W36
        BYTE           N12     Gs4
        BYTE           N12     Bn4
        BYTE   W12
        BYTE                   Fs4
        BYTE           N12     An4
        BYTE   W12
        BYTE                   En4
        BYTE           N12     Gs4
        BYTE   W12
        BYTE   PEND
// 018   ----------------------------------------
tf3hungermadethemdesperate_1_18:
        BYTE           N60     Cs4   v116
        BYTE           N60     En4
        BYTE   W60
        BYTE           N12     Cs4
        BYTE           N12     En4
        BYTE   W12
        BYTE                   Dn4
        BYTE           N12     Fs4
        BYTE   W12
        BYTE                   En4
        BYTE           N12     Gs4
        BYTE   W12
        BYTE   PEND
// 019   ----------------------------------------
tf3hungermadethemdesperate_1_19:
        BYTE           N24     Fs4   v116
        BYTE           N24     An4
        BYTE   W24
        BYTE           N12     En4
        BYTE           N12     Gs4
        BYTE   W12
        BYTE           N24     Fs4
        BYTE           N24     An4
        BYTE   W24
        BYTE           N36     Gs4
        BYTE           N36     Bn4
        BYTE   W36
        BYTE   PEND
// 020   ----------------------------------------
tf3hungermadethemdesperate_1_20:
        BYTE           N24     An4   v116
        BYTE           N24     Cs5
        BYTE   W24
        BYTE           N12     Gs4
        BYTE           N12     Bn4
        BYTE   W12
        BYTE           N36     Fs4
        BYTE           N36     An4
        BYTE   W36
        BYTE           N24     En4
        BYTE           N24     Gs4
        BYTE   W24
        BYTE   PEND
// 021   ----------------------------------------
        BYTE   PATT
         POIN2  tf3hungermadethemdesperate_1_17
// 022   ----------------------------------------
        BYTE   PATT
         POIN2  tf3hungermadethemdesperate_1_18
// 023   ----------------------------------------
        BYTE   PATT
         POIN2  tf3hungermadethemdesperate_1_8
// 024   ----------------------------------------
        BYTE           N24     Fs4   v116
        BYTE           N24     An4
        BYTE   W24
        BYTE           N12     En4
        BYTE           N12     Gs4
        BYTE   W12
        BYTE           N36     Dn4
        BYTE           N36     Fs4
        BYTE   W36
        BYTE           N24     En4
        BYTE           N24     Gs4
        BYTE   W24
// 025   ----------------------------------------
        BYTE   PATT
         POIN2  tf3hungermadethemdesperate_1_17
// 026   ----------------------------------------
        BYTE   PATT
         POIN2  tf3hungermadethemdesperate_1_18
// 027   ----------------------------------------
        BYTE   PATT
         POIN2  tf3hungermadethemdesperate_1_19
// 028   ----------------------------------------
        BYTE   PATT
         POIN2  tf3hungermadethemdesperate_1_20
// 029   ----------------------------------------
        BYTE   PATT
         POIN2  tf3hungermadethemdesperate_1_17
// 030   ----------------------------------------
        BYTE   PATT
         POIN2  tf3hungermadethemdesperate_1_18
// 031   ----------------------------------------
        BYTE   PATT
         POIN2  tf3hungermadethemdesperate_1_8
// 032   ----------------------------------------
        BYTE           N24     Fs4   v116
        BYTE           N24     An4
        BYTE   W24
        BYTE           N12     En4
        BYTE           N12     Gs4
        BYTE   W12
        BYTE           N36     Dn4
        BYTE           N36     Fs4
        BYTE   W36
        BYTE           N24     Cs4
        BYTE           N24     En4
        BYTE   W24
// 033   ----------------------------------------
tf3hungermadethemdesperate_1_33:
        BYTE           N36     Dn4   v116
        BYTE           N36     Fs4
        BYTE   W36
        BYTE                   An4
        BYTE           N36     Fs4
        BYTE   W36
        BYTE           N24     An4
        BYTE           N24     Cs5
        BYTE   W24
        BYTE   PEND
// 034   ----------------------------------------
tf3hungermadethemdesperate_1_34:
        BYTE           N36     Cs5   v116
        BYTE           N36     En5
        BYTE   W36
        BYTE                   Bn4
        BYTE           N36     Dn5
        BYTE   W36
        BYTE           N24     Gs4
        BYTE           N24     Bn4
        BYTE   W24
        BYTE   PEND
// 035   ----------------------------------------
tf3hungermadethemdesperate_1_35:
        BYTE           N96     An4   v116
        BYTE           N96     Cs5
        BYTE   W96
        BYTE   PEND
// 036   ----------------------------------------
tf3hungermadethemdesperate_1_36:
        BYTE           N48     Gs4   v116
        BYTE           N48     Bn4
        BYTE   W48
        BYTE                   En4
        BYTE           N48     Gs4
        BYTE   W48
        BYTE   PEND
// 037   ----------------------------------------
tf3hungermadethemdesperate_1_37:
        BYTE           N12     Fs4   v116
        BYTE           N12     An4
        BYTE   W12
        BYTE           N24     En4
        BYTE           N24     Gs4
        BYTE   W24
        BYTE                   Fs4
        BYTE           N24     Dn4
        BYTE   W24
        BYTE           N36     En4
        BYTE           N36     Gs4
        BYTE   W36
        BYTE   PEND
// 038   ----------------------------------------
tf3hungermadethemdesperate_1_38:
        BYTE           N36     Fs4   v116
        BYTE           N36     An4
        BYTE   W36
        BYTE           N60     Gs4
        BYTE           N60     Bn4
        BYTE   W60
        BYTE   PEND
// 039   ----------------------------------------
tf3hungermadethemdesperate_1_39:
        BYTE           N12     Fs4   v116
        BYTE           N12     An4
        BYTE   W12
        BYTE           N24     En4
        BYTE           N24     Gs4
        BYTE   W24
        BYTE                   Dn4
        BYTE           N24     Fs4
        BYTE   W24
        BYTE           N36     Cs4
        BYTE           N36     En4
        BYTE   W36
        BYTE   PEND
// 040   ----------------------------------------
        BYTE                   Bn3
        BYTE           N36     Dn4
        BYTE   W36
        BYTE           N60     An3
        BYTE           N60     Cs4
        BYTE   W60
// 041   ----------------------------------------
        BYTE   PATT
         POIN2  tf3hungermadethemdesperate_1_33
// 042   ----------------------------------------
        BYTE   PATT
         POIN2  tf3hungermadethemdesperate_1_34
// 043   ----------------------------------------
        BYTE   PATT
         POIN2  tf3hungermadethemdesperate_1_35
// 044   ----------------------------------------
        BYTE   PATT
         POIN2  tf3hungermadethemdesperate_1_36
// 045   ----------------------------------------
        BYTE   PATT
         POIN2  tf3hungermadethemdesperate_1_37
// 046   ----------------------------------------
        BYTE   PATT
         POIN2  tf3hungermadethemdesperate_1_38
// 047   ----------------------------------------
        BYTE   PATT
         POIN2  tf3hungermadethemdesperate_1_39
// 048   ----------------------------------------
        BYTE           N36     Bn4   v116
        BYTE           N36     Dn5
        BYTE           BEND    c_v-38
        BYTE   W01
        BYTE                   c_v-34
        BYTE   W01
        BYTE                   c_v-32
        BYTE   W01
        BYTE                   c_v-28
        BYTE   W01
        BYTE                   c_v-24
        BYTE   W01
        BYTE                   c_v-22
        BYTE   W01
        BYTE                   c_v-18
        BYTE   W01
        BYTE                   c_v-14
        BYTE   W01
        BYTE                   c_v-12
        BYTE   W01
        BYTE                   c_v-8
        BYTE   W01
        BYTE                   c_v-4
        BYTE   W01
        BYTE                   c_v-2
        BYTE   W01
        BYTE                   c_v+0
        BYTE   W24
        BYTE           N60     An4
        BYTE           N60     Cs5
        BYTE   W60
// 049   ----------------------------------------
tf3hungermadethemdesperate_1_49:
        BYTE           TIE     Bn4   v116
        BYTE           TIE     Dn5
        BYTE   W96
        BYTE   PEND
// 050   ----------------------------------------
tf3hungermadethemdesperate_1_50:
        BYTE   W12
        BYTE           EOT     Dn5
        BYTE                   Bn4
        BYTE           N12     Bn4   v116
        BYTE           N12     Dn5
        BYTE   W12
        BYTE                   Cs5
        BYTE           N12     En5
        BYTE   W12
        BYTE                   Bn4
        BYTE           N12     Dn5
        BYTE   W12
        BYTE                   An4
        BYTE           N12     Cs5
        BYTE   W12
        BYTE                   Gs4
        BYTE           N12     Bn4
        BYTE   W12
        BYTE                   Fs4
        BYTE           N12     An4
        BYTE   W12
        BYTE                   En4
        BYTE           N12     Gs4
        BYTE   W12
        BYTE   PEND
// 051   ----------------------------------------
tf3hungermadethemdesperate_1_51:
        BYTE           N36     Gs4   v116
        BYTE           N36     Bn4
        BYTE   W36
        BYTE           TIE     An4
        BYTE           TIE     Cs5
        BYTE   W60
        BYTE   PEND
// 052   ----------------------------------------
        BYTE   W96
// 053   ----------------------------------------
tf3hungermadethemdesperate_1_53:
        BYTE           EOT     Cs5
        BYTE                   An4
        BYTE           TIE     Gs4   v116
        BYTE           TIE     Bn4
        BYTE   W96
        BYTE   PEND
// 054   ----------------------------------------
tf3hungermadethemdesperate_1_54:
        BYTE   W12
        BYTE           EOT     Bn4
        BYTE                   Gs4
        BYTE           N12     Gs4   v116
        BYTE           N12     Bn4
        BYTE   W12
        BYTE                   An4
        BYTE           N12     Cs5
        BYTE   W12
        BYTE                   Bn4
        BYTE           N12     Dn5
        BYTE   W12
        BYTE                   An4
        BYTE           N12     Cs5
        BYTE   W12
        BYTE           N24     Gs4
        BYTE           N24     Bn4
        BYTE   W24
        BYTE           N12     Fs4
        BYTE           N12     An4
        BYTE   W12
        BYTE   PEND
// 055   ----------------------------------------
        BYTE           N36     Gs4
        BYTE           N36     Bn4
        BYTE   W36
        BYTE           TIE     Fs4
        BYTE           TIE     An4
        BYTE   W60
// 056   ----------------------------------------
        BYTE   W92
        BYTE   W03
        BYTE           EOT
        BYTE           EOT     Fs4
        BYTE   W01
// 057   ----------------------------------------
        BYTE   PATT
         POIN2  tf3hungermadethemdesperate_1_49
// 058   ----------------------------------------
        BYTE   PATT
         POIN2  tf3hungermadethemdesperate_1_50
// 059   ----------------------------------------
        BYTE   PATT
         POIN2  tf3hungermadethemdesperate_1_51
// 060   ----------------------------------------
        BYTE   W96
// 061   ----------------------------------------
        BYTE   PATT
         POIN2  tf3hungermadethemdesperate_1_53
// 062   ----------------------------------------
        BYTE   PATT
         POIN2  tf3hungermadethemdesperate_1_54
// 063   ----------------------------------------
        BYTE           N36     Gs4   v116
        BYTE           N36     Bn4
        BYTE   W36
        BYTE           N56     Fs4   v116   gtp3
        BYTE                   An4
        BYTE   W60
// 064   ----------------------------------------
        BYTE           N36     En4
        BYTE           N36     Gs4
        BYTE   W36
        BYTE           N60     Dn4
        BYTE           N60     Fs4
        BYTE   W60
// 065   ----------------------------------------
tf3hungermadethemdesperate_1_65:
        BYTE           N12     Dn4   v116
        BYTE           N12     Fs4
        BYTE   W12
        BYTE           N24     Cs4
        BYTE           N24     En4
        BYTE   W24
        BYTE           N12     Dn4
        BYTE           N12     Fs4
        BYTE   W12
        BYTE           N48     Gs4
        BYTE           N48     En4
        BYTE   W48
        BYTE   PEND
// 066   ----------------------------------------
tf3hungermadethemdesperate_1_66:
        BYTE           N12     Fs4   v116
        BYTE           N12     An4
        BYTE   W12
        BYTE           N24     Gs4
        BYTE           N24     Bn4
        BYTE   W24
        BYTE           N12     An4
        BYTE           N12     Cs5
        BYTE   W12
        BYTE                   Bn4
        BYTE           N12     Gs4
        BYTE   W12
        BYTE           N24     Fs4
        BYTE           N24     An4
        BYTE   W24
        BYTE           N12     En4
        BYTE           N12     Gs4
        BYTE   W12
        BYTE   PEND
// 067   ----------------------------------------
        BYTE   PATT
         POIN2  tf3hungermadethemdesperate_1_65
// 068   ----------------------------------------
tf3hungermadethemdesperate_1_68:
        BYTE           N48     Fs4   v116
        BYTE           N48     An4
        BYTE   W48
        BYTE                   Gs4
        BYTE           N48     Bn4
        BYTE   W48
        BYTE   PEND
// 069   ----------------------------------------
        BYTE   PATT
         POIN2  tf3hungermadethemdesperate_1_65
// 070   ----------------------------------------
        BYTE   PATT
         POIN2  tf3hungermadethemdesperate_1_66
// 071   ----------------------------------------
        BYTE   PATT
         POIN2  tf3hungermadethemdesperate_1_65
// 072   ----------------------------------------
        BYTE           N36     Fs4   v116
        BYTE           N36     An4
        BYTE   W36
        BYTE                   Gs4
        BYTE           N36     Bn4
        BYTE   W36
        BYTE           N24     An4
        BYTE           N24     Cs5
        BYTE   W24
// 073   ----------------------------------------
        BYTE   PATT
         POIN2  tf3hungermadethemdesperate_1_65
// 074   ----------------------------------------
        BYTE   PATT
         POIN2  tf3hungermadethemdesperate_1_66
// 075   ----------------------------------------
        BYTE   PATT
         POIN2  tf3hungermadethemdesperate_1_65
// 076   ----------------------------------------
        BYTE   PATT
         POIN2  tf3hungermadethemdesperate_1_68
// 077   ----------------------------------------
        BYTE   PATT
         POIN2  tf3hungermadethemdesperate_1_65
// 078   ----------------------------------------
        BYTE   PATT
         POIN2  tf3hungermadethemdesperate_1_66
// 079   ----------------------------------------
        BYTE   PATT
         POIN2  tf3hungermadethemdesperate_1_65
// 080   ----------------------------------------
        BYTE           N36     Dn4   v116
        BYTE           N36     Fs4
        BYTE   W36
        BYTE                   En4
        BYTE           N36     Gs4
        BYTE   W36
        BYTE           N24     Fs4
        BYTE           N24     An4
        BYTE   W24
// 081   ----------------------------------------
        BYTE   GoTo
         POIN2  tf3hungermadethemdesperate_1_LOOP
        BYTE   FINE

//****************** Track 2 (Midi-Chn.2) ******************//

tf3hungermadethemdesperate_2:
        BYTE   KEYSH   tf3hungermadethemdesperate_key+0
// 000   ----------------------------------------
        BYTE           VOICE   80
        BYTE           PAN     c_v+42
        BYTE           BEND    c_v-4
        BYTE           MOD     5
        BYTE           VOL     24
        BYTE           BENDR   19
        BYTE   W96
// 001   ----------------------------------------
tf3hungermadethemdesperate_2_LOOP:
        BYTE           TIE     An3   v100
        BYTE           BEND    c_v-60
        BYTE   W01
        BYTE                   c_v-54
        BYTE   W01
        BYTE                   c_v-50
        BYTE   W01
        BYTE                   c_v-44
        BYTE   W01
        BYTE                   c_v-38
        BYTE   W01
        BYTE                   c_v-34
        BYTE   W01
        BYTE                   c_v-28
        BYTE   W01
        BYTE                   c_v-22
        BYTE   W01
        BYTE                   c_v-18
        BYTE   W01
        BYTE                   c_v-12
        BYTE   W01
        BYTE                   c_v-6
        BYTE   W01
        BYTE                   c_v-2
        BYTE   W01
        BYTE                   c_v+0
        BYTE   W84
// 002   ----------------------------------------
        BYTE   W48
        BYTE           BENDR   16
        BYTE   W48
// 003   ----------------------------------------
tf3hungermadethemdesperate_2_3:
        BYTE           EOT     An3
        BYTE           TIE     Cs3   v100
        BYTE           BEND    c_v+30
        BYTE   W01
        BYTE                   c_v+28
        BYTE   W01
        BYTE                   c_v+24
        BYTE   W01
        BYTE                   c_v+22
        BYTE   W01
        BYTE                   c_v+20
        BYTE   W01
        BYTE                   c_v+16
        BYTE   W01
        BYTE                   c_v+14
        BYTE   W01
        BYTE                   c_v+12
        BYTE   W01
        BYTE                   c_v+8
        BYTE   W01
        BYTE                   c_v+6
        BYTE   W01
        BYTE                   c_v+4
        BYTE   W01
        BYTE                   c_v+0
        BYTE   W84
        BYTE   W01
        BYTE   PEND
// 004   ----------------------------------------
tf3hungermadethemdesperate_2_4:
        BYTE   W48
        BYTE           EOT     Cs3
        BYTE           N24     Fs3   v100
        BYTE           BEND    c_v-17
        BYTE   W01
        BYTE                   c_v-14
        BYTE   W01
        BYTE                   c_v-11
        BYTE   W01
        BYTE                   c_v-7
        BYTE   W01
        BYTE                   c_v-4
        BYTE   W01
        BYTE                   c_v-1
        BYTE   W01
        BYTE                   c_v+0
        BYTE   W18
        BYTE           N24     Gs3
        BYTE           BEND    c_v-7
        BYTE   W01
        BYTE                   c_v-6
        BYTE   W01
        BYTE                   c_v-5
        BYTE   W01
        BYTE                   c_v-3
        BYTE   W01
        BYTE                   c_v-2
        BYTE   W01
        BYTE                   c_v-1
        BYTE   W01
        BYTE                   c_v+0
        BYTE   W18
        BYTE   PEND
// 005   ----------------------------------------
        BYTE           N96     An3
        BYTE   W96
// 006   ----------------------------------------
tf3hungermadethemdesperate_2_6:
        BYTE           N36     Gs3   v100
        BYTE   W36
        BYTE                   An3
        BYTE   W36
        BYTE           N24     Bn3
        BYTE   W24
        BYTE   PEND
// 007   ----------------------------------------
tf3hungermadethemdesperate_2_7:
        BYTE           N96     Cs4   v100
        BYTE           BEND    c_v-8
        BYTE   W01
        BYTE                   c_v-7
        BYTE   W02
        BYTE                   c_v-6
        BYTE   W01
        BYTE                   c_v-5
        BYTE   W02
        BYTE                   c_v-4
        BYTE   W01
        BYTE                   c_v-3
        BYTE   W02
        BYTE                   c_v-2
        BYTE   W01
        BYTE                   c_v-1
        BYTE   W02
        BYTE                   c_v+0
        BYTE   W84
        BYTE   PEND
// 008   ----------------------------------------
        BYTE           N48     Bn3
        BYTE           BEND    c_v+7
        BYTE   W01
        BYTE                   c_v+6
        BYTE   W01
        BYTE                   c_v+5
        BYTE   W01
        BYTE                   c_v+3
        BYTE   W01
        BYTE                   c_v+2
        BYTE   W01
        BYTE                   c_v+1
        BYTE   W01
        BYTE                   c_v+0
        BYTE   W42
        BYTE           N48     Gs3
        BYTE           BEND    c_v+11
        BYTE   W01
        BYTE                   c_v+9
        BYTE   W01
        BYTE                   c_v+7
        BYTE   W01
        BYTE                   c_v+5
        BYTE   W01
        BYTE                   c_v+3
        BYTE   W01
        BYTE                   c_v+1
        BYTE   W01
        BYTE                   c_v+0
        BYTE   W42
// 009   ----------------------------------------
        BYTE           TIE     An3
        BYTE   W96
// 010   ----------------------------------------
        BYTE   W96
// 011   ----------------------------------------
        BYTE   PATT
         POIN2  tf3hungermadethemdesperate_2_3
// 012   ----------------------------------------
        BYTE   PATT
         POIN2  tf3hungermadethemdesperate_2_4
// 013   ----------------------------------------
        BYTE           N96     An3   v100
        BYTE   W96
// 014   ----------------------------------------
        BYTE   PATT
         POIN2  tf3hungermadethemdesperate_2_6
// 015   ----------------------------------------
        BYTE   PATT
         POIN2  tf3hungermadethemdesperate_2_7
// 016   ----------------------------------------
        BYTE           N96     Bn3   v100
        BYTE   W96
// 017   ----------------------------------------
tf3hungermadethemdesperate_2_17:
        BYTE           N24     An3   v100
        BYTE   W24
        BYTE           N12     An2
        BYTE   W12
        BYTE           TIE     An3
        BYTE   W60
        BYTE   PEND
// 018   ----------------------------------------
tf3hungermadethemdesperate_2_18:
        BYTE   W72
        BYTE           BEND    c_v-2
        BYTE   W01
        BYTE                   c_v-4
        BYTE   W01
        BYTE                   c_v-8
        BYTE   W01
        BYTE                   c_v-10
        BYTE   W01
        BYTE                   c_v-12
        BYTE   W01
        BYTE                   c_v-16
        BYTE   W01
        BYTE                   c_v-18
        BYTE   W01
        BYTE                   c_v-20
        BYTE   W01
        BYTE                   c_v-24
        BYTE   W01
        BYTE                   c_v-26
        BYTE   W01
        BYTE                   c_v-28
        BYTE   W01
        BYTE                   c_v-32
        BYTE   W01
        BYTE                   c_v-34
        BYTE   W01
        BYTE                   c_v-36
        BYTE   W01
        BYTE                   c_v-40
        BYTE   W01
        BYTE                   c_v-42
        BYTE   W01
        BYTE                   c_v-44
        BYTE   W01
        BYTE                   c_v-48
        BYTE   W01
        BYTE                   c_v-50
        BYTE   W01
        BYTE                   c_v-52
        BYTE   W01
        BYTE                   c_v-56
        BYTE   W01
        BYTE                   c_v-58
        BYTE   W01
        BYTE                   c_v-60
        BYTE   W01
        BYTE                   c_v-64
        BYTE   W01
        BYTE   PEND
// 019   ----------------------------------------
tf3hungermadethemdesperate_2_19:
        BYTE           EOT     An3
        BYTE           N24     Cs3   v100
        BYTE           BEND    c_v+0
        BYTE   W24
        BYTE           N12     Cs2
        BYTE   W12
        BYTE           TIE     Cs3
        BYTE   W60
        BYTE   PEND
// 020   ----------------------------------------
        BYTE   W96
// 021   ----------------------------------------
tf3hungermadethemdesperate_2_21:
        BYTE           EOT     Cs3
        BYTE           N24     An3   v100
        BYTE   W24
        BYTE           N12     An2
        BYTE   W12
        BYTE           N72     An3
        BYTE   W60
        BYTE   PEND
// 022   ----------------------------------------
tf3hungermadethemdesperate_2_22:
        BYTE   W12
        BYTE           N12     En3   v100
        BYTE   W12
        BYTE                   Fs3
        BYTE   W12
        BYTE                   Gs3
        BYTE   W12
        BYTE                   An3
        BYTE   W12
        BYTE                   Gs3
        BYTE   W12
        BYTE                   An3
        BYTE   W12
        BYTE                   Bn3
        BYTE   W12
        BYTE   PEND
// 023   ----------------------------------------
tf3hungermadethemdesperate_2_23:
        BYTE           N24     Cs4   v100
        BYTE   W24
        BYTE           N12     Cs3
        BYTE   W12
        BYTE           N60     Cs4
        BYTE   W60
        BYTE   PEND
// 024   ----------------------------------------
tf3hungermadethemdesperate_2_24:
        BYTE           N48     Bn3   v100
        BYTE   W48
        BYTE                   Gs3
        BYTE   W48
        BYTE   PEND
// 025   ----------------------------------------
        BYTE   PATT
         POIN2  tf3hungermadethemdesperate_2_17
// 026   ----------------------------------------
        BYTE   PATT
         POIN2  tf3hungermadethemdesperate_2_18
// 027   ----------------------------------------
        BYTE   PATT
         POIN2  tf3hungermadethemdesperate_2_19
// 028   ----------------------------------------
        BYTE   W96
// 029   ----------------------------------------
        BYTE   PATT
         POIN2  tf3hungermadethemdesperate_2_21
// 030   ----------------------------------------
        BYTE   PATT
         POIN2  tf3hungermadethemdesperate_2_22
// 031   ----------------------------------------
        BYTE   PATT
         POIN2  tf3hungermadethemdesperate_2_23
// 032   ----------------------------------------
        BYTE   PATT
         POIN2  tf3hungermadethemdesperate_2_24
// 033   ----------------------------------------
tf3hungermadethemdesperate_2_33:
        BYTE           N12     Dn3   v100
        BYTE   W12
        BYTE           N36     Fs3
        BYTE   W36
        BYTE           N24     Gs3
        BYTE   W24
        BYTE                   An3
        BYTE   W24
        BYTE   PEND
// 034   ----------------------------------------
        BYTE   PATT
         POIN2  tf3hungermadethemdesperate_2_33
// 035   ----------------------------------------
        BYTE   PATT
         POIN2  tf3hungermadethemdesperate_2_33
// 036   ----------------------------------------
tf3hungermadethemdesperate_2_36:
        BYTE           N24     Cs4   v100
        BYTE   W24
        BYTE                   Bn3
        BYTE   W24
        BYTE           N36     An3
        BYTE   W36
        BYTE           N12     Gs3
        BYTE   W12
        BYTE   PEND
// 037   ----------------------------------------
        BYTE   PATT
         POIN2  tf3hungermadethemdesperate_2_17
// 038   ----------------------------------------
        BYTE   W96
// 039   ----------------------------------------
        BYTE           EOT     An3
        BYTE           N24     An3   v100
        BYTE   W24
        BYTE           N12     An2
        BYTE   W12
        BYTE           TIE     An3
        BYTE   W60
// 040   ----------------------------------------
        BYTE   W96
// 041   ----------------------------------------
        BYTE           EOT
        BYTE           N12     Dn3
        BYTE   W12
        BYTE           N36     Fs3
        BYTE   W36
        BYTE           N24     Gs3
        BYTE   W24
        BYTE                   An3
        BYTE   W24
// 042   ----------------------------------------
        BYTE   PATT
         POIN2  tf3hungermadethemdesperate_2_33
// 043   ----------------------------------------
        BYTE   PATT
         POIN2  tf3hungermadethemdesperate_2_33
// 044   ----------------------------------------
        BYTE   PATT
         POIN2  tf3hungermadethemdesperate_2_36
// 045   ----------------------------------------
        BYTE   PATT
         POIN2  tf3hungermadethemdesperate_2_17
// 046   ----------------------------------------
        BYTE   W96
// 047   ----------------------------------------
        BYTE           EOT     An3
        BYTE           N24     Cs4   v100
        BYTE   W24
        BYTE           N12     Cs3
        BYTE   W12
        BYTE           N56     Cs4   v100   gtp3
        BYTE   W60
// 048   ----------------------------------------
        BYTE           N24
        BYTE   W24
        BYTE           N12     Cs3
        BYTE   W12
        BYTE           N56     Cs4   v100   gtp3
        BYTE   W60
// 049   ----------------------------------------
tf3hungermadethemdesperate_2_49:
        BYTE           N36     Dn4   v100
        BYTE   W36
        BYTE                   Cs4
        BYTE   W36
        BYTE           N24     Bn3
        BYTE   W24
        BYTE   PEND
// 050   ----------------------------------------
        BYTE   PATT
         POIN2  tf3hungermadethemdesperate_2_49
// 051   ----------------------------------------
        BYTE   PATT
         POIN2  tf3hungermadethemdesperate_2_49
// 052   ----------------------------------------
tf3hungermadethemdesperate_2_52:
        BYTE           N48     Dn4   v100
        BYTE   W48
        BYTE                   Cs4
        BYTE   W48
        BYTE   PEND
// 053   ----------------------------------------
tf3hungermadethemdesperate_2_53:
        BYTE           N36     Bn3   v100
        BYTE   W36
        BYTE                   Cs4
        BYTE   W36
        BYTE           N24     Dn4
        BYTE   W24
        BYTE   PEND
// 054   ----------------------------------------
        BYTE   PATT
         POIN2  tf3hungermadethemdesperate_2_53
// 055   ----------------------------------------
        BYTE   PATT
         POIN2  tf3hungermadethemdesperate_2_53
// 056   ----------------------------------------
tf3hungermadethemdesperate_2_56:
        BYTE           N48     Bn3   v100
        BYTE   W48
        BYTE                   An3
        BYTE   W48
        BYTE   PEND
// 057   ----------------------------------------
        BYTE   PATT
         POIN2  tf3hungermadethemdesperate_2_49
// 058   ----------------------------------------
        BYTE   PATT
         POIN2  tf3hungermadethemdesperate_2_49
// 059   ----------------------------------------
        BYTE   PATT
         POIN2  tf3hungermadethemdesperate_2_49
// 060   ----------------------------------------
        BYTE   PATT
         POIN2  tf3hungermadethemdesperate_2_52
// 061   ----------------------------------------
        BYTE   PATT
         POIN2  tf3hungermadethemdesperate_2_53
// 062   ----------------------------------------
        BYTE   PATT
         POIN2  tf3hungermadethemdesperate_2_53
// 063   ----------------------------------------
        BYTE   PATT
         POIN2  tf3hungermadethemdesperate_2_53
// 064   ----------------------------------------
        BYTE   PATT
         POIN2  tf3hungermadethemdesperate_2_56
// 065   ----------------------------------------
tf3hungermadethemdesperate_2_65:
        BYTE           N36     Fs3   v100
        BYTE   W36
        BYTE           N60     Gs3
        BYTE   W60
        BYTE   PEND
// 066   ----------------------------------------
tf3hungermadethemdesperate_2_66:
        BYTE           N36     Cs4   v100
        BYTE   W36
        BYTE                   Bn3
        BYTE   W36
        BYTE           N24     Gs3
        BYTE   W24
        BYTE   PEND
// 067   ----------------------------------------
tf3hungermadethemdesperate_2_67:
        BYTE           N36     An3   v100
        BYTE   W36
        BYTE           N60     Gs3
        BYTE   W60
        BYTE   PEND
// 068   ----------------------------------------
tf3hungermadethemdesperate_2_68:
        BYTE           N36     An3   v100
        BYTE   W36
        BYTE           N60     Bn3
        BYTE   W60
        BYTE   PEND
// 069   ----------------------------------------
        BYTE   PATT
         POIN2  tf3hungermadethemdesperate_2_65
// 070   ----------------------------------------
        BYTE   PATT
         POIN2  tf3hungermadethemdesperate_2_66
// 071   ----------------------------------------
        BYTE   PATT
         POIN2  tf3hungermadethemdesperate_2_67
// 072   ----------------------------------------
        BYTE           N36     An3   v100
        BYTE   W36
        BYTE                   Bn3
        BYTE   W36
        BYTE           N24     Cs4
        BYTE   W24
// 073   ----------------------------------------
        BYTE   PATT
         POIN2  tf3hungermadethemdesperate_2_65
// 074   ----------------------------------------
        BYTE   PATT
         POIN2  tf3hungermadethemdesperate_2_66
// 075   ----------------------------------------
        BYTE   PATT
         POIN2  tf3hungermadethemdesperate_2_67
// 076   ----------------------------------------
        BYTE   PATT
         POIN2  tf3hungermadethemdesperate_2_68
// 077   ----------------------------------------
        BYTE   PATT
         POIN2  tf3hungermadethemdesperate_2_65
// 078   ----------------------------------------
        BYTE   PATT
         POIN2  tf3hungermadethemdesperate_2_66
// 079   ----------------------------------------
        BYTE   PATT
         POIN2  tf3hungermadethemdesperate_2_67
// 080   ----------------------------------------
        BYTE           N12     Fs1   v100
        BYTE   W12
        BYTE                   Fs2
        BYTE   W12
        BYTE                   Fs3
        BYTE   W12
        BYTE                   Gs1
        BYTE   W12
        BYTE                   Gs2
        BYTE   W12
        BYTE                   Gs3
        BYTE   W12
        BYTE                   An1
        BYTE   W12
        BYTE                   An3
        BYTE   W12
// 081   ----------------------------------------
        BYTE           BEND    c_v-60
        BYTE           BENDR   19
        BYTE   GoTo
         POIN2  tf3hungermadethemdesperate_2_LOOP
        BYTE   FINE

//****************** Track 3 (Midi-Chn.3) ******************//

tf3hungermadethemdesperate_3:
        BYTE   KEYSH   tf3hungermadethemdesperate_key+0
// 000   ----------------------------------------
        BYTE           VOICE   82
        BYTE           PAN     c_v-24
        BYTE           VOL     34
        BYTE   W96
// 001   ----------------------------------------
tf3hungermadethemdesperate_3_LOOP:
        BYTE           N19     Cs4   v108
        BYTE   W24
        BYTE                   Fs4
        BYTE   W24
        BYTE           N09     Cs4
        BYTE   W12
        BYTE                   Gs4
        BYTE   W12
        BYTE                   Cs4
        BYTE   W12
        BYTE           N19     An4
        BYTE   W12
// 002   ----------------------------------------
tf3hungermadethemdesperate_3_2:
        BYTE   W12
        BYTE           N09     Cs4   v108
        BYTE   W12
        BYTE                   Gs4
        BYTE   W12
        BYTE                   Cs4
        BYTE   W12
        BYTE                   Fs4
        BYTE   W12
        BYTE                   Cs4
        BYTE   W12
        BYTE           N19     En4
        BYTE   W24
        BYTE   PEND
// 003   ----------------------------------------
tf3hungermadethemdesperate_3_3:
        BYTE           N19     Cs4   v108
        BYTE   W24
        BYTE                   Fs4
        BYTE   W24
        BYTE           N09     Cs4
        BYTE   W12
        BYTE                   Gs4
        BYTE   W12
        BYTE                   Cs4
        BYTE   W12
        BYTE           N19     An4
        BYTE   W12
        BYTE   PEND
// 004   ----------------------------------------
tf3hungermadethemdesperate_3_4:
        BYTE   W12
        BYTE           N09     Cs4   v108
        BYTE   W12
        BYTE                   Bn4
        BYTE   W12
        BYTE                   Cs4
        BYTE   W12
        BYTE                   An4
        BYTE   W12
        BYTE                   Cs4
        BYTE   W12
        BYTE           N19     Gs4
        BYTE   W24
        BYTE   PEND
// 005   ----------------------------------------
        BYTE   PATT
         POIN2  tf3hungermadethemdesperate_3_3
// 006   ----------------------------------------
        BYTE   PATT
         POIN2  tf3hungermadethemdesperate_3_2
// 007   ----------------------------------------
tf3hungermadethemdesperate_3_7:
        BYTE           N19     Cs4   v108
        BYTE   W24
        BYTE                   Fs4
        BYTE   W24
        BYTE           N09     Cs4
        BYTE   W12
        BYTE                   Gs4
        BYTE   W12
        BYTE                   Cs4
        BYTE   W12
        BYTE           N19     Cs5
        BYTE   W12
        BYTE   PEND
// 008   ----------------------------------------
        BYTE   PATT
         POIN2  tf3hungermadethemdesperate_3_4
// 009   ----------------------------------------
        BYTE   PATT
         POIN2  tf3hungermadethemdesperate_3_3
// 010   ----------------------------------------
        BYTE   PATT
         POIN2  tf3hungermadethemdesperate_3_2
// 011   ----------------------------------------
        BYTE   PATT
         POIN2  tf3hungermadethemdesperate_3_3
// 012   ----------------------------------------
        BYTE   PATT
         POIN2  tf3hungermadethemdesperate_3_4
// 013   ----------------------------------------
        BYTE   PATT
         POIN2  tf3hungermadethemdesperate_3_3
// 014   ----------------------------------------
        BYTE   PATT
         POIN2  tf3hungermadethemdesperate_3_2
// 015   ----------------------------------------
        BYTE   PATT
         POIN2  tf3hungermadethemdesperate_3_7
// 016   ----------------------------------------
        BYTE   PATT
         POIN2  tf3hungermadethemdesperate_3_4
// 017   ----------------------------------------
        BYTE           N96     An4   v100
        BYTE           BEND    c_v-48
        BYTE   W01
        BYTE                   c_v-44
        BYTE   W01
        BYTE                   c_v-40
        BYTE   W01
        BYTE                   c_v-36
        BYTE   W01
        BYTE                   c_v-32
        BYTE   W01
        BYTE                   c_v-28
        BYTE   W01
        BYTE                   c_v-22
        BYTE   W01
        BYTE                   c_v-18
        BYTE   W01
        BYTE                   c_v-14
        BYTE   W01
        BYTE                   c_v-10
        BYTE   W01
        BYTE                   c_v-6
        BYTE   W01
        BYTE                   c_v-2
        BYTE   W01
        BYTE                   c_v+0
        BYTE   W84
// 018   ----------------------------------------
        BYTE           N96     Gs4
        BYTE   W96
// 019   ----------------------------------------
        BYTE                   En4
        BYTE   W96
// 020   ----------------------------------------
        BYTE                   Cs4
        BYTE   W96
// 021   ----------------------------------------
        BYTE                   An4
        BYTE   W96
// 022   ----------------------------------------
tf3hungermadethemdesperate_3_22:
        BYTE           N48     Gs4   v100
        BYTE   W48
        BYTE                   En4
        BYTE   W48
        BYTE   PEND
// 023   ----------------------------------------
        BYTE           N96     Cs5
        BYTE   W96
// 024   ----------------------------------------
tf3hungermadethemdesperate_3_24:
        BYTE           N48     Bn4   v100
        BYTE   W48
        BYTE                   Gs4
        BYTE   W48
        BYTE   PEND
// 025   ----------------------------------------
        BYTE           N96     An4
        BYTE   W96
// 026   ----------------------------------------
        BYTE                   Gs4
        BYTE   W96
// 027   ----------------------------------------
        BYTE                   En4
        BYTE   W96
// 028   ----------------------------------------
        BYTE                   Cs4
        BYTE   W96
// 029   ----------------------------------------
        BYTE                   An4
        BYTE   W96
// 030   ----------------------------------------
        BYTE   PATT
         POIN2  tf3hungermadethemdesperate_3_22
// 031   ----------------------------------------
        BYTE           N96     Cs5   v100
        BYTE   W96
// 032   ----------------------------------------
        BYTE           N48     Bn4
        BYTE   W48
        BYTE           N24     Gs4
        BYTE   W24
        BYTE                   En4
        BYTE   W24
// 033   ----------------------------------------
        BYTE           N96     Fs4
        BYTE   W96
// 034   ----------------------------------------
        BYTE                   En5
        BYTE   W96
// 035   ----------------------------------------
        BYTE                   Cs5
        BYTE   W96
// 036   ----------------------------------------
        BYTE   PATT
         POIN2  tf3hungermadethemdesperate_3_24
// 037   ----------------------------------------
        BYTE           TIE     An4   v100
        BYTE   W96
// 038   ----------------------------------------
tf3hungermadethemdesperate_3_38:
        BYTE   W48
        BYTE           EOT     An4
        BYTE           N48     Bn4   v100
        BYTE   W48
        BYTE   PEND
// 039   ----------------------------------------
        BYTE           N96     An4
        BYTE   W96
// 040   ----------------------------------------
        BYTE   PATT
         POIN2  tf3hungermadethemdesperate_2_52
// 041   ----------------------------------------
        BYTE           N96     Fs4   v100
        BYTE   W96
// 042   ----------------------------------------
        BYTE                   En5
        BYTE   W96
// 043   ----------------------------------------
        BYTE                   Cs5
        BYTE   W96
// 044   ----------------------------------------
        BYTE   PATT
         POIN2  tf3hungermadethemdesperate_3_24
// 045   ----------------------------------------
        BYTE           TIE     An4   v100
        BYTE   W96
// 046   ----------------------------------------
        BYTE   PATT
         POIN2  tf3hungermadethemdesperate_3_38
// 047   ----------------------------------------
        BYTE           N96     An4   v100
        BYTE   W96
// 048   ----------------------------------------
        BYTE   PATT
         POIN2  tf3hungermadethemdesperate_2_52
// 049   ----------------------------------------
        BYTE           TIE     Dn5   v100
        BYTE   W96
// 050   ----------------------------------------
        BYTE   W96
// 051   ----------------------------------------
tf3hungermadethemdesperate_3_51:
        BYTE           EOT     Dn5
        BYTE           N36     Bn4   v100
        BYTE   W36
        BYTE                   Cs5
        BYTE   W36
        BYTE           N24     Dn5
        BYTE   W24
        BYTE   PEND
// 052   ----------------------------------------
tf3hungermadethemdesperate_3_52:
        BYTE           N36     Bn4   v100
        BYTE   W36
        BYTE           N60     Cs5
        BYTE   W60
        BYTE   PEND
// 053   ----------------------------------------
        BYTE           TIE     Bn4
        BYTE   W96
// 054   ----------------------------------------
        BYTE   W96
// 055   ----------------------------------------
tf3hungermadethemdesperate_3_55:
        BYTE           EOT     Bn4
        BYTE           N96     An4   v100
        BYTE   W96
        BYTE   PEND
// 056   ----------------------------------------
        BYTE           N36     Bn4
        BYTE   W36
        BYTE           N60     An4
        BYTE   W60
// 057   ----------------------------------------
        BYTE           TIE     Dn5
        BYTE   W96
// 058   ----------------------------------------
        BYTE   W96
// 059   ----------------------------------------
        BYTE   PATT
         POIN2  tf3hungermadethemdesperate_3_51
// 060   ----------------------------------------
        BYTE   PATT
         POIN2  tf3hungermadethemdesperate_3_52
// 061   ----------------------------------------
        BYTE           TIE     Bn4   v100
        BYTE   W96
// 062   ----------------------------------------
        BYTE   W96
// 063   ----------------------------------------
        BYTE   PATT
         POIN2  tf3hungermadethemdesperate_3_55
// 064   ----------------------------------------
        BYTE           N36     Gs4   v100
        BYTE   W24
        BYTE           BENDR   24
        BYTE   W12
        BYTE           N60     An4
        BYTE   W13
        BYTE           BEND    c_v-2
        BYTE   W01
        BYTE                   c_v-4
        BYTE   W02
        BYTE                   c_v-6
        BYTE   W01
        BYTE                   c_v-8
        BYTE   W02
        BYTE                   c_v-10
        BYTE   W01
        BYTE                   c_v-12
        BYTE   W02
        BYTE                   c_v-14
        BYTE   W01
        BYTE                   c_v-16
        BYTE   W02
        BYTE                   c_v-18
        BYTE   W01
        BYTE                   c_v-20
        BYTE   W02
        BYTE                   c_v-22
        BYTE   W01
        BYTE                   c_v-24
        BYTE   W02
        BYTE                   c_v-26
        BYTE   W01
        BYTE                   c_v-28
        BYTE   W02
        BYTE                   c_v-30
        BYTE   W01
        BYTE                   c_v-32
        BYTE   W02
        BYTE                   c_v-34
        BYTE   W01
        BYTE                   c_v-36
        BYTE   W02
        BYTE                   c_v-38
        BYTE   W01
        BYTE                   c_v-40
        BYTE   W02
        BYTE                   c_v-42
        BYTE   W01
        BYTE                   c_v-44
        BYTE   W02
        BYTE                   c_v-46
        BYTE   W01
        BYTE                   c_v-48
        BYTE   W02
        BYTE                   c_v-50
        BYTE   W01
        BYTE                   c_v-52
        BYTE   W02
        BYTE                   c_v-54
        BYTE   W01
        BYTE                   c_v-56
        BYTE   W02
        BYTE                   c_v-58
        BYTE   W01
        BYTE                   c_v-60
        BYTE   W02
        BYTE                   c_v-62
        BYTE   W01
        BYTE                   c_v-64
        BYTE   W01
// 065   ----------------------------------------
        BYTE           N96     Fs4
        BYTE           BEND    c_v+0
        BYTE   W48
        BYTE           BENDR   16
        BYTE   W48
// 066   ----------------------------------------
        BYTE           N96     Gs4
        BYTE   W96
// 067   ----------------------------------------
        BYTE                   An4
        BYTE   W96
// 068   ----------------------------------------
        BYTE                   Bn4
        BYTE   W96
// 069   ----------------------------------------
        BYTE                   Fs4
        BYTE   W96
// 070   ----------------------------------------
        BYTE                   Gs4
        BYTE   W96
// 071   ----------------------------------------
        BYTE           N48     An4
        BYTE   W48
        BYTE                   Cs5
        BYTE   W48
// 072   ----------------------------------------
        BYTE   PATT
         POIN2  tf3hungermadethemdesperate_3_24
// 073   ----------------------------------------
        BYTE           N96     Fs4   v100
        BYTE   W96
// 074   ----------------------------------------
        BYTE                   Gs4
        BYTE   W96
// 075   ----------------------------------------
        BYTE                   An4
        BYTE   W96
// 076   ----------------------------------------
        BYTE                   Bn4
        BYTE   W96
// 077   ----------------------------------------
        BYTE                   Fs4
        BYTE   W96
// 078   ----------------------------------------
        BYTE                   Gs4
        BYTE   W96
// 079   ----------------------------------------
        BYTE                   An4
        BYTE   W96
// 080   ----------------------------------------
        BYTE           N36     Fs4
        BYTE   W36
        BYTE                   Gs4
        BYTE   W36
        BYTE           N24     An4
        BYTE   W24
// 081   ----------------------------------------
        BYTE           BENDR   2
        BYTE   GoTo
         POIN2  tf3hungermadethemdesperate_3_LOOP
        BYTE   FINE

//****************** Track 4 (Midi-Chn.4) ******************//

tf3hungermadethemdesperate_4:
        BYTE   KEYSH   tf3hungermadethemdesperate_key+0
// 000   ----------------------------------------
        BYTE           VOICE   30
        BYTE           PAN     c_v-44
        BYTE           VOL     26
        BYTE   W96
// 001   ----------------------------------------
tf3hungermadethemdesperate_4_LOOP:
        BYTE           N11     Fs1   v127
        BYTE           N11     Cs2
        BYTE   W12
        BYTE           N04     Fs1   v096
        BYTE   W06
        BYTE                   Fs1
        BYTE   W06
        BYTE           N08
        BYTE   W12
        BYTE           N11     Fs1   v127
        BYTE           N11     Cs2
        BYTE   W12
        BYTE           N04     Fs1   v096
        BYTE   W06
        BYTE                   Fs1
        BYTE   W06
        BYTE           N08
        BYTE   W12
        BYTE           N11     Fs1   v127
        BYTE           N11     Cs2
        BYTE   W12
        BYTE           N08     Fs1   v096
        BYTE   W12
// 002   ----------------------------------------
tf3hungermadethemdesperate_4_2:
        BYTE           N11     Fs1   v127
        BYTE           N11     Cs2
        BYTE   W12
        BYTE           N04     Fs1   v096
        BYTE   W06
        BYTE                   Fs1
        BYTE   W06
        BYTE           N08
        BYTE   W12
        BYTE           N11     Fs1   v127
        BYTE           N11     Cs2
        BYTE   W12
        BYTE           N04     Fs1   v096
        BYTE   W06
        BYTE                   Fs1
        BYTE   W06
        BYTE           N08
        BYTE   W12
        BYTE           N11     Fs1   v127
        BYTE           N11     Cs2
        BYTE   W12
        BYTE           N08     Fs1   v096
        BYTE   W12
        BYTE   PEND
// 003   ----------------------------------------
tf3hungermadethemdesperate_4_3:
        BYTE           N11     Gs1   v127
        BYTE           N11     Cs1
        BYTE   W12
        BYTE           N04     Cs1   v096
        BYTE   W06
        BYTE                   Cs1
        BYTE   W06
        BYTE           N08
        BYTE   W12
        BYTE           N11     Gs1   v127
        BYTE           N11     Cs1
        BYTE   W12
        BYTE           N04     Cs1   v096
        BYTE   W06
        BYTE                   Cs1
        BYTE   W06
        BYTE           N08
        BYTE   W12
        BYTE           N11     Gs1   v127
        BYTE           N11     Cs1
        BYTE   W12
        BYTE           N08     Cs1   v096
        BYTE   W12
        BYTE   PEND
// 004   ----------------------------------------
        BYTE   PATT
         POIN2  tf3hungermadethemdesperate_4_3
// 005   ----------------------------------------
        BYTE   PATT
         POIN2  tf3hungermadethemdesperate_4_2
// 006   ----------------------------------------
        BYTE   PATT
         POIN2  tf3hungermadethemdesperate_4_2
// 007   ----------------------------------------
        BYTE   PATT
         POIN2  tf3hungermadethemdesperate_4_3
// 008   ----------------------------------------
        BYTE           N23     Cs2   v127
        BYTE           N23     Gs2
        BYTE   W24
        BYTE                   Bn1
        BYTE           N23     Fs2
        BYTE   W24
        BYTE                   An1
        BYTE           N23     En2
        BYTE   W24
        BYTE                   Gs1
        BYTE           N23     Ds2
        BYTE   W24
// 009   ----------------------------------------
        BYTE   PATT
         POIN2  tf3hungermadethemdesperate_4_2
// 010   ----------------------------------------
        BYTE   PATT
         POIN2  tf3hungermadethemdesperate_4_2
// 011   ----------------------------------------
        BYTE   PATT
         POIN2  tf3hungermadethemdesperate_4_3
// 012   ----------------------------------------
        BYTE   PATT
         POIN2  tf3hungermadethemdesperate_4_3
// 013   ----------------------------------------
        BYTE   PATT
         POIN2  tf3hungermadethemdesperate_4_2
// 014   ----------------------------------------
        BYTE   PATT
         POIN2  tf3hungermadethemdesperate_4_2
// 015   ----------------------------------------
        BYTE   PATT
         POIN2  tf3hungermadethemdesperate_4_3
// 016   ----------------------------------------
        BYTE           N23     Cs2   v127
        BYTE           N23     Gs2
        BYTE   W24
        BYTE                   Bn1
        BYTE           N23     Fs2
        BYTE   W24
        BYTE                   An1
        BYTE           N23     En2
        BYTE   W24
        BYTE                   Gs1
        BYTE           N23     Ds2
        BYTE   W18
        BYTE           VOICE   87
        BYTE   W06
// 017   ----------------------------------------
tf3hungermadethemdesperate_4_17:
        BYTE           N04     Fs5   v080
        BYTE   W06
        BYTE                   Cs5
        BYTE   W06
        BYTE           N09     Fs4
        BYTE   W12
        BYTE           N04     Fs5
        BYTE   W06
        BYTE                   Cs5
        BYTE   W06
        BYTE           N09     Fs4
        BYTE   W12
        BYTE           N04     Fs5
        BYTE   W06
        BYTE                   Cs5
        BYTE   W06
        BYTE           N09     Fs4
        BYTE   W12
        BYTE           N04     Fs5
        BYTE   W06
        BYTE                   Cs5
        BYTE   W06
        BYTE           N09     Fs4
        BYTE   W12
        BYTE   PEND
// 018   ----------------------------------------
        BYTE   PATT
         POIN2  tf3hungermadethemdesperate_4_17
// 019   ----------------------------------------
tf3hungermadethemdesperate_4_19:
        BYTE           N04     En5   v080
        BYTE   W06
        BYTE                   Bn4
        BYTE   W06
        BYTE           N09     En4
        BYTE   W12
        BYTE           N04     En5
        BYTE   W06
        BYTE                   Bn4
        BYTE   W06
        BYTE           N09     En4
        BYTE   W12
        BYTE           N04     En5
        BYTE   W06
        BYTE                   Bn4
        BYTE   W06
        BYTE           N09     En4
        BYTE   W12
        BYTE           N04     En5
        BYTE   W06
        BYTE                   Bn4
        BYTE   W06
        BYTE           N09     En4
        BYTE   W12
        BYTE   PEND
// 020   ----------------------------------------
tf3hungermadethemdesperate_4_20:
        BYTE           N04     Cs5   v080
        BYTE   W06
        BYTE                   Gs4
        BYTE   W06
        BYTE           N09     Cs4
        BYTE   W12
        BYTE           N04     Cs5
        BYTE   W06
        BYTE                   Gs4
        BYTE   W06
        BYTE           N09     Cs4
        BYTE   W12
        BYTE           N04     Cs5
        BYTE   W06
        BYTE                   Gs4
        BYTE   W06
        BYTE           N09     Cs4
        BYTE   W12
        BYTE           N04     Cs5
        BYTE   W06
        BYTE                   Gs4
        BYTE   W06
        BYTE           N09     Cs4
        BYTE   W12
        BYTE   PEND
// 021   ----------------------------------------
        BYTE   PATT
         POIN2  tf3hungermadethemdesperate_4_17
// 022   ----------------------------------------
        BYTE   PATT
         POIN2  tf3hungermadethemdesperate_4_17
// 023   ----------------------------------------
        BYTE   PATT
         POIN2  tf3hungermadethemdesperate_4_19
// 024   ----------------------------------------
        BYTE   PATT
         POIN2  tf3hungermadethemdesperate_4_20
// 025   ----------------------------------------
        BYTE   PATT
         POIN2  tf3hungermadethemdesperate_4_17
// 026   ----------------------------------------
        BYTE   PATT
         POIN2  tf3hungermadethemdesperate_4_17
// 027   ----------------------------------------
        BYTE   PATT
         POIN2  tf3hungermadethemdesperate_4_19
// 028   ----------------------------------------
        BYTE   PATT
         POIN2  tf3hungermadethemdesperate_4_20
// 029   ----------------------------------------
        BYTE   PATT
         POIN2  tf3hungermadethemdesperate_4_17
// 030   ----------------------------------------
        BYTE   PATT
         POIN2  tf3hungermadethemdesperate_4_17
// 031   ----------------------------------------
        BYTE   PATT
         POIN2  tf3hungermadethemdesperate_4_19
// 032   ----------------------------------------
        BYTE           N04     Cs5   v080
        BYTE   W06
        BYTE                   Gs4
        BYTE   W06
        BYTE           N09     Cs4
        BYTE   W12
        BYTE           N04     Cs5
        BYTE   W06
        BYTE                   Gs4
        BYTE   W06
        BYTE           N09     Cs4
        BYTE   W12
        BYTE           N04     Cs5
        BYTE   W06
        BYTE                   Gs4
        BYTE   W06
        BYTE           N09     Cs4
        BYTE   W12
        BYTE           N04     Cs5
        BYTE   W06
        BYTE                   Gs4
        BYTE   W06
        BYTE           N09     Cs4
        BYTE   W09
        BYTE           VOICE   30
        BYTE   W03
// 033   ----------------------------------------
tf3hungermadethemdesperate_4_33:
        BYTE           TIE     Dn2   v127
        BYTE           TIE     An2
        BYTE   W96
        BYTE   PEND
// 034   ----------------------------------------
tf3hungermadethemdesperate_4_34:
        BYTE   W80
        BYTE   W03
        BYTE           EOT     An2
        BYTE                   Dn2
        BYTE   W01
        BYTE           N05     Dn2   v127
        BYTE   W06
        BYTE                   Dn2
        BYTE   W06
        BYTE   PEND
// 035   ----------------------------------------
        BYTE   PATT
         POIN2  tf3hungermadethemdesperate_4_33
// 036   ----------------------------------------
        BYTE   PATT
         POIN2  tf3hungermadethemdesperate_4_34
// 037   ----------------------------------------
        BYTE   PATT
         POIN2  tf3hungermadethemdesperate_4_2
// 038   ----------------------------------------
        BYTE   PATT
         POIN2  tf3hungermadethemdesperate_4_2
// 039   ----------------------------------------
        BYTE   PATT
         POIN2  tf3hungermadethemdesperate_4_2
// 040   ----------------------------------------
        BYTE   PATT
         POIN2  tf3hungermadethemdesperate_4_2
// 041   ----------------------------------------
        BYTE   PATT
         POIN2  tf3hungermadethemdesperate_4_33
// 042   ----------------------------------------
        BYTE   PATT
         POIN2  tf3hungermadethemdesperate_4_34
// 043   ----------------------------------------
        BYTE   PATT
         POIN2  tf3hungermadethemdesperate_4_33
// 044   ----------------------------------------
        BYTE   PATT
         POIN2  tf3hungermadethemdesperate_4_34
// 045   ----------------------------------------
        BYTE   PATT
         POIN2  tf3hungermadethemdesperate_4_2
// 046   ----------------------------------------
        BYTE   PATT
         POIN2  tf3hungermadethemdesperate_4_2
// 047   ----------------------------------------
        BYTE   PATT
         POIN2  tf3hungermadethemdesperate_4_2
// 048   ----------------------------------------
        BYTE   PATT
         POIN2  tf3hungermadethemdesperate_4_2
// 049   ----------------------------------------
        BYTE   PATT
         POIN2  tf3hungermadethemdesperate_4_33
// 050   ----------------------------------------
        BYTE   PATT
         POIN2  tf3hungermadethemdesperate_4_34
// 051   ----------------------------------------
        BYTE   PATT
         POIN2  tf3hungermadethemdesperate_4_33
// 052   ----------------------------------------
        BYTE   PATT
         POIN2  tf3hungermadethemdesperate_4_34
// 053   ----------------------------------------
tf3hungermadethemdesperate_4_53:
        BYTE           TIE     Fs1   v127
        BYTE           TIE     Cs2
        BYTE   W96
        BYTE   PEND
// 054   ----------------------------------------
tf3hungermadethemdesperate_4_54:
        BYTE   W80
        BYTE   W03
        BYTE           EOT     Cs2
        BYTE                   Fs1
        BYTE   W01
        BYTE           N05     Fs1   v127
        BYTE   W06
        BYTE                   Fs1
        BYTE   W06
        BYTE   PEND
// 055   ----------------------------------------
        BYTE   PATT
         POIN2  tf3hungermadethemdesperate_4_53
// 056   ----------------------------------------
        BYTE   PATT
         POIN2  tf3hungermadethemdesperate_4_54
// 057   ----------------------------------------
        BYTE   PATT
         POIN2  tf3hungermadethemdesperate_4_33
// 058   ----------------------------------------
        BYTE   PATT
         POIN2  tf3hungermadethemdesperate_4_34
// 059   ----------------------------------------
        BYTE   PATT
         POIN2  tf3hungermadethemdesperate_4_33
// 060   ----------------------------------------
        BYTE   PATT
         POIN2  tf3hungermadethemdesperate_4_34
// 061   ----------------------------------------
        BYTE   PATT
         POIN2  tf3hungermadethemdesperate_4_53
// 062   ----------------------------------------
        BYTE   PATT
         POIN2  tf3hungermadethemdesperate_4_54
// 063   ----------------------------------------
        BYTE   PATT
         POIN2  tf3hungermadethemdesperate_4_53
// 064   ----------------------------------------
        BYTE   PATT
         POIN2  tf3hungermadethemdesperate_4_54
// 065   ----------------------------------------
        BYTE   PATT
         POIN2  tf3hungermadethemdesperate_4_2
// 066   ----------------------------------------
        BYTE   PATT
         POIN2  tf3hungermadethemdesperate_4_2
// 067   ----------------------------------------
        BYTE   PATT
         POIN2  tf3hungermadethemdesperate_4_2
// 068   ----------------------------------------
        BYTE   PATT
         POIN2  tf3hungermadethemdesperate_4_2
// 069   ----------------------------------------
        BYTE   PATT
         POIN2  tf3hungermadethemdesperate_4_2
// 070   ----------------------------------------
        BYTE   PATT
         POIN2  tf3hungermadethemdesperate_4_2
// 071   ----------------------------------------
        BYTE   PATT
         POIN2  tf3hungermadethemdesperate_4_2
// 072   ----------------------------------------
        BYTE   PATT
         POIN2  tf3hungermadethemdesperate_4_2
// 073   ----------------------------------------
        BYTE   PATT
         POIN2  tf3hungermadethemdesperate_4_2
// 074   ----------------------------------------
        BYTE   PATT
         POIN2  tf3hungermadethemdesperate_4_2
// 075   ----------------------------------------
        BYTE   PATT
         POIN2  tf3hungermadethemdesperate_4_2
// 076   ----------------------------------------
        BYTE   PATT
         POIN2  tf3hungermadethemdesperate_4_2
// 077   ----------------------------------------
        BYTE   PATT
         POIN2  tf3hungermadethemdesperate_4_2
// 078   ----------------------------------------
        BYTE   PATT
         POIN2  tf3hungermadethemdesperate_4_2
// 079   ----------------------------------------
        BYTE   PATT
         POIN2  tf3hungermadethemdesperate_4_2
// 080   ----------------------------------------
        BYTE           N32     Fs1   v127   gtp2
        BYTE                   Cs2
        BYTE   W36
        BYTE                   Gs1
        BYTE           N32     Ds2   v127   gtp2
        BYTE   W36
        BYTE           N23     An1
        BYTE           N23     En2
        BYTE   W24
// 081   ----------------------------------------
        BYTE   GoTo
         POIN2  tf3hungermadethemdesperate_4_LOOP
        BYTE   FINE

//****************** Track 5 (Midi-Chn.5) ******************//

tf3hungermadethemdesperate_5:
        BYTE   KEYSH   tf3hungermadethemdesperate_key+0
// 000   ----------------------------------------
        BYTE           VOICE   124
        BYTE           VOL     46
        BYTE   W96
// 001   ----------------------------------------
tf3hungermadethemdesperate_5_LOOP:
        BYTE           N48     An2   v080
        BYTE   W96
// 002   ----------------------------------------
        BYTE   W96
// 003   ----------------------------------------
        BYTE   W96
// 004   ----------------------------------------
        BYTE   W96
// 005   ----------------------------------------
        BYTE                   An2
        BYTE   W96
// 006   ----------------------------------------
        BYTE   W96
// 007   ----------------------------------------
        BYTE   W96
// 008   ----------------------------------------
        BYTE   W96
// 009   ----------------------------------------
        BYTE                   An2
        BYTE   W96
// 010   ----------------------------------------
        BYTE   W96
// 011   ----------------------------------------
        BYTE   W96
// 012   ----------------------------------------
        BYTE   W96
// 013   ----------------------------------------
        BYTE                   An2
        BYTE   W96
// 014   ----------------------------------------
        BYTE   W96
// 015   ----------------------------------------
        BYTE   W96
// 016   ----------------------------------------
        BYTE   W96
// 017   ----------------------------------------
        BYTE                   An2
        BYTE   W96
// 018   ----------------------------------------
        BYTE   W96
// 019   ----------------------------------------
        BYTE   W96
// 020   ----------------------------------------
        BYTE   W96
// 021   ----------------------------------------
        BYTE                   An2
        BYTE   W96
// 022   ----------------------------------------
        BYTE   W96
// 023   ----------------------------------------
        BYTE   W96
// 024   ----------------------------------------
        BYTE   W96
// 025   ----------------------------------------
        BYTE                   An2
        BYTE   W96
// 026   ----------------------------------------
        BYTE   W96
// 027   ----------------------------------------
        BYTE   W96
// 028   ----------------------------------------
        BYTE   W96
// 029   ----------------------------------------
        BYTE                   An2
        BYTE   W96
// 030   ----------------------------------------
        BYTE   W96
// 031   ----------------------------------------
        BYTE   W96
// 032   ----------------------------------------
        BYTE   W96
// 033   ----------------------------------------
        BYTE                   An2
        BYTE   W96
// 034   ----------------------------------------
        BYTE   W96
// 035   ----------------------------------------
        BYTE   W96
// 036   ----------------------------------------
        BYTE   W96
// 037   ----------------------------------------
        BYTE                   An2
        BYTE   W96
// 038   ----------------------------------------
        BYTE   W96
// 039   ----------------------------------------
        BYTE   W96
// 040   ----------------------------------------
        BYTE   W96
// 041   ----------------------------------------
        BYTE                   An2
        BYTE   W96
// 042   ----------------------------------------
        BYTE   W96
// 043   ----------------------------------------
        BYTE   W96
// 044   ----------------------------------------
        BYTE   W96
// 045   ----------------------------------------
        BYTE                   An2
        BYTE   W96
// 046   ----------------------------------------
        BYTE   W96
// 047   ----------------------------------------
        BYTE   W96
// 048   ----------------------------------------
        BYTE   W96
// 049   ----------------------------------------
        BYTE                   An2
        BYTE   W96
// 050   ----------------------------------------
        BYTE   W96
// 051   ----------------------------------------
        BYTE   W96
// 052   ----------------------------------------
        BYTE   W96
// 053   ----------------------------------------
        BYTE                   An2
        BYTE   W96
// 054   ----------------------------------------
        BYTE   W96
// 055   ----------------------------------------
        BYTE   W96
// 056   ----------------------------------------
        BYTE   W96
// 057   ----------------------------------------
        BYTE                   An2
        BYTE   W96
// 058   ----------------------------------------
        BYTE   W96
// 059   ----------------------------------------
        BYTE   W96
// 060   ----------------------------------------
        BYTE   W96
// 061   ----------------------------------------
        BYTE                   An2
        BYTE   W96
// 062   ----------------------------------------
        BYTE   W96
// 063   ----------------------------------------
        BYTE   W96
// 064   ----------------------------------------
        BYTE   W96
// 065   ----------------------------------------
        BYTE                   An2
        BYTE   W96
// 066   ----------------------------------------
        BYTE   W96
// 067   ----------------------------------------
        BYTE   W96
// 068   ----------------------------------------
        BYTE   W96
// 069   ----------------------------------------
        BYTE                   An2
        BYTE   W96
// 070   ----------------------------------------
        BYTE   W96
// 071   ----------------------------------------
        BYTE   W96
// 072   ----------------------------------------
        BYTE   W96
// 073   ----------------------------------------
        BYTE                   An2
        BYTE   W96
// 074   ----------------------------------------
        BYTE   W96
// 075   ----------------------------------------
        BYTE   W96
// 076   ----------------------------------------
        BYTE   W96
// 077   ----------------------------------------
        BYTE                   An2
        BYTE   W96
// 078   ----------------------------------------
        BYTE   W96
// 079   ----------------------------------------
        BYTE   W96
// 080   ----------------------------------------
        BYTE           N01
        BYTE   W36
        BYTE                   An2
        BYTE   W36
        BYTE                   An2
        BYTE   W24
// 081   ----------------------------------------
        BYTE   GoTo
         POIN2  tf3hungermadethemdesperate_5_LOOP
        BYTE   FINE

//****************** Track 6 (Midi-Chn.6) ******************//

tf3hungermadethemdesperate_6:
        BYTE   KEYSH   tf3hungermadethemdesperate_key+0
// 000   ----------------------------------------
        BYTE           VOICE   124
        BYTE           VOL     46
        BYTE           N06     As1   v072
        BYTE           N06     Cn1   v127
        BYTE   W24
        BYTE                   Cn1
        BYTE   W24
        BYTE                   As1   v072
        BYTE           N06     Cn1   v127
        BYTE   W12
        BYTE                   Cn1
        BYTE   W06
        BYTE                   Cn1
        BYTE   W06
        BYTE                   Dn1   v117
        BYTE   W24
// 001   ----------------------------------------
tf3hungermadethemdesperate_6_LOOP:
        BYTE           N06     Cn1   v127
        BYTE   W24
        BYTE                   Dn1   v117
        BYTE   W24
        BYTE                   Cn1   v127
        BYTE   W12
        BYTE                   Cn1
        BYTE   W12
        BYTE                   Dn1   v117
        BYTE   W24
// 002   ----------------------------------------
tf3hungermadethemdesperate_6_2:
        BYTE           N06     Cn1   v127
        BYTE   W24
        BYTE                   Dn1   v117
        BYTE   W24
        BYTE                   Cn1   v127
        BYTE   W12
        BYTE                   Cn1
        BYTE   W06
        BYTE                   Cn1
        BYTE   W06
        BYTE                   Dn1   v117
        BYTE   W24
        BYTE   PEND
// 003   ----------------------------------------
tf3hungermadethemdesperate_6_3:
        BYTE           N06     Cn1   v127
        BYTE   W24
        BYTE                   Dn1   v117
        BYTE   W24
        BYTE                   Cn1   v127
        BYTE   W12
        BYTE                   Cn1
        BYTE   W12
        BYTE                   Dn1   v117
        BYTE   W24
        BYTE   PEND
// 004   ----------------------------------------
tf3hungermadethemdesperate_6_4:
        BYTE           N06     Cn1   v127
        BYTE   W24
        BYTE                   Dn1   v117
        BYTE   W24
        BYTE                   Cn1   v127
        BYTE   W12
        BYTE                   Cn1
        BYTE   W06
        BYTE                   Cn1
        BYTE   W06
        BYTE                   Cn2
        BYTE   W06
        BYTE                   Bn1
        BYTE   W06
        BYTE                   Gn1
        BYTE   W12
        BYTE   PEND
// 005   ----------------------------------------
        BYTE   PATT
         POIN2  tf3hungermadethemdesperate_6_3
// 006   ----------------------------------------
        BYTE   PATT
         POIN2  tf3hungermadethemdesperate_6_2
// 007   ----------------------------------------
        BYTE   PATT
         POIN2  tf3hungermadethemdesperate_6_3
// 008   ----------------------------------------
tf3hungermadethemdesperate_6_8:
        BYTE           N06     Cn1   v127
        BYTE   W24
        BYTE                   Dn1   v117
        BYTE   W24
        BYTE                   Cn2   v127
        BYTE   W06
        BYTE                   Cn2
        BYTE   W06
        BYTE                   Bn1
        BYTE   W06
        BYTE                   An1
        BYTE   W06
        BYTE                   Gn1
        BYTE   W06
        BYTE                   Gn1
        BYTE   W06
        BYTE                   Gn1
        BYTE   W06
        BYTE                   Gn1
        BYTE   W06
        BYTE   PEND
// 009   ----------------------------------------
        BYTE   PATT
         POIN2  tf3hungermadethemdesperate_6_3
// 010   ----------------------------------------
        BYTE   PATT
         POIN2  tf3hungermadethemdesperate_6_2
// 011   ----------------------------------------
        BYTE   PATT
         POIN2  tf3hungermadethemdesperate_6_3
// 012   ----------------------------------------
        BYTE   PATT
         POIN2  tf3hungermadethemdesperate_6_4
// 013   ----------------------------------------
        BYTE   PATT
         POIN2  tf3hungermadethemdesperate_6_3
// 014   ----------------------------------------
        BYTE   PATT
         POIN2  tf3hungermadethemdesperate_6_2
// 015   ----------------------------------------
        BYTE   PATT
         POIN2  tf3hungermadethemdesperate_6_3
// 016   ----------------------------------------
        BYTE           N06     Dn1   v127
        BYTE   W12
        BYTE                   Dn1
        BYTE   W12
        BYTE                   Dn1   v117
        BYTE   W12
        BYTE                   Dn1   v127
        BYTE   W12
        BYTE                   Cn2
        BYTE   W06
        BYTE                   Cn2
        BYTE   W06
        BYTE                   Bn1
        BYTE   W06
        BYTE                   An1
        BYTE   W06
        BYTE                   Gn1
        BYTE   W06
        BYTE                   Gn1
        BYTE   W06
        BYTE                   Gn1
        BYTE   W06
        BYTE                   Gn1
        BYTE   W06
// 017   ----------------------------------------
        BYTE   PATT
         POIN2  tf3hungermadethemdesperate_6_3
// 018   ----------------------------------------
        BYTE   PATT
         POIN2  tf3hungermadethemdesperate_6_2
// 019   ----------------------------------------
        BYTE   PATT
         POIN2  tf3hungermadethemdesperate_6_3
// 020   ----------------------------------------
        BYTE   PATT
         POIN2  tf3hungermadethemdesperate_6_4
// 021   ----------------------------------------
        BYTE   PATT
         POIN2  tf3hungermadethemdesperate_6_3
// 022   ----------------------------------------
        BYTE   PATT
         POIN2  tf3hungermadethemdesperate_6_2
// 023   ----------------------------------------
        BYTE   PATT
         POIN2  tf3hungermadethemdesperate_6_3
// 024   ----------------------------------------
        BYTE   PATT
         POIN2  tf3hungermadethemdesperate_6_8
// 025   ----------------------------------------
        BYTE   PATT
         POIN2  tf3hungermadethemdesperate_6_3
// 026   ----------------------------------------
        BYTE   PATT
         POIN2  tf3hungermadethemdesperate_6_2
// 027   ----------------------------------------
        BYTE   PATT
         POIN2  tf3hungermadethemdesperate_6_3
// 028   ----------------------------------------
        BYTE   PATT
         POIN2  tf3hungermadethemdesperate_6_4
// 029   ----------------------------------------
        BYTE   PATT
         POIN2  tf3hungermadethemdesperate_6_3
// 030   ----------------------------------------
        BYTE   PATT
         POIN2  tf3hungermadethemdesperate_6_2
// 031   ----------------------------------------
        BYTE   PATT
         POIN2  tf3hungermadethemdesperate_6_3
// 032   ----------------------------------------
tf3hungermadethemdesperate_6_32:
        BYTE           N06     Cn1   v127
        BYTE   W24
        BYTE                   Dn1   v117
        BYTE   W24
        BYTE                   Dn1
        BYTE   W06
        BYTE                   Dn1   v107
        BYTE   W06
        BYTE                   Dn1
        BYTE   W06
        BYTE                   Dn1
        BYTE   W06
        BYTE                   Dn1   v117
        BYTE   W06
        BYTE                   Dn1   v107
        BYTE   W06
        BYTE                   Dn1
        BYTE   W06
        BYTE                   Dn1   v117
        BYTE   W06
        BYTE   PEND
// 033   ----------------------------------------
        BYTE   PATT
         POIN2  tf3hungermadethemdesperate_6_3
// 034   ----------------------------------------
        BYTE   PATT
         POIN2  tf3hungermadethemdesperate_6_2
// 035   ----------------------------------------
        BYTE   PATT
         POIN2  tf3hungermadethemdesperate_6_3
// 036   ----------------------------------------
        BYTE   PATT
         POIN2  tf3hungermadethemdesperate_6_4
// 037   ----------------------------------------
        BYTE   PATT
         POIN2  tf3hungermadethemdesperate_6_3
// 038   ----------------------------------------
        BYTE   PATT
         POIN2  tf3hungermadethemdesperate_6_2
// 039   ----------------------------------------
        BYTE   PATT
         POIN2  tf3hungermadethemdesperate_6_3
// 040   ----------------------------------------
        BYTE   PATT
         POIN2  tf3hungermadethemdesperate_6_8
// 041   ----------------------------------------
        BYTE   PATT
         POIN2  tf3hungermadethemdesperate_6_3
// 042   ----------------------------------------
        BYTE   PATT
         POIN2  tf3hungermadethemdesperate_6_2
// 043   ----------------------------------------
        BYTE   PATT
         POIN2  tf3hungermadethemdesperate_6_3
// 044   ----------------------------------------
        BYTE   PATT
         POIN2  tf3hungermadethemdesperate_6_4
// 045   ----------------------------------------
        BYTE   PATT
         POIN2  tf3hungermadethemdesperate_6_3
// 046   ----------------------------------------
        BYTE   PATT
         POIN2  tf3hungermadethemdesperate_6_2
// 047   ----------------------------------------
        BYTE   PATT
         POIN2  tf3hungermadethemdesperate_6_3
// 048   ----------------------------------------
        BYTE   PATT
         POIN2  tf3hungermadethemdesperate_6_32
// 049   ----------------------------------------
        BYTE   PATT
         POIN2  tf3hungermadethemdesperate_6_3
// 050   ----------------------------------------
        BYTE   PATT
         POIN2  tf3hungermadethemdesperate_6_2
// 051   ----------------------------------------
        BYTE   PATT
         POIN2  tf3hungermadethemdesperate_6_3
// 052   ----------------------------------------
        BYTE   PATT
         POIN2  tf3hungermadethemdesperate_6_4
// 053   ----------------------------------------
        BYTE   PATT
         POIN2  tf3hungermadethemdesperate_6_3
// 054   ----------------------------------------
        BYTE   PATT
         POIN2  tf3hungermadethemdesperate_6_2
// 055   ----------------------------------------
        BYTE   PATT
         POIN2  tf3hungermadethemdesperate_6_3
// 056   ----------------------------------------
        BYTE   PATT
         POIN2  tf3hungermadethemdesperate_6_8
// 057   ----------------------------------------
        BYTE   PATT
         POIN2  tf3hungermadethemdesperate_6_3
// 058   ----------------------------------------
        BYTE   PATT
         POIN2  tf3hungermadethemdesperate_6_2
// 059   ----------------------------------------
        BYTE   PATT
         POIN2  tf3hungermadethemdesperate_6_3
// 060   ----------------------------------------
        BYTE   PATT
         POIN2  tf3hungermadethemdesperate_6_4
// 061   ----------------------------------------
        BYTE   PATT
         POIN2  tf3hungermadethemdesperate_6_3
// 062   ----------------------------------------
        BYTE   PATT
         POIN2  tf3hungermadethemdesperate_6_2
// 063   ----------------------------------------
        BYTE   PATT
         POIN2  tf3hungermadethemdesperate_6_3
// 064   ----------------------------------------
        BYTE   PATT
         POIN2  tf3hungermadethemdesperate_6_32
// 065   ----------------------------------------
        BYTE   PATT
         POIN2  tf3hungermadethemdesperate_6_3
// 066   ----------------------------------------
        BYTE   PATT
         POIN2  tf3hungermadethemdesperate_6_2
// 067   ----------------------------------------
        BYTE   PATT
         POIN2  tf3hungermadethemdesperate_6_3
// 068   ----------------------------------------
        BYTE   PATT
         POIN2  tf3hungermadethemdesperate_6_4
// 069   ----------------------------------------
        BYTE   PATT
         POIN2  tf3hungermadethemdesperate_6_3
// 070   ----------------------------------------
        BYTE   PATT
         POIN2  tf3hungermadethemdesperate_6_2
// 071   ----------------------------------------
        BYTE   PATT
         POIN2  tf3hungermadethemdesperate_6_3
// 072   ----------------------------------------
        BYTE   PATT
         POIN2  tf3hungermadethemdesperate_6_8
// 073   ----------------------------------------
        BYTE   PATT
         POIN2  tf3hungermadethemdesperate_6_3
// 074   ----------------------------------------
        BYTE   PATT
         POIN2  tf3hungermadethemdesperate_6_2
// 075   ----------------------------------------
        BYTE   PATT
         POIN2  tf3hungermadethemdesperate_6_3
// 076   ----------------------------------------
        BYTE   PATT
         POIN2  tf3hungermadethemdesperate_6_4
// 077   ----------------------------------------
        BYTE   PATT
         POIN2  tf3hungermadethemdesperate_6_3
// 078   ----------------------------------------
        BYTE   PATT
         POIN2  tf3hungermadethemdesperate_6_2
// 079   ----------------------------------------
        BYTE   PATT
         POIN2  tf3hungermadethemdesperate_6_3
// 080   ----------------------------------------
        BYTE           N06     Dn1   v117
        BYTE   W12
        BYTE                   Cn1   v127
        BYTE   W12
        BYTE                   Cn1
        BYTE   W12
        BYTE                   Dn1   v117
        BYTE   W12
        BYTE                   Cn1   v127
        BYTE   W12
        BYTE                   Cn1
        BYTE   W12
        BYTE                   Dn1   v117
        BYTE   W12
        BYTE                   Cn1   v127
        BYTE   W12
// 081   ----------------------------------------
        BYTE   GoTo
         POIN2  tf3hungermadethemdesperate_6_LOOP
        BYTE   FINE

//****************** Track 7 (Midi-Chn.7) ******************//

tf3hungermadethemdesperate_7:
        BYTE   KEYSH   tf3hungermadethemdesperate_key+0
// 000   ----------------------------------------
        BYTE           VOICE   124
        BYTE           PAN     c_v-8
        BYTE           VOL     46
        BYTE   W96
// 001   ----------------------------------------
tf3hungermadethemdesperate_7_LOOP:
        BYTE           N06     Fs1   v056
        BYTE   W12
        BYTE                   Fs1
        BYTE   W06
        BYTE                   Fs1
        BYTE   W06
        BYTE                   Fs1
        BYTE   W12
        BYTE                   Fs1
        BYTE   W06
        BYTE                   Fs1
        BYTE   W06
        BYTE                   Fs1
        BYTE   W12
        BYTE                   Fs1
        BYTE   W06
        BYTE                   Fs1
        BYTE   W06
        BYTE                   Fs1
        BYTE   W12
        BYTE                   Fs1
        BYTE   W06
        BYTE                   Fs1
        BYTE   W06
// 002   ----------------------------------------
tf3hungermadethemdesperate_7_2:
        BYTE           N06     Fs1   v056
        BYTE   W12
        BYTE                   Fs1
        BYTE   W06
        BYTE                   Fs1
        BYTE   W06
        BYTE                   Fs1
        BYTE   W12
        BYTE                   Fs1
        BYTE   W06
        BYTE                   Fs1
        BYTE   W06
        BYTE                   Fs1
        BYTE   W12
        BYTE                   Fs1
        BYTE   W06
        BYTE                   Fs1
        BYTE   W06
        BYTE                   Fs1
        BYTE   W12
        BYTE                   Fs1
        BYTE   W06
        BYTE                   Fs1
        BYTE   W06
        BYTE   PEND
// 003   ----------------------------------------
        BYTE   PATT
         POIN2  tf3hungermadethemdesperate_7_2
// 004   ----------------------------------------
        BYTE   PATT
         POIN2  tf3hungermadethemdesperate_7_2
// 005   ----------------------------------------
        BYTE   PATT
         POIN2  tf3hungermadethemdesperate_7_2
// 006   ----------------------------------------
        BYTE   PATT
         POIN2  tf3hungermadethemdesperate_7_2
// 007   ----------------------------------------
        BYTE   PATT
         POIN2  tf3hungermadethemdesperate_7_2
// 008   ----------------------------------------
        BYTE           N06     Fs1   v056
        BYTE   W12
        BYTE                   Fs1
        BYTE   W06
        BYTE                   Fs1
        BYTE   W06
        BYTE                   Fs1
        BYTE   W12
        BYTE                   Fs1
        BYTE   W06
        BYTE                   Fs1
        BYTE   W06
        BYTE                   Fs1
        BYTE   W12
        BYTE           N01
        BYTE   W06
        BYTE                   Fs1
        BYTE   W06
        BYTE                   Fs1
        BYTE   W12
        BYTE                   Fs1
        BYTE   W06
        BYTE                   Fs1
        BYTE   W06
// 009   ----------------------------------------
tf3hungermadethemdesperate_7_9:
        BYTE           N01     Fs1   v056
        BYTE   W12
        BYTE                   Fs1
        BYTE   W06
        BYTE                   Fs1
        BYTE   W06
        BYTE                   Fs1
        BYTE   W12
        BYTE                   Fs1
        BYTE   W06
        BYTE                   Fs1
        BYTE   W06
        BYTE                   Fs1
        BYTE   W12
        BYTE                   Fs1
        BYTE   W06
        BYTE                   Fs1
        BYTE   W06
        BYTE                   Fs1
        BYTE   W12
        BYTE                   Fs1
        BYTE   W06
        BYTE                   Fs1
        BYTE   W06
        BYTE   PEND
// 010   ----------------------------------------
        BYTE   PATT
         POIN2  tf3hungermadethemdesperate_7_9
// 011   ----------------------------------------
        BYTE   PATT
         POIN2  tf3hungermadethemdesperate_7_9
// 012   ----------------------------------------
        BYTE   PATT
         POIN2  tf3hungermadethemdesperate_7_9
// 013   ----------------------------------------
        BYTE   PATT
         POIN2  tf3hungermadethemdesperate_7_9
// 014   ----------------------------------------
        BYTE   PATT
         POIN2  tf3hungermadethemdesperate_7_9
// 015   ----------------------------------------
        BYTE   PATT
         POIN2  tf3hungermadethemdesperate_7_9
// 016   ----------------------------------------
        BYTE   PATT
         POIN2  tf3hungermadethemdesperate_7_9
// 017   ----------------------------------------
        BYTE   PATT
         POIN2  tf3hungermadethemdesperate_7_9
// 018   ----------------------------------------
        BYTE   PATT
         POIN2  tf3hungermadethemdesperate_7_9
// 019   ----------------------------------------
        BYTE   PATT
         POIN2  tf3hungermadethemdesperate_7_9
// 020   ----------------------------------------
        BYTE   PATT
         POIN2  tf3hungermadethemdesperate_7_9
// 021   ----------------------------------------
        BYTE   PATT
         POIN2  tf3hungermadethemdesperate_7_9
// 022   ----------------------------------------
        BYTE   PATT
         POIN2  tf3hungermadethemdesperate_7_9
// 023   ----------------------------------------
        BYTE   PATT
         POIN2  tf3hungermadethemdesperate_7_9
// 024   ----------------------------------------
        BYTE   PATT
         POIN2  tf3hungermadethemdesperate_7_9
// 025   ----------------------------------------
        BYTE   PATT
         POIN2  tf3hungermadethemdesperate_7_9
// 026   ----------------------------------------
        BYTE   PATT
         POIN2  tf3hungermadethemdesperate_7_9
// 027   ----------------------------------------
        BYTE   PATT
         POIN2  tf3hungermadethemdesperate_7_9
// 028   ----------------------------------------
        BYTE   PATT
         POIN2  tf3hungermadethemdesperate_7_9
// 029   ----------------------------------------
        BYTE   PATT
         POIN2  tf3hungermadethemdesperate_7_9
// 030   ----------------------------------------
        BYTE   PATT
         POIN2  tf3hungermadethemdesperate_7_9
// 031   ----------------------------------------
        BYTE   PATT
         POIN2  tf3hungermadethemdesperate_7_9
// 032   ----------------------------------------
        BYTE   PATT
         POIN2  tf3hungermadethemdesperate_7_9
// 033   ----------------------------------------
        BYTE   PATT
         POIN2  tf3hungermadethemdesperate_7_9
// 034   ----------------------------------------
        BYTE   PATT
         POIN2  tf3hungermadethemdesperate_7_9
// 035   ----------------------------------------
        BYTE   PATT
         POIN2  tf3hungermadethemdesperate_7_9
// 036   ----------------------------------------
        BYTE   PATT
         POIN2  tf3hungermadethemdesperate_7_9
// 037   ----------------------------------------
        BYTE   PATT
         POIN2  tf3hungermadethemdesperate_7_9
// 038   ----------------------------------------
        BYTE   PATT
         POIN2  tf3hungermadethemdesperate_7_9
// 039   ----------------------------------------
        BYTE   PATT
         POIN2  tf3hungermadethemdesperate_7_9
// 040   ----------------------------------------
        BYTE   PATT
         POIN2  tf3hungermadethemdesperate_7_9
// 041   ----------------------------------------
        BYTE   PATT
         POIN2  tf3hungermadethemdesperate_7_9
// 042   ----------------------------------------
        BYTE   PATT
         POIN2  tf3hungermadethemdesperate_7_9
// 043   ----------------------------------------
        BYTE   PATT
         POIN2  tf3hungermadethemdesperate_7_9
// 044   ----------------------------------------
        BYTE   PATT
         POIN2  tf3hungermadethemdesperate_7_9
// 045   ----------------------------------------
        BYTE   PATT
         POIN2  tf3hungermadethemdesperate_7_9
// 046   ----------------------------------------
        BYTE   PATT
         POIN2  tf3hungermadethemdesperate_7_9
// 047   ----------------------------------------
        BYTE   PATT
         POIN2  tf3hungermadethemdesperate_7_9
// 048   ----------------------------------------
        BYTE   PATT
         POIN2  tf3hungermadethemdesperate_7_9
// 049   ----------------------------------------
        BYTE   PATT
         POIN2  tf3hungermadethemdesperate_7_9
// 050   ----------------------------------------
        BYTE   PATT
         POIN2  tf3hungermadethemdesperate_7_9
// 051   ----------------------------------------
        BYTE   PATT
         POIN2  tf3hungermadethemdesperate_7_9
// 052   ----------------------------------------
        BYTE   PATT
         POIN2  tf3hungermadethemdesperate_7_9
// 053   ----------------------------------------
        BYTE   PATT
         POIN2  tf3hungermadethemdesperate_7_9
// 054   ----------------------------------------
        BYTE   PATT
         POIN2  tf3hungermadethemdesperate_7_9
// 055   ----------------------------------------
        BYTE   PATT
         POIN2  tf3hungermadethemdesperate_7_9
// 056   ----------------------------------------
        BYTE   PATT
         POIN2  tf3hungermadethemdesperate_7_9
// 057   ----------------------------------------
        BYTE   PATT
         POIN2  tf3hungermadethemdesperate_7_9
// 058   ----------------------------------------
        BYTE   PATT
         POIN2  tf3hungermadethemdesperate_7_9
// 059   ----------------------------------------
        BYTE   PATT
         POIN2  tf3hungermadethemdesperate_7_9
// 060   ----------------------------------------
        BYTE   PATT
         POIN2  tf3hungermadethemdesperate_7_9
// 061   ----------------------------------------
        BYTE   PATT
         POIN2  tf3hungermadethemdesperate_7_9
// 062   ----------------------------------------
        BYTE   PATT
         POIN2  tf3hungermadethemdesperate_7_9
// 063   ----------------------------------------
        BYTE   PATT
         POIN2  tf3hungermadethemdesperate_7_9
// 064   ----------------------------------------
        BYTE   PATT
         POIN2  tf3hungermadethemdesperate_7_9
// 065   ----------------------------------------
        BYTE   PATT
         POIN2  tf3hungermadethemdesperate_7_9
// 066   ----------------------------------------
        BYTE   PATT
         POIN2  tf3hungermadethemdesperate_7_9
// 067   ----------------------------------------
        BYTE   PATT
         POIN2  tf3hungermadethemdesperate_7_9
// 068   ----------------------------------------
        BYTE   PATT
         POIN2  tf3hungermadethemdesperate_7_9
// 069   ----------------------------------------
        BYTE   PATT
         POIN2  tf3hungermadethemdesperate_7_9
// 070   ----------------------------------------
        BYTE   PATT
         POIN2  tf3hungermadethemdesperate_7_9
// 071   ----------------------------------------
        BYTE   PATT
         POIN2  tf3hungermadethemdesperate_7_9
// 072   ----------------------------------------
        BYTE   PATT
         POIN2  tf3hungermadethemdesperate_7_9
// 073   ----------------------------------------
        BYTE   PATT
         POIN2  tf3hungermadethemdesperate_7_9
// 074   ----------------------------------------
        BYTE   PATT
         POIN2  tf3hungermadethemdesperate_7_9
// 075   ----------------------------------------
        BYTE   PATT
         POIN2  tf3hungermadethemdesperate_7_9
// 076   ----------------------------------------
        BYTE   PATT
         POIN2  tf3hungermadethemdesperate_7_9
// 077   ----------------------------------------
        BYTE   PATT
         POIN2  tf3hungermadethemdesperate_7_9
// 078   ----------------------------------------
        BYTE   PATT
         POIN2  tf3hungermadethemdesperate_7_9
// 079   ----------------------------------------
        BYTE   PATT
         POIN2  tf3hungermadethemdesperate_7_9
// 080   ----------------------------------------
        BYTE   PATT
         POIN2  tf3hungermadethemdesperate_7_9
// 081   ----------------------------------------
        BYTE   GoTo
         POIN2  tf3hungermadethemdesperate_7_LOOP
        BYTE   FINE


//********************** End of Song ***********************//

        ALIGN 4
tf3hungermadethemdesperate:
        BYTE   8                       // Num Tracks
        BYTE   0                       // Unknown
        BYTE   tf3hungermadethemdesperate_pri // Priority
        BYTE   tf3hungermadethemdesperate_rev // Reverb

        POIN2   tf3hungermadethemdesperate_grp

        POIN2   tf3hungermadethemdesperate_0
        POIN2   tf3hungermadethemdesperate_1
        POIN2   tf3hungermadethemdesperate_2
        POIN2   tf3hungermadethemdesperate_3
        POIN2   tf3hungermadethemdesperate_4
        POIN2   tf3hungermadethemdesperate_5
        POIN2   tf3hungermadethemdesperate_6
        POIN2   tf3hungermadethemdesperate_7

        
