//Event file generated from Sappy .s format.
        #include "MPlayDef.event"

        #define    tf3thegrubbybluedark_grp  MusicVoices
        #define    tf3thegrubbybluedark_pri  0
        #define    tf3thegrubbybluedark_rev  0x80
        #define    tf3thegrubbybluedark_key  0

        // .rodata
        // tf3thegrubbybluedark
        ALIGN 4

//****************** Track 0 (Midi-Chn.0) ******************//

tf3thegrubbybluedark_0:
        BYTE   KEYSH   tf3thegrubbybluedark_key+0
// 000   ----------------------------------------
        BYTE   TEMPO   160/2
        BYTE           VOICE   39
        BYTE           VOL     40
        BYTE           BENDR   24
        BYTE           N96     An1   v100
        BYTE   W96
// 001   ----------------------------------------
        BYTE           N24
        BYTE   W24
        BYTE                   An1
        BYTE   W24
        BYTE                   An1
        BYTE   W24
        BYTE                   An1
        BYTE   W24
// 002   ----------------------------------------
tf3thegrubbybluedark_0_LOOP:
        BYTE           N12     An1   v100
        BYTE   W12
        BYTE           N06     An2
        BYTE   W12
        BYTE           N12     An1
        BYTE   W12
        BYTE           N06     An2
        BYTE   W12
        BYTE           N12     An1
        BYTE   W12
        BYTE           N06     An2
        BYTE   W12
        BYTE           N12     An1
        BYTE   W12
        BYTE           N06     An2
        BYTE   W12
// 003   ----------------------------------------
tf3thegrubbybluedark_0_3:
        BYTE           N12     An1   v100
        BYTE   W12
        BYTE           N06     An2
        BYTE   W12
        BYTE           N12     An1
        BYTE   W12
        BYTE           N06     An2
        BYTE   W12
        BYTE           N12     An1
        BYTE   W12
        BYTE           N06     An2
        BYTE   W12
        BYTE           N12     Gn1
        BYTE   W12
        BYTE           N06     Gn2
        BYTE   W12
        BYTE   PEND
// 004   ----------------------------------------
tf3thegrubbybluedark_0_4:
        BYTE           N12     Fn1   v100
        BYTE   W12
        BYTE           N06     Fn2
        BYTE   W12
        BYTE           N12     Fn1
        BYTE   W12
        BYTE           N06     Fn2
        BYTE   W12
        BYTE           N12     Fn1
        BYTE   W12
        BYTE           N06     Fn2
        BYTE   W12
        BYTE           N12     Fn1
        BYTE   W12
        BYTE           N06     Fn2
        BYTE   W12
        BYTE   PEND
// 005   ----------------------------------------
tf3thegrubbybluedark_0_5:
        BYTE           N12     Fn1   v100
        BYTE   W12
        BYTE           N06     Fn2
        BYTE   W12
        BYTE           N12     Fn1
        BYTE   W12
        BYTE           N06     Fn2
        BYTE   W12
        BYTE           N12     Fn1
        BYTE   W12
        BYTE           N06     Fn2
        BYTE   W12
        BYTE           N12     Gn1
        BYTE   W12
        BYTE           N06     Gn2
        BYTE   W12
        BYTE   PEND
// 006   ----------------------------------------
tf3thegrubbybluedark_0_6:
        BYTE           N12     An1   v100
        BYTE   W12
        BYTE           N06     An2
        BYTE   W12
        BYTE           N12     An1
        BYTE   W12
        BYTE           N06     An2
        BYTE   W12
        BYTE           N12     An1
        BYTE   W12
        BYTE           N06     An2
        BYTE   W12
        BYTE           N12     An1
        BYTE   W12
        BYTE           N06     An2
        BYTE   W12
        BYTE   PEND
// 007   ----------------------------------------
        BYTE   PATT
         POIN2  tf3thegrubbybluedark_0_3
// 008   ----------------------------------------
        BYTE   PATT
         POIN2  tf3thegrubbybluedark_0_4
// 009   ----------------------------------------
        BYTE   PATT
         POIN2  tf3thegrubbybluedark_0_5
// 010   ----------------------------------------
        BYTE   PATT
         POIN2  tf3thegrubbybluedark_0_6
// 011   ----------------------------------------
        BYTE   PATT
         POIN2  tf3thegrubbybluedark_0_6
// 012   ----------------------------------------
        BYTE   PATT
         POIN2  tf3thegrubbybluedark_0_6
// 013   ----------------------------------------
        BYTE   PATT
         POIN2  tf3thegrubbybluedark_0_6
// 014   ----------------------------------------
        BYTE   PATT
         POIN2  tf3thegrubbybluedark_0_6
// 015   ----------------------------------------
        BYTE   PATT
         POIN2  tf3thegrubbybluedark_0_3
// 016   ----------------------------------------
        BYTE   PATT
         POIN2  tf3thegrubbybluedark_0_4
// 017   ----------------------------------------
tf3thegrubbybluedark_0_17:
        BYTE           N12     Fn1   v100
        BYTE   W12
        BYTE           N06     Fn2
        BYTE   W12
        BYTE           N12     Fn1
        BYTE   W12
        BYTE           N06     Fn2
        BYTE   W12
        BYTE           N12     Fn1
        BYTE   W12
        BYTE           N06     Fn2
        BYTE   W12
        BYTE           N12     En1
        BYTE   W12
        BYTE           N06     En2
        BYTE   W12
        BYTE   PEND
// 018   ----------------------------------------
tf3thegrubbybluedark_0_18:
        BYTE           N12     Dn1   v100
        BYTE   W12
        BYTE           N06     Dn2
        BYTE   W12
        BYTE           N12     Dn1
        BYTE   W12
        BYTE           N06     Dn2
        BYTE   W12
        BYTE           N12     Dn1
        BYTE   W12
        BYTE           N06     Dn2
        BYTE   W12
        BYTE           N12     Dn1
        BYTE   W12
        BYTE           N06     Dn2
        BYTE   W12
        BYTE   PEND
// 019   ----------------------------------------
        BYTE   PATT
         POIN2  tf3thegrubbybluedark_0_18
// 020   ----------------------------------------
tf3thegrubbybluedark_0_20:
        BYTE           N12     En1   v100
        BYTE   W12
        BYTE           N06     En2
        BYTE   W12
        BYTE           N12     En1
        BYTE   W12
        BYTE           N06     En2
        BYTE   W12
        BYTE           N12     En1
        BYTE   W12
        BYTE           N06     En2
        BYTE   W12
        BYTE           N12     En1
        BYTE   W12
        BYTE           N06     En2
        BYTE   W12
        BYTE   PEND
// 021   ----------------------------------------
        BYTE           N12     En1
        BYTE   W12
        BYTE           N06     En2
        BYTE   W12
        BYTE           N12     En1
        BYTE   W12
        BYTE           N06     En2
        BYTE   W12
        BYTE           N12     Fs1
        BYTE   W12
        BYTE           N06     Fs2
        BYTE   W12
        BYTE           N12     Gs1
        BYTE   W12
        BYTE           N06     Gs2
        BYTE   W12
// 022   ----------------------------------------
        BYTE   PATT
         POIN2  tf3thegrubbybluedark_0_6
// 023   ----------------------------------------
        BYTE   PATT
         POIN2  tf3thegrubbybluedark_0_3
// 024   ----------------------------------------
        BYTE   PATT
         POIN2  tf3thegrubbybluedark_0_4
// 025   ----------------------------------------
        BYTE   PATT
         POIN2  tf3thegrubbybluedark_0_17
// 026   ----------------------------------------
        BYTE   PATT
         POIN2  tf3thegrubbybluedark_0_18
// 027   ----------------------------------------
        BYTE   PATT
         POIN2  tf3thegrubbybluedark_0_20
// 028   ----------------------------------------
        BYTE           N12     An1   v100
        BYTE   W12
        BYTE           N06     An2   v125
        BYTE   W12
        BYTE           N12     An1
        BYTE   W12
        BYTE           N06     An2
        BYTE   W12
        BYTE           N12     An1
        BYTE   W12
        BYTE           N06     An2
        BYTE   W12
        BYTE           N12     An1
        BYTE   W12
        BYTE           N06     An2
        BYTE   W12
// 029   ----------------------------------------
tf3thegrubbybluedark_0_29:
        BYTE           N12     An1   v125
        BYTE   W12
        BYTE           N06     An2
        BYTE   W12
        BYTE           N12     An1
        BYTE   W12
        BYTE           N06     An2
        BYTE   W12
        BYTE           N12     An1
        BYTE   W12
        BYTE           N06     An2
        BYTE   W12
        BYTE           N12     An1
        BYTE   W12
        BYTE           N06     An2
        BYTE   W12
        BYTE   PEND
// 030   ----------------------------------------
tf3thegrubbybluedark_0_30:
        BYTE           N12     Gn1   v125
        BYTE   W12
        BYTE           N06     Gn2
        BYTE   W12
        BYTE           N12     Gn1
        BYTE   W12
        BYTE           N06     Gn2
        BYTE   W12
        BYTE           N12     Gn1
        BYTE   W12
        BYTE           N06     Gn2
        BYTE   W12
        BYTE           N12     Gn1
        BYTE   W12
        BYTE           N06     Gn2
        BYTE   W12
        BYTE   PEND
// 031   ----------------------------------------
        BYTE   PATT
         POIN2  tf3thegrubbybluedark_0_30
// 032   ----------------------------------------
tf3thegrubbybluedark_0_32:
        BYTE           N12     Fn1   v125
        BYTE   W12
        BYTE           N06     Fn2
        BYTE   W12
        BYTE           N12     Fn1
        BYTE   W12
        BYTE           N06     Fn2
        BYTE   W12
        BYTE           N12     Fn1
        BYTE   W12
        BYTE           N06     Fn2
        BYTE   W12
        BYTE           N12     Fn1
        BYTE   W12
        BYTE           N06     Fn2
        BYTE   W12
        BYTE   PEND
// 033   ----------------------------------------
tf3thegrubbybluedark_0_33:
        BYTE           N12     En1   v125
        BYTE   W12
        BYTE           N06     En2
        BYTE   W12
        BYTE           N12     En1
        BYTE   W12
        BYTE           N06     En2
        BYTE   W12
        BYTE           N12     En1
        BYTE   W12
        BYTE           N06     En2
        BYTE   W12
        BYTE           N12     En1
        BYTE   W12
        BYTE           N06     En2
        BYTE   W12
        BYTE   PEND
// 034   ----------------------------------------
        BYTE   PATT
         POIN2  tf3thegrubbybluedark_0_30
// 035   ----------------------------------------
        BYTE   PATT
         POIN2  tf3thegrubbybluedark_0_30
// 036   ----------------------------------------
        BYTE   PATT
         POIN2  tf3thegrubbybluedark_0_32
// 037   ----------------------------------------
        BYTE   PATT
         POIN2  tf3thegrubbybluedark_0_33
// 038   ----------------------------------------
        BYTE   PATT
         POIN2  tf3thegrubbybluedark_0_32
// 039   ----------------------------------------
        BYTE   PATT
         POIN2  tf3thegrubbybluedark_0_30
// 040   ----------------------------------------
        BYTE   PATT
         POIN2  tf3thegrubbybluedark_0_29
// 041   ----------------------------------------
        BYTE   PATT
         POIN2  tf3thegrubbybluedark_0_29
// 042   ----------------------------------------
tf3thegrubbybluedark_0_42:
        BYTE           N12     An1   v125
        BYTE   W12
        BYTE           N06     An2
        BYTE   W12
        BYTE           N12     An1
        BYTE   W12
        BYTE           N06     An2
        BYTE   W12
        BYTE           N12     Gn1
        BYTE   W12
        BYTE           N06     Gn2
        BYTE   W12
        BYTE           N12     Gn1
        BYTE   W12
        BYTE           N06     Gn2
        BYTE   W12
        BYTE   PEND
// 043   ----------------------------------------
        BYTE           N12     Fn1
        BYTE   W12
        BYTE           N06     Fn2
        BYTE   W12
        BYTE           N12     Fn1
        BYTE   W12
        BYTE           N06     Fn2
        BYTE   W12
        BYTE           N12     Dn1
        BYTE   W12
        BYTE           N06     Dn2
        BYTE   W12
        BYTE           N12     En1
        BYTE   W12
        BYTE           N06     En2
        BYTE   W12
// 044   ----------------------------------------
        BYTE   PATT
         POIN2  tf3thegrubbybluedark_0_42
// 045   ----------------------------------------
        BYTE           N12     Fn1   v125
        BYTE   W12
        BYTE           N06     Fn2
        BYTE   W12
        BYTE           N12     Fn1
        BYTE   W12
        BYTE           N06     Fn2
        BYTE   W12
        BYTE           N12     Gn1
        BYTE   W12
        BYTE           N06     Gn2
        BYTE   W12
        BYTE           N12     Gs1
        BYTE   W12
        BYTE           N06     Gs2
        BYTE   W12
// 046   ----------------------------------------
        BYTE   PATT
         POIN2  tf3thegrubbybluedark_0_29
// 047   ----------------------------------------
        BYTE   PATT
         POIN2  tf3thegrubbybluedark_0_29
// 048   ----------------------------------------
        BYTE   GoTo
         POIN2  tf3thegrubbybluedark_0_LOOP
        BYTE   FINE

//****************** Track 1 (Midi-Chn.1) ******************//

tf3thegrubbybluedark_1:
        BYTE   KEYSH   tf3thegrubbybluedark_key+0
// 000   ----------------------------------------
        BYTE           VOICE   62
        BYTE           0xCD   0x08 0x20
        BYTE           0xCD   0x09 0x10
        BYTE           VOL     42
        BYTE           BENDR   16
        BYTE           PAN     c_v-20
        BYTE   W96
// 001   ----------------------------------------
        BYTE   W96
// 002   ----------------------------------------
tf3thegrubbybluedark_1_LOOP:
        BYTE           TIE     An3   v115
        BYTE   W96
// 003   ----------------------------------------
        BYTE   W48
        BYTE           EOT
        BYTE           N12
        BYTE   W12
        BYTE                   Bn3
        BYTE   W24
        BYTE           TIE     Cn4
        BYTE   W12
// 004   ----------------------------------------
        BYTE   W96
// 005   ----------------------------------------
        BYTE   W48
        BYTE           EOT
        BYTE           N12
        BYTE   W12
        BYTE                   Dn4
        BYTE   W24
        BYTE           TIE     En4
        BYTE   W12
// 006   ----------------------------------------
        BYTE   W96
// 007   ----------------------------------------
        BYTE   W36
        BYTE           EOT
        BYTE           N48     Fn4
        BYTE   W48
        BYTE           N96     Gn4
        BYTE   W12
// 008   ----------------------------------------
        BYTE   W84
        BYTE           TIE     An4
        BYTE   W12
// 009   ----------------------------------------
        BYTE   W96
// 010   ----------------------------------------
        BYTE           EOT
        BYTE   W96
// 011   ----------------------------------------
        BYTE   W96
// 012   ----------------------------------------
        BYTE   W96
// 013   ----------------------------------------
        BYTE   W96
// 014   ----------------------------------------
tf3thegrubbybluedark_1_14:
        BYTE           N32     En3   v096   gtp3
        BYTE   W36
        BYTE                   An3
        BYTE   W36
        BYTE           N23     Gn3
        BYTE   W24
        BYTE   PEND
// 015   ----------------------------------------
        BYTE   PATT
         POIN2  tf3thegrubbybluedark_1_14
// 016   ----------------------------------------
tf3thegrubbybluedark_1_16:
        BYTE           N32     Fn3   v096   gtp3
        BYTE   W36
        BYTE                   Fn3
        BYTE   W36
        BYTE           N68     Fn3   v096   gtp2
        BYTE   W24
        BYTE   PEND
// 017   ----------------------------------------
tf3thegrubbybluedark_1_17:
        BYTE   W48
        BYTE           N11     En3   v096
        BYTE   W12
        BYTE                   Fn3
        BYTE   W12
        BYTE                   Gs3
        BYTE   W12
        BYTE                   En3
        BYTE   W12
        BYTE   PEND
// 018   ----------------------------------------
tf3thegrubbybluedark_1_18:
        BYTE           N32     Dn3   v096   gtp3
        BYTE   W36
        BYTE                   Cn3
        BYTE   W36
        BYTE           N23     Dn3
        BYTE   W24
        BYTE   PEND
// 019   ----------------------------------------
        BYTE   PATT
         POIN2  tf3thegrubbybluedark_1_18
// 020   ----------------------------------------
        BYTE           N92     En3   v096   gtp2
        BYTE   W96
// 021   ----------------------------------------
        BYTE           N96
        BYTE   W48
        BYTE           BEND    c_v+8
        BYTE   W01
        BYTE                   c_v+16
        BYTE   W44
        BYTE   W02
        BYTE                   c_v+0
        BYTE   W01
// 022   ----------------------------------------
        BYTE   PATT
         POIN2  tf3thegrubbybluedark_1_14
// 023   ----------------------------------------
        BYTE   PATT
         POIN2  tf3thegrubbybluedark_1_14
// 024   ----------------------------------------
        BYTE   PATT
         POIN2  tf3thegrubbybluedark_1_16
// 025   ----------------------------------------
        BYTE   PATT
         POIN2  tf3thegrubbybluedark_1_17
// 026   ----------------------------------------
        BYTE           N32     Dn3   v096   gtp3
        BYTE   W36
        BYTE           N11     Fn3
        BYTE   W12
        BYTE           N32     Dn3   v096   gtp3
        BYTE   W36
        BYTE           N11     An3
        BYTE   W12
// 027   ----------------------------------------
        BYTE           N32     En3   v096   gtp3
        BYTE   W36
        BYTE           N11     Gs3
        BYTE   W12
        BYTE           N32     En3   v096   gtp3
        BYTE   W36
        BYTE           N11     Bn3
        BYTE   W12
// 028   ----------------------------------------
        BYTE           TIE     An3
        BYTE   W96
// 029   ----------------------------------------
        BYTE   W01
        BYTE           BEND    c_v+2
        BYTE   W01
        BYTE                   c_v+4
        BYTE   W01
        BYTE                   c_v+6
        BYTE   W01
        BYTE                   c_v+8
        BYTE   W01
        BYTE                   c_v+10
        BYTE   W01
        BYTE                   c_v+12
        BYTE   W01
        BYTE                   c_v+14
        BYTE   W01
        BYTE                   c_v+16
        BYTE   W01
        BYTE                   c_v+18
        BYTE   W01
        BYTE                   c_v+20
        BYTE   W01
        BYTE                   c_v+22
        BYTE   W01
        BYTE                   c_v+24
        BYTE   W01
        BYTE                   c_v+26
        BYTE   W01
        BYTE                   c_v+28
        BYTE   W01
        BYTE                   c_v+30
        BYTE   W01
        BYTE                   c_v+32
        BYTE   W01
        BYTE                   c_v+34
        BYTE   W01
        BYTE                   c_v+36
        BYTE   W01
        BYTE                   c_v+38
        BYTE   W01
        BYTE                   c_v+40
        BYTE   W01
        BYTE                   c_v+42
        BYTE   W01
        BYTE                   c_v+44
        BYTE   W01
        BYTE                   c_v+46
        BYTE   W01
        BYTE                   c_v+48
        BYTE   W72
// 030   ----------------------------------------
        BYTE           EOT
        BYTE           BEND    c_v+0
        BYTE   W03
        BYTE           N96     Gn4   v064
        BYTE   W92
        BYTE   W01
// 031   ----------------------------------------
        BYTE   W03
        BYTE           N36     Fn4
        BYTE   W36
        BYTE           N24     En4
        BYTE   W24
        BYTE           N36     Dn4
        BYTE   W32
        BYTE   W01
// 032   ----------------------------------------
        BYTE   W03
        BYTE           N72     Cn4
        BYTE   W72
        BYTE           N24     An4
        BYTE   W21
// 033   ----------------------------------------
        BYTE   W03
        BYTE                   Gs4
        BYTE   W24
        BYTE                   Fn4
        BYTE   W24
        BYTE           N48     En4
        BYTE   W44
        BYTE   W01
// 034   ----------------------------------------
        BYTE   W03
        BYTE           N72     Dn4
        BYTE   W72
        BYTE           N24     Fn4
        BYTE   W21
// 035   ----------------------------------------
        BYTE   W03
        BYTE           N48     Gn4
        BYTE   W48
        BYTE                   Bn4
        BYTE   W44
        BYTE   W01
// 036   ----------------------------------------
        BYTE   W03
        BYTE                   Cn5
        BYTE   W48
        BYTE           N12
        BYTE   W12
        BYTE                   An4
        BYTE   W12
        BYTE                   Bn4
        BYTE   W12
        BYTE                   An4
        BYTE   W09
// 037   ----------------------------------------
        BYTE   W03
        BYTE           N24     Bn4
        BYTE   W24
        BYTE           N12     Cn5
        BYTE   W12
        BYTE           N24     Dn5
        BYTE   W24
        BYTE           N36     En5
        BYTE   W32
        BYTE   W01
// 038   ----------------------------------------
        BYTE   W03
        BYTE           N72     Cn5
        BYTE   W72
        BYTE           N24     An4
        BYTE   W21
// 039   ----------------------------------------
        BYTE   W03
        BYTE           N48     Dn5
        BYTE   W48
        BYTE           N24     Gn5
        BYTE   W24
        BYTE                   Fn5
        BYTE   W21
// 040   ----------------------------------------
        BYTE   W03
        BYTE           TIE     En5
        BYTE   W92
        BYTE   W01
// 041   ----------------------------------------
        BYTE   W96
// 042   ----------------------------------------
        BYTE           EOT
        BYTE   W96
// 043   ----------------------------------------
        BYTE   W96
// 044   ----------------------------------------
        BYTE   W96
// 045   ----------------------------------------
        BYTE   W96
// 046   ----------------------------------------
        BYTE   W96
// 047   ----------------------------------------
        BYTE   W96
// 048   ----------------------------------------
        BYTE   GoTo
         POIN2  tf3thegrubbybluedark_1_LOOP
        BYTE   FINE

//****************** Track 2 (Midi-Chn.2) ******************//

tf3thegrubbybluedark_2:
        BYTE   KEYSH   tf3thegrubbybluedark_key+0
// 000   ----------------------------------------
        BYTE           VOICE   48
        BYTE           0xCD   0x08 0x20
        BYTE           0xCD   0x09 0x10
        BYTE           VOL     22
        BYTE           PAN     c_v+39
        BYTE           BENDR   38
        BYTE   W96
// 001   ----------------------------------------
        BYTE   W96
// 002   ----------------------------------------
tf3thegrubbybluedark_2_LOOP:
        BYTE           N10     En4   v075
        BYTE   W12
        BYTE                   An4
        BYTE   W12
        BYTE                   Cn5
        BYTE   W12
        BYTE                   En4
        BYTE   W12
        BYTE                   An4
        BYTE   W12
        BYTE                   Cn5
        BYTE   W12
        BYTE                   En4
        BYTE   W12
        BYTE                   An4
        BYTE   W12
// 003   ----------------------------------------
tf3thegrubbybluedark_2_3:
        BYTE           N10     Cn5   v075
        BYTE   W12
        BYTE                   En4
        BYTE   W12
        BYTE                   An4
        BYTE   W12
        BYTE                   Cn5
        BYTE   W12
        BYTE                   En4
        BYTE   W12
        BYTE                   An4
        BYTE   W12
        BYTE                   Cn5
        BYTE   W12
        BYTE                   An4
        BYTE   W12
        BYTE   PEND
// 004   ----------------------------------------
tf3thegrubbybluedark_2_4:
        BYTE           N10     Fn4   v075
        BYTE   W12
        BYTE                   An4
        BYTE   W12
        BYTE                   Cn5
        BYTE   W12
        BYTE                   Fn4
        BYTE   W12
        BYTE                   An4
        BYTE   W12
        BYTE                   Cn5
        BYTE   W12
        BYTE                   Fn4
        BYTE   W12
        BYTE                   An4
        BYTE   W12
        BYTE   PEND
// 005   ----------------------------------------
tf3thegrubbybluedark_2_5:
        BYTE           N10     Cn5   v075
        BYTE   W12
        BYTE                   Fn4
        BYTE   W12
        BYTE                   An4
        BYTE   W12
        BYTE                   Cn5
        BYTE   W12
        BYTE                   Fn4
        BYTE   W12
        BYTE                   An4
        BYTE   W12
        BYTE                   Cn5
        BYTE   W12
        BYTE                   An4
        BYTE   W12
        BYTE   PEND
// 006   ----------------------------------------
tf3thegrubbybluedark_2_6:
        BYTE           N10     En4   v075
        BYTE   W12
        BYTE                   An4
        BYTE   W12
        BYTE                   Cn5
        BYTE   W12
        BYTE                   En4
        BYTE   W12
        BYTE                   An4
        BYTE   W12
        BYTE                   Cn5
        BYTE   W12
        BYTE                   En4
        BYTE   W12
        BYTE                   An4
        BYTE   W12
        BYTE   PEND
// 007   ----------------------------------------
        BYTE   PATT
         POIN2  tf3thegrubbybluedark_2_3
// 008   ----------------------------------------
        BYTE   PATT
         POIN2  tf3thegrubbybluedark_2_4
// 009   ----------------------------------------
        BYTE   PATT
         POIN2  tf3thegrubbybluedark_2_5
// 010   ----------------------------------------
        BYTE   PATT
         POIN2  tf3thegrubbybluedark_2_6
// 011   ----------------------------------------
        BYTE   PATT
         POIN2  tf3thegrubbybluedark_2_3
// 012   ----------------------------------------
        BYTE   PATT
         POIN2  tf3thegrubbybluedark_2_6
// 013   ----------------------------------------
        BYTE           N10     Cn5   v075
        BYTE   W12
        BYTE                   En4
        BYTE   W12
        BYTE                   An4
        BYTE   W12
        BYTE                   Cn5
        BYTE   W12
        BYTE                   En4
        BYTE   W12
        BYTE                   An4
        BYTE   W12
        BYTE                   Cn5
        BYTE   W12
        BYTE                   An4
        BYTE   W11
        BYTE           PAN     c_v+0
        BYTE   W01
// 014   ----------------------------------------
tf3thegrubbybluedark_2_14:
        BYTE           N10     En5   v085
        BYTE   W12
        BYTE                   Cn5
        BYTE   W12
        BYTE                   An4
        BYTE   W12
        BYTE                   En4
        BYTE   W12
        BYTE                   En5
        BYTE   W12
        BYTE                   Cn5
        BYTE   W12
        BYTE                   An4
        BYTE   W12
        BYTE                   En4
        BYTE   W12
        BYTE   PEND
// 015   ----------------------------------------
        BYTE   PATT
         POIN2  tf3thegrubbybluedark_2_14
// 016   ----------------------------------------
tf3thegrubbybluedark_2_16:
        BYTE           N10     Fn5   v085
        BYTE   W12
        BYTE                   Cn5
        BYTE   W12
        BYTE                   An4
        BYTE   W12
        BYTE                   Fn4
        BYTE   W12
        BYTE                   Fn5
        BYTE   W12
        BYTE                   Cn5
        BYTE   W12
        BYTE                   An4
        BYTE   W12
        BYTE                   Fn4
        BYTE   W12
        BYTE   PEND
// 017   ----------------------------------------
        BYTE   PATT
         POIN2  tf3thegrubbybluedark_2_16
// 018   ----------------------------------------
tf3thegrubbybluedark_2_18:
        BYTE           N10     Fn5   v085
        BYTE   W12
        BYTE                   Dn5
        BYTE   W12
        BYTE                   An4
        BYTE   W12
        BYTE                   Fn4
        BYTE   W12
        BYTE                   Fn5
        BYTE   W12
        BYTE                   Dn5
        BYTE   W12
        BYTE                   An4
        BYTE   W12
        BYTE                   Fn4
        BYTE   W12
        BYTE   PEND
// 019   ----------------------------------------
        BYTE   PATT
         POIN2  tf3thegrubbybluedark_2_18
// 020   ----------------------------------------
tf3thegrubbybluedark_2_20:
        BYTE           N10     Gs5   v085
        BYTE   W12
        BYTE                   En5
        BYTE   W12
        BYTE                   Dn5
        BYTE   W12
        BYTE                   Bn4
        BYTE   W12
        BYTE                   Gs5
        BYTE   W12
        BYTE                   En5
        BYTE   W12
        BYTE                   Dn5
        BYTE   W12
        BYTE                   Bn4
        BYTE   W12
        BYTE   PEND
// 021   ----------------------------------------
        BYTE                   Gs5
        BYTE   W12
        BYTE                   En5
        BYTE   W12
        BYTE                   Dn5
        BYTE   W12
        BYTE                   Bn4
        BYTE   W12
        BYTE                   Gs4
        BYTE   W12
        BYTE                   An4
        BYTE   W12
        BYTE                   Bn4
        BYTE   W12
        BYTE                   Dn5
        BYTE   W12
// 022   ----------------------------------------
        BYTE   PATT
         POIN2  tf3thegrubbybluedark_2_14
// 023   ----------------------------------------
        BYTE   PATT
         POIN2  tf3thegrubbybluedark_2_14
// 024   ----------------------------------------
        BYTE   PATT
         POIN2  tf3thegrubbybluedark_2_16
// 025   ----------------------------------------
        BYTE   PATT
         POIN2  tf3thegrubbybluedark_2_16
// 026   ----------------------------------------
        BYTE   PATT
         POIN2  tf3thegrubbybluedark_2_18
// 027   ----------------------------------------
        BYTE   PATT
         POIN2  tf3thegrubbybluedark_2_20
// 028   ----------------------------------------
        BYTE           N10     An5   v085
        BYTE   W12
        BYTE                   En5
        BYTE   W12
        BYTE                   Cn5
        BYTE   W12
        BYTE                   An4
        BYTE   W12
        BYTE                   An5
        BYTE   W12
        BYTE                   En5
        BYTE   W12
        BYTE                   Cn5
        BYTE   W12
        BYTE                   An4
        BYTE   W12
// 029   ----------------------------------------
        BYTE                   An5
        BYTE   W12
        BYTE                   En5
        BYTE   W12
        BYTE                   Cn5
        BYTE   W12
        BYTE                   An4
        BYTE   W12
        BYTE                   An5
        BYTE   W12
        BYTE                   En5
        BYTE   W12
        BYTE                   Cn5
        BYTE   W12
        BYTE                   An4
        BYTE   W11
        BYTE           PAN     c_v+47
        BYTE   W01
// 030   ----------------------------------------
        BYTE           N10     Dn3   v123
        BYTE           VOL     11
        BYTE   W06
        BYTE                   12
        BYTE   W06
        BYTE           N10     Gn3
        BYTE   W06
        BYTE           VOL     13
        BYTE   W06
        BYTE           N10     Bn3
        BYTE           VOL     14
        BYTE   W06
        BYTE                   15
        BYTE   W06
        BYTE           N10     Gn3
        BYTE   W06
        BYTE           VOL     16
        BYTE   W06
        BYTE           N10     Dn3
        BYTE           VOL     17
        BYTE   W12
        BYTE           N10     Gn3
        BYTE   W01
        BYTE           VOL     18
        BYTE   W06
        BYTE                   19
        BYTE   W05
        BYTE           N10     Bn3
        BYTE   W07
        BYTE           VOL     20
        BYTE   W05
        BYTE           N10     Gn3
        BYTE   W01
        BYTE           VOL     21
        BYTE   W11
// 031   ----------------------------------------
tf3thegrubbybluedark_2_31:
        BYTE           N10     Dn3   v123
        BYTE           VOL     22
        BYTE   W06
        BYTE                   21
        BYTE   W06
        BYTE           N10     Gn3
        BYTE   W06
        BYTE           VOL     20
        BYTE   W06
        BYTE           N10     Bn3
        BYTE           VOL     19
        BYTE   W12
        BYTE           N10     Gn3
        BYTE           VOL     18
        BYTE   W06
        BYTE                   17
        BYTE   W06
        BYTE           N10     Dn3
        BYTE           VOL     16
        BYTE   W12
        BYTE           N10     Gn3
        BYTE   W01
        BYTE           VOL     15
        BYTE   W06
        BYTE                   14
        BYTE   W05
        BYTE           N10     Bn3
        BYTE   W07
        BYTE           VOL     13
        BYTE   W05
        BYTE           N10     Gn3
        BYTE   W01
        BYTE           VOL     12
        BYTE   W11
        BYTE   PEND
// 032   ----------------------------------------
tf3thegrubbybluedark_2_32:
        BYTE           N10     Cn3   v123
        BYTE           VOL     11
        BYTE   W06
        BYTE                   10
        BYTE   W06
        BYTE           N10     Fn3
        BYTE   W06
        BYTE           VOL     9
        BYTE   W06
        BYTE           N10     An3
        BYTE           VOL     8
        BYTE   W06
        BYTE                   7
        BYTE   W06
        BYTE           N10     Fn3
        BYTE   W06
        BYTE           VOL     6
        BYTE   W06
        BYTE           N10     Cn3
        BYTE           VOL     5
        BYTE   W12
        BYTE           N10     Fn3
        BYTE   W01
        BYTE           VOL     4
        BYTE   W06
        BYTE                   3
        BYTE   W05
        BYTE           N10     An3
        BYTE   W07
        BYTE           VOL     2
        BYTE   W05
        BYTE           N10     Fn3
        BYTE   W01
        BYTE           VOL     1
        BYTE   W11
        BYTE   PEND
// 033   ----------------------------------------
tf3thegrubbybluedark_2_33:
        BYTE           N10     Bn2   v123
        BYTE           VOL     0
        BYTE   W06
        BYTE                   1
        BYTE   W06
        BYTE           N10     En3
        BYTE   W06
        BYTE           VOL     2
        BYTE   W06
        BYTE           N10     Gs3
        BYTE           VOL     3
        BYTE   W12
        BYTE           N10     En3
        BYTE           VOL     4
        BYTE   W06
        BYTE                   5
        BYTE   W06
        BYTE           N10     Bn2
        BYTE           VOL     6
        BYTE   W12
        BYTE           N10     En3
        BYTE   W01
        BYTE           VOL     7
        BYTE   W06
        BYTE                   8
        BYTE   W05
        BYTE           N10     Gs3
        BYTE   W07
        BYTE           VOL     9
        BYTE   W05
        BYTE           N10     En3
        BYTE   W01
        BYTE           VOL     10
        BYTE   W09
        BYTE                   11
        BYTE   W02
        BYTE   PEND
// 034   ----------------------------------------
        BYTE           N10     Dn3
        BYTE   W06
        BYTE           VOL     12
        BYTE   W06
        BYTE           N10     Gn3
        BYTE   W06
        BYTE           VOL     13
        BYTE   W06
        BYTE           N10     Bn3
        BYTE           VOL     14
        BYTE   W06
        BYTE                   15
        BYTE   W06
        BYTE           N10     Gn3
        BYTE   W06
        BYTE           VOL     16
        BYTE   W06
        BYTE           N10     Dn3
        BYTE           VOL     17
        BYTE   W12
        BYTE           N10     Gn3
        BYTE   W01
        BYTE           VOL     18
        BYTE   W06
        BYTE                   19
        BYTE   W05
        BYTE           N10     Bn3
        BYTE   W07
        BYTE           VOL     20
        BYTE   W05
        BYTE           N10     Gn3
        BYTE   W01
        BYTE           VOL     21
        BYTE   W11
// 035   ----------------------------------------
        BYTE   PATT
         POIN2  tf3thegrubbybluedark_2_31
// 036   ----------------------------------------
        BYTE   PATT
         POIN2  tf3thegrubbybluedark_2_32
// 037   ----------------------------------------
        BYTE   PATT
         POIN2  tf3thegrubbybluedark_2_33
// 038   ----------------------------------------
tf3thegrubbybluedark_2_38:
        BYTE           N10     Cn3   v123
        BYTE   W06
        BYTE           VOL     12
        BYTE   W06
        BYTE           N10     Fn3
        BYTE   W06
        BYTE           VOL     13
        BYTE   W06
        BYTE           N10     An3
        BYTE           VOL     14
        BYTE   W06
        BYTE                   15
        BYTE   W06
        BYTE           N10     Fn3
        BYTE   W06
        BYTE           VOL     16
        BYTE   W06
        BYTE           N10     Cn3
        BYTE           VOL     17
        BYTE   W12
        BYTE           N10     Fn3
        BYTE   W01
        BYTE           VOL     18
        BYTE   W06
        BYTE                   19
        BYTE   W05
        BYTE           N10     An3
        BYTE   W07
        BYTE           VOL     20
        BYTE   W05
        BYTE           N10     Fn3
        BYTE   W01
        BYTE           VOL     21
        BYTE   W11
        BYTE   PEND
// 039   ----------------------------------------
        BYTE   PATT
         POIN2  tf3thegrubbybluedark_2_31
// 040   ----------------------------------------
        BYTE           N10     En3   v123
        BYTE           VOL     11
        BYTE   W06
        BYTE                   10
        BYTE   W06
        BYTE           N10     An3
        BYTE   W06
        BYTE           VOL     9
        BYTE   W06
        BYTE           N10     Cn4
        BYTE           VOL     8
        BYTE   W06
        BYTE                   7
        BYTE   W06
        BYTE           N10     An3
        BYTE   W06
        BYTE           VOL     6
        BYTE   W06
        BYTE           N10     En3
        BYTE           VOL     5
        BYTE   W12
        BYTE           N10     An3
        BYTE   W01
        BYTE           VOL     4
        BYTE   W06
        BYTE                   3
        BYTE   W05
        BYTE           N10     Cn4
        BYTE   W07
        BYTE           VOL     2
        BYTE   W05
        BYTE           N10     An3
        BYTE   W01
        BYTE           VOL     1
        BYTE   W11
// 041   ----------------------------------------
        BYTE           N10     En3
        BYTE           VOL     0
        BYTE   W06
        BYTE                   1
        BYTE   W06
        BYTE           N10     An3
        BYTE   W06
        BYTE           VOL     2
        BYTE   W06
        BYTE           N10     Cn4
        BYTE           VOL     3
        BYTE   W12
        BYTE           N10     An3
        BYTE           VOL     4
        BYTE   W06
        BYTE                   5
        BYTE   W06
        BYTE           N10     En3
        BYTE           VOL     6
        BYTE   W12
        BYTE           N10     An3
        BYTE   W01
        BYTE           VOL     7
        BYTE   W06
        BYTE                   8
        BYTE   W05
        BYTE           N10     Cn4
        BYTE   W07
        BYTE           VOL     9
        BYTE   W05
        BYTE           N10     An3
        BYTE   W01
        BYTE           VOL     10
        BYTE   W09
        BYTE                   11
        BYTE   W01
        BYTE                   22
        BYTE   W01
// 042   ----------------------------------------
tf3thegrubbybluedark_2_42:
        BYTE           N07     An3   v090
        BYTE   W08
        BYTE                   Bn3
        BYTE   W08
        BYTE                   Cn4
        BYTE   W08
        BYTE                   Dn4
        BYTE   W08
        BYTE                   En4
        BYTE   W08
        BYTE                   Fn4
        BYTE   W08
        BYTE                   Gn4
        BYTE   W08
        BYTE                   Fn4
        BYTE   W08
        BYTE                   En4
        BYTE   W08
        BYTE                   Dn4
        BYTE   W08
        BYTE                   Cn4
        BYTE   W08
        BYTE                   Bn3
        BYTE   W08
        BYTE   PEND
// 043   ----------------------------------------
tf3thegrubbybluedark_2_43:
        BYTE           N07     An3   v090
        BYTE   W08
        BYTE                   Bn3
        BYTE   W08
        BYTE                   Cn4
        BYTE   W08
        BYTE                   Dn4
        BYTE   W08
        BYTE                   En4
        BYTE   W08
        BYTE                   Fn4
        BYTE   W08
        BYTE                   Gn3
        BYTE   W08
        BYTE                   An3
        BYTE   W08
        BYTE                   Bn3
        BYTE   W08
        BYTE                   Cn4
        BYTE   W08
        BYTE                   Dn4
        BYTE   W08
        BYTE                   En4
        BYTE   W08
        BYTE   PEND
// 044   ----------------------------------------
        BYTE   PATT
         POIN2  tf3thegrubbybluedark_2_42
// 045   ----------------------------------------
        BYTE   PATT
         POIN2  tf3thegrubbybluedark_2_43
// 046   ----------------------------------------
        BYTE           N07     An3   v090
        BYTE   W08
        BYTE                   Bn3
        BYTE   W08
        BYTE                   Cn4
        BYTE   W08
        BYTE                   Dn4
        BYTE   W08
        BYTE                   En4
        BYTE   W08
        BYTE                   Fn4
        BYTE   W08
        BYTE                   Gn4
        BYTE   W08
        BYTE                   An4
        BYTE   W08
        BYTE                   Bn4
        BYTE   W08
        BYTE                   Cn5
        BYTE   W08
        BYTE                   Dn5
        BYTE   W08
        BYTE                   En5
        BYTE   W08
// 047   ----------------------------------------
        BYTE                   Fn5
        BYTE   W08
        BYTE                   En5
        BYTE   W08
        BYTE                   Dn5
        BYTE   W08
        BYTE                   Cn5
        BYTE   W08
        BYTE                   Bn4
        BYTE   W08
        BYTE                   An4
        BYTE   W08
        BYTE                   Gn4
        BYTE   W08
        BYTE                   Fn4
        BYTE   W08
        BYTE                   En4
        BYTE   W08
        BYTE                   Dn4
        BYTE   W08
        BYTE                   Cn4
        BYTE   W08
        BYTE                   Bn3
        BYTE   W07
        BYTE           PAN     c_v+39
        BYTE   W01
// 048   ----------------------------------------
        BYTE   GoTo
         POIN2  tf3thegrubbybluedark_2_LOOP
        BYTE   FINE

//****************** Track 3 (Midi-Chn.3) ******************//

tf3thegrubbybluedark_3:
        BYTE   KEYSH   tf3thegrubbybluedark_key+0
// 000   ----------------------------------------
        BYTE           VOICE   48
        BYTE           VOL     22
        BYTE           PAN     c_v-41
        BYTE           BENDR   38
        BYTE   W96
// 001   ----------------------------------------
        BYTE   W96
// 002   ----------------------------------------
tf3thegrubbybluedark_3_LOOP:
        BYTE   W01
        BYTE           N11     Cn4   v070
        BYTE   W12
        BYTE                   En4
        BYTE   W12
        BYTE                   An4
        BYTE   W12
        BYTE                   Cn4
        BYTE   W12
        BYTE                   En4
        BYTE   W12
        BYTE                   An4
        BYTE   W12
        BYTE                   Cn4
        BYTE   W12
        BYTE                   En4
        BYTE   W11
// 003   ----------------------------------------
tf3thegrubbybluedark_3_3:
        BYTE   W01
        BYTE           N11     An4   v070
        BYTE   W12
        BYTE                   Cn4
        BYTE   W12
        BYTE                   En4
        BYTE   W12
        BYTE                   An4
        BYTE   W12
        BYTE                   Cn4
        BYTE   W12
        BYTE                   En4
        BYTE   W12
        BYTE                   An4
        BYTE   W12
        BYTE                   En4
        BYTE   W11
        BYTE   PEND
// 004   ----------------------------------------
tf3thegrubbybluedark_3_4:
        BYTE   W01
        BYTE           N11     Cn4   v070
        BYTE   W12
        BYTE                   Fn4
        BYTE   W12
        BYTE                   An4
        BYTE   W12
        BYTE                   Cn4
        BYTE   W12
        BYTE                   Fn4
        BYTE   W12
        BYTE                   An4
        BYTE   W12
        BYTE                   Cn4
        BYTE   W12
        BYTE                   Fn4
        BYTE   W11
        BYTE   PEND
// 005   ----------------------------------------
tf3thegrubbybluedark_3_5:
        BYTE   W01
        BYTE           N11     An4   v070
        BYTE   W12
        BYTE                   Cn4
        BYTE   W12
        BYTE                   Fn4
        BYTE   W12
        BYTE                   An4
        BYTE   W12
        BYTE                   Cn4
        BYTE   W12
        BYTE                   Fn4
        BYTE   W12
        BYTE                   An4
        BYTE   W12
        BYTE                   Fn4
        BYTE   W11
        BYTE   PEND
// 006   ----------------------------------------
tf3thegrubbybluedark_3_6:
        BYTE   W01
        BYTE           N11     Cn4   v070
        BYTE   W12
        BYTE                   En4
        BYTE   W12
        BYTE                   An4
        BYTE   W12
        BYTE                   Cn4
        BYTE   W12
        BYTE                   En4
        BYTE   W12
        BYTE                   An4
        BYTE   W12
        BYTE                   Cn4
        BYTE   W12
        BYTE                   En4
        BYTE   W11
        BYTE   PEND
// 007   ----------------------------------------
        BYTE   PATT
         POIN2  tf3thegrubbybluedark_3_3
// 008   ----------------------------------------
        BYTE   PATT
         POIN2  tf3thegrubbybluedark_3_4
// 009   ----------------------------------------
        BYTE   PATT
         POIN2  tf3thegrubbybluedark_3_5
// 010   ----------------------------------------
        BYTE   PATT
         POIN2  tf3thegrubbybluedark_3_6
// 011   ----------------------------------------
        BYTE   PATT
         POIN2  tf3thegrubbybluedark_3_3
// 012   ----------------------------------------
        BYTE   PATT
         POIN2  tf3thegrubbybluedark_3_6
// 013   ----------------------------------------
        BYTE   PATT
         POIN2  tf3thegrubbybluedark_3_3
// 014   ----------------------------------------
        BYTE   W96
// 015   ----------------------------------------
        BYTE   W96
// 016   ----------------------------------------
        BYTE   W96
// 017   ----------------------------------------
        BYTE   W96
// 018   ----------------------------------------
        BYTE   W96
// 019   ----------------------------------------
        BYTE   W96
// 020   ----------------------------------------
        BYTE   W96
// 021   ----------------------------------------
        BYTE   W96
// 022   ----------------------------------------
        BYTE   W96
// 023   ----------------------------------------
        BYTE   W96
// 024   ----------------------------------------
        BYTE   W96
// 025   ----------------------------------------
        BYTE   W96
// 026   ----------------------------------------
        BYTE   W96
// 027   ----------------------------------------
        BYTE   W96
// 028   ----------------------------------------
        BYTE   W96
// 029   ----------------------------------------
        BYTE   W92
        BYTE   W03
        BYTE           PAN     c_v-49
        BYTE   W01
// 030   ----------------------------------------
tf3thegrubbybluedark_3_30:
        BYTE           N10     Dn3   v123
        BYTE           VOL     11
        BYTE   W06
        BYTE                   10
        BYTE   W06
        BYTE           N10     Gn3
        BYTE   W06
        BYTE           VOL     9
        BYTE   W06
        BYTE           N10     Bn3
        BYTE           VOL     8
        BYTE   W06
        BYTE                   7
        BYTE   W06
        BYTE           N10     Gn3
        BYTE   W06
        BYTE           VOL     6
        BYTE   W06
        BYTE           N10     Dn3
        BYTE           VOL     5
        BYTE   W12
        BYTE           N10     Gn3
        BYTE   W01
        BYTE           VOL     4
        BYTE   W06
        BYTE                   3
        BYTE   W05
        BYTE           N10     Bn3
        BYTE   W07
        BYTE           VOL     2
        BYTE   W05
        BYTE           N10     Gn3
        BYTE   W01
        BYTE           VOL     1
        BYTE   W11
        BYTE   PEND
// 031   ----------------------------------------
tf3thegrubbybluedark_3_31:
        BYTE           N10     Dn3   v123
        BYTE           VOL     0
        BYTE   W06
        BYTE                   1
        BYTE   W06
        BYTE           N10     Gn3
        BYTE   W06
        BYTE           VOL     2
        BYTE   W06
        BYTE           N10     Bn3
        BYTE           VOL     3
        BYTE   W12
        BYTE           N10     Gn3
        BYTE           VOL     4
        BYTE   W06
        BYTE                   5
        BYTE   W06
        BYTE           N10     Dn3
        BYTE           VOL     6
        BYTE   W12
        BYTE           N10     Gn3
        BYTE   W01
        BYTE           VOL     7
        BYTE   W06
        BYTE                   8
        BYTE   W05
        BYTE           N10     Bn3
        BYTE   W07
        BYTE           VOL     9
        BYTE   W05
        BYTE           N10     Gn3
        BYTE   W01
        BYTE           VOL     10
        BYTE   W09
        BYTE                   11
        BYTE   W02
        BYTE   PEND
// 032   ----------------------------------------
        BYTE   PATT
         POIN2  tf3thegrubbybluedark_2_38
// 033   ----------------------------------------
tf3thegrubbybluedark_3_33:
        BYTE           N10     Bn2   v123
        BYTE           VOL     22
        BYTE   W06
        BYTE                   21
        BYTE   W06
        BYTE           N10     En3
        BYTE   W06
        BYTE           VOL     20
        BYTE   W06
        BYTE           N10     Gs3
        BYTE           VOL     19
        BYTE   W12
        BYTE           N10     En3
        BYTE           VOL     18
        BYTE   W06
        BYTE                   17
        BYTE   W06
        BYTE           N10     Bn2
        BYTE           VOL     16
        BYTE   W12
        BYTE           N10     En3
        BYTE   W01
        BYTE           VOL     15
        BYTE   W06
        BYTE                   14
        BYTE   W05
        BYTE           N10     Gs3
        BYTE   W07
        BYTE           VOL     13
        BYTE   W05
        BYTE           N10     En3
        BYTE   W01
        BYTE           VOL     12
        BYTE   W11
        BYTE   PEND
// 034   ----------------------------------------
        BYTE   PATT
         POIN2  tf3thegrubbybluedark_3_30
// 035   ----------------------------------------
        BYTE   PATT
         POIN2  tf3thegrubbybluedark_3_31
// 036   ----------------------------------------
        BYTE   PATT
         POIN2  tf3thegrubbybluedark_2_38
// 037   ----------------------------------------
        BYTE   PATT
         POIN2  tf3thegrubbybluedark_3_33
// 038   ----------------------------------------
        BYTE   PATT
         POIN2  tf3thegrubbybluedark_2_32
// 039   ----------------------------------------
        BYTE   PATT
         POIN2  tf3thegrubbybluedark_3_31
// 040   ----------------------------------------
        BYTE           N10     En3   v123
        BYTE   W06
        BYTE           VOL     12
        BYTE   W06
        BYTE           N10     An3
        BYTE   W06
        BYTE           VOL     13
        BYTE   W06
        BYTE           N10     Cn4
        BYTE           VOL     14
        BYTE   W06
        BYTE                   15
        BYTE   W06
        BYTE           N10     An3
        BYTE   W06
        BYTE           VOL     16
        BYTE   W06
        BYTE           N10     En3
        BYTE           VOL     17
        BYTE   W12
        BYTE           N10     An3
        BYTE   W01
        BYTE           VOL     18
        BYTE   W06
        BYTE                   19
        BYTE   W05
        BYTE           N10     Cn4
        BYTE   W07
        BYTE           VOL     20
        BYTE   W05
        BYTE           N10     An3
        BYTE   W01
        BYTE           VOL     21
        BYTE   W11
// 041   ----------------------------------------
        BYTE           N10     En3
        BYTE           VOL     22
        BYTE   W06
        BYTE                   21
        BYTE   W06
        BYTE           N10     An3
        BYTE   W06
        BYTE           VOL     20
        BYTE   W06
        BYTE           N10     Cn4
        BYTE           VOL     19
        BYTE   W12
        BYTE           N10     An3
        BYTE           VOL     18
        BYTE   W06
        BYTE                   17
        BYTE   W06
        BYTE           N10     En3
        BYTE           VOL     16
        BYTE   W12
        BYTE           N10     An3
        BYTE   W01
        BYTE           VOL     15
        BYTE   W06
        BYTE                   14
        BYTE   W05
        BYTE           N10     Cn4
        BYTE   W07
        BYTE           VOL     13
        BYTE   W05
        BYTE           N10     An3
        BYTE   W01
        BYTE           VOL     12
        BYTE   W10
        BYTE                   22
        BYTE   W01
// 042   ----------------------------------------
tf3thegrubbybluedark_3_42:
        BYTE   W07
        BYTE           N07     An3   v080
        BYTE   W08
        BYTE                   Bn3
        BYTE   W08
        BYTE                   Cn4
        BYTE   W08
        BYTE                   Dn4
        BYTE   W08
        BYTE                   En4
        BYTE   W08
        BYTE                   Fn4
        BYTE   W08
        BYTE                   Gn4
        BYTE   W08
        BYTE                   Fn4
        BYTE   W08
        BYTE                   En4
        BYTE   W08
        BYTE                   Dn4
        BYTE   W08
        BYTE                   Cn4
        BYTE   W08
        BYTE                   Bn3
        BYTE   W01
        BYTE   PEND
// 043   ----------------------------------------
tf3thegrubbybluedark_3_43:
        BYTE   W07
        BYTE           N07     An3   v080
        BYTE   W08
        BYTE                   Bn3
        BYTE   W08
        BYTE                   Cn4
        BYTE   W08
        BYTE                   Dn4
        BYTE   W08
        BYTE                   En4
        BYTE   W08
        BYTE                   Fn4
        BYTE   W08
        BYTE                   Gn3
        BYTE   W08
        BYTE                   An3
        BYTE   W08
        BYTE                   Bn3
        BYTE   W08
        BYTE                   Cn4
        BYTE   W08
        BYTE                   Dn4
        BYTE   W08
        BYTE                   En4
        BYTE   W01
        BYTE   PEND
// 044   ----------------------------------------
        BYTE   PATT
         POIN2  tf3thegrubbybluedark_3_42
// 045   ----------------------------------------
        BYTE   PATT
         POIN2  tf3thegrubbybluedark_3_43
// 046   ----------------------------------------
        BYTE   W07
        BYTE           N07     An3   v080
        BYTE   W08
        BYTE                   Bn3
        BYTE   W08
        BYTE                   Cn4
        BYTE   W08
        BYTE                   Dn4
        BYTE   W08
        BYTE                   En4
        BYTE   W08
        BYTE                   Fn4
        BYTE   W08
        BYTE                   Gn4
        BYTE   W08
        BYTE                   An4
        BYTE   W08
        BYTE                   Bn4
        BYTE   W08
        BYTE                   Cn5
        BYTE   W08
        BYTE                   Dn5
        BYTE   W08
        BYTE                   En5
        BYTE   W01
// 047   ----------------------------------------
        BYTE   W07
        BYTE                   Fn5
        BYTE   W08
        BYTE                   En5
        BYTE   W08
        BYTE                   Dn5
        BYTE   W08
        BYTE                   Cn5
        BYTE   W08
        BYTE                   Bn4
        BYTE   W08
        BYTE                   An4
        BYTE   W08
        BYTE                   Gn4
        BYTE   W08
        BYTE                   Fn4
        BYTE   W08
        BYTE                   En4
        BYTE   W08
        BYTE                   Dn4
        BYTE   W08
        BYTE                   Cn4
        BYTE   W08
        BYTE           PAN     c_v-41
        BYTE   W01
// 048   ----------------------------------------
        BYTE   GoTo
         POIN2  tf3thegrubbybluedark_3_LOOP
        BYTE   FINE

//****************** Track 4 (Midi-Chn.4) ******************//

tf3thegrubbybluedark_4:
        BYTE   KEYSH   tf3thegrubbybluedark_key+0
// 000   ----------------------------------------
        BYTE           VOICE   81
        BYTE           VOL     30
        BYTE           BENDR   24
        BYTE   W01
        BYTE           TIE     En1   v095
        BYTE           TIE     An1
        BYTE   W48
        BYTE           BEND    c_v+1
        BYTE   W02
        BYTE                   c_v+2
        BYTE   W01
        BYTE                   c_v+3
        BYTE   W02
        BYTE                   c_v+4
        BYTE   W01
        BYTE                   c_v+5
        BYTE   W02
        BYTE                   c_v+6
        BYTE   W01
        BYTE                   c_v+7
        BYTE   W02
        BYTE                   c_v+8
        BYTE   W01
        BYTE                   c_v+9
        BYTE   W02
        BYTE                   c_v+10
        BYTE   W01
        BYTE                   c_v+11
        BYTE   W02
        BYTE                   c_v+12
        BYTE   W01
        BYTE                   c_v+13
        BYTE   W02
        BYTE                   c_v+14
        BYTE   W01
        BYTE                   c_v+15
        BYTE   W02
        BYTE                   c_v+16
        BYTE   W01
        BYTE                   c_v+17
        BYTE   W02
        BYTE                   c_v+18
        BYTE   W01
        BYTE                   c_v+19
        BYTE   W02
        BYTE                   c_v+20
        BYTE   W01
        BYTE                   c_v+21
        BYTE   W02
        BYTE                   c_v+22
        BYTE   W01
        BYTE                   c_v+23
        BYTE   W02
        BYTE                   c_v+24
        BYTE   W01
        BYTE                   c_v+25
        BYTE   W02
        BYTE                   c_v+26
        BYTE   W01
        BYTE                   c_v+27
        BYTE   W02
        BYTE                   c_v+28
        BYTE   W02
        BYTE                   c_v+29
        BYTE   W01
        BYTE                   c_v+30
        BYTE   W02
        BYTE                   c_v+31
        BYTE   W01
// 001   ----------------------------------------
        BYTE                   c_v+32
        BYTE   W02
        BYTE                   c_v+33
        BYTE   W01
        BYTE                   c_v+34
        BYTE   W02
        BYTE                   c_v+35
        BYTE   W01
        BYTE                   c_v+36
        BYTE   W02
        BYTE                   c_v+37
        BYTE   W01
        BYTE                   c_v+38
        BYTE   W02
        BYTE                   c_v+39
        BYTE   W01
        BYTE                   c_v+40
        BYTE   W02
        BYTE                   c_v+41
        BYTE   W01
        BYTE                   c_v+42
        BYTE   W02
        BYTE                   c_v+43
        BYTE   W01
        BYTE                   c_v+44
        BYTE   W02
        BYTE                   c_v+45
        BYTE   W01
        BYTE                   c_v+46
        BYTE   W02
        BYTE                   c_v+47
        BYTE   W01
        BYTE                   c_v+48
        BYTE   W02
        BYTE                   c_v+49
        BYTE   W01
        BYTE                   c_v+50
        BYTE   W02
        BYTE                   c_v+51
        BYTE   W01
        BYTE                   c_v+52
        BYTE   W02
        BYTE                   c_v+53
        BYTE   W01
        BYTE                   c_v+54
        BYTE   W02
        BYTE                   c_v+55
        BYTE   W01
        BYTE                   c_v+56
        BYTE   W02
        BYTE                   c_v+57
        BYTE   W01
        BYTE                   c_v+58
        BYTE   W02
        BYTE                   c_v+59
        BYTE   W01
        BYTE                   c_v+60
        BYTE   W02
        BYTE                   c_v+61
        BYTE   W01
        BYTE                   c_v+62
        BYTE   W02
        BYTE                   c_v+63
        BYTE   W24
        BYTE   W02
        BYTE           VOL     29
        BYTE   W02
        BYTE                   28
        BYTE   W01
        BYTE                   27
        BYTE   W02
        BYTE                   26
        BYTE   W01
        BYTE                   25
        BYTE   W02
        BYTE                   24
        BYTE   W01
        BYTE                   23
        BYTE   W02
        BYTE                   22
        BYTE   W01
        BYTE                   21
        BYTE   W03
        BYTE                   20
        BYTE   W02
        BYTE                   19
        BYTE   W01
        BYTE                   18
        BYTE   W02
        BYTE                   17
        BYTE   W01
        BYTE                   16
        BYTE   W01
        BYTE           EOT
        BYTE           EOT     En1
        BYTE           VOL     15
        BYTE   W01
// 002   ----------------------------------------
tf3thegrubbybluedark_4_LOOP:
        BYTE   W01
        BYTE           VOL     30
        BYTE           BEND    c_v+0
        BYTE           TIE     An3   v095
        BYTE           TIE     En3
        BYTE   W92
        BYTE   W03
// 003   ----------------------------------------
        BYTE   W48
        BYTE   W01
        BYTE           EOT
        BYTE           EOT     An3
        BYTE           N12     En3
        BYTE           N12     An3
        BYTE   W12
        BYTE                   Bn3
        BYTE           N12     Fn3
        BYTE   W24
        BYTE           TIE
        BYTE           TIE     Cn4
        BYTE   W11
// 004   ----------------------------------------
        BYTE   W96
// 005   ----------------------------------------
        BYTE   W48
        BYTE   W01
        BYTE           EOT
        BYTE           EOT     Fn3
        BYTE           N12
        BYTE           N12     Cn4
        BYTE   W12
        BYTE                   Gn3
        BYTE           N12     Dn4
        BYTE   W24
        BYTE           TIE     An3
        BYTE           TIE     En4
        BYTE   W11
// 006   ----------------------------------------
        BYTE   W96
// 007   ----------------------------------------
        BYTE   W36
        BYTE   W01
        BYTE           EOT
        BYTE           EOT     An3
        BYTE           N48     Bn3
        BYTE           N48     Fn4
        BYTE   W48
        BYTE           N96     Bn3
        BYTE           N96     Gn4
        BYTE   W11
// 008   ----------------------------------------
        BYTE   W84
        BYTE   W01
        BYTE           TIE     Cn4
        BYTE           TIE     An4
        BYTE   W11
// 009   ----------------------------------------
        BYTE   W92
        BYTE   W03
        BYTE           EOT
        BYTE           EOT     Cn4
        BYTE   W01
// 010   ----------------------------------------
        BYTE   W96
// 011   ----------------------------------------
        BYTE   W96
// 012   ----------------------------------------
        BYTE   W96
// 013   ----------------------------------------
        BYTE   W96
// 014   ----------------------------------------
        BYTE           N36     En3   v115
        BYTE   W36
        BYTE                   An3
        BYTE   W36
        BYTE           N24     Gn3
        BYTE   W24
// 015   ----------------------------------------
tf3thegrubbybluedark_4_15:
        BYTE           N12     En3   v115
        BYTE   W12
        BYTE                   Cn3
        BYTE   W12
        BYTE                   Dn3
        BYTE   W12
        BYTE           N60     En3
        BYTE   W60
        BYTE   PEND
// 016   ----------------------------------------
tf3thegrubbybluedark_4_16:
        BYTE           N72     Fn3   v115
        BYTE   W72
        BYTE           N12     En3
        BYTE   W12
        BYTE           N36     Cn4
        BYTE   W12
        BYTE   PEND
// 017   ----------------------------------------
tf3thegrubbybluedark_4_17:
        BYTE   W24
        BYTE           N24     Bn3   v115
        BYTE   W24
        BYTE           N12     An3
        BYTE   W12
        BYTE                   Fn3
        BYTE   W12
        BYTE                   Gs3
        BYTE   W12
        BYTE                   En3
        BYTE   W12
        BYTE   PEND
// 018   ----------------------------------------
tf3thegrubbybluedark_4_18:
        BYTE           N36     Fn3   v115
        BYTE   W36
        BYTE                   Gn3
        BYTE   W36
        BYTE           N24     An3
        BYTE   W24
        BYTE   PEND
// 019   ----------------------------------------
        BYTE   PATT
         POIN2  tf3thegrubbybluedark_4_18
// 020   ----------------------------------------
        BYTE           N84     Cn4   v115
        BYTE   W84
        BYTE           TIE     Bn3
        BYTE   W12
// 021   ----------------------------------------
        BYTE   W96
// 022   ----------------------------------------
        BYTE           EOT
        BYTE           N36     En3
        BYTE   W36
        BYTE                   An3
        BYTE   W36
        BYTE           N24     Gn3
        BYTE   W24
// 023   ----------------------------------------
        BYTE   PATT
         POIN2  tf3thegrubbybluedark_4_15
// 024   ----------------------------------------
        BYTE   PATT
         POIN2  tf3thegrubbybluedark_4_16
// 025   ----------------------------------------
        BYTE   PATT
         POIN2  tf3thegrubbybluedark_4_17
// 026   ----------------------------------------
        BYTE           N36     Dn3   v115
        BYTE   W36
        BYTE                   En3
        BYTE   W36
        BYTE           N24     Fn3
        BYTE   W24
// 027   ----------------------------------------
        BYTE           N18     En3
        BYTE   W18
        BYTE                   Fn3
        BYTE   W18
        BYTE           N12     Gs3
        BYTE   W12
        BYTE           N48     Bn3
        BYTE   W48
// 028   ----------------------------------------
        BYTE           TIE     An3
        BYTE   W96
// 029   ----------------------------------------
        BYTE   W96
// 030   ----------------------------------------
        BYTE           EOT
        BYTE   W01
        BYTE           N96     Gn4   v080
        BYTE   W92
        BYTE   W03
// 031   ----------------------------------------
        BYTE   W01
        BYTE           N36     Fn4
        BYTE   W36
        BYTE           N24     En4
        BYTE   W24
        BYTE           N36     Dn4
        BYTE   W32
        BYTE   W03
// 032   ----------------------------------------
        BYTE   W01
        BYTE           N72     Cn4
        BYTE   W72
        BYTE           N24     An4
        BYTE   W23
// 033   ----------------------------------------
        BYTE   W01
        BYTE                   Gs4
        BYTE   W24
        BYTE                   Fn4
        BYTE   W24
        BYTE           N48     En4
        BYTE   W44
        BYTE   W03
// 034   ----------------------------------------
        BYTE   W01
        BYTE           N72     Dn4
        BYTE   W72
        BYTE           N24     Fn4
        BYTE   W23
// 035   ----------------------------------------
        BYTE   W01
        BYTE           N48     Gn4
        BYTE   W48
        BYTE                   Bn4
        BYTE   W44
        BYTE   W03
// 036   ----------------------------------------
        BYTE   W01
        BYTE                   Cn5
        BYTE   W48
        BYTE           N12
        BYTE   W12
        BYTE                   An4
        BYTE   W12
        BYTE                   Bn4
        BYTE   W12
        BYTE                   An4
        BYTE   W11
// 037   ----------------------------------------
        BYTE   W01
        BYTE           N24     Bn4
        BYTE   W24
        BYTE           N12     Cn5
        BYTE   W12
        BYTE           N24     Dn5
        BYTE   W24
        BYTE           N36     En5
        BYTE   W32
        BYTE   W03
// 038   ----------------------------------------
        BYTE   W01
        BYTE           N72     Cn5
        BYTE   W72
        BYTE           N24     An4
        BYTE   W23
// 039   ----------------------------------------
        BYTE   W01
        BYTE           N48     Dn5
        BYTE   W48
        BYTE           N24     Gn5
        BYTE   W24
        BYTE                   Fn5
        BYTE   W23
// 040   ----------------------------------------
        BYTE   W01
        BYTE           TIE     En5
        BYTE   W92
        BYTE   W03
// 041   ----------------------------------------
        BYTE   W92
        BYTE   W02
        BYTE           EOT
        BYTE   W02
// 042   ----------------------------------------
tf3thegrubbybluedark_4_42:
        BYTE   W03
        BYTE           N10     An3   v080
        BYTE   W12
        BYTE           N21     Cn4
        BYTE   W24
        BYTE           N10     An3
        BYTE   W12
        BYTE           N32     Gn3
        BYTE   W36
        BYTE           N10     En3
        BYTE   W09
        BYTE   PEND
// 043   ----------------------------------------
        BYTE   W03
        BYTE                   Fn3
        BYTE   W12
        BYTE                   En3
        BYTE   W12
        BYTE                   Dn3
        BYTE   W12
        BYTE                   Cn3
        BYTE   W12
        BYTE           N21     Dn3
        BYTE   W24
        BYTE                   En3
        BYTE   W21
// 044   ----------------------------------------
        BYTE   PATT
         POIN2  tf3thegrubbybluedark_4_42
// 045   ----------------------------------------
        BYTE   W03
        BYTE           N10     Fn3   v080
        BYTE   W12
        BYTE           N54     En3
        BYTE   W60
        BYTE           N21     Gs3
        BYTE   W21
// 046   ----------------------------------------
        BYTE   W03
        BYTE           TIE     An3
        BYTE   W92
        BYTE   W01
// 047   ----------------------------------------
        BYTE   W78
        BYTE   W01
        BYTE           EOT
        BYTE   W17
// 048   ----------------------------------------
        BYTE           VOL     15
        BYTE           BEND    c_v+63
        BYTE   GoTo
         POIN2  tf3thegrubbybluedark_4_LOOP
        BYTE   FINE

//****************** Track 5 (Midi-Chn.5) ******************//

tf3thegrubbybluedark_5:
        BYTE   KEYSH   tf3thegrubbybluedark_key+0
// 000   ----------------------------------------
        BYTE           VOICE   80
        BYTE           VOL     16
        BYTE           PAN     c_v-5
        BYTE           BENDR   24
        BYTE           TIE     Cn1   v090
        BYTE   W48
        BYTE   W01
        BYTE           BEND    c_v+1
        BYTE   W02
        BYTE                   c_v+2
        BYTE   W01
        BYTE                   c_v+3
        BYTE   W02
        BYTE                   c_v+4
        BYTE   W01
        BYTE                   c_v+5
        BYTE   W02
        BYTE                   c_v+6
        BYTE   W01
        BYTE                   c_v+7
        BYTE   W02
        BYTE                   c_v+8
        BYTE   W01
        BYTE                   c_v+9
        BYTE   W02
        BYTE                   c_v+10
        BYTE   W01
        BYTE                   c_v+11
        BYTE   W02
        BYTE                   c_v+12
        BYTE   W01
        BYTE                   c_v+13
        BYTE   W02
        BYTE                   c_v+14
        BYTE   W01
        BYTE                   c_v+15
        BYTE   W02
        BYTE                   c_v+16
        BYTE   W01
        BYTE                   c_v+17
        BYTE   W02
        BYTE                   c_v+18
        BYTE   W01
        BYTE                   c_v+19
        BYTE   W02
        BYTE                   c_v+20
        BYTE   W01
        BYTE                   c_v+21
        BYTE   W02
        BYTE                   c_v+22
        BYTE   W01
        BYTE                   c_v+23
        BYTE   W02
        BYTE                   c_v+24
        BYTE   W01
        BYTE                   c_v+25
        BYTE   W02
        BYTE                   c_v+26
        BYTE   W01
        BYTE                   c_v+27
        BYTE   W02
        BYTE                   c_v+28
        BYTE   W02
        BYTE                   c_v+29
        BYTE   W01
        BYTE                   c_v+30
        BYTE   W02
        BYTE                   c_v+31
        BYTE   W01
// 001   ----------------------------------------
        BYTE                   c_v+32
        BYTE   W02
        BYTE                   c_v+33
        BYTE   W01
        BYTE                   c_v+34
        BYTE   W02
        BYTE                   c_v+35
        BYTE   W01
        BYTE                   c_v+36
        BYTE   W02
        BYTE                   c_v+37
        BYTE   W01
        BYTE                   c_v+38
        BYTE   W02
        BYTE                   c_v+39
        BYTE   W01
        BYTE                   c_v+40
        BYTE   W02
        BYTE                   c_v+41
        BYTE   W01
        BYTE                   c_v+42
        BYTE   W02
        BYTE                   c_v+43
        BYTE   W01
        BYTE                   c_v+44
        BYTE   W02
        BYTE                   c_v+45
        BYTE   W01
        BYTE                   c_v+46
        BYTE   W02
        BYTE                   c_v+47
        BYTE   W01
        BYTE                   c_v+48
        BYTE   W02
        BYTE                   c_v+49
        BYTE   W01
        BYTE                   c_v+50
        BYTE   W02
        BYTE                   c_v+51
        BYTE   W01
        BYTE                   c_v+52
        BYTE   W02
        BYTE                   c_v+53
        BYTE   W01
        BYTE                   c_v+54
        BYTE   W02
        BYTE                   c_v+55
        BYTE   W01
        BYTE                   c_v+56
        BYTE   W02
        BYTE                   c_v+57
        BYTE   W01
        BYTE                   c_v+58
        BYTE   W02
        BYTE                   c_v+59
        BYTE   W01
        BYTE                   c_v+60
        BYTE   W02
        BYTE                   c_v+61
        BYTE   W01
        BYTE                   c_v+62
        BYTE   W02
        BYTE                   c_v+63
        BYTE   W48
        BYTE                   c_v+0
        BYTE   W01
// 002   ----------------------------------------
        BYTE           EOT
tf3thegrubbybluedark_5_LOOP:
        BYTE           N24     Cn4   v090
        BYTE           N24     En4
        BYTE   W24
        BYTE           N12
        BYTE           N12     Bn3
        BYTE   W12
        BYTE           N72     En4
        BYTE           N72     Cn4
        BYTE   W60
// 003   ----------------------------------------
tf3thegrubbybluedark_5_3:
        BYTE   W12
        BYTE           N24     Dn4   v090
        BYTE           N24     En4
        BYTE   W24
        BYTE                   Cn4
        BYTE           N24     En4
        BYTE   W24
        BYTE           N12
        BYTE           N12     Bn3
        BYTE   W12
        BYTE           N24     En4
        BYTE           N24     An3
        BYTE   W24
        BYTE   PEND
// 004   ----------------------------------------
tf3thegrubbybluedark_5_4:
        BYTE           N24     Fn4   v090
        BYTE           N24     Cn4
        BYTE   W24
        BYTE           N12     Bn3
        BYTE           N12     Fn4
        BYTE   W12
        BYTE           N72
        BYTE           N72     Cn4
        BYTE   W60
        BYTE   PEND
// 005   ----------------------------------------
tf3thegrubbybluedark_5_5:
        BYTE   W12
        BYTE           N24     Dn4   v090
        BYTE           N24     Fn4
        BYTE   W24
        BYTE                   Cn4
        BYTE           N24     Fn4
        BYTE   W24
        BYTE           N12
        BYTE           N12     Bn3
        BYTE   W12
        BYTE           N24     An3
        BYTE           N24     Fn4
        BYTE   W24
        BYTE   PEND
// 006   ----------------------------------------
        BYTE                   Cn4
        BYTE           N24     En4
        BYTE   W24
        BYTE           N12
        BYTE           N12     Bn3
        BYTE   W12
        BYTE           N72     En4
        BYTE           N72     Cn4
        BYTE   W60
// 007   ----------------------------------------
        BYTE   PATT
         POIN2  tf3thegrubbybluedark_5_3
// 008   ----------------------------------------
        BYTE   PATT
         POIN2  tf3thegrubbybluedark_5_4
// 009   ----------------------------------------
        BYTE   PATT
         POIN2  tf3thegrubbybluedark_5_5
// 010   ----------------------------------------
        BYTE           N96     Cn3   v090
        BYTE           N96     En3
        BYTE   W96
// 011   ----------------------------------------
        BYTE                   An3
        BYTE           N96     En3
        BYTE   W96
// 012   ----------------------------------------
        BYTE                   An3
        BYTE           N96     Cn4
        BYTE   W96
// 013   ----------------------------------------
        BYTE                   En4
        BYTE           N96     Cn4
        BYTE   W96
// 014   ----------------------------------------
        BYTE           N36     En2   v096
        BYTE           N36     An2
        BYTE   W36
        BYTE                   Cn3
        BYTE           N36     An2
        BYTE   W36
        BYTE           N24     Gn2
        BYTE           N24     Bn2
        BYTE   W24
// 015   ----------------------------------------
tf3thegrubbybluedark_5_15:
        BYTE           N96     An2   v096
        BYTE           N96     Cn3
        BYTE   W96
        BYTE   PEND
// 016   ----------------------------------------
        BYTE           N72     An2
        BYTE           N72     Cn3
        BYTE   W72
        BYTE           N12     Gn2
        BYTE           N12     Bn2
        BYTE   W12
        BYTE           N36     Cn3
        BYTE           N36     Fn3
        BYTE   W12
// 017   ----------------------------------------
tf3thegrubbybluedark_5_17:
        BYTE   W24
        BYTE           N24     En3   v096
        BYTE           N24     Bn2
        BYTE   W24
        BYTE           N12     An2
        BYTE           N12     Fn2
        BYTE   W12
        BYTE                   Fn2
        BYTE           N12     An2
        BYTE   W12
        BYTE                   Gs2
        BYTE           N12     Bn2
        BYTE   W12
        BYTE                   Gs2
        BYTE           N12     Bn2
        BYTE   W12
        BYTE   PEND
// 018   ----------------------------------------
        BYTE           N36     An2
        BYTE           N36     Cn3
        BYTE   W36
        BYTE                   An2
        BYTE           N36     Cn3
        BYTE   W36
        BYTE           N24
        BYTE           N24     An2
        BYTE   W24
// 019   ----------------------------------------
        BYTE           N36
        BYTE           N36     Cn3
        BYTE   W36
        BYTE                   Cn3
        BYTE           N36     An2
        BYTE   W36
        BYTE           N24
        BYTE           N24     Cn3
        BYTE   W24
// 020   ----------------------------------------
        BYTE           N84     Dn3
        BYTE           N84     An2
        BYTE   W84
        BYTE           TIE     Bn2
        BYTE           TIE     En3
        BYTE   W12
// 021   ----------------------------------------
        BYTE   W96
// 022   ----------------------------------------
        BYTE           EOT
        BYTE           EOT     Bn2
        BYTE           N36     En2
        BYTE           N36     An2
        BYTE   W36
        BYTE                   Cn3
        BYTE           N36     An2
        BYTE   W36
        BYTE           N24     Gn2
        BYTE           N24     Bn2
        BYTE   W24
// 023   ----------------------------------------
        BYTE   PATT
         POIN2  tf3thegrubbybluedark_5_15
// 024   ----------------------------------------
        BYTE           N72     An2   v096
        BYTE           N72     Cn3
        BYTE   W72
        BYTE           N12     Gn2
        BYTE           N12     Bn2
        BYTE   W12
        BYTE           N36     Fn3
        BYTE           N36     Cn3
        BYTE   W12
// 025   ----------------------------------------
        BYTE   PATT
         POIN2  tf3thegrubbybluedark_5_17
// 026   ----------------------------------------
        BYTE           N36     Fn2   v096
        BYTE           N36     An2
        BYTE   W36
        BYTE                   Bn2
        BYTE           N36     Gn2
        BYTE   W36
        BYTE           N24     Dn3
        BYTE           N24     An2
        BYTE   W24
// 027   ----------------------------------------
        BYTE           N48     En3
        BYTE           N48     Bn2
        BYTE   W48
        BYTE                   Gs3
        BYTE           N48     Dn3
        BYTE   W48
// 028   ----------------------------------------
        BYTE           TIE     Cn3
        BYTE           TIE     En3
        BYTE   W96
// 029   ----------------------------------------
        BYTE   W96
// 030   ----------------------------------------
        BYTE           EOT
        BYTE           EOT     Cn3
        BYTE           N04     Dn3
        BYTE   W04
        BYTE           N92
        BYTE   W92
// 031   ----------------------------------------
        BYTE           N04     Cn3
        BYTE   W04
        BYTE           N32
        BYTE   W32
        BYTE           N04     Bn2
        BYTE   W04
        BYTE           N20
        BYTE   W20
        BYTE           N04     Gn2
        BYTE   W04
        BYTE           N32
        BYTE   W32
// 032   ----------------------------------------
        BYTE           N04     An2
        BYTE   W04
        BYTE           N68
        BYTE   W68
        BYTE           N04     Cn3
        BYTE   W04
        BYTE           N20
        BYTE   W20
// 033   ----------------------------------------
        BYTE           N04     Bn2
        BYTE   W04
        BYTE           N20
        BYTE   W20
        BYTE           N04     An2
        BYTE   W04
        BYTE           N20
        BYTE   W20
        BYTE           N04     Gs2
        BYTE   W04
        BYTE           N44
        BYTE   W44
// 034   ----------------------------------------
        BYTE           N04     Bn2
        BYTE   W04
        BYTE           N68
        BYTE   W68
        BYTE           N04     Cn3
        BYTE   W04
        BYTE           N20
        BYTE   W20
// 035   ----------------------------------------
        BYTE           N04     Dn3
        BYTE   W04
        BYTE           N44
        BYTE   W44
        BYTE           N04     Gn3
        BYTE   W04
        BYTE           N44
        BYTE   W44
// 036   ----------------------------------------
        BYTE           N04     An3
        BYTE   W04
        BYTE           N56
        BYTE   W56
        BYTE           N04     Fn3
        BYTE   W04
        BYTE           N08
        BYTE   W08
        BYTE           N04     Gn3
        BYTE   W04
        BYTE           N08
        BYTE   W08
        BYTE           N04     Fn3
        BYTE   W04
        BYTE           N08
        BYTE   W08
// 037   ----------------------------------------
        BYTE           N04     Gs3
        BYTE   W04
        BYTE           N20
        BYTE   W20
        BYTE           N04     An3
        BYTE   W04
        BYTE           N08
        BYTE   W08
        BYTE           N04     Bn3
        BYTE   W04
        BYTE           N56
        BYTE   W56
// 038   ----------------------------------------
        BYTE           N04     An3
        BYTE   W04
        BYTE           N92
        BYTE   W92
// 039   ----------------------------------------
        BYTE           N04     Bn3
        BYTE   W04
        BYTE           N92
        BYTE   W92
// 040   ----------------------------------------
        BYTE           N04     Cn4
        BYTE   W04
        BYTE           N92
        BYTE   W92
// 041   ----------------------------------------
        BYTE   W96
// 042   ----------------------------------------
        BYTE           N48     Cn3
        BYTE           N48     En2
        BYTE   W48
        BYTE                   Bn2
        BYTE           N48     Dn2
        BYTE   W48
// 043   ----------------------------------------
        BYTE           N72     An2
        BYTE           N48     Cn2
        BYTE   W48
        BYTE           N24     Dn2
        BYTE   W24
        BYTE                   Bn2
        BYTE           N72     En2
        BYTE   W24
// 044   ----------------------------------------
        BYTE           N48     Cn3
        BYTE   W48
        BYTE                   Bn2
        BYTE           N48     Dn2
        BYTE   W48
// 045   ----------------------------------------
        BYTE           N96     Cn2
        BYTE           N96     An2
        BYTE   W96
// 046   ----------------------------------------
        BYTE           TIE
        BYTE           TIE     Cn2
        BYTE   W96
// 047   ----------------------------------------
        BYTE   W96
// 048   ----------------------------------------
        BYTE           EOT
        BYTE           EOT     An2
        BYTE   GoTo
         POIN2  tf3thegrubbybluedark_5_LOOP
        BYTE   FINE

//****************** Track 6 (Midi-Chn.6) ******************//

tf3thegrubbybluedark_6:
        BYTE   KEYSH   tf3thegrubbybluedark_key+0
// 000   ----------------------------------------
        BYTE           VOICE   62
        BYTE           VOL     30
        BYTE           BENDR   24
        BYTE           PAN     c_v+32
        BYTE           TIE     An1   v115
        BYTE           TIE     En1
        BYTE   W48
        BYTE   W01
        BYTE           BEND    c_v+1
        BYTE   W02
        BYTE                   c_v+2
        BYTE   W01
        BYTE                   c_v+3
        BYTE   W02
        BYTE                   c_v+4
        BYTE   W01
        BYTE                   c_v+5
        BYTE   W02
        BYTE                   c_v+6
        BYTE   W01
        BYTE                   c_v+7
        BYTE   W02
        BYTE                   c_v+8
        BYTE   W01
        BYTE                   c_v+9
        BYTE   W02
        BYTE                   c_v+10
        BYTE   W01
        BYTE                   c_v+11
        BYTE   W02
        BYTE                   c_v+12
        BYTE   W01
        BYTE                   c_v+13
        BYTE   W02
        BYTE                   c_v+14
        BYTE   W01
        BYTE                   c_v+15
        BYTE   W02
        BYTE                   c_v+16
        BYTE   W01
        BYTE                   c_v+17
        BYTE   W02
        BYTE                   c_v+18
        BYTE   W01
        BYTE                   c_v+19
        BYTE   W02
        BYTE                   c_v+20
        BYTE   W01
        BYTE                   c_v+21
        BYTE   W02
        BYTE                   c_v+22
        BYTE   W01
        BYTE                   c_v+23
        BYTE   W02
        BYTE                   c_v+24
        BYTE   W01
        BYTE                   c_v+25
        BYTE   W02
        BYTE                   c_v+26
        BYTE   W01
        BYTE                   c_v+27
        BYTE   W02
        BYTE                   c_v+28
        BYTE   W02
        BYTE                   c_v+29
        BYTE   W01
        BYTE                   c_v+30
        BYTE   W02
        BYTE                   c_v+31
        BYTE   W01
// 001   ----------------------------------------
        BYTE                   c_v+32
        BYTE   W02
        BYTE                   c_v+33
        BYTE   W01
        BYTE                   c_v+34
        BYTE   W02
        BYTE                   c_v+35
        BYTE   W01
        BYTE                   c_v+36
        BYTE   W02
        BYTE                   c_v+37
        BYTE   W01
        BYTE                   c_v+38
        BYTE   W02
        BYTE                   c_v+39
        BYTE   W01
        BYTE                   c_v+40
        BYTE   W02
        BYTE                   c_v+41
        BYTE   W01
        BYTE                   c_v+42
        BYTE   W02
        BYTE                   c_v+43
        BYTE   W01
        BYTE                   c_v+44
        BYTE   W02
        BYTE                   c_v+45
        BYTE   W01
        BYTE                   c_v+46
        BYTE   W02
        BYTE                   c_v+47
        BYTE   W01
        BYTE                   c_v+48
        BYTE   W02
        BYTE                   c_v+49
        BYTE   W01
        BYTE                   c_v+50
        BYTE   W02
        BYTE                   c_v+51
        BYTE   W01
        BYTE                   c_v+52
        BYTE   W02
        BYTE                   c_v+53
        BYTE   W01
        BYTE                   c_v+54
        BYTE   W02
        BYTE                   c_v+55
        BYTE   W01
        BYTE                   c_v+56
        BYTE   W02
        BYTE                   c_v+57
        BYTE   W01
        BYTE                   c_v+58
        BYTE   W02
        BYTE                   c_v+59
        BYTE   W01
        BYTE                   c_v+60
        BYTE   W02
        BYTE                   c_v+61
        BYTE   W01
        BYTE                   c_v+62
        BYTE   W02
        BYTE                   c_v+63
        BYTE   W24
        BYTE   W02
        BYTE           VOL     29
        BYTE   W02
        BYTE                   28
        BYTE   W01
        BYTE                   27
        BYTE   W02
        BYTE                   26
        BYTE   W01
        BYTE                   25
        BYTE   W02
        BYTE                   24
        BYTE   W01
        BYTE                   23
        BYTE   W02
        BYTE                   22
        BYTE   W01
        BYTE                   21
        BYTE   W03
        BYTE                   20
        BYTE   W02
        BYTE                   19
        BYTE   W01
        BYTE                   18
        BYTE   W02
        BYTE                   17
        BYTE   W01
        BYTE           EOT
        BYTE           EOT     An1
        BYTE           VOL     16
        BYTE   W01
        BYTE                   30
        BYTE           BEND    c_v+0
        BYTE   W01
// 002   ----------------------------------------
tf3thegrubbybluedark_6_LOOP:
        BYTE           TIE     En3   v115
        BYTE   W96
// 003   ----------------------------------------
        BYTE   W48
        BYTE           EOT
        BYTE           N12
        BYTE   W12
        BYTE                   Fn3
        BYTE   W24
        BYTE           TIE
        BYTE   W12
// 004   ----------------------------------------
        BYTE   W96
// 005   ----------------------------------------
        BYTE   W48
        BYTE           EOT
        BYTE           N12
        BYTE   W12
        BYTE                   Gn3
        BYTE   W24
        BYTE           TIE     An3
        BYTE   W12
// 006   ----------------------------------------
        BYTE   W96
// 007   ----------------------------------------
        BYTE   W36
        BYTE           EOT
        BYTE           N48     Bn3
        BYTE   W48
        BYTE           N96
        BYTE   W12
// 008   ----------------------------------------
        BYTE   W84
        BYTE           TIE     Cn4
        BYTE   W12
// 009   ----------------------------------------
        BYTE   W96
// 010   ----------------------------------------
        BYTE           EOT
        BYTE           VOICE   0
        BYTE           N10     Cn3   v120
        BYTE           N10     En3
        BYTE   W12
        BYTE                   Cn3
        BYTE           N10     En3
        BYTE   W12
        BYTE                   Bn2
        BYTE           N10     Dn3
        BYTE   W12
        BYTE           N21     Bn2
        BYTE           N21     Dn3
        BYTE   W24
        BYTE           N10
        BYTE           N10     Bn2
        BYTE   W12
        BYTE                   Bn2
        BYTE           N10     Dn3
        BYTE   W12
        BYTE                   Bn2
        BYTE           N10     Dn3
        BYTE   W12
// 011   ----------------------------------------
tf3thegrubbybluedark_6_11:
        BYTE           N10     En3   v120
        BYTE           N10     Cn3
        BYTE   W12
        BYTE                   En3
        BYTE           N10     Cn3
        BYTE   W12
        BYTE                   Dn3
        BYTE           N10     Bn2
        BYTE   W12
        BYTE                   Bn2
        BYTE           N10     Dn3
        BYTE   W12
        BYTE           N21     An2
        BYTE           N21     Cn3
        BYTE   W24
        BYTE                   Bn2
        BYTE           N21     Dn3
        BYTE   W24
        BYTE   PEND
// 012   ----------------------------------------
        BYTE           N10     Cn3
        BYTE           N10     En3
        BYTE   W12
        BYTE                   Cn3
        BYTE           N10     En3
        BYTE   W12
        BYTE                   Bn2
        BYTE           N10     Dn3
        BYTE   W12
        BYTE           N21     Bn2
        BYTE           N21     Dn3
        BYTE   W24
        BYTE           N10
        BYTE           N10     Bn2
        BYTE   W12
        BYTE                   Bn2
        BYTE           N10     Dn3
        BYTE   W12
        BYTE                   Bn2
        BYTE           N10     Dn3
        BYTE   W12
// 013   ----------------------------------------
        BYTE   PATT
         POIN2  tf3thegrubbybluedark_6_11
// 014   ----------------------------------------
        BYTE           VOICE   62
        BYTE   W01
        BYTE           N36     En3   v085
        BYTE   W36
        BYTE                   An3
        BYTE   W36
        BYTE           N24     Gn3
        BYTE   W23
// 015   ----------------------------------------
tf3thegrubbybluedark_6_15:
        BYTE   W01
        BYTE           N12     En3   v085
        BYTE   W12
        BYTE                   Cn3
        BYTE   W12
        BYTE                   Dn3
        BYTE   W12
        BYTE           N60     En3
        BYTE   W56
        BYTE   W03
        BYTE   PEND
// 016   ----------------------------------------
tf3thegrubbybluedark_6_16:
        BYTE   W01
        BYTE           N72     Fn3   v085
        BYTE   W72
        BYTE           N12     En3
        BYTE   W12
        BYTE           N36     Cn4
        BYTE   W11
        BYTE   PEND
// 017   ----------------------------------------
tf3thegrubbybluedark_6_17:
        BYTE   W24
        BYTE   W01
        BYTE           N24     Bn3   v085
        BYTE   W24
        BYTE           N12     An3
        BYTE   W12
        BYTE                   Fn3
        BYTE   W12
        BYTE                   Gs3
        BYTE   W12
        BYTE                   En3
        BYTE   W11
        BYTE   PEND
// 018   ----------------------------------------
tf3thegrubbybluedark_6_18:
        BYTE   W01
        BYTE           N36     Fn3   v085
        BYTE   W36
        BYTE                   Gn3
        BYTE   W36
        BYTE           N24     An3
        BYTE   W23
        BYTE   PEND
// 019   ----------------------------------------
        BYTE   PATT
         POIN2  tf3thegrubbybluedark_6_18
// 020   ----------------------------------------
        BYTE   W01
        BYTE           N84     Cn4   v085
        BYTE   W84
        BYTE           TIE     Bn3
        BYTE   W11
// 021   ----------------------------------------
        BYTE   W96
// 022   ----------------------------------------
        BYTE   W01
        BYTE           EOT
        BYTE           N36     En3
        BYTE   W36
        BYTE                   An3
        BYTE   W36
        BYTE           N24     Gn3
        BYTE   W23
// 023   ----------------------------------------
        BYTE   PATT
         POIN2  tf3thegrubbybluedark_6_15
// 024   ----------------------------------------
        BYTE   PATT
         POIN2  tf3thegrubbybluedark_6_16
// 025   ----------------------------------------
        BYTE   PATT
         POIN2  tf3thegrubbybluedark_6_17
// 026   ----------------------------------------
        BYTE   W01
        BYTE           N36     Dn3   v085
        BYTE   W36
        BYTE                   En3
        BYTE   W36
        BYTE           N24     Fn3
        BYTE   W23
// 027   ----------------------------------------
        BYTE   W01
        BYTE           N18     En3
        BYTE   W18
        BYTE                   Fn3
        BYTE   W18
        BYTE           N12     Gs3
        BYTE   W12
        BYTE           N48     Bn3
        BYTE   W44
        BYTE   W03
// 028   ----------------------------------------
        BYTE   W01
        BYTE           TIE     An3
        BYTE   W92
        BYTE   W03
// 029   ----------------------------------------
        BYTE   W96
// 030   ----------------------------------------
        BYTE           EOT
        BYTE           VOICE   0
        BYTE           N96     Gn4   v110
        BYTE   W96
// 031   ----------------------------------------
        BYTE           N36     Fn4
        BYTE   W36
        BYTE           N24     En4
        BYTE   W24
        BYTE           N36     Dn4
        BYTE   W36
// 032   ----------------------------------------
        BYTE           N72     Cn4
        BYTE   W72
        BYTE           N24     An4
        BYTE   W24
// 033   ----------------------------------------
        BYTE                   Gs4
        BYTE   W24
        BYTE                   Fn4
        BYTE   W24
        BYTE           N48     En4
        BYTE   W48
// 034   ----------------------------------------
        BYTE           N72     Dn4
        BYTE   W72
        BYTE           N24     Fn4
        BYTE   W24
// 035   ----------------------------------------
        BYTE           N48     Gn4
        BYTE   W48
        BYTE                   Bn4
        BYTE   W48
// 036   ----------------------------------------
        BYTE                   Cn5
        BYTE   W48
        BYTE           N12
        BYTE   W12
        BYTE                   An4
        BYTE   W12
        BYTE                   Bn4
        BYTE   W12
        BYTE                   An4
        BYTE   W12
// 037   ----------------------------------------
        BYTE           N24     Bn4
        BYTE   W24
        BYTE           N12     Cn5
        BYTE   W12
        BYTE           N24     Dn5
        BYTE   W24
        BYTE           N36     En5
        BYTE   W36
// 038   ----------------------------------------
        BYTE           N72     Cn5
        BYTE   W72
        BYTE           N24     An4
        BYTE   W24
// 039   ----------------------------------------
        BYTE           N48     Dn5
        BYTE   W48
        BYTE           N24     Gn5
        BYTE   W24
        BYTE                   Fn5
        BYTE   W24
// 040   ----------------------------------------
        BYTE           TIE     En5
        BYTE   W96
// 041   ----------------------------------------
        BYTE   W96
// 042   ----------------------------------------
        BYTE           EOT
        BYTE   W01
        BYTE           N11     An3   v100
        BYTE   W12
        BYTE           N22     Cn4
        BYTE   W24
        BYTE           N11     An3
        BYTE   W12
        BYTE           N32     Gn3
        BYTE   W36
        BYTE           N11     En3
        BYTE   W11
// 043   ----------------------------------------
        BYTE   W01
        BYTE                   Fn3
        BYTE   W12
        BYTE                   En3
        BYTE   W12
        BYTE                   Dn3
        BYTE   W12
        BYTE                   Cn3
        BYTE   W12
        BYTE           N22     Dn3
        BYTE   W24
        BYTE                   En3
        BYTE   W23
// 044   ----------------------------------------
        BYTE   W01
        BYTE           N11     An3
        BYTE   W12
        BYTE           N22     Cn4
        BYTE   W24
        BYTE           N11     An3
        BYTE   W12
        BYTE           N32     Gn3
        BYTE   W36
        BYTE           N11     En3
        BYTE   W11
// 045   ----------------------------------------
        BYTE   W01
        BYTE                   Fn3
        BYTE   W12
        BYTE           N54     En3
        BYTE   W60
        BYTE           N22     Gs3
        BYTE   W23
// 046   ----------------------------------------
        BYTE   W01
        BYTE           TIE     An3
        BYTE   W92
        BYTE   W03
// 047   ----------------------------------------
        BYTE   W78
        BYTE           EOT
        BYTE   W18
// 048   ----------------------------------------
        BYTE           VOICE   62
        BYTE   GoTo
         POIN2  tf3thegrubbybluedark_6_LOOP
        BYTE   FINE

//****************** Track 7 (Midi-Chn.7) ******************//

tf3thegrubbybluedark_7:
        BYTE   KEYSH   tf3thegrubbybluedark_key+0
// 000   ----------------------------------------
        BYTE           VOICE   124
        BYTE           VOL     40
        BYTE           N06     Cn1   v058
        BYTE   W96
// 001   ----------------------------------------
        BYTE                   Dn1   v072
        BYTE           N06     Cn1   v127
        BYTE   W24
        BYTE                   Dn1   v072
        BYTE           N06     Cn1   v127
        BYTE   W24
        BYTE                   Dn1   v072
        BYTE           N06     Cn1   v127
        BYTE   W24
        BYTE                   Dn1   v072
        BYTE           N06     Cn1   v127
        BYTE   W24
// 002   ----------------------------------------
tf3thegrubbybluedark_7_LOOP:
        BYTE           N06     Cn1   v127
        BYTE   W24
        BYTE                   Dn1   v112
        BYTE   W24
        BYTE                   Cn1   v127
        BYTE   W24
        BYTE                   Dn1   v112
        BYTE   W24
// 003   ----------------------------------------
tf3thegrubbybluedark_7_3:
        BYTE           N06     Cn1   v127
        BYTE   W24
        BYTE                   Dn1   v112
        BYTE   W24
        BYTE                   Cn1   v127
        BYTE   W24
        BYTE                   Dn1   v112
        BYTE   W24
        BYTE   PEND
// 004   ----------------------------------------
        BYTE   PATT
         POIN2  tf3thegrubbybluedark_7_3
// 005   ----------------------------------------
        BYTE   PATT
         POIN2  tf3thegrubbybluedark_7_3
// 006   ----------------------------------------
        BYTE   PATT
         POIN2  tf3thegrubbybluedark_7_3
// 007   ----------------------------------------
        BYTE   PATT
         POIN2  tf3thegrubbybluedark_7_3
// 008   ----------------------------------------
        BYTE   PATT
         POIN2  tf3thegrubbybluedark_7_3
// 009   ----------------------------------------
        BYTE           N06     Cn1   v127
        BYTE   W24
        BYTE                   Dn1   v112
        BYTE   W24
        BYTE                   Cn1   v127
        BYTE   W12
        BYTE                   Dn1   v112
        BYTE   W06
        BYTE                   Dn1
        BYTE   W06
        BYTE                   Dn1
        BYTE   W06
        BYTE                   Dn1
        BYTE   W06
        BYTE                   Dn1
        BYTE   W06
        BYTE                   Dn1
        BYTE   W06
// 010   ----------------------------------------
        BYTE   PATT
         POIN2  tf3thegrubbybluedark_7_3
// 011   ----------------------------------------
        BYTE   PATT
         POIN2  tf3thegrubbybluedark_7_3
// 012   ----------------------------------------
        BYTE   PATT
         POIN2  tf3thegrubbybluedark_7_3
// 013   ----------------------------------------
        BYTE           N06     Cn1   v127
        BYTE   W24
        BYTE                   Dn1   v112
        BYTE   W24
        BYTE                   Cn2   v120
        BYTE   W06
        BYTE                   Cn2
        BYTE   W06
        BYTE                   Cn2
        BYTE   W06
        BYTE                   Cn2
        BYTE   W06
        BYTE                   An1
        BYTE   W06
        BYTE                   An1
        BYTE   W06
        BYTE                   An1
        BYTE   W06
        BYTE                   An1
        BYTE   W06
// 014   ----------------------------------------
        BYTE   PATT
         POIN2  tf3thegrubbybluedark_7_3
// 015   ----------------------------------------
        BYTE   PATT
         POIN2  tf3thegrubbybluedark_7_3
// 016   ----------------------------------------
        BYTE   PATT
         POIN2  tf3thegrubbybluedark_7_3
// 017   ----------------------------------------
        BYTE   PATT
         POIN2  tf3thegrubbybluedark_7_3
// 018   ----------------------------------------
        BYTE   PATT
         POIN2  tf3thegrubbybluedark_7_3
// 019   ----------------------------------------
        BYTE   PATT
         POIN2  tf3thegrubbybluedark_7_3
// 020   ----------------------------------------
        BYTE   PATT
         POIN2  tf3thegrubbybluedark_7_3
// 021   ----------------------------------------
        BYTE           N06     Cn1   v127
        BYTE   W24
        BYTE                   Dn1   v112
        BYTE   W06
        BYTE                   Dn1
        BYTE   W12
        BYTE                   Cn1   v127
        BYTE   W18
        BYTE                   Cn1
        BYTE   W12
        BYTE                   Dn1   v112
        BYTE   W06
        BYTE                   Dn1
        BYTE   W06
        BYTE                   Dn1
        BYTE   W12
// 022   ----------------------------------------
        BYTE   PATT
         POIN2  tf3thegrubbybluedark_7_3
// 023   ----------------------------------------
        BYTE   PATT
         POIN2  tf3thegrubbybluedark_7_3
// 024   ----------------------------------------
        BYTE   PATT
         POIN2  tf3thegrubbybluedark_7_3
// 025   ----------------------------------------
        BYTE   PATT
         POIN2  tf3thegrubbybluedark_7_3
// 026   ----------------------------------------
        BYTE   PATT
         POIN2  tf3thegrubbybluedark_7_3
// 027   ----------------------------------------
        BYTE   PATT
         POIN2  tf3thegrubbybluedark_7_3
// 028   ----------------------------------------
        BYTE   PATT
         POIN2  tf3thegrubbybluedark_7_3
// 029   ----------------------------------------
        BYTE           N06     Cn1   v127
        BYTE   W24
        BYTE                   Dn1   v112
        BYTE   W24
        BYTE                   Cn2   v120
        BYTE   W06
        BYTE                   Cn2
        BYTE   W06
        BYTE                   Cn2
        BYTE   W06
        BYTE                   Bn1
        BYTE   W06
        BYTE                   Bn1
        BYTE   W06
        BYTE                   An1
        BYTE   W06
        BYTE                   An1
        BYTE   W06
        BYTE                   An1
        BYTE   W06
// 030   ----------------------------------------
        BYTE   PATT
         POIN2  tf3thegrubbybluedark_7_3
// 031   ----------------------------------------
        BYTE   PATT
         POIN2  tf3thegrubbybluedark_7_3
// 032   ----------------------------------------
        BYTE   PATT
         POIN2  tf3thegrubbybluedark_7_3
// 033   ----------------------------------------
tf3thegrubbybluedark_7_33:
        BYTE           N06     Cn1   v127
        BYTE   W24
        BYTE                   Dn1   v112
        BYTE   W24
        BYTE                   Cn1   v127
        BYTE   W12
        BYTE                   Dn1   v112
        BYTE   W12
        BYTE                   Dn1
        BYTE   W24
        BYTE   PEND
// 034   ----------------------------------------
        BYTE   PATT
         POIN2  tf3thegrubbybluedark_7_3
// 035   ----------------------------------------
        BYTE   PATT
         POIN2  tf3thegrubbybluedark_7_3
// 036   ----------------------------------------
        BYTE   PATT
         POIN2  tf3thegrubbybluedark_7_3
// 037   ----------------------------------------
        BYTE   PATT
         POIN2  tf3thegrubbybluedark_7_33
// 038   ----------------------------------------
        BYTE   PATT
         POIN2  tf3thegrubbybluedark_7_3
// 039   ----------------------------------------
        BYTE   PATT
         POIN2  tf3thegrubbybluedark_7_3
// 040   ----------------------------------------
        BYTE   PATT
         POIN2  tf3thegrubbybluedark_7_3
// 041   ----------------------------------------
        BYTE           N06     Cn1   v127
        BYTE   W24
        BYTE                   Dn1   v112
        BYTE   W24
        BYTE                   Cn1   v127
        BYTE   W12
        BYTE                   Dn1   v112
        BYTE   W12
        BYTE                   Dn1
        BYTE   W12
        BYTE                   Dn1
        BYTE   W12
// 042   ----------------------------------------
        BYTE   PATT
         POIN2  tf3thegrubbybluedark_7_3
// 043   ----------------------------------------
        BYTE           N06     Cn1   v127
        BYTE   W24
        BYTE                   Dn1   v112
        BYTE   W24
        BYTE                   Cn1   v127
        BYTE   W24
        BYTE                   Dn1   v112
        BYTE   W12
        BYTE                   Dn1
        BYTE   W06
        BYTE                   Dn1
        BYTE   W06
// 044   ----------------------------------------
        BYTE   PATT
         POIN2  tf3thegrubbybluedark_7_3
// 045   ----------------------------------------
        BYTE           N06     Cn1   v127
        BYTE   W24
        BYTE                   Cn1
        BYTE   W24
        BYTE                   Cn1
        BYTE   W24
        BYTE                   Dn1   v112
        BYTE   W24
// 046   ----------------------------------------
        BYTE   PATT
         POIN2  tf3thegrubbybluedark_7_3
// 047   ----------------------------------------
        BYTE           N06     Cn2   v120
        BYTE   W06
        BYTE                   Cn2
        BYTE   W06
        BYTE                   Cn2
        BYTE   W06
        BYTE                   Bn1
        BYTE   W06
        BYTE                   Bn1
        BYTE   W06
        BYTE                   An1
        BYTE   W06
        BYTE                   An1
        BYTE   W06
        BYTE                   An1
        BYTE   W06
        BYTE                   Dn1   v112
        BYTE   W06
        BYTE                   Dn1
        BYTE   W06
        BYTE                   Dn1
        BYTE   W06
        BYTE                   Dn1   v092
        BYTE   W06
        BYTE                   Dn1   v112
        BYTE   W12
        BYTE                   Dn1
        BYTE   W12
// 048   ----------------------------------------
        BYTE   GoTo
         POIN2  tf3thegrubbybluedark_7_LOOP
        BYTE   FINE

//****************** Track 8 (Midi-Chn.8) ******************//

tf3thegrubbybluedark_8:
        BYTE   KEYSH   tf3thegrubbybluedark_key+0
// 000   ----------------------------------------
        BYTE           VOICE   124
        BYTE           VOL     30
        BYTE   W96
// 001   ----------------------------------------
        BYTE   W96
// 002   ----------------------------------------
tf3thegrubbybluedark_8_LOOP:
        BYTE           N06     Fs1   v064
        BYTE   W12
        BYTE                   Fs1   v084
        BYTE   W12
        BYTE                   Fs1
        BYTE   W12
        BYTE                   Fs1
        BYTE   W12
        BYTE                   Fs1
        BYTE   W12
        BYTE                   Fs1
        BYTE   W12
        BYTE                   Fs1
        BYTE   W12
        BYTE                   Fs1
        BYTE   W12
// 003   ----------------------------------------
tf3thegrubbybluedark_8_3:
        BYTE           N06     Fs1   v084
        BYTE   W12
        BYTE                   Fs1
        BYTE   W12
        BYTE                   Fs1
        BYTE   W12
        BYTE                   Fs1
        BYTE   W12
        BYTE                   Fs1
        BYTE   W12
        BYTE                   Fs1
        BYTE   W12
        BYTE                   Fs1
        BYTE   W12
        BYTE                   Fs1
        BYTE   W12
        BYTE   PEND
// 004   ----------------------------------------
        BYTE   PATT
         POIN2  tf3thegrubbybluedark_8_3
// 005   ----------------------------------------
        BYTE   PATT
         POIN2  tf3thegrubbybluedark_8_3
// 006   ----------------------------------------
        BYTE   PATT
         POIN2  tf3thegrubbybluedark_8_3
// 007   ----------------------------------------
        BYTE   PATT
         POIN2  tf3thegrubbybluedark_8_3
// 008   ----------------------------------------
        BYTE   PATT
         POIN2  tf3thegrubbybluedark_8_3
// 009   ----------------------------------------
        BYTE   PATT
         POIN2  tf3thegrubbybluedark_8_3
// 010   ----------------------------------------
        BYTE   PATT
         POIN2  tf3thegrubbybluedark_8_3
// 011   ----------------------------------------
        BYTE   PATT
         POIN2  tf3thegrubbybluedark_8_3
// 012   ----------------------------------------
        BYTE   PATT
         POIN2  tf3thegrubbybluedark_8_3
// 013   ----------------------------------------
tf3thegrubbybluedark_8_13:
        BYTE           N06     Fs1   v084
        BYTE   W12
        BYTE                   Fs1
        BYTE   W12
        BYTE                   Fs1
        BYTE   W12
        BYTE                   Fs1
        BYTE   W12
        BYTE                   Fs1
        BYTE   W48
        BYTE   PEND
// 014   ----------------------------------------
tf3thegrubbybluedark_8_14:
        BYTE           N06     Fs1   v064
        BYTE   W12
        BYTE                   Fs1   v084
        BYTE   W12
        BYTE                   Fs1
        BYTE   W12
        BYTE                   Fs1
        BYTE   W12
        BYTE                   Fs1
        BYTE   W12
        BYTE                   Fs1
        BYTE   W12
        BYTE                   Fs1
        BYTE   W12
        BYTE                   Fs1
        BYTE   W12
        BYTE   PEND
// 015   ----------------------------------------
        BYTE   PATT
         POIN2  tf3thegrubbybluedark_8_3
// 016   ----------------------------------------
        BYTE   PATT
         POIN2  tf3thegrubbybluedark_8_3
// 017   ----------------------------------------
        BYTE   PATT
         POIN2  tf3thegrubbybluedark_8_3
// 018   ----------------------------------------
        BYTE   PATT
         POIN2  tf3thegrubbybluedark_8_3
// 019   ----------------------------------------
        BYTE   PATT
         POIN2  tf3thegrubbybluedark_8_3
// 020   ----------------------------------------
        BYTE   PATT
         POIN2  tf3thegrubbybluedark_8_3
// 021   ----------------------------------------
        BYTE   PATT
         POIN2  tf3thegrubbybluedark_8_3
// 022   ----------------------------------------
        BYTE   PATT
         POIN2  tf3thegrubbybluedark_8_3
// 023   ----------------------------------------
        BYTE   PATT
         POIN2  tf3thegrubbybluedark_8_3
// 024   ----------------------------------------
        BYTE   PATT
         POIN2  tf3thegrubbybluedark_8_3
// 025   ----------------------------------------
        BYTE   PATT
         POIN2  tf3thegrubbybluedark_8_3
// 026   ----------------------------------------
        BYTE   PATT
         POIN2  tf3thegrubbybluedark_8_3
// 027   ----------------------------------------
        BYTE   PATT
         POIN2  tf3thegrubbybluedark_8_3
// 028   ----------------------------------------
        BYTE   PATT
         POIN2  tf3thegrubbybluedark_8_3
// 029   ----------------------------------------
        BYTE   PATT
         POIN2  tf3thegrubbybluedark_8_13
// 030   ----------------------------------------
        BYTE   PATT
         POIN2  tf3thegrubbybluedark_8_14
// 031   ----------------------------------------
        BYTE   PATT
         POIN2  tf3thegrubbybluedark_8_3
// 032   ----------------------------------------
        BYTE   PATT
         POIN2  tf3thegrubbybluedark_8_3
// 033   ----------------------------------------
        BYTE   PATT
         POIN2  tf3thegrubbybluedark_8_3
// 034   ----------------------------------------
        BYTE   PATT
         POIN2  tf3thegrubbybluedark_8_3
// 035   ----------------------------------------
        BYTE   PATT
         POIN2  tf3thegrubbybluedark_8_3
// 036   ----------------------------------------
        BYTE   PATT
         POIN2  tf3thegrubbybluedark_8_3
// 037   ----------------------------------------
        BYTE   PATT
         POIN2  tf3thegrubbybluedark_8_3
// 038   ----------------------------------------
        BYTE   PATT
         POIN2  tf3thegrubbybluedark_8_3
// 039   ----------------------------------------
        BYTE   PATT
         POIN2  tf3thegrubbybluedark_8_3
// 040   ----------------------------------------
        BYTE   PATT
         POIN2  tf3thegrubbybluedark_8_3
// 041   ----------------------------------------
        BYTE   PATT
         POIN2  tf3thegrubbybluedark_8_3
// 042   ----------------------------------------
        BYTE   PATT
         POIN2  tf3thegrubbybluedark_8_3
// 043   ----------------------------------------
        BYTE   PATT
         POIN2  tf3thegrubbybluedark_8_3
// 044   ----------------------------------------
        BYTE   PATT
         POIN2  tf3thegrubbybluedark_8_3
// 045   ----------------------------------------
        BYTE           N06     Fs1   v084
        BYTE   W12
        BYTE                   Fs1
        BYTE   W12
        BYTE                   Fs1
        BYTE   W12
        BYTE                   Fs1
        BYTE   W12
        BYTE                   Fs1
        BYTE   W12
        BYTE                   Fs1
        BYTE   W12
        BYTE                   Fs1
        BYTE   W24
// 046   ----------------------------------------
        BYTE   PATT
         POIN2  tf3thegrubbybluedark_8_14
// 047   ----------------------------------------
        BYTE           N06     Fs1   v084
        BYTE   W96
// 048   ----------------------------------------
        BYTE   GoTo
         POIN2  tf3thegrubbybluedark_8_LOOP
        BYTE   FINE


//********************** End of Song ***********************//

        ALIGN 4
tf3thegrubbybluedark:
        BYTE   9                       // Num Tracks
        BYTE   0                       // Unknown
        BYTE   tf3thegrubbybluedark_pri // Priority
        BYTE   tf3thegrubbybluedark_rev // Reverb

        POIN2   tf3thegrubbybluedark_grp

        POIN2   tf3thegrubbybluedark_0
        POIN2   tf3thegrubbybluedark_1
        POIN2   tf3thegrubbybluedark_2
        POIN2   tf3thegrubbybluedark_3
        POIN2   tf3thegrubbybluedark_4
        POIN2   tf3thegrubbybluedark_5
        POIN2   tf3thegrubbybluedark_6
        POIN2   tf3thegrubbybluedark_7
        POIN2   tf3thegrubbybluedark_8

        
